<!-- Generated by IcoMoon.io -->
<svg version="1.1" xmlns="http://www.w3.org/2000/svg" width="32" height="32" viewBox="0 0 32 32">
<title>uniF505</title>
<path d="M27.406 19.063l2.219 4.813-5.281 0.469-0.469 5.281-4.813-2.219-3.063 4.328-3.063-4.328-4.813 2.219-0.469-5.281-5.281-0.469 2.219-4.813-4.328-3.063 4.328-3.063-2.219-4.813 5.281-0.469 0.469-5.281 4.813 2.219 3.063-4.328 3.063 4.328 4.813-2.219 0.469 5.281 5.281 0.469-2.219 4.813 4.328 3.063zM26.625 22.125l-1.734-3.75 3.375-2.375-3.375-2.375 1.734-3.75-4.125-0.375-0.375-4.125-3.75 1.734-2.375-3.375-2.375 3.375-3.75-1.734-0.375 4.125-4.125 0.375 1.734 3.75-3.375 2.375 3.375 2.375-1.734 3.75 4.125 0.375 0.375 4.125 3.75-1.734 2.375 3.375 2.375-3.375 3.75 1.734 0.375-4.125z"></path>
</svg>
