<!-- Generated by IcoMoon.io -->
<svg version="1.1" xmlns="http://www.w3.org/2000/svg" width="32" height="32" viewBox="0 0 32 32">
<title>uniED68</title>
<path d="M32 20.469l-16 9.344-16-9.344 16-18.281zM23.781 21.406q0.469 0 0.891-0.18t0.727-0.484 0.484-0.727 0.18-0.891-0.18-0.883-0.492-0.719-0.727-0.484-0.883-0.18q-0.5 0-0.969 0.219l-4.906-5.609q0.359-0.547 0.359-1.234 0-0.469-0.18-0.883t-0.484-0.719-0.719-0.484-0.883-0.18-0.883 0.18-0.727 0.484-0.492 0.719-0.18 0.883q0 0.328 0.102 0.648t0.273 0.586l-4.906 5.609q-0.469-0.219-0.969-0.219-0.469 0-0.883 0.18t-0.727 0.484-0.492 0.719-0.18 0.883 0.18 0.891 0.484 0.727 0.727 0.484 0.891 0.18q0.438 0 0.844-0.164t0.719-0.477l4.016 2.344q-0.078 0.313-0.078 0.563 0 0.469 0.18 0.883t0.492 0.727 0.727 0.492 0.883 0.18 0.883-0.18 0.727-0.492 0.492-0.727 0.18-0.883q0-0.25-0.078-0.563l4-2.344q0.313 0.313 0.719 0.477t0.859 0.164zM15.031 12.297q0.078 0.031 0.164 0.063t0.18 0.063v9.063q-0.547 0.172-0.953 0.547l-4.016-2.344q0.078-0.313 0.078-0.563 0-0.688-0.359-1.234zM21.875 17.891q-0.359 0.547-0.359 1.234 0 0.313 0.063 0.563l-4 2.344q-0.406-0.375-0.953-0.547v-9.063q0.094-0.031 0.18-0.063t0.164-0.063z"></path>
</svg>
