<!-- Generated by IcoMoon.io -->
<svg version="1.1" xmlns="http://www.w3.org/2000/svg" width="32" height="32" viewBox="0 0 32 32">
<title>uniED69</title>
<path d="M20 1q2.141 0 4.281 0.234 0.375 0.047 1.086 0.148t1.57 0.281 1.758 0.438 1.633 0.609 1.203 0.797 0.469 0.992v23q0 0.547-0.469 0.992t-1.203 0.797-1.633 0.609-1.758 0.438-1.57 0.289-1.086 0.141q-2.141 0.234-4.281 0.234-2.156 0-4.281-0.234-0.375-0.031-1.086-0.141t-1.57-0.289-1.758-0.438-1.633-0.609-1.203-0.797-0.469-0.992v-3.5h-6.672q-0.547 0-0.938-0.391t-0.391-0.938v-13.344q0-0.547 0.391-0.938t0.938-0.391h6.672v-3.5q0-0.547 0.469-0.992t1.203-0.797 1.633-0.609 1.758-0.438 1.57-0.281 1.086-0.148q2.125-0.234 4.281-0.234zM20 3q-1.016 0-2.266 0.070t-2.539 0.242-2.508 0.461-2.156 0.727q0.969 0.453 2.18 0.742t2.484 0.453 2.516 0.234 2.289 0.070 2.289-0.070 2.516-0.234 2.484-0.453 2.18-0.742q-0.938-0.438-2.156-0.727t-2.508-0.461-2.539-0.242-2.266-0.070zM6.297 18.859h3.391l0.797 2.391h2.672l-3.828-10.5h-2.609l-3.875 10.5h2.656zM30 27.172v-4.734q-1.031 0.453-2.305 0.75t-2.617 0.477-2.656 0.258-2.422 0.078q-1.141 0-2.273-0.070t-2.258-0.195q-0.359 0.266-0.797 0.266h-4.672v3.172q0.453 0.359 1.219 0.641t1.695 0.484 1.945 0.336 1.977 0.219 1.789 0.117 1.375 0.031 1.375-0.031 1.789-0.117 1.977-0.219 1.945-0.336 1.695-0.484 1.219-0.641zM30 20.203v-5.766q-1.031 0.453-2.305 0.75t-2.617 0.477-2.656 0.258-2.422 0.078q-1 0-2-0.055t-2-0.148v6q1 0.109 2 0.156t2 0.047q0.578 0 1.406-0.031t1.773-0.117 1.945-0.219 1.922-0.336 1.695-0.469 1.258-0.625zM30 12.203v-5.766q-1.031 0.453-2.305 0.75t-2.617 0.477-2.656 0.258-2.422 0.078-2.422-0.078-2.656-0.258-2.617-0.477-2.305-0.75v1.563h4.672q0.547 0 0.938 0.391t0.391 0.938v4.469q1 0.109 2 0.156t2 0.047q0.578 0 1.406-0.031t1.773-0.117 1.945-0.219 1.922-0.336 1.688-0.469 1.266-0.625zM6.906 16.828l1.078-3.266 1.047 3.266h-2.125z"></path>
</svg>
