<!-- Generated by IcoMoon.io -->
<svg version="1.1" xmlns="http://www.w3.org/2000/svg" width="32" height="32" viewBox="0 0 32 32">
<title>uniF835</title>
<path d="M2 2v28h6v2h-8v-32h17.422l8.578 8.578v1.422h-10v-8h-14zM18 3.422v4.578h4.578zM24 20l-3 4-3-4h2v-8h2v8h2zM32 21l-4 3v-2h-3l1.5-2h1.5v-2zM10.109 22q0.141-1.266 0.617-2.43t1.273-2.164l1.422 1.422q-1.078 1.406-1.313 3.172h-2zM12.109 24q0.234 1.766 1.313 3.172l-1.422 1.422q-0.797-1-1.273-2.164t-0.617-2.43h2zM18 16.109q-1.766 0.234-3.172 1.313l-1.422-1.422q1-0.797 2.164-1.273t2.43-0.617v2zM24.578 27.172q1.078-1.406 1.313-3.172h2q-0.141 1.266-0.617 2.43t-1.273 2.164zM20 29.891q1.766-0.234 3.172-1.313l1.422 1.422q-1 0.797-2.164 1.273t-2.43 0.617v-2zM13.406 30l1.422-1.422q1.406 1.078 3.172 1.313v2q-1.266-0.141-2.43-0.617t-2.164-1.273z"></path>
</svg>
