<!-- Generated by IcoMoon.io -->
<svg version="1.1" xmlns="http://www.w3.org/2000/svg" width="32" height="32" viewBox="0 0 32 32">
<title>uniEFF4</title>
<path d="M28 4v28h-24v-28h8q0-0.828 0.313-1.555t0.859-1.273 1.273-0.859 1.555-0.313 1.555 0.313 1.273 0.859 0.859 1.273 0.313 1.555h8zM10 6v2h12v-2h-4v-2q0-0.422-0.156-0.781t-0.43-0.633-0.633-0.43-0.781-0.156-0.781 0.156-0.633 0.43-0.43 0.633-0.156 0.781v2h-4zM26 6h-2v4h-16v-4h-2v24h20v-24zM19.672 11.234q0.656 0 1.227 0.242t0.992 0.656 0.664 0.977 0.242 1.219q0 0.609-0.234 1.188t-0.672 1.016l-8.219 8.297-5.594 1.063 1.172-5.484 8.219-8.281q0.438-0.438 1.016-0.664t1.188-0.227zM20.469 15.125q0.328-0.359 0.328-0.797 0-0.484-0.32-0.789t-0.805-0.305q-0.219 0-0.422 0.070t-0.359 0.227l-7.797 7.859-0.422 1.969 2.016-0.391z"></path>
</svg>
