<!-- Generated by IcoMoon.io -->
<svg version="1.1" xmlns="http://www.w3.org/2000/svg" width="32" height="32" viewBox="0 0 32 32">
<title>uniF55C</title>
<path d="M17.938 18q-1.297-0.969-2.805-1.484t-3.133-0.516q-1.375 0-2.656 0.359t-2.391 1.008-2.023 1.563-1.563 2.023-1.008 2.391-0.359 2.656h-2q0-1.875 0.555-3.609t1.57-3.203 2.445-2.609 3.18-1.797q-0.875-0.547-1.57-1.289t-1.18-1.617-0.742-1.859-0.258-2.016q0-1.656 0.633-3.109t1.719-2.539 2.539-1.719 3.109-0.633 3.109 0.633 2.539 1.719 1.719 2.539 0.633 3.109q0 1.031-0.258 2.016t-0.742 1.859-1.188 1.617-1.578 1.289q0.938 0.359 1.766 0.844v2.375h-0.063zM6 8q0 1.25 0.469 2.336t1.289 1.906 1.906 1.289 2.336 0.469q1.234 0 2.328-0.469t1.914-1.289 1.289-1.906 0.469-2.336q0-1.234-0.469-2.328t-1.289-1.914-1.914-1.289-2.328-0.469q-1.25 0-2.336 0.469t-1.906 1.289-1.289 1.914-0.469 2.328zM32 20v12h-16v-12h4v-4h8v4h4zM22 20h4v-2h-4v2zM30 26h-2v2h-2v-2h-4v2h-2v-2h-2v4h12v-4zM30 22h-12v2h12v-2z"></path>
</svg>
