<!-- Generated by IcoMoon.io -->
<svg version="1.1" xmlns="http://www.w3.org/2000/svg" width="32" height="32" viewBox="0 0 32 32">
<title>uniE910</title>
<path d="M16 0q2.203 0 4.25 0.57t3.828 1.609 3.242 2.5 2.5 3.242 1.609 3.828 0.57 4.25q0 0.859-0.164 1.789t-0.492 1.82-0.828 1.688-1.164 1.398-1.508 0.953-1.844 0.352q-0.844 0-1.648-0.227t-1.492-0.648-1.258-1.031-0.945-1.375q-0.469 0.734-1.078 1.336t-1.328 1.039-1.539 0.672-1.711 0.234q-1.594 0-2.891-0.695t-2.211-1.82-1.406-2.563-0.492-2.922 0.492-2.922 1.406-2.563 2.211-1.82 2.891-0.695q1.484 0 2.758 0.641t2.242 1.75v-2.391h2v10q0 0.828 0.313 1.555t0.859 1.273 1.273 0.859 1.555 0.313q0.688 0 1.258-0.289t1.016-0.766 0.773-1.094 0.539-1.289 0.313-1.336 0.102-1.227q0-1.922-0.5-3.711t-1.414-3.344-2.195-2.836-2.836-2.195-3.344-1.414-3.711-0.5-3.711 0.5-3.344 1.414-2.836 2.195-2.195 2.836-1.414 3.344-0.5 3.711 0.5 3.711 1.414 3.344 2.195 2.836 2.836 2.195 3.336 1.414 3.719 0.5q2.781 0 5.359-1.063l0.766 1.844q-1.469 0.609-3.008 0.914t-3.117 0.305q-2.203 0-4.25-0.57t-3.828-1.609-3.242-2.5-2.5-3.242-1.609-3.82-0.57-4.258q0-2.203 0.57-4.25t1.609-3.828 2.5-3.242 3.242-2.5 3.82-1.609 4.258-0.57zM15 22q1.172 0 2.102-0.539t1.57-1.398 0.984-1.93 0.344-2.133-0.344-2.133-0.984-1.93-1.57-1.398-2.102-0.539-2.102 0.539-1.57 1.398-0.984 1.93-0.344 2.133 0.344 2.133 0.984 1.93 1.57 1.398 2.102 0.539z"></path>
</svg>
