<!-- Generated by IcoMoon.io -->
<svg version="1.1" xmlns="http://www.w3.org/2000/svg" width="32" height="32" viewBox="0 0 32 32">
<title>uniF652</title>
<path d="M32 2v26h-32v-26h32zM2 4v4h28v-4h-28zM30 26v-16h-28v16h28zM18.906 18.75q0.719 0.406 1.289 0.969t0.969 1.242 0.617 1.453 0.219 1.586h-2q0-0.828-0.313-1.555t-0.859-1.273-1.273-0.859-1.555-0.313-1.555 0.313-1.273 0.859-0.859 1.273-0.313 1.555h-2q0-0.813 0.219-1.586t0.617-1.453 0.969-1.242 1.289-0.969q-0.516-0.547-0.805-1.266t-0.289-1.484q0-0.828 0.313-1.555t0.859-1.273 1.273-0.859 1.555-0.313 1.555 0.313 1.273 0.859 0.859 1.273 0.313 1.555q0 0.766-0.289 1.484t-0.805 1.266zM14 16q0 0.422 0.156 0.781t0.43 0.633 0.633 0.43 0.781 0.156 0.781-0.156 0.633-0.43 0.43-0.633 0.156-0.781-0.156-0.781-0.43-0.633-0.633-0.43-0.781-0.156-0.781 0.156-0.633 0.43-0.43 0.633-0.156 0.781z"></path>
</svg>
