<!-- Generated by IcoMoon.io -->
<svg version="1.1" xmlns="http://www.w3.org/2000/svg" width="32" height="32" viewBox="0 0 32 32">
<title>uniF4E1</title>
<path d="M4 19q0-1.406 0.531-2.688t1.516-2.266l3.297-3.297 9.906 9.906-3.297 3.297q-0.984 0.984-2.266 1.516t-2.688 0.531q-1.141 0-2.211-0.352t-1.977-1.039l-5.109 5.094-1.406-1.406 5.094-5.109q-0.688-0.906-1.039-1.977t-0.352-2.211zM11 24.047q0.984 0 1.727-0.273t1.367-0.742 1.195-1.078 1.227-1.266l-7.203-7.203q-0.641 0.641-1.258 1.219t-1.102 1.211-0.773 1.375-0.289 1.711q0 1.078 0.398 2t1.086 1.602 1.625 1.063 2 0.383zM26 11q0 1.391-0.531 2.68t-1.516 2.273l-3.313 3.297-9.891-9.891 3.297-3.313q0.984-0.984 2.281-1.484t2.672-0.5q1.125 0 2.203 0.336t1.984 0.992l5.109-5.094 1.406 1.406-5.094 5.109q0.688 0.906 1.039 1.977t0.352 2.211zM20.688 16.531q0.641-0.625 1.258-1.211t1.094-1.219 0.773-1.383 0.297-1.719q0-1.078-0.398-2t-1.094-1.602-1.625-1.063-1.992-0.383q-0.984 0-1.727 0.281t-1.375 0.742-1.203 1.070-1.227 1.266zM32 28h-4v4h-2v-4h-4v-2h4v-4h2v4h4v2z"></path>
</svg>
