<!-- Generated by IcoMoon.io -->
<svg version="1.1" xmlns="http://www.w3.org/2000/svg" width="32" height="32" viewBox="0 0 32 32">
<title>uniEE3D</title>
<path d="M19.531 20.828q1.063 0.531 1.922 1.336t1.453 1.836h-2.453q-0.844-0.953-2.008-1.477t-2.445-0.523q-1.25 0-2.336 0.469t-1.906 1.289-1.289 1.914-0.469 2.328h-2q0-1.141 0.313-2.211t0.898-2.008 1.414-1.688 1.844-1.266q-1.172-0.844-1.82-2.117t-0.648-2.711q0-0.828-0.313-1.555t-0.859-1.273-1.273-0.859-1.555-0.313-1.555 0.313-1.273 0.859-0.859 1.273-0.313 1.555h-2q0-0.813 0.219-1.594t0.617-1.461 0.977-1.242 1.297-0.953q-0.531-0.547-0.82-1.266t-0.289-1.484q0-0.828 0.313-1.555t0.859-1.273 1.273-0.859 1.555-0.313 1.555 0.313 1.273 0.859 0.859 1.273 0.313 1.555q0 0.766-0.289 1.484t-0.82 1.266q0.656 0.359 1.18 0.859t0.93 1.094q0.422-0.625 0.969-1.125t1.188-0.852 1.367-0.539 1.477-0.188 1.469 0.188 1.367 0.539 1.195 0.852 0.969 1.125q0.406-0.594 0.93-1.094t1.18-0.859q-0.531-0.547-0.82-1.266t-0.289-1.484q0-0.828 0.313-1.555t0.859-1.273 1.273-0.859 1.555-0.313 1.555 0.313 1.273 0.859 0.859 1.273 0.313 1.555q0 0.766-0.289 1.484t-0.82 1.266q0.719 0.391 1.297 0.953t0.977 1.242 0.617 1.461 0.219 1.594h-2q0-0.828-0.313-1.555t-0.859-1.273-1.273-0.859-1.555-0.313-1.555 0.313-1.273 0.859-0.859 1.273-0.313 1.555q0 1.438-0.648 2.711t-1.82 2.117zM26 6q-0.422 0-0.781 0.156t-0.633 0.43-0.43 0.633-0.156 0.781 0.156 0.781 0.43 0.633 0.633 0.43 0.781 0.156 0.781-0.156 0.633-0.43 0.43-0.633 0.156-0.781-0.156-0.781-0.43-0.633-0.633-0.43-0.781-0.156zM6 10q0.422 0 0.781-0.156t0.633-0.43 0.43-0.633 0.156-0.781-0.156-0.781-0.43-0.633-0.633-0.43-0.781-0.156-0.781 0.156-0.633 0.43-0.43 0.633-0.156 0.781 0.156 0.781 0.43 0.633 0.633 0.43 0.781 0.156zM16 20q0.828 0 1.555-0.313t1.273-0.859 0.859-1.273 0.313-1.555-0.313-1.555-0.859-1.273-1.273-0.859-1.555-0.313-1.555 0.313-1.273 0.859-0.859 1.273-0.313 1.555 0.313 1.555 0.859 1.273 1.273 0.859 1.555 0.313zM28 26h4v2h-4v4h-2v-4h-4v-2h4v-4h2v4z"></path>
</svg>
