<!-- Generated by IcoMoon.io -->
<svg version="1.1" xmlns="http://www.w3.org/2000/svg" width="32" height="32" viewBox="0 0 32 32">
<title>uniE35E</title>
<path d="M12 19q0 1.031 0.391 1.945t1.070 1.594 1.594 1.070 1.945 0.391h3v2h-3q-1.453 0-2.727-0.555t-2.219-1.5-1.5-2.219-0.555-2.727 0.555-2.727 1.5-2.219 2.219-1.5 2.727-0.555h1v2h-1q-1.031 0-1.945 0.398t-1.594 1.078-1.070 1.586-0.391 1.938zM24 14v-2h1q1.453 0 2.727 0.555t2.219 1.5 1.5 2.219 0.555 2.727q0 1.375-0.516 2.641t-1.484 2.25v-4.891q0-1.031-0.398-1.938t-1.078-1.586-1.586-1.078-1.938-0.398h-1zM15 6q1.453 0 2.727 0.555t2.219 1.5 1.5 2.219 0.555 2.727-0.555 2.727-1.5 2.219-2.219 1.5-2.727 0.555h-1v-2h1q1.031 0 1.938-0.391t1.586-1.070 1.078-1.594 0.398-1.945-0.398-1.938-1.078-1.586-1.586-1.078-1.938-0.398h-8q-1.031 0-1.945 0.398t-1.594 1.078-1.070 1.586-0.391 1.938 0.391 1.945 1.070 1.594 1.594 1.070 1.945 0.391h1v2h-1q-1.453 0-2.727-0.555t-2.219-1.5-1.5-2.219-0.555-2.727 0.555-2.727 1.5-2.219 2.219-1.5 2.727-0.555h8zM32 26v2h-4v4h-2v-4h-4v-2h4v-4h2v4h4z"></path>
</svg>
