<!-- Generated by IcoMoon.io -->
<svg version="1.1" xmlns="http://www.w3.org/2000/svg" width="32" height="32" viewBox="0 0 32 32">
<title>uniED8E</title>
<path d="M16 0q2.203 0 4.25 0.57t3.828 1.609 3.242 2.5 2.5 3.242 1.609 3.828 0.57 4.25q0 1.547-0.297 3.055t-0.875 2.945h-4.828v-2h3.406q0.594-1.969 0.594-4 0-2.078-0.578-4h-5.672q0.125 1 0.188 1.992t0.063 2.008h-2q0-1.016-0.070-2.008t-0.195-1.992h-11.469q-0.125 1-0.195 1.992t-0.070 2.008 0.070 2.008 0.195 1.992h9.734v2h-9.391q0.125 0.609 0.359 1.445t0.578 1.719 0.789 1.75 1.008 1.555 1.227 1.109 1.43 0.422q0.469 0 0.891-0.18t0.797-0.469 0.695-0.641 0.57-0.711h1.047v3.469q-0.984 0.266-1.984 0.398t-2.016 0.133q-2.203 0-4.25-0.57t-3.828-1.609-3.242-2.5-2.5-3.242-1.609-3.82-0.57-4.258q0-2.203 0.57-4.25t1.609-3.828 2.5-3.242 3.242-2.5 3.82-1.609 4.258-0.57zM11.422 2.766q-1.328 0.453-2.523 1.172t-2.227 1.641-1.867 2.039-1.445 2.383h5.203q0.172-0.922 0.43-1.883t0.609-1.891 0.805-1.813 1.016-1.648zM11.422 29.234q-0.563-0.766-1.016-1.648t-0.805-1.813-0.609-1.891-0.43-1.883h-5.203q0.609 1.266 1.445 2.383t1.867 2.047 2.227 1.641 2.523 1.164zM8.25 20q-0.125-1-0.188-1.992t-0.063-2.008 0.063-2.008 0.188-1.992h-5.672q-0.578 1.922-0.578 4t0.578 4h5.672zM21.391 10q-0.125-0.609-0.359-1.438t-0.578-1.719-0.789-1.758-1.008-1.555-1.227-1.109-1.43-0.422-1.43 0.422-1.227 1.109-1.008 1.555-0.789 1.758-0.578 1.719-0.359 1.438h10.781zM28.641 10q-0.609-1.266-1.445-2.383t-1.867-2.039-2.227-1.641-2.523-1.172q0.563 0.766 1.016 1.648t0.805 1.813 0.609 1.891 0.43 1.883h5.203zM24 24h6v2h-6v6h-2v-6h-6v-2h6v-6h2v6z"></path>
</svg>
