<!-- Generated by IcoMoon.io -->
<svg version="1.1" xmlns="http://www.w3.org/2000/svg" width="50" height="32" viewBox="0 0 50 32">
<title>uniF85D</title>
<path d="M28 14q-0.422 0-0.781-0.156t-0.633-0.43-0.43-0.633-0.156-0.781 0.156-0.781 0.43-0.633 0.633-0.43 0.781-0.156 0.781 0.156 0.633 0.43 0.43 0.633 0.156 0.781-0.156 0.781-0.43 0.633-0.633 0.43-0.781 0.156zM50 16q0 2.219-0.57 4.258t-1.609 3.82-2.5 3.242-3.242 2.5-3.828 1.609-4.25 0.57q-2.219 0-4.258-0.57t-3.82-1.609-3.242-2.5-2.5-3.242-1.609-3.828-0.57-4.25 0.57-4.25 1.609-3.828 2.5-3.242 3.242-2.5 3.828-1.609 4.25-0.57 4.25 0.57 3.828 1.609 3.242 2.5 2.5 3.242 1.609 3.828 0.57 4.25zM34 30q1.922 0 3.711-0.5t3.344-1.414 2.836-2.195 2.195-2.836 1.414-3.344 0.5-3.711-0.5-3.711-1.414-3.344-2.195-2.836-2.836-2.195-3.344-1.414-3.711-0.5q-1.938 0-3.719 0.5t-3.336 1.414-2.836 2.195-2.195 2.836-1.414 3.344-0.5 3.711q0 1.938 0.5 3.719t1.414 3.336 2.195 2.836 2.836 2.195 3.344 1.414 3.711 0.5zM40 14q-0.422 0-0.781-0.156t-0.633-0.43-0.43-0.633-0.156-0.781 0.156-0.781 0.43-0.633 0.633-0.43 0.781-0.156 0.781 0.156 0.633 0.43 0.43 0.633 0.156 0.781-0.156 0.781-0.43 0.633-0.633 0.43-0.781 0.156zM34 24q1.141 0 2.211-0.313t1.992-0.891 1.664-1.406 1.258-1.844l1.797 0.906q-0.641 1.266-1.578 2.297t-2.094 1.75-2.492 1.109-2.758 0.391q-1.438 0-2.766-0.391t-2.484-1.109-2.094-1.75-1.578-2.297l1.797-0.906q0.516 1.016 1.258 1.844t1.664 1.406 1.984 0.891 2.219 0.313zM8 8v6h6v2h-6v6h-2v-6h-6v-2h6v-6h2z"></path>
</svg>
