<!-- Generated by IcoMoon.io -->
<svg version="1.1" xmlns="http://www.w3.org/2000/svg" width="32" height="32" viewBox="0 0 32 32">
<title>uniED6A</title>
<path d="M21.984 16.016q0 0.406-0.156 0.766t-0.43 0.625-0.633 0.422-0.766 0.156v-3.969q0.406 0 0.766 0.156t0.633 0.43 0.43 0.641 0.156 0.773zM31.563 17.328l-0.984 3.75-3.281-0.438q-0.266 0.406-0.555 0.781t-0.633 0.719l1.141 2.984-3.344 1.953-2-2.609q-0.938 0.234-1.906 0.234v-3.266q1.125 0 2.109-0.422t1.719-1.164 1.156-1.727 0.422-2.109q0-1.109-0.422-2.094t-1.156-1.719-1.719-1.164-2.109-0.43v-3.359h0.078l1.234-2.781 3.75 0.984-0.422 3.188q0.422 0.266 0.805 0.578t0.742 0.672l2.922-1.109 1.938 3.344-2.594 1.984q0.203 0.922 0.203 1.938zM9.672 12.172q0.266 1.25 0.563 2.477t0.594 2.477l-2.359-0.031q0.297-1.234 0.594-2.461t0.563-2.461h0.047zM1 4.25l18-3.203v29.906l-18-3.109v-23.594zM5.313 21.422l2.094 0.125 0.625-2.484 3.297 0.109 0.688 2.656 2.438 0.156-3.5-11.969-2.469 0.156z"></path>
</svg>
