<!-- Generated by IcoMoon.io -->
<svg version="1.1" xmlns="http://www.w3.org/2000/svg" width="32" height="32" viewBox="0 0 32 32">
<title>uniE7EF</title>
<path d="M32 14v6q0 2.656-1.375 5.125-1.063 1.891-2.969 3.609-0.75 0.688-1.477 1.219t-1.305 0.891-0.969 0.563-0.484 0.25l-0.422 0.203q-0.313-0.156-0.367-0.188t-0.070-0.031q-0.094-0.047-0.477-0.242t-0.969-0.555-1.313-0.883-1.477-1.211q-0.938-0.859-1.672-1.758t-1.281-1.867q-1.375-2.469-1.375-5.125v-6h1q0.969 0 1.672-0.094t1.242-0.242 0.953-0.344 0.789-0.398q0.328-0.172 0.68-0.336t0.75-0.297 0.867-0.211 1.047-0.078 1.047 0.078 0.867 0.211 0.75 0.297 0.68 0.336q0.375 0.203 0.789 0.398t0.953 0.344 1.242 0.242 1.672 0.094h1zM30 15.969q-0.891-0.047-1.578-0.18t-1.234-0.313-0.969-0.383-0.797-0.391q-0.297-0.156-0.563-0.281t-0.547-0.219-0.602-0.148-0.711-0.055q-0.406 0-0.719 0.055t-0.594 0.148-0.547 0.219-0.563 0.281q-0.375 0.188-0.797 0.391t-0.969 0.383-1.234 0.313-1.578 0.18v4.031q0 1.359 0.406 2.531t1.055 2.172 1.445 1.813 1.578 1.43 1.453 1.039 1.063 0.641q0.25-0.141 0.617-0.359t0.813-0.523 0.945-0.688 1-0.836q3.625-3.297 3.625-7.219v-4.031zM2 18h10v2h-12v-16h28v6.438q-0.172-0.063-0.328-0.125t-0.297-0.141q-0.313-0.219-0.656-0.375t-0.719-0.297v-3.5h-24v12z"></path>
</svg>
