<!-- Generated by IcoMoon.io -->
<svg version="1.1" xmlns="http://www.w3.org/2000/svg" width="32" height="32" viewBox="0 0 32 32">
<title>uniED70</title>
<path d="M21.969 16.016q0 0.406-0.156 0.766t-0.422 0.625-0.625 0.422-0.766 0.156v-3.953q0.406 0 0.766 0.156t0.625 0.43 0.422 0.633 0.156 0.766zM31.516 17.328l-0.984 3.734-3.266-0.438q-0.266 0.406-0.563 0.781t-0.625 0.719l1.141 2.969-3.328 1.938-1.984-2.594q-0.938 0.203-1.906 0.234v-3.266q1.109 0 2.094-0.422t1.719-1.148 1.156-1.711 0.422-2.094q0-1.125-0.422-2.102t-1.156-1.711-1.719-1.156-2.094-0.422v-3.344h0.078l1.234-2.781 3.719 0.984-0.406 3.172q0.406 0.266 0.797 0.578t0.734 0.672l2.906-1.109 1.938 3.328-2.594 1.984q0.094 0.438 0.148 0.875t0.055 0.891v0.156zM9.813 19.984q-0.656 0-1.125-0.422t-0.758-1.023-0.422-1.281-0.133-1.195 0.133-1.188 0.422-1.281 0.758-1.023 1.125-0.414 1.125 0.414 0.758 1.016 0.422 1.281 0.133 1.195-0.133 1.195-0.422 1.289-0.758 1.023-1.125 0.414zM1 4.25l18-3.203v29.906l-18-3.109v-23.594zM9.984 9.813q-0.781 0-1.438 0.273t-1.18 0.75-0.922 1.094-0.664 1.313-0.398 1.422-0.133 1.398 0.133 1.398 0.398 1.422 0.664 1.313 0.922 1.094 1.18 0.75 1.438 0.273q1.172 0 2.063-0.594t1.484-1.516 0.891-2.023 0.297-2.117-0.297-2.117-0.891-2.023-1.484-1.516-2.063-0.594z"></path>
</svg>
