<!-- Generated by IcoMoon.io -->
<svg version="1.1" xmlns="http://www.w3.org/2000/svg" width="32" height="32" viewBox="0 0 32 32">
<title>uniF4BA</title>
<path d="M27.453 21.188q-0.219 0.297-0.438 0.578t-0.469 0.547l1.172 3.031-4.094 2.391-2.063-2.688q-0.422 0.078-0.852 0.125t-0.852 0.047q-0.438 0-0.859-0.047v6.031l-18-4.156v-22.094l18-4.156v6.031q0.141-0.016 0.289-0.023t0.289-0.008l1.297-2.922 4.578 1.203-0.438 3.313q0.313 0.219 0.602 0.438t0.555 0.484l3-1.156 2.375 4.094-2.656 2.047q0.078 0.359 0.109 0.719t0.047 0.719l2.953 1.313-1.203 4.578zM19 20.422q0.219 0.031 0.422 0.055t0.422 0.023q0.938 0 1.758-0.352t1.43-0.961 0.961-1.43 0.352-1.758-0.352-1.758-0.961-1.43-1.43-0.961-1.758-0.352q-0.219 0-0.422 0.023t-0.422 0.055v2.609q0.391-0.188 0.844-0.188 0.422 0 0.781 0.156t0.633 0.43 0.43 0.633 0.156 0.781-0.156 0.781-0.43 0.633-0.633 0.43-0.781 0.156q-0.453 0-0.844-0.188v2.609zM13.875 21.734q-0.859-2.953-1.734-5.867t-1.703-5.867l-2.563 0.156-3.109 11.016 2.281 0.141 0.594-2.297h2.969l0.656 2.563zM25.391 22.063q0.469-0.422 0.859-0.914t0.703-1.039l3.094 0.406 0.766-2.891-2.766-1.234q0-0.078 0.008-0.172t0.008-0.172q0-0.547-0.078-1.078t-0.203-1.094l2.469-1.891-1.516-2.594-2.813 1.078q-0.891-0.891-1.969-1.578l0.391-3.063-2.906-0.766-1.219 2.734q-0.078-0.016-0.172-0.016h-0.172q-0.219 0-0.422 0.047-0.016 0-0.023 0.008t-0.055 0.008h-0.375v2.719q0.219-0.031 0.422-0.047t0.422-0.016q1.141 0 2.141 0.43t1.75 1.18 1.18 1.75 0.43 2.141-0.43 2.141-1.18 1.75-1.75 1.18-2.141 0.43q-0.219 0-0.422-0.016t-0.422-0.047v2.734q0.203 0.031 0.391 0.031h0.391q1.109 0 2.188-0.281l1.906 2.5 2.609-1.516zM9.094 12.969q0 0.031 0.063 0.289t0.156 0.641 0.211 0.844 0.227 0.875 0.195 0.734 0.117 0.43h-1.938l0.906-3.578q0.031-0.156 0.063-0.234z"></path>
</svg>
