<!-- Generated by IcoMoon.io -->
<svg version="1.1" xmlns="http://www.w3.org/2000/svg" width="32" height="32" viewBox="0 0 32 32">
<title>uniED6B</title>
<path d="M21.969 16.016q0 0.406-0.156 0.766t-0.422 0.625-0.625 0.422-0.766 0.156v-3.953q0.406 0 0.766 0.156t0.625 0.43 0.422 0.633 0.156 0.766zM31.516 17.328l-0.984 3.734-3.266-0.438q-0.266 0.406-0.563 0.781t-0.625 0.719l1.141 2.969-3.328 1.938-1.984-2.594q-0.469 0.125-0.945 0.172t-0.961 0.063v-3.266q1.109 0 2.094-0.422t1.719-1.148 1.156-1.711 0.422-2.094-0.422-2.094-1.156-1.719-1.711-1.156-2.102-0.422v-3.344h0.078l1.234-2.781 3.719 0.984-0.406 3.172q0.406 0.266 0.797 0.578t0.734 0.672l2.906-1.109 1.938 3.328-2.578 1.984q0.094 0.484 0.148 0.961t0.055 0.961zM1 4.266l18-3.203v29.875l-18-3.109v-23.563zM11.563 9.797q-1.453 0-2.563 0.484t-1.859 1.344-1.141 2.039-0.391 2.57q0 1.297 0.336 2.383t1.008 1.867 1.695 1.211 2.383 0.43q0.594 0 1.211-0.086t1.164-0.352v-2.531q-1.125 0.672-2.422 0.672-0.828 0-1.422-0.313t-0.984-0.836-0.578-1.203-0.188-1.43q0-0.797 0.203-1.508t0.625-1.25 1.055-0.852 1.508-0.313q0.594 0 1.148 0.148t1.055 0.461v-2.672q-0.453-0.156-0.914-0.211t-0.93-0.055z"></path>
</svg>
