<!-- Generated by IcoMoon.io -->
<svg version="1.1" xmlns="http://www.w3.org/2000/svg" width="32" height="32" viewBox="0 0 32 32">
<title>uniED71</title>
<path d="M22 16q0 0.406-0.156 0.773t-0.43 0.641-0.641 0.43-0.773 0.156v-3.984q0.422 0 0.781 0.156t0.633 0.422 0.43 0.625 0.156 0.781zM31.625 17.344l-0.984 3.766-3.313-0.438q-0.266 0.406-0.555 0.789t-0.633 0.711l1.156 3-3.375 1.969-2-2.625q-0.938 0.234-1.922 0.234v-3.281q1.125 0 2.117-0.43t1.727-1.164 1.164-1.727 0.43-2.117-0.43-2.117-1.164-1.734-1.727-1.172-2.117-0.43v-3.375h0.078l1.234-2.813 3.766 1-0.422 3.203q0.422 0.266 0.813 0.586t0.75 0.68l2.938-1.125 1.953 3.359-2.609 2.016q0.203 0.922 0.203 1.938zM12.016 13.281q0 1.125-0.594 1.578t-1.641 0.453q-0.203 0-0.391-0.008t-0.391-0.008v-3.922q0.266-0.016 0.523-0.031t0.523-0.016q1.969 0 1.969 1.953zM1 4.25l18-3.203v29.906l-18-3.109v-23.594zM6.672 21.672l2.328 0.281v-4.5q1.172 0.031 2.227-0.148t1.836-0.68 1.242-1.375 0.461-2.25q0-1.906-1.016-2.906t-2.906-1q-1.031 0-2.078 0.086t-2.094 0.148v12.344z"></path>
</svg>
