<!-- Generated by IcoMoon.io -->
<svg version="1.1" xmlns="http://www.w3.org/2000/svg" width="32" height="32" viewBox="0 0 32 32">
<title>uniED72</title>
<path d="M1 4.25l18-3.203v29.906l-18-3.109v-23.594zM10.578 9.672q-0.844 0-1.531 0.273t-1.172 0.773-0.75 1.195-0.266 1.523q0 0.922 0.289 1.531t0.758 1.078 1.063 0.867 1.219 0.883q0.266 0.219 0.406 0.523t0.141 0.648q0 0.594-0.367 0.906t-0.93 0.313q-0.359 0-0.719-0.102t-0.695-0.281-0.625-0.43-0.492-0.547v2.703q0.609 0.406 1.313 0.625t1.453 0.219q0.781 0 1.422-0.242t1.094-0.695 0.695-1.094 0.242-1.438q0-0.969-0.305-1.633t-0.758-1.125-0.977-0.781-0.977-0.633-0.758-0.68-0.305-0.898q0-0.344 0.133-0.594t0.352-0.406 0.516-0.227 0.609-0.070q0.516 0 1.078 0.211t0.938 0.586v-2.641q-0.484-0.172-1.039-0.258t-1.055-0.086zM22 16q0 0.406-0.156 0.773t-0.43 0.641-0.641 0.43-0.773 0.156v-3.984q0.422 0 0.781 0.156t0.633 0.422 0.43 0.625 0.156 0.781zM31.625 17.344l-0.984 3.766-3.313-0.438q-0.266 0.406-0.555 0.789t-0.633 0.711l1.156 3-3.375 1.969-2-2.625q-0.938 0.234-1.922 0.234v-3.281q1.125 0 2.117-0.43t1.727-1.164 1.164-1.727 0.43-2.117-0.43-2.117-1.164-1.734-1.727-1.172-2.117-0.43v-3.375h0.078l1.234-2.813 3.766 1-0.422 3.203q0.422 0.266 0.813 0.586t0.75 0.68l2.938-1.125 1.953 3.359-2.609 2.016q0.203 0.922 0.203 1.938z"></path>
</svg>
