<!-- Generated by IcoMoon.io -->
<svg version="1.1" xmlns="http://www.w3.org/2000/svg" width="32" height="32" viewBox="0 0 32 32">
<title>uniF4BB</title>
<path d="M31.563 17.328l-0.984 3.75-3.219-0.422q-0.266 0.406-0.57 0.797t-0.664 0.734l1.125 2.938-3.344 1.953-1.984-2.594q-0.969 0.219-1.922 0.219-1.047 0-2.055-0.242t-1.945-0.727v-4.766q0.703 0.953 1.758 1.492t2.242 0.539q1.031 0 1.945-0.391t1.594-1.070 1.070-1.594 0.391-1.945-0.391-1.945-1.070-1.594-1.594-1.070-1.945-0.391q-1.188 0-2.242 0.539t-1.758 1.492v-4.766q0.953-0.5 1.969-0.734t2.094-0.234l1.25-2.828 3.75 0.984-0.422 3.188q0.859 0.547 1.563 1.25l2.906-1.109 1.938 3.344-2.547 1.953q0.094 0.5 0.148 0.992t0.055 0.992zM10.797 9.484l3.75 12.797-3.672-0.234-0.656-2.609h-2.188l-0.609 2.406-3.297-0.203 3.359-11.953z"></path>
</svg>
