<!-- Generated by IcoMoon.io -->
<svg version="1.1" xmlns="http://www.w3.org/2000/svg" width="32" height="32" viewBox="0 0 32 32">
<title>uniED6F</title>
<path d="M21.953 16q0 0.406-0.156 0.766t-0.422 0.625-0.617 0.422-0.758 0.156v-3.922q0.406 0 0.758 0.156t0.617 0.422 0.422 0.625 0.156 0.75zM31.422 17.328l-0.984 3.688-3.234-0.422q-0.531 0.828-1.172 1.484l1.125 2.938-3.297 1.922-1.969-2.563q-0.969 0.219-1.891 0.219v-3.234q1.109 0 2.078-0.414t1.695-1.141 1.148-1.695 0.422-2.078-0.422-2.078-1.148-1.695-1.695-1.148-2.078-0.422v-3.313h0.078l1.219-2.766 3.688 0.984-0.406 3.141q0.844 0.547 1.531 1.25l2.875-1.109 1.922 3.297-2.563 1.969q0.203 0.906 0.203 1.906zM1 4.203l18-3.203v30l-18-3.109v-23.688zM4.078 21.766l1.766 0.141v-6.469q0-0.75-0.023-1.508t-0.055-1.508l0.047-0.016q0.063 0.406 0.117 0.813t0.164 0.813l2.188 8.063 1.797 0.141 2.391-8.469q0.125-0.422 0.195-0.852t0.148-0.867h0.047q-0.031 0.703-0.055 1.375t-0.023 1.375v7.656l2.438 0.203v-13.203l-3.484 0.281-2.063 7.453q-0.125 0.438-0.219 0.867t-0.172 0.883h-0.047q-0.094-0.875-0.328-1.75l-1.922-7.063-2.906 0.234v11.406z"></path>
</svg>
