<!-- Generated by IcoMoon.io -->
<svg version="1.1" xmlns="http://www.w3.org/2000/svg" width="32" height="32" viewBox="0 0 32 32">
<title>uniED6E</title>
<path d="M1 4.25l18-3.203v29.906l-18-3.109v-23.594zM7.219 21.781l6.109 0.344-0.047-2.234-4-0.063v-10.047l-2.063 0.25v11.75zM21.969 16.016q0 0.406-0.156 0.766t-0.422 0.625-0.625 0.422-0.766 0.156v-3.953q0.406 0 0.766 0.156t0.625 0.43 0.422 0.633 0.156 0.766zM31.5 17.328l-0.969 3.734-3.281-0.438q-0.266 0.406-0.555 0.781t-0.617 0.719l1.141 2.953-3.328 1.953-1.984-2.594q-0.938 0.203-1.906 0.234v-3.266q1.109 0 2.094-0.422t1.719-1.148 1.156-1.711 0.422-2.094-0.422-2.094-1.156-1.719-1.719-1.156-2.094-0.422v-3.344h0.078l1.234-2.781 3.719 0.984-0.422 3.172q0.828 0.531 1.547 1.25l2.906-1.109 1.938 3.328-2.594 1.984q0.094 0.438 0.148 0.875t0.055 0.891v0.156z"></path>
</svg>
