<!-- Generated by IcoMoon.io -->
<svg version="1.1" xmlns="http://www.w3.org/2000/svg" width="32" height="32" viewBox="0 0 32 32">
<title>uniED6C</title>
<path d="M11.891 15.609q0 0.688-0.141 1.43t-0.469 1.352-0.891 1.008-1.406 0.398q-0.281 0-0.563-0.016l-0.563-0.031v-7.969q0.313-0.016 0.617-0.031t0.617-0.016q0.797 0 1.336 0.352t0.867 0.914 0.461 1.25 0.133 1.359zM1 4.266l18-3.203v29.875l-18-3.109v-23.563zM5.875 21.906q0.891 0.063 1.781 0.148t1.781 0.086q1.344 0 2.273-0.602t1.508-1.555 0.836-2.125 0.258-2.313q0-1.188-0.203-2.305t-0.727-1.984-1.422-1.391-2.273-0.523q-0.953 0-1.914 0.117t-1.898 0.195v12.25zM21.969 16.016q0 0.406-0.156 0.766t-0.422 0.625-0.625 0.422-0.766 0.156v-3.953q0.406 0 0.766 0.156t0.625 0.43 0.422 0.633 0.156 0.766zM31.5 17.328l-0.969 3.734-3.281-0.438q-0.266 0.406-0.555 0.781t-0.617 0.719l1.141 2.953-3.328 1.953-1.984-2.594q-0.938 0.203-1.906 0.234v-3.266q1.109 0 2.094-0.422t1.719-1.148 1.156-1.711 0.422-2.094-0.422-2.094-1.156-1.719-1.719-1.156-2.094-0.422v-3.344h0.078l1.234-2.781 3.719 0.984-0.422 3.172q0.828 0.531 1.547 1.25l2.906-1.109 1.938 3.328-2.594 1.984q0.094 0.438 0.148 0.875t0.055 0.891v0.156z"></path>
</svg>
