<!-- Generated by IcoMoon.io -->
<svg version="1.1" xmlns="http://www.w3.org/2000/svg" width="32" height="32" viewBox="0 0 32 32">
<title>uniEF7A</title>
<path d="M32 10v18h-32v-18h6.875q0.016 0 0.523-0.164t1.352-0.445 1.977-0.656 2.406-0.805 2.641-0.891 2.68-0.898 2.523-0.844 2.172-0.727 1.609-0.539 0.867-0.297l2.094 6.266h4.281zM13.156 10h12.453l-1.234-3.734zM30 12h-28v14h28v-14zM26 14v2h-2v-2h2zM26 18v2h-2v-2h2zM26 24h-2v-2h2v2zM28 18h-2v-2h2v2zM28 22h-2v-2h2v2zM7.328 20l-1.328-4h2l1 2h4.328l-1.328-4h2l2 4h4q0.406 0 0.703 0.297t0.297 0.703-0.297 0.703-0.703 0.297h-4l-2 4h-2l1.328-4h-6z"></path>
</svg>
