<!-- Generated by IcoMoon.io -->
<svg version="1.1" xmlns="http://www.w3.org/2000/svg" width="32" height="32" viewBox="0 0 32 32">
<title>uniE919</title>
<path d="M22 18v2h-8v-10h2v8h6zM25.75 2q1.297 0 2.438 0.492t1.984 1.336 1.336 1.984 0.492 2.438q0 0.781-0.188 1.523t-0.547 1.414-0.875 1.25-1.156 1q0.391 1.109 0.578 2.25t0.188 2.313q0 2.531-0.883 4.898t-2.539 4.273l3.125 3.125-1.406 1.406-3.125-3.125q-1.906 1.656-4.273 2.539t-4.898 0.883-4.898-0.883-4.273-2.539l-3.125 3.125-1.406-1.406 3.125-3.125q-1.656-1.906-2.539-4.273t-0.883-4.898q0-1.172 0.188-2.313t0.578-2.25q-0.641-0.422-1.156-1t-0.875-1.25-0.547-1.414-0.188-1.523q0-1.297 0.492-2.438t1.336-1.984 1.984-1.336 2.438-0.492q0.766 0 1.516 0.188t1.422 0.547 1.25 0.875 1 1.156q1.109-0.391 2.25-0.578t2.313-0.188 2.313 0.188 2.25 0.578q0.422-0.641 1-1.156t1.25-0.875 1.414-0.547 1.523-0.188zM6.25 4q-0.875 0-1.648 0.336t-1.352 0.914-0.914 1.352-0.336 1.648q0 0.969 0.414 1.836t1.164 1.461q1-1.938 2.516-3.453t3.453-2.516q-0.594-0.75-1.461-1.164t-1.836-0.414zM16 30q2.484 0 4.664-0.945t3.813-2.578 2.578-3.813 0.945-4.664-0.945-4.664-2.578-3.813-3.813-2.578-4.664-0.945-4.664 0.945-3.813 2.578-2.578 3.813-0.945 4.664 0.945 4.664 2.578 3.813 3.813 2.578 4.664 0.945zM28.422 11.547q0.75-0.594 1.164-1.461t0.414-1.836q0-0.875-0.336-1.648t-0.914-1.352-1.352-0.914-1.648-0.336q-0.969 0-1.836 0.414t-1.461 1.164q1.938 1 3.453 2.516t2.516 3.453z"></path>
</svg>
