<!-- Generated by IcoMoon.io -->
<svg version="1.1" xmlns="http://www.w3.org/2000/svg" width="32" height="32" viewBox="0 0 32 32">
<title>uniF8B6</title>
<path d="M16 8v10h-2v-10h2zM15 28q0.266 0 0.508-0.023t0.508-0.039q0.328 1.016 0.875 1.938-0.469 0.063-0.945 0.094t-0.945 0.031q-2.078 0-4-0.531t-3.586-1.508-3.031-2.344-2.344-3.031-1.508-3.586-0.531-4 0.531-4 1.508-3.586 2.344-3.031 3.031-2.344 3.586-1.508 4-0.531 4 0.531 3.586 1.508 3.031 2.344 2.344 3.031 1.508 3.586 0.531 4q0 0.469-0.031 0.945t-0.094 0.945q-0.453-0.281-0.945-0.492t-0.992-0.383q0.016-0.266 0.039-0.508t0.023-0.508q0-1.781-0.469-3.445t-1.313-3.109-2.031-2.633-2.633-2.031-3.109-1.313-3.445-0.469q-1.797 0-3.453 0.469t-3.102 1.313-2.633 2.031-2.031 2.633-1.313 3.109-0.469 3.445q0 1.797 0.469 3.453t1.313 3.102 2.031 2.633 2.633 2.031 3.102 1.313 3.453 0.469zM14 22v-2h2v2h-2zM30 25q0 0.484-0.094 0.953l1.938 0.797-0.766 1.859-1.938-0.813q-0.547 0.797-1.344 1.344l0.813 1.938-1.859 0.766-0.797-1.938q-0.469 0.094-0.953 0.094t-0.953-0.094l-0.797 1.938-1.859-0.766 0.813-1.938q-0.797-0.547-1.344-1.344l-1.938 0.813-0.766-1.859 1.938-0.797q-0.094-0.469-0.094-0.953t0.094-0.953l-1.938-0.797 0.766-1.859 1.938 0.813q0.547-0.797 1.344-1.344l-0.813-1.938 1.859-0.766 0.797 1.938q0.469-0.094 0.953-0.094t0.953 0.094l0.797-1.938 1.859 0.766-0.813 1.938q0.797 0.547 1.344 1.344l1.938-0.813 0.766 1.859-1.938 0.797q0.094 0.469 0.094 0.953zM28 25q0-0.625-0.234-1.172t-0.641-0.953-0.953-0.641-1.172-0.234-1.172 0.234-0.953 0.641-0.641 0.953-0.234 1.172 0.234 1.172 0.641 0.953 0.953 0.641 1.172 0.234 1.172-0.234 0.953-0.641 0.641-0.953 0.234-1.172z"></path>
</svg>
