<!-- Generated by IcoMoon.io -->
<svg version="1.1" xmlns="http://www.w3.org/2000/svg" width="32" height="32" viewBox="0 0 32 32">
<title>uniEAE4</title>
<path d="M14.984 16.031q-0.75-0.031-1.547-0.188t-1.469-0.484q-0.266-0.125-0.422-0.367t-0.156-0.539q0-0.406 0.297-0.703t0.703-0.297q0.203 0 0.422 0.094 1.031 0.453 2.156 0.469v-3.422q-0.578-0.203-1.117-0.5t-0.953-0.711-0.664-0.945-0.25-1.203q0-0.641 0.258-1.156t0.672-0.898 0.953-0.641 1.102-0.383q0-0.453 0.25-0.789t0.75-0.336q0.422 0 0.711 0.289t0.289 0.711q0.547 0.031 1.039 0.148t1.008 0.258l-0.688 1.875q-0.328-0.125-0.672-0.188t-0.688-0.094v3.125q0.531 0.188 1.070 0.5t0.969 0.734 0.695 0.953 0.266 1.156q0 0.688-0.234 1.25t-0.633 0.984-0.953 0.711-1.18 0.43q0 0.438-0.273 0.75t-0.727 0.313q-0.391 0-0.672-0.266t-0.313-0.641zM16.969 13.797q0.438-0.172 0.719-0.477t0.281-0.805q0-0.188-0.102-0.359t-0.25-0.32-0.32-0.266-0.328-0.211v2.438zM13.984 7.234q0 0.438 0.32 0.727t0.664 0.461v-2.172q-0.047 0.016-0.203 0.086t-0.188 0.102q-0.219 0.078-0.406 0.313t-0.188 0.484zM25.625 12.719q1.438 0.563 2.609 1.5t2.008 2.148 1.297 2.641 0.461 2.977q0 1.375-0.359 2.656t-1.008 2.391-1.563 2.023-2.023 1.57-2.391 1.016-2.656 0.359q-1.625 0-3.156-0.516t-2.828-1.5q-1.313 0.984-2.844 1.5t-3.172 0.516q-1.391 0-2.664-0.359t-2.383-1.008-2.023-1.563-1.563-2.031-1.008-2.391-0.359-2.664q0-1.547 0.461-2.977t1.297-2.641 2.008-2.148 2.609-1.5q-0.375-1.313-0.375-2.703 0-1.375 0.359-2.656t1.008-2.391 1.563-2.023 2.023-1.57 2.391-1.016 2.656-0.359 2.656 0.359 2.391 1.016 2.023 1.57 1.563 2.023 1.008 2.391 0.359 2.656q0 1.391-0.375 2.703zM16 2q-1.656 0-3.117 0.633t-2.547 1.727-1.711 2.547-0.625 3.109 0.625 3.117 1.711 2.547 2.547 1.719 3.117 0.633 3.117-0.633 2.547-1.719 1.711-2.547 0.625-3.117-0.625-3.109-1.711-2.547-2.547-1.727-3.117-0.633zM10 30q1.656 0 3.117-0.633t2.547-1.719 1.711-2.547 0.625-3.117q0-1.063-0.313-2.094-0.844 0.141-1.688 0.141-1.641 0-3.18-0.516t-2.852-1.516q-0.109 0.063-0.203 0.078-1.375 0.406-2.086 1.43t-0.711 2.445v0.031h1.969q0.406 0 0.703 0.297t0.297 0.703q0 0.484-0.266 0.695t-0.641 0.281-0.797 0.047-0.719-0.023q0.547 0.922 1.461 1.445t1.992 0.523q0.453 0 0.852-0.094t0.805-0.266q0.203-0.078 0.406-0.078 0.406 0 0.703 0.289t0.297 0.695q0 0.453-0.352 0.734t-0.844 0.445-1.008 0.219-0.859 0.055q-0.953 0-1.836-0.289t-1.625-0.805-1.305-1.25-0.891-1.625q-0.25 0-0.484-0.047t-0.414-0.156-0.289-0.305-0.109-0.492q0-0.406 0.273-0.688t0.68-0.313q0-0.875 0.219-1.711t0.641-1.563 1.055-1.305 1.461-0.938q-0.359-0.453-0.68-0.938t-0.586-1q-1.156 0.453-2.086 1.211t-1.602 1.734-1.031 2.125-0.359 2.383q0 1.656 0.625 3.117t1.711 2.547 2.547 1.719 3.117 0.633zM22 30q1.656 0 3.117-0.633t2.547-1.719 1.711-2.547 0.625-3.117q0-1.234-0.359-2.383t-1.031-2.117-1.609-1.727-2.078-1.211q-0.594 1.156-1.453 2.125t-1.938 1.688l1.453 1.969 2.188-2.922q0.297-0.406 0.797-0.406 0.422 0 0.719 0.297t0.297 0.719q0 0.313-0.203 0.594l-2.813 3.734v1.641q0.297 0 0.648-0.008t0.656 0.070 0.516 0.289 0.211 0.648-0.211 0.648-0.516 0.289-0.656 0.070-0.648-0.008q0 0.297 0.008 0.648t-0.070 0.656-0.289 0.516-0.648 0.211-0.648-0.211-0.289-0.516-0.070-0.656 0.008-0.648q-0.297 0-0.641 0.008t-0.648-0.070-0.508-0.289-0.203-0.648 0.203-0.648 0.508-0.289 0.656-0.070 0.633 0.008v-1.641l-2.219-3.031-0.094 0.031q0.188 0.641 0.266 1.313t0.078 1.328q0 1.844-0.633 3.539t-1.852 3.070q1 0.688 2.133 1.047t2.352 0.359z"></path>
</svg>
