<!-- Generated by IcoMoon.io -->
<svg version="1.1" xmlns="http://www.w3.org/2000/svg" width="32" height="32" viewBox="0 0 32 32">
<title>uniF1DF</title>
<path d="M32 16h-2q0-1.922-0.5-3.711t-1.414-3.344-2.195-2.836-2.836-2.195-3.344-1.414-3.711-0.5q-1.938 0-3.719 0.5t-3.336 1.414-2.836 2.195-2.195 2.836-1.414 3.344-0.5 3.711q0 1.938 0.5 3.719t1.414 3.336 2.195 2.836 2.836 2.195 3.344 1.414 3.711 0.5v2q-2.219 0-4.258-0.57t-3.82-1.609-3.242-2.5-2.5-3.242-1.609-3.828-0.57-4.25 0.57-4.25 1.609-3.828 2.5-3.242 3.242-2.5 3.828-1.609 4.25-0.57 4.25 0.57 3.828 1.609 3.242 2.5 2.5 3.242 1.609 3.828 0.57 4.25zM16 6q2.078 0 3.898 0.781t3.18 2.141 2.141 3.18 0.781 3.898h-2q0-1.656-0.633-3.109t-1.719-2.539-2.539-1.719-3.109-0.633-3.109 0.633-2.539 1.719-1.719 2.539-0.633 3.109q0 1.609 0.602 3.063t1.742 2.594l-1.422 1.422q-1.422-1.422-2.172-3.25t-0.75-3.828q0-2.078 0.781-3.898t2.141-3.18 3.18-2.141 3.898-0.781zM16 12q0.828 0 1.555 0.313t1.273 0.859 0.859 1.273 0.313 1.555-0.313 1.555-0.859 1.273-1.273 0.859-1.555 0.313-1.555-0.313-1.273-0.859-0.859-1.273-0.313-1.555 0.313-1.555 0.859-1.273 1.273-0.859 1.555-0.313zM16 18q0.422 0 0.781-0.156t0.633-0.43 0.43-0.633 0.156-0.781-0.156-0.781-0.43-0.633-0.633-0.43-0.781-0.156-0.781 0.156-0.633 0.43-0.43 0.633-0.156 0.781 0.156 0.781 0.43 0.633 0.633 0.43 0.781 0.156z"></path>
</svg>
