<!-- Generated by IcoMoon.io -->
<svg version="1.1" xmlns="http://www.w3.org/2000/svg" width="32" height="32" viewBox="0 0 32 32">
<title>uniF1E1</title>
<path d="M2 16q0 2.328 0.727 4.461t2.047 3.898 3.164 3.078 4.063 1.969v2.063q-2.641-0.688-4.844-2.164t-3.797-3.523-2.477-4.547-0.883-5.234q0-2.203 0.57-4.25t1.617-3.82 2.508-3.234 3.234-2.508 3.82-1.617 4.25-0.57q2.109 0 4.070 0.523t3.688 1.484 3.172 2.32 2.516 3.023 1.719 3.586 0.789 4.016l-2.406-2.406q-0.594-2.313-1.883-4.258t-3.086-3.336-3.992-2.172-4.586-0.781q-1.938 0-3.719 0.5t-3.336 1.414-2.836 2.195-2.195 2.836-1.414 3.344-0.5 3.711zM16 8q-1.656 0-3.109 0.633t-2.539 1.719-1.719 2.539-0.633 3.109q0 1.609 0.602 3.063t1.742 2.594l-1.422 1.422q-1.422-1.422-2.172-3.25t-0.75-3.828q0-1.375 0.359-2.656t1.008-2.391 1.563-2.023 2.023-1.563 2.391-1.008 2.656-0.359q1.172 0 2.297 0.273t2.148 0.789 1.914 1.258 1.594 1.68h-2.719q-1.094-0.969-2.43-1.484t-2.805-0.516zM25.422 12l6.578 6.578v13.422h-18v-20h11.422zM26 15.422v2.578h2.578zM30 30v-10h-6v-6h-8v16h14zM28 22v6h-2v-6h2zM18 28v-8h2v8h-2zM22 28v-4h2v4h-2z"></path>
</svg>
