<!-- Generated by IcoMoon.io -->
<svg version="1.1" xmlns="http://www.w3.org/2000/svg" width="32" height="32" viewBox="0 0 32 32">
<title>uniF1DE</title>
<path d="M32 16q0 2.219-0.57 4.258t-1.609 3.82-2.5 3.242-3.242 2.5-3.828 1.609-4.25 0.57q-2.219 0-4.258-0.57t-3.82-1.609-3.242-2.5-2.5-3.242-1.609-3.828-0.57-4.25q0-0.406 0.297-0.703t0.703-0.297 0.703 0.297 0.297 0.703q0 1.938 0.5 3.719t1.414 3.336 2.195 2.836 2.836 2.195 3.344 1.414 3.711 0.5 3.711-0.5 3.344-1.414 2.836-2.195 2.195-2.836 1.414-3.344 0.5-3.711-0.5-3.711-1.414-3.344-2.195-2.836-2.836-2.195-3.344-1.414-3.711-0.5q-0.406 0-0.703-0.297t-0.297-0.703 0.297-0.703 0.703-0.297q2.203 0 4.25 0.57t3.828 1.609 3.242 2.5 2.5 3.242 1.609 3.828 0.57 4.25zM16 26q-0.406 0-0.703-0.297t-0.297-0.703 0.297-0.703 0.703-0.297q1.656 0 3.109-0.633t2.539-1.719 1.719-2.539 0.633-3.109-0.633-3.109-1.719-2.539-2.539-1.719-3.109-0.633q-0.406 0-0.703-0.297t-0.297-0.703 0.297-0.703 0.703-0.297q2.078 0 3.898 0.781t3.18 2.141 2.141 3.18 0.781 3.898-0.781 3.898-2.141 3.18-3.18 2.141-3.898 0.781zM15 13q0-0.406 0.297-0.703t0.703-0.297q0.828 0 1.555 0.313t1.273 0.859 0.859 1.273 0.313 1.555q0 0.406-0.297 0.703t-0.703 0.297-0.703-0.297-0.297-0.703q0-0.422-0.156-0.781t-0.43-0.633-0.633-0.43-0.781-0.156q-0.406 0-0.703-0.297t-0.297-0.703z"></path>
</svg>
