<!-- Generated by IcoMoon.io -->
<svg version="1.1" xmlns="http://www.w3.org/2000/svg" width="32" height="32" viewBox="0 0 32 32">
<title>uniF511</title>
<path d="M19 10q0.406 0 0.703 0.297t0.297 0.703-0.297 0.703-0.703 0.297h-3v15.891q0.516-0.047 1.016-0.18t0.984-0.305v2.125q-0.734 0.219-1.484 0.344t-1.516 0.125q-1.422 0-2.75-0.352t-2.5-0.992-2.164-1.547-1.734-2.016-1.211-2.398-0.594-2.695h-2.047l3-4 3 4h-1.891q0.172 1.563 0.844 2.922t1.719 2.406 2.406 1.719 2.922 0.844v-15.891h-3q-0.406 0-0.703-0.297t-0.297-0.703 0.297-0.703 0.703-0.297h3v-2.188q-0.453-0.156-0.82-0.438t-0.625-0.648-0.406-0.813-0.148-0.914q0-0.625 0.234-1.172t0.641-0.953 0.953-0.641 1.172-0.234 1.172 0.234 0.953 0.641 0.641 0.953 0.234 1.172q0 0.469-0.148 0.914t-0.406 0.813-0.633 0.648-0.813 0.438v2.188h3zM15 6q0.406 0 0.703-0.297t0.297-0.703-0.297-0.703-0.703-0.297-0.703 0.297-0.297 0.703 0.297 0.703 0.703 0.297zM32 22v10h-12v-10h2v-2q0-0.828 0.313-1.555t0.859-1.273 1.273-0.859 1.555-0.313 1.555 0.313 1.273 0.859 0.859 1.273 0.313 1.555v2h2zM24 22h4v-2q0-0.422-0.156-0.781t-0.43-0.633-0.633-0.43-0.781-0.156-0.781 0.156-0.633 0.43-0.43 0.633-0.156 0.781v2zM30 24h-8v6h8v-6z"></path>
</svg>
