<!-- Generated by IcoMoon.io -->
<svg version="1.1" xmlns="http://www.w3.org/2000/svg" width="32" height="32" viewBox="0 0 32 32">
<title>uniEFDC</title>
<path d="M14 24.719v-8.719h-12v12h10.938l-0.5 2h-12.438v-30h30v12.172q-0.594-0.125-1.125-0.125-0.219 0-0.438 0.023t-0.438 0.055v-10.125h-12v12h8.734l-2 2h-6.734v6.719zM14 14v-12h-12v12h12zM28.875 14.047q0.625 0 1.195 0.219t1 0.609 0.68 0.938 0.25 1.203-0.219 1.234-0.688 1.047l-11.203 11.203-5.891 1.469 1.469-5.891 11.203-11.188q0.438-0.438 1.016-0.641t1.188-0.203zM29.672 17.891q0.328-0.328 0.328-0.797 0-0.5-0.313-0.789t-0.813-0.289q-0.203 0-0.414 0.063t-0.367 0.219l-10.813 10.813-0.531 2.109 2.109-0.531z"></path>
</svg>
