<!-- Generated by IcoMoon.io -->
<svg version="1.1" xmlns="http://www.w3.org/2000/svg" width="32" height="32" viewBox="0 0 32 32">
<title>uniE657</title>
<path d="M23.516 14q-1.578 0.672-2.625 2h-4.891v14h-16v-30h30v14.922q-0.891-0.719-2-1.078v-11.844h-12v12h7.516zM14 28v-12h-12v12h12zM14 14v-12h-12v12h12zM30 22h2v10h-12v-10h2v-2q0-0.828 0.313-1.555t0.859-1.273 1.273-0.859 1.555-0.313 1.555 0.313 1.273 0.859 0.859 1.273 0.313 1.555v2zM24 20v2h4v-2q0-0.422-0.156-0.781t-0.43-0.633-0.633-0.43-0.781-0.156-0.781 0.156-0.633 0.43-0.43 0.633-0.156 0.781zM30 30v-6h-8v6h8z"></path>
</svg>
