<!-- Generated by IcoMoon.io -->
<svg version="1.1" xmlns="http://www.w3.org/2000/svg" width="32" height="32" viewBox="0 0 32 32">
<title>uniE3A1</title>
<path d="M27 18q1.047 0 1.961 0.398t1.594 1.078 1.063 1.602 0.383 1.969q0 1.422-0.531 2.68t-1.516 2.273q-0.406 0.406-0.828 0.781l-0.844 0.75q-0.703 0.625-1.375 1.242t-1.375 1.227l-1.531-1.422q0.719-0.609 1.422-1.219t1.406-1.234q0.438-0.375 0.867-0.758t0.836-0.789q0.734-0.75 1.102-1.633t0.367-1.945q0-0.641-0.242-1.188t-0.648-0.953-0.969-0.633-1.188-0.227q-1.031 0-1.82 0.336t-1.438 0.898-1.195 1.281-1.078 1.484h4.578v2h-8v-8h2v4.469q0.719-0.953 1.422-1.766t1.508-1.414 1.789-0.945 2.281-0.344zM0 2h32v10h-2v4h-2v-4h-24v16h18v2h-20v-18h-2v-10zM30 10v-6h-28v6h28zM16 18h-6v-2h6v2z"></path>
</svg>
