<!-- Generated by IcoMoon.io -->
<svg version="1.1" xmlns="http://www.w3.org/2000/svg" width="32" height="32" viewBox="0 0 32 32">
<title>uniF678</title>
<path d="M32 9.875v7.25q-0.641-1.781-2-3.141v-0.563l-0.297 0.281q-0.375-0.344-0.789-0.633t-0.867-0.539l1.594-1.594-13.641-6.813-13.641 6.813 5.063 5.063h9.078q-0.25 0.484-0.445 0.977t-0.32 1.023h-9.156l-4.578-4.578v14.578h12.297q-0.391 0.953-0.609 2h-13.688v-20.125l16-8zM27.563 24.828q1.016 0.5 1.836 1.258t1.398 1.695 0.891 2.016 0.313 2.203h-2q0-1.234-0.469-2.328t-1.289-1.914-1.914-1.289-2.328-0.469q-1.25 0-2.336 0.469t-1.906 1.289-1.289 1.914-0.469 2.328h-2q0-1.125 0.313-2.203t0.891-2.016 1.398-1.695 1.836-1.258q-1.156-0.859-1.797-2.125t-0.641-2.703q0-1.234 0.469-2.328t1.289-1.914 1.906-1.289 2.336-0.469q1.234 0 2.328 0.469t1.914 1.289 1.289 1.914 0.469 2.328q0 1.438-0.641 2.703t-1.797 2.125zM20 20q0 0.828 0.313 1.555t0.859 1.273 1.273 0.859 1.555 0.313 1.555-0.313 1.273-0.859 0.859-1.273 0.313-1.555-0.313-1.555-0.859-1.273-1.273-0.859-1.555-0.313-1.555 0.313-1.273 0.859-0.859 1.273-0.313 1.555z"></path>
</svg>
