<!-- Generated by IcoMoon.io -->
<svg version="1.1" xmlns="http://www.w3.org/2000/svg" width="32" height="32" viewBox="0 0 32 32">
<title>uniEB34</title>
<path d="M30 19q0 0.625-0.234 1.172t-0.641 0.953-0.953 0.641-1.172 0.234h-25l-2-8h6l0.5 2h4l-2.5-10h5l5 10h9q0.625 0 1.172 0.234t0.953 0.641 0.641 0.953 0.234 1.172zM3.563 20h23.438q0.406 0 0.703-0.297t0.297-0.703-0.297-0.703-0.703-0.297h-10.234q-1.219-2.531-2.477-5.008t-2.523-4.992h-1.203q0.625 2.516 1.242 5t1.258 5h-8.125l-0.5-2h-1.875zM32 26v2h-22v-2h22z"></path>
</svg>
