<!-- Generated by IcoMoon.io -->
<svg version="1.1" xmlns="http://www.w3.org/2000/svg" width="32" height="32" viewBox="0 0 32 32">
<title>uniEEB6</title>
<path d="M9.5 2q0.703 0 1.211 0.148t0.906 0.367 0.711 0.484 0.633 0.484 0.688 0.367 0.852 0.148h15.5q0.422 0 0.781 0.156t0.633 0.43 0.43 0.633 0.156 0.781v10h-2v-10h-15.5q-0.484 0-0.852 0.148t-0.688 0.367-0.633 0.484-0.711 0.484-0.906 0.367-1.211 0.148h-7.5v18h12v2h-14v-24q0-0.422 0.156-0.781t0.43-0.633 0.633-0.43 0.781-0.156h7.5zM9.5 6q0.375 0 0.656-0.070t0.516-0.203 0.461-0.313 0.492-0.414q-0.266-0.234-0.492-0.414t-0.461-0.313-0.516-0.203-0.656-0.070h-7.5v2h7.5zM16 18h16v14h-16v-14zM18 20v2h2v2h-2v2h2v2h-2v2h12v-2h-2v-2h2v-2h-2v-2h2v-2h-12zM16.078 15.391q-0.266-0.641-0.828-1.016t-1.25-0.375v7q0 0.688-0.305 1.242t-0.805 0.945-1.125 0.602-1.266 0.211-1.266-0.211-1.125-0.602-0.805-0.945-0.305-1.242 0.305-1.242 0.805-0.945 1.125-0.602 1.266-0.211q0.797 0 1.5 0.281v-6.281h2q0.641 0 1.242 0.188t1.117 0.531 0.914 0.828 0.648 1.078zM10.5 22q0.203 0 0.461-0.063t0.492-0.188 0.391-0.313 0.156-0.438-0.156-0.438-0.391-0.313-0.492-0.188-0.461-0.063-0.461 0.063-0.492 0.188-0.391 0.313-0.156 0.438 0.156 0.438 0.391 0.313 0.492 0.188 0.461 0.063z"></path>
</svg>
