<!-- Generated by IcoMoon.io -->
<svg version="1.1" xmlns="http://www.w3.org/2000/svg" width="32" height="32" viewBox="0 0 32 32">
<title>uniE9D3</title>
<path d="M31.422 27l-4.969 4.953-1.406-1.406 2.547-2.547h-9.594v-2h9.594l-2.547-2.547 1.406-1.406zM21.672 30l2 2h-19.672v-28h8q0-0.828 0.313-1.555t0.859-1.273 1.273-0.859 1.555-0.313 1.555 0.313 1.273 0.859 0.859 1.273 0.313 1.555h8v16.766l-2-2v-12.766h-2v4h-16v-4h-2v24h15.672zM10 6v2h12v-2h-4v-2q0-0.422-0.156-0.781t-0.43-0.633-0.633-0.43-0.781-0.156-0.781 0.156-0.633 0.43-0.43 0.633-0.156 0.781v2h-4z"></path>
</svg>
