<!-- Generated by IcoMoon.io -->
<svg version="1.1" xmlns="http://www.w3.org/2000/svg" width="32" height="32" viewBox="0 0 32 32">
<title>uniEF85</title>
<path d="M15 0q0.828 0 1.539 0.102t1.383 0.313 1.32 0.523 1.336 0.75q1.156 0.719 2.273 1.172t2.258 0.703 2.344 0.344 2.547 0.094v5.5q0 2.453-0.477 4.82t-1.391 4.555-2.227 4.156-2.977 3.648-3.664 3.031-4.266 2.289q-2.266-0.938-4.266-2.289t-3.664-3.031-2.977-3.648-2.227-4.156-1.391-4.547-0.477-4.828v-5.5q1.359 0 2.563-0.094t2.336-0.344 2.25-0.703 2.289-1.188q0.672-0.422 1.328-0.734t1.32-0.523 1.383-0.313 1.531-0.102zM28 5.969q-2.375-0.109-4.469-0.758t-4.109-1.898q-1.063-0.672-2.102-0.992t-2.32-0.32-2.328 0.328-2.109 1q-2 1.25-4.102 1.891t-4.461 0.75v3.531q0 3.281 0.914 6.352t2.602 5.719 4.094 4.758 5.391 3.484q2.984-1.375 5.391-3.484t4.094-4.758 2.602-5.719 0.914-6.352v-3.531zM15 4q0.969 0 1.727 0.227t1.57 0.742q1.797 1.141 3.688 1.836t4.016 0.992v1.703q0 2.844-0.773 5.539t-2.203 5.047-3.461 4.273-4.563 3.234q-2.531-1.313-4.57-3.234t-3.469-4.273-2.195-5.047-0.766-5.539v-1.703q2.125-0.297 4-0.977t3.672-1.836q0.797-0.5 1.578-0.742t1.75-0.242zM16.5 14l2-4h-3.5l-3.5 7h3l-3 6 9-9h-4z"></path>
</svg>
