<!-- Generated by IcoMoon.io -->
<svg version="1.1" xmlns="http://www.w3.org/2000/svg" width="32" height="32" viewBox="0 0 32 32">
<title>uniE723</title>
<path d="M24 6v19q0 1.453-0.555 2.727t-1.5 2.219-2.219 1.5-2.727 0.555-2.727-0.555-2.219-1.5-1.5-2.219-0.555-2.727v-20q0-1.031 0.398-1.938t1.078-1.586 1.586-1.078 1.938-0.398 1.938 0.398 1.586 1.078 1.078 1.586 0.398 1.938v20q0 0.625-0.234 1.172t-0.641 0.953-0.953 0.641-1.172 0.234-1.172-0.234-0.953-0.641-0.641-0.953-0.234-1.172v-17h2v17q0 0.406 0.297 0.703t0.703 0.297 0.703-0.297 0.297-0.703v-20q0-0.625-0.234-1.172t-0.641-0.953-0.953-0.641-1.172-0.234-1.172 0.234-0.953 0.641-0.641 0.953-0.234 1.172v20q0 1.031 0.398 1.938t1.078 1.586 1.586 1.078 1.938 0.398 1.938-0.398 1.586-1.078 1.078-1.586 0.398-1.938v-19h2z"></path>
</svg>
