<!-- Generated by IcoMoon.io -->
<svg version="1.1" xmlns="http://www.w3.org/2000/svg" width="32" height="32" viewBox="0 0 32 32">
<title>uniEE70</title>
<path d="M24 0q1.656 0 3.117 0.625t2.547 1.711 1.711 2.547 0.625 3.117q0 3.313-0.859 6.375t-2.422 5.734-3.75 4.859-4.859 3.75-5.734 2.422-6.375 0.859q-1.656 0-3.117-0.625t-2.547-1.711-1.711-2.547-0.625-3.117q0-3.313 0.859-6.375t2.422-5.734 3.75-4.859 4.859-3.75 5.734-2.422 6.375-0.859zM24 2q-3.031 0-5.836 0.789t-5.25 2.219-4.461 3.445-3.445 4.461-2.219 5.25-0.789 5.836q0 0.938 0.281 1.828t0.828 1.641l6.984-6.969-1.297-1.297q-0.297-0.297-0.297-0.703t0.297-0.703 0.703-0.297 0.703 0.297l1.297 1.281 1.578-1.578-1.281-1.297q-0.297-0.297-0.297-0.703t0.297-0.703 0.703-0.297 0.703 0.297l1.297 1.297 1.594-1.594-1.297-1.297q-0.297-0.297-0.297-0.703t0.297-0.703 0.703-0.297 0.703 0.297l1.297 1.281 1.578-1.578-1.281-1.297q-0.297-0.297-0.297-0.703t0.297-0.703 0.703-0.297 0.703 0.297l1.297 1.297 6.969-6.984q-0.75-0.547-1.641-0.828t-1.828-0.281zM8 30q3.031 0 5.836-0.789t5.25-2.219 4.461-3.445 3.445-4.461 2.219-5.25 0.789-5.836q0-0.938-0.281-1.828t-0.828-1.641l-6.984 6.969 1.297 1.297q0.297 0.297 0.297 0.703t-0.297 0.703-0.703 0.297q-0.219 0-0.383-0.078t-0.32-0.219l-1.297-1.281-1.578 1.578 1.281 1.297q0.297 0.297 0.297 0.703t-0.297 0.703-0.703 0.297-0.703-0.297l-1.297-1.297-1.594 1.594 1.297 1.297q0.297 0.297 0.297 0.703t-0.297 0.703-0.703 0.297q-0.219 0-0.383-0.078t-0.32-0.219l-1.297-1.281-1.578 1.578 1.281 1.297q0.297 0.297 0.297 0.703t-0.297 0.703-0.703 0.297-0.703-0.297l-1.297-1.297-6.969 6.984q0.75 0.547 1.641 0.828t1.828 0.281z"></path>
</svg>
