<!-- Generated by IcoMoon.io -->
<svg version="1.1" xmlns="http://www.w3.org/2000/svg" width="32" height="32" viewBox="0 0 32 32">
<title>uniF6B1</title>
<path d="M16 10q3.078 0 6.086 0.5t5.914 1.5v2q0 2.953-0.859 5.703t-2.43 5.109-3.781 4.203-4.93 2.984q-2.703-1.125-4.922-2.977t-3.789-4.195-2.43-5.094-0.859-5.688q0-0.203 0.031-0.469t0.070-0.547 0.078-0.547 0.070-0.484q2.891-1 5.797-1.5t5.953-0.5zM20 24v-0.5q0-0.641-0.195-1.234t-0.555-1.094-0.859-0.875-1.109-0.578q0.797-0.375 1.258-1.109t0.461-1.609q0-0.625-0.234-1.172t-0.641-0.953-0.953-0.641-1.172-0.234-1.172 0.234-0.953 0.641-0.641 0.953-0.234 1.172q0 0.875 0.461 1.609t1.258 1.109q-0.609 0.203-1.109 0.578t-0.859 0.875-0.555 1.094-0.195 1.234v0.5h8zM16 3q-1.031 0-1.945 0.391t-1.594 1.070-1.070 1.594-0.391 1.945l-3 0.5v-0.5q0-1.656 0.633-3.109t1.719-2.539 2.539-1.719 3.109-0.633 3.109 0.633 2.539 1.719 1.719 2.539 0.633 3.109v0.5l-3-0.5q0-1.031-0.391-1.945t-1.070-1.594-1.594-1.070-1.945-0.391z"></path>
</svg>
