<!-- Generated by IcoMoon.io -->
<svg version="1.1" xmlns="http://www.w3.org/2000/svg" width="32" height="32" viewBox="0 0 32 32">
<title>uniE3E9</title>
<path d="M0 32v-18h32v18h-2v-2h-8v2h-2v-2h-8v2h-2v-2h-8v2h-2zM20 28v-6h-8v6h8zM30 28v-6h-8v6h8zM2 16v4h28v-4h-28zM2 22v6h8v-6h-8zM2 8v4h-2v-10h2v4h4v2h-4zM30 2h2v10h-2v-4h-6v-2h6v-4zM12.453 12h-2l7.047-12h2zM11 6q-0.625 0-1.172-0.234t-0.953-0.641-0.641-0.953-0.234-1.172 0.234-1.172 0.641-0.953 0.953-0.641 1.172-0.234 1.172 0.234 0.953 0.641 0.641 0.953 0.234 1.172-0.234 1.172-0.641 0.953-0.953 0.641-1.172 0.234zM11 1.5q-0.625 0-1.063 0.438t-0.438 1.063 0.438 1.063 1.063 0.438 1.063-0.438 0.438-1.063-0.438-1.063-1.063-0.438zM16 9q0-0.625 0.234-1.172t0.641-0.953 0.953-0.641 1.172-0.234 1.172 0.234 0.953 0.641 0.641 0.953 0.234 1.172-0.234 1.172-0.641 0.953-0.953 0.641-1.172 0.234-1.172-0.234-0.953-0.641-0.641-0.953-0.234-1.172zM20.5 9q0-0.625-0.438-1.063t-1.063-0.438-1.063 0.438-0.438 1.063 0.438 1.063 1.063 0.438 1.063-0.438 0.438-1.063z"></path>
</svg>
