<!-- Generated by IcoMoon.io -->
<svg version="1.1" xmlns="http://www.w3.org/2000/svg" width="32" height="32" viewBox="0 0 32 32">
<title>uniF512</title>
<path d="M7 1.594l5.703 5.703-1.406 1.406-3.297-3.281v8.578h-2v-8.578l-3.297 3.281-1.406-1.406zM11.297 23.297l1.406 1.406-5.703 5.703-5.703-5.703 1.406-1.406 3.297 3.281v-8.578h2v8.578zM32 4v24h-18v-2h16v-20h-16v-2h18zM26 8l-3.078 5h5.313l-9.781 11h-3.969l2.578-6h-3.688l5-10h7.625zM19.359 15l3.063-5h-2.797l-3 6h3.469l-2.547 6 6.219-7h-4.406z"></path>
</svg>
