<!-- Generated by IcoMoon.io -->
<svg version="1.1" xmlns="http://www.w3.org/2000/svg" width="32" height="32" viewBox="0 0 32 32">
<title>uniE78D</title>
<path d="M0 31q0-0.406 0.297-0.703l19-19q0.297-0.297 0.703-0.297t0.703 0.297 0.297 0.703-0.297 0.703l-19 19q-0.297 0.297-0.703 0.297t-0.703-0.297-0.297-0.703zM22 0h2v4h-2v-4zM18.766 6.172l-2.844-2.828 1.422-1.422 2.828 2.844zM18 10h-4v-2h4v2zM22 14h2v4h-2v-4zM27.234 11.828l2.844 2.828-1.422 1.422-2.828-2.844zM32 8v2h-4v-2h4zM27.234 6.172l-1.406-1.406 2.828-2.844 1.422 1.422zM23 8q0.406 0 0.703 0.297t0.297 0.703-0.297 0.703-0.703 0.297-0.703-0.297-0.297-0.703 0.297-0.703 0.703-0.297z"></path>
</svg>
