<!-- Generated by IcoMoon.io -->
<svg version="1.1" xmlns="http://www.w3.org/2000/svg" width="32" height="32" viewBox="0 0 32 32">
<title>uniE3E8</title>
<path d="M0 32v-18h32v18h-2v-2h-8v2h-2v-2h-8v2h-2v-2h-8v2h-2zM20 28v-6h-8v6h8zM30 28v-6h-8v6h8zM2 16v4h28v-4h-28zM2 22v6h8v-6h-8zM2 8v4h-2v-10h2v4h6v2h-6zM30 2h2v10h-2v-4h-8v-2h8v-4zM14 4.578l-1.422 1.422-2.578-2.578 1.422-1.422zM20 3.422l-2.578 2.578-1.422-1.422 2.578-2.578zM20 10.578l-1.422 1.422-2.578-2.578 1.422-1.422zM14 9.422l-2.766 2.578-1.234-1.422 2.578-2.578z"></path>
</svg>
