<!-- Generated by IcoMoon.io -->
<svg version="1.1" xmlns="http://www.w3.org/2000/svg" width="32" height="32" viewBox="0 0 32 32">
<title>uniF3B4</title>
<path d="M14 12.828q-1.094-0.266-2.016-0.867t-1.586-1.438-1.031-1.867-0.367-2.156q0-1.344 0.516-2.523t1.398-2.063 2.063-1.398 2.523-0.516 2.523 0.516 2.063 1.398 1.398 2.063 0.516 2.523q0 1.125-0.367 2.156t-1.031 1.867-1.586 1.438-2.016 0.867v13.172h-3v-4h-4v-3h4v-6.172zM15.5 3q-0.719 0-1.359 0.273t-1.117 0.75-0.75 1.117-0.273 1.359 0.273 1.359 0.75 1.117 1.117 0.75 1.359 0.273 1.359-0.273 1.117-0.75 0.75-1.117 0.273-1.359-0.273-1.359-0.75-1.117-1.117-0.75-1.359-0.273zM23.875 7.922q1.203 0.969 2.156 2.164t1.609 2.547 1.008 2.836 0.352 3.031q0 1.859-0.484 3.586t-1.367 3.227-2.109 2.727-2.727 2.109-3.227 1.367-3.586 0.484-3.586-0.484-3.227-1.359-2.734-2.109-2.109-2.734-1.359-3.227-0.484-3.586q0-1.547 0.352-3.031t1.008-2.836 1.609-2.547 2.156-2.164q0.281 1.625 1.125 3-1.563 1.5-2.406 3.461t-0.844 4.117q0 1.453 0.375 2.789t1.063 2.508 1.641 2.125 2.125 1.641 2.508 1.063 2.789 0.375 2.789-0.375 2.508-1.063 2.125-1.641 1.641-2.125 1.063-2.508 0.375-2.789q0-2.156-0.844-4.117t-2.406-3.461q0.844-1.375 1.125-3z"></path>
</svg>
