<!-- Generated by IcoMoon.io -->
<svg version="1.1" xmlns="http://www.w3.org/2000/svg" width="32" height="32" viewBox="0 0 32 32">
<title>uniF380</title>
<path d="M30 16v2h-17.641q-0.172 0.563-0.5 1.023t-0.773 0.789-0.977 0.508-1.109 0.18q-0.734 0-1.367-0.273t-1.109-0.75-0.75-1.109-0.273-1.367q0-0.719 0.273-1.359t0.75-1.117 1.109-0.75 1.367-0.273q0.578 0 1.109 0.18t0.977 0.508 0.773 0.789 0.5 1.023h17.641zM9 23q1.203 0 2.297-0.453t1.938-1.313l1.422 1.422q-1.141 1.141-2.594 1.742t-3.063 0.602q-1.656 0-3.117-0.625t-2.547-1.711-1.711-2.547-0.625-3.117 0.625-3.117 1.711-2.547 2.547-1.711 3.117-0.625q1.609 0 3.063 0.602t2.594 1.742l-1.422 1.422q-0.844-0.859-1.938-1.313t-2.297-0.453q-1.234 0-2.328 0.477t-1.906 1.289-1.289 1.906-0.477 2.328 0.477 2.328 1.289 1.906 1.906 1.289 2.328 0.477z"></path>
</svg>
