<!-- Generated by IcoMoon.io -->
<svg version="1.1" xmlns="http://www.w3.org/2000/svg" width="32" height="32" viewBox="0 0 32 32">
<title>uniF37F</title>
<path d="M25.953 10q1.25 0 2.352 0.469t1.922 1.273 1.297 1.898 0.477 2.359q0 1.25-0.469 2.336t-1.289 1.906-1.914 1.289-2.328 0.469h-2v-2h2q0.828 0 1.555-0.313t1.273-0.859 0.859-1.273 0.313-1.555-0.313-1.555-0.859-1.273-1.273-0.859-1.555-0.313h-2v-1q0-1.453-0.555-2.727t-1.5-2.219-2.219-1.5-2.727-0.555q-0.984 0-1.898 0.266t-1.703 0.758-1.445 1.188-1.125 1.539l-0.391 0.719q-0.594-0.203-1.195-0.336t-1.242-0.133q-1.25 0-2.336 0.469t-1.906 1.289-1.289 1.914-0.469 2.328q0 1.25 0.469 2.336t1.289 1.906 1.906 1.289 2.336 0.469h1.641q0.172-0.563 0.5-1.023t0.773-0.789 0.977-0.508 1.109-0.18q0.719 0 1.359 0.273t1.117 0.75 0.75 1.117 0.273 1.359q0 0.734-0.273 1.367t-0.75 1.109-1.117 0.75-1.359 0.273q-0.578 0-1.109-0.18t-0.977-0.508-0.773-0.789-0.5-1.023h-1.641q-1.656 0-3.109-0.633t-2.539-1.719-1.719-2.539-0.633-3.109 0.633-3.109 1.719-2.539 2.539-1.719 3.109-0.633q0.719 0 1.453 0.141 0.609-0.953 1.445-1.719t1.813-1.305 2.063-0.828 2.227-0.289q1.719 0 3.258 0.609t2.742 1.688 1.984 2.539 0.969 3.164zM13 13q1.656 0 3.117 0.625t2.547 1.711 1.711 2.547 0.625 3.117-0.625 3.117-1.711 2.547-2.547 1.711-3.117 0.625q-1.609 0-3.063-0.602t-2.594-1.742l1.422-1.422q0.844 0.859 1.938 1.313t2.297 0.453q1.234 0 2.328-0.477t1.906-1.289 1.289-1.906 0.477-2.328-0.477-2.328-1.289-1.906-1.906-1.289-2.328-0.477q-1.203 0-2.297 0.453t-1.938 1.313l-1.422-1.422q1.141-1.141 2.594-1.742t3.063-0.602z"></path>
</svg>
