<!-- Generated by IcoMoon.io -->
<svg version="1.1" xmlns="http://www.w3.org/2000/svg" width="32" height="32" viewBox="0 0 32 32">
<title>uniE439</title>
<path d="M31 0q0.406 0 0.703 0.297t0.297 0.703v27.891q0 0.406-0.297 0.703t-0.703 0.297-0.703-0.297l-27.891-27.891q-0.297-0.297-0.297-0.703t0.297-0.703 0.703-0.297h27.891zM30 10.859v-8.859h-8.453l-8.016 8.016 8.656 8.641zM18.719 2h-13.188l6.594 6.594zM23.609 20.078l6.391 6.391v-12.781zM13.281 17.297l1.406 1.406-12 12-1.406-1.406zM9.516 29.531l8-8 1.422 1.422-8 8zM10.453 14.469l-8 8-1.422-1.422 8-8zM20.25 6.344l1.766-1.781 1.766 1.781-1.766 1.766zM27.438 9.953l-1.766 1.766-1.781-1.766 1.781-1.766zM16.344 10.219l1.766-1.766 1.766 1.766-1.766 1.766zM20 13.844l1.766-1.766 1.766 1.766-1.766 1.766z"></path>
</svg>
