<!-- Generated by IcoMoon.io -->
<svg version="1.1" xmlns="http://www.w3.org/2000/svg" width="32" height="32" viewBox="0 0 32 32">
<title>uniF42B</title>
<path d="M32 4v28h-28v-10l2 2v6h24v-24h-12v-2h14zM11 24.406l-9.406-9.406 8.406-8.422v-3.578q0-0.625 0.234-1.172t0.641-0.953 0.953-0.641 1.172-0.234 1.172 0.234 0.953 0.641 0.641 0.953 0.234 1.172v9h-2v-9q0-0.406-0.297-0.703t-0.703-0.297-0.703 0.297-0.297 0.703v4.422l-6.578 6.578h13.156l1.016-1-1.297-1.297 1.406-1.406 2.703 2.703zM16.578 16h-11.156l5.578 5.594zM23.094 28.281q-1.047 0-2.023-0.359t-1.727-1.008-1.203-1.555-0.453-2.016q0-0.672 0.188-1.313t0.547-1.203l4.578-7.203 4.469 7.031q0.359 0.594 0.563 1.242t0.203 1.352q0 1.047-0.414 1.969t-1.117 1.602-1.641 1.070-1.969 0.391zM20.578 22.203q-0.344 0.516-0.344 1.109 0 0.563 0.242 1.008t0.641 0.758 0.891 0.477 1.008 0.164 1-0.18 0.852-0.508 0.594-0.781 0.227-1q0-0.641-0.375-1.234l-2.313-3.641z"></path>
</svg>
