<!-- Generated by IcoMoon.io -->
<svg version="1.1" xmlns="http://www.w3.org/2000/svg" width="32" height="32" viewBox="0 0 32 32">
<title>uniED7E</title>
<path d="M27 12q-0.406 0-0.703-0.297t-0.297-0.703q0-0.625-0.234-1.172t-0.641-0.953-0.953-0.641-1.172-0.234q-0.406 0-0.703-0.297t-0.297-0.703 0.297-0.703 0.703-0.297q1.031 0 1.945 0.391t1.594 1.070 1.070 1.594 0.391 1.945q0 0.406-0.297 0.703t-0.703 0.297zM9 4q1.031 0 1.945 0.391t1.594 1.070 1.070 1.594 0.391 1.945q0 0.406-0.297 0.703t-0.703 0.297-0.703-0.297-0.297-0.703q0-0.625-0.234-1.172t-0.641-0.953-0.953-0.641-1.172-0.234q-0.406 0-0.703-0.297t-0.297-0.703 0.297-0.703 0.703-0.297zM24 23.641q0 0.313-0.023 0.719t0.047 0.766 0.289 0.617 0.688 0.258q1.031 0 1.945 0.391t1.594 1.070 1.070 1.594 0.391 1.945q0 0.406-0.297 0.703t-0.703 0.297-0.703-0.297-0.297-0.703q0-0.625-0.234-1.172t-0.641-0.953-0.953-0.641-1.172-0.234-1.172-0.234-0.953-0.641-0.641-0.953-0.234-1.172v-1.359q-2.172-1.031-3.859-2.703t-2.719-3.844q-1.031 1.469-2.406 2.625t-3.016 1.922v1.359q0 0.625 0.234 1.172t0.641 0.953 0.953 0.641 1.172 0.234q0.828 0 1.563-0.008t1.406 0.109 1.297 0.43 1.266 0.938q0.719 0.719 1.094 1.617t0.375 1.914q0 0.406-0.297 0.703t-0.703 0.297-0.703-0.297-0.297-0.703q0-0.625-0.234-1.172t-0.641-0.953-0.953-0.641-1.172-0.234h-2q-1.031 0-1.945-0.391t-1.594-1.070-1.070-1.594-0.391-1.945v-1.359q-1.828-0.859-3.313-2.188t-2.523-2.977-1.602-3.547-0.563-3.93q0-1.859 0.711-3.5t1.93-2.859 2.859-1.93 3.5-0.711q1.203 0 2.344 0.313t2.156 0.898 1.859 1.422 1.438 1.883q1.25-1.219 2.852-1.867t3.352-0.648q1.859 0 3.5 0.711t2.859 1.93 1.93 2.859 0.711 3.5q0 2.031-0.563 3.93t-1.602 3.547-2.523 2.977-3.313 2.188zM9 19.906q1.609-0.734 2.898-1.867t2.203-2.555 1.406-3.070 0.492-3.414q0-1.453-0.555-2.727t-1.5-2.219-2.219-1.5-2.727-0.555-2.727 0.555-2.219 1.5-1.5 2.219-0.555 2.727q0 1.766 0.492 3.414t1.406 3.070 2.203 2.555 2.898 1.867zM16.688 14.922q0.391 1.156 1.016 2.203t1.43 1.938 1.781 1.609 2.086 1.234q1.609-0.734 2.898-1.867t2.203-2.555 1.406-3.070 0.492-3.414q0-1.453-0.555-2.727t-1.5-2.219-2.219-1.5-2.727-0.555q-1.563 0-2.953 0.664t-2.391 1.867q0.172 0.594 0.258 1.219t0.086 1.25q0 1.547-0.328 3.039t-0.984 2.883z"></path>
</svg>
