<!-- Generated by IcoMoon.io -->
<svg version="1.1" xmlns="http://www.w3.org/2000/svg" width="32" height="32" viewBox="0 0 32 32">
<title>uniF89D</title>
<path d="M22 6v10.016l-2 2v-14.016h6v8.297q-0.609 0.344-1.055 0.789l-0.945 0.945v-8.031h-2zM10 8v18h-6v-18h6zM8 24v-14h-2v14h2zM32 17.094q0 0.609-0.234 1.188t-0.672 1.016l-11.203 11.203-5.891 1.469 1.469-5.891 11.203-11.188q0.453-0.453 1.008-0.672t1.195-0.219q0.656 0 1.227 0.234t0.992 0.648 0.664 0.984 0.242 1.227zM30 17.094q0-0.5-0.313-0.797t-0.813-0.297q-0.219 0-0.422 0.070t-0.359 0.227l-10.813 10.813-0.531 2.109 2.109-0.531 10.813-10.797q0.328-0.328 0.328-0.797zM14 24h0.016l-0.398 0.398t-0.414 0.398q-0.078 0.313-0.148 0.609t-0.148 0.594h-0.906v-14h6v8.016l-1.984 1.984h-0.016v-8h-2v10zM2 2v26h10.406l-0.5 2h-11.906v-28h2z"></path>
</svg>
