<!-- Generated by IcoMoon.io -->
<svg version="1.1" xmlns="http://www.w3.org/2000/svg" width="32" height="32" viewBox="0 0 32 32">
<title>uniEB20</title>
<path d="M16 0q2.203 0 4.25 0.57t3.828 1.609 3.242 2.5 2.5 3.242 1.609 3.828 0.57 4.25-0.57 4.25-1.609 3.828-2.5 3.242-3.242 2.5-3.828 1.609-4.25 0.57-4.25-0.57-3.828-1.609-3.242-2.5-2.5-3.242-1.609-3.82-0.57-4.258q0-2.203 0.57-4.25t1.609-3.828 2.5-3.242 3.242-2.5 3.82-1.609 4.258-0.57zM16 30q1.922 0 3.711-0.5t3.344-1.414 2.836-2.195 2.195-2.836 1.414-3.336 0.5-3.719q0-1.922-0.5-3.711t-1.414-3.344-2.195-2.836-2.836-2.195-3.344-1.414-3.711-0.5-3.711 0.5-3.344 1.414-2.836 2.195-2.195 2.836-1.414 3.344-0.5 3.711 0.5 3.711 1.414 3.344 2.195 2.836 2.836 2.195 3.336 1.414 3.719 0.5zM6 8q0.406 0 0.703 0.297t0.297 0.703-0.297 0.703-0.703 0.297-0.703-0.297-0.297-0.703 0.297-0.703 0.703-0.297zM10 9q0.406 0 0.703 0.297t0.297 0.703-0.297 0.703-0.703 0.297-0.703-0.297-0.297-0.703 0.297-0.703 0.703-0.297zM14 10q0.406 0 0.703 0.297t0.297 0.703-0.297 0.703-0.703 0.297-0.703-0.297-0.297-0.703 0.297-0.703 0.703-0.297zM18 10q0.406 0 0.703 0.297t0.297 0.703-0.297 0.703-0.703 0.297-0.703-0.297-0.297-0.703 0.297-0.703 0.703-0.297zM22 9q0.406 0 0.703 0.297t0.297 0.703-0.297 0.703-0.703 0.297-0.703-0.297-0.297-0.703 0.297-0.703 0.703-0.297zM25 9q0-0.406 0.297-0.703t0.703-0.297 0.703 0.297 0.297 0.703-0.297 0.703-0.703 0.297-0.703-0.297-0.297-0.703zM26 22q0.406 0 0.703 0.297t0.297 0.703-0.297 0.703-0.703 0.297-0.703-0.297-0.297-0.703 0.297-0.703 0.703-0.297zM22 21q0.406 0 0.703 0.297t0.297 0.703-0.297 0.703-0.703 0.297-0.703-0.297-0.297-0.703 0.297-0.703 0.703-0.297zM18 20q0.406 0 0.703 0.297t0.297 0.703-0.297 0.703-0.703 0.297-0.703-0.297-0.297-0.703 0.297-0.703 0.703-0.297zM14 20q0.406 0 0.703 0.297t0.297 0.703-0.297 0.703-0.703 0.297-0.703-0.297-0.297-0.703 0.297-0.703 0.703-0.297zM10 21q0.406 0 0.703 0.297t0.297 0.703-0.297 0.703-0.703 0.297-0.703-0.297-0.297-0.703 0.297-0.703 0.703-0.297zM6 22q0.406 0 0.703 0.297t0.297 0.703-0.297 0.703-0.703 0.297-0.703-0.297-0.297-0.703 0.297-0.703 0.703-0.297z"></path>
</svg>
