<!-- Generated by IcoMoon.io -->
<svg version="1.1" xmlns="http://www.w3.org/2000/svg" width="32" height="32" viewBox="0 0 32 32">
<title>uniF49E</title>
<path d="M25 8q1.031 0 1.938 0.398t1.586 1.078 1.078 1.586 0.398 1.938v8q0 1.031-0.398 1.945t-1.078 1.594-1.586 1.070-1.938 0.391h-1v3q0 0.625-0.234 1.172t-0.641 0.953-0.953 0.641-1.172 0.234h-16q-0.625 0-1.172-0.234t-0.953-0.641-0.641-0.953-0.234-1.172v-21.547q-0.922-0.531-1.461-1.453t-0.539-2q0-0.813 0.313-1.547t0.852-1.273 1.258-0.859 1.547-0.32h18.031q0.828 0 1.555 0.313t1.273 0.859 0.859 1.273 0.313 1.555q0 0.547-0.148 1.078t-0.406 1.008-0.633 0.867-0.813 0.672v0.375h1zM3.984 2q-0.406 0-0.773 0.156t-0.633 0.43-0.422 0.641-0.156 0.773q0 0.625 0.367 1.141t0.961 0.734l0.672 0.234v8.891q0 0.406 0.297 0.703t0.703 0.297 0.703-0.297 0.297-0.703v-6q0-0.625 0.234-1.172t0.641-0.953 0.953-0.641 1.172-0.234 1.172 0.234 0.953 0.641 0.641 0.953 0.234 1.172v4q0 0.406 0.297 0.703t0.703 0.297 0.703-0.297 0.297-0.703v-4q0-0.625 0.234-1.172t0.641-0.953 0.953-0.641 1.172-0.234h5.797q0.516-0.25 0.859-0.813t0.344-1.188q0-0.422-0.156-0.781t-0.43-0.633-0.633-0.43-0.781-0.156h-18.016zM22 29v-1.188q-0.234 0.078-0.484 0.133t-0.516 0.055h-16q-0.266 0-0.516-0.055t-0.484-0.133v1.188q0 0.406 0.297 0.703t0.703 0.297h16q0.406 0 0.703-0.297t0.297-0.703zM21 26q0.406 0 0.703-0.297t0.297-0.703v-17h-5q-0.406 0-0.703 0.297t-0.297 0.703v4q0 0.625-0.234 1.172t-0.641 0.953-0.953 0.641-1.172 0.234-1.172-0.234-0.953-0.641-0.641-0.953-0.234-1.172v-4q0-0.406-0.297-0.703t-0.703-0.297-0.703 0.297-0.297 0.703v6q0 0.625-0.234 1.172t-0.641 0.953-0.953 0.641-1.172 0.234q-0.516 0-1-0.172v7.172q0 0.406 0.297 0.703t0.703 0.297h3v-7q0-0.422 0.297-0.711t0.703-0.289 0.703 0.289 0.297 0.711v7h6v-9q0-0.422 0.297-0.711t0.703-0.289 0.703 0.289 0.297 0.711v9h3zM28 21v-8q0-0.625-0.234-1.172t-0.641-0.953-0.953-0.641-1.172-0.234h-1v14h1q0.625 0 1.172-0.234t0.953-0.641 0.641-0.953 0.234-1.172z"></path>
</svg>
