<!-- Generated by IcoMoon.io -->
<svg version="1.1" xmlns="http://www.w3.org/2000/svg" width="32" height="32" viewBox="0 0 32 32">
<title>uniF543</title>
<path d="M8 14h6v18h-6v-18zM10 30h2v-14h-2v14zM16 18h6v14h-6v-14zM18 30h2v-10h-2v10zM0 22h6v10h-6v-10zM2 30h2v-6h-2v6zM24 10h6v22h-6v-22zM26 30h2v-18h-2v18zM21.703 9.703q0.297 0.641 0.297 1.297 0 0.625-0.234 1.172t-0.641 0.953-0.953 0.641-1.172 0.234-1.172-0.234-0.953-0.641-0.641-0.953-0.234-1.172v-0.188t0.016-0.188l-2.938-1.469q-0.406 0.406-0.953 0.625t-1.125 0.219q-0.656 0-1.297-0.297l-4 4q0.297 0.641 0.297 1.297 0 0.625-0.234 1.172t-0.641 0.953-0.953 0.641-1.172 0.234-1.172-0.234-0.953-0.641-0.641-0.953-0.234-1.172 0.234-1.172 0.641-0.953 0.953-0.641 1.172-0.234q0.656 0 1.297 0.297l4-4q-0.297-0.641-0.297-1.297 0-0.625 0.234-1.172t0.641-0.953 0.953-0.641 1.172-0.234 1.172 0.234 0.953 0.641 0.641 0.953 0.234 1.172v0.188t-0.016 0.188l2.938 1.469q0.406-0.406 0.953-0.625t1.125-0.219q0.656 0 1.297 0.297l4-4q-0.297-0.641-0.297-1.297 0-0.625 0.234-1.172t0.641-0.953 0.953-0.641 1.172-0.234 1.172 0.234 0.953 0.641 0.641 0.953 0.234 1.172-0.234 1.172-0.641 0.953-0.953 0.641-1.172 0.234q-0.656 0-1.297-0.297zM3 16q0.406 0 0.703-0.297t0.297-0.703-0.297-0.703-0.703-0.297-0.703 0.297-0.297 0.703 0.297 0.703 0.703 0.297zM27 2q-0.406 0-0.703 0.297t-0.297 0.703 0.297 0.703 0.703 0.297 0.703-0.297 0.297-0.703-0.297-0.703-0.703-0.297zM11 8q0.406 0 0.703-0.297t0.297-0.703-0.297-0.703-0.703-0.297-0.703 0.297-0.297 0.703 0.297 0.703 0.703 0.297zM19 12q0.406 0 0.703-0.297t0.297-0.703-0.297-0.703-0.703-0.297-0.703 0.297-0.297 0.703 0.297 0.703 0.703 0.297z"></path>
</svg>
