<!-- Generated by IcoMoon.io -->
<svg version="1.1" xmlns="http://www.w3.org/2000/svg" width="32" height="32" viewBox="0 0 32 32">
<title>uniEB6B</title>
<path d="M27.797 20.531q0 1.656-0.594 3.172t-1.719 2.719l0.344-0.422q-0.359 0.5-0.891 0.945t-1.133 0.844-1.219 0.75-1.133 0.664q-0.828 0.5-1.617 1t-1.609 0.898-1.703 0.648-1.898 0.25q-1.656 0-3.117-0.586t-2.602-1.609-1.891-2.414-0.953-3.016q-0.031-0.172-0.047-0.359t-0.016-0.359v-22.375q0-0.531 0.375-0.906t0.906-0.375q0.219 0 0.383 0.055t0.336 0.164q1.016 0.641 2 1.297t1.984 1.313l-0.031-0.016q0.016 0 0.031 0.016 0.797 0.563 1.234 1.375t0.438 1.797v19.844q2.313-1.328 4.578-2.688t4.563-2.719q0.172-0.109 0.352-0.211t0.367-0.211q-0.938-0.391-1.93-0.656t-1.93-0.656q-0.547-0.234-0.875-0.633t-0.555-0.883-0.391-1.016-0.383-1.016q-0.063-0.141-0.195-0.461t-0.289-0.711-0.32-0.82-0.305-0.82-0.227-0.695-0.086-0.445q0-0.5 0.336-0.852t0.852-0.352q0.25 0 0.484 0.094 0.438 0.188 0.867 0.406t0.852 0.438q0.531 0.266 1.32 0.664t1.594 0.844 1.531 0.898 1.148 0.828q1.344 1.219 2.063 2.883t0.719 3.477z"></path>
</svg>
