<!-- Generated by IcoMoon.io -->
<svg version="1.1" xmlns="http://www.w3.org/2000/svg" width="32" height="32" viewBox="0 0 32 32">
<title>uniEF8D</title>
<path d="M30 30v2h-30v-2h2v-9q0-1.031 0.391-1.938t1.070-1.586 1.594-1.078 1.945-0.398h7v-5.5q0-0.141 0.117-0.242t0.281-0.156 0.336-0.078 0.266-0.023 0.266 0.023 0.336 0.078 0.281 0.156 0.117 0.242v5.5h7q1.031 0 1.938 0.398t1.586 1.078 1.078 1.586 0.398 1.938v9h2zM7 18q-0.578 0-1.094 0.203t-0.914 0.563-0.656 0.852-0.32 1.055q0.578 0.641 1.352 0.984t1.633 0.344q1.031 0 1.789-0.414t1.414-1.18q0.172-0.188 0.352-0.297t0.445-0.109 0.445 0.109 0.352 0.297q0.656 0.766 1.414 1.18t1.789 0.414 1.789-0.414 1.414-1.18q0.172-0.188 0.352-0.297t0.445-0.109 0.445 0.109 0.352 0.297q0.656 0.766 1.414 1.18t1.789 0.414q0.859 0 1.633-0.344t1.352-0.984q-0.063-0.563-0.32-1.055t-0.656-0.852-0.914-0.563-1.094-0.203h-16zM4 30h22v-6.797q-0.75 0.375-1.453 0.586t-1.547 0.211q-1.125 0-2.141-0.383t-1.859-1.133q-0.844 0.75-1.859 1.133t-2.141 0.383-2.141-0.383-1.859-1.133q-0.844 0.75-1.859 1.133t-2.141 0.383q-0.844 0-1.547-0.211t-1.453-0.586v6.797zM15 8q-0.406 0-0.703-0.297t-0.297-0.703q0-0.188 0.125-0.484t0.289-0.625 0.328-0.625 0.258-0.469q0.094 0.172 0.258 0.469t0.328 0.625 0.289 0.625 0.125 0.484q0 0.406-0.297 0.703t-0.703 0.297z"></path>
</svg>
