<!-- Generated by IcoMoon.io -->
<svg version="1.1" xmlns="http://www.w3.org/2000/svg" width="32" height="32" viewBox="0 0 32 32">
<title>uniECE4</title>
<path d="M15 0q2.063 0 3.984 0.539t3.586 1.516 3.031 2.344 2.344 3.031 1.516 3.586 0.539 3.984-0.539 3.984-1.516 3.586-2.344 3.031-3.031 2.344-3.586 1.516-3.984 0.539-3.984-0.539-3.586-1.516-3.031-2.344-2.344-3.031-1.516-3.578-0.539-3.992q0-2.063 0.539-3.984t1.516-3.586 2.344-3.031 3.031-2.344 3.578-1.516 3.992-0.539zM15 28q1.797 0 3.461-0.461t3.109-1.313 2.625-2.031 2.031-2.625 1.313-3.109 0.461-3.461-0.461-3.461-1.313-3.109-2.031-2.625-2.625-2.031-3.109-1.313-3.461-0.461-3.461 0.461-3.109 1.313-2.625 2.031-2.031 2.625-1.313 3.109-0.461 3.461 0.461 3.461 1.313 3.109 2.031 2.625 2.625 2.031 3.109 1.313 3.461 0.461zM6 14h18v2h-18v-2z"></path>
</svg>
