<!-- Generated by IcoMoon.io -->
<svg version="1.1" xmlns="http://www.w3.org/2000/svg" width="32" height="32" viewBox="0 0 32 32">
<title>uniF70A</title>
<path d="M29.328 3.906v7.828q0 2.25-0.586 4.289t-1.609 3.867-2.414 3.453-3.023 3.039-3.422 2.625-3.602 2.227q-1.813-0.953-3.602-2.164t-3.422-2.641-3.031-3.078-2.422-3.492-1.609-3.883-0.586-4.242v-7.828q1.313 0 2.492-0.086t2.297-0.336 2.211-0.695 2.234-1.164q0.656-0.406 1.297-0.711t1.297-0.508 1.359-0.305 1.484-0.102q0.797 0 1.5 0.102t1.359 0.313 1.297 0.516 1.297 0.727q1.109 0.703 2.203 1.141t2.219 0.688 2.313 0.336 2.469 0.086zM22.484 20.125l-5.453-5.453 5.484-5.5-2.359-2.344-5.484 5.484-5.5-5.484-2.344 2.344 5.484 5.5-5.484 5.484 2.344 2.359 5.5-5.484 5.453 5.453z"></path>
</svg>
