<!-- Generated by IcoMoon.io -->
<svg version="1.1" xmlns="http://www.w3.org/2000/svg" width="32" height="32" viewBox="0 0 32 32">
<title>uniE733</title>
<path d="M16 0q2.203 0 4.242 0.57t3.82 1.617 3.242 2.508 2.508 3.242 1.617 3.82 0.57 4.242-0.57 4.242-1.617 3.82-2.508 3.242-3.242 2.508-3.82 1.617-4.242 0.57-4.242-0.57-3.82-1.617-3.242-2.508-2.508-3.242-1.617-3.82-0.57-4.242 0.57-4.242 1.617-3.82 2.508-3.242 3.242-2.508 3.82-1.617 4.242-0.57zM16 30q2.563 0 4.898-0.875t4.273-2.547l-19.75-19.75q-1.672 1.938-2.547 4.273t-0.875 4.898q0 1.938 0.5 3.727t1.414 3.344 2.188 2.828 2.828 2.188 3.344 1.414 3.727 0.5zM26.578 25.172q1.672-1.938 2.547-4.273t0.875-4.898q0-1.938-0.5-3.727t-1.414-3.344-2.188-2.828-2.828-2.188-3.344-1.414-3.727-0.5q-2.563 0-4.898 0.875t-4.273 2.547z"></path>
</svg>
