<!-- Generated by IcoMoon.io -->
<svg version="1.1" xmlns="http://www.w3.org/2000/svg" width="32" height="32" viewBox="0 0 32 32">
<title>uniE8F8</title>
<path d="M20.328 17.344q-0.422 0.266-0.82 0.555t-0.758 0.648q-1.391-1.25-3.133-1.898t-3.617-0.648q-2.094 0-3.922 0.773t-3.18 2.125-2.125 3.18-0.773 3.922h-2q0-1.875 0.547-3.625t1.563-3.227 2.445-2.602 3.211-1.781q-0.859-0.547-1.555-1.289t-1.188-1.617-0.758-1.852-0.266-2.008q0-1.656 0.633-3.109t1.719-2.539 2.539-1.719 3.109-0.633 3.109 0.633 2.539 1.719 1.719 2.539 0.633 3.109q0 1.031-0.266 2.008t-0.758 1.852-1.188 1.617-1.555 1.289q1.156 0.406 2.18 1.070t1.914 1.508zM6 8q0 1.234 0.477 2.328t1.289 1.906 1.906 1.289 2.328 0.477 2.328-0.477 1.906-1.289 1.289-1.906 0.477-2.328-0.477-2.328-1.289-1.906-1.906-1.289-2.328-0.477-2.328 0.477-1.906 1.289-1.289 1.906-0.477 2.328zM25 18q1.453 0 2.727 0.555t2.219 1.5 1.5 2.219 0.555 2.727-0.555 2.727-1.5 2.219-2.219 1.5-2.727 0.555-2.727-0.555-2.219-1.5-1.5-2.219-0.555-2.727 0.555-2.727 1.5-2.219 2.219-1.5 2.727-0.555zM25 30q0.734 0 1.438-0.211t1.313-0.617l-6.922-6.922q-0.406 0.609-0.617 1.313t-0.211 1.438q0 1.031 0.398 1.938t1.078 1.586 1.586 1.078 1.938 0.398zM29.172 27.75q0.406-0.609 0.617-1.313t0.211-1.438q0-1.031-0.398-1.938t-1.078-1.586-1.586-1.078-1.938-0.398q-0.734 0-1.438 0.211t-1.313 0.617z"></path>
</svg>
