<!-- Generated by IcoMoon.io -->
<svg version="1.1" xmlns="http://www.w3.org/2000/svg" width="32" height="32" viewBox="0 0 32 32">
<title>uniF28E</title>
<path d="M6 2h-2v-2h2v2zM10 2h-2v-2h2v2zM14 2h-2v-2h2v2zM18 6h-2v-2h2v2zM22 10h-2v-2h2v2zM26 14h-2v-2h2v2zM18 2h-2v-2h2v2zM24 6h-2v-2h2v2zM24 8v-2h2v2h-2zM28 12h2v2h-2v-2zM10 6h-2v-2h2v2zM14 6h-2v-2h2v2zM18 10h-2v-2h2v2zM22 14h-2v-2h2v2zM14 10h-2v-2h2v2zM18 14h-2v-2h2v2zM22 18h-2v-2h2v2zM4 6v-2h2v2h-2zM6 8v-2h2v2h-2zM8 10v-2h2v2h-2zM10 12v-2h2v2h-2zM12 14v-2h2v2h-2zM14 16v-2h2v2h-2zM16 18v-2h2v2h-2zM18 20v-2h2v2h-2zM20 22v-2h2v2h-2zM22 24v-2h2v2h-2zM24 26v-2h2v2h-2zM26 26h2v2h2v2h-30v-30h2v2h2v2h-2v24h24v-2zM28 24h2v2h-2v-2zM28 20h2v2h-2v-2zM28 16h2v2h-2v-2zM26 22h-2v-2h2v2zM24 16h2v2h-2v-2zM24 2h-2v-2h2v2zM28 6h2v2h-2v-2zM30 0v2h-2v-2h2z"></path>
</svg>
