<!-- Generated by IcoMoon.io -->
<svg version="1.1" xmlns="http://www.w3.org/2000/svg" width="32" height="32" viewBox="0 0 32 32">
<title>uniE8DD</title>
<path d="M19.609 14.078q1.438 0 2.711 0.547t2.219 1.492 1.492 2.211 0.547 2.703-0.547 2.711-1.492 2.219-2.219 1.492-2.711 0.547h-11.609v-26h11.609q1.25 0 2.344 0.477t1.914 1.297 1.297 1.914 0.477 2.344-0.469 2.352-1.289 1.922-1.922 1.297-2.352 0.477zM16.359 5.719h-2.359v7.422h2.359q0.766 0 1.445-0.297t1.18-0.797 0.797-1.18 0.297-1.445-0.297-1.438-0.797-1.18-1.18-0.797-1.445-0.289zM17.281 24.281q0.766 0 1.445-0.289t1.18-0.797 0.797-1.18 0.297-1.438-0.289-1.445-0.797-1.188-1.188-0.797-1.445-0.289h-3.281v7.422h3.281z"></path>
</svg>
