<!-- Generated by IcoMoon.io -->
<svg version="1.1" xmlns="http://www.w3.org/2000/svg" width="32" height="32" viewBox="0 0 32 32">
<title>uniE5B3</title>
<path d="M15.313 13.234h10.688v12.641q-1.031 0.594-2.148 1t-2.281 0.656-2.352 0.359-2.375 0.109q-2.953 0-5.367-0.836t-4.125-2.438-2.641-3.953-0.93-5.383q0-3.109 1.047-5.594t2.914-4.219 4.438-2.656 5.602-0.922q1.797 0 3.57 0.25t3.477 0.859v5.313q-1.625-0.938-3.445-1.313t-3.68-0.375q-1.875 0-3.352 0.633t-2.5 1.75-1.563 2.656-0.539 3.352q0 1.766 0.453 3.25t1.367 2.57 2.297 1.695 3.242 0.609q0.813 0 1.648-0.109t1.586-0.469v-4.906h-5.031v-4.531z"></path>
</svg>
