<!-- Generated by IcoMoon.io -->
<svg version="1.1" xmlns="http://www.w3.org/2000/svg" width="32" height="32" viewBox="0 0 32 32">
<title>uniF8A4</title>
<path d="M6 0h22v32h-22q-0.828 0-1.555-0.313t-1.273-0.859-0.859-1.273-0.313-1.555v-24q0-0.828 0.313-1.555t0.859-1.273 1.273-0.859 1.555-0.313zM26 30v-4h-20q-0.422 0-0.781 0.156t-0.633 0.43-0.43 0.633-0.156 0.781 0.156 0.781 0.43 0.633 0.633 0.43 0.781 0.156h20zM26 24v-22h-20q-0.422 0-0.781 0.156t-0.633 0.43-0.43 0.633-0.156 0.781v20.531q0.938-0.531 2-0.531h20zM14 20v-10h2v10h-2zM14 8v-2h2v2h-2z"></path>
</svg>
