<!-- Generated by IcoMoon.io -->
<svg version="1.1" xmlns="http://www.w3.org/2000/svg" width="32" height="32" viewBox="0 0 32 32">
<title>uniF50B</title>
<path d="M0 0h2v2h-2v-2zM6 0h2v2h-2v-2zM12 0h2v2h-2v-2zM18 0h2v2h-2v-2zM24 0h2v2h-2v-2zM32 0v2h-2v-2h2zM0 30h2v2h-2v-2zM6 30h2v2h-2v-2zM12 30h2v2h-2v-2zM18 30h2v2h-2v-2zM24 30h2v2h-2v-2zM0 24h2v2h-2v-2zM0 18h2v2h-2v-2zM0 12h2v2h-2v-2zM0 6h2v2h-2v-2zM30 24h2v2h-2v-2zM30 18h2v2h-2v-2zM30 12h2v2h-2v-2zM30 6h2v2h-2v-2zM30 30h2v2h-2v-2z"></path>
</svg>
