<!-- Generated by IcoMoon.io -->
<svg version="1.1" xmlns="http://www.w3.org/2000/svg" width="32" height="32" viewBox="0 0 32 32">
<title>uniF50A</title>
<path d="M4 2h-4v-2h4v2zM10 2h-4v-2h4v2zM16 2h-4v-2h4v2zM22 2h-4v-2h4v2zM28 2h-4v-2h4v2zM0 4h2v4h-2v-4zM0 10h2v4h-2v-4zM0 16h2v4h-2v-4zM0 22h2v4h-2v-4zM0 28h2v4h-2v-4zM28 30h4v2h-4v-2zM22 30h4v2h-4v-2zM16 30h4v2h-4v-2zM10 30h4v2h-4v-2zM4 30h4v2h-4v-2zM30 24h2v4h-2v-4zM30 18h2v4h-2v-4zM30 12h2v4h-2v-4zM30 6h2v4h-2v-4zM32 0v4h-2v-4h2z"></path>
</svg>
