<!-- Generated by IcoMoon.io -->
<svg version="1.1" xmlns="http://www.w3.org/2000/svg" width="32" height="32" viewBox="0 0 32 32">
<title>uniE5F1</title>
<path d="M0 18v-2h2v2h-2zM16 30v-2h2v2h-2zM12 14v2h-2v-2h2zM0 22v-2h2v2h-2zM0 26v-2h2v2h-2zM8 30v-2h2v2h-2zM4 30v-2h2v2h-2zM8 14v2h-2v-2h2zM0 12h2v2h-2v-2zM22 0v2h-2v-2h2zM10 0v2h-2v-2h2zM6 0v2h-2v-2h2zM0 30v-2h2v2h-2zM26 0v2h-2v-2h2zM2 8v2h-2v-2h2zM2 0v2h-2v-2h2zM2 4v2h-2v-2h2zM4 14v2h-2v-2h2zM26 16v-2h2v2h-2zM28 14v-2h2v2h-2zM30 18h-2v-2h2v2zM28 26v-2h2v2h-2zM28 22v-2h2v2h-2zM12 30v-2h2v2h-2zM28 10v-2h2v2h-2zM28 6v-2h2v2h-2zM28 0h2v2h-2v-2zM18 0v2h-2v-2h2zM28 30v-2h2v2h-2zM12 0h2v2h-2v-2zM20 14v2h-2v-2h2zM14 2h2v26h-2v-26zM24 30v-2h2v2h-2zM24 14v2h-2v-2h2zM20 30v-2h2v2h-2z"></path>
</svg>
