<!-- Generated by IcoMoon.io -->
<svg version="1.1" xmlns="http://www.w3.org/2000/svg" width="32" height="32" viewBox="0 0 32 32">
<title>uniF291</title>
<path d="M28 5q0 0.891-0.305 1.711t-0.844 1.469-1.281 1.102-1.617 0.625q-0.156 1.578-0.828 2.969t-1.727 2.453-2.438 1.75-2.961 0.875v4.141q0.875 0.188 1.609 0.641t1.266 1.102 0.828 1.461 0.297 1.703q0 1.031-0.398 1.945t-1.078 1.594-1.586 1.070-1.938 0.391-1.945-0.391-1.594-1.070-1.070-1.594-0.391-1.945q0-0.891 0.297-1.703t0.828-1.461 1.266-1.102 1.609-0.641v-4.141q-1.578-0.188-2.961-0.875t-2.438-1.75-1.727-2.453-0.828-2.969q-0.875-0.172-1.617-0.625t-1.281-1.102-0.844-1.469-0.305-1.711q0-1.031 0.391-1.938t1.070-1.586 1.594-1.078 1.945-0.398 1.938 0.398 1.586 1.078 1.078 1.586 0.398 1.938q0 0.875-0.289 1.68t-0.813 1.453-1.25 1.109-1.586 0.648q0.156 1.313 0.773 2.43t1.547 1.938 2.117 1.281 2.5 0.461 2.5-0.461 2.117-1.281 1.539-1.938 0.781-2.43q-0.859-0.188-1.586-0.648t-1.25-1.109-0.813-1.453-0.289-1.68q0-1.031 0.391-1.938t1.070-1.586 1.594-1.078 1.945-0.398 1.938 0.398 1.586 1.078 1.078 1.586 0.398 1.938zM4 5q0 0.625 0.234 1.172t0.641 0.953 0.953 0.641 1.172 0.234 1.172-0.234 0.953-0.641 0.641-0.953 0.234-1.172-0.234-1.172-0.641-0.953-0.953-0.641-1.172-0.234-1.172 0.234-0.953 0.641-0.641 0.953-0.234 1.172zM18 27q0-0.625-0.234-1.172t-0.641-0.953-0.953-0.641-1.172-0.234-1.172 0.234-0.953 0.641-0.641 0.953-0.234 1.172 0.234 1.172 0.641 0.953 0.953 0.641 1.172 0.234 1.172-0.234 0.953-0.641 0.641-0.953 0.234-1.172zM23 8q0.625 0 1.172-0.234t0.953-0.641 0.641-0.953 0.234-1.172-0.234-1.172-0.641-0.953-0.953-0.641-1.172-0.234-1.172 0.234-0.953 0.641-0.641 0.953-0.234 1.172 0.234 1.172 0.641 0.953 0.953 0.641 1.172 0.234z"></path>
</svg>
