<!-- Generated by IcoMoon.io -->
<svg version="1.1" xmlns="http://www.w3.org/2000/svg" width="32" height="32" viewBox="0 0 32 32">
<title>uniF295</title>
<path d="M25 16q1.031 0 1.938 0.398t1.586 1.078 1.078 1.586 0.398 1.938-0.398 1.945-1.078 1.594-1.586 1.070-1.938 0.391q-0.891 0-1.703-0.305t-1.469-0.844-1.109-1.273-0.625-1.609q-1.547-0.094-3.008-0.563t-2.758-1.25-2.398-1.844-1.93-2.375v6.156q0.875 0.188 1.609 0.641t1.266 1.102 0.828 1.461 0.297 1.703q0 1.031-0.398 1.945t-1.078 1.594-1.586 1.070-1.938 0.391-1.945-0.391-1.594-1.070-1.070-1.594-0.391-1.945q0-0.891 0.297-1.703t0.828-1.461 1.266-1.102 1.609-0.641v-12.188q-0.875-0.188-1.609-0.641t-1.266-1.102-0.828-1.461-0.297-1.703q0-1.031 0.391-1.938t1.070-1.586 1.594-1.078 1.945-0.398 1.938 0.398 1.586 1.078 1.078 1.586 0.398 1.938q0 0.891-0.297 1.695t-0.82 1.453-1.258 1.102-1.594 0.641q0.156 2.016 1 3.773t2.195 3.109 3.109 2.195 3.773 1q0.188-0.859 0.641-1.594t1.102-1.258 1.453-0.82 1.695-0.297zM6 5q0 0.625 0.234 1.172t0.641 0.953 0.953 0.641 1.172 0.234 1.172-0.234 0.953-0.641 0.641-0.953 0.234-1.172-0.234-1.172-0.641-0.953-0.953-0.641-1.172-0.234-1.172 0.234-0.953 0.641-0.641 0.953-0.234 1.172zM12 27q0-0.625-0.234-1.172t-0.641-0.953-0.953-0.641-1.172-0.234-1.172 0.234-0.953 0.641-0.641 0.953-0.234 1.172 0.234 1.172 0.641 0.953 0.953 0.641 1.172 0.234 1.172-0.234 0.953-0.641 0.641-0.953 0.234-1.172zM25 24q0.625 0 1.172-0.234t0.953-0.641 0.641-0.953 0.234-1.172-0.234-1.172-0.641-0.953-0.953-0.641-1.172-0.234-1.172 0.234-0.953 0.641-0.641 0.953-0.234 1.172 0.234 1.172 0.641 0.953 0.953 0.641 1.172 0.234z"></path>
</svg>
