<!-- Generated by IcoMoon.io -->
<svg version="1.1" xmlns="http://www.w3.org/2000/svg" width="32" height="32" viewBox="0 0 32 32">
<title>uniF297</title>
<path d="M19.906 15.906q-0.172 0.891-0.617 1.641t-1.102 1.297-1.469 0.852-1.719 0.305h-6q-0.5 0-0.953 0.156t-0.828 0.438-0.656 0.68-0.422 0.867q0.844 0.203 1.555 0.664t1.219 1.102 0.797 1.438 0.289 1.656q0 1.031-0.398 1.945t-1.078 1.594-1.586 1.070-1.938 0.391-1.938-0.391-1.586-1.070-1.070-1.594-0.391-1.945q0-0.891 0.297-1.695t0.82-1.461 1.258-1.109 1.609-0.625v-12.219q-0.875-0.172-1.609-0.625t-1.258-1.109-0.82-1.461-0.297-1.695q0-1.031 0.391-1.938t1.070-1.586 1.586-1.078 1.938-0.398 1.938 0.398 1.586 1.078 1.078 1.586 0.398 1.938q0 0.891-0.297 1.703t-0.828 1.461-1.266 1.102-1.609 0.625v9.141q0.656-0.5 1.422-0.766t1.578-0.266h6q0.5 0 0.953-0.156t0.828-0.438 0.656-0.68 0.422-0.867q-0.844-0.203-1.555-0.656t-1.219-1.102-0.797-1.438-0.289-1.664q0-1.031 0.391-1.938t1.070-1.586 1.594-1.078 1.945-0.398 1.938 0.398 1.586 1.078 1.078 1.586 0.398 1.938q0 0.906-0.305 1.719t-0.852 1.469-1.297 1.109-1.641 0.609zM16 11q0 0.625 0.234 1.172t0.641 0.953 0.953 0.641 1.172 0.234 1.172-0.234 0.953-0.641 0.641-0.953 0.234-1.172-0.234-1.172-0.641-0.953-0.953-0.641-1.172-0.234-1.172 0.234-0.953 0.641-0.641 0.953-0.234 1.172zM2 5q0 0.625 0.234 1.172t0.641 0.953 0.953 0.641 1.172 0.234 1.172-0.234 0.953-0.641 0.641-0.953 0.234-1.172-0.234-1.172-0.641-0.953-0.953-0.641-1.172-0.234-1.172 0.234-0.953 0.641-0.641 0.953-0.234 1.172zM8 27q0-0.625-0.234-1.172t-0.641-0.953-0.953-0.641-1.172-0.234-1.172 0.234-0.953 0.641-0.641 0.953-0.234 1.172 0.234 1.172 0.641 0.953 0.953 0.641 1.172 0.234 1.172-0.234 0.953-0.641 0.641-0.953 0.234-1.172zM27 16q1.031 0 1.938 0.398t1.586 1.078 1.078 1.586 0.398 1.938-0.398 1.945-1.078 1.594-1.586 1.070-1.938 0.391q-0.734 0-1.438-0.211t-1.313-0.617l-6.547 6.531q-0.297 0.297-0.703 0.297t-0.703-0.297-0.297-0.703 0.297-0.703l6.531-6.547q-0.406-0.609-0.617-1.313t-0.211-1.438q0-1.031 0.391-1.938t1.070-1.586 1.594-1.078 1.945-0.398zM27 24q0.625 0 1.172-0.234t0.953-0.641 0.641-0.953 0.234-1.172-0.234-1.172-0.641-0.953-0.953-0.641-1.172-0.234-1.172 0.234-0.953 0.641-0.641 0.953-0.234 1.172 0.234 1.172 0.641 0.953 0.953 0.641 1.172 0.234z"></path>
</svg>
