<!-- Generated by IcoMoon.io -->
<svg version="1.1" xmlns="http://www.w3.org/2000/svg" width="32" height="32" viewBox="0 0 32 32">
<title>uniF293</title>
<path d="M22 15q0 1.297-0.453 2.477t-1.25 2.109-1.898 1.547-2.398 0.789v8.078h-2v-8.078q-1.297-0.172-2.398-0.789t-1.898-1.547-1.25-2.109-0.453-2.477 0.453-2.477 1.25-2.109 1.898-1.547 2.398-0.789v-8.078h2v8.078q1.297 0.172 2.398 0.789t1.898 1.547 1.25 2.109 0.453 2.477zM15 20q1.031 0 1.938-0.391t1.586-1.070 1.078-1.594 0.398-1.945-0.398-1.938-1.078-1.586-1.586-1.078-1.938-0.398-1.945 0.398-1.594 1.078-1.070 1.586-0.391 1.938 0.391 1.945 1.070 1.594 1.594 1.070 1.945 0.391z"></path>
</svg>
