<!-- Generated by IcoMoon.io -->
<svg version="1.1" xmlns="http://www.w3.org/2000/svg" width="32" height="32" viewBox="0 0 32 32">
<title>uniF294</title>
<path d="M26 22.094q0.875 0.188 1.609 0.641t1.266 1.102 0.828 1.461 0.297 1.703q0 1.031-0.398 1.945t-1.078 1.594-1.586 1.070-1.938 0.391-1.945-0.391-1.594-1.070-1.070-1.594-0.391-1.945q0-0.891 0.297-1.703t0.828-1.461 1.266-1.102 1.609-0.641v-13.094q0-0.625-0.234-1.172t-0.641-0.953-0.953-0.641-1.172-0.234h-2.594l2.547 2.547-1.406 1.406-4.969-4.953 4.969-4.953 1.406 1.406-2.547 2.547h2.594q1.031 0 1.938 0.398t1.586 1.078 1.078 1.586 0.398 1.938v13.094zM25 30q0.625 0 1.172-0.234t0.953-0.641 0.641-0.953 0.234-1.172-0.234-1.172-0.641-0.953-0.953-0.641-1.172-0.234-1.172 0.234-0.953 0.641-0.641 0.953-0.234 1.172 0.234 1.172 0.641 0.953 0.953 0.641 1.172 0.234zM12.453 22.047l4.969 4.953-4.969 4.953-1.406-1.406 2.547-2.547h-2.594q-1.031 0-1.945-0.391t-1.594-1.070-1.070-1.594-0.391-1.945v-13.094q-0.875-0.188-1.609-0.641t-1.266-1.102-0.828-1.461-0.297-1.703q0-1.031 0.391-1.938t1.070-1.586 1.594-1.078 1.945-0.398 1.938 0.398 1.586 1.078 1.078 1.586 0.398 1.938q0 0.891-0.297 1.703t-0.828 1.461-1.266 1.102-1.609 0.641v13.094q0 0.625 0.234 1.172t0.641 0.953 0.953 0.641 1.172 0.234h2.594l-2.547-2.547zM4 5q0 0.625 0.234 1.172t0.641 0.953 0.953 0.641 1.172 0.234 1.172-0.234 0.953-0.641 0.641-0.953 0.234-1.172-0.234-1.172-0.641-0.953-0.953-0.641-1.172-0.234-1.172 0.234-0.953 0.641-0.641 0.953-0.234 1.172z"></path>
</svg>
