<!-- Generated by IcoMoon.io -->
<svg version="1.1" xmlns="http://www.w3.org/2000/svg" width="32" height="32" viewBox="0 0 32 32">
<title>uniF298</title>
<path d="M14 15.922q-1.297-0.172-2.398-0.789t-1.898-1.547-1.25-2.109-0.453-2.477q0-1.453 0.547-2.727t1.5-2.227 2.227-1.5 2.727-0.547 2.727 0.547 2.227 1.5 1.5 2.227 0.547 2.727q0 1.297-0.453 2.477t-1.25 2.109-1.898 1.547-2.398 0.789v8.078h-2v-8.078zM15 4q-1.031 0-1.945 0.398t-1.594 1.078-1.070 1.586-0.391 1.938 0.391 1.945 1.070 1.594 1.594 1.070 1.945 0.391 1.938-0.391 1.586-1.070 1.078-1.594 0.398-1.945-0.398-1.938-1.078-1.586-1.586-1.078-1.938-0.398zM30 18v12h-30v-12h2v10h26v-10h2z"></path>
</svg>
