<!-- Generated by IcoMoon.io -->
<svg version="1.1" xmlns="http://www.w3.org/2000/svg" width="32" height="32" viewBox="0 0 32 32">
<title>uniF49C</title>
<path d="M22 9.25q-0.406 0-0.703-0.297t-0.297-0.703q0-0.797 0.305-1.531t0.867-1.297l1.234-1.25q0.594-0.594 0.594-1.422 0-0.406 0.297-0.703t0.703-0.297 0.703 0.297 0.297 0.703q0 0.797-0.305 1.531t-0.867 1.297l-1.234 1.25q-0.594 0.594-0.594 1.422 0 0.406-0.297 0.703t-0.703 0.297zM16 9.25q-0.406 0-0.703-0.297t-0.297-0.703q0-0.797 0.305-1.531t0.867-1.297l1.234-1.25q0.594-0.594 0.594-1.422 0-0.406 0.297-0.703t0.703-0.297 0.703 0.297 0.297 0.703q0 0.797-0.305 1.531t-0.867 1.297l-1.234 1.25q-0.594 0.594-0.594 1.422 0 0.406-0.297 0.703t-0.703 0.297zM29 12q0.625 0 1.172 0.234t0.953 0.641 0.641 0.953 0.234 1.172v6q0 0.625-0.234 1.172t-0.641 0.953-0.953 0.641-1.172 0.234h-0.891q-0.031 0.109-0.055 0.203t-0.055 0.188v0.609q0 1.031-0.398 1.945t-1.078 1.594-1.586 1.070-1.938 0.391h-6q-1.219 0-2.25-0.547t-1.719-1.453h-7.813q-1.031 0-1.945-0.391t-1.594-1.070-1.070-1.594-0.391-1.945v-1h4q0-1.234 0.477-2.328t1.289-1.914 1.906-1.289 2.328-0.469q0.469 0 0.914 0.086t0.867 0.211v-6.297h16v2h1zM10.219 18q-0.828 0-1.555 0.313t-1.273 0.859-0.859 1.273-0.313 1.555h5.781v-3.563q-0.406-0.203-0.852-0.32t-0.93-0.117zM5.219 26h6.891q-0.109-0.453-0.109-1v-1h-9.609q0.156 0.438 0.438 0.805t0.648 0.633 0.813 0.414 0.93 0.148zM12.453 27.047q0 0.016 0.008 0.023t0.008 0.023q0-0.016-0.008-0.023t-0.008-0.023zM26 25v-13h-12v13q0 0.625 0.234 1.172t0.641 0.953 0.953 0.641 1.172 0.234h6q0.625 0 1.172-0.234t0.953-0.641 0.641-0.953 0.234-1.172zM30 21v-6q0-0.406-0.297-0.703t-0.703-0.297h-1v8h1q0.406 0 0.703-0.297t0.297-0.703z"></path>
</svg>
