<!-- Generated by IcoMoon.io -->
<svg version="1.1" xmlns="http://www.w3.org/2000/svg" width="32" height="32" viewBox="0 0 32 32">
<title>uniF49D</title>
<path d="M25.969 14q-0.063 1.125-0.234 2.188t-0.445 2.094-0.625 2.055-0.758 2.055q-0.141 0.359-0.227 0.805t-0.133 0.805h4.453v1q0 0.875-0.289 1.672t-0.813 1.445-1.242 1.109-1.563 0.648l0.344 2.125h-10.719l0.25-2h-8.969q-1.031 0-1.945-0.391t-1.594-1.070-1.070-1.594-0.391-1.945v-1h4q0-1.234 0.469-2.328t1.289-1.914 1.906-1.289 2.336-0.469q0.781 0 1.516 0.203t1.406 0.594q-0.422-1.516-0.672-3.055t-0.25-3.117q0-1.219 0.195-2.328t0.555-2.266h2.234l-1.594-6.313 1.953-0.484 1.703 6.797h2.953q0-1.234 0.469-2.336t1.281-1.922 1.906-1.297 2.344-0.477q1.234 0 2.328 0.469t1.914 1.289 1.289 1.914 0.469 2.328q0 1.25-0.477 2.344t-1.297 1.906-1.914 1.281-2.344 0.469zM26 4q-0.828 0-1.563 0.32t-1.273 0.867-0.852 1.281-0.313 1.563h3.25q0.313 1 0.484 1.961t0.219 2.008q0.844 0 1.578-0.313t1.289-0.859 0.867-1.273 0.313-1.555-0.313-1.555-0.859-1.273-1.273-0.859-1.555-0.313zM10 20q-0.828 0-1.555 0.313t-1.273 0.859-0.859 1.273-0.313 1.555h8q0-0.828-0.313-1.555t-0.859-1.273-1.273-0.859-1.555-0.313zM14.469 26h-12.297q0.156 0.453 0.438 0.82t0.656 0.633 0.82 0.406 0.914 0.141h9.234q0.063-0.5 0.148-1t0.086-1zM23.484 26q0.031 0.484 0.117 0.945t0.148 0.93q0.719-0.188 1.273-0.68t0.805-1.195h-2.344zM24 12.719q0-0.688-0.055-1.359t-0.211-1.328h-9.469q-0.141 0.656-0.203 1.305t-0.063 1.305q0 0.906 0.125 1.984t0.352 2.172 0.539 2.133 0.703 1.883q0.453 0.984 0.625 2.008t0.172 2.102q0 1.281-0.18 2.547t-0.352 2.531h6.094q-0.188-1.172-0.414-2.336t-0.227-2.367q0-0.422 0.031-0.898t0.109-0.969 0.195-0.961 0.289-0.859q0.469-1.094 0.828-2.172t0.609-2.164 0.375-2.219 0.125-2.336z"></path>
</svg>
