<!-- Generated by IcoMoon.io -->
<svg version="1.1" xmlns="http://www.w3.org/2000/svg" width="32" height="32" viewBox="0 0 32 32">
<title>uniECFF</title>
<path d="M28.172 2q0.797 0 1.492 0.305t1.211 0.82 0.82 1.211 0.305 1.492q0 0.766-0.289 1.461t-0.836 1.242q-4.734 4.734-9.461 9.469t-9.461 9.469q-0.094 0.953-0.516 1.781t-1.086 1.438-1.531 0.961-1.82 0.352h-4q-0.625 0-1.172-0.234t-0.953-0.641-0.641-0.953-0.234-1.172v-1h1q0.406 0 0.703-0.297t0.297-0.703q0-0.953 0.352-1.82t0.961-1.531 1.438-1.086 1.781-0.516q4.734-4.734 9.469-9.461t9.469-9.461q0.547-0.547 1.242-0.836t1.461-0.289zM9 22.422q0.859 0.375 1.531 1.047t1.047 1.531l1.813-1.813q-0.953-1.625-2.578-2.578zM7 30q0.625 0 1.172-0.234t0.953-0.641 0.641-0.953 0.234-1.172-0.234-1.172-0.641-0.953-0.953-0.641-1.172-0.234-1.172 0.234-0.953 0.641-0.641 0.953-0.234 1.172q0 0.859-0.461 1.594t-1.242 1.109q0.281 0.297 0.703 0.297h4zM29.469 7.125q0.531-0.531 0.531-1.297 0-0.375-0.141-0.711t-0.391-0.586-0.586-0.391-0.711-0.141q-0.766 0-1.297 0.531l-14.609 14.625q1.547 1.031 2.578 2.578z"></path>
</svg>
