<!-- Generated by IcoMoon.io -->
<svg version="1.1" xmlns="http://www.w3.org/2000/svg" width="32" height="32" viewBox="0 0 32 32">
<title>uniF1B6</title>
<path d="M26.406 15l-13.406 13.406-11.406-11.406 10.406-10.422v-3.578q0-0.625 0.234-1.172t0.641-0.953 0.953-0.641 1.172-0.234 1.172 0.234 0.953 0.641 0.641 0.953 0.234 1.172v10h-2v-10q0-0.406-0.297-0.703t-0.703-0.297-0.703 0.297-0.297 0.703v4.422l-8.578 8.578h17.156l1.016-1-3.297-3.297 1.406-1.406zM13 25.594l7.578-7.594h-15.156zM30.922 24.844q0.313 0.547 0.469 1.156t0.156 1.25q0 0.953-0.344 1.813t-0.953 1.516-1.445 1.039-1.805 0.383-1.813-0.375-1.469-1.008-0.992-1.484-0.367-1.805q0-1.234 0.625-2.313l4.016-7.031zM27 30q0.563 0 1.039-0.227t0.813-0.609 0.523-0.883 0.188-1.047q0-0.766-0.375-1.406l-2.188-3.813-2.281 4q-0.359 0.625-0.359 1.313 0 0.547 0.211 1.031t0.57 0.844 0.836 0.578 1.023 0.219z"></path>
</svg>
