<!-- Generated by IcoMoon.io -->
<svg version="1.1" xmlns="http://www.w3.org/2000/svg" width="32" height="32" viewBox="0 0 32 32">
<title>uniF0CF</title>
<path d="M16 5q1.516 0 2.922 0.391t2.633 1.109 2.227 1.719 1.719 2.227 1.109 2.633 0.391 2.922-0.391 2.922-1.109 2.633-1.719 2.227-2.227 1.719-2.633 1.109-2.922 0.391-2.922-0.391-2.633-1.109-2.227-1.719-1.719-2.227-1.109-2.633-0.391-2.922 0.391-2.922 1.109-2.633 1.719-2.227 2.227-1.719 2.633-1.109 2.922-0.391zM16 25q1.859 0 3.5-0.711t2.859-1.93 1.93-2.859 0.711-3.5-0.711-3.5-1.93-2.859-2.859-1.93-3.5-0.711-3.5 0.711-2.859 1.93-1.93 2.859-0.711 3.5 0.711 3.5 1.93 2.859 2.859 1.93 3.5 0.711zM16 16h4v2h-6v-8h2v6zM25.906 6.094q-2-1.984-4.547-3.039t-5.359-1.055-5.359 1.055-4.547 3.039l-1.406-1.406q1.125-1.125 2.438-2t2.758-1.477 2.984-0.906 3.133-0.305 3.133 0.305 2.984 0.906 2.758 1.477 2.438 2z"></path>
</svg>
