<!-- Generated by IcoMoon.io -->
<svg version="1.1" xmlns="http://www.w3.org/2000/svg" width="32" height="32" viewBox="0 0 32 32">
<title>uniF0D0</title>
<path d="M16 27q-1.516 0-2.922-0.391t-2.633-1.109-2.227-1.719-1.719-2.227-1.109-2.633-0.391-2.922 0.391-2.922 1.109-2.633 1.719-2.227 2.227-1.719 2.633-1.109 2.922-0.391 2.922 0.391 2.633 1.109 2.227 1.719 1.719 2.227 1.109 2.633 0.391 2.922-0.391 2.922-1.109 2.633-1.719 2.227-2.227 1.719-2.633 1.109-2.922 0.391zM16 7q-1.859 0-3.5 0.711t-2.859 1.93-1.93 2.859-0.711 3.5 0.711 3.5 1.93 2.859 2.859 1.93 3.5 0.711 3.5-0.711 2.859-1.93 1.93-2.859 0.711-3.5-0.711-3.5-1.93-2.859-2.859-1.93-3.5-0.711zM20 18h-6v-8h2v6h4v2zM27.313 27.313q-1.125 1.125-2.438 2t-2.758 1.477-2.984 0.906-3.133 0.305-3.133-0.305-2.984-0.906-2.758-1.477-2.438-2l1.406-1.406q2 1.984 4.547 3.039t5.359 1.055 5.359-1.055 4.547-3.039z"></path>
</svg>
