<!-- Generated by IcoMoon.io -->
<svg version="1.1" xmlns="http://www.w3.org/2000/svg" width="32" height="32" viewBox="0 0 32 32">
<title>uniE400</title>
<path d="M16 30q0.219 0 0.453-0.031t0.453-0.063q0.297 0.5 0.633 0.945t0.742 0.852q-0.563 0.125-1.133 0.211t-1.148 0.086q-1.641 0-3.148-0.516t-2.758-1.438-2.18-2.219-1.414-2.859q-0.484 1-0.484 2.063 0 0.938 0.344 1.773t1 1.492l-1.406 1.406q-0.938-0.938-1.445-2.148t-0.508-2.539 0.508-2.547 1.445-2.156l0.094 0.094q-0.016-0.109-0.031-0.203t-0.016-0.203v-4q0-0.469 0.055-0.945t0.148-0.93q-0.484 0.141-0.891 0.414t-0.695 0.656-0.453 0.844-0.164 0.961v3h-2v-3q0-1.016 0.383-1.914t1.039-1.57 1.547-1.070 1.906-0.43q0.484-1.094 1.25-2.109-0.891-0.156-1.648-0.602t-1.305-1.102-0.859-1.477-0.313-1.727v-3h2v3q0 0.625 0.234 1.172t0.641 0.953 0.953 0.641 1.172 0.234h1v0.047q0.734-0.547 1.5-0.922-0.234-0.5-0.367-1.039t-0.133-1.086q0-1.094 0.484-2.109l-2.188-2.188 1.406-1.406 1.984 1.984q0.703-0.609 1.539-0.945t1.773-0.336 1.773 0.336 1.539 0.945l1.984-1.984 1.406 1.406-2.188 2.188q0.484 1.016 0.484 2.109 0 0.547-0.133 1.086t-0.367 1.039q0.406 0.203 0.773 0.43t0.727 0.492v-0.047h1q0.625 0 1.172-0.234t0.953-0.641 0.641-0.953 0.234-1.172v-3h2v3q0 0.906-0.313 1.727t-0.859 1.477-1.305 1.102-1.648 0.602q0.766 1.016 1.25 2.109 0.656 0.016 1.281 0.203t1.172 0.531 1 0.813 0.781 1.047q-1.016-0.531-2.117-0.82t-2.242-0.289q-0.359 0-0.695 0.047t-0.68 0.094q-0.391-1.234-1.141-2.266t-1.758-1.781-2.219-1.172-2.508-0.422q-1.641 0-3.094 0.641t-2.539 1.734-1.727 2.547-0.641 3.078v4q0 1.656 0.633 3.109t1.719 2.539 2.539 1.719 3.109 0.633zM16 4q-0.625 0-1.172 0.234t-0.953 0.641-0.641 0.953-0.234 1.172q0 0.781 0.375 1.406 0.656-0.172 1.305-0.273t1.32-0.102 1.32 0.102 1.305 0.273q0.375-0.625 0.375-1.406 0-0.625-0.234-1.172t-0.641-0.953-0.953-0.641-1.172-0.234zM32 25q0 1.453-0.547 2.727t-1.5 2.227-2.227 1.5-2.727 0.547-2.727-0.547-2.227-1.5-1.5-2.227-0.547-2.727 0.547-2.727 1.5-2.227 2.227-1.5 2.727-0.547 2.727 0.547 2.227 1.5 1.5 2.227 0.547 2.727zM20 25q0 1.031 0.391 1.945t1.070 1.594 1.594 1.070 1.945 0.391q0.734 0 1.438-0.211t1.313-0.617l-6.922-6.922q-0.406 0.609-0.617 1.313t-0.211 1.438zM29.172 27.75q0.406-0.609 0.617-1.313t0.211-1.438q0-1.031-0.398-1.938t-1.078-1.586-1.586-1.078-1.938-0.398q-0.734 0-1.438 0.211t-1.313 0.617z"></path>
</svg>
