<!-- Generated by IcoMoon.io -->
<svg version="1.1" xmlns="http://www.w3.org/2000/svg" width="32" height="32" viewBox="0 0 32 32">
<title>uniE3FF</title>
<path d="M16 10q-1.641 0-3.094 0.641t-2.539 1.734-1.727 2.547-0.641 3.078v4q0 1.656 0.633 3.109t1.719 2.539 2.539 1.719 3.109 0.633v2q-1.641 0-3.148-0.516t-2.758-1.438-2.18-2.219-1.414-2.859q-0.484 1-0.484 2.063 0 0.938 0.344 1.773t1 1.492l-1.406 1.406q-0.938-0.938-1.445-2.148t-0.508-2.539 0.508-2.547 1.445-2.156l0.094 0.094q-0.016-0.109-0.031-0.203t-0.016-0.203v-4q0-0.469 0.055-0.945t0.148-0.93q-0.484 0.141-0.891 0.414t-0.695 0.656-0.453 0.844-0.164 0.961v3h-2v-3q0-1.016 0.383-1.914t1.039-1.57 1.547-1.070 1.906-0.43q0.484-1.094 1.25-2.109-0.891-0.156-1.648-0.602t-1.305-1.102-0.859-1.477-0.313-1.727v-3h2v3q0 0.625 0.234 1.172t0.641 0.953 0.953 0.641 1.172 0.234h1v0.047q0.734-0.547 1.5-0.922-0.234-0.5-0.367-1.039t-0.133-1.086q0-1.094 0.484-2.109l-2.188-2.188 1.406-1.406 1.984 1.984q0.703-0.609 1.539-0.945t1.773-0.336 1.773 0.336 1.539 0.945l1.984-1.984 1.406 1.406-2.188 2.188q0.484 1.016 0.484 2.109 0 0.547-0.133 1.086t-0.367 1.039q0.406 0.203 0.773 0.43t0.727 0.492v-0.047h1q0.625 0 1.172-0.234t0.953-0.641 0.641-0.953 0.234-1.172v-3h2v3q0 0.906-0.313 1.727t-0.859 1.477-1.305 1.102-1.648 0.602q0.766 1.016 1.25 2.109 1.156 0.031 2.148 0.555t1.695 1.43h-5.25q-0.344-1.297-1.086-2.398t-1.766-1.898-2.273-1.25-2.594-0.453zM16 4q-0.625 0-1.172 0.234t-0.953 0.641-0.641 0.953-0.234 1.172q0 0.781 0.375 1.406 0.656-0.172 1.305-0.273t1.32-0.102 1.32 0.102 1.305 0.273q0.375-0.625 0.375-1.406 0-0.625-0.234-1.172t-0.641-0.953-0.953-0.641-1.172-0.234zM30 18h2v6h-6v-2h2.969q-0.703-0.938-1.75-1.469t-2.219-0.531q-0.922 0-1.742 0.313t-1.477 0.867-1.094 1.32-0.594 1.672l-1.984-0.344q0.219-1.266 0.844-2.328t1.539-1.844 2.070-1.219 2.438-0.438q1.422 0 2.719 0.555t2.281 1.586v-2.141zM25 30q0.906 0 1.734-0.313t1.484-0.867 1.094-1.32 0.594-1.672l1.984 0.344q-0.219 1.266-0.844 2.328t-1.539 1.844-2.070 1.219-2.438 0.438q-1.422 0-2.719-0.555t-2.281-1.586v2.141h-2v-6h6v2h-2.969q0.703 0.938 1.75 1.469t2.219 0.531z"></path>
</svg>
