<!-- Generated by IcoMoon.io -->
<svg version="1.1" xmlns="http://www.w3.org/2000/svg" width="32" height="32" viewBox="0 0 32 32">
<title>uniF335</title>
<path d="M11 7q0-1.125 0.469-2.109l-2.172-2.188 1.406-1.406 1.969 1.969q0.703-0.609 1.547-0.938t1.781-0.328 1.781 0.328 1.547 0.938l1.969-1.969 1.406 1.406-2.172 2.188q0.469 0.984 0.469 2.109 0 0.203-0.023 0.398t-0.055 0.383q-1.172-0.5-2.414-0.766t-2.508-0.266-2.508 0.266-2.414 0.766q-0.031-0.188-0.055-0.383t-0.023-0.398zM25 14q1.031 0 1.938 0.398t1.586 1.078 1.078 1.586 0.398 1.938v3h-2v-3q0-0.531-0.18-1.023t-0.508-0.891-0.773-0.672-0.977-0.367q0.297 0.969 0.375 1.961t0.078 1.992q0 0.563-0.008 1.125t-0.008 1.125l0.047 0.063q0.953 1.031 1.453 2.156t0.5 2.547q0 1.328-0.508 2.539t-1.445 2.148l-1.406-1.406q0.656-0.656 1.008-1.516t0.352-1.781q0-1.047-0.453-2-0.5 1.563-1.438 2.852t-2.188 2.211-2.766 1.43-3.156 0.508-3.156-0.508-2.766-1.43-2.195-2.211-1.43-2.852q-0.453 0.953-0.453 2 0 0.922 0.352 1.781t1.008 1.516l-1.406 1.406q-0.938-0.938-1.445-2.148t-0.508-2.539q0-1.422 0.5-2.547t1.453-2.156l0.047-0.063q0-0.563-0.008-1.125t-0.008-1.125q0-1 0.078-1.992t0.375-1.961q-0.531 0.094-0.977 0.367t-0.773 0.672-0.508 0.891-0.18 1.023v3h-2v-3q0-1.031 0.391-1.938t1.070-1.586 1.594-1.078 1.945-0.398h0.344q0.625-1.078 1.516-2-1.016-0.031-1.898-0.438t-1.539-1.078-1.039-1.57-0.383-1.914v-3h2v3q0 0.625 0.234 1.172t0.641 0.953 0.953 0.641 1.172 0.234h2.641q2.078-1 4.359-1t4.359 1h2.641q0.625 0 1.172-0.234t0.953-0.641 0.641-0.953 0.234-1.172v-3h2v3q0 1.016-0.383 1.914t-1.039 1.57-1.539 1.078-1.898 0.438q0.891 0.922 1.516 2h0.344z"></path>
</svg>
