<!-- Generated by IcoMoon.io -->
<svg version="1.1" xmlns="http://www.w3.org/2000/svg" width="32" height="32" viewBox="0 0 32 32">
<title>uniE357</title>
<path d="M6 22q0 1.406 0.469 2.688t1.305 2.32 1.992 1.773 2.531 1.031q-0.031 0.047-0.172 0.336t-0.305 0.617l-0.43 0.859q-1.219-0.344-2.313-0.969t-1.984-1.484-1.555-1.922-1.039-2.281q-0.484 1-0.484 2.063 0 0.938 0.344 1.773t1 1.492l-1.406 1.406q-0.938-0.938-1.445-2.148t-0.508-2.539 0.508-2.547 1.445-2.156l0.094 0.094q-0.016-0.109-0.031-0.203t-0.016-0.203v-4q0-0.469 0.055-0.945t0.148-0.93q-0.484 0.141-0.891 0.414t-0.695 0.656-0.453 0.844-0.164 0.961v3h-2v-3q0-1.016 0.383-1.914t1.039-1.57 1.547-1.070 1.906-0.43q0.484-1.094 1.25-2.109-0.891-0.156-1.648-0.602t-1.305-1.102-0.859-1.477-0.313-1.727v-3h2v3q0 0.625 0.234 1.172t0.641 0.953 0.953 0.641 1.172 0.234h1v0.047q0.734-0.547 1.5-0.922-0.234-0.5-0.367-1.039t-0.133-1.086q0-1.094 0.484-2.109l-2.188-2.188 1.406-1.406 1.984 1.984q0.703-0.609 1.539-0.945t1.773-0.336 1.773 0.336 1.539 0.945l1.984-1.984 1.406 1.406-2.188 2.188q0.484 1.016 0.484 2.109 0 0.547-0.133 1.086t-0.367 1.039q0.406 0.203 0.773 0.43t0.727 0.492v-0.047h1q0.625 0 1.172-0.234t0.953-0.641 0.641-0.953 0.234-1.172v-3h2v3q0 1.234-0.57 2.305t-1.586 1.773q-0.406-0.188-0.859-0.188-0.563 0-0.945 0.227t-0.648 0.586-0.469 0.805-0.406 0.883q-0.563-0.766-1.289-1.391t-1.57-1.070-1.773-0.688-1.883-0.242q-1.641 0-3.094 0.641t-2.539 1.734-1.727 2.547-0.641 3.078v4zM14 4q-0.625 0-1.172 0.234t-0.953 0.641-0.641 0.953-0.234 1.172q0 0.781 0.375 1.406 0.656-0.172 1.305-0.273t1.32-0.102 1.32 0.102 1.305 0.273q0.375-0.625 0.375-1.406 0-0.625-0.234-1.172t-0.641-0.953-0.953-0.641-1.172-0.234zM22 22h2v5h-2v-5zM22 30v-2h2v2h-2zM23 14l9 18h-18zM23 17.906l-6.172 12.344h12.344z"></path>
</svg>
