<!-- Generated by IcoMoon.io -->
<svg version="1.1" xmlns="http://www.w3.org/2000/svg" width="32" height="32" viewBox="0 0 32 32">
<title>uniF319</title>
<path d="M29.766 22.156l2.234 2.453v3.391h-2v-2.609l-1.578-1.75q-0.563 0.313-1.203 0.344l-1.219 1.391v2.625h-2v-3.375l1.125-1.281q-0.078-0.047-0.133-0.102l-0.117-0.117-3.875-3.891-3 3.016v7.75h2v2h-10v-2h2v-9q0-0.594 0.227-1.148t0.648-0.977l6-6q0.422-0.422 0.977-0.648t1.148-0.227 1.148 0.227 0.977 0.648l6 6q0.422 0.422 0.648 0.977t0.227 1.148q0 0.625-0.234 1.156zM16.297 18.297q0.953 0.453 1.406 1.406l4-4q0.297-0.297 0.297-0.703t-0.297-0.703-0.703-0.297-0.703 0.297zM14 30h2v-9q0-0.406-0.297-0.703t-0.703-0.297-0.703 0.297-0.297 0.703v9zM27 22q0.406 0 0.703-0.297t0.297-0.703-0.297-0.703l-4-4q-0.219 0.484-0.57 0.82t-0.727 0.711l3.891 3.875q0.297 0.297 0.703 0.297zM10 22v2h-8v-22h18v8h-2v-6h-14v18h6zM12 8v6h-2v-6h2zM10 18v-2h2v2h-2z"></path>
</svg>
