<!-- Generated by IcoMoon.io -->
<svg version="1.1" xmlns="http://www.w3.org/2000/svg" width="32" height="32" viewBox="0 0 32 32">
<title>uniF6E9</title>
<path d="M14 30h2v2h-16v-2h2v-13q0-1.188 0.438-2.242t1.195-1.859 1.781-1.305 2.211-0.578l9.5-9.797q0.547-0.563 1.281-0.891t1.531-0.328q0.563 0 1.125 0.156t1.063 0.453 0.898 0.719 0.633 0.953l6 13.406q0.266 0.578 0.266 1.297 0 0.625-0.227 1.172t-0.625 0.961-0.945 0.648-1.172 0.234q-0.891 0-1.633-0.484t-1.102-1.297l-3.922-8.781-6.375 6.578q0.031 0.25 0.055 0.492t0.023 0.492v13zM21.781 7.906l3.094 6.875 1.828-0.781-3.438-7.703q-0.297 0.453-0.711 0.844t-0.773 0.766zM27.938 16.984q0-0.313-0.141-0.602t-0.266-0.555l-1.844 0.781q0.109 0.234 0.203 0.477t0.234 0.445 0.336 0.336 0.508 0.133q0.422 0 0.695-0.297t0.273-0.719zM10.063 11.359q0.969 0.359 1.766 1.016t1.328 1.547l8.281-8.531q0.281-0.297 0.422-0.656t0.141-0.766-0.156-0.766-0.422-0.625-0.625-0.422-0.766-0.156q-0.875 0-1.469 0.609zM4 30h8v-13q0-0.828-0.313-1.555t-0.859-1.273-1.273-0.859-1.555-0.313-1.555 0.313-1.273 0.859-0.859 1.273-0.313 1.555v13zM8 16q0.422 0 0.781 0.156t0.633 0.43 0.43 0.633 0.156 0.781-0.156 0.781-0.43 0.633-0.633 0.43-0.781 0.156-0.781-0.156-0.633-0.43-0.43-0.633-0.156-0.781 0.156-0.781 0.43-0.633 0.633-0.43 0.781-0.156zM8 18v0zM22 28v-2h10v2h-10zM22 22h10v2h-10v-2zM18 24v-2h2v2h-2zM22 32v-2h10v2h-10zM18 32v-2h2v2h-2zM18 28v-2h2v2h-2z"></path>
</svg>
