<!-- Generated by IcoMoon.io -->
<svg version="1.1" xmlns="http://www.w3.org/2000/svg" width="32" height="32" viewBox="0 0 32 32">
<title>uniE664</title>
<path d="M24 16q0 1.656-0.625 3.117t-1.711 2.547-2.547 1.711-3.117 0.625-3.117-0.625-2.547-1.711-1.711-2.547-0.625-3.117 0.625-3.117 1.711-2.547 2.547-1.711 3.117-0.625 3.117 0.625 2.547 1.711 1.711 2.547 0.625 3.117zM16 22q1.234 0 2.328-0.469t1.914-1.289 1.289-1.906 0.469-2.336q0-1.234-0.469-2.328t-1.289-1.914-1.914-1.289-2.328-0.469q-1.25 0-2.336 0.469t-1.906 1.289-1.289 1.914-0.469 2.328q0 1.25 0.469 2.336t1.289 1.906 1.906 1.289 2.336 0.469zM16 14q0.422 0 0.781 0.156t0.633 0.43 0.43 0.633 0.156 0.781-0.156 0.781-0.43 0.633-0.633 0.43-0.781 0.156-0.781-0.156-0.633-0.43-0.43-0.633-0.156-0.781 0.156-0.781 0.43-0.633 0.633-0.43 0.781-0.156zM4 16q0 1.656 0.43 3.188t1.211 2.867 1.875 2.43 2.43 1.875 2.867 1.211 3.188 0.43q2.078 0 4-0.703v2.109q-1.969 0.594-4 0.594-1.938 0-3.719-0.5t-3.336-1.414-2.836-2.195-2.195-2.836-1.414-3.344-0.5-3.711 0.5-3.711 1.414-3.344 2.195-2.836 2.836-2.195 3.344-1.414 3.711-0.5 3.711 0.5 3.344 1.414 2.836 2.195 2.195 2.836 1.414 3.344 0.5 3.711q0 2.031-0.594 4h-2.109q0.703-1.922 0.703-4 0-1.656-0.43-3.188t-1.211-2.867-1.875-2.43-2.43-1.875-2.867-1.211-3.188-0.43-3.188 0.43-2.867 1.211-2.43 1.875-1.875 2.43-1.211 2.867-0.43 3.188zM32 26v2h-4v4h-2v-4h-4v-2h4v-4h2v4h4z"></path>
</svg>
