<!-- Generated by IcoMoon.io -->
<svg version="1.1" xmlns="http://www.w3.org/2000/svg" width="32" height="32" viewBox="0 0 32 32">
<title>uniF5F0</title>
<path d="M16 2q1.938 0 3.727 0.5t3.344 1.414 2.828 2.188 2.188 2.828 1.414 3.344 0.5 3.727-0.5 3.727-1.414 3.344-2.188 2.828-2.828 2.188-3.344 1.414-3.727 0.5-3.727-0.5-3.344-1.414-2.828-2.188-2.188-2.828-1.414-3.344-0.5-3.727 0.5-3.727 1.414-3.344 2.188-2.828 2.828-2.188 3.344-1.414 3.727-0.5zM16 28q1.656 0 3.188-0.43t2.867-1.211 2.43-1.875 1.875-2.43 1.211-2.867 0.43-3.188-0.43-3.188-1.211-2.867-1.875-2.43-2.43-1.875-2.867-1.211-3.188-0.43-3.188 0.43-2.867 1.211-2.43 1.875-1.875 2.43-1.211 2.867-0.43 3.188 0.43 3.188 1.211 2.867 1.875 2.43 2.43 1.875 2.867 1.211 3.188 0.43zM16 8q1.656 0 3.117 0.625t2.547 1.711 1.711 2.547 0.625 3.117-0.625 3.117-1.711 2.547-2.547 1.711-3.117 0.625-3.117-0.625-2.547-1.711-1.711-2.547-0.625-3.117 0.625-3.117 1.711-2.547 2.547-1.711 3.117-0.625zM16 22q1.234 0 2.328-0.469t1.914-1.289 1.289-1.906 0.469-2.336q0-1.234-0.469-2.328t-1.289-1.914-1.914-1.289-2.328-0.469q-1.25 0-2.336 0.469t-1.906 1.289-1.289 1.914-0.469 2.328q0 1.25 0.469 2.336t1.289 1.906 1.906 1.289 2.336 0.469zM16 14q0.422 0 0.781 0.156t0.633 0.43 0.43 0.633 0.156 0.781-0.156 0.781-0.43 0.633-0.633 0.43-0.781 0.156-0.781-0.156-0.633-0.43-0.43-0.633-0.156-0.781 0.156-0.781 0.43-0.633 0.633-0.43 0.781-0.156z"></path>
</svg>
