<!-- Generated by IcoMoon.io -->
<svg version="1.1" xmlns="http://www.w3.org/2000/svg" width="32" height="32" viewBox="0 0 32 32">
<title>uniF6C1</title>
<path d="M28.422 27l3.531 3.547-1.406 1.406-3.547-3.531-3.547 3.547-1.406-1.422 3.547-3.547-3.547-3.547 1.406-1.406 3.547 3.547 3.547-3.547 1.406 1.422zM16 28q2.047 0 4-0.703v2.109q-0.938 0.344-1.969 0.469t-2.031 0.125q-1.922 0-3.703-0.5t-3.344-1.422-2.836-2.195-2.195-2.836-1.422-3.344-0.5-3.703 0.5-3.703 1.422-3.344 2.195-2.836 2.836-2.195 3.344-1.422 3.703-0.5 3.703 0.5 3.344 1.422 2.836 2.195 2.195 2.836 1.422 3.344 0.5 3.703q0 1-0.125 2.031t-0.469 1.969h-2.125q0.375-0.969 0.547-1.969t0.172-2.031q0-1.641-0.43-3.172t-1.211-2.867-1.883-2.43-2.438-1.883-2.867-1.219-3.172-0.43q-1.656 0-3.18 0.43t-2.859 1.211-2.43 1.883-1.883 2.438-1.219 2.867-0.43 3.172q0 1.656 0.43 3.18t1.219 2.859 1.883 2.43 2.43 1.883 2.867 1.219 3.172 0.43zM24 16q0 1.656-0.633 3.109t-1.719 2.539-2.539 1.719-3.109 0.633-3.109-0.633-2.539-1.719-1.719-2.539-0.633-3.109 0.633-3.109 1.719-2.539 2.539-1.719 3.109-0.633 3.109 0.633 2.539 1.719 1.719 2.539 0.633 3.109zM22 16q0-1.234-0.477-2.328t-1.289-1.914-1.906-1.289-2.328-0.469q-1.25 0-2.336 0.469t-1.906 1.289-1.289 1.914-0.469 2.328q0 1.25 0.469 2.336t1.289 1.906 1.906 1.289 2.336 0.469q1.234 0 2.328-0.469t1.914-1.289 1.289-1.906 0.469-2.336zM18 16q0 0.422-0.156 0.781t-0.43 0.633-0.633 0.43-0.781 0.156-0.781-0.156-0.633-0.43-0.43-0.633-0.156-0.781 0.156-0.781 0.43-0.633 0.633-0.43 0.781-0.156 0.781 0.156 0.633 0.43 0.43 0.633 0.156 0.781z"></path>
</svg>
