<!-- Generated by IcoMoon.io -->
<svg version="1.1" xmlns="http://www.w3.org/2000/svg" width="32" height="32" viewBox="0 0 32 32">
<title>uniF272</title>
<path d="M16 10q-1.25 0-2.336 0.469t-1.906 1.289-1.289 1.914-0.469 2.328q0 1.25 0.469 2.336t1.289 1.906 1.906 1.289 2.336 0.469q1.234 0 2.328-0.469t1.914-1.289 1.289-1.906 0.469-2.336q0-1-0.344-2h2.094q0.125 0.5 0.188 1t0.063 1q0 1.656-0.633 3.109t-1.719 2.539-2.539 1.719-3.109 0.633-3.109-0.633-2.539-1.719-1.711-2.539-0.625-3.109 0.625-3.109 1.711-2.539 2.539-1.719 3.109-0.633q0.5 0 1 0.063t1 0.188v2.094q-1-0.344-2-0.344zM29.531 12.422q0.469 1.766 0.469 3.578 0 1.922-0.5 3.711t-1.414 3.344-2.195 2.836-2.836 2.195-3.344 1.414-3.711 0.5-3.711-0.5-3.344-1.414-2.836-2.195-2.195-2.836-1.414-3.336-0.5-3.719q0-1.922 0.5-3.711t1.414-3.344 2.195-2.836 2.836-2.195 3.336-1.414 3.719-0.5q1.813 0 3.578 0.469l-1.578 1.578v0.125q-0.5-0.078-1-0.125t-1-0.047q-1.656 0-3.188 0.43t-2.867 1.211-2.43 1.875-1.875 2.43-1.211 2.867-0.43 3.188 0.43 3.188 1.211 2.867 1.875 2.43 2.43 1.875 2.867 1.211 3.188 0.43 3.188-0.43 2.867-1.211 2.43-1.875 1.875-2.43 1.211-2.867 0.43-3.188q0-0.5-0.047-1t-0.125-1h0.125zM20 10.578v-4.484l6-6v5.906h5.906l-6 6h-4.484l-3.484 3.484q0.063 0.234 0.063 0.516 0 0.422-0.156 0.781t-0.43 0.633-0.633 0.43-0.781 0.156-0.781-0.156-0.633-0.43-0.43-0.633-0.156-0.781 0.156-0.781 0.43-0.633 0.633-0.43 0.781-0.156q0.281 0 0.516 0.063zM22 10h3.078l2-2h-3.078v-3.078l-2 2v3.078z"></path>
</svg>
