<!-- Generated by IcoMoon.io -->
<svg version="1.1" xmlns="http://www.w3.org/2000/svg" width="32" height="32" viewBox="0 0 32 32">
<title>uniE319</title>
<path d="M32 17.094q0 0.609-0.234 1.188t-0.672 1.016l-11.203 11.203-5.891 1.469 1.469-5.891 11.203-11.188q0.438-0.438 1.023-0.641t1.18-0.203q0.656 0 1.227 0.227t0.992 0.633 0.664 0.961 0.242 1.227zM30 17.094q0-0.516-0.313-0.797t-0.813-0.281q-0.219 0-0.422 0.063t-0.359 0.219l-10.813 10.813-0.531 2.109 2.109-0.531 10.813-10.797q0.328-0.328 0.328-0.797zM19.344 18.672q0.359-0.594 0.508-1.289t0.148-1.383q0-1.234-0.469-2.328t-1.289-1.914-1.914-1.289-2.328-0.469q-1.25 0-2.344 0.469t-1.906 1.281-1.281 1.906-0.469 2.344 0.469 2.344 1.281 1.906 1.906 1.281 2.344 0.469q0.703 0 1.375-0.156t1.297-0.5l-2.656 2.656h-0.016q-1.672 0-3.125-0.625t-2.539-1.711-1.711-2.539-0.625-3.125q0-1.656 0.625-3.117t1.711-2.547 2.547-1.711 3.117-0.625q1.672 0 3.133 0.633t2.539 1.719 1.703 2.555 0.625 3.125zM12.438 27.891l-0.484 1.953q-1.719-0.234-3.266-0.875t-2.875-1.602-2.406-2.219-1.828-2.719-1.164-3.086-0.414-3.344q0-1.922 0.5-3.711t1.414-3.344 2.195-2.836 2.836-2.195 3.344-1.414 3.711-0.5q2.313 0 4.414 0.703t3.844 1.992 3.047 3.086 2.023 3.984q-0.5 0.156-0.945 0.352t-0.867 0.523q-0.563-1.922-1.688-3.516t-2.641-2.727-3.352-1.766-3.836-0.633q-1.656 0-3.188 0.43t-2.867 1.211-2.43 1.875-1.875 2.43-1.211 2.867-0.43 3.188q0 1.484 0.359 2.898t1.023 2.672 1.602 2.344 2.102 1.906 2.516 1.359 2.836 0.711zM16 16q0 0.422-0.156 0.781t-0.43 0.633-0.633 0.43-0.781 0.156-0.781-0.156-0.633-0.43-0.43-0.633-0.156-0.781 0.156-0.781 0.43-0.633 0.633-0.43 0.781-0.156 0.781 0.156 0.633 0.43 0.43 0.633 0.156 0.781z"></path>
</svg>
