<!-- Generated by IcoMoon.io -->
<svg version="1.1" xmlns="http://www.w3.org/2000/svg" width="32" height="32" viewBox="0 0 32 32">
<title>uniF4B2</title>
<path d="M27 8q0.625 0 1.172 0.234t0.953 0.641 0.641 0.953 0.234 1.172v12q0 0.625-0.234 1.172t-0.641 0.953-0.953 0.641-1.172 0.234h-22q-0.625 0-1.172-0.234t-0.953-0.641-0.641-0.953-0.234-1.172v-12q0-0.625 0.234-1.172t0.641-0.953 0.953-0.641 1.172-0.234h5.031q0.094-0.844 0.484-1.578t0.992-1.273 1.367-0.844 1.625-0.305h2q0.859 0 1.625 0.305t1.367 0.844 0.992 1.273 0.484 1.578h6.031zM14.5 6q-0.438 0-0.844 0.148t-0.734 0.414-0.555 0.633-0.32 0.805h6.906q-0.094-0.438-0.32-0.805t-0.555-0.633-0.734-0.414-0.844-0.148h-2zM22 10h-17q-0.406 0-0.703 0.297t-0.297 0.703v12q0 0.406 0.297 0.703t0.703 0.297h17v-14zM28 11q0-0.406-0.297-0.703t-0.703-0.297h-3v14h3q0.406 0 0.703-0.297t0.297-0.703v-12z"></path>
</svg>
