<!-- Generated by IcoMoon.io -->
<svg version="1.1" xmlns="http://www.w3.org/2000/svg" width="32" height="32" viewBox="0 0 32 32">
<title>uniF310</title>
<path d="M26.109 14q0.391 0 0.734 0.148t0.602 0.406 0.406 0.602 0.148 0.734v12.219q0 0.391-0.148 0.734t-0.406 0.602-0.602 0.406-0.734 0.148h-22.219q-0.391 0-0.734-0.148t-0.602-0.406-0.406-0.602-0.148-0.734v-12.219q0-0.391 0.148-0.734t0.406-0.602 0.602-0.406 0.734-0.148h0.688l6.984-6.969q-0.281-0.453-0.422-0.969t-0.141-1.063q0-0.828 0.313-1.555t0.859-1.273 1.273-0.859 1.555-0.313 1.555 0.313 1.273 0.859 0.859 1.273 0.313 1.555q0 0.547-0.141 1.063t-0.422 0.969l6.984 6.969h0.688zM15 3q-0.422 0-0.781 0.156t-0.633 0.43-0.43 0.633-0.156 0.781 0.156 0.781 0.43 0.633 0.633 0.43 0.781 0.156 0.781-0.156 0.633-0.43 0.43-0.633 0.156-0.781-0.156-0.781-0.43-0.633-0.633-0.43-0.781-0.156zM7.422 14h15.156l-5.547-5.563q-0.922 0.563-2.031 0.563-0.547 0-1.063-0.141t-0.969-0.422zM26 16h-22v12h22v-12zM22 22h-14v-2h14v2z"></path>
</svg>
