<!-- Generated by IcoMoon.io -->
<svg version="1.1" xmlns="http://www.w3.org/2000/svg" width="32" height="32" viewBox="0 0 32 32">
<title>uniECA4</title>
<path d="M19 4q-0.406 0-0.703-0.297t-0.297-0.703q0-0.188 0.125-0.484t0.289-0.625 0.328-0.625 0.258-0.469q0.094 0.172 0.258 0.469t0.328 0.625 0.289 0.625 0.125 0.484q0 0.406-0.297 0.703t-0.703 0.297zM32 14v18h-32v-18l18-6v-2.5q0-0.141 0.117-0.242t0.281-0.156 0.328-0.078 0.273-0.023 0.273 0.023 0.328 0.078 0.281 0.156 0.117 0.242v1.828l4-1.328zM19 12q-0.109 0-0.273-0.023t-0.328-0.078-0.281-0.156-0.117-0.242v-1.391l-11.672 3.891h22.844l-5.719-5.719-3.453 1.156v2.063q0 0.141-0.117 0.242t-0.281 0.156-0.328 0.078-0.273 0.023zM2 16v6h28v-6h-28zM30 30v-6h-28v6h28z"></path>
</svg>
