<!-- Generated by IcoMoon.io -->
<svg version="1.1" xmlns="http://www.w3.org/2000/svg" width="32" height="32" viewBox="0 0 32 32">
<title>uniE406</title>
<path d="M14 12v2h-1.984v-2h1.984zM18 4v6h-14v-6h14zM16 8v-2h-10v2h10zM10 20v2h-1.984v-2h1.984zM14 16v2h-1.984v-2h1.984zM16.016 26v-2h1.188l-1 2h-0.188zM8.016 26v-2h1.984v2h-1.984zM14 20v2h-1.984v-2h1.984zM12.016 26v-2h1.984v2h-1.984zM4 26v-2h2v2h-2zM18 12v2h-1.984v-2h1.984zM18 20v2h-1.984v-2h1.984zM18 16v2h-1.984v-2h1.984zM10 16v2h-1.984v-2h1.984zM2 2v26h13.203l-1 2h-14.203v-30h22v14.406l-2 4v-16.406h-18zM10 12v2h-1.984v-2h1.984zM6 12v2h-2v-2h2zM6 20v2h-2v-2h2zM6 16v2h-2v-2h2zM24 16l8 16h-16zM24 20.469l-4.766 9.531h9.531z"></path>
</svg>
