<!-- Generated by IcoMoon.io -->
<svg version="1.1" xmlns="http://www.w3.org/2000/svg" width="32" height="32" viewBox="0 0 32 32">
<title>uniE371</title>
<path d="M26 8h4v24h-26v-24h4v-2h2v2h14v-2h2v2zM28 10h-2v2h2v-2zM24 10h-14v2h14v-2zM8 10h-2v2h2v-2zM6 30h22v-16h-22v16zM4 6v-2h-2v22h-2v-24h4v-2h2v2h14v-2h2v2h4v2h-4v2h-2v-2h-14v2h-2zM10 22v-2h2v2h-2zM14 22v-2h2v2h-2zM18 22v-2h2v2h-2zM22 22v-2h2v2h-2zM10 26v-2h2v2h-2zM14 26v-2h2v2h-2zM18 26v-2h2v2h-2zM14 18v-2h2v2h-2zM18 18v-2h2v2h-2zM22 18v-2h2v2h-2z"></path>
</svg>
