<!-- Generated by IcoMoon.io -->
<svg version="1.1" xmlns="http://www.w3.org/2000/svg" width="32" height="32" viewBox="0 0 32 32">
<title>uniE8F5</title>
<path d="M14 14h-2v-2h2v2zM20 14h-2v-2h2v2zM14 18h-2v-2h2v2zM8 18h-2v-2h2v2zM18 16h2v2h-2v-2zM26 14h-2v-2h2v2zM24 16h2v2h-2v-2zM18 20h2v2h-2v-2zM14 22h-2v-2h2v2zM8 22h-2v-2h2v2zM12 24h2v2h-2v-2zM6 24h2v2h-2v-2zM32 2v21.563q-0.438-0.406-0.945-0.695t-1.055-0.492v-12.375h-28v18h17.5l2 2h-21.5v-28h6v-2h2v2h16v-2h2v2h6zM30 8v-4h-4v2h-2v-2h-16v2h-2v-2h-4v4h28zM23.422 24q0.781 0 1.727-0.039t1.898 0.008 1.844 0.227 1.586 0.625 1.109 1.211 0.414 1.969q0 0.828-0.32 1.555t-0.859 1.266-1.273 0.859-1.547 0.32v-2q0.422 0 0.781-0.156t0.633-0.43 0.43-0.633 0.156-0.781-0.156-0.781-0.43-0.633-0.633-0.43-0.781-0.156h-4.578l2.531 2.547-1.406 1.406-4.953-4.953 4.953-4.953 1.406 1.406z"></path>
</svg>
