<!-- Generated by IcoMoon.io -->
<svg version="1.1" xmlns="http://www.w3.org/2000/svg" width="32" height="32" viewBox="0 0 32 32">
<title>uniE787</title>
<path d="M12 12h2v2h-2v-2zM18 24h2v2h-2v-2zM24 12h2v2h-2v-2zM18 12h2v2h-2v-2zM12 16h2v2h-2v-2zM6 16h2v2h-2v-2zM24 16h2v2h-2v-2zM18 16h2v2h-2v-2zM12 20h2v2h-2v-2zM6 20h2v2h-2v-2zM24 20h2v2h-2v-2zM18 20h2v2h-2v-2zM12 24h2v2h-2v-2zM6 24h2v2h-2v-2zM32 2v28h-32v-28h6v-2h2v2h16v-2h2v2h6zM2 4v4h28v-4h-4v2h-2v-2h-16v2h-2v-2h-4zM30 28v-18h-28v18h28z"></path>
</svg>
