<!-- Generated by IcoMoon.io -->
<svg version="1.1" xmlns="http://www.w3.org/2000/svg" width="32" height="32" viewBox="0 0 32 32">
<title>uniF558</title>
<path d="M32 2v16.625q-0.891-0.969-2-1.672v-6.953h-28v18h14.031q0.172 0.531 0.398 1.031t0.523 0.969h-16.953v-28h6v-2h2v2h16v-2h2v2h6zM30 4h-4v2h-2v-2h-16v2h-2v-2h-4v4h28v-4zM14 22h-2v-2h2v2zM18 16h2v0.953q-0.734 0.469-1.375 1.047h-0.625v-2zM20 14h-2v-2h2v2zM26 14h-2v-2h2v2zM8 22h-2v-2h2v2zM6 24h2v2h-2v-2zM8 18h-2v-2h2v2zM14 14h-2v-2h2v2zM12 24h2v2h-2v-2zM14 18h-2v-2h2v2zM31.844 23.25l-1.938 0.797q0.094 0.469 0.094 0.953t-0.094 0.953l1.938 0.797-0.766 1.859-1.938-0.813q-0.547 0.797-1.344 1.344l0.813 1.938-1.859 0.766-0.797-1.938q-0.469 0.094-0.953 0.094t-0.953-0.094l-0.797 1.938-1.859-0.766 0.813-1.938q-0.797-0.547-1.344-1.344l-1.938 0.813-0.766-1.859 1.938-0.797q-0.094-0.469-0.094-0.953t0.094-0.953l-1.938-0.797 0.766-1.859 1.938 0.813q0.547-0.797 1.344-1.344l-0.813-1.938 1.859-0.766 0.797 1.938q0.469-0.094 0.953-0.094t0.953 0.094l0.797-1.938 1.859 0.766-0.813 1.938q0.797 0.547 1.344 1.344l1.938-0.813zM25 28q0.625 0 1.172-0.234t0.953-0.641 0.641-0.953 0.234-1.172-0.234-1.172-0.641-0.953-0.953-0.641-1.172-0.234-1.172 0.234-0.953 0.641-0.641 0.953-0.234 1.172 0.234 1.172 0.641 0.953 0.953 0.641 1.172 0.234z"></path>
</svg>
