<!-- Generated by IcoMoon.io -->
<svg version="1.1" xmlns="http://www.w3.org/2000/svg" width="32" height="32" viewBox="0 0 32 32">
<title>uniED28</title>
<path d="M20 12h-2v2h2v-2zM14 24h-2v2h2v-2zM8 12h-2v2h2v-2zM14 12h-2v2h2v-2zM20 16h-2v2h2v-2zM26 16h-2v2h2v-2zM8 16h-2v2h2v-2zM14 16h-2v2h2v-2zM20 20h-2v2h2v-2zM26 20h-2v2h2v-2zM8 20h-2v2h2v-2zM14 20h-2v2h2v-2zM20 24h-2v2h2v-2zM26 24h-2v2h2v-2zM0 2v28h32v-28h-6v-2h-2v2h-16v-2h-2v2h-6zM30 4v4h-28v-4h4v2h2v-2h16v2h2v-2h4zM2 28v-18h28v18h-28z"></path>
</svg>
