<!-- Generated by IcoMoon.io -->
<svg version="1.1" xmlns="http://www.w3.org/2000/svg" width="32" height="32" viewBox="0 0 32 32">
<title>uniECAD</title>
<path d="M20 1q0 2.797 1.031 5.156t2.969 4.344 2.969 4.344 1.031 5.156q0 1.656-0.43 3.188t-1.211 2.867-1.875 2.43-2.43 1.875-2.867 1.211-3.188 0.43-3.188-0.43-2.867-1.211-2.43-1.875-1.875-2.43-1.211-2.867-0.43-3.188q0-1.313 0.281-2.578t0.813-2.43 1.313-2.195 1.766-1.891q0.109 0.594 0.297 1.227t0.445 1.25 0.586 1.188 0.719 1.039q0.313 0.391 0.813 0.391 0.422 0 0.711-0.297t0.289-0.719q0-0.172-0.055-0.313t-0.148-0.281q-0.438-0.641-0.773-1.266t-0.57-1.281-0.359-1.359-0.125-1.484q0-1.859 0.711-3.5t1.93-2.859 2.859-1.93 3.5-0.711h1v1zM16 30q2.078 0 3.898-0.781t3.18-2.141 2.141-3.18 0.781-3.898q0-2.359-0.875-4.391t-2.531-3.688q-2.031-2.047-3.195-4.516t-1.367-5.344q-1.297 0.172-2.398 0.789t-1.914 1.547-1.266 2.109-0.453 2.492q0 1.219 0.359 2.211t1.063 1.961q0.297 0.406 0.461 0.852t0.164 0.961q0 0.625-0.242 1.172t-0.648 0.961-0.953 0.648-1.172 0.234q-0.719 0-1.266-0.273t-0.969-0.719-0.758-1.008-0.617-1.125q-0.719 1.141-1.070 2.461t-0.352 2.664q0 2.078 0.781 3.898t2.141 3.18 3.18 2.141 3.898 0.781z"></path>
</svg>
