<!-- Generated by IcoMoon.io -->
<svg version="1.1" xmlns="http://www.w3.org/2000/svg" width="32" height="32" viewBox="0 0 32 32">
<title>uniF172</title>
<path d="M6 20q0 1.375 0.359 2.656t1.008 2.391 1.563 2.023 2.023 1.563 2.391 1.008 2.656 0.359q1.031 0 2.047-0.211t1.953-0.633v2.141q-1.922 0.703-4 0.703-1.656 0-3.188-0.43t-2.867-1.211-2.43-1.875-1.875-2.43-1.211-2.867-0.43-3.188q0-1.313 0.281-2.578t0.813-2.422 1.313-2.195 1.766-1.898q0.094 0.578 0.289 1.219t0.453 1.266 0.594 1.203 0.711 1.016q0.344 0.391 0.813 0.391 0.422 0 0.711-0.297t0.289-0.719q0-0.172-0.055-0.313t-0.148-0.281q-0.875-1.281-1.352-2.547t-0.477-2.844q0-1.859 0.711-3.5t1.93-2.859 2.859-1.93 3.5-0.711h1v1q0 2.766 1.031 5.156t2.969 4.344 2.969 4.344 1.031 5.156h-2q0-2.375-0.875-4.391t-2.531-3.688q-2.031-2.063-3.188-4.508t-1.375-5.352q-1.297 0.172-2.398 0.789t-1.914 1.547-1.266 2.109-0.453 2.492q0 1.234 0.367 2.203t1.055 1.969q0.297 0.438 0.461 0.852t0.164 0.961q0 0.625-0.242 1.172t-0.648 0.961-0.953 0.648-1.172 0.234q-0.719 0-1.266-0.273t-0.977-0.719-0.758-1.008-0.609-1.125q-0.703 1.172-1.063 2.469t-0.359 2.656zM32 26v2h-4v4h-2v-4h-4v-2h4v-4h2v4h4z"></path>
</svg>
