<!-- Generated by IcoMoon.io -->
<svg version="1.1" xmlns="http://www.w3.org/2000/svg" width="32" height="32" viewBox="0 0 32 32">
<title>uniE722</title>
<path d="M32 4v24h-32v-24h8.578l2-2h10.844l2 2h8.578zM30 6h-7.422l-2-2h-9.156l-2 2h-7.422v20h28v-20zM16 8q1.656 0 3.117 0.625t2.547 1.711 1.711 2.547 0.625 3.117-0.625 3.117-1.711 2.547-2.547 1.711-3.117 0.625-3.117-0.625-2.547-1.711-1.711-2.547-0.625-3.117 0.625-3.117 1.711-2.547 2.547-1.711 3.117-0.625zM16 22q1.234 0 2.328-0.477t1.906-1.289 1.289-1.906 0.477-2.328-0.477-2.328-1.289-1.906-1.906-1.289-2.328-0.477-2.328 0.477-1.906 1.289-1.289 1.906-0.477 2.328 0.477 2.328 1.289 1.906 1.906 1.289 2.328 0.477zM5 8q0.406 0 0.703 0.297t0.297 0.703-0.297 0.703-0.703 0.297-0.703-0.297-0.297-0.703 0.297-0.703 0.703-0.297z"></path>
</svg>
