<!-- Generated by IcoMoon.io -->
<svg version="1.1" xmlns="http://www.w3.org/2000/svg" width="32" height="32" viewBox="0 0 32 32">
<title>uniF811</title>
<path d="M32 14.688v14.313l-8.078-1.156q-0.141 0.891-0.594 1.648t-1.117 1.32-1.492 0.875-1.719 0.313q-0.766 0-1.469-0.211t-1.297-0.609-1.070-0.961-0.773-1.266q-0.234-0.547-0.297-1.031t-0.063-1.031v-0.453q-0.469-0.078-1.055-0.18t-1.195-0.195-1.188-0.164-1.031-0.086h-0.219q-0.344 0-0.68 0.016t-0.664 0.016v-8q0.438 0 0.859 0.016t0.859 0.016q0.078 0 0.141-0.008t0.141-0.023zM21.938 27.563l-5.906-0.844q-0.031 0.078-0.031 0.141v0.141q0 0.625 0.234 1.172t0.641 0.953 0.953 0.641 1.172 0.234q0.531 0 1.023-0.18t0.883-0.508 0.664-0.773 0.367-0.977zM30 26.688v-9.688l-20 2.844v4zM2 0v2h-2v-2h2zM2 4v2h-2v-2h2zM2 8v2h-2v-2h2zM2 12v2h-2v-2h2zM2 16v2h-2v-2h2zM2 20v2h-2v-2h2zM2 24v2h-2v-2h2zM0 28h2v2h-2v-2zM2 32v-2h2v2h-2zM6 0v2h-2v-2h2zM6 32v-2h2v2h-2zM10 32v-2h2v2h-2zM10 0v2h-2v-2h2zM14 0v2h-2v-2h2zM18 0v2h-2v-2h2zM22 0v2h-2v-2h2zM24 4h-2v-2h2v2zM24 6v2h-2v-2h2zM22 12v-2h2v2h-2z"></path>
</svg>
