<!-- Generated by IcoMoon.io -->
<svg version="1.1" xmlns="http://www.w3.org/2000/svg" width="32" height="32" viewBox="0 0 32 32">
<title>uniE5FE</title>
<path d="M10.453 24.031q-0.078 0.828-0.445 1.555t-0.953 1.266-1.344 0.844-1.586 0.305h-3.5q-0.797 0-1.453-0.43t-0.969-1.164q-0.141-0.313-0.18-0.633t-0.039-0.648q0-0.172 0.008-0.32t0.008-0.305q0.141 0 0.281 0.008t0.297 0.008q0.25 0 0.492-0.055t0.414-0.227q0.266-0.266 0.266-0.609 0-0.828 0.305-1.586t0.844-1.344 1.266-0.953 1.555-0.445q2.094-2.047 4.156-4.125t4.117-4.164 4.117-4.156 4.172-4.117q0.484-0.469 1.094-0.727t1.281-0.258q0.688 0 1.297 0.266t1.063 0.719 0.719 1.063 0.266 1.297q0 0.672-0.258 1.281t-0.727 1.094q-2.047 2.094-4.117 4.164t-4.156 4.125-4.164 4.117-4.125 4.156zM8.75 23.625q0-0.547-0.203-1.023t-0.563-0.836-0.836-0.563-1.023-0.203q-0.797 0-1.453 0.43t-0.969 1.164q-0.203 0.469-0.203 1.031 0 0.75-0.398 1.391t-1.086 0.969q0.234 0.266 0.609 0.266h3.5q0.547 0 1.023-0.203t0.836-0.563 0.563-0.836 0.203-1.023zM10.125 21.875l1.594-1.594q-0.844-1.406-2.25-2.25l-1.594 1.594q1.563 0.688 2.25 2.25zM26.25 5.094q0-0.328-0.125-0.617t-0.344-0.508-0.508-0.344-0.617-0.125q-0.672 0-1.141 0.469l-12.781 12.797q1.344 0.906 2.25 2.25l12.797-12.781q0.469-0.469 0.469-1.141zM32 25v2h-5v5h-2v-5h-5v-2h5v-5h2v5h5z"></path>
</svg>
