<!-- Generated by IcoMoon.io -->
<svg version="1.1" xmlns="http://www.w3.org/2000/svg" width="32" height="32" viewBox="0 0 32 32">
<title>uniE549</title>
<path d="M32 23.188q0 0.844-0.313 1.602t-0.906 1.352l-5.781 5.766-5.781-5.766q-0.594-0.594-0.906-1.352t-0.313-1.602q0-0.859 0.328-1.625t0.891-1.336 1.32-0.898 1.633-0.328q0.781 0 1.523 0.273t1.305 0.82q0.594-0.547 1.313-0.82t1.516-0.273q0.859 0 1.625 0.328t1.328 0.898 0.891 1.336 0.328 1.625zM30 23.188q0-0.453-0.172-0.852t-0.469-0.695-0.695-0.469-0.852-0.172q-0.891 0-1.531 0.641l-1.281 1.281-1.281-1.281q-0.313-0.313-0.711-0.477t-0.82-0.164q-0.453 0-0.852 0.172t-0.695 0.469-0.469 0.695-0.172 0.852q0 0.891 0.641 1.531l4.359 4.359 4.359-4.359q0.641-0.641 0.641-1.531zM6 30h13.547l2.016 2h-17.563v-28h8q0-0.828 0.313-1.555t0.859-1.273 1.273-0.859 1.555-0.313 1.555 0.313 1.273 0.859 0.859 1.273 0.313 1.555h8v12.516q-0.047 0-0.086-0.008t-0.086-0.008q-0.469 0-0.922 0.078t-0.906 0.203v-10.781h-2v4h-16v-4h-2v24zM10 6v2h12v-2h-4v-2q0-0.625-0.328-1.102t-0.891-0.742q-0.359-0.156-0.781-0.156t-0.781 0.156q-0.563 0.266-0.891 0.742t-0.328 1.102v2h-4z"></path>
</svg>
