<!-- Generated by IcoMoon.io -->
<svg version="1.1" xmlns="http://www.w3.org/2000/svg" width="32" height="32" viewBox="0 0 32 32">
<title>uniE54A</title>
<path d="M10 18v-2h6v2h-6zM16 12v2h-6v-2h6zM4 30h15.547l2.016 2h-19.563v-32h17.422l8.578 8.578v7.938q-0.047 0-0.086-0.008t-0.086-0.008q-0.469 0-0.922 0.078t-0.906 0.203v-6.781h-8v-8h-14v28zM20 3.422v4.578h4.578zM16 8v2h-6v-2h6zM8 8v2h-2v-2h2zM32 23.188q0 0.844-0.313 1.602t-0.906 1.352l-5.781 5.766-5.781-5.766q-0.594-0.594-0.906-1.352t-0.313-1.602q0-0.859 0.328-1.625t0.891-1.336 1.32-0.898 1.633-0.328q0.781 0 1.523 0.273t1.305 0.82q0.594-0.547 1.313-0.82t1.516-0.273q0.859 0 1.625 0.328t1.328 0.898 0.891 1.336 0.328 1.625zM30 23.188q0-0.453-0.172-0.852t-0.469-0.695-0.695-0.469-0.852-0.172q-0.891 0-1.531 0.641l-1.281 1.281-1.281-1.281q-0.313-0.313-0.711-0.477t-0.82-0.164q-0.453 0-0.852 0.172t-0.695 0.469-0.469 0.695-0.172 0.852q0 0.891 0.641 1.531l4.359 4.359 4.359-4.359q0.641-0.641 0.641-1.531zM8 12v2h-2v-2h2zM6 18v-2h2v2h-2z"></path>
</svg>
