<!-- Generated by IcoMoon.io -->
<svg version="1.1" xmlns="http://www.w3.org/2000/svg" width="32" height="32" viewBox="0 0 32 32">
<title>uniED7F</title>
<path d="M32 9q0 0.625-0.234 1.172t-0.641 0.953-0.953 0.641-1.172 0.234h-1v10q0 1.031 0.172 2.055t0.531 2.008q0.719 0.125 1.32 0.484t1.039 0.883 0.688 1.188 0.25 1.383q0 0.281 0.008 0.633t-0.070 0.656-0.289 0.508-0.648 0.203h-23q-1.656 0-3.109-0.633t-2.539-1.719-1.719-2.539-0.633-3.109q0-1.234 0.469-2.328t1.289-1.914 1.906-1.289 2.336-0.469q0.406 0 0.773-0.156t0.641-0.43 0.43-0.641 0.156-0.773q0-0.422-0.156-0.781t-0.43-0.633-0.633-0.43-0.781-0.156v-2q0.828 0 1.555 0.313t1.273 0.859 0.859 1.273 0.313 1.555-0.313 1.555-0.859 1.273-1.273 0.859-1.555 0.313-1.555 0.313-1.273 0.859-0.859 1.273-0.313 1.555q0 1.25 0.469 2.336t1.289 1.906 1.906 1.289 2.336 0.469q0.406 0 0.773-0.156t0.641-0.43 0.43-0.641 0.156-0.773q0-3.094 1.086-5.773t3.195-4.914q1.828-1.938 2.773-4.289t0.945-5.023v-2q0-1.234 0.469-2.328t1.289-1.914 1.906-1.289 2.336-0.469h2v1.766q0 0.266 0.148 0.516t0.398 0.375q0.953 0.469 1.898 0.938t1.898 0.953q0.766 0.391 1.211 1.109t0.445 1.578v1.766zM30 30q0-0.406-0.156-0.773t-0.43-0.641-0.641-0.43-0.773-0.156q-0.328 0-0.555-0.164t-0.367-0.445q-0.281-0.531-0.484-1.219t-0.336-1.414-0.195-1.445-0.063-1.313v-10q0-0.422 0.156-0.781t0.43-0.633 0.633-0.43 0.781-0.156q0.281 0 0.633 0.008t0.656-0.070 0.508-0.289 0.203-0.648v-1.766q0-0.266-0.148-0.516t-0.398-0.375q-0.953-0.469-1.898-0.938t-1.898-0.953q-0.703-0.359-1.133-1.008t-0.492-1.445q-0.828 0-1.563 0.313t-1.281 0.852-0.867 1.266-0.32 1.57v2q0 3.078-1.086 5.766t-3.195 4.922q-1.828 1.938-2.773 4.289t-0.945 5.023q0 0.531-0.148 1.039t-0.414 0.961h12.563q0-0.406-0.156-0.773t-0.43-0.641-0.641-0.43-0.773-0.156h-4v-2h4q0.125 0 0.242 0.016t0.242 0.031l-1.453-5.797 1.938-0.5 1.859 7.422q0.563 0.563 0.867 1.297t0.305 1.531h4zM25 6q0.406 0 0.703 0.297t0.297 0.703-0.297 0.703-0.703 0.297-0.703-0.297-0.297-0.703 0.297-0.703 0.703-0.297z"></path>
</svg>
