<!-- Generated by IcoMoon.io -->
<svg version="1.1" xmlns="http://www.w3.org/2000/svg" width="32" height="32" viewBox="0 0 32 32">
<title>uniE48C</title>
<path d="M21.422 0l8.578 8.578v23.422h-26v-14h2v12h22v-20h-8v-8h-14v2h-2v-4h17.422zM22 3.422v4.578h4.578zM10 26v-2h14v2h-14zM10.578 20l-4-4h-4.578v-10h14v10h-4v4h12v2h-14v-2h0.578zM4 8v6h3.422l2.578 2.578v-2.578h4v-6h-10zM7.922 11.594l-0.219 0.219q-0.141 0.094-0.336 0.141t-0.367 0.047v-0.672h-1v-1.328h2v1.328q0 0.063-0.031 0.133t-0.047 0.133zM11 12v-0.672h-1v-1.328h2v1.328q0 0.063-0.031 0.133t-0.047 0.133l-0.219 0.219q-0.141 0.094-0.336 0.141t-0.367 0.047z"></path>
</svg>
