<!-- Generated by IcoMoon.io -->
<svg version="1.1" xmlns="http://www.w3.org/2000/svg" width="32" height="32" viewBox="0 0 32 32">
<title>uniE7F0</title>
<path d="M32 6v20h-32v-20h32zM30 8h-28v16h28v-16zM11 22q-1.25 0-2.336-0.469t-1.906-1.289-1.289-1.906-0.469-2.336q0-1.234 0.469-2.328t1.289-1.914 1.906-1.289 2.336-0.469q1.203 0 2.297 0.453t1.938 1.297l-1.406 1.422q-0.563-0.563-1.297-0.867t-1.531-0.305q-0.828 0-1.555 0.313t-1.273 0.859-0.859 1.273-0.313 1.555 0.313 1.555 0.859 1.273 1.273 0.859 1.555 0.313q0.797 0 1.531-0.305t1.297-0.867l1.406 1.422q-0.844 0.844-1.938 1.297t-2.297 0.453zM23 22q-1.25 0-2.336-0.469t-1.906-1.289-1.289-1.906-0.469-2.336q0-1.234 0.469-2.328t1.289-1.914 1.906-1.289 2.336-0.469q1.203 0 2.297 0.453t1.938 1.297l-1.406 1.422q-0.563-0.563-1.297-0.867t-1.531-0.305q-0.828 0-1.555 0.313t-1.273 0.859-0.859 1.273-0.313 1.555 0.313 1.555 0.859 1.273 1.273 0.859 1.555 0.313q0.797 0 1.531-0.305t1.297-0.867l1.406 1.422q-0.844 0.844-1.938 1.297t-2.297 0.453z"></path>
</svg>
