<!-- Generated by IcoMoon.io -->
<svg version="1.1" xmlns="http://www.w3.org/2000/svg" width="32" height="32" viewBox="0 0 32 32">
<title>uniE4F4</title>
<path d="M0 6h32v20h-32v-20zM11 19.75q-0.781 0-1.461-0.297t-1.188-0.805-0.805-1.188-0.297-1.461q0-0.766 0.297-1.453t0.805-1.195 1.188-0.805 1.461-0.297q0.75 0 1.43 0.281t1.227 0.813l1.766-1.766q-0.891-0.891-2.031-1.359t-2.391-0.469q-1.297 0-2.43 0.492t-1.984 1.344-1.344 1.992-0.492 2.422q0 1.297 0.492 2.43t1.344 1.984 1.984 1.344 2.43 0.492q1.25 0 2.391-0.469t2.031-1.359l-1.766-1.766q-0.547 0.531-1.227 0.813t-1.43 0.281zM23 19.75q-0.781 0-1.461-0.297t-1.188-0.805-0.805-1.188-0.297-1.461q0-0.766 0.297-1.453t0.805-1.195 1.188-0.805 1.461-0.297q0.75 0 1.43 0.281t1.227 0.813l1.766-1.766q-0.891-0.891-2.031-1.359t-2.391-0.469q-1.297 0-2.43 0.492t-1.984 1.344-1.344 1.992-0.492 2.422q0 1.297 0.492 2.43t1.344 1.984 1.984 1.344 2.43 0.492q1.25 0 2.391-0.469t2.031-1.359l-1.766-1.766q-0.547 0.531-1.227 0.813t-1.43 0.281z"></path>
</svg>
