<!-- Generated by IcoMoon.io -->
<svg version="1.1" xmlns="http://www.w3.org/2000/svg" width="32" height="32" viewBox="0 0 32 32">
<title>uniF5BB</title>
<path d="M6 25q0 0.297 0.203 0.555t0.422 0.43q0.719 0.594 1.789 0.984t2.234 0.617 2.313 0.32 2.039 0.094q1.266 0 2.516-0.133t2.484-0.43v2.031q-1.234 0.281-2.484 0.406t-2.516 0.125q-0.953 0-1.898-0.070t-1.883-0.227q-0.594-0.094-1.352-0.266t-1.563-0.438-1.578-0.633-1.375-0.859-0.977-1.117-0.375-1.391v-18q0-0.766 0.375-1.391t0.977-1.117 1.375-0.859 1.578-0.633 1.563-0.438 1.352-0.266q0.938-0.156 1.883-0.227t1.898-0.070 1.898 0.070 1.883 0.227q0.578 0.094 1.344 0.266t1.57 0.438 1.578 0.633 1.375 0.859 0.977 1.117 0.375 1.391v5h-2v-2.047q-0.906 0.578-2.031 0.969t-2.32 0.633-2.391 0.344-2.258 0.102-2.258-0.102-2.391-0.344-2.32-0.633-2.031-0.969v15.047zM15 4q-0.891 0-2.039 0.094t-2.313 0.32-2.234 0.617-1.789 0.984q-0.219 0.172-0.422 0.43t-0.203 0.555 0.203 0.555 0.422 0.43q0.719 0.594 1.789 0.984t2.234 0.617 2.313 0.32 2.039 0.094 2.039-0.094 2.313-0.32 2.227-0.617 1.781-0.984q0.219-0.172 0.43-0.43t0.211-0.555-0.211-0.555-0.43-0.43q-0.719-0.594-1.781-0.984t-2.227-0.617-2.313-0.32-2.039-0.094zM32 20q0 1.281-0.531 2.445t-1.469 2.023v7.141l-4-2-4 2v-7.141q-0.938-0.859-1.469-2.023t-0.531-2.445q0-1.234 0.469-2.328t1.289-1.914 1.906-1.289 2.336-0.469q1.234 0 2.328 0.469t1.914 1.289 1.289 1.914 0.469 2.328zM28 25.656q-1 0.344-2 0.344t-2-0.344v2.719l2-1 2 1v-2.719zM26 24q0.828 0 1.555-0.313t1.273-0.859 0.859-1.273 0.313-1.555-0.313-1.555-0.859-1.273-1.273-0.859-1.555-0.313-1.555 0.313-1.273 0.859-0.859 1.273-0.313 1.555 0.313 1.555 0.859 1.273 1.273 0.859 1.555 0.313z"></path>
</svg>
