<!-- Generated by IcoMoon.io -->
<svg version="1.1" xmlns="http://www.w3.org/2000/svg" width="32" height="32" viewBox="0 0 32 32">
<title>uniE310</title>
<path d="M2 30h14.047l2 2h-18.047v-32h17.422l8.578 8.578v3.422h-2v-2h-8v-8h-14v28zM18 3.422v4.578h4.578zM4 8h9.984v1.984h-9.984v-1.984zM21.984 12v1.984h-17.984v-1.984h17.984zM4 16h11.984v1.984h-11.984v-1.984zM16 20v1.984h-12v-1.984h12zM4 25.984v-1.984h12l-2 1.984h-10zM22.953 23.453l-2.547 2.531h9.594v2.016h-9.594l2.547 2.547-1.406 1.406-4.969-4.953 4.969-4.953zM27.594 18l-2.547-2.547 1.406-1.406 4.969 4.953-4.969 4.953-1.406-1.406 2.547-2.547h-9.594v-2h9.594z"></path>
</svg>
