<!-- Generated by IcoMoon.io -->
<svg version="1.1" xmlns="http://www.w3.org/2000/svg" width="32" height="32" viewBox="0 0 32 32">
<title>uniE644</title>
<path d="M16 2.672q4.125 0 8.117 0.938t7.68 2.781l-4.422 8.844q-2.656-1.328-5.531-2t-5.844-0.672-5.844 0.672-5.531 2l-4.438-8.844q3.688-1.844 7.688-2.781t8.125-0.938zM26.453 12.625l2.641-5.281q-3.109-1.328-6.406-2t-6.688-0.672-6.688 0.672-6.406 2l2.641 5.281q2.5-1.016 5.125-1.539t5.328-0.523 5.328 0.523 5.125 1.539zM6.516 19.031q2.219-1.094 4.617-1.664t4.867-0.57 4.867 0.57 4.617 1.664l-4.453 8.891q-1.172-0.594-2.445-0.891t-2.586-0.297-2.586 0.297-2.445 0.891zM20.078 25.375l2.672-5.344q-1.625-0.609-3.32-0.922t-3.43-0.313-3.43 0.313-3.32 0.922l2.672 5.344q2-0.641 4.078-0.641t4.078 0.641z"></path>
</svg>
