<!-- Generated by IcoMoon.io -->
<svg version="1.1" xmlns="http://www.w3.org/2000/svg" width="32" height="32" viewBox="0 0 32 32">
<title>uniE63C</title>
<path d="M29 12q0.625 0 1.172 0.234t0.953 0.641 0.641 0.953 0.234 1.172-0.234 1.172-0.641 0.953-0.953 0.641-1.172 0.234q-0.469 0-0.906-0.148t-0.813-0.406-0.656-0.625-0.438-0.82h-10.375q-0.078 0.219-0.18 0.422t-0.242 0.375l4.875 7.297q0.172-0.031 0.359-0.063t0.375-0.031q0.625 0 1.172 0.234t0.953 0.641 0.641 0.953 0.234 1.172-0.234 1.172-0.641 0.953-0.953 0.641-1.172 0.234-1.172-0.234-0.953-0.641-0.641-0.953-0.234-1.172q0-0.5 0.164-0.953t0.445-0.844l-4.875-7.297q-0.172 0.031-0.359 0.063t-0.375 0.031q-0.859 0-1.578-0.453l-5.594 4.469q0.078 0.234 0.125 0.484t0.047 0.5q0 0.625-0.234 1.172t-0.641 0.953-0.953 0.641-1.172 0.234-1.172-0.234-0.953-0.641-0.641-0.953-0.234-1.172q0-0.469 0.148-0.906t0.406-0.813 0.625-0.656 0.82-0.438v-10.375q-0.453-0.156-0.82-0.438t-0.625-0.656-0.406-0.813-0.148-0.906q0-0.625 0.234-1.172t0.641-0.953 0.953-0.641 1.172-0.234 1.172 0.234 0.953 0.641 0.641 0.953 0.234 1.172q0 0.25-0.047 0.5t-0.125 0.484l5.594 4.469q0.719-0.453 1.578-0.453 0.188 0 0.375 0.031t0.359 0.063l4.875-7.297q-0.281-0.391-0.445-0.844t-0.164-0.953q0-0.625 0.234-1.172t0.641-0.953 0.953-0.641 1.172-0.234 1.172 0.234 0.953 0.641 0.641 0.953 0.234 1.172q0 0.5-0.164 0.953t-0.445 0.844l4.875 7.297q0.172-0.031 0.359-0.063t0.375-0.031zM1.797 7q0 0.5 0.352 0.852t0.852 0.352 0.852-0.352 0.352-0.852-0.352-0.852-0.852-0.352-0.852 0.352-0.352 0.852zM3 24.203q0.5 0 0.852-0.352t0.352-0.852-0.352-0.852-0.852-0.352-0.852 0.352-0.352 0.852 0.352 0.852 0.852 0.352zM5.313 21.109l0.031 0.031zM10.172 15.984q-0.078-0.234-0.125-0.484t-0.047-0.5 0.047-0.5 0.125-0.484l-5.594-4.469q-0.313 0.188-0.578 0.266v10.375q0.266 0.078 0.578 0.266zM21 25.797q-0.5 0-0.852 0.352t-0.352 0.852 0.352 0.852 0.852 0.352 0.852-0.352 0.352-0.852-0.352-0.852-0.852-0.352zM13 16.203q0.5 0 0.852-0.352t0.352-0.852-0.352-0.852-0.852-0.352-0.852 0.352-0.352 0.852 0.352 0.852 0.852 0.352zM21 1.797q-0.5 0-0.852 0.352t-0.352 0.852 0.352 0.852 0.852 0.352 0.852-0.352 0.352-0.852-0.352-0.852-0.852-0.352zM26.188 14q0.078-0.219 0.18-0.422t0.242-0.375l-4.875-7.297q-0.172 0.031-0.359 0.063t-0.375 0.031-0.375-0.031-0.359-0.063l-4.875 7.297q0.141 0.172 0.242 0.375t0.18 0.422h10.375zM29 16.203q0.5 0 0.852-0.352t0.352-0.852-0.352-0.852-0.852-0.352-0.852 0.352-0.352 0.852 0.352 0.852 0.852 0.352z"></path>
</svg>
