<!-- Generated by IcoMoon.io -->
<svg version="1.1" xmlns="http://www.w3.org/2000/svg" width="32" height="32" viewBox="0 0 32 32">
<title>uniE643</title>
<path d="M19 3q1.797 0 3.453 0.469t3.102 1.313 2.633 2.031 2.031 2.633 1.313 3.102 0.469 3.453q0 2.125-0.547 4.133t-1.555 3.781-2.422 3.258-3.133 2.563-3.703 1.672-4.141 0.594q-2.109 0-4.148-0.586t-3.875-1.656-3.391-2.547-2.688-3.25-1.766-3.797-0.633-4.164q0-2.172 0.531-4.289t1.523-4.039 2.422-3.57 3.242-2.883q0.266-0.172 0.578-0.172 0.406 0 0.695 0.297t0.289 0.703q0 0.484-0.422 0.828-0.547 0.438-1.063 0.836t-1.016 0.883q-1.141 1.125-2.031 2.445t-1.5 2.773-0.93 3.016-0.32 3.172q0 1.891 0.563 3.656t1.555 3.32 2.359 2.844 2.977 2.219 3.406 1.445 3.641 0.516q1.875 0 3.609-0.523t3.234-1.469 2.727-2.242 2.102-2.852 1.352-3.313 0.477-3.602q0-1.516-0.391-2.922t-1.109-2.625-1.727-2.227-2.227-1.727-2.625-1.109-2.922-0.391-2.922 0.391-2.625 1.109-2.227 1.727-1.727 2.227-1.109 2.625-0.391 2.922q0 1.172 0.305 2.258t0.859 2.031 1.328 1.719 1.719 1.328 2.031 0.859 2.258 0.305 2.258-0.305 2.031-0.859 1.719-1.328 1.328-1.719 0.859-2.031 0.305-2.258q0-1.234-0.469-2.328t-1.289-1.914-1.914-1.289-2.328-0.469q-1.25 0-2.336 0.469t-1.906 1.289-1.289 1.914-0.469 2.328q0 0.719 0.273 1.359t0.75 1.117 1.117 0.75 1.359 0.273 1.359-0.273 1.117-0.75 0.75-1.117 0.273-1.359q0-0.406-0.297-0.703t-0.703-0.297q-0.375 0-0.563 0.148t-0.289 0.367-0.148 0.484-0.148 0.484-0.289 0.367-0.563 0.148q-0.406 0-0.703-0.297t-0.297-0.703q0-0.625 0.234-1.172t0.641-0.953 0.953-0.641 1.172-0.234 1.172 0.234 0.953 0.641 0.641 0.953 0.234 1.172q0 1.141-0.43 2.141t-1.18 1.75-1.75 1.18-2.141 0.43-2.141-0.43-1.75-1.18-1.18-1.75-0.43-2.141q0-1.656 0.633-3.109t1.719-2.539 2.539-1.719 3.109-0.633 3.109 0.633 2.539 1.719 1.719 2.539 0.633 3.109q0 2.172-0.828 4.078t-2.258 3.336-3.336 2.258-4.078 0.828-4.078-0.828-3.336-2.258-2.258-3.336-0.828-4.078q0-1.797 0.469-3.453t1.313-3.102 2.031-2.633 2.633-2.031 3.102-1.313 3.453-0.469z"></path>
</svg>
