<!-- Generated by IcoMoon.io -->
<svg version="1.1" xmlns="http://www.w3.org/2000/svg" width="32" height="32" viewBox="0 0 32 32">
<title>uniE632</title>
<path d="M0.203 6.391q3.25-1.609 6.734-2.531t7.109-1.125l1.328 24.016q-1.156 0.063-2.266 0.367t-2.141 0.805zM11.922 25.375q0.344-0.109 0.68-0.195t0.68-0.164l-1.125-20.109q-2.406 0.266-4.719 0.883t-4.531 1.555zM17.953 2.734q3.625 0.203 7.117 1.125t6.742 2.531l-10.781 21.531q-1.031-0.5-2.141-0.805t-2.266-0.367zM20.078 25.375l9.016-18.031q-2.219-0.938-4.531-1.555t-4.719-0.883l-1.125 20.109q0.344 0.078 0.68 0.164t0.68 0.195z"></path>
</svg>
