<!-- Generated by IcoMoon.io -->
<svg version="1.1" xmlns="http://www.w3.org/2000/svg" width="32" height="32" viewBox="0 0 32 32">
<title>uniE642</title>
<path d="M16.469 23.891q-0.406 0.078-0.82 0.117t-0.836 0.039q-0.25 0-0.625-0.031t-0.625-0.125l0.328-1.984q0.578 0.094 1.172 0.094 0.266 0 0.539-0.023t0.539-0.055zM9.578 10.563q-0.375 0.453-0.656 0.961t-0.484 1.055l-1.891-0.688q0.109-0.281 0.273-0.641t0.359-0.719 0.414-0.688 0.438-0.547zM8 14v2h-2v-2h2zM23.422 18.172q-0.094 0.313-0.266 0.656t-0.383 0.695-0.43 0.672-0.422 0.57l-1.547-1.281q0.375-0.453 0.672-0.953t0.5-1.047zM20.359 22.297l-1.734 1-1-1.734 1.734-1zM6.563 18.156l1.875-0.703q0.422 1.109 1.172 2.016l-1.547 1.266q-0.484-0.578-0.859-1.227t-0.641-1.352zM23.453 11.922l-1.875 0.688q-0.406-1.109-1.156-2.031l1.563-1.25q0.469 0.578 0.844 1.234t0.625 1.359zM27.953 14h2.047v2h-2.047q-0.109 1.469-0.547 2.859t-1.156 2.641-1.703 2.32-2.203 1.898l1.016 1.766-1.719 1-1.031-1.766q-1.328 0.625-2.734 0.953t-2.875 0.328-2.875-0.328-2.734-0.953l-1.031 1.766-1.719-1 1.016-1.766q-1.219-0.828-2.203-1.898t-1.703-2.32-1.156-2.641-0.547-2.859h-2.047v-2h2.047q0.109-1.469 0.547-2.859t1.156-2.641 1.703-2.32 2.203-1.898q-0.172-0.422-0.477-0.891t-0.539-0.875l1.719-1q0.234 0.406 0.492 0.906t0.539 0.859q1.328-0.625 2.734-0.953t2.875-0.328 2.875 0.328 2.734 0.953q0.281-0.359 0.539-0.859t0.492-0.906l1.719 1q-0.234 0.406-0.539 0.875t-0.477 0.891q1.219 0.828 2.203 1.898t1.703 2.32 1.156 2.641 0.547 2.859zM16.641 10.172l1.719 1-1.625 2.828h9.219q-0.125-1.406-0.594-2.695t-1.211-2.398-1.734-2.016-2.164-1.547-2.5-0.992-2.75-0.352q-1.516 0-2.922 0.391t-2.625 1.109-2.227 1.727-1.727 2.227-1.109 2.625-0.391 2.922 0.391 2.922 1.109 2.625 1.727 2.227 2.227 1.727 2.625 1.109 2.922 0.391q1.422 0 2.75-0.352t2.5-0.992 2.164-1.547 1.734-2.016 1.211-2.398 0.594-2.695h-9.219l1.625 2.828-1.719 1-1.641-2.828-1.641 2.828-1.719-1 1.625-2.828h-3.266v-2h3.266l-1.625-2.828 1.719-1 1.641 2.828zM20.359 7.703l-1 1.734-1.719-1 1-1.734zM11.359 23.297l-1.719-1 0.984-1.734 1.734 1zM13.453 6.141q0.359-0.063 0.727-0.086t0.727-0.023q0.406 0 0.836 0.016t0.836 0.094l-0.344 1.969q-0.313-0.031-0.625-0.070t-0.625-0.039q-0.297 0-0.594 0.023t-0.594 0.086zM9.641 7.703l1.719-1 1 1.734-1.719 1z"></path>
</svg>
