<!-- Generated by IcoMoon.io -->
<svg version="1.1" xmlns="http://www.w3.org/2000/svg" width="32" height="32" viewBox="0 0 32 32">
<title>uniE638</title>
<path d="M10 2v8h-8v-8h8zM8 8v-4h-4v4h4zM2 16q0-0.828 0.313-1.563t0.852-1.273 1.273-0.852 1.563-0.313 1.555 0.313 1.273 0.859 0.859 1.273 0.313 1.555-0.313 1.555-0.859 1.273-1.273 0.859-1.555 0.313-1.555-0.313-1.273-0.859-0.859-1.273-0.313-1.555zM3.75 16q0 0.469 0.18 0.875t0.484 0.711 0.711 0.484 0.875 0.18 0.875-0.18 0.711-0.484 0.484-0.711 0.18-0.875-0.18-0.875-0.484-0.711-0.711-0.484-0.875-0.18-0.875 0.18-0.711 0.484-0.484 0.711-0.18 0.875zM14 4h18v2h-18v-2zM14 16v-2h18v2h-18zM14 26v-2h18v2h-18zM6 31l-5-9h10zM6 26.891l1.594-2.891h-3.188z"></path>
</svg>
