<!-- Generated by IcoMoon.io -->
<svg version="1.1" xmlns="http://www.w3.org/2000/svg" width="32" height="32" viewBox="0 0 32 32">
<title>uniE641</title>
<path d="M32 8v24q-1.594 0-3.375-0.172t-3.57-0.516-3.5-0.836-3.148-1.148q-0.438-0.203-0.719-0.344t-0.516-0.281-0.5-0.297-0.672-0.406-0.672-0.406-0.5-0.297-0.516-0.273-0.719-0.336q-1.438-0.656-3.148-1.156t-3.5-0.844-3.57-0.516-3.375-0.172v-24q1.594 0 3.375 0.172t3.57 0.516 3.5 0.844 3.148 1.156q0.438 0.203 0.719 0.336t0.516 0.273 0.5 0.297 0.672 0.406 0.672 0.406 0.5 0.297 0.516 0.281 0.719 0.344q1.438 0.656 3.148 1.148t3.5 0.836 3.57 0.516 3.375 0.172zM9.953 3.469l-0.469 4.797q1.594 0.406 3.117 1t2.93 1.453l1.203-3.984q-0.484-0.25-0.938-0.516t-0.906-0.563q-1.141-0.75-2.383-1.273t-2.555-0.914zM6.047 22.531l0.484-4.875q-1.125-0.203-2.258-0.344t-2.273-0.219v4.984q1.031 0.063 2.031 0.172t2.016 0.281zM6.719 15.672l0.594-5.844q-1.328-0.266-2.648-0.453t-2.664-0.281v5.984q1.188 0.094 2.367 0.234t2.352 0.359zM7.516 7.813l0.484-4.859q-1.484-0.328-2.984-0.539t-3.016-0.32v4.984q1.391 0.109 2.766 0.289t2.75 0.445zM11.578 23.797l1.266-4.234q-1.047-0.484-2.133-0.852t-2.211-0.633l-0.484 4.813q0.906 0.172 1.789 0.406t1.773 0.5zM8.703 16.078q1.219 0.281 2.406 0.656t2.328 0.891l1.5-4.938q-0.016 0-0.023-0.008t-0.023-0.008q-1.359-0.813-2.719-1.391t-2.891-1zM22 28.516v-4.859q-1.891-0.5-3.68-1.203t-3.43-1.781q-0.063-0.031-0.117-0.070t-0.133-0.070l-1.188 3.938q0.969 0.391 1.875 0.852t1.781 1.023q1.125 0.75 2.359 1.273t2.531 0.898zM22 21.594v-5.938q-1.375-0.359-2.703-0.828t-2.594-1.109l-1.453 4.828q0.891 0.547 1.68 0.984t1.578 0.797 1.633 0.672 1.859 0.594zM22 13.594v-4.938q-0.875-0.219-1.727-0.492t-1.695-0.617l-1.281 4.219q1.125 0.594 2.305 1.039t2.398 0.789zM30 29.906v-4.984q-1.516-0.094-3.008-0.297t-2.992-0.5v4.906q1.484 0.344 2.984 0.555t3.016 0.32zM30 22.922v-6q-1.516-0.094-3.008-0.297t-2.992-0.5v5.969q1.5 0.313 2.992 0.516t3.008 0.313zM30 14.922v-5q-1.516-0.094-3.008-0.297t-2.992-0.5v4.953q2.938 0.625 6 0.844z"></path>
</svg>
