<!-- Generated by IcoMoon.io -->
<svg version="1.1" xmlns="http://www.w3.org/2000/svg" width="32" height="32" viewBox="0 0 32 32">
<title>uniE639</title>
<path d="M3 20q0.625 0 1.172 0.234t0.953 0.641 0.641 0.953 0.234 1.172-0.234 1.172-0.641 0.953-0.953 0.641-1.172 0.234-1.172-0.234-0.953-0.641-0.641-0.953-0.234-1.172 0.234-1.172 0.641-0.953 0.953-0.641 1.172-0.234zM3 24.203q0.5 0 0.852-0.352t0.352-0.852-0.352-0.852-0.852-0.352-0.852 0.352-0.352 0.852 0.352 0.852 0.852 0.352zM29 6q0.625 0 1.172 0.234t0.953 0.641 0.641 0.953 0.234 1.172-0.234 1.172-0.641 0.953-0.953 0.641-1.172 0.234-1.172-0.234-0.953-0.641-0.641-0.953-0.234-1.172 0.234-1.172 0.641-0.953 0.953-0.641 1.172-0.234zM29 10.203q0.5 0 0.852-0.352t0.352-0.852-0.352-0.852-0.852-0.352-0.852 0.352-0.352 0.852 0.352 0.852 0.852 0.352zM7.328 19.641l16.484-8.875q0.313 0.891 0.859 1.594l-16.484 8.875q-0.313-0.891-0.859-1.594z"></path>
</svg>
