<!-- Generated by IcoMoon.io -->
<svg version="1.1" xmlns="http://www.w3.org/2000/svg" width="32" height="32" viewBox="0 0 32 32">
<title>uniF812</title>
<path d="M2 0v2h-2v-2h2zM2 4v2h-2v-2h2zM2 8v2h-2v-2h2zM2 12v2h-2v-2h2zM2 16v2h-2v-2h2zM2 20v2h-2v-2h2zM2 24v2h-2v-2h2zM0 28h2v2h-2v-2zM2 32v-2h2v2h-2zM6 0v2h-2v-2h2zM6 32v-2h2v2h-2zM10 32v-2h2v2h-2zM10 0v2h-2v-2h2zM14 0v2h-2v-2h2zM18 0v2h-2v-2h2zM22 0v2h-2v-2h2zM24 4h-2v-2h2v2zM24 6v2h-2v-2h2zM22 12v-2h2v2h-2zM22 16v-2h2v2h-2zM18 20v-2h8v2h-8zM16 30h14v2h-16v-16h2v14zM18 22h6v2h-6v-2zM18 28v-2h10v2h-10z"></path>
</svg>
