<!-- Generated by IcoMoon.io -->
<svg version="1.1" xmlns="http://www.w3.org/2000/svg" width="32" height="32" viewBox="0 0 32 32">
<title>uniE63E</title>
<path d="M29.828 26l1.406 1.422-4.234 4.234-4.234-4.234 1.406-1.422 1.828 1.828v-22.469l-1.359 3.359-1.859-0.766 3.219-7.891v-0.063h2v27.828zM6.375 18.813l3.406-8.391 1.859 0.766-3.422 8.391zM4 24.641l1.359-3.344 1.859 0.75-3.219 7.891v0.063h-2v-30h2v24.641zM21.781 10.422l1.859 0.766-3.422 8.391-1.844-0.766zM16 24.641l1.359-3.344 1.859 0.75-3.219 7.891v0.063h-2v-24.641l-1.359 3.359-1.859-0.766 3.219-7.891v-0.063h2v24.641z"></path>
</svg>
