<!-- Generated by IcoMoon.io -->
<svg version="1.1" xmlns="http://www.w3.org/2000/svg" width="32" height="32" viewBox="0 0 32 32">
<title>uniE635</title>
<path d="M11.703 20.188q0.359 0.359 0.766 0.648t0.859 0.508l-2.359 3.25q-0.438-0.266-0.844-0.555t-0.781-0.633zM10.719 13.203q-0.484 0.922-0.625 1.906l-3.844-1.266q0.109-0.5 0.266-0.977t0.359-0.93zM17 10.109q-0.25-0.047-0.492-0.078t-0.508-0.031q-0.25 0-0.5 0.031l-0.5 0.063v-4l0.5-0.063t0.5-0.031q0.266 0 0.508 0.039t0.492 0.070v4zM21.281 13.203l3.844-1.266q0.203 0.453 0.359 0.93t0.266 0.977l-3.844 1.266q-0.141-0.984-0.625-1.906zM19.078 18.516q-0.641 0.797-1.609 1.188l-1.469-2-1.469 2q-0.469-0.188-0.883-0.484t-0.727-0.703l1.453-2-2.344-0.766q0.031-0.5 0.18-0.992t0.43-0.914l2.359 0.781v-2.484q0.25-0.063 0.492-0.102t0.508-0.039 0.508 0.039 0.492 0.102v2.484l2.359-0.781q0.281 0.422 0.43 0.914t0.18 0.992l-2.344 0.766zM16 0q2.203 0 4.25 0.57t3.82 1.617 3.234 2.508 2.508 3.234 1.617 3.82 0.57 4.25-0.57 4.25-1.617 3.82-2.508 3.234-3.234 2.508-3.82 1.617-4.25 0.57-4.25-0.57-3.82-1.617-3.234-2.508-2.508-3.234-1.617-3.82-0.57-4.25 0.57-4.25 1.617-3.82 2.508-3.234 3.234-2.508 3.82-1.617 4.25-0.57zM25.031 26.672q1.172-1 2.102-2.211t1.563-2.578 0.969-2.852 0.336-3.031q0-0.875-0.109-1.727t-0.328-1.695l-1.906 0.625q-0.125-0.484-0.266-0.961t-0.344-0.93l1.891-0.625q-0.75-1.844-1.969-3.367t-2.773-2.648-3.383-1.805-3.813-0.82v2l-0.5-0.031t-0.5-0.016-0.5 0.016l-0.5 0.031v-2q-1.984 0.141-3.813 0.82t-3.383 1.805-2.773 2.648-1.969 3.367l1.891 0.625q-0.203 0.453-0.344 0.93t-0.266 0.961l-1.906-0.625q-0.219 0.844-0.328 1.695t-0.109 1.727q0 1.547 0.336 3.031t0.969 2.852 1.563 2.578 2.102 2.211l1.172-1.609q0.734 0.641 1.625 1.172l-1.188 1.609q1.672 1.063 3.555 1.609t3.867 0.547 3.867-0.547 3.555-1.609l-1.188-1.609q0.438-0.266 0.836-0.563t0.789-0.609zM18.672 21.344q0.453-0.219 0.859-0.508t0.766-0.648l2.359 3.219q-0.375 0.344-0.781 0.633t-0.844 0.555z"></path>
</svg>
