<!-- Generated by IcoMoon.io -->
<svg version="1.1" xmlns="http://www.w3.org/2000/svg" width="32" height="32" viewBox="0 0 32 32">
<title>uniE633</title>
<path d="M21.031 27.922q-0.281-0.141-0.57-0.258t-0.586-0.242q0.297 0.125 0.586 0.242t0.57 0.258zM19.297 27.234l-0.172-0.047zM19.297 27.234q0.141 0.063 0.313 0.109-0.172-0.047-0.313-0.109zM19.75 27.391q0.063 0 0.125 0.031-0.031-0.016-0.063-0.016t-0.063-0.016zM19.75 27.391l-0.141-0.047zM31.797 6.391l-4.422 8.859q-2.328-1.172-4.844-1.82t-5.125-0.789l0.547-9.906q1.109 0.063 2.188 0.195t2.156 0.32l-0.047-0.016q0.156 0.078 0.359 0.086t0.375 0.055l-0.141-0.031q0.656 0.141 1.281 0.297t1.281 0.313l-0.203-0.047q0.484 0.109 0.961 0.266t0.945 0.297l-0.609-0.188q0.094 0.031 0.383 0.125t0.617 0.195 0.594 0.195 0.297 0.125l-0.047-0.031 0.156 0.063h-0.031q0.844 0.344 1.68 0.688t1.648 0.75zM31.797 6.391q-0.547-0.266-1.094-0.516t-1.094-0.469q0.547 0.219 1.094 0.469t1.094 0.516zM26.234 4.188q-0.031 0-0.125-0.031 0.094 0.031 0.125 0.031zM25.766 4.047q-0.031 0-0.125-0.031 0.094 0.031 0.125 0.031zM22.703 3.328l-0.188-0.047zM26.453 12.625l2.641-5.281q-2.266-0.891-4.547-1.539t-4.703-0.898l-0.328 5.922q3.578 0.453 6.938 1.797zM16.625 26.75l0.547-9.875q2.172 0.125 4.266 0.648t4.047 1.508l-4.438 8.891q-0.563-0.281-1.172-0.5-0.109-0.047-0.281-0.086t-0.352-0.086-0.344-0.094-0.242-0.094h0.047q-0.031 0-0.156-0.023t-0.156-0.039l0.031 0.016q-0.031-0.016-0.148-0.039t-0.258-0.047-0.266-0.047-0.172-0.023h0.063q-0.109 0-0.234-0.031v0l-0.266-0.031q-0.125-0.016-0.258-0.031t-0.258-0.016zM18.891 27.125v0zM19.047 19.078l-0.328 5.953q0.359 0.047 0.695 0.148t0.664 0.211l2.672-5.359q-1.766-0.641-3.703-0.953zM18.141 26.953v0zM14.047 2.734l0.547 9.906q-2.609 0.141-5.125 0.789t-4.844 1.82l-4.438-8.859q1.219-0.594 2.469-1.094t2.547-0.938l-0.313 0.109q2.234-0.734 4.523-1.172t4.633-0.563zM5.469 4.281q-0.063 0.031-0.117 0.039t-0.117 0.039q0.063-0.031 0.117-0.039t0.117-0.039zM5.547 12.625q3.359-1.344 6.938-1.797l-0.328-5.922q-2.422 0.25-4.703 0.898t-4.547 1.539zM6.516 19.031q1.953-0.984 4.047-1.508t4.266-0.648l0.547 9.875q-1.109 0.109-2.266 0.367t-2.141 0.805zM9.25 20.031l2.672 5.359q0.344-0.109 0.672-0.195t0.688-0.164l-0.328-5.953q-1.938 0.313-3.703 0.953z"></path>
</svg>
