<!-- Generated by IcoMoon.io -->
<svg version="1.1" xmlns="http://www.w3.org/2000/svg" width="32" height="32" viewBox="0 0 32 32">
<title>uniE63D</title>
<path d="M29 12q0.625 0 1.172 0.234t0.953 0.641 0.641 0.953 0.234 1.172-0.234 1.172-0.641 0.953-0.953 0.641-1.172 0.234q-0.859 0-1.578-0.453l-5.594 4.469q0.078 0.234 0.125 0.484t0.047 0.5q0 0.625-0.234 1.172t-0.641 0.953-0.953 0.641-1.172 0.234-1.172-0.234-0.953-0.641-0.641-0.953-0.234-1.172q0-0.641 0.258-1.203t0.711-1l-3.781-8.813q-0.047 0-0.094 0.008t-0.094 0.008q-0.859 0-1.578-0.453l-5.594 4.469q0.078 0.234 0.125 0.484t0.047 0.5q0 0.625-0.234 1.172t-0.641 0.953-0.953 0.641-1.172 0.234-1.172-0.234-0.953-0.641-0.641-0.953-0.234-1.172 0.234-1.172 0.641-0.953 0.953-0.641 1.172-0.234q0.859 0 1.578 0.453l5.594-4.469q-0.078-0.234-0.125-0.484t-0.047-0.5q0-0.625 0.234-1.172t0.641-0.953 0.953-0.641 1.172-0.234 1.172 0.234 0.953 0.641 0.641 0.953 0.234 1.172-0.258 1.203-0.711 1l3.781 8.813q0.047 0 0.094-0.008t0.094-0.008q0.859 0 1.578 0.453l5.594-4.469q-0.078-0.234-0.125-0.484t-0.047-0.5q0-0.625 0.234-1.172t0.641-0.953 0.953-0.641 1.172-0.234zM3 18.203q0.5 0 0.852-0.352t0.352-0.852-0.352-0.852-0.852-0.352-0.852 0.352-0.352 0.852 0.352 0.852 0.852 0.352zM13 10.203q0.5 0 0.852-0.352t0.352-0.852-0.352-0.852-0.852-0.352-0.852 0.352-0.352 0.852 0.352 0.852 0.852 0.352zM19 24.203q0.5 0 0.852-0.352t0.352-0.852-0.352-0.852-0.852-0.352-0.852 0.352-0.352 0.852 0.352 0.852 0.852 0.352zM29 16.203q0.5 0 0.852-0.352t0.352-0.852-0.352-0.852-0.852-0.352-0.852 0.352-0.352 0.852 0.352 0.852 0.852 0.352z"></path>
</svg>
