<!-- Generated by IcoMoon.io -->
<svg version="1.1" xmlns="http://www.w3.org/2000/svg" width="32" height="32" viewBox="0 0 32 32">
<title>uniE63F</title>
<path d="M11.188 11.625l-0.766-1.844 8.391-3.406 0.766 1.844zM21.281 5.359l3.359-1.359h-24.641v-2h30v2h-0.063l-7.891 3.219zM11.188 23.625l-0.766-1.844 8.391-3.406 0.766 1.844zM21.281 17.359l3.359-1.359h-24.641v-2h0.063l7.891-3.219 0.766 1.859-3.359 1.359h24.641v2h-0.063l-7.891 3.219zM27.422 22.766l4.234 4.234-4.234 4.234-1.422-1.406 1.828-1.828h-27.828v-2h0.063l7.891-3.219 0.766 1.859-3.359 1.359h22.469l-1.828-1.828z"></path>
</svg>
