<!-- Generated by IcoMoon.io -->
<svg version="1.1" xmlns="http://www.w3.org/2000/svg" width="32" height="32" viewBox="0 0 32 32">
<title>uniF08B</title>
<path d="M12 16h-2v-2h2v2zM20 16h-2v-2h2v2zM28 14v4h-2v5q0 0.625-0.234 1.172t-0.641 0.953-0.953 0.641-1.172 0.234h-4.125l-6.875 5.875v-5.875h-5q-0.625 0-1.172-0.234t-0.953-0.641-0.641-0.953-0.234-1.172v-5h-2v-4h2v-3q0-0.625 0.234-1.172t0.641-0.953 0.953-0.641 1.172-0.234h7v-3.266q-0.453-0.266-0.727-0.734t-0.273-1q0-0.422 0.156-0.781t0.43-0.633 0.633-0.43 0.781-0.156 0.781 0.156 0.633 0.43 0.43 0.633 0.156 0.781q0 0.531-0.273 1t-0.727 0.734v3.266h7q0.625 0 1.172 0.234t0.953 0.641 0.641 0.953 0.234 1.172v3h2zM24 11q0-0.406-0.297-0.703t-0.703-0.297h-16q-0.406 0-0.703 0.297t-0.297 0.703v12q0 0.406 0.297 0.703t0.703 0.297h7v3.531l4.125-3.531h4.875q0.406 0 0.703-0.297t0.297-0.703v-12zM10.703 18.219q0.859 0.859 1.969 1.32t2.328 0.461 2.328-0.461 1.969-1.32l1.406 1.422q-1.141 1.141-2.617 1.75t-3.086 0.609-3.086-0.609-2.617-1.75z"></path>
</svg>
