<!-- Generated by IcoMoon.io -->
<svg version="1.1" xmlns="http://www.w3.org/2000/svg" width="32" height="32" viewBox="0 0 32 32">
<title>uniECFE</title>
<path d="M27.531 24.844q1.031 0.5 1.852 1.258t1.406 1.688 0.898 2 0.313 2.211h-2q0-1.234-0.477-2.328t-1.289-1.906-1.906-1.289-2.328-0.477-2.328 0.477-1.906 1.289-1.289 1.906-0.477 2.328h-2q0-1.141 0.313-2.211t0.898-2 1.406-1.688 1.852-1.258q-1.172-0.844-1.82-2.117t-0.648-2.727q0-1.234 0.469-2.328t1.289-1.914 1.906-1.289 2.336-0.469q1.234 0 2.328 0.469t1.914 1.289 1.289 1.914 0.469 2.328q0 1.453-0.648 2.727t-1.82 2.117zM24 24q0.828 0 1.555-0.313t1.273-0.859 0.859-1.273 0.313-1.555-0.313-1.555-0.859-1.273-1.273-0.859-1.555-0.313-1.555 0.313-1.273 0.859-0.859 1.273-0.313 1.555 0.313 1.555 0.859 1.273 1.273 0.859 1.555 0.313zM32 2v16q0-0.75-0.141-1.313t-0.398-1.047-0.625-0.938-0.836-0.984v-9.719h-28v18h4v4.172l4.172-4.172h6.094q0.125 0.531 0.336 1.031t0.477 0.969h-6.078l-7 7v-7h-4v-22h32z"></path>
</svg>
