<!-- Generated by IcoMoon.io -->
<svg version="1.1" xmlns="http://www.w3.org/2000/svg" width="32" height="32" viewBox="0 0 32 32">
<title>uniF630</title>
<path d="M14.672 2.672q2.016 0 3.891 0.523t3.508 1.477 2.969 2.289 2.289 2.969 1.477 3.508 0.523 3.891-0.523 3.891-1.477 3.508-2.289 2.977-2.969 2.297-3.508 1.477-3.891 0.523q-2.031 0-3.906-0.523t-3.5-1.477-2.969-2.297-2.297-2.969-1.477-3.5-0.523-3.906q0-2.016 0.523-3.891t1.484-3.508 2.297-2.969 2.969-2.289 3.5-1.477 3.898-0.523zM14.672 29.859q1.734 0 3.336-0.445t2.992-1.266 2.531-1.961 1.961-2.531 1.266-2.992 0.445-3.336q0-1.719-0.445-3.32t-1.266-2.992-1.969-2.539-2.539-1.969-2.992-1.266-3.32-0.445q-1.734 0-3.336 0.445t-2.992 1.266-2.531 1.961-1.961 2.531-1.266 2.992-0.445 3.336 0.445 3.336 1.258 2.992 1.961 2.539 2.539 1.961 2.992 1.258 3.336 0.445zM18.672 13.328h2.656v10.672h-10.656v-2.672h6.109l-8.391-8.391 1.891-1.875 8.391 8.391v-6.125z"></path>
</svg>
