<!-- Generated by IcoMoon.io -->
<svg version="1.1" xmlns="http://www.w3.org/2000/svg" width="32" height="32" viewBox="0 0 32 32">
<title>uniF631</title>
<path d="M14.672 2.672q2.016 0 3.883 0.523t3.5 1.484 2.969 2.297 2.297 2.969 1.484 3.5 0.523 3.883-0.523 3.883-1.484 3.5-2.297 2.977-2.969 2.305-3.5 1.484-3.883 0.523-3.891-0.523-3.508-1.484-2.969-2.297-2.297-2.969-1.484-3.508-0.523-3.891 0.523-3.883 1.484-3.5 2.305-2.969 2.977-2.297 3.5-1.484 3.883-0.523zM21.328 24v-10.672h-2.656v5.641l-8.156-8.141-2.359 2.344 8.156 8.156h-5.641v2.672h10.656z"></path>
</svg>
