<!-- Generated by IcoMoon.io -->
<svg version="1.1" xmlns="http://www.w3.org/2000/svg" width="32" height="32" viewBox="0 0 32 32">
<title>uniE4AE</title>
<path d="M27.672 13.281l1.625-1.625q0.359 1.047 0.531 2.141t0.172 2.203q0 1.938-0.5 3.719t-1.414 3.336-2.195 2.836-2.836 2.195-3.344 1.414-3.711 0.5q-1.938 0-3.719-0.5t-3.336-1.414-2.836-2.195-2.195-2.836-1.414-3.344-0.5-3.711 0.5-3.711 1.414-3.344 2.195-2.836 2.836-2.195 3.344-1.414 3.711-0.5q2.625 0 5.031 0.945t4.359 2.711l-1.406 1.406q-1.656-1.469-3.703-2.266t-4.281-0.797q-1.656 0-3.188 0.43t-2.867 1.211-2.43 1.875-1.875 2.43-1.211 2.867-0.43 3.188 0.43 3.188 1.211 2.867 1.875 2.43 2.43 1.875 2.867 1.211 3.188 0.43 3.188-0.43 2.867-1.211 2.43-1.875 1.875-2.43 1.211-2.867 0.43-3.188q0-0.703-0.086-1.375t-0.242-1.344zM9.703 14.297l5.297 5.297 15.297-15.297 1.406 1.406-16.703 16.703-6.703-6.703z"></path>
</svg>
