<!-- Generated by IcoMoon.io -->
<svg version="1.1" xmlns="http://www.w3.org/2000/svg" width="32" height="32" viewBox="0 0 32 32">
<title>uniF4A2</title>
<path d="M30 11.078q0 0.406-0.297 0.703t-0.703 0.297h-17v5.922h13q0.406 0 0.703 0.297t0.297 0.703q0 1.797-0.461 3.461t-1.313 3.109-2.031 2.625-2.625 2.031-3.109 1.313-3.461 0.461-3.461-0.461-3.109-1.313-2.625-2.031-2.031-2.625-1.313-3.109-0.461-3.461q0-0.406 0.297-0.703t0.703-0.297h9v-5.922h-2v2.922q0 0.406-0.297 0.703t-0.703 0.297-0.703-0.297-0.297-0.703v-2.922h-3q-0.406 0-0.703-0.297t-0.297-0.703 0.297-0.703 0.703-0.297h3v-2.438l-0.625 0.125t-0.813 0.156-0.805 0.141-0.586 0.063q-0.406 0-0.703-0.297t-0.297-0.703q0-0.359 0.234-0.641t0.594-0.344l25.922-4.563q0.063-0.016 0.172-0.016 0.406 0 0.703 0.297t0.297 0.703q0 0.359-0.234 0.641t-0.594 0.344l-17.266 3.047v3.484h17q0.406 0 0.703 0.297t0.297 0.703zM13 30q2.125 0 4.031-0.766t3.383-2.109 2.414-3.172 1.125-3.953h-21.906q0.188 2.125 1.125 3.953t2.414 3.172 3.383 2.109 4.031 0.766zM8 10.078h2v-3.141l-2 0.359v2.781z"></path>
</svg>
