<!-- Generated by IcoMoon.io -->
<svg version="1.1" xmlns="http://www.w3.org/2000/svg" width="32" height="32" viewBox="0 0 32 32">
<title>uniEAED</title>
<path d="M17 15.375q0.703 0.359 1.422 0.789t1.289 0.984 0.93 1.258 0.359 1.594-0.297 1.703-0.828 1.461-1.266 1.102-1.609 0.641v2.094h-2v-2.094q-1.125-0.188-2.086-0.789t-1.68-1.477l1.531-1.281q0.438 0.531 1 0.93t1.234 0.57v-6.234q-0.703-0.359-1.422-0.789t-1.289-0.984-0.93-1.258-0.359-1.594 0.297-1.703 0.828-1.461 1.266-1.102 1.609-0.641v-2.094h2v2.094q1.125 0.188 2.086 0.789t1.68 1.477l-1.531 1.281q-0.438-0.531-1-0.93t-1.234-0.57v6.234zM13 12q0 0.406 0.195 0.758t0.492 0.656 0.648 0.547 0.664 0.414v-5.203q-0.453 0.156-0.82 0.438t-0.633 0.656-0.406 0.82-0.141 0.914zM17 22.828q0.438-0.156 0.813-0.445t0.633-0.664 0.406-0.813 0.148-0.906q0-0.391-0.195-0.75t-0.492-0.664-0.648-0.547-0.664-0.414v5.203zM16 0q2.203 0 4.25 0.57t3.828 1.609 3.242 2.5 2.5 3.242 1.609 3.828 0.57 4.25-0.57 4.25-1.609 3.828-2.5 3.242-3.242 2.5-3.828 1.609-4.25 0.57-4.25-0.57-3.828-1.609-3.242-2.5-2.5-3.242-1.609-3.82-0.57-4.258q0-2.203 0.57-4.25t1.609-3.828 2.5-3.242 3.242-2.5 3.82-1.609 4.258-0.57zM16 30q1.922 0 3.711-0.5t3.344-1.414 2.836-2.195 2.195-2.836 1.414-3.336 0.5-3.719q0-1.922-0.5-3.711t-1.414-3.344-2.195-2.836-2.836-2.195-3.344-1.414-3.711-0.5-3.711 0.5-3.344 1.414-2.836 2.195-2.195 2.836-1.414 3.344-0.5 3.711 0.5 3.711 1.414 3.344 2.195 2.836 2.836 2.195 3.336 1.414 3.719 0.5z"></path>
</svg>
