<!-- Generated by IcoMoon.io -->
<svg version="1.1" xmlns="http://www.w3.org/2000/svg" width="32" height="32" viewBox="0 0 32 32">
<title>uniF2E3</title>
<path d="M15 0q2.078 0 3.992 0.531t3.586 1.508 3.039 2.344 2.344 3.039 1.508 3.586 0.531 3.992-0.531 3.992-1.508 3.586-2.344 3.039-3.039 2.344-3.586 1.508-3.992 0.531-3.992-0.531-3.586-1.508-3.039-2.344-2.344-3.039-1.508-3.586-0.531-3.992 0.531-3.992 1.508-3.586 2.344-3.039 3.039-2.344 3.586-1.508 3.992-0.531zM15 28q1.797 0 3.453-0.469t3.102-1.313 2.633-2.031 2.031-2.633 1.313-3.102 0.469-3.453-0.469-3.453-1.313-3.102-2.031-2.633-2.633-2.031-3.102-1.313-3.453-0.469-3.453 0.469-3.102 1.313-2.633 2.031-2.031 2.633-1.313 3.102-0.469 3.453 0.469 3.453 1.313 3.102 2.031 2.633 2.633 2.031 3.102 1.313 3.453 0.469zM16 14h8v2h-8v8h-2v-8h-8v-2h8v-8h2v8z"></path>
</svg>
