<!-- Generated by IcoMoon.io -->
<svg version="1.1" xmlns="http://www.w3.org/2000/svg" width="32" height="32" viewBox="0 0 32 32">
<title>uniF488</title>
<path d="M32 6v6q0 0.266-0.086 0.523t-0.227 0.477q0.141 0.219 0.227 0.477t0.086 0.523v4q0 0.266-0.086 0.523t-0.227 0.477q0.141 0.219 0.227 0.477t0.086 0.523v6q0 0.422-0.156 0.781t-0.43 0.633-0.633 0.43-0.781 0.156h-2q0 0.422-0.156 0.781t-0.43 0.633-0.633 0.43-0.781 0.156h-6v2l-20-3.5v-25l20-3.5v2h6q0.422 0 0.781 0.156t0.633 0.43 0.43 0.633 0.156 0.781h2q0.422 0 0.781 0.156t0.633 0.43 0.43 0.633 0.156 0.781zM16.234 24.25v-16.516l-3.531 0.203q0 2.516 0.008 4.992t0.008 4.992q-0.063-0.078-0.109-0.172l-0.094-0.188-5.344-9.313-3.422 0.188v15.125l3.156 0.172v-8.086t-0.008-0.969-0.016-0.5-0.008-0.258l5.719 10.125zM30 26v-6h-2v6h2zM30 18v-4h-2v4h2zM30 12v-6h-4v-2h-6v14h4v2h-4v2h4v2h-4v4h6v-16h4zM22 11.813q-0.453-0.156-0.82-0.438t-0.625-0.648-0.406-0.813-0.148-0.914q0-0.625 0.234-1.172t0.641-0.953 0.953-0.641 1.172-0.234 1.172 0.234 0.953 0.641 0.641 0.953 0.234 1.172q0 0.469-0.148 0.914t-0.406 0.813-0.633 0.648-0.813 0.438v4.188h-2v-4.188zM22 8v2h2v-2h-2z"></path>
</svg>
