<!-- Generated by IcoMoon.io -->
<svg version="1.1" xmlns="http://www.w3.org/2000/svg" width="32" height="32" viewBox="0 0 32 32">
<title>uniF48B</title>
<path d="M0 28.5v-25l18-3.5v32zM2.766 8.438v15.125l3.141 0.172q0-2.469-0.008-4.906t-0.008-4.906l5.719 10.125 3.625 0.203v-16.516l-3.516 0.203v9.984q-0.016-0.031-0.055-0.102t-0.211-0.359-0.508-0.883-0.945-1.656-1.547-2.688-2.281-3.984zM30.5 12q0.25 0 0.523 0.078t0.484 0.234 0.352 0.375 0.141 0.516v3.594q0 0.297-0.141 0.523t-0.352 0.375-0.484 0.227-0.523 0.078h-0.5v-6h0.5zM30.5 20q0.25 0 0.523 0.078t0.484 0.234 0.352 0.375 0.141 0.516v3.594q0 0.297-0.141 0.523t-0.352 0.375-0.484 0.227-0.523 0.078h-0.5v-6h0.5zM24 8v2h-2v-2h2zM32 5.203v3.594q0 0.297-0.141 0.523t-0.352 0.375-0.484 0.227-0.523 0.078h-2.5v18q0 0.406-0.156 0.773t-0.43 0.641-0.641 0.43-0.773 0.156h-6v-6h4v-2h-4v-2h4v-2h-4v-9q0 0.469 0.148 0.914t0.406 0.813 0.625 0.648 0.82 0.438v4.188h2v-4.188q0.438-0.156 0.813-0.438t0.633-0.648 0.406-0.813 0.148-0.914q0-0.625-0.234-1.172t-0.641-0.953-0.953-0.641-1.172-0.234-1.172 0.234-0.953 0.641-0.641 0.953-0.234 1.172v-7h6q0.406 0 0.773 0.156t0.641 0.43 0.43 0.641 0.156 0.773h2.5q0.25 0 0.523 0.078t0.484 0.234 0.352 0.375 0.141 0.516z"></path>
</svg>
