<!-- Generated by IcoMoon.io -->
<svg version="1.1" xmlns="http://www.w3.org/2000/svg" width="32" height="32" viewBox="0 0 32 32">
<title>uniF486</title>
<path d="M31 6v6q0 0.281-0.125 0.5 0.125 0.219 0.125 0.5v6q0 0.281-0.125 0.5 0.125 0.219 0.125 0.5v6q0 0.406-0.297 0.703t-0.703 0.297h-1q0 0.406-0.297 0.703t-0.703 0.297h-9v3.125l-18-3.141v-23.875l18-3.234v3.125h9q0.406 0 0.703 0.297t0.297 0.703h1q0.406 0 0.703 0.297t0.297 0.703zM14.016 21.828v-11.969l-2.25 0.125v8.031l-4.469-7.781-2.281 0.078v11.031l1.797 0.094v-8.094l4.797 8.344zM30 26v-6h-1v6h1zM30 19v-6h-1v6h1zM30 12v-6h-2v-1h-9v15h6v1h-6v2h6v1h-6v3h9v-15h2zM26.406 8.875v0.906l0.594 0.781-0.594 0.781v0.891l-0.781 0.453-0.453 0.781h-0.188v3.641l-1.516-1.328-1.453 1.328v-3.641h-0.219l-0.453-0.781-0.781-0.453v-0.891l-0.563-0.781 0.563-0.781v-0.906l0.781-0.453 0.453-0.781h0.906l0.781-0.563 0.781 0.563h0.906l0.453 0.781zM23.484 12q0.297 0 0.578-0.133t0.484-0.344 0.328-0.492 0.125-0.578-0.125-0.57-0.328-0.477-0.484-0.32-0.578-0.117q-0.313 0-0.594 0.117t-0.492 0.32-0.336 0.477-0.125 0.57 0.125 0.578 0.336 0.492 0.492 0.344 0.594 0.133z"></path>
</svg>
