<!-- Generated by IcoMoon.io -->
<svg version="1.1" xmlns="http://www.w3.org/2000/svg" width="32" height="32" viewBox="0 0 32 32">
<title>uniEDC8</title>
<path d="M1 4.25l18-3.203v29.906l-18-3.109v-23.594zM5.375 21.281l1.688 0.094v-5.891q0-0.516 0.016-1.047t-0.016-1.063l4.531 8.25 2.266 0.141v-11.844l-2.125 0.125v7.938l-4.203-7.688-2.156 0.094v10.891zM31.313 19.766q0.266 0 0.477 0.211t0.211 0.477v4.813q0 0.266-0.211 0.477t-0.477 0.211h-1.141v-6.188h1.141zM31.125 6.313q0.359 0 0.617 0.258t0.258 0.617v4.406q0 0.313-0.219 0.516t-0.516 0.203h-1.594v14.453q0 0.359-0.266 0.625t-0.625 0.266h-8.781v-3.672h7.672v-1.328h-7.672v-1.672h7.672v-1.344h-7.672v-15.328h8.609q0.438 0 0.664 0.195t0.313 0.5 0.086 0.656v0.648h1.453zM28.25 10.141l-0.891-0.906 0.188-1.25-1.25-0.219-0.594-1.125-1.141 0.563-1.141-0.563-0.594 1.125-1.25 0.219 0.172 1.25-0.875 0.906 0.875 0.922-0.172 1.25 1.219 0.219 0.203 0.438v4.063l1.5-1.516 1.5 1.516v-4.063l0.266-0.438 1.266-0.219-0.172-1.25zM24.563 8.547q0.328 0 0.617 0.125t0.508 0.344 0.344 0.508 0.125 0.617-0.125 0.617-0.344 0.508-0.508 0.344-0.617 0.125-0.617-0.125-0.508-0.344-0.344-0.508-0.125-0.617 0.125-0.617 0.344-0.508 0.508-0.344 0.617-0.125zM31.313 12.891q0.266 0 0.477 0.211t0.211 0.477v4.813q0 0.266-0.211 0.477t-0.477 0.211h-1.141v-6.188h1.141z"></path>
</svg>
