<!-- Generated by IcoMoon.io -->
<svg version="1.1" xmlns="http://www.w3.org/2000/svg" width="32" height="32" viewBox="0 0 32 32">
<title>uniF48A</title>
<path d="M1 27.984v-23.875l18-3.234v30.25zM5.016 10.313v11.031l1.797 0.094v-8.094l4.797 8.344 2.406 0.141v-11.969l-2.266 0.125v4.016t0.016 4.016l-4.469-7.781zM30.594 13q0.203 0 0.305 0.195t0.102 0.367v3.875q0 0.172-0.102 0.367t-0.305 0.195h-0.594v-5h0.594zM30.594 19q0.203 0 0.305 0.195t0.102 0.367v3.875q0 0.172-0.102 0.367t-0.305 0.195h-0.594v-5h0.594zM31 11.672q0 0.203-0.047 0.266t-0.266 0.063h-1.688v14.203q0 0.109-0.039 0.25t-0.109 0.258-0.172 0.203-0.227 0.086h-8.453v-3h6v-1h-6v-2h6v-1h-6v-15h8.453q0.313 0 0.43 0.266t0.117 0.531v1.203h1.688q0.219 0 0.266 0.055t0.047 0.273v4.344zM27.391 11.344l0.609-0.781-0.609-0.781v-0.906l-0.766-0.453-0.453-0.781h-0.906l-0.781-0.563-0.781 0.563h-0.906l-0.438 0.781-0.781 0.453v0.906l-0.578 0.781 0.578 0.781v0.891l0.781 0.453 0.438 0.781h0.219v3.641l1.453-1.328 1.516 1.328v-3.641h0.188l0.453-0.781 0.766-0.453v-0.891zM24.484 8.969q0.297 0 0.578 0.117t0.484 0.313 0.328 0.469 0.125 0.586-0.125 0.586-0.328 0.492-0.484 0.344-0.578 0.125q-0.313 0-0.586-0.125t-0.492-0.344-0.344-0.492-0.125-0.586 0.125-0.586 0.344-0.469 0.492-0.313 0.586-0.117z"></path>
</svg>
