<!-- Generated by IcoMoon.io -->
<svg version="1.1" xmlns="http://www.w3.org/2000/svg" width="32" height="32" viewBox="0 0 32 32">
<title>uniEF75</title>
<path d="M15 0q0.25 0 0.609 0.156t0.719 0.375 0.688 0.453 0.516 0.391q1.063 0.828 2.188 1.922t2.172 2.359 1.977 2.664 1.625 2.859 1.102 2.938 0.406 2.883q0 2.5-0.797 4.484t-2.242 3.383-3.477 2.188-4.484 0.898v4.047h-2v-4.047q-2.469-0.109-4.492-0.898t-3.469-2.188-2.242-3.383-0.797-4.484q0-1.406 0.406-2.883t1.102-2.938 1.625-2.859 1.977-2.664 2.164-2.359 2.195-1.922q0.188-0.156 0.516-0.391t0.688-0.453 0.711-0.375 0.617-0.156zM14 3q-0.984 0.703-2.031 1.672t-2.047 2.102-1.891 2.398-1.57 2.586-1.070 2.648-0.391 2.594q0 2.078 0.641 3.695t1.813 2.75 2.836 1.766 3.711 0.742v-22.953zM16 11.188q0.75-0.047 1.508-0.273t1.461-0.586 1.328-0.844 1.141-1.031q-1.156-1.516-2.516-2.922t-2.922-2.531v8.188zM16 17.125q1.125 0 2.297-0.227t2.266-0.68 2.047-1.148 1.625-1.633q-0.406-1.031-0.938-1.992t-1.156-1.867q-0.578 0.609-1.289 1.148t-1.508 0.945-1.648 0.656-1.695 0.313v4.484zM16 25.953q2.047-0.109 3.711-0.742t2.836-1.758 1.813-2.742 0.641-3.711q0-0.547-0.117-0.977t-0.289-0.93q-0.781 0.891-1.789 1.523t-2.141 1.047-2.328 0.617-2.336 0.219v7.453z"></path>
</svg>
