<!-- Generated by IcoMoon.io -->
<svg version="1.1" xmlns="http://www.w3.org/2000/svg" width="32" height="32" viewBox="0 0 32 32">
<title>uniE8E6</title>
<path d="M26.766 14q1.078 0 2.031 0.414t1.664 1.125 1.125 1.672 0.414 2.039q0 1.031-0.391 1.992t-1.141 1.711l-7.016 7-1.406-1.406 7-7.016q0.453-0.453 0.703-1.047t0.25-1.234q0-0.672-0.258-1.258t-0.703-1.031-1.031-0.703-1.258-0.258q-0.641 0-1.234 0.25t-1.047 0.703l-3.047 3.047h2.578v2h-6v-6h2v2.578q0.734-0.734 1.453-1.547t1.523-1.484 1.727-1.109 2.063-0.438zM28 12h-2v-2h2v2zM28 8h-2v-2h2v2zM28 4h-2v-2h2v2zM24 4h-2v-2h2v2zM20 4h-2v-2h2v2zM14 2h2v2h-2v-2zM10 2h2v2h-2v-2zM6 2h2v2h-2v-2zM2 2h2v2h-2v-2zM2 6h2v2h-2v-2zM2 10h2v2h-2v-2zM2 14h2v2h-2v-2zM2 18h2v2h-2v-2zM2 22h2v2h-2v-2zM2 26h2v2h-2v-2zM6 26h2v2h-2v-2zM10 26h2v2h-2v-2zM14 26h2v2h-2v-2zM18 26h2v2h-2v-2z"></path>
</svg>
