<!-- Generated by IcoMoon.io -->
<svg version="1.1" xmlns="http://www.w3.org/2000/svg" width="32" height="32" viewBox="0 0 32 32">
<title>uniEA48</title>
<path d="M7.234 14q-1.078 0-2.031 0.414t-1.664 1.125-1.125 1.672-0.414 2.039q0 1.031 0.391 1.992t1.141 1.711l7.016 7 1.406-1.406-7-7.016q-0.453-0.453-0.703-1.047t-0.25-1.234q0-0.672 0.258-1.258t0.703-1.031 1.031-0.703 1.258-0.258q0.641 0 1.234 0.25t1.047 0.703l3.047 3.047h-2.578v2h6v-6h-2v2.578q-0.734-0.734-1.453-1.547t-1.523-1.484-1.727-1.109-2.063-0.438zM6 12h2v-2h-2v2zM6 8h2v-2h-2v2zM6 4h2v-2h-2v2zM10 4h2v-2h-2v2zM14 4h2v-2h-2v2zM20 2h-2v2h2v-2zM24 2h-2v2h2v-2zM28 2h-2v2h2v-2zM32 2h-2v2h2v-2zM32 6h-2v2h2v-2zM32 10h-2v2h2v-2zM32 14h-2v2h2v-2zM32 18h-2v2h2v-2zM32 22h-2v2h2v-2zM32 26h-2v2h2v-2zM28 26h-2v2h2v-2zM24 26h-2v2h2v-2zM20 26h-2v2h2v-2zM16 26h-2v2h2v-2z"></path>
</svg>
