<!-- Generated by IcoMoon.io -->
<svg version="1.1" xmlns="http://www.w3.org/2000/svg" width="32" height="32" viewBox="0 0 32 32">
<title>uniEDDD</title>
<path d="M19.422 30h6.578v2h-15.422l-3.875-3.875q-0.422-0.422-0.648-0.977t-0.227-1.148 0.227-1.148 0.648-0.977l6.797-6.797-1.016-3.078h-6.969l-1.328 4h-2.188l6-18h2l5.141 15.438 5.859-5.844 9.406 9.406zM11.813 12l-2.813-8.438-2.813 8.438h5.625zM21 12.406l-8.594 8.594 6.594 6.594 8.594-8.594zM16.578 30l1.016-1-6.594-6.594-2.875 2.891q-0.297 0.297-0.297 0.703t0.297 0.703l3.297 3.297h5.156z"></path>
</svg>
