<!-- Generated by IcoMoon.io -->
<svg version="1.1" xmlns="http://www.w3.org/2000/svg" width="32" height="32" viewBox="0 0 32 32">
<title>uniF268</title>
<path d="M25.844 27.531q-1.469 0.719-2.898 1.445t-2.898 1.445l-2.156-4.313-3.891 3.891v-20.828q3.641 3.609 7.211 7.203t7.195 7.219h-4.531zM20.625 21.594h2.969l-7.594-7.594v11.172l2.438-2.438 2.516 5.016 2.203-1.109zM19 8q-0.406 0-0.703-0.297t-0.297-0.703 0.297-0.703l2-2q0.297-0.297 0.703-0.297t0.703 0.297 0.297 0.703-0.297 0.703l-2 2q-0.297 0.297-0.703 0.297zM10 11q0 0.406-0.297 0.703t-0.703 0.297h-3q-0.406 0-0.703-0.297t-0.297-0.703 0.297-0.703 0.703-0.297h3q0.406 0 0.703 0.297t0.297 0.703zM10 7q-0.406 0-0.703-0.297l-2-2q-0.297-0.297-0.297-0.703t0.297-0.703 0.703-0.297 0.703 0.297l2 2q0.297 0.297 0.297 0.703t-0.297 0.703-0.703 0.297zM8 17q0-0.406 0.297-0.703l2-2q0.297-0.297 0.703-0.297t0.703 0.297 0.297 0.703-0.297 0.703l-2 2q-0.297 0.297-0.703 0.297t-0.703-0.297-0.297-0.703zM15 6q-0.406 0-0.703-0.297t-0.297-0.703v-3q0-0.406 0.297-0.703t0.703-0.297 0.703 0.297 0.297 0.703v3q0 0.406-0.297 0.703t-0.703 0.297z"></path>
</svg>
