<!-- Generated by IcoMoon.io -->
<svg version="1.1" xmlns="http://www.w3.org/2000/svg" width="32" height="32" viewBox="0 0 32 32">
<title>uniE54B</title>
<path d="M6 6v24h4v2h-6v-28h8q0-0.828 0.313-1.555t0.859-1.273 1.273-0.859 1.555-0.313 1.555 0.313 1.273 0.859 0.859 1.273 0.313 1.555h8v10h-2v-8h-2v4h-16v-4h-2zM10 6v2h12v-2h-4v-2q0-0.422-0.164-0.789t-0.445-0.633-0.641-0.422-0.75-0.156q-0.422 0-0.781 0.164t-0.633 0.438-0.43 0.641-0.156 0.758v2h-4zM12 16h20v16h-20v-16zM30 30v-4h-5.484l-1.484-1.547-3.156 4.219-3.391-5.328-0.969 1.656h-1.516v5h16zM30 24v-6h-16v5h0.391l2.031-3.453 3.578 5.625 2.813-3.75 2.516 2.578h4.672z"></path>
</svg>
