<!-- Generated by IcoMoon.io -->
<svg version="1.1" xmlns="http://www.w3.org/2000/svg" width="32" height="32" viewBox="0 0 32 32">
<title>uniE4EF</title>
<path d="M28 26h4v2h-4v4h-2v-4h-4v-2h4v-4h2v4zM24 16h-12v-2h12v2zM12 22v-2h8v2h-8zM6 6v24h14v2h-16v-28h8q0-0.828 0.313-1.555t0.859-1.273 1.273-0.859 1.555-0.313 1.555 0.313 1.273 0.859 0.859 1.273 0.313 1.555h8v16h-2v-14h-2v4h-16v-4h-2zM10 6v2h12v-2h-4v-2q0-0.625-0.328-1.102t-0.891-0.742q-0.359-0.156-0.781-0.156t-0.781 0.156q-0.563 0.266-0.891 0.742t-0.328 1.102v2h-4zM12 28v-2h8v2h-8zM10 14v2h-2v-2h2zM8 28v-2h2v2h-2zM10 20v2h-2v-2h2z"></path>
</svg>
