<!-- Generated by IcoMoon.io -->
<svg version="1.1" xmlns="http://www.w3.org/2000/svg" width="32" height="32" viewBox="0 0 32 32">
<title>uniE4F0</title>
<path d="M26 32v-2h2v2h-2zM31 22q0 0.922-0.297 1.508t-0.727 1.039-0.914 0.875-0.844 1.016q-0.156 0.25-0.195 0.523t-0.039 0.539q0 0.125 0.008 0.25t0.008 0.25h-2v-0.75q0-0.719 0.219-1.266t0.555-0.984 0.727-0.789 0.727-0.695 0.555-0.703 0.219-0.813q0-0.422-0.156-0.781t-0.43-0.633-0.633-0.43-0.781-0.156-0.781 0.156-0.633 0.43-0.43 0.633-0.156 0.781h-2q0-0.828 0.313-1.555t0.859-1.273 1.273-0.859 1.555-0.313 1.555 0.313 1.273 0.859 0.859 1.273 0.313 1.555zM24 14v2h-12v-2h12zM12 22v-2h8.844q-0.156 0.484-0.25 0.984t-0.094 1.016h-8.5zM12 28v-2h11.625q-0.078 0.406-0.102 0.813t-0.023 0.813v0.375h-11.5zM6 6v24h17.5v2h-19.5v-28h8q0-0.828 0.313-1.555t0.859-1.273 1.273-0.859 1.555-0.313 1.555 0.313 1.273 0.859 0.859 1.273 0.313 1.555h8v11.594l-0.5-0.063t-0.5-0.031-0.5 0.031l-0.5 0.063v-9.594h-2v4h-16v-4h-2zM10 6v2h12v-2h-4v-2q0-0.625-0.328-1.102t-0.891-0.742q-0.359-0.156-0.781-0.156t-0.781 0.156q-0.563 0.266-0.891 0.742t-0.328 1.102v2h-4zM10 14v2h-2v-2h2zM8 28v-2h2v2h-2zM10 20v2h-2v-2h2z"></path>
</svg>
