<!-- Generated by IcoMoon.io -->
<svg version="1.1" xmlns="http://www.w3.org/2000/svg" width="32" height="32" viewBox="0 0 32 32">
<title>uniE4F1</title>
<path d="M32 28q0 0.828-0.313 1.555t-0.859 1.273-1.273 0.859-1.555 0.313v-2q0.422 0 0.781-0.156t0.633-0.43 0.43-0.633 0.156-0.781-0.156-0.781-0.43-0.633-0.633-0.43-0.781-0.156h-4.578l2.531 2.547-1.406 1.406-4.953-4.953 4.953-4.953 1.406 1.406-2.531 2.547h4.578q0.797 0 1.531 0.305t1.297 0.867 0.867 1.297 0.305 1.531zM21.063 20l-2 2h-7.063v-2h9.063zM12 28v-2h5.063l2 2h-7.063zM24 14v2h-12v-2h12zM10 14v2h-2v-2h2zM10 20v2h-2v-2h2zM8 28v-2h2v2h-2zM6 30h15.063l2 2h-19.063v-28h8q0-0.828 0.313-1.555t0.859-1.273 1.273-0.859 1.555-0.313 1.555 0.313 1.273 0.859 0.859 1.273 0.313 1.555h8v15.969l-2-2v-11.969h-2v4h-16v-4h-2v24zM10 6v2h12v-2h-4v-2q0-0.625-0.328-1.102t-0.891-0.742q-0.359-0.156-0.781-0.156t-0.781 0.156q-0.563 0.266-0.891 0.742t-0.328 1.102v2h-4z"></path>
</svg>
