<!-- Generated by IcoMoon.io -->
<svg version="1.1" xmlns="http://www.w3.org/2000/svg" width="32" height="32" viewBox="0 0 32 32">
<title>uniF0E4</title>
<path d="M4 4v28h24v-28h-8q0-0.828-0.313-1.555t-0.859-1.273-1.273-0.859-1.555-0.313-1.555 0.313-1.273 0.859-0.859 1.273-0.313 1.555h-8zM22 8h-12v-2h4v-2q0-0.422 0.156-0.781t0.43-0.633 0.633-0.43 0.781-0.156 0.781 0.156 0.633 0.43 0.43 0.633 0.156 0.781v2h4v2zM6 6h2v4h16v-4h2v24h-20v-24zM20 14h-12v2h12v-2zM20 20h-12v2h12v-2zM20 26h-12v2h12v-2zM24 14h-2v2h2v-2zM24 20h-2v2h2v-2zM24 26h-2v2h2v-2z"></path>
</svg>
