<!-- Generated by IcoMoon.io -->
<svg version="1.1" xmlns="http://www.w3.org/2000/svg" width="32" height="32" viewBox="0 0 32 32">
<title>uniE917</title>
<path d="M16 32q-1.938 0-3.727-0.5t-3.344-1.414-2.828-2.188-2.188-2.828-1.414-3.344-0.5-3.727 0.5-3.727 1.414-3.344 2.188-2.828 2.828-2.188 3.344-1.414 3.727-0.5 3.727 0.5 3.344 1.414 2.828 2.188 2.188 2.828 1.414 3.344 0.5 3.727-0.5 3.727-1.414 3.344-2.188 2.828-2.828 2.188-3.344 1.414-3.727 0.5zM16 6q-2.484 0-4.664 0.945t-3.813 2.578-2.578 3.813-0.945 4.664 0.945 4.664 2.578 3.813 3.813 2.578 4.664 0.945 4.664-0.945 3.813-2.578 2.578-3.813 0.945-4.664-0.945-4.664-2.578-3.813-3.813-2.578-4.664-0.945zM16 18v-8h-2v10h8v-2h-6z"></path>
</svg>
