<!-- Generated by IcoMoon.io -->
<svg version="1.1" xmlns="http://www.w3.org/2000/svg" width="32" height="32" viewBox="0 0 32 32">
<title>uniEF84</title>
<path d="M30 2v22h-12v8l-6-8h-12v-22h30zM15 20.953q0.469 0 1.258-0.016t1.727-0.070 1.938-0.141 1.883-0.242 1.57-0.383 1-0.539q0.266-0.266 0.469-0.75t0.352-1.086 0.258-1.281 0.172-1.32 0.094-1.195 0.031-0.93q0-0.359-0.031-0.922t-0.094-1.211-0.172-1.328-0.266-1.297-0.359-1.102-0.453-0.75q-0.297-0.297-0.977-0.508t-1.57-0.359-1.906-0.242-1.953-0.148-1.727-0.070-1.242-0.016-1.242 0.016-1.727 0.070-1.953 0.148-1.906 0.242-1.57 0.359-0.977 0.508q-0.266 0.266-0.469 0.75t-0.352 1.094-0.258 1.289-0.172 1.328-0.094 1.203-0.031 0.93 0.031 0.93 0.094 1.203 0.164 1.32 0.258 1.281 0.359 1.094 0.469 0.75q0.234 0.234 0.68 0.414t0.945 0.305 0.992 0.203 0.805 0.125q1.484 0.188 2.969 0.266t2.984 0.078z"></path>
</svg>
