<!-- Generated by IcoMoon.io -->
<svg version="1.1" xmlns="http://www.w3.org/2000/svg" width="32" height="32" viewBox="0 0 32 32">
<title>uniE5EA</title>
<path d="M19.422 22l-0.797 2h-10.625q-1.672 0-3.125-0.625t-2.539-1.711-1.711-2.539-0.625-3.125q0-1.656 0.625-3.117t1.711-2.547 2.547-1.711 3.117-0.625q0.719 0 1.453 0.141 1.297-1.969 3.234-3.055t4.313-1.086q1.734 0 3.273 0.609t2.727 1.68 1.961 2.531 0.992 3.18q0.953 0 1.844 0.281t1.648 0.805 1.328 1.266 0.867 1.648h-2.203q-0.406-0.688-0.883-1.086t-1.023-0.602-1.156-0.258-1.281-0.055h-1.094v-0.219q0-0.469-0.008-0.906t-0.063-0.859-0.164-0.852-0.313-0.898q-0.422-0.969-1.078-1.758t-1.5-1.344-1.828-0.859-2.047-0.305q-1.078 0-2.094 0.328t-1.883 0.93-1.523 1.438-1.031 1.852q-1.172-0.547-2.469-0.547-1.25 0-2.344 0.469t-1.906 1.281-1.281 1.906-0.469 2.344 0.469 2.344 1.281 1.906 1.906 1.281 2.344 0.469h11.422zM26 18h6v6h-6v-2h-1.719l-3.203 8h-3.078v2h-6v-6h6v2h1.719l3.203-8h3.078v-2zM16 30v-2h-2v2h2zM30 22v-2h-2v2h2z"></path>
</svg>
