<!-- Generated by IcoMoon.io -->
<svg version="1.1" xmlns="http://www.w3.org/2000/svg" width="32" height="32" viewBox="0 0 32 32">
<title>uniE9BF</title>
<path d="M27.516 16.188q1 0.281 1.82 0.836t1.414 1.313 0.922 1.695 0.328 1.969q0 1.25-0.469 2.336t-1.289 1.906-1.914 1.289-2.328 0.469h-17q-1.453 0-2.727-0.547t-2.227-1.5-1.5-2.227-0.547-2.727q0-1.172 0.375-2.25-1.109-0.844-1.742-2.094t-0.633-2.656q0-1.234 0.469-2.328t1.289-1.914 1.906-1.289 2.336-0.469q0.172 0 0.336 0.008t0.336 0.023q0.422-0.938 1.086-1.68t1.484-1.266 1.781-0.805 1.977-0.281q1.313 0 2.492 0.461t2.109 1.266 1.547 1.914 0.789 2.406q1.313 0.125 2.508 0.633t2.188 1.32 1.734 1.875 1.148 2.313zM6 10q-0.828 0-1.555 0.313t-1.273 0.859-0.859 1.273-0.313 1.555q0 0.844 0.336 1.602t0.961 1.336q0.984-1.391 2.492-2.164t3.211-0.773q0.594 0 1.172 0.094t1.125 0.297q0.5-0.891 1.219-1.625t1.578-1.297 1.828-0.922 1.984-0.484q-0.172-0.875-0.617-1.625t-1.102-1.289-1.477-0.844-1.711-0.305q-0.969 0-1.836 0.352t-1.531 0.969-1.086 1.453-0.5 1.805q-0.469-0.266-0.984-0.422t-1.063-0.156zM26 26q0.828 0 1.555-0.313t1.273-0.859 0.859-1.273 0.313-1.555q0-0.859-0.32-1.594t-0.883-1.273-1.313-0.836-1.594-0.297q-0.188-1.281-0.797-2.383t-1.523-1.906-2.086-1.258-2.484-0.453q-1.203 0-2.289 0.391t-1.977 1.078-1.539 1.656-0.945 2.109q-0.688-0.594-1.516-0.914t-1.734-0.32q-1.031 0-1.945 0.391t-1.594 1.070-1.070 1.594-0.391 1.945 0.391 1.945 1.070 1.594 1.594 1.070 1.945 0.391h17z"></path>
</svg>
