<!-- Generated by IcoMoon.io -->
<svg version="1.1" xmlns="http://www.w3.org/2000/svg" width="32" height="32" viewBox="0 0 32 32">
<title>uniE4D5</title>
<path d="M13.813 24q0.234 1.047 0.656 2h-6.469q-1.656 0-3.109-0.633t-2.539-1.719-1.719-2.539-0.633-3.109 0.633-3.109 1.719-2.539 2.539-1.719 3.109-0.633q0.719 0 1.453 0.141 0.625-0.953 1.453-1.719t1.797-1.305 2.063-0.828 2.234-0.289q1.422 0 2.742 0.438t2.438 1.227 1.961 1.898 1.313 2.453q1.266 0.078 2.414 0.602t2.039 1.414q-0.313 0-0.617-0.023t-0.617-0.086q-0.922-0.625-2.117-0.984t-2.352-0.359q-0.172 0-0.344 0.008t-0.344 0.023q-0.375-1.031-1.023-1.883t-1.508-1.453-1.875-0.938-2.109-0.336-2.109 0.328-1.867 0.922-1.508 1.43-1.047 1.867q-1.172-0.547-2.469-0.547-1.25 0-2.336 0.469t-1.906 1.289-1.289 1.914-0.469 2.328q0 1.25 0.469 2.336t1.289 1.906 1.906 1.289 2.336 0.469h5.813zM32 16.547v5.078q0 1.641-0.594 3.102t-1.586 2.703-2.266 2.242-2.633 1.719l-0.922 0.484-0.938-0.484q-1.359-0.703-2.633-1.711t-2.258-2.258-1.578-2.711-0.594-3.086v-5.078q0.375 0 0.781 0.016t0.828 0.016q0.844 0 1.68-0.109t1.492-0.516q0.781-0.453 1.547-0.664t1.672-0.211q0.922 0 1.688 0.219t1.563 0.672q0.656 0.391 1.5 0.492t1.688 0.102q0.406 0 0.805-0.008t0.758-0.008zM30 21.625v-3.078q-1.031 0-1.984-0.188t-1.844-0.703q-0.531-0.313-1.039-0.445t-1.133-0.133q-0.594 0-1.109 0.133t-1.031 0.43q-0.906 0.516-1.867 0.711t-1.992 0.195v3.078q0 1.344 0.523 2.539t1.375 2.219 1.922 1.844 2.18 1.398q1.094-0.578 2.172-1.398t1.93-1.844 1.375-2.219 0.523-2.539z"></path>
</svg>
