<!-- Generated by IcoMoon.io -->
<svg version="1.1" xmlns="http://www.w3.org/2000/svg" width="32" height="32" viewBox="0 0 32 32">
<title>uniE4C8</title>
<path d="M14.016 24l-2 2h-4.016q-1.656 0-3.109-0.633t-2.539-1.719-1.719-2.539-0.633-3.109 0.633-3.109 1.719-2.539 2.539-1.719 3.109-0.633q0.719 0 1.453 0.141 0.625-0.969 1.445-1.734t1.797-1.305 2.063-0.82 2.242-0.281q1.5 0 2.883 0.477t2.523 1.344 1.977 2.063 1.258 2.648q-0.5 0.313-0.914 0.742t-0.82 0.836q-0.172-1.313-0.773-2.43t-1.523-1.938-2.109-1.281-2.5-0.461q-0.984 0-1.891 0.266t-1.703 0.758-1.453 1.188-1.125 1.539l-0.391 0.719q-0.594-0.203-1.195-0.336t-1.242-0.133q-1.25 0-2.336 0.469t-1.906 1.289-1.289 1.914-0.469 2.328q0 1.25 0.469 2.336t1.289 1.906 1.906 1.289 2.336 0.469h6.016zM32 17.094q0 0.609-0.234 1.188t-0.672 1.016l-11.203 11.203-5.891 1.469 1.469-5.891 11.203-11.188q0.453-0.453 1.016-0.672t1.188-0.219q0.656 0 1.227 0.234t0.992 0.648 0.664 0.984 0.242 1.227zM30 17.094q0-0.484-0.32-0.789t-0.805-0.305q-0.219 0-0.422 0.070t-0.359 0.227l-10.813 10.813-0.531 2.109 2.109-0.531 10.813-10.797q0.328-0.328 0.328-0.797z"></path>
</svg>
