<!-- Generated by IcoMoon.io -->
<svg version="1.1" xmlns="http://www.w3.org/2000/svg" width="32" height="32" viewBox="0 0 32 32">
<title>uniEC9C</title>
<path d="M8 12q-1.25 0-2.336 0.469t-1.906 1.289-1.289 1.914-0.469 2.328q0 1.25 0.469 2.336t1.289 1.906 1.906 1.289 2.336 0.469h8v2h-8q-1.656 0-3.109-0.633t-2.539-1.719-1.719-2.539-0.633-3.109 0.633-3.109 1.719-2.539 2.539-1.719 3.109-0.633q0.719 0 1.453 0.141 0.625-0.953 1.453-1.719t1.797-1.305 2.063-0.828 2.234-0.289q1.422 0 2.742 0.438t2.438 1.227 1.961 1.898 1.313 2.453q1.313 0.094 2.469 0.633t2.023 1.422 1.398 2.039 0.609 2.469q-0.547-0.609-1.203-1.102t-1.391-0.867q-0.328-0.594-0.797-1.078t-1.031-0.82-1.203-0.523-1.328-0.188q-0.281 0-0.555 0.031t-0.539 0.094q-0.156-1.313-0.766-2.43t-1.531-1.938-2.109-1.289-2.5-0.469q-1.094 0-2.109 0.328t-1.867 0.922-1.508 1.43-1.047 1.867q-1.172-0.547-2.469-0.547zM25 18q1.453 0 2.727 0.547t2.227 1.5 1.5 2.227 0.547 2.727-0.547 2.727-1.5 2.227-2.227 1.5-2.727 0.547-2.727-0.547-2.227-1.5-1.5-2.227-0.547-2.727 0.547-2.727 1.5-2.227 2.227-1.5 2.727-0.547zM20 25q0 1.031 0.391 1.945t1.070 1.594 1.594 1.070 1.945 0.391q0.734 0 1.438-0.211t1.313-0.617l-6.922-6.922q-0.406 0.609-0.617 1.313t-0.211 1.438zM29.172 27.75q0.406-0.609 0.617-1.313t0.211-1.438q0-1.031-0.398-1.938t-1.078-1.586-1.586-1.078-1.938-0.398q-0.734 0-1.438 0.211t-1.313 0.617z"></path>
</svg>
