<!-- Generated by IcoMoon.io -->
<svg version="1.1" xmlns="http://www.w3.org/2000/svg" width="32" height="32" viewBox="0 0 32 32">
<title>uniE4C9</title>
<path d="M17 8q-0.984 0-1.898 0.266t-1.703 0.758-1.445 1.188-1.125 1.539l-0.391 0.719q-0.594-0.203-1.195-0.336t-1.242-0.133q-1.25 0-2.336 0.469t-1.906 1.289-1.289 1.914-0.469 2.328q0 1.25 0.469 2.336t1.289 1.906 1.906 1.289 2.336 0.469h1.688q0.141 1.016 0.547 2h-2.234q-1.656 0-3.109-0.633t-2.539-1.719-1.719-2.539-0.633-3.109 0.633-3.109 1.719-2.539 2.539-1.719 3.109-0.633q0.719 0 1.453 0.141 0.625-0.969 1.445-1.734t1.797-1.305 2.063-0.82 2.242-0.281q1.719 0 3.258 0.609t2.742 1.688 1.984 2.539 0.969 3.164q1.25 0 2.352 0.469t1.922 1.273 1.297 1.898 0.477 2.359q0 0.641-0.141 1.25-0.406-0.359-0.891-0.648t-0.984-0.508q0-0.031 0.008-0.047t0.008-0.047q0-0.828-0.313-1.555t-0.859-1.273-1.273-0.859-1.555-0.313h-2v-1q0-1.453-0.555-2.727t-1.5-2.219-2.219-1.5-2.727-0.555zM17.047 20q-0.625 0-1.172 0.234t-0.945 0.641-0.625 0.953-0.227 1.172q0 0.5 0.148 0.945t0.43 0.82 0.664 0.656 0.852 0.438q-0.047 0.281-0.078 0.57t-0.031 0.57q0 0.234 0.023 0.461t0.055 0.445q-0.891-0.156-1.633-0.609t-1.281-1.109-0.836-1.477-0.297-1.711q0-1.031 0.391-1.938t1.055-1.586 1.57-1.078 1.938-0.398h3.969q1.016 0 1.922 0.398t1.578 1.086 1.063 1.594 0.391 1.922q0 0.891-0.289 1.695t-0.82 1.461-1.258 1.109-1.602 0.625v-2.078q0.438-0.156 0.805-0.438t0.633-0.648 0.406-0.813 0.141-0.914q0-0.625-0.234-1.172t-0.633-0.953-0.938-0.641-1.164-0.234h-3.969zM27.906 22.016q0.891 0.172 1.641 0.625t1.297 1.109 0.852 1.477 0.305 1.727q0 1.031-0.391 1.945t-1.070 1.609-1.594 1.094-1.945 0.398h-4q-1.031 0-1.945-0.398t-1.594-1.094-1.070-1.609-0.391-1.945q0-0.891 0.297-1.711t0.828-1.477 1.266-1.117 1.609-0.633v2.078q-0.453 0.156-0.82 0.445t-0.625 0.672-0.406 0.828-0.148 0.914q0 0.609 0.234 1.164t0.641 0.977 0.953 0.664 1.172 0.242h4q0.625 0 1.172-0.242t0.953-0.656 0.641-0.969 0.234-1.18q0-0.484-0.156-0.945t-0.438-0.844-0.664-0.672-0.852-0.43q0.047-0.266 0.078-0.539t0.031-0.555q0-0.234-0.031-0.477t-0.063-0.477z"></path>
</svg>
