<!-- Generated by IcoMoon.io -->
<svg version="1.1" xmlns="http://www.w3.org/2000/svg" width="32" height="32" viewBox="0 0 32 32">
<title>uniEC8E</title>
<path d="M25.453 12.016q1.375 0.094 2.57 0.672t2.078 1.523 1.391 2.18 0.508 2.609q0 1.453-0.555 2.727t-1.5 2.219-2.219 1.5-2.727 0.555h-5v-2h5q1.031 0 1.945-0.391t1.594-1.070 1.070-1.594 0.391-1.945-0.391-1.945-1.070-1.594-1.594-1.070-1.945-0.391q-0.281 0-0.555 0.031t-0.539 0.094q-0.156-1.313-0.766-2.43t-1.531-1.938-2.109-1.289-2.5-0.469q-1.094 0-2.109 0.328t-1.867 0.922-1.508 1.43-1.047 1.867q-1.172-0.547-2.469-0.547-1.25 0-2.336 0.469t-1.906 1.289-1.289 1.914-0.469 2.328q0 1.25 0.469 2.336t1.289 1.906 1.906 1.289 2.336 0.469h6v2h-6q-1.656 0-3.109-0.633t-2.539-1.719-1.719-2.539-0.633-3.109 0.633-3.109 1.719-2.539 2.539-1.719 3.109-0.633q0.719 0 1.453 0.141 0.625-0.953 1.453-1.719t1.797-1.305 2.063-0.828 2.234-0.289q1.422 0 2.742 0.438t2.438 1.227 1.961 1.898 1.313 2.453zM20.297 21.703l-2.297-2.281v10.578h-2v-10.578l-2.297 2.281-1.406-1.406 4.703-4.703 4.703 4.703z"></path>
</svg>
