<!-- Generated by IcoMoon.io -->
<svg version="1.1" xmlns="http://www.w3.org/2000/svg" width="32" height="32" viewBox="0 0 32 32">
<title>uniF544</title>
<path d="M3.422 16l3.203 3.203-0.578 2.266-5.469-5.469 6.719-6.703 1.406 1.406zM31.422 16l-6.719 6.703-1.406-1.406 5.281-5.297-2.328-2.328q0.406-0.406 0.734-0.758t0.594-0.742zM22.875 6q0.656 0 1.227 0.234t0.992 0.656 0.664 0.984 0.242 1.219q0 0.609-0.234 1.188t-0.672 1.016l-11.203 11.234-5.891 1.469 1.469-5.891 11.203-11.219q0.438-0.438 1.016-0.664t1.188-0.227zM23.672 9.891q0.328-0.328 0.328-0.797 0-0.484-0.32-0.789t-0.805-0.305q-0.219 0-0.422 0.070t-0.359 0.227l-10.813 10.844-0.531 2.109 2.109-0.531z"></path>
</svg>
