<!-- Generated by IcoMoon.io -->
<svg version="1.1" xmlns="http://www.w3.org/2000/svg" width="32" height="32" viewBox="0 0 32 32">
<title>uniF2FA</title>
<path d="M9 8.5q-0.406 0-0.703-0.297t-0.297-0.703q0-0.359-0.227-0.641t-0.508-0.469q-0.547-0.375-1.117-0.75t-1.055-0.82-0.789-1.008-0.305-1.313q0-0.406 0.297-0.703t0.703-0.297 0.703 0.297 0.297 0.703q0 0.359 0.227 0.641t0.508 0.469q0.531 0.375 1.109 0.75t1.063 0.82 0.789 1.008 0.305 1.313q0 0.406-0.297 0.703t-0.703 0.297zM16 8.5q-0.406 0-0.703-0.297t-0.297-0.703q0-0.359-0.227-0.641t-0.508-0.469q-0.547-0.375-1.117-0.75t-1.055-0.82-0.789-1.008-0.305-1.313q0-0.406 0.297-0.703t0.703-0.297 0.703 0.297 0.297 0.703q0 0.359 0.227 0.641t0.508 0.469q0.531 0.375 1.109 0.75t1.063 0.82 0.789 1.008 0.305 1.313q0 0.406-0.297 0.703t-0.703 0.297zM23 8.5q-0.406 0-0.703-0.297t-0.297-0.703q0-0.359-0.227-0.641t-0.508-0.469q-0.547-0.375-1.117-0.75t-1.055-0.82-0.789-1.008-0.305-1.313q0-0.406 0.297-0.703t0.703-0.297 0.703 0.297 0.297 0.703q0 0.359 0.227 0.641t0.508 0.469q0.531 0.375 1.109 0.75t1.063 0.82 0.789 1.008 0.305 1.313q0 0.406-0.297 0.703t-0.703 0.297zM25.078 20q-0.516 1.172-1.281 2.164t-1.719 1.836h6.922v2q0 0.703-0.219 1.414t-0.633 1.281-1.016 0.938-1.383 0.367h-22.5q-0.781 0-1.383-0.367t-1.016-0.938-0.633-1.281-0.219-1.414v-2h5.922q-1.844-1.609-2.883-3.734t-1.039-4.594v-5.672h25.078q1.031 0 1.93 0.398t1.563 1.078 1.047 1.594 0.383 1.93-0.383 1.93-1.047 1.594-1.563 1.078-1.93 0.398h-2zM26 12q0 0.656 0.016 1.313t0.016 1.328q0 0.859-0.055 1.703t-0.242 1.656h1.344q0.609 0 1.148-0.242t0.93-0.648 0.617-0.953 0.227-1.156-0.227-1.156-0.617-0.953-0.93-0.648-1.148-0.242h-1.078zM4 15.672q0 1.375 0.414 2.641t1.164 2.344 1.781 1.93 2.266 1.414h8.75q1.234-0.563 2.266-1.414t1.781-1.93 1.164-2.344 0.414-2.641v-3.672h-20v3.672zM25.75 28q0.328 0 0.563-0.219t0.391-0.523 0.227-0.648 0.070-0.609h-25q0 0.266 0.070 0.609t0.227 0.648 0.391 0.523 0.563 0.219h22.5z"></path>
</svg>
