<!-- Generated by IcoMoon.io -->
<svg version="1.1" xmlns="http://www.w3.org/2000/svg" width="32" height="32" viewBox="0 0 32 32">
<title>uniEAEF</title>
<path d="M7 16q0.875 0 1.586 0.398t1.273 1.055 0.961 1.5 0.664 1.734 0.391 1.75 0.125 1.563-0.125 1.563-0.391 1.75-0.664 1.734-0.961 1.5-1.273 1.055-1.586 0.398q-0.547 0-1-0.266-0.453 0.266-1 0.266-0.875 0-1.586-0.398t-1.273-1.055-0.961-1.5-0.664-1.734-0.391-1.75-0.125-1.563 0.125-1.563 0.391-1.75 0.664-1.734 0.961-1.5 1.273-1.055 1.586-0.398q0.547 0 1 0.266 0.453-0.266 1-0.266zM1.984 24q0 0.703 0.109 1.422t0.328 1.414 0.563 1.344 0.797 1.18q0.25 0.297 0.539 0.469t0.68 0.172v-12q-0.391 0-0.68 0.172t-0.539 0.469q-0.453 0.547-0.797 1.188t-0.563 1.336-0.328 1.414-0.109 1.422zM7 30q0.391 0 0.68-0.172t0.539-0.469q0.453-0.531 0.789-1.18t0.563-1.344 0.336-1.414 0.109-1.422-0.109-1.422-0.336-1.414-0.563-1.336-0.789-1.188q-0.25-0.297-0.539-0.469t-0.68-0.172v12zM32 25q0 0.547-0.266 1 0.266 0.453 0.266 1 0 0.875-0.398 1.586t-1.055 1.273-1.5 0.961-1.734 0.664-1.75 0.391-1.563 0.125-1.563-0.125-1.75-0.391-1.734-0.664-1.5-0.961-1.055-1.273-0.398-1.586q0-0.547 0.266-1-0.266-0.453-0.266-1 0-0.875 0.398-1.586t1.055-1.273 1.5-0.961 1.734-0.664 1.75-0.391 1.563-0.125 1.563 0.125 1.75 0.391 1.734 0.664 1.5 0.961 1.055 1.273 0.398 1.586zM24 21.984q-0.703 0-1.422 0.109t-1.414 0.336-1.344 0.563-1.18 0.789q-0.297 0.25-0.469 0.539t-0.172 0.68h12q0-0.391-0.172-0.68t-0.469-0.539q-0.547-0.453-1.188-0.789t-1.336-0.563-1.414-0.336-1.422-0.109zM24 30.016q0.703 0 1.422-0.109t1.414-0.328 1.336-0.563 1.188-0.797q0.297-0.25 0.469-0.539t0.172-0.68h-12q0 0.391 0.172 0.68t0.469 0.539q0.531 0.453 1.18 0.797t1.344 0.563 1.414 0.328 1.422 0.109zM18 15.734q-0.453 0.266-1 0.266-0.875 0-1.586-0.398t-1.273-1.055-0.961-1.5-0.664-1.734-0.391-1.75-0.125-1.563 0.125-1.563 0.391-1.75 0.664-1.734 0.961-1.5 1.273-1.055 1.586-0.398q0.547 0 1 0.266 0.453-0.266 1-0.266 0.875 0 1.586 0.398t1.273 1.055 0.961 1.5 0.664 1.734 0.391 1.75 0.125 1.563-0.125 1.563-0.391 1.75-0.664 1.734-0.961 1.5-1.273 1.055-1.586 0.398q-0.547 0-1-0.266zM22.016 8q0-0.703-0.109-1.422t-0.336-1.414-0.563-1.336-0.789-1.188q-0.25-0.297-0.539-0.469t-0.68-0.172v12q0.391 0 0.68-0.172t0.539-0.469q0.453-0.531 0.789-1.18t0.563-1.344 0.336-1.414 0.109-1.422zM13.984 8q0 0.703 0.109 1.422t0.328 1.414 0.563 1.344 0.797 1.18q0.25 0.297 0.539 0.469t0.68 0.172v-12q-0.391 0-0.68 0.172t-0.539 0.469q-0.453 0.547-0.797 1.188t-0.563 1.336-0.328 1.414-0.109 1.422z"></path>
</svg>
