<!-- Generated by IcoMoon.io -->
<svg version="1.1" xmlns="http://www.w3.org/2000/svg" width="32" height="32" viewBox="0 0 32 32">
<title>uniEB26</title>
<path d="M24 0q1.656 0 3.117 0.625t2.547 1.711 1.711 2.547 0.625 3.117q0 3.313-0.859 6.375t-2.422 5.734-3.75 4.859-4.859 3.75-5.734 2.422-6.375 0.859q-1.656 0-3.117-0.625t-2.547-1.711-1.711-2.547-0.625-3.117q0-3.313 0.859-6.375t2.422-5.734 3.75-4.859 4.859-3.75 5.734-2.422 6.375-0.859zM30 8q0-1.234-0.469-2.328t-1.289-1.914-1.914-1.289-2.328-0.469q-1.063 0-2.109 0.102t-2.078 0.305l9.781 9.781q0.203-1.031 0.305-2.078t0.102-2.109zM2 24q0 1.25 0.469 2.336t1.289 1.906 1.906 1.289 2.336 0.469q1.063 0 2.109-0.102t2.078-0.305l-9.781-9.781q-0.203 1.031-0.305 2.078t-0.102 2.109zM14.453 29.031q2.609-0.797 4.914-2.195t4.188-3.281 3.281-4.188 2.195-4.914l-11.484-11.484q-2.609 0.797-4.914 2.195t-4.188 3.281-3.281 4.188-2.195 4.914zM19.297 11.297l1.406 1.406-8 8-1.406-1.406z"></path>
</svg>
