<!-- Generated by IcoMoon.io -->
<svg version="1.1" xmlns="http://www.w3.org/2000/svg" width="32" height="32" viewBox="0 0 32 32">
<title>uniEB25</title>
<path d="M15 0q2.078 0 3.992 0.531t3.586 1.508 3.039 2.344 2.344 3.039 1.508 3.586 0.531 3.992-0.531 3.992-1.508 3.586-2.344 3.039-3.039 2.344-3.586 1.508-3.992 0.531-3.992-0.531-3.586-1.508-3.039-2.344-2.344-3.039-1.508-3.586-0.531-3.992 0.531-3.992 1.508-3.586 2.344-3.039 3.039-2.344 3.586-1.508 3.992-0.531zM22.047 16q0.156 2 0.93 3.844t2.102 3.359q1.266-1.531 1.992-3.375t0.898-3.828h-5.922zM27.969 14q-0.172-1.984-0.898-3.828t-1.992-3.375q-1.328 1.516-2.102 3.359t-0.93 3.844h5.922zM23.688 5.344q-1.609-1.453-3.57-2.297t-4.117-1.016v11.969h4.031q0.172-2.422 1.102-4.641t2.555-4.016zM14 2.031q-2.156 0.172-4.117 1.016t-3.57 2.297q1.625 1.797 2.555 4.016t1.102 4.641h4.031v-11.969zM4.922 23.203q1.328-1.516 2.102-3.359t0.93-3.844h-5.922q0.172 1.984 0.898 3.828t1.992 3.375zM7.953 14q-0.156-2-0.93-3.844t-2.102-3.359q-1.266 1.531-1.992 3.375t-0.898 3.828h5.922zM6.313 24.656q1.609 1.453 3.57 2.297t4.117 1.016v-11.969h-4.031q-0.172 2.422-1.102 4.641t-2.555 4.016zM16 27.969q2.156-0.172 4.117-1.016t3.57-2.297q-1.625-1.797-2.555-4.016t-1.102-4.641h-4.031v11.969z"></path>
</svg>
