<!-- Generated by IcoMoon.io -->
<svg version="1.1" xmlns="http://www.w3.org/2000/svg" width="32" height="32" viewBox="0 0 32 32">
<title>uniF354</title>
<path d="M16 0q2.203 0 4.25 0.57t3.82 1.617 3.234 2.508 2.508 3.234 1.617 3.82 0.57 4.25-0.57 4.25-1.617 3.82-2.508 3.234-3.234 2.508-3.82 1.617-4.25 0.57q-0.828 0-1.555-0.313t-1.273-0.859-0.859-1.273-0.313-1.555 0.211-1.617 0.648-1.492q0.094-0.172 0.172-0.266t0.188-0.25q0.391-0.609 0.586-1.117t0.195-1.258q0-0.828-0.313-1.555t-0.859-1.273-1.273-0.859-1.555-0.313q-0.75 0-1.258 0.195t-1.117 0.586q-0.156 0.109-0.25 0.188t-0.266 0.172q-0.703 0.438-1.492 0.648t-1.617 0.211-1.555-0.313-1.273-0.859-0.859-1.273-0.313-1.555q0-2.203 0.57-4.25t1.617-3.82 2.508-3.234 3.234-2.508 3.82-1.617 4.25-0.57zM22 7.5q-0.516 0-0.969 0.195t-0.797 0.539-0.539 0.797-0.195 0.969 0.195 0.969 0.539 0.797 0.797 0.539 0.969 0.195 0.969-0.195 0.797-0.539 0.539-0.797 0.195-0.969-0.195-0.969-0.539-0.797-0.797-0.539-0.969-0.195zM8 14.5q0.516 0 0.969-0.195t0.797-0.539 0.539-0.797 0.195-0.969-0.195-0.969-0.539-0.797-0.797-0.539-0.969-0.195-0.969 0.195-0.797 0.539-0.539 0.797-0.195 0.969 0.195 0.969 0.539 0.797 0.797 0.539 0.969 0.195zM14 10.5q0.516 0 0.969-0.195t0.797-0.539 0.539-0.797 0.195-0.969-0.195-0.969-0.539-0.797-0.797-0.539-0.969-0.195-0.969 0.195-0.797 0.539-0.539 0.797-0.195 0.969 0.195 0.969 0.539 0.797 0.797 0.539 0.969 0.195zM20 26.5q0.516 0 0.969-0.195t0.797-0.539 0.539-0.797 0.195-0.969-0.195-0.969-0.539-0.797-0.797-0.539-0.969-0.195-0.969 0.195-0.797 0.539-0.539 0.797-0.195 0.969 0.195 0.969 0.539 0.797 0.797 0.539 0.969 0.195zM24 20.5q0.516 0 0.969-0.195t0.797-0.539 0.539-0.797 0.195-0.969-0.195-0.969-0.539-0.797-0.797-0.539-0.969-0.195-0.969 0.195-0.797 0.539-0.539 0.797-0.195 0.969 0.195 0.969 0.539 0.797 0.797 0.539 0.969 0.195z"></path>
</svg>
