<!-- Generated by IcoMoon.io -->
<svg version="1.1" xmlns="http://www.w3.org/2000/svg" width="32" height="32" viewBox="0 0 32 32">
<title>uniE790</title>
<path d="M16 0q2.203 0 4.25 0.57t3.828 1.609 3.242 2.5 2.5 3.242 1.609 3.828 0.57 4.25-0.57 4.25-1.609 3.828-2.5 3.242-3.242 2.5-3.828 1.609-4.25 0.57q-0.828 0-1.555-0.32t-1.266-0.859-0.859-1.266-0.32-1.555q0-0.766 0.148-1.336t0.367-1.039 0.484-0.875 0.484-0.82 0.367-0.875 0.148-1.055q0-0.813-0.32-1.547t-0.859-1.273-1.273-0.859-1.547-0.32q-0.594 0-1.055 0.148t-0.875 0.367-0.82 0.484-0.875 0.484-1.047 0.367-1.328 0.148q-0.828 0-1.555-0.32t-1.266-0.859-0.859-1.266-0.32-1.555q0-2.203 0.57-4.25t1.609-3.828 2.5-3.242 3.242-2.5 3.82-1.609 4.258-0.57zM16 30q1.922 0 3.711-0.5t3.344-1.414 2.836-2.195 2.195-2.836 1.414-3.344 0.5-3.711-0.5-3.711-1.414-3.344-2.195-2.836-2.836-2.195-3.344-1.414-3.711-0.5-3.711 0.5-3.344 1.414-2.836 2.195-2.195 2.836-1.414 3.344-0.5 3.711q0 0.422 0.156 0.781t0.43 0.633 0.633 0.43 0.781 0.156q0.594 0 1.055-0.148t0.875-0.367 0.813-0.484 0.859-0.484 1.039-0.367 1.359-0.148q1.25 0 2.344 0.469t1.906 1.281 1.281 1.906 0.469 2.344q0 0.766-0.148 1.352t-0.367 1.047-0.484 0.859-0.484 0.813-0.367 0.875-0.148 1.055q0 0.422 0.156 0.781t0.43 0.633 0.633 0.43 0.781 0.156zM8 10q0.422 0 0.781 0.156t0.633 0.43 0.43 0.633 0.156 0.781-0.156 0.781-0.43 0.633-0.633 0.43-0.781 0.156-0.781-0.156-0.633-0.43-0.43-0.633-0.156-0.781 0.156-0.781 0.43-0.633 0.633-0.43 0.781-0.156zM14 6q0.422 0 0.781 0.156t0.633 0.43 0.43 0.633 0.156 0.781-0.156 0.781-0.43 0.633-0.633 0.43-0.781 0.156-0.781-0.156-0.633-0.43-0.43-0.633-0.156-0.781 0.156-0.781 0.43-0.633 0.633-0.43 0.781-0.156zM22 12q-0.422 0-0.781-0.156t-0.633-0.43-0.43-0.633-0.156-0.781 0.156-0.781 0.43-0.633 0.633-0.43 0.781-0.156 0.781 0.156 0.633 0.43 0.43 0.633 0.156 0.781-0.156 0.781-0.43 0.633-0.633 0.43-0.781 0.156zM24 16q0.422 0 0.781 0.156t0.633 0.43 0.43 0.633 0.156 0.781-0.156 0.781-0.43 0.633-0.633 0.43-0.781 0.156-0.781-0.156-0.633-0.43-0.43-0.633-0.156-0.781 0.156-0.781 0.43-0.633 0.633-0.43 0.781-0.156zM20 22q0.422 0 0.781 0.156t0.633 0.43 0.43 0.633 0.156 0.781-0.156 0.781-0.43 0.633-0.633 0.43-0.781 0.156-0.781-0.156-0.633-0.43-0.43-0.633-0.156-0.781 0.156-0.781 0.43-0.633 0.633-0.43 0.781-0.156z"></path>
</svg>
