<!-- Generated by IcoMoon.io -->
<svg version="1.1" xmlns="http://www.w3.org/2000/svg" width="32" height="32" viewBox="0 0 32 32">
<title>uniE4C2</title>
<path d="M32 21.203q0 0.453-0.328 0.68t-0.734 0.227q-0.266 0-0.523-0.070t-0.508-0.148q-0.547 0.484-0.961 1.094t-0.789 1.234q0.094 0.406 0.211 1.008t0.328 1.148 0.555 0.938 0.906 0.391q0.094 0 0.242-0.016t0.305-0.039 0.297-0.055 0.219-0.078l-0.141 0.531q-0.5 0.219-0.977 0.375t-1.023 0.156q-0.313 0-0.594-0.086t-0.484-0.336q-0.141-0.188-0.281-0.539t-0.258-0.742-0.211-0.766l-0.156-0.625q-0.172 0.281-0.43 0.68t-0.555 0.805-0.609 0.75-0.563 0.531q-0.438 0.328-0.984 0.328-0.391 0-0.633-0.203t-0.242-0.609q0-0.469 0.336-0.703t0.758-0.234q0.266 0 0.516 0.094t0.5 0.172q0.516-0.5 0.945-1.070t0.789-1.195q-0.031-0.203-0.156-0.711t-0.297-1.047-0.359-0.992-0.344-0.547-0.336-0.133-0.352-0.039q-0.25 0-0.508 0.047t-0.477 0.141l0.141-0.531q0.109-0.047 0.359-0.148t0.523-0.195 0.523-0.172 0.375-0.078q0.484 0 0.797 0.219t0.5 0.563 0.297 0.758 0.203 0.805q0.047 0.188 0.109 0.414t0.063 0.414q0.281-0.391 0.602-0.938t0.695-1.055 0.836-0.859 1.039-0.352q0.359 0 0.602 0.227t0.242 0.586zM16.922 26l-0.422 2h-14.5v-24h26v11q-0.406-0.547-0.875-0.844t-1.125-0.469v-3.688h-6v4h2.516q-0.094 0.047-0.203 0.078t-0.203 0.078q-0.594 0.281-1.102 0.711t-0.93 0.945-0.758 1.102-0.586 1.18h-0.734v-2.094h-6v4h4.672l-0.5 2h-4.172v4h4.922zM18 14v-4h-6v4h6zM4 6v2h22v-2h-22zM10 26v-16h-6v16h6zM24.156 20.594l-0.172 0.734h-2l-1.422 6.625q-0.156 0.703-0.523 1.422t-0.898 1.305-1.211 0.953-1.461 0.367q-0.234 0-0.469-0.047t-0.438-0.148-0.328-0.289-0.125-0.469q0-0.359 0.219-0.609t0.594-0.25q0.234 0 0.422 0.117t0.344 0.289 0.281 0.375 0.219 0.375q0.422-0.031 0.734-0.391t0.523-0.844 0.344-1 0.211-0.844l1.5-6.938h-1.578l0.172-0.719h1.547q0.109-0.531 0.234-1.016t0.359-0.984q0.234-0.516 0.594-0.984t0.813-0.836 0.992-0.578 1.133-0.211q0.234 0 0.477 0.047t0.445 0.148 0.328 0.289 0.125 0.469q0 0.391-0.203 0.633t-0.609 0.242q-0.281 0-0.469-0.109t-0.32-0.281-0.242-0.375-0.234-0.406q-0.328 0.031-0.586 0.258t-0.453 0.578-0.344 0.789-0.258 0.867-0.18 0.813-0.117 0.633h2.031z"></path>
</svg>
