<!-- Generated by IcoMoon.io -->
<svg version="1.1" xmlns="http://www.w3.org/2000/svg" width="32" height="32" viewBox="0 0 32 32">
<title>uniE4C0</title>
<path d="M20 16v10h3.625q-0.078 0.406-0.102 0.813t-0.023 0.813v0.375h-21.5v-24h26v11.594l-0.5-0.063t-0.5-0.031q-1.281 0-2.5 0.5h-4.5zM26 14v-4h-6v4h6zM4 6v2h22v-2h-22zM10 26v-16h-6v16h6zM18 26v-4h-6v4h6zM18 20v-4h-6v4h6zM18 14v-4h-6v4h6zM26 32v-2h2v2h-2zM31 22q0 0.922-0.297 1.508t-0.727 1.039-0.914 0.875-0.844 1.016q-0.156 0.25-0.195 0.523t-0.039 0.539q0 0.125 0.008 0.25t0.008 0.25h-2v-0.75q0-0.719 0.219-1.266t0.555-0.984 0.727-0.789 0.727-0.695 0.555-0.703 0.219-0.813q0-0.422-0.156-0.781t-0.43-0.633-0.633-0.43-0.781-0.156-0.781 0.156-0.633 0.43-0.43 0.633-0.156 0.781h-2q0-0.828 0.313-1.555t0.859-1.273 1.273-0.859 1.555-0.313 1.555 0.313 1.273 0.859 0.859 1.273 0.313 1.555z"></path>
</svg>
