<!-- Generated by IcoMoon.io -->
<svg version="1.1" xmlns="http://www.w3.org/2000/svg" width="32" height="32" viewBox="0 0 32 32">
<title>uniF317</title>
<path d="M32 2v16h-2v-8h-8v6h-2v-6h-8v16h4v2h-16v-26h32zM10 10h-8v16h8v-16zM30 8v-4h-28v4h28zM31.844 23.25l-1.938 0.797q0.094 0.469 0.094 0.953t-0.094 0.953l1.938 0.797-0.766 1.859-1.938-0.813q-0.547 0.797-1.344 1.344l0.813 1.938-1.859 0.766-0.797-1.938q-0.469 0.094-0.953 0.094t-0.953-0.094l-0.797 1.938-1.859-0.766 0.813-1.938q-0.797-0.547-1.344-1.344l-1.938 0.813-0.766-1.859 1.938-0.797q-0.094-0.469-0.094-0.953t0.094-0.953l-1.938-0.797 0.766-1.859 1.938 0.813q0.547-0.797 1.344-1.344l-0.813-1.938 1.859-0.766 0.797 1.938q0.469-0.094 0.953-0.094t0.953 0.094l0.797-1.938 1.859 0.766-0.813 1.938q0.797 0.547 1.344 1.344l1.938-0.813zM25.016 28q0.625 0 1.164-0.234t0.945-0.648 0.641-0.961 0.234-1.172q0-0.609-0.234-1.156t-0.648-0.953-0.961-0.641-1.156-0.234q-0.625 0-1.172 0.242t-0.953 0.648-0.641 0.953-0.234 1.172 0.234 1.164 0.648 0.945 0.961 0.641 1.172 0.234z"></path>
</svg>
