<!-- Generated by IcoMoon.io -->
<svg version="1.1" xmlns="http://www.w3.org/2000/svg" width="32" height="32" viewBox="0 0 32 32">
<title>uniE4C1</title>
<path d="M31 22h-2q0-0.422-0.156-0.781t-0.43-0.633-0.633-0.43-0.781-0.156-0.781 0.156-0.633 0.43-0.43 0.633-0.156 0.781q0 0.531 0.344 0.984t0.805 0.906 0.922 0.953 0.711 1.141q0.141 0.391 0.18 0.742t0.039 0.727v0.547h-2v-0.5q0-0.266-0.039-0.539t-0.18-0.523q-0.359-0.594-0.844-1.016t-0.914-0.875-0.727-1.039-0.297-1.508q0-0.828 0.313-1.555t0.859-1.273 1.273-0.859 1.555-0.313 1.555 0.313 1.273 0.859 0.859 1.273 0.313 1.555zM26 32v-2h2v2h-2zM23.5 27.547v0.453h-21.5v-24h26v11.594l-0.5-0.063t-0.5-0.031q-0.609 0-1.281 0.125-0.078 0.016-0.273 0.078t-0.398 0.125-0.367 0.117-0.18 0.055h-4.5v10h2q0.359 0.422 0.734 0.789t0.766 0.758zM26 14v-4h-6v4h6zM4 6v2h22v-2h-22zM10 26v-16h-6v16h6zM18 26v-4h-6v4h6zM18 20v-4h-6v4h6zM18 14v-4h-6v4h6z"></path>
</svg>
