<!-- Generated by IcoMoon.io -->
<svg version="1.1" xmlns="http://www.w3.org/2000/svg" width="32" height="32" viewBox="0 0 32 32">
<title>uniF806</title>
<path d="M28.875 14q0.656 0 1.227 0.234t0.992 0.656 0.664 0.984 0.242 1.219q0 0.609-0.234 1.188t-0.672 1.016l-11.203 11.234-5.891 1.469 1.469-5.891 11.203-11.219q0.438-0.438 1.016-0.664t1.188-0.227zM30 17.094q0-0.484-0.32-0.789t-0.805-0.305q-0.219 0-0.422 0.070t-0.359 0.227l-10.813 10.844-0.531 2.109 2.109-0.531 10.813-10.828q0.328-0.328 0.328-0.797zM22 4h10v8.688q-0.891-0.609-2-0.828v-5.859h-6v8.313l-2 2v-12.313zM4 6v-2h4v2h-4zM14 4v2h-4v-2h4zM4 28v-2h4v2h-4zM10 28v-2h3.125l-0.5 2h-2.625zM0 14v-4h2v4h-2zM0 8v-4h2v4h-2zM0 26v-4h2v4h-2zM0 20v-4h2v4h-2zM18 12v4h-2v-4h2zM18 6v4h-2v-4h2zM18 18v2l-2 2v-4h2z"></path>
</svg>
