<!-- Generated by IcoMoon.io -->
<svg version="1.1" xmlns="http://www.w3.org/2000/svg" width="32" height="32" viewBox="0 0 32 32">
<title>uniF804</title>
<path d="M27 10q-1.031 0-1.945-0.391t-1.594-1.070-1.070-1.594-0.391-1.945 0.391-1.945 1.070-1.594 1.594-1.070 1.945-0.391 1.945 0.391 1.594 1.070 1.070 1.594 0.391 1.945-0.391 1.945-1.070 1.594-1.594 1.070-1.945 0.391zM18 14v-4h3.406q0.281 0.313 0.594 0.594v3.406q0 0.422-0.156 0.781t-0.43 0.633-0.633 0.43-0.781 0.156v-2h-2zM12 16v-2h-2v-4h4v4q0 0.422-0.156 0.781t-0.43 0.633-0.633 0.43-0.781 0.156zM30 22v-10.125q0.547-0.234 1.047-0.563t0.953-0.719v13.406h-20.578l-7.422 7.422v-7.422h-4v-22h20.125q-0.422 0.953-0.563 2h-17.563v18h4v4.578l4.578-4.578h19.422z"></path>
</svg>
