<!-- Generated by IcoMoon.io -->
<svg version="1.1" xmlns="http://www.w3.org/2000/svg" width="32" height="32" viewBox="0 0 32 32">
<title>uniEC4D</title>
<path d="M21 0q0.406 0 0.703 0.297l10 10q0.297 0.297 0.297 0.703t-0.297 0.703l-3.797 3.797q0.391 0.391 0.766 0.75t0.664 0.742 0.469 0.836 0.18 1.047q0 0.625-0.234 1.188t-0.641 0.984-0.953 0.672-1.172 0.266q-0.031 0.641-0.266 1.18t-0.633 0.938-0.938 0.633-1.164 0.25q-0.016 0.625-0.266 1.172t-0.672 0.961-0.984 0.648-1.188 0.234q-0.5 0-1.016-0.172-0.172 0.484-0.461 0.883t-0.68 0.688-0.859 0.445-0.984 0.156q-0.406 0-0.719-0.070t-0.586-0.211-0.531-0.344-0.539-0.453q-0.547 0.5-1.070 0.789t-1.305 0.289q-0.625 0-1.188-0.234t-0.984-0.641-0.672-0.953-0.266-1.188q-0.609-0.016-1.156-0.25t-0.953-0.641-0.641-0.953-0.25-1.156q-0.625-0.016-1.164-0.25t-0.938-0.641-0.641-0.953-0.258-1.156q-0.641-0.016-1.188-0.266t-0.953-0.672-0.641-0.977-0.234-1.18q0-0.641 0.242-1.203t0.68-1.016l1.656-1.672-2.281-2.297q-0.297-0.297-0.297-0.703t0.297-0.703l10-10q0.297-0.297 0.703-0.297t0.703 0.297l2.063 2.063q0.203-0.063 0.789-0.266t1.352-0.461 1.617-0.547 1.594-0.531 1.258-0.398 0.625-0.156zM4.875 15q-0.453 0-0.781 0.328l-1.766 1.75q-0.328 0.328-0.328 0.797t0.32 0.789 0.789 0.32q0.484 0 0.797-0.313l1.766-1.75q0.328-0.328 0.328-0.797t-0.328-0.797-0.797-0.328zM7.875 18q-0.219 0-0.43 0.086t-0.367 0.242l-1.75 1.766q-0.328 0.328-0.328 0.797 0 0.453 0.328 0.773t0.797 0.32q0.219 0 0.43-0.078t0.367-0.234l1.75-1.766q0.328-0.328 0.328-0.781 0-0.469-0.328-0.797t-0.797-0.328zM10.875 21q-0.453 0-0.781 0.328l-1.766 1.75q-0.328 0.328-0.328 0.797t0.32 0.789 0.789 0.32q0.484 0 0.797-0.313l1.766-1.75q0.328-0.328 0.328-0.797t-0.328-0.797-0.797-0.328zM11 26.891q0 0.453 0.328 0.773t0.797 0.32q0.219 0 0.43-0.078t0.367-0.234l1.75-1.766q0.328-0.328 0.328-0.781 0-0.469-0.336-0.797t-0.789-0.328q-0.219 0-0.43 0.086t-0.367 0.242l-1.75 1.766q-0.328 0.328-0.328 0.797zM26.875 20q0.453 0 0.789-0.328t0.336-0.781q0-0.469-0.328-0.797l-9.875-9.891q-0.047-0.047-0.156-0.086t-0.227-0.063-0.234-0.039-0.18-0.016q-0.406 0-0.773 0.156t-0.641 0.43-0.43 0.641-0.156 0.773q0 0.828-0.313 1.555t-0.859 1.273-1.273 0.859-1.555 0.313q-0.625 0-1.172-0.234t-0.953-0.641-0.641-0.953-0.234-1.172q0-0.375 0.078-0.836t0.25-0.805l2.922-5.859q0.141-0.25 0.422-0.406l-0.672-0.672-8.594 8.578 2.109 2.094q0.703-0.078 1.328 0.102t1.094 0.578 0.75 0.984 0.297 1.289q0.625 0.031 1.172 0.258t0.945 0.625 0.633 0.938 0.25 1.18q0.625 0.031 1.172 0.258t0.945 0.625 0.633 0.938 0.25 1.18q0.641 0.031 1.188 0.266t0.953 0.648 0.641 0.961 0.234 1.203q0 0.703-0.281 1.313t-0.813 1.063q0.234 0.219 0.43 0.359t0.539 0.141q0.453 0 0.789-0.328t0.336-0.781q0-0.469-0.328-0.797l1.406-1.422 1.016 1q0.359 0.328 0.781 0.328 0.453 0 0.789-0.328t0.336-0.781q0-0.469-0.328-0.797l-1.766-1.766 1.422-1.406 1.75 1.75q0.328 0.328 0.797 0.328t0.797-0.328 0.328-0.797-0.328-0.797l-1.766-1.75 1.422-1.422 1.766 1.766q0.328 0.328 0.781 0.328zM29.578 11l-8.844-8.859-7.875 2.625-2.719 5.438q-0.078 0.141-0.109 0.391t-0.031 0.406q0 0.406 0.297 0.703t0.703 0.297q0.422 0 0.781-0.156t0.633-0.43 0.43-0.633 0.156-0.781q0-0.828 0.313-1.555t0.859-1.273 1.273-0.859 1.555-0.313q0.25 0 0.539 0.047t0.586 0.133 0.555 0.219 0.445 0.32l7.375 7.375z"></path>
</svg>
