<!-- Generated by IcoMoon.io -->
<svg version="1.1" xmlns="http://www.w3.org/2000/svg" width="32" height="32" viewBox="0 0 32 32">
<title>uniE4D0</title>
<path d="M32 18h-2q0-1.922-0.5-3.711t-1.414-3.344-2.195-2.836-2.836-2.195-3.344-1.414-3.711-0.5q-1.938 0-3.727 0.5t-3.344 1.414-2.828 2.188-2.188 2.828-1.414 3.344-0.5 3.727q0 2.797 1.055 5.359t3.039 4.547l-1.406 1.406q-1.125-1.125-2-2.438t-1.469-2.758-0.906-2.984-0.313-3.133q0-2.203 0.57-4.242t1.617-3.82 2.508-3.242 3.242-2.508 3.82-1.617 4.242-0.57 4.242 0.57 3.813 1.617 3.242 2.508 2.508 3.242 1.617 3.82 0.578 4.242zM8 18q0 1.609 0.609 3.070t1.734 2.586l-1.422 1.422q-1.422-1.453-2.172-3.25t-0.75-3.828q0-2.078 0.781-3.898t2.141-3.18 3.18-2.141 3.898-0.781 3.898 0.781 3.18 2.141 2.141 3.18 0.781 3.898h-2q0-1.641-0.633-3.094t-1.727-2.547-2.547-1.727-3.094-0.633-3.102 0.633-2.547 1.719-1.719 2.547-0.633 3.102zM20 18h-2q0-0.406-0.156-0.773t-0.43-0.641-0.641-0.43-0.773-0.156q-0.422 0-0.781 0.156t-0.633 0.43-0.43 0.633-0.156 0.781 0.156 0.781 0.43 0.633 0.633 0.43 0.781 0.156v2q-0.828 0-1.555-0.313t-1.273-0.859-0.859-1.273-0.313-1.555q0-0.813 0.32-1.547t0.859-1.273 1.266-0.859 1.555-0.32q0.813 0 1.539 0.32t1.273 0.867 0.867 1.273 0.32 1.539zM30 26v-2h2v2h-2zM18 30v-2h10v2h-10zM30 30v-2h2v2h-2zM30 22v-2h2v2h-2zM18 22v-2h10v2h-10zM18 26v-2h10v2h-10z"></path>
</svg>
