<!-- Generated by IcoMoon.io -->
<svg version="1.1" xmlns="http://www.w3.org/2000/svg" width="32" height="32" viewBox="0 0 32 32">
<title>uniE377</title>
<path d="M23.797 0l8.203 8.203v15.594l-8.203 8.203h-15.594l-8.203-8.203v-15.594l8.203-8.203h15.594zM8 28.969l0.203-5.172-6.203-6v5.172zM8 20.969v-5.172l-6-6v5.172zM8 12.969v-9.938l-4.969 4.969zM10 2v12h12.969l6-6-6-6h-12.969zM10 17.797v4.203h4.203zM10 24v4.188l4.188-4.188h-4.188zM30 22.969v-5.172l-6.203 6.203h-6.781l-6 6h11.953zM30 14.969v-5.172l-6.203 6.203h-12.766l6 6h5.938z"></path>
</svg>
