<!-- Generated by IcoMoon.io -->
<svg version="1.1" xmlns="http://www.w3.org/2000/svg" width="32" height="32" viewBox="0 0 32 32">
<title>uniE942</title>
<path d="M15 0q2.078 0 3.992 0.531t3.586 1.508 3.039 2.344 2.344 3.039 1.508 3.586 0.531 3.992-0.531 3.992-1.508 3.586-2.344 3.039-3.039 2.344-3.586 1.508-3.992 0.531-3.992-0.531-3.586-1.508-3.039-2.344-2.344-3.039-1.508-3.586-0.531-3.992 0.531-3.992 1.508-3.586 2.344-3.039 3.039-2.344 3.586-1.508 3.992-0.531zM16 27.969q1.594-0.125 3.063-0.617t2.758-1.289 2.367-1.875 1.875-2.367 1.289-2.758 0.617-3.063h-1.969v-2h1.969q-0.125-1.594-0.617-3.063t-1.289-2.758-1.875-2.367-2.367-1.875-2.758-1.289-3.063-0.617v1.969h-2v-1.969q-1.594 0.125-3.063 0.617t-2.758 1.289-2.367 1.875-1.875 2.367-1.289 2.758-0.617 3.063h1.969v2h-1.969q0.125 1.594 0.617 3.063t1.289 2.758 1.875 2.367 2.367 1.875 2.758 1.289 3.063 0.617v-1.969h2v1.969zM17.328 12.672l4.672 9.328-9.328-4.672-4.672-9.328zM18.313 18.313l-2.203-4.422-4.422-2.203 2.203 4.422z"></path>
</svg>
