<!-- Generated by IcoMoon.io -->
<svg version="1.1" xmlns="http://www.w3.org/2000/svg" width="32" height="32" viewBox="0 0 32 32">
<title>uniF057</title>
<path d="M25.047 4l3.344 10h1.609v2h-0.344q-0.313 0.891-0.883 1.633t-1.313 1.266-1.625 0.813-1.836 0.289-1.836-0.289-1.625-0.813-1.313-1.266-0.883-1.633h-0.344v-2h1.609l3.344-10h-6.953v22.031q2.609 0.172 4.945 1.18t4.258 2.789h2.797v2h-26v-2h2.797q1.922-1.781 4.258-2.789t4.945-1.18v-22.031h-6.953l3.344 10h1.609v2h-0.344q-0.313 0.891-0.883 1.633t-1.313 1.266-1.625 0.813-1.836 0.289-1.836-0.289-1.625-0.813-1.313-1.266-0.883-1.633h-0.344v-2h1.609l3.344-10h-4.953v-2h14v-2h2v2h14v2h-4.953zM6 7.156l-2.281 6.844h4.563zM6 18q1.078 0 2-0.531t1.469-1.469h-6.938q0.547 0.938 1.469 1.469t2 0.531zM21.938 30q-1.563-0.984-3.328-1.492t-3.609-0.508-3.609 0.508-3.328 1.492h13.875zM24 7.156l-2.281 6.844h4.563zM24 18q1.078 0 2-0.531t1.469-1.469h-6.938q0.547 0.938 1.469 1.469t2 0.531z"></path>
</svg>
