<!-- Generated by IcoMoon.io -->
<svg version="1.1" xmlns="http://www.w3.org/2000/svg" width="32" height="32" viewBox="0 0 32 32">
<title>uniEF2B</title>
<path d="M2 0v32h26v-3.969h2v-2h-2v-4.016h2v-2h-2v-8h2v-2h-2v-4h2v-2h-2v-4.016h-26zM4 2h22v28h-22v-28zM6 8h10v-2h-10v2zM6 12h10v-2h-10v2zM21 25.938q0.609 0 1.148-0.227t0.938-0.625 0.625-0.938 0.227-1.148-0.227-1.141-0.625-0.93-0.938-0.633-1.148-0.234-1.141 0.234-0.93 0.633-0.633 0.93-0.234 1.141 0.234 1.148 0.633 0.938 0.93 0.625 1.141 0.227zM21 21.938q0.453 0 0.758 0.305t0.305 0.758-0.305 0.758-0.758 0.305-0.758-0.305-0.305-0.758 0.305-0.758 0.758-0.305zM21 11.938q0.609 0 1.148-0.227t0.938-0.625 0.625-0.938 0.227-1.148-0.227-1.141-0.625-0.93-0.938-0.633-1.148-0.234-1.141 0.234-0.93 0.633-0.633 0.93-0.234 1.141 0.234 1.148 0.633 0.938 0.93 0.625 1.141 0.227zM21 7.938q0.453 0 0.758 0.305t0.305 0.758-0.305 0.758-0.758 0.305-0.758-0.305-0.305-0.758 0.305-0.758 0.758-0.305zM6 22h10v-2h-10v2zM6 26h10v-2h-10v2z"></path>
</svg>
