<!-- Generated by IcoMoon.io -->
<svg version="1.1" xmlns="http://www.w3.org/2000/svg" width="32" height="32" viewBox="0 0 32 32">
<title>uniE369</title>
<path d="M16.141 20q-0.219 0.469-0.336 0.977t-0.195 1.023h-9.609v-2h10.141zM6 26v-2h9.578q0.078 0.516 0.219 1.016t0.359 0.984h-10.156zM4 30h21.078l1.984 2h-25.063v-32h17.422l8.578 8.578v8.875q-0.453-0.406-0.953-0.742t-1.047-0.57v-6.141h-8v-8h-14v28zM20 3.422v4.578h4.578zM20.375 16q-1.703 0.641-2.922 2h-11.453v-2h14.375zM6 8h10v2h-10v-2zM24 12v2h-18v-2h18zM32 31q0 0.406-0.297 0.703t-0.703 0.297-0.703-0.297l-4.547-4.531q-0.609 0.406-1.313 0.617t-1.438 0.211q-1.031 0-1.945-0.391t-1.594-1.070-1.070-1.594-0.391-1.945 0.391-1.938 1.070-1.586 1.594-1.078 1.945-0.398 1.938 0.398 1.586 1.078 1.078 1.586 0.398 1.938q0 0.734-0.211 1.438t-0.617 1.313l4.531 4.547q0.297 0.297 0.297 0.703zM20 23q0 0.625 0.234 1.172t0.641 0.953 0.953 0.641 1.172 0.234 1.172-0.234 0.953-0.641 0.641-0.953 0.234-1.172-0.234-1.172-0.641-0.953-0.953-0.641-1.172-0.234-1.172 0.234-0.953 0.641-0.641 0.953-0.234 1.172z"></path>
</svg>
