<!-- Generated by IcoMoon.io -->
<svg version="1.1" xmlns="http://www.w3.org/2000/svg" width="32" height="32" viewBox="0 0 32 32">
<title>uniEF0D</title>
<path d="M30 0v32h-26v-3.969h-2v-2h2v-4.016h-2v-2h2v-8h-2v-2h2v-4h-2v-2h2v-4.016h26zM28 2h-22v28h22v-28zM26 8h-10v-2h10v2zM26 12h-10v-2h10v2zM11 25.938q-0.609 0-1.148-0.227t-0.938-0.625-0.625-0.938-0.227-1.148 0.227-1.141 0.625-0.93 0.938-0.633 1.148-0.234 1.141 0.234 0.93 0.633 0.633 0.93 0.234 1.141-0.234 1.148-0.633 0.938-0.93 0.625-1.141 0.227zM11 21.938q-0.453 0-0.758 0.305t-0.305 0.758 0.305 0.758 0.758 0.305 0.758-0.305 0.305-0.758-0.305-0.758-0.758-0.305zM11 11.938q-0.609 0-1.148-0.227t-0.938-0.625-0.625-0.938-0.227-1.148 0.227-1.141 0.625-0.93 0.938-0.633 1.148-0.234 1.141 0.234 0.93 0.633 0.633 0.93 0.234 1.141-0.234 1.148-0.633 0.938-0.93 0.625-1.141 0.227zM11 7.938q-0.453 0-0.758 0.305t-0.305 0.758 0.305 0.758 0.758 0.305 0.758-0.305 0.305-0.758-0.305-0.758-0.758-0.305zM26 22h-10v-2h10v2zM26 26h-10v-2h10v2z"></path>
</svg>
