<!-- Generated by IcoMoon.io -->
<svg version="1.1" xmlns="http://www.w3.org/2000/svg" width="32" height="32" viewBox="0 0 32 32">
<title>uniE42E</title>
<path d="M28.391 18h1.609v2h-0.344q-0.313 0.891-0.883 1.625t-1.32 1.266-1.633 0.82-1.82 0.289-1.828-0.289-1.641-0.813-1.32-1.266-0.867-1.633h-0.344v-2h1.609l2.922-8.75-6.531-2.172v18.953q2.641 0.172 4.953 1.172t4.25 2.797h2.797v2h-26v-2h2.797q1.922-1.781 4.258-2.789t4.945-1.18v-19.625l-6.156-2.047 2.547 7.641h1.609v2h-0.344q-0.313 0.891-0.883 1.625t-1.32 1.266-1.633 0.82-1.82 0.289-1.828-0.289-1.641-0.813-1.32-1.266-0.867-1.633h-0.344v-2h1.609l2.922-8.75-4.094-1.359 0.641-1.891 12.922 4.297v-4.297h2v4.969l13.547 4.5-0.641 1.906-3.078-1.031zM9.469 14h-6.938q0.547 0.938 1.469 1.469t2 0.531 2-0.531 1.469-1.469zM8.281 12l-2.281-6.844-2.281 6.844h4.563zM15 28q-1.844 0-3.609 0.508t-3.328 1.492h13.875q-1.547-0.984-3.328-1.492t-3.609-0.508zM24 11.156l-2.281 6.844h4.563zM27.469 20h-6.938q0.547 0.938 1.469 1.469t2 0.531 2-0.531 1.469-1.469z"></path>
</svg>
