<!-- Generated by IcoMoon.io -->
<svg version="1.1" xmlns="http://www.w3.org/2000/svg" width="32" height="32" viewBox="0 0 32 32">
<title>uniF334</title>
<path d="M27.422 8h-7.422v-7.422zM15 16.125q0.594 0 1.117 0.227t0.914 0.625 0.617 0.922 0.227 1.102q0 0.594-0.227 1.117t-0.625 0.914-0.922 0.617-1.102 0.227q-0.594 0-1.117-0.227t-0.914-0.625-0.617-0.914-0.227-1.109 0.227-1.117 0.625-0.914 0.914-0.617 1.109-0.227zM28 10v22h-26v-32h16v10h10zM20.047 19.875q0.031-0.219 0.047-0.438t0.016-0.438-0.016-0.438-0.047-0.438l2.891-1.188-0.859-2.094-2.891 1.203q-0.516-0.719-1.234-1.234l1.203-2.891-2.094-0.859-1.188 2.891q-0.219-0.031-0.438-0.047t-0.438-0.016-0.438 0.016-0.438 0.047l-1.188-2.891-2.094 0.859 1.203 2.891q-0.719 0.516-1.234 1.234l-2.891-1.203-0.859 2.094 2.891 1.188q-0.031 0.219-0.055 0.438t-0.023 0.438 0.023 0.438 0.055 0.438l-2.891 1.188 0.859 2.094 2.891-1.203q0.516 0.719 1.234 1.234l-1.203 2.891 2.094 0.859 1.188-2.891q0.219 0.031 0.438 0.055t0.438 0.023 0.438-0.023 0.438-0.055l1.188 2.891 2.094-0.859-1.203-2.891q0.719-0.516 1.234-1.234l2.891 1.203 0.859-2.094z"></path>
</svg>
