<!-- Generated by IcoMoon.io -->
<svg version="1.1" xmlns="http://www.w3.org/2000/svg" width="32" height="32" viewBox="0 0 32 32">
<title>uniEFD4</title>
<path d="M25.5 22.844q1.031 0.516 1.859 1.266t1.414 1.672 0.906 2 0.32 2.219h-2q0-1.234-0.469-2.328t-1.289-1.914-1.914-1.289-2.328-0.469q-1.25 0-2.336 0.469t-1.906 1.289-1.289 1.914-0.469 2.328h-2q0-1.141 0.32-2.219t0.906-2 1.414-1.672 1.859-1.266q-1.172-0.844-1.836-2.109t-0.664-2.734q0-1.234-0.469-2.328t-1.289-1.914-1.914-1.289-2.328-0.469q-1.25 0-2.336 0.469t-1.906 1.289-1.289 1.914-0.469 2.328h-2q0-1.141 0.32-2.219t0.906-2 1.414-1.672 1.859-1.266q-1.172-0.844-1.836-2.109t-0.664-2.734q0-1.234 0.469-2.328t1.289-1.914 1.906-1.289 2.336-0.469q1.234 0 2.328 0.469t1.914 1.289 1.289 1.914 0.469 2.328q0 1.469-0.664 2.734t-1.836 2.109q1.188 0.594 2.125 1.531t1.531 2.125q0.844-1.172 2.109-1.836t2.734-0.664q1.234 0 2.328 0.469t1.914 1.289 1.289 1.914 0.469 2.328q0 1.469-0.664 2.734t-1.836 2.109zM10 10q0.828 0 1.555-0.313t1.273-0.859 0.859-1.273 0.313-1.555-0.313-1.555-0.859-1.273-1.273-0.859-1.555-0.313-1.555 0.313-1.273 0.859-0.859 1.273-0.313 1.555 0.313 1.555 0.859 1.273 1.273 0.859 1.555 0.313zM22 22q0.828 0 1.555-0.313t1.273-0.859 0.859-1.273 0.313-1.555-0.313-1.555-0.859-1.273-1.273-0.859-1.555-0.313-1.555 0.313-1.273 0.859-0.859 1.273-0.313 1.555 0.313 1.555 0.859 1.273 1.273 0.859 1.555 0.313zM24 4h-6v-2h8v8h-2v-6z"></path>
</svg>
