<!-- Generated by IcoMoon.io -->
<svg version="1.1" xmlns="http://www.w3.org/2000/svg" width="32" height="32" viewBox="0 0 32 32">
<title>uniE7A1</title>
<path d="M16 0q2.203 0 4.25 0.57t3.828 1.609 3.242 2.5 2.5 3.242 1.609 3.828 0.57 4.25-0.57 4.25-1.609 3.828-2.5 3.242-3.242 2.5-3.828 1.609-4.25 0.57-4.25-0.57-3.828-1.609-3.242-2.5-2.5-3.242-1.609-3.82-0.57-4.258q0-2.203 0.57-4.25t1.609-3.828 2.5-3.242 3.242-2.5 3.82-1.609 4.258-0.57zM16 30q1.922 0 3.711-0.5t3.344-1.414 2.836-2.195 2.195-2.836 1.414-3.344 0.5-3.711-0.5-3.711-1.414-3.344-2.195-2.836-2.836-2.195-3.344-1.414-3.711-0.5q-1.016 0-2 0.141v27.719q0.984 0.141 2 0.141z"></path>
</svg>
