<!-- Generated by IcoMoon.io -->
<svg version="1.1" xmlns="http://www.w3.org/2000/svg" width="32" height="32" viewBox="0 0 32 32">
<title>uniEEBD</title>
<path d="M28 14h-10v-2h10v2zM24 20h-6v-2h6v2zM32 4v24h-32v-24h32zM30 6h-28v20h28v-20zM10 18q-0.828 0-1.555 0.313t-1.273 0.859-0.859 1.273-0.313 1.555h-2q0-0.813 0.219-1.586t0.617-1.453 0.969-1.242 1.289-0.969q-0.516-0.547-0.805-1.266t-0.289-1.484q0-0.828 0.313-1.555t0.859-1.273 1.273-0.859 1.555-0.313 1.555 0.313 1.273 0.859 0.859 1.273 0.313 1.555q0 0.766-0.289 1.484t-0.805 1.266q0.719 0.406 1.289 0.969t0.969 1.242 0.617 1.453 0.219 1.586h-2q0-0.828-0.313-1.555t-0.859-1.273-1.273-0.859-1.555-0.313zM8 14q0 0.422 0.156 0.781t0.43 0.633 0.633 0.43 0.781 0.156 0.781-0.156 0.633-0.43 0.43-0.633 0.156-0.781-0.156-0.781-0.43-0.633-0.633-0.43-0.781-0.156-0.781 0.156-0.633 0.43-0.43 0.633-0.156 0.781z"></path>
</svg>
