<!-- Generated by IcoMoon.io -->
<svg version="1.1" xmlns="http://www.w3.org/2000/svg" width="32" height="32" viewBox="0 0 32 32">
<title>uniE779</title>
<path d="M11.563 16.828q1.016 0.516 1.836 1.273t1.398 1.688 0.891 2 0.313 2.211h-2q0-1.234-0.477-2.328t-1.289-1.906-1.906-1.289-2.328-0.477-2.328 0.477-1.906 1.289-1.289 1.906-0.477 2.328h-2q0-1.141 0.313-2.211t0.891-2 1.398-1.688 1.836-1.273q-1.141-0.844-1.789-2.125t-0.648-2.703q0-1.234 0.477-2.328t1.289-1.906 1.906-1.289 2.328-0.477 2.328 0.477 1.906 1.289 1.289 1.906 0.477 2.328q0 1.422-0.648 2.703t-1.789 2.125zM4 12q0 0.828 0.32 1.555t0.859 1.266 1.266 0.859 1.555 0.32q0.813 0 1.547-0.32t1.273-0.859 0.859-1.266 0.32-1.555q0-0.813-0.32-1.547t-0.859-1.273-1.273-0.859-1.547-0.32q-0.828 0-1.555 0.32t-1.266 0.859-0.859 1.273-0.32 1.547zM32 6v2h-14v-2h14zM18 14h14v2h-14v-2zM18 22h14v2h-14v-2z"></path>
</svg>
