<!-- Generated by IcoMoon.io -->
<svg version="1.1" xmlns="http://www.w3.org/2000/svg" width="32" height="32" viewBox="0 0 32 32">
<title>uniE4FB</title>
<path d="M28.672 2q0.281 0 0.531 0.117t0.422 0.32 0.273 0.453 0.102 0.531v13.656q0 0.453-0.289 0.836t-0.758 0.445l-0.016 0.016-13.234 1.703 13.313 2.531q0.125 0.031 0.195 0.133t0.070 0.227q0 0.219-0.172 0.313l-12.25 6.531q-0.359 0.188-0.781 0.188-0.5 0-0.906-0.266l-12.641-8.219q-0.25-0.172-0.391-0.43t-0.141-0.555v-1.844q0-0.313 0.141-0.57t0.406-0.43l8.391-5.125-8.281-2.734q-0.313-0.109-0.484-0.367t-0.172-0.57v-2.484q0-0.359 0.227-0.648t0.586-0.336l25.297-3.359q0.141-0.031 0.281-0.047t0.281-0.016zM4 8.172q2.313 0.75 4.594 1.5t4.578 1.516l10.719-6.547-19.891 2.641v0.891zM24.047 23.703q-2.703-0.516-5.359-1.031t-5.359-1.016l-4-0.766q-0.203 0-0.672 0.055t-0.992 0.133-1.016 0.148-0.742 0.102l10.188 6.625zM28 16.469v-12l-24 14.781v0.313z"></path>
</svg>
