<!-- Generated by IcoMoon.io -->
<svg version="1.1" xmlns="http://www.w3.org/2000/svg" width="32" height="32" viewBox="0 0 32 32">
<title>uniF862</title>
<path d="M32 23.188q0 0.844-0.313 1.602t-0.906 1.352l-5.781 5.766-5.781-5.766q-0.594-0.594-0.906-1.352t-0.313-1.602q0-0.859 0.328-1.625t0.891-1.336 1.32-0.898 1.633-0.328q0.781 0 1.523 0.273t1.305 0.82q0.594-0.547 1.313-0.82t1.516-0.273q0.875 0 1.633 0.328t1.32 0.898 0.891 1.336 0.328 1.625zM30 23.188q0-0.453-0.172-0.852t-0.469-0.695-0.695-0.469-0.852-0.172q-0.891 0-1.531 0.641l-1.281 1.281-1.281-1.281q-0.313-0.313-0.711-0.477t-0.82-0.164q-0.453 0-0.852 0.172t-0.695 0.469-0.469 0.695-0.172 0.852q0 0.891 0.641 1.531l4.359 4.359 4.359-4.359q0.641-0.641 0.641-1.531zM18 18q-1.359-1.016-2.828-1.508t-3.172-0.492q-2.094 0-3.922 0.773t-3.18 2.125-2.125 3.18-0.773 3.922h-2q0-1.891 0.547-3.633t1.563-3.211 2.445-2.602 3.211-1.789q-0.859-0.531-1.555-1.281t-1.188-1.633-0.758-1.859-0.266-1.992q0-1.656 0.633-3.109t1.719-2.539 2.539-1.719 3.109-0.633 3.109 0.633 2.539 1.719 1.719 2.539 0.633 3.109q0 1.016-0.266 1.992t-0.758 1.859-1.188 1.633-1.555 1.281q1.031 0.359 1.898 0.914t1.695 1.273q-0.516 0.172-0.961 0.438t-0.867 0.609zM18 8q0-1.234-0.477-2.32t-1.297-1.906-1.906-1.297-2.32-0.477-2.32 0.477-1.906 1.297-1.297 1.906-0.477 2.32 0.477 2.32 1.297 1.906 1.906 1.297 2.32 0.477 2.32-0.477 1.906-1.297 1.297-1.906 0.477-2.32z"></path>
</svg>
