<!-- Generated by IcoMoon.io -->
<svg version="1.1" xmlns="http://www.w3.org/2000/svg" width="32" height="32" viewBox="0 0 32 32">
<title>uniF557</title>
<path d="M4 14h10v-2h-10v2zM0 4v15.422q0.438-0.547 0.93-1.031t1.070-0.875v-11.516h28v20h-14.109q-0.047 0.516-0.156 1.016t-0.281 0.984h16.547v-24h-32zM28 22q0-0.813-0.219-1.586t-0.625-1.453-0.984-1.242-1.297-0.953q0.531-0.547 0.828-1.266t0.297-1.5q0-0.828-0.313-1.555t-0.859-1.273-1.273-0.859-1.555-0.313-1.555 0.313-1.273 0.859-0.859 1.273-0.313 1.555q0 0.781 0.297 1.5t0.828 1.266q-0.719 0.391-1.297 0.953t-0.984 1.242-0.625 1.453-0.219 1.586h2q0-0.828 0.313-1.555t0.859-1.273 1.273-0.859 1.555-0.313 1.555 0.313 1.273 0.859 0.859 1.273 0.313 1.555h2zM22 12q0.422 0 0.781 0.156t0.633 0.43 0.43 0.633 0.156 0.781-0.156 0.781-0.43 0.633-0.633 0.43-0.781 0.156-0.781-0.156-0.633-0.43-0.43-0.633-0.156-0.781 0.156-0.781 0.43-0.633 0.633-0.43 0.781-0.156zM0.156 23.25l1.938 0.797q-0.094 0.469-0.094 0.953t0.094 0.953l-1.938 0.797 0.766 1.859 1.938-0.813q0.547 0.797 1.344 1.344l-0.813 1.938 1.859 0.766 0.797-1.938q0.469 0.094 0.953 0.094t0.953-0.094l0.797 1.938 1.859-0.766-0.813-1.938q0.797-0.547 1.344-1.344l1.938 0.813 0.766-1.859-1.938-0.797q0.094-0.469 0.094-0.953t-0.094-0.953l1.938-0.797-0.766-1.859-1.938 0.813q-0.547-0.797-1.344-1.344l0.813-1.938-1.859-0.766-0.797 1.938q-0.469-0.094-0.953-0.094t-0.953 0.094l-0.797-1.938-1.859 0.766 0.813 1.938q-0.797 0.547-1.344 1.344l-1.938-0.813zM7 28q-0.625 0-1.172-0.234t-0.953-0.641-0.641-0.953-0.234-1.172 0.234-1.172 0.641-0.953 0.953-0.641 1.172-0.234 1.172 0.234 0.953 0.641 0.641 0.953 0.234 1.172-0.234 1.172-0.641 0.953-0.953 0.641-1.172 0.234z"></path>
</svg>
