<!-- Generated by IcoMoon.io -->
<svg version="1.1" xmlns="http://www.w3.org/2000/svg" width="32" height="32" viewBox="0 0 32 32">
<title>uniF647</title>
<path d="M32 2v16.625q-0.438-0.484-0.945-0.898t-1.055-0.773v-6.953h-28v16h13.563q0.047 0.516 0.156 1.016t0.281 0.984h-16v-26h32zM30 4h-28v4h28v-4zM4 24v-12h10v12h-10zM6 22h6v-8h-6v8zM22 14h-6v-2h6v2zM16 16.031h6q-1.906 0.641-3.375 1.969h-2.625v-1.969zM31.844 23.25l-1.938 0.797q0.094 0.469 0.094 0.922 0 0.5-0.094 0.984l1.938 0.797-0.766 1.859-1.938-0.813q-0.266 0.391-0.602 0.734t-0.742 0.609l0.813 1.938-1.859 0.766-0.797-1.938q-0.469 0.094-0.953 0.094-0.234 0-0.469-0.047l-0.469-0.094-0.813 1.984-1.859-0.766 0.813-1.953q-0.391-0.266-0.711-0.609t-0.586-0.734l-1.984 0.828-0.766-1.859 1.938-0.797q-0.094-0.469-0.094-0.922 0-0.484 0.094-0.984l-1.938-0.797 0.766-1.859 1.938 0.813q0.266-0.391 0.602-0.734t0.742-0.609l-0.813-1.938 1.859-0.766 0.797 1.938q0.469-0.094 0.922-0.094 0.484 0 0.984 0.094l0.797-1.938 1.859 0.766-0.813 1.938q0.391 0.266 0.734 0.602t0.609 0.742l1.938-0.813zM25 27.984q0.625 0 1.172-0.234t0.953-0.641 0.641-0.953 0.234-1.156-0.234-1.156-0.648-0.961-0.961-0.648-1.156-0.234-1.156 0.234-0.961 0.648-0.648 0.961-0.234 1.156q0 0.625 0.234 1.164t0.648 0.945 0.961 0.641 1.156 0.234z"></path>
</svg>
