<!-- Generated by IcoMoon.io -->
<svg version="1.1" xmlns="http://www.w3.org/2000/svg" width="32" height="32" viewBox="0 0 32 32">
<title>uniF25F</title>
<path d="M28 10h-10v-2h10v2zM18 12h8v2h-8v-2zM27.938 22.094q0.875 0.172 1.625 0.617t1.289 1.102 0.844 1.477 0.305 1.711q0 1.031-0.398 1.945t-1.078 1.594-1.586 1.070-1.938 0.391h-4q-1.031 0-1.945-0.391t-1.594-1.070-1.070-1.594-0.391-1.945q0-0.891 0.297-1.703t0.828-1.461 1.266-1.102 1.609-0.641v2.078q-0.453 0.156-0.82 0.438t-0.633 0.656-0.406 0.82-0.141 0.914q0 0.625 0.234 1.172t0.641 0.953 0.953 0.641 1.172 0.234h4q0.625 0 1.172-0.234t0.953-0.641 0.641-0.953 0.234-1.172q0-0.484-0.148-0.938t-0.43-0.828-0.664-0.656-0.852-0.438q0.094-0.563 0.094-1.141 0-0.219-0.016-0.453t-0.047-0.453zM17 20q-0.625 0-1.172 0.234t-0.953 0.641-0.641 0.953-0.234 1.172q0 0.5 0.148 0.945t0.43 0.82 0.664 0.656 0.852 0.438q-0.094 0.563-0.094 1.141 0 0.219 0.016 0.453t0.047 0.453q-0.875-0.156-1.625-0.609t-1.289-1.109-0.844-1.477-0.305-1.711q0-1.031 0.391-1.938t1.070-1.586 1.594-1.078 1.945-0.398h4q1.031 0 1.938 0.398t1.586 1.078 1.078 1.586 0.398 1.938q0 0.844-0.32 1.648t-0.867 1.461-1.273 1.133-1.539 0.664v-2.078q0.672-0.141 1.063-0.367t0.602-0.57 0.273-0.813 0.063-1.078q0-0.625-0.234-1.172t-0.641-0.953-0.953-0.641-1.172-0.234h-4zM32 0v21.422q-0.891-0.797-2-1.266v-18.156h-28v20h7.609q-0.031 0.25-0.070 0.492t-0.039 0.508q0 0.25 0.031 0.5l0.063 0.5h-9.594v-24h32zM4 18q0-0.813 0.219-1.586t0.625-1.453 0.984-1.242 1.297-0.953q-0.531-0.547-0.828-1.266t-0.297-1.5q0-0.828 0.313-1.555t0.859-1.273 1.273-0.859 1.555-0.313 1.555 0.313 1.273 0.859 0.859 1.273 0.313 1.555q0 0.781-0.297 1.5t-0.828 1.266q0.984 0.547 1.711 1.414t1.102 1.93q-1 0.156-1.938 0.563-0.219-0.594-0.594-1.086t-0.867-0.844-1.078-0.547-1.211-0.195q-0.828 0-1.555 0.313t-1.273 0.859-0.859 1.273-0.313 1.555h-2zM10 8q-0.422 0-0.781 0.156t-0.633 0.43-0.43 0.633-0.156 0.781 0.156 0.781 0.43 0.633 0.633 0.43 0.781 0.156 0.781-0.156 0.633-0.43 0.43-0.633 0.156-0.781-0.156-0.781-0.43-0.633-0.633-0.43-0.781-0.156z"></path>
</svg>
