<!-- Generated by IcoMoon.io -->
<svg version="1.1" xmlns="http://www.w3.org/2000/svg" width="32" height="32" viewBox="0 0 32 32">
<title>uniE464</title>
<path d="M28 30v-4.063l2-2.016v8.078h-8.047l1.984-2h4.063zM22 14v-6h-10v21.688q0 0.016-0.086 0.352t-0.188 0.75-0.195 0.781-0.109 0.43h-1.422v-6h-8v-26h13.422l6 6h2l5.547 5.547q-1.281 0-2.391 0.453l-2.578-2.578v2.578h2.578q-0.438 0.188-0.766 0.398t-0.609 0.453-0.563 0.531-0.609 0.617h-2.031zM10 6h8.578l-4-4h-10.578v22h6v-18zM32 17.094q0 0.609-0.234 1.188t-0.672 1.016l-11.203 11.234-5.891 1.469 1.469-5.891 11.203-11.219q0.438-0.438 1.016-0.664t1.188-0.227q0.656 0 1.227 0.234t0.992 0.656 0.664 0.984 0.242 1.219zM30 17.094q0-0.484-0.32-0.789t-0.805-0.305q-0.219 0-0.422 0.070t-0.359 0.227l-10.813 10.844-0.531 2.109 2.109-0.531 10.813-10.828q0.328-0.328 0.328-0.797z"></path>
</svg>
