<!-- Generated by IcoMoon.io -->
<svg version="1.1" xmlns="http://www.w3.org/2000/svg" width="32" height="32" viewBox="0 0 32 32">
<title>uniE832</title>
<path d="M16 2q1.938 0 3.727 0.5t3.344 1.414 2.828 2.188 2.188 2.828 1.414 3.344 0.5 3.727-0.5 3.727-1.414 3.344-2.188 2.828-2.828 2.188-3.344 1.414-3.727 0.5-3.727-0.5-3.344-1.414-2.828-2.188-2.188-2.828-1.414-3.344-0.5-3.727 0.5-3.727 1.414-3.344 2.188-2.828 2.828-2.188 3.344-1.414 3.727-0.5zM16 27.266q1.547 0 2.992-0.406t2.695-1.133 2.281-1.758 1.758-2.281 1.133-2.688 0.406-3q0-1.547-0.406-2.992t-1.133-2.695-1.758-2.281-2.281-1.758-2.695-1.133-2.992-0.406-2.992 0.406-2.695 1.133-2.281 1.758-1.758 2.281-1.133 2.695-0.406 2.992 0.406 2.992 1.133 2.695 1.758 2.281 2.281 1.758 2.688 1.133 3 0.406z"></path>
</svg>
