<!-- Generated by IcoMoon.io -->
<svg version="1.1" xmlns="http://www.w3.org/2000/svg" width="32" height="32" viewBox="0 0 32 32">
<title>uniE831</title>
<path d="M16 0q2.203 0 4.25 0.57t3.82 1.617 3.234 2.508 2.508 3.234 1.617 3.82 0.57 4.25-0.57 4.25-1.617 3.82-2.508 3.234-3.234 2.508-3.82 1.617-4.25 0.57-4.25-0.57-3.82-1.617-3.234-2.508-2.508-3.234-1.617-3.82-0.57-4.25 0.57-4.25 1.617-3.82 2.508-3.234 3.234-2.508 3.82-1.617 4.25-0.57zM16 29.797q1.906 0 3.664-0.492t3.289-1.391 2.797-2.164 2.164-2.797 1.391-3.289 0.492-3.664-0.492-3.664-1.391-3.289-2.164-2.797-2.797-2.164-3.289-1.391-3.664-0.492-3.664 0.492-3.289 1.391-2.797 2.164-2.164 2.797-1.391 3.289-0.492 3.664 0.492 3.664 1.391 3.289 2.164 2.797 2.797 2.164 3.289 1.391 3.664 0.492z"></path>
</svg>
