<!-- Generated by IcoMoon.io -->
<svg version="1.1" xmlns="http://www.w3.org/2000/svg" width="32" height="32" viewBox="0 0 32 32">
<title>uniF4C7</title>
<path d="M16 0q2.203 0 4.25 0.57t3.82 1.617 3.234 2.508 2.508 3.234 1.617 3.82 0.57 4.25-0.57 4.25-1.617 3.82-2.508 3.234-3.234 2.508-3.82 1.617-4.25 0.57-4.25-0.57-3.82-1.617-3.234-2.508-2.508-3.234-1.617-3.82-0.57-4.25 0.57-4.25 1.617-3.82 2.508-3.234 3.234-2.508 3.82-1.617 4.25-0.57zM16 26q1.375 0 2.656-0.359t2.391-1.008 2.023-1.563 1.563-2.023 1.008-2.391 0.359-2.656-0.359-2.656-1.008-2.391-1.563-2.023-2.023-1.563-2.391-1.008-2.656-0.359-2.656 0.359-2.391 1.008-2.023 1.563-1.563 2.023-1.008 2.391-0.359 2.656 0.359 2.656 1.008 2.391 1.563 2.023 2.023 1.563 2.391 1.008 2.656 0.359z"></path>
</svg>
