<!-- Generated by IcoMoon.io -->
<svg version="1.1" xmlns="http://www.w3.org/2000/svg" width="32" height="32" viewBox="0 0 32 32">
<title>uniF4C9</title>
<path d="M16 0q2.203 0 4.25 0.57t3.82 1.617 3.234 2.508 2.508 3.234 1.617 3.82 0.57 4.25-0.57 4.25-1.617 3.82-2.508 3.234-3.234 2.508-3.82 1.617-4.25 0.57-4.25-0.57-3.82-1.617-3.234-2.508-2.508-3.234-1.617-3.82-0.57-4.25 0.57-4.25 1.617-3.82 2.508-3.234 3.234-2.508 3.82-1.617 4.25-0.57zM16 24q1.656 0 3.117-0.625t2.547-1.711 1.711-2.547 0.625-3.117-0.625-3.117-1.711-2.547-2.547-1.711-3.117-0.625-3.117 0.625-2.547 1.711-1.711 2.547-0.625 3.117 0.625 3.117 1.711 2.547 2.547 1.711 3.117 0.625z"></path>
</svg>
