<!-- Generated by IcoMoon.io -->
<svg version="1.1" xmlns="http://www.w3.org/2000/svg" width="32" height="32" viewBox="0 0 32 32">
<title>uniF207</title>
<path d="M24 0h8v8h-2v-4.578l-9 8.984-6-6-15 15.016v-2.844l15-14.984 6 6 7.578-7.594h-4.578v-2zM27 14q1.031 0 1.938 0.398t1.586 1.078 1.078 1.586 0.398 1.938-0.398 1.945-1.078 1.594-1.586 1.070-1.938 0.391q-0.359 0-0.703-0.047l-7.172 7.172q-0.422 0.422-0.977 0.648t-1.148 0.227q-0.625 0-1.172-0.234t-0.953-0.641-0.641-0.953-0.234-1.172q0-0.594 0.227-1.148t0.648-0.977l7.172-7.172q-0.047-0.344-0.047-0.703 0-1.031 0.391-1.938t1.070-1.586 1.594-1.078 1.945-0.398zM27 22q0.625 0 1.172-0.234t0.953-0.641 0.641-0.953 0.234-1.172q0-0.641-0.297-1.281l-2.281 2.281h-1.422v-1.422l2.281-2.281q-0.641-0.297-1.281-0.297-0.625 0-1.172 0.234t-0.953 0.641-0.641 0.953-0.234 1.172q0 0.641 0.297 1.281-2.016 2.016-4 4.008t-4 4.008q-0.297 0.297-0.297 0.703t0.297 0.703 0.703 0.297 0.703-0.297q2.016-2.016 4.008-4t4.008-4q0.641 0.297 1.281 0.297z"></path>
</svg>
