<!-- Generated by IcoMoon.io -->
<svg version="1.1" xmlns="http://www.w3.org/2000/svg" width="32" height="32" viewBox="0 0 32 32">
<title>uniEAF3</title>
<path d="M23.5 6.141q1.422 0.281 2.609 1t2.055 1.758 1.352 2.344 0.484 2.758q0 1.578-0.586 2.992t-1.602 2.5-2.391 1.75-2.953 0.742q-1.109 1.656-2.789 2.703t-3.68 1.266v6.047h-2v-6.047q-2-0.219-3.68-1.266t-2.789-2.703q-1.578-0.078-2.953-0.742t-2.391-1.75-1.602-2.5-0.586-2.992q0-1.453 0.484-2.758t1.352-2.344 2.055-1.758 2.609-1q0.453-1.375 1.297-2.5t1.961-1.938 2.453-1.258 2.789-0.445 2.789 0.445 2.453 1.258 1.961 1.938 1.297 2.5zM22 20q1.234 0 2.328-0.469t1.914-1.289 1.289-1.906 0.469-2.336q0-1.234-0.469-2.328t-1.289-1.914-1.914-1.289-2.328-0.469q-0.031 0-0.047 0.008t-0.047 0.008q-0.188-1.281-0.797-2.383t-1.531-1.914-2.094-1.266-2.484-0.453-2.484 0.453-2.094 1.266-1.531 1.914-0.797 2.383q-0.031 0-0.047-0.008t-0.047-0.008q-1.25 0.016-2.344 0.484t-1.906 1.273-1.281 1.898-0.469 2.344 0.469 2.336 1.289 1.906 1.906 1.289 2.336 0.469h0.703q0.375 0.797 0.922 1.461t1.234 1.172 1.477 0.836 1.664 0.453v-2.016q-0.875-0.188-1.609-0.641t-1.266-1.102-0.828-1.461-0.297-1.703h2q0 0.469 0.141 0.914t0.406 0.82 0.633 0.656 0.82 0.438v-5.828h2v5.828q0.453-0.156 0.82-0.438t0.633-0.656 0.406-0.82 0.141-0.914h2q0 0.891-0.297 1.703t-0.828 1.461-1.266 1.102-1.609 0.641v2.016q0.859-0.125 1.656-0.453t1.484-0.836 1.234-1.172 0.922-1.461h0.703z"></path>
</svg>
