<!-- Generated by IcoMoon.io -->
<svg version="1.1" xmlns="http://www.w3.org/2000/svg" width="32" height="32" viewBox="0 0 32 32">
<title>uniF7BC</title>
<path d="M9.75 13q0 0.563-0.219 1.063t-0.594 0.875-0.875 0.594-1.063 0.219-1.063-0.219-0.875-0.594-0.594-0.875-0.219-1.063 0.219-1.063 0.594-0.875 0.875-0.594 1.063-0.219 1.063 0.219 0.875 0.594 0.594 0.875 0.219 1.063zM7 14.25q0.516 0 0.883-0.367t0.367-0.883-0.367-0.883-0.883-0.367-0.883 0.367-0.367 0.883 0.367 0.883 0.883 0.367zM15 16.25q0.563 0 1.063 0.219t0.875 0.594 0.594 0.875 0.219 1.063-0.219 1.063-0.594 0.875-0.875 0.594-1.063 0.219-1.063-0.219-0.875-0.594-0.594-0.875-0.219-1.063 0.219-1.063 0.594-0.875 0.875-0.594 1.063-0.219zM15 20.25q0.516 0 0.883-0.367t0.367-0.883-0.367-0.883-0.883-0.367-0.883 0.367-0.367 0.883 0.367 0.883 0.883 0.367zM13.156 10h1.688l-6 12h-1.688zM22 6l10 10-10 10h-22v-20h22zM21.172 24l8-8-8-8h-19.172v16h19.172zM24 15q0.406 0 0.703 0.297t0.297 0.703-0.297 0.703-0.703 0.297-0.703-0.297-0.297-0.703 0.297-0.703 0.703-0.297z"></path>
</svg>
