<!-- Generated by IcoMoon.io -->
<svg version="1.1" xmlns="http://www.w3.org/2000/svg" width="32" height="32" viewBox="0 0 32 32">
<title>uniF67A</title>
<path d="M32 18v14h-22v-14h22zM14.609 20l6.391 3.828 6.391-3.828h-12.781zM30 30v-9.234l-9 5.406-9-5.406v9.234h18zM14.5 8q-0.484 0-0.852 0.148t-0.688 0.367-0.633 0.484-0.711 0.484-0.906 0.367-1.211 0.148h-7.5v14h6v2h-8v-20q0-0.422 0.156-0.781t0.43-0.633 0.633-0.43 0.781-0.156h7.5q0.703 0 1.211 0.148t0.906 0.367 0.711 0.484 0.633 0.484 0.688 0.367 0.852 0.148h11.5q0.422 0 0.781 0.156t0.633 0.43 0.43 0.633 0.156 0.781v8h-2v-8h-11.5zM2 6v2h7.5q0.375 0 0.656-0.070t0.516-0.203 0.461-0.313 0.492-0.414q-0.266-0.234-0.492-0.414t-0.461-0.313-0.516-0.203-0.656-0.070h-7.5z"></path>
</svg>
