<!-- Generated by IcoMoon.io -->
<svg version="1.1" xmlns="http://www.w3.org/2000/svg" width="32" height="32" viewBox="0 0 32 32">
<title>uniECD6</title>
<path d="M26 24h-4v-2h4v2zM29.5 8q0.516 0 0.969 0.195t0.797 0.539 0.539 0.797 0.195 0.969v17q0 0.516-0.195 0.969t-0.539 0.797-0.797 0.539-0.969 0.195h-25q-0.516 0-0.969-0.195t-0.797-0.539-0.539-0.797-0.195-0.969v-9.5h-2v-18h14v8h15.5zM2 16h10v-14h-10v14zM30 16h-16v2h-10v9.5q0 0.219 0.141 0.359t0.359 0.141h25q0.219 0 0.359-0.141t0.141-0.359v-11.5zM30 10.5q0-0.219-0.141-0.359t-0.359-0.141h-15.5v4h16v-3.5zM8 6h-4v-2h4v2zM8 10h-4v-2h4v2zM4 12h6v2h-6v-2z"></path>
</svg>
