<!-- Generated by IcoMoon.io -->
<svg version="1.1" xmlns="http://www.w3.org/2000/svg" width="32" height="32" viewBox="0 0 32 32">
<title>uniEB1E</title>
<path d="M20 22q0.828 0 1.555 0.313t1.273 0.859 0.859 1.273 0.313 1.555-0.313 1.555-0.859 1.273-1.273 0.859-1.555 0.313-1.555-0.313-1.273-0.859-0.859-1.273-0.313-1.555 0.313-1.555 0.859-1.273 1.273-0.859 1.555-0.313zM20 28q0.422 0 0.781-0.156t0.633-0.43 0.43-0.633 0.156-0.781-0.156-0.781-0.43-0.633-0.633-0.43-0.781-0.156-0.781 0.156-0.633 0.43-0.43 0.633-0.156 0.781 0.156 0.781 0.43 0.633 0.633 0.43 0.781 0.156zM31 0q0.406 0 0.703 0.297t0.297 0.703-0.297 0.703l-8.531 8.547q0.406 0.609 0.617 1.313t0.211 1.438v0.422l-18.578 18.578-5.422-5.422 18.578-18.578q0.906 0 1.648 0.164t1.523 0.664l8.547-8.531q0.297-0.297 0.703-0.297zM21.969 12.609q-0.063-0.5-0.289-0.945t-0.563-0.781-0.781-0.563-0.945-0.289l-16.563 16.547 2.594 2.594z"></path>
</svg>
