<!-- Generated by IcoMoon.io -->
<svg version="1.1" xmlns="http://www.w3.org/2000/svg" width="32" height="32" viewBox="0 0 32 32">
<title>uniF5C9</title>
<path d="M15 0q2.063 0 3.977 0.539t3.586 1.516 3.039 2.344 2.344 3.039 1.516 3.586 0.539 3.977-0.539 3.977-1.516 3.586-2.344 3.039-3.039 2.344-3.586 1.516-3.977 0.539-3.977-0.539-3.586-1.516-3.039-2.344-2.344-3.039-1.516-3.586-0.539-3.977 0.539-3.977 1.516-3.586 2.344-3.039 3.039-2.344 3.586-1.516 3.977-0.539zM16 20h-2v2h2v-2zM16 8h-2v10h2v-10z"></path>
</svg>
