<!-- Generated by IcoMoon.io -->
<svg version="1.1" xmlns="http://www.w3.org/2000/svg" width="32" height="32" viewBox="0 0 32 32">
<title>uniEFD6</title>
<path d="M18.688 21.891q0.547 0 1.063 0.211t0.906 0.602l2.531 2.531q0.391 0.391 0.602 0.906t0.211 1.063-0.211 1.063-0.602 0.906q-0.688 0.688-1.242 1.219t-1.156 0.891-1.32 0.539-1.75 0.18q-1.438 0-2.961-0.445t-3.039-1.242-2.977-1.898-2.758-2.406-2.398-2.758-1.898-2.977-1.242-3.047-0.445-2.961q0-1.016 0.188-1.742t0.547-1.32 0.883-1.148 1.211-1.242q0.391-0.391 0.906-0.602t1.063-0.211 1.063 0.211 0.906 0.602l2.531 2.531q0.391 0.391 0.602 0.906t0.211 1.063q0 0.531-0.172 0.953t-0.43 0.766-0.555 0.617-0.555 0.516-0.43 0.469-0.172 0.477q0 0.313 0.234 0.547l6.313 6.313q0.234 0.234 0.547 0.234 0.25 0 0.477-0.172t0.469-0.43 0.516-0.555 0.609-0.555 0.758-0.43 0.969-0.172zM17.75 30q0.781 0 1.305-0.148t0.945-0.438 0.828-0.703 0.938-0.945q0.234-0.234 0.234-0.563 0-0.313-0.234-0.547l-2.531-2.531q-0.219-0.219-0.547-0.219-0.375 0-0.719 0.359t-0.758 0.797-0.961 0.797-1.359 0.359q-0.547 0-1.063-0.219t-0.906-0.609l-6.313-6.313q-0.391-0.391-0.609-0.906t-0.219-1.063q0-0.531 0.172-0.961t0.43-0.766 0.563-0.609 0.563-0.516 0.43-0.469 0.172-0.477q0-0.313-0.234-0.547l-2.531-2.531q-0.234-0.234-0.547-0.234-0.328 0-0.563 0.234-0.531 0.531-0.945 0.938t-0.703 0.828-0.438 0.945-0.148 1.305q0 1.234 0.406 2.57t1.125 2.672 1.711 2.641 2.156 2.469 2.469 2.156 2.641 1.711 2.672 1.125 2.57 0.406zM28.25 12.5l0.938 4.688-4.688-0.938-2.5 3.75-2.5-3.75-4.688 0.938 0.938-4.688-3.75-2.5 3.75-2.5-0.938-4.688 4.688 0.938 2.5-3.75 2.5 3.75 4.688-0.938-0.938 4.688 3.75 2.5zM26.641 14.641q-0.172-0.766-0.32-1.523t-0.289-1.539q0.594-0.406 1.18-0.797t1.18-0.781q-0.594-0.391-1.18-0.781t-1.18-0.797q0.141-0.766 0.297-1.531l0.313-1.531q-0.766 0.172-1.523 0.32t-1.539 0.289q-0.406-0.594-0.797-1.18t-0.781-1.18q-0.391 0.594-0.781 1.18t-0.797 1.18q-0.781-0.141-1.539-0.289t-1.523-0.32q0.172 0.766 0.32 1.523t0.289 1.539q-0.594 0.406-1.18 0.797t-1.18 0.781q0.594 0.391 1.18 0.781t1.18 0.797q-0.141 0.766-0.297 1.531l-0.313 1.531q0.766-0.172 1.523-0.32t1.539-0.289q0.406 0.594 0.797 1.18t0.781 1.18q0.391-0.594 0.781-1.18t0.797-1.18q0.781 0.141 1.539 0.289t1.523 0.32z"></path>
</svg>
