<!-- Generated by IcoMoon.io -->
<svg version="1.1" xmlns="http://www.w3.org/2000/svg" width="32" height="32" viewBox="0 0 32 32">
<title>uniF6EF</title>
<path d="M12 18v-2h2v2h-2zM20 10v2h-2v-2h2zM14 10v2h-2v-2h2zM27.547 24.844q1.016 0.5 1.844 1.258t1.406 1.688 0.891 2 0.313 2.211h-2q0-1.234-0.469-2.328t-1.289-1.914-1.914-1.289-2.328-0.469q-1.25 0-2.336 0.469t-1.906 1.289-1.289 1.914-0.469 2.328h-2q0-1.141 0.313-2.211t0.891-2 1.406-1.688 1.844-1.258q-1.156-0.844-1.805-2.117t-0.648-2.727q0-1.234 0.469-2.328t1.289-1.914 1.906-1.289 2.336-0.469v-6h-22v14h2v2h-4v-24h26v14.344q0.844 0.313 1.563 0.844t1.266 1.266q0.594 0.813 0.875 1.711t0.281 1.836q0 1.391-0.617 2.672t-1.82 2.172zM2 6h22v-4h-22v4zM24 24q0.828 0 1.555-0.313t1.273-0.859 0.859-1.273 0.313-1.555-0.313-1.555-0.859-1.273-1.273-0.859-1.555-0.313-1.555 0.313-1.273 0.859-0.859 1.273-0.313 1.555 0.313 1.555 0.859 1.273 1.273 0.859 1.555 0.313zM18 25l-4.234 4.234-1.422-1.406 1.828-1.828h-8.172v-12.172l-1.828 1.828-1.406-1.422 4.234-4.234 4.234 4.234-1.406 1.422-1.828-1.828v10.172h6.172l-1.828-1.828 1.422-1.406z"></path>
</svg>
