<!-- Generated by IcoMoon.io -->
<svg version="1.1" xmlns="http://www.w3.org/2000/svg" width="32" height="32" viewBox="0 0 32 32">
<title>uniEFD2</title>
<path d="M18.516 18.422q-1.375-1.172-3.047-1.797t-3.469-0.625q-1.375 0-2.656 0.359t-2.391 1.008-2.023 1.563-1.563 2.023-1.008 2.391-0.359 2.656h-2q0-1.875 0.555-3.609t1.57-3.203 2.445-2.609 3.18-1.797q-1.766-1.156-2.758-2.906t-0.992-3.875q0-1.656 0.625-3.117t1.711-2.547 2.547-1.711 3.117-0.625 3.117 0.625 2.547 1.711 1.711 2.547 0.625 3.117q0 1.031-0.258 2.016t-0.742 1.859-1.18 1.617-1.57 1.289q1.016 0.391 1.938 0.953t1.734 1.266zM6 8q0 1.25 0.469 2.336t1.289 1.906 1.906 1.289 2.336 0.469q1.234 0 2.328-0.469t1.914-1.289 1.289-1.906 0.469-2.336q0-1.234-0.469-2.328t-1.289-1.914-1.914-1.289-2.328-0.469q-1.25 0-2.336 0.469t-1.906 1.289-1.289 1.914-0.469 2.328zM27 12q1.031 0 1.938 0.398t1.586 1.078 1.078 1.586 0.398 1.938-0.398 1.945-1.078 1.594-1.586 1.070-1.938 0.391q-0.359 0-0.703-0.047l-9.172 9.172q-0.422 0.422-0.977 0.648t-1.148 0.227q-0.625 0-1.172-0.234t-0.953-0.641-0.641-0.953-0.234-1.172q0-0.594 0.227-1.148t0.648-0.977l9.172-9.172q-0.047-0.344-0.047-0.703 0-1.031 0.391-1.938t1.070-1.586 1.594-1.078 1.945-0.398zM27 20q0.625 0 1.172-0.234t0.953-0.641 0.641-0.953 0.234-1.172q0-0.641-0.297-1.281l-2.281 2.281h-1.422v-1.422l2.281-2.281q-0.641-0.297-1.281-0.297-0.625 0-1.172 0.234t-0.953 0.641-0.641 0.953-0.234 1.172q0 0.641 0.297 1.281l-10 10.016q-0.297 0.297-0.297 0.703t0.297 0.703 0.703 0.297 0.703-0.297l10.016-10q0.641 0.297 1.281 0.297z"></path>
</svg>
