<!-- Generated by IcoMoon.io -->
<svg version="1.1" xmlns="http://www.w3.org/2000/svg" width="32" height="32" viewBox="0 0 32 32">
<title>uniED01</title>
<path d="M28.016 5.016q0.625 0 1.172 0.234t0.953 0.641 0.641 0.953 0.234 1.172-0.242 1.172-0.648 0.953-0.953 0.641-1.172 0.234v19h-24v-19q-0.625 0-1.164-0.234t-0.945-0.648-0.641-0.961-0.234-1.156q0-0.625 0.234-1.172t0.641-0.953 0.953-0.641 1.172-0.234 1.172 0.234 0.953 0.641 0.641 0.953 0.234 1.172q0 0.859-0.461 1.602t-1.242 1.102l5.641 7.484 4.063-7.359q-0.453-0.156-0.82-0.438t-0.633-0.656-0.406-0.82-0.141-0.914q0-0.625 0.234-1.172t0.641-0.953 0.953-0.641 1.172-0.234 1.172 0.234 0.953 0.641 0.641 0.953 0.234 1.172q0 0.953-0.539 1.719t-1.43 1.094l4.109 7.391 5.531-7.516q-0.766-0.375-1.219-1.102t-0.453-1.586q0-0.625 0.234-1.172t0.641-0.953 0.953-0.641 1.172-0.234zM15.016 8.016q0 0.422 0.305 0.711t0.711 0.289v-0.016l0.016 0.016q0.406-0.016 0.688-0.305t0.281-0.695-0.297-0.703-0.703-0.297-0.703 0.297-0.297 0.703zM3.016 8.016q0 0.406 0.289 0.703t0.695 0.297v-0.016l0.016 0.016q0.406 0 0.703-0.297t0.297-0.703-0.297-0.703-0.703-0.297-0.703 0.297-0.297 0.703zM25.984 15.063l-5.063 6.891-4.875-8.797-4.828 8.734-5.203-6.891v13h19.969v-12.938zM28 9.016q0.406 0 0.711-0.289t0.305-0.711q0-0.406-0.297-0.703t-0.703-0.297-0.703 0.297-0.297 0.703q0 0.391 0.266 0.68t0.656 0.32l0.063-0.078v0.078z"></path>
</svg>
