<!-- Generated by IcoMoon.io -->
<svg version="1.1" xmlns="http://www.w3.org/2000/svg" width="32" height="32" viewBox="0 0 32 32">
<title>uniF2EF</title>
<path d="M0 16.359q0-2.203 0.695-4.102t1.977-3.289 3.109-2.18 4.094-0.789q1.156 0 2.32 0.164t2.242 0.633v2.422q-1.063-0.594-2.211-0.883t-2.367-0.289q-1.813 0-3.211 0.633t-2.344 1.742-1.438 2.602-0.492 3.211q0 1.625 0.453 3.031t1.344 2.453 2.195 1.648 3.023 0.602q1.344 0 2.617-0.297t2.43-1v2.203q-1.234 0.656-2.602 0.891t-2.742 0.234q-2.156 0-3.844-0.727t-2.859-2.016-1.781-3.055-0.609-3.844zM27.953 12.969l-0.875 4.125h3.859l-0.375 1.453h-3.766l-1.219 5.453h-1.719l1.172-5.453h-3.422l-1.156 5.453h-1.719l1.156-5.453h-3.609l0.281-1.453h3.641l0.844-4.125h-3.813l0.281-1.453h3.813l1.156-5.516h1.734l-1.156 5.516h3.453l1.188-5.516h1.688l-1.156 5.516h3.609l-0.313 1.453h-3.578zM26.25 12.969h-3.469l-0.906 4.125h3.484z"></path>
</svg>
