<!-- Generated by IcoMoon.io -->
<svg version="1.1" xmlns="http://www.w3.org/2000/svg" width="32" height="32" viewBox="0 0 32 32">
<title>uniF2F0</title>
<path d="M30 2v28h-28v-28h28zM28.141 3.859h-24.281v24.281h24.281v-24.281zM13.641 26q-1.297 0-2.328-0.43t-1.75-1.195-1.102-1.828-0.383-2.328q0-1.344 0.43-2.484t1.219-1.969 1.898-1.297 2.484-0.469q0.703 0 1.422 0.094t1.375 0.391v1.906q-0.594-0.359-1.25-0.531t-1.344-0.172q-1 0-1.781 0.336t-1.32 0.922-0.828 1.406-0.289 1.773q0 0.906 0.266 1.672t0.773 1.328 1.242 0.875 1.672 0.313q0.766 0 1.484-0.18t1.375-0.586v1.766q-0.75 0.391-1.586 0.539t-1.68 0.148zM19.969 21.172h-1.75l0.203-1.063h1.781l0.422-2.109h-1.859l0.219-1.063h1.859l0.609-2.938h1.219l-0.594 2.938h1.844l0.625-2.938h1.203l-0.609 2.938h1.734l-0.234 1.063h-1.734l-0.438 2.109h1.891l-0.266 1.063h-1.844l-0.625 2.828h-1.219l0.609-2.828h-1.844l-0.594 2.828h-1.219zM21.391 20.109h1.859l0.453-2.109h-1.859z"></path>
</svg>
