<!-- Generated by IcoMoon.io -->
<svg version="1.1" xmlns="http://www.w3.org/2000/svg" width="32" height="32" viewBox="0 0 32 32">
<title>uniEBEF</title>
<path d="M28 16.625l2-2v13.375h-30v-26h25.484q-0.625 0.406-1.141 0.945t-1.031 1.055h-21.313v4h17.313l-2 2h-15.313v16h26v-9.375zM28.875 4q0.656 0 1.219 0.242t0.984 0.656 0.664 0.977 0.242 1.219q0 0.516-0.125 0.898t-0.336 0.711-0.5 0.633-0.617 0.633l-2 2-8.453 8.469q-0.094 0.75-0.438 1.398t-0.875 1.117-1.211 0.742-1.43 0.273h-10v-1.969h4q0.422 0 0.781-0.164t0.633-0.445 0.43-0.648 0.156-0.773q0-0.75 0.273-1.43t0.742-1.211 1.117-0.875 1.398-0.438l6.047-6.047 5.094-5.078q0.438-0.438 1.008-0.664t1.195-0.227zM16 21.969q0.406 0 0.773-0.156t0.641-0.43 0.43-0.641 0.156-0.773-0.156-0.773-0.43-0.641-0.641-0.43-0.773-0.156-0.773 0.156-0.641 0.43-0.43 0.641-0.156 0.773q0 1.078-0.547 2h2.547zM21.281 16.266q-0.328-0.453-0.727-0.859t-0.852-0.719l-1.797 1.797q1.031 0.547 1.578 1.578zM29.672 7.891q0.328-0.328 0.328-0.797 0-0.453-0.328-0.781t-0.797-0.328q-0.484 0-0.797 0.313l-6.953 6.953q0.906 0.672 1.594 1.578z"></path>
</svg>
