<!-- Generated by IcoMoon.io -->
<svg version="1.1" xmlns="http://www.w3.org/2000/svg" width="32" height="32" viewBox="0 0 32 32">
<title>uniE4B8</title>
<path d="M9.25 8.875q0.594 0 1.203 0.078t1.156 0.328v1.609q-1-0.594-2.188-0.594-0.844 0-1.5 0.281t-1.117 0.773-0.703 1.18-0.242 1.5q0 0.766 0.227 1.414t0.648 1.125 1.047 0.742 1.422 0.266q0.641 0 1.25-0.148t1.156-0.508v1.5q-0.641 0.344-1.344 0.461t-1.406 0.117q-1.094 0-1.969-0.359t-1.484-1.008-0.93-1.539-0.32-1.969q0-1.141 0.359-2.102t1.031-1.664 1.609-1.094 2.094-0.391zM15.156 9.766v2.078h1.688v1.234h-1.688v3.5q0 0.531 0.195 0.844t0.789 0.313q0.391 0 0.703-0.234v1.266q-0.281 0.141-0.602 0.18t-0.633 0.039q-0.984 0-1.508-0.469t-0.523-1.484v-3.953h-1.172v-1.234h1.172v-1.625zM21.813 11.875q0.172 0 0.336 0.023t0.32 0.102v1.516q-0.172-0.141-0.391-0.188t-0.438-0.047q-0.469 0-0.781 0.234t-0.5 0.586-0.273 0.766-0.086 0.789v3.344h-1.594v-7h1.594v1.438h0.016q0.203-0.609 0.656-1.086t1.141-0.477zM23.406 19v-10.844h1.594v10.844h-1.594zM24.5 4q1.141 0 2.141 0.43t1.75 1.18 1.18 1.75 0.43 2.141v11q0 1.141-0.43 2.141t-1.18 1.75-1.75 1.18-2.141 0.43h-19q-1.141 0-2.141-0.43t-1.75-1.18-1.18-1.75-0.43-2.141v-11q0-1.141 0.43-2.141t1.18-1.75 1.75-1.18 2.141-0.43h19zM28 20.5v-11q0-0.719-0.273-1.359t-0.75-1.117-1.117-0.75-1.359-0.273h-19q-0.719 0-1.359 0.273t-1.117 0.75-0.75 1.117-0.273 1.359v11q0 0.719 0.273 1.359t0.75 1.117 1.117 0.75 1.359 0.273h19q0.719 0 1.359-0.273t1.117-0.75 0.75-1.117 0.273-1.359z"></path>
</svg>
