<!-- Generated by IcoMoon.io -->
<svg version="1.1" xmlns="http://www.w3.org/2000/svg" width="32" height="32" viewBox="0 0 32 32">
<title>uniEAF5</title>
<path d="M8 14.375q1 0.5 2.070 1.109t1.938 1.398 1.43 1.797 0.563 2.32q0 1.297-0.453 2.477t-1.25 2.109-1.898 1.547-2.398 0.789v2.078h-2v-2.063q-1.703-0.203-3.195-1.086t-2.57-2.211l1.531-1.281q0.813 0.984 1.891 1.664t2.344 0.898v-10.297q-0.672-0.328-1.375-0.711t-1.375-0.828-1.258-0.969-1.031-1.148-0.703-1.359-0.258-1.609q0-1.297 0.453-2.477t1.25-2.109 1.898-1.547 2.398-0.789v-2.078h2v2.063q1.703 0.203 3.195 1.086t2.57 2.211l-1.531 1.281q-0.813-0.984-1.891-1.664t-2.344-0.898v10.297zM2 9q0 0.797 0.391 1.461t0.977 1.219 1.289 0.977 1.344 0.719v-9.281q-0.875 0.188-1.609 0.641t-1.266 1.102-0.828 1.461-0.297 1.703zM8 25.906q0.875-0.188 1.609-0.641t1.266-1.102 0.828-1.461 0.297-1.703q0-0.797-0.391-1.469t-0.977-1.219-1.297-0.969-1.336-0.719v9.281zM31.766 25.641q-0.891 1.078-2.117 1.719t-2.648 0.641q-1.297 0-2.391-0.438t-2.008-1.18-1.641-1.727-1.273-2.094-0.906-2.281-0.547-2.281h-2.234v-2h2.031q-0.016-0.25-0.023-0.5t-0.008-0.5 0.008-0.5 0.023-0.5h-2.031v-2h2.234q0.188-1.109 0.547-2.281t0.906-2.281 1.273-2.094 1.641-1.727 2.008-1.18 2.391-0.438q1.438 0 2.648 0.641t2.117 1.719l-1.531 1.281q-0.594-0.734-1.43-1.188t-1.805-0.453q-0.984 0-1.82 0.367t-1.539 0.977-1.258 1.422-0.977 1.695-0.703 1.797-0.438 1.742h3.734v2h-3.969q-0.016 0.25-0.023 0.5t-0.008 0.5 0.008 0.5 0.023 0.5h3.969v2h-3.734q0.156 0.828 0.438 1.742t0.703 1.797 0.977 1.695 1.258 1.422 1.539 0.977 1.82 0.367q0.969 0 1.805-0.453t1.43-1.188z"></path>
</svg>
