<!-- Generated by IcoMoon.io -->
<svg version="1.1" xmlns="http://www.w3.org/2000/svg" width="32" height="32" viewBox="0 0 32 32">
<title>uniEFF0</title>
<path d="M28 4v28h-24v-28h8q0-0.828 0.313-1.555t0.859-1.273 1.273-0.859 1.555-0.313 1.555 0.313 1.273 0.859 0.859 1.273 0.313 1.555h8zM10 8h12v-2h-4v-2q0-0.422-0.156-0.781t-0.43-0.633-0.633-0.43-0.781-0.156-0.781 0.156-0.633 0.43-0.43 0.633-0.156 0.781v2h-4v2zM26 6h-2v4h-16v-4h-2v24h20v-24zM23.766 17.859l-1.922 0.797q0.156 0.625 0.156 1.344t-0.156 1.344l1.922 0.797-0.75 1.844-1.938-0.797q-0.719 1.172-1.891 1.891l0.797 1.938-1.844 0.75-0.797-1.922q-0.625 0.156-1.344 0.156t-1.344-0.156l-0.797 1.922-1.844-0.75 0.797-1.938q-1.172-0.719-1.891-1.891l-1.938 0.797-0.75-1.844 1.922-0.797q-0.156-0.625-0.156-1.344t0.156-1.344l-1.922-0.797 0.75-1.844 1.938 0.797q0.719-1.172 1.891-1.891l-0.797-1.938 1.844-0.75 0.797 1.922q0.625-0.156 1.344-0.156t1.344 0.156l0.797-1.922 1.844 0.75-0.797 1.938q1.172 0.719 1.891 1.891l1.938-0.797zM16 24q0.828 0 1.555-0.313t1.273-0.859 0.859-1.273 0.313-1.555-0.313-1.555-0.859-1.273-1.273-0.859-1.555-0.313-1.555 0.313-1.273 0.859-0.859 1.273-0.313 1.555 0.313 1.555 0.859 1.273 1.273 0.859 1.555 0.313z"></path>
</svg>
