<!-- Generated by IcoMoon.io -->
<svg version="1.1" xmlns="http://www.w3.org/2000/svg" width="32" height="32" viewBox="0 0 32 32">
<title>uniF426</title>
<path d="M27 14q1.031 0 1.938 0.398t1.586 1.078 1.078 1.586 0.398 1.938-0.398 1.945-1.078 1.594-1.586 1.070-1.938 0.391q-0.359 0-0.703-0.047l-7.172 7.172q-0.422 0.422-0.977 0.648t-1.148 0.227q-0.625 0-1.172-0.234t-0.953-0.641-0.641-0.953-0.234-1.172q0-0.594 0.227-1.148t0.648-0.977l7.172-7.172q-0.047-0.344-0.047-0.703 0-1.031 0.391-1.938t1.070-1.586 1.594-1.078 1.945-0.398zM27 22q0.625 0 1.172-0.234t0.953-0.641 0.641-0.953 0.234-1.172q0-0.641-0.297-1.281l-2.281 2.281h-1.422v-1.422l2.281-2.281q-0.641-0.297-1.281-0.297-0.625 0-1.172 0.234t-0.953 0.641-0.641 0.953-0.234 1.172q0 0.641 0.297 1.281l-8 8.016q-0.297 0.297-0.297 0.703t0.297 0.703 0.703 0.297 0.703-0.297l8.016-8q0.641 0.297 1.281 0.297zM14 24.219q-0.516 0.516-0.938 0.961t-0.742 0.938-0.516 1.070-0.258 1.328l-11.547-5.781v-16.234l13-6.5 13 6.5v5.094q-0.516 0.078-1.016 0.203t-0.984 0.344v-3.406l-10 5v10.484zM9.234 4.125l9.703 4.906 3.828-1.922-9.766-4.875zM12 13.734l-10-5v12.766l10 5v-12.766zM16.719 10.141l-9.719-4.906-3.766 1.875 9.766 4.891z"></path>
</svg>
