<!-- Generated by IcoMoon.io -->
<svg version="1.1" xmlns="http://www.w3.org/2000/svg" width="32" height="32" viewBox="0 0 32 32">
<title>uniF828</title>
<path d="M14 16h-8v-8h8v8zM8 10v4h4v-4h-4zM26 8v8h-8v-8h8zM24 14v-4h-4v4h4zM0 4h32v12h-2v-10h-28v12h14v2h-16v-16zM31.078 21.391l0.766 1.859-1.938 0.797q0.094 0.469 0.094 0.953t-0.094 0.953l1.938 0.797-0.766 1.859-1.938-0.813q-0.547 0.797-1.344 1.344l0.813 1.938-1.859 0.766-0.797-1.938q-0.469 0.094-0.953 0.094t-0.953-0.094l-0.797 1.938-1.859-0.766 0.813-1.938q-0.797-0.547-1.344-1.344l-1.938 0.813-0.766-1.859 1.938-0.797q-0.094-0.469-0.094-0.953t0.094-0.953l-1.938-0.797 0.766-1.859 1.938 0.813q0.547-0.797 1.344-1.344l-0.813-1.938 1.859-0.766 0.797 1.938q0.469-0.094 0.953-0.094t0.953 0.094l0.797-1.938 1.859 0.766-0.813 1.938q0.797 0.547 1.344 1.344zM28 25q0-0.625-0.234-1.172t-0.641-0.953-0.953-0.641-1.172-0.234-1.172 0.234-0.953 0.641-0.641 0.953-0.234 1.172 0.234 1.172 0.641 0.953 0.953 0.641 1.172 0.234 1.172-0.234 0.953-0.641 0.641-0.953 0.234-1.172z"></path>
</svg>
