<!-- Generated by IcoMoon.io -->
<svg version="1.1" xmlns="http://www.w3.org/2000/svg" width="32" height="32" viewBox="0 0 32 32">
<title>uniE8C6</title>
<path d="M22.125 24q0.797 0.031 1.508 0.352t1.234 0.867 0.828 1.266 0.305 1.516q0 0.828-0.32 1.555t-0.859 1.266-1.273 0.859-1.547 0.32q-0.828 0-1.555-0.32t-1.266-0.859-0.859-1.266-0.32-1.555q0-1.109 0.57-2.063t1.555-1.469l-4.156-8.297-4.141 8.266q0.5 0.266 0.898 0.641t0.68 0.844 0.438 0.992 0.156 1.086q0 0.828-0.32 1.555t-0.859 1.266-1.273 0.859-1.547 0.32q-0.828 0-1.555-0.32t-1.266-0.859-0.859-1.266-0.32-1.555q0-0.797 0.297-1.508t0.813-1.25 1.211-0.867 1.492-0.375l5.031-10.094-5.297-10.594 0.906-2.734 5.516 11.063 5.516-11.063 0.906 2.734-5.297 10.594zM10 30q0.422 0 0.781-0.156t0.633-0.43 0.43-0.633 0.156-0.781-0.156-0.781-0.43-0.633-0.633-0.43-0.781-0.156-0.781 0.156-0.633 0.43-0.43 0.633-0.156 0.781 0.156 0.781 0.43 0.633 0.633 0.43 0.781 0.156zM22 30q0.422 0 0.781-0.156t0.633-0.43 0.43-0.633 0.156-0.781-0.156-0.781-0.43-0.633-0.633-0.43-0.781-0.156-0.781 0.156-0.633 0.43-0.43 0.633-0.156 0.781 0.156 0.781 0.43 0.633 0.633 0.43 0.781 0.156z"></path>
</svg>
