<!-- Generated by IcoMoon.io -->
<svg version="1.1" xmlns="http://www.w3.org/2000/svg" width="32" height="32" viewBox="0 0 32 32">
<title>uniEAC7</title>
<path d="M6 18q1.234 0 2.328 0.469t1.914 1.289 1.289 1.914 0.469 2.328q0 1.25-0.469 2.336t-1.289 1.906-1.914 1.289-2.328 0.469q-1.25 0-2.336-0.469t-1.906-1.289-1.289-1.906-0.469-2.336q0-1.234 0.469-2.328t1.289-1.914 1.906-1.289 2.336-0.469zM6 28q0.828 0 1.555-0.313t1.273-0.859 0.859-1.273 0.313-1.555-0.313-1.555-0.859-1.273-1.273-0.859-1.555-0.313-1.555 0.313-1.273 0.859-0.859 1.273-0.313 1.555 0.313 1.555 0.859 1.273 1.273 0.859 1.555 0.313zM26 18q1.234 0 2.328 0.469t1.914 1.289 1.289 1.914 0.469 2.328q0 1.25-0.469 2.336t-1.289 1.906-1.914 1.289-2.328 0.469q-1.25 0-2.336-0.469t-1.906-1.289-1.289-1.906-0.469-2.336q0-1.234 0.469-2.328t1.289-1.914 1.906-1.289 2.336-0.469zM26 28q0.828 0 1.555-0.313t1.273-0.859 0.859-1.273 0.313-1.555-0.313-1.555-0.859-1.273-1.273-0.859-1.555-0.313-1.555 0.313-1.273 0.859-0.859 1.273-0.313 1.555 0.313 1.555 0.859 1.273 1.273 0.859 1.555 0.313zM22 17q-0.406 0-0.703-0.297l-1.797-1.781-1.594 1.578q0.141 0.141 0.336 0.313t0.359 0.359 0.281 0.391 0.117 0.438v7q0 0.625-0.234 1.172t-0.641 0.953-0.953 0.641-1.172 0.234-1.172-0.234-0.953-0.641-0.641-0.953-0.234-1.172v-4.594q-0.422-0.422-0.844-0.852t-0.859-0.852q-0.609-0.594-0.953-1.195t-0.344-1.492q0-0.469 0.094-0.844t0.266-0.703 0.43-0.625 0.57-0.609l6.703-6.703q-0.031-0.125-0.047-0.266t-0.016-0.266q0-0.828 0.313-1.555t0.859-1.273 1.273-0.859 1.555-0.313 1.555 0.313 1.273 0.859 0.859 1.273 0.313 1.555q0 0.656-0.203 1.258t-0.57 1.102-0.883 0.867-1.141 0.57l1.203 1.203h2.594q0.625 0 1.172 0.234t0.953 0.641 0.641 0.953 0.234 1.172-0.234 1.172-0.641 0.953-0.953 0.641-1.172 0.234h-5zM22 4q-0.422 0-0.781 0.156t-0.633 0.43-0.43 0.633-0.156 0.781 0.156 0.781 0.43 0.633 0.633 0.43 0.781 0.156 0.781-0.156 0.633-0.43 0.43-0.633 0.156-0.781-0.156-0.781-0.43-0.633-0.633-0.43-0.781-0.156zM15.5 16.5q0-0.406 0.297-0.703l3-3q0.297-0.297 0.703-0.297t0.703 0.297l2.203 2.203h4.594q0.406 0 0.703-0.297t0.297-0.703-0.297-0.703-0.703-0.297h-3q-0.406 0-0.703-0.297l-4.297-4.297-6.297 6.297q-0.281 0.281-0.492 0.57t-0.211 0.727q0 0.406 0.188 0.688t0.453 0.547l2.063 2.063q0.297 0.297 0.297 0.703v5q0 0.406 0.297 0.703t0.703 0.297 0.703-0.297 0.297-0.703v-6.594l-1.203-1.203q-0.297-0.297-0.297-0.703z"></path>
</svg>
