<!-- Generated by IcoMoon.io -->
<svg version="1.1" xmlns="http://www.w3.org/2000/svg" width="32" height="32" viewBox="0 0 32 32">
<title>uniE432</title>
<path d="M29.891 15.969q0 0.672-0.359 1.25l-7.422 11.625q-0.328 0.5-0.852 0.789t-1.117 0.289h-15.766q-0.484 0-0.906-0.18t-0.742-0.5-0.508-0.742-0.188-0.906v-23.266q0-0.484 0.188-0.906t0.508-0.742 0.742-0.5 0.906-0.18h15.766q0.594 0 1.125 0.289t0.844 0.789l7.422 11.625q0.359 0.578 0.359 1.266zM4.375 27.922h2.281q0.109-0.188 0.469-0.789t0.883-1.461 1.141-1.898 1.25-2.102 1.227-2.070 1.055-1.797 0.742-1.289 0.281-0.547-0.281-0.555-0.742-1.297-1.063-1.797-1.234-2.070-1.258-2.102-1.141-1.898-0.883-1.461-0.477-0.789h-2.25q-0.125 0-0.234 0.094t-0.109 0.234v23.266q0 0.141 0.102 0.234t0.242 0.094zM8.984 27.922h4.625q0.109-0.188 0.484-0.789t0.898-1.461 1.172-1.906 1.297-2.109 1.258-2.070 1.086-1.797 0.766-1.289 0.289-0.531-0.289-0.531-0.766-1.289-1.094-1.805-1.273-2.078-1.305-2.109-1.18-1.914-0.898-1.469-0.477-0.773h-4.625l6.422 10.766q0.328 0.547 0.328 1.203 0 0.313-0.078 0.617t-0.25 0.57zM27.906 15.969q0-0.047-0.297-0.539t-0.789-1.273-1.125-1.781-1.305-2.047-1.336-2.078-1.211-1.875-0.93-1.438-0.492-0.781q-0.109-0.156-0.281-0.156h-4.219l6.578 10.75q0.172 0.281 0.266 0.594t0.094 0.625q0 0.656-0.344 1.219l-6.563 10.734h4.188q0.172 0 0.281-0.156 0.109-0.188 0.492-0.781t0.93-1.438 1.211-1.875 1.336-2.078 1.305-2.039 1.125-1.773 0.789-1.273 0.297-0.539z"></path>
</svg>
