<!-- Generated by IcoMoon.io -->
<svg version="1.1" xmlns="http://www.w3.org/2000/svg" width="32" height="32" viewBox="0 0 32 32">
<title>uniF6BC</title>
<path d="M2 26h-2q0-1.891 0.547-3.625t1.563-3.195 2.438-2.586 3.188-1.813q-0.875-0.563-1.57-1.305t-1.172-1.609-0.734-1.844-0.258-2.023q0-1.656 0.625-3.117t1.711-2.547 2.547-1.711 3.117-0.625 3.117 0.625 2.547 1.711 1.711 2.547 0.625 3.117q0 1.219-0.344 2.344t-0.984 2.086-1.539 1.711-2.023 1.234q-0.766 0.328-1.477 0.445t-1.406 0.164-1.406 0.102-1.477 0.273q-1.625 0.453-2.977 1.383t-2.32 2.203-1.508 2.82-0.539 3.234zM12 14q1.25 0 2.344-0.469t1.906-1.281 1.281-1.906 0.469-2.344q0-1.234-0.469-2.328t-1.289-1.914-1.914-1.289-2.328-0.469q-1.25 0-2.344 0.469t-1.906 1.281-1.281 1.906-0.469 2.344 0.469 2.344 1.281 1.906 1.906 1.281 2.344 0.469zM23 18q1.031 0 1.945 0.391t1.594 1.070 1.070 1.594 0.391 1.945-0.367 1.867-1.039 1.586q-0.594 0.656-0.594 1.547v2q0 0.422-0.156 0.781t-0.43 0.633-0.633 0.43-0.781 0.156h-2q-0.406 0-0.773-0.156t-0.641-0.43-0.43-0.641-0.156-0.773v-2q0-0.453-0.133-0.82t-0.445-0.711q-0.688-0.766-1.055-1.602t-0.367-1.867q0-1.047 0.391-1.961t1.063-1.586 1.586-1.063 1.961-0.391zM24 30v-2h-2v2h2zM26 23q0-0.625-0.234-1.172t-0.641-0.953-0.953-0.641-1.172-0.234q-0.641 0-1.188 0.227t-0.953 0.633-0.633 0.953-0.227 1.188q0 0.563 0.148 0.945t0.367 0.695 0.484 0.617 0.5 0.742h3q0.234-0.422 0.5-0.734t0.484-0.633 0.367-0.695 0.148-0.938zM23 17q-0.406 0-0.703-0.297t-0.297-0.703v-1q0-0.422 0.289-0.711t0.711-0.289 0.711 0.289 0.289 0.711v1q0 0.406-0.297 0.703t-0.703 0.297zM31 22q0.422 0 0.711 0.289t0.289 0.711-0.289 0.711-0.711 0.289h-1q-0.406 0-0.703-0.297t-0.297-0.703 0.297-0.703 0.703-0.297h1zM16 22q0.406 0 0.703 0.297t0.297 0.703-0.297 0.703-0.703 0.297h-1q-0.422 0-0.711-0.289t-0.289-0.711 0.289-0.711 0.711-0.289h1zM29.656 17.344q0 0.406-0.297 0.703-0.141 0.141-0.297 0.32t-0.32 0.336-0.359 0.258-0.43 0.102q-0.406 0-0.711-0.305t-0.305-0.711q0-0.234 0.102-0.43t0.258-0.359 0.336-0.32 0.32-0.297q0.297-0.297 0.703-0.297t0.703 0.297 0.297 0.703zM18.047 19.063q-0.234 0-0.43-0.102t-0.359-0.258-0.32-0.336-0.297-0.32q-0.297-0.297-0.297-0.703t0.297-0.703 0.703-0.297 0.703 0.297q0.141 0.141 0.32 0.297t0.336 0.32 0.258 0.359 0.102 0.43q0 0.406-0.305 0.711t-0.711 0.305z"></path>
</svg>
