<!-- Generated by IcoMoon.io -->
<svg version="1.1" xmlns="http://www.w3.org/2000/svg" width="32" height="32" viewBox="0 0 32 32">
<title>uniF833</title>
<path d="M30.734 12.969q0.5 0.656 0.852 1.406t0.352 1.594-0.352 1.594-0.852 1.406q-0.453 2.25-1.5 4.195t-2.586 3.484-3.484 2.594-4.195 1.492q-0.656 0.5-1.406 0.852t-1.594 0.352-1.594-0.352-1.406-0.852q-2.25-0.438-4.195-1.492t-3.484-2.594-2.594-3.484-1.492-4.195q-0.5-0.656-0.852-1.406t-0.352-1.594 0.352-1.594 0.852-1.406q0.438-2.25 1.492-4.195t2.594-3.484 3.484-2.586 4.195-1.5q0.656-0.5 1.406-0.852t1.594-0.352 1.594 0.352 1.406 0.852q2.25 0.453 4.195 1.5t3.484 2.586 2.586 3.484 1.5 4.195zM15.969 2q-0.906 0-1.453 0.547t-0.547 1.453 0.555 1.445 1.445 0.539 1.445-0.539 0.555-1.445-0.547-1.453-1.453-0.547zM11.984 3.594q-3.016 1.047-5.18 3.211t-3.211 5.18q0.469 0 0.852 0.047t0.727 0.156 0.688 0.305 0.719 0.477q0.75-2.406 2.367-4.023t4.023-2.367q-0.281-0.375-0.477-0.719t-0.305-0.688-0.156-0.727-0.047-0.852zM2 15.969q0 0.906 0.547 1.453t1.453 0.547 1.445-0.555 0.539-1.445-0.539-1.445-1.445-0.555-1.453 0.547-0.547 1.453zM12.969 25.344q-1.125-0.375-2.117-1t-1.82-1.445-1.453-1.82-1-2.109q-0.375 0.281-0.711 0.477t-0.688 0.313-0.734 0.164-0.852 0.047q0.516 1.5 1.336 2.797t1.891 2.367 2.367 1.883 2.797 1.328q0-0.469 0.047-0.852t0.156-0.734 0.305-0.688 0.477-0.727zM15.969 29.938q0.891 0 1.445-0.539t0.555-1.445-0.547-1.453-1.453-0.547-1.453 0.547-0.547 1.453 0.555 1.445 1.445 0.539zM19.969 28.344q1.453-0.516 2.75-1.313t2.367-1.836 1.898-2.313 1.359-2.727h-0.391q-0.688 0-1.305-0.219t-1.125-0.609-0.867-0.938-0.5-1.219h-2.797q-0.156 0.938-0.672 1.742t-1.25 1.391-1.633 0.922-1.836 0.336q-1.156 0-2.18-0.438t-1.781-1.195-1.195-1.781-0.438-2.18q0-1.125 0.453-2.141t1.219-1.781 1.781-1.219 2.141-0.453q0.984 0 1.891 0.352t1.633 0.977 1.219 1.461 0.648 1.805h2.797q0.141-0.672 0.5-1.219t0.867-0.938 1.125-0.609 1.305-0.219h0.391q-0.516-1.5-1.336-2.797t-1.883-2.367-2.359-1.891-2.797-1.336q0 0.469-0.047 0.852t-0.164 0.734-0.313 0.688-0.477 0.711q1.656 0.453 3.078 1.484t2.313 2.516q-0.359 0.344-0.734 0.664t-0.672 0.742q-0.484-0.953-1.203-1.695t-1.609-1.258-1.906-0.781-2.063-0.266q-1.641 0-3.094 0.633t-2.539 1.719-1.719 2.539-0.633 3.094 0.633 3.094 1.719 2.539 2.539 1.719 3.094 0.633q1.047 0 2.039-0.289t1.875-0.813 1.617-1.258 1.25-1.625q0.547 0.813 1.406 1.391-1.063 1.359-2.414 2.375t-2.977 1.609q0.281 0.391 0.477 0.727t0.313 0.688 0.164 0.734 0.047 0.852zM19.563 15.969q0-0.75-0.281-1.406t-0.766-1.141-1.141-0.766-1.406-0.281-1.406 0.281-1.141 0.766-0.766 1.141-0.281 1.406 0.281 1.406 0.766 1.141 1.141 0.766 1.406 0.281 1.406-0.281 1.141-0.766 0.766-1.141 0.281-1.406zM27.953 17.969q0.906 0 1.445-0.555t0.539-1.445-0.539-1.445-1.445-0.555-1.453 0.547-0.547 1.453 0.547 1.453 1.453 0.547z"></path>
</svg>
