<!-- Generated by IcoMoon.io -->
<svg version="1.1" xmlns="http://www.w3.org/2000/svg" width="32" height="32" viewBox="0 0 32 32">
<title>uniF3C8</title>
<path d="M28.938 11.984q1.391 1.688 2.195 3.734t0.805 4.25q0 1.641-0.43 3.172t-1.211 2.859-1.875 2.422-2.422 1.875-2.859 1.211-3.172 0.43q-1.016 0-2.023-0.141t-1.977-0.453q-0.969 0.313-1.969 0.453t-2.016 0.141q-1.641 0-3.172-0.43t-2.859-1.211-2.43-1.875-1.883-2.422-1.211-2.859-0.43-3.172q0-1.469 0.359-2.875t1.023-2.664 1.625-2.336 2.18-1.922q0.297-2.203 1.352-4.063t2.633-3.219 3.586-2.125 4.211-0.766q1.672 0 3.211 0.422t2.867 1.195 2.414 1.867 1.859 2.422 1.195 2.867 0.422 3.211zM6.984 11.984q0 1.313 0.375 2.586t1.031 2.398q0.609-2.172 1.773-3.828t3.008-2.969q0.656-0.453 1.352-0.891t1.445-0.703q0.922-0.328 1.977-0.461t2.023-0.133q1.891 0 3.563 0.555t3.219 1.633q-0.313-1.75-1.211-3.242t-2.219-2.586-2.953-1.719-3.398-0.625q-1.641 0-3.156 0.508t-2.766 1.43-2.195 2.203-1.461 2.844q-0.25 0.75-0.328 1.484t-0.078 1.516zM21.953 19.969q0-1.484-0.422-2.883t-1.211-2.594-1.891-2.148-2.461-1.563q-1.297 0.531-2.344 1.391t-1.813 1.953-1.227 2.375-0.602 2.656q0.688 0.688 1.5 1.211t1.711 0.875 1.852 0.531 1.922 0.18q1.344 0 2.578-0.398t2.406-0.992v-0.594zM13.172 29.734q0.281 0 0.656-0.023t0.758-0.078 0.75-0.125 0.633-0.164q0.281-0.109 0.57-0.273t0.555-0.336q1.5-0.922 2.625-2.297t1.641-3.078q-1.078 0.313-2.172 0.555t-2.219 0.242q-1.875 0-3.578-0.563t-3.219-1.641q-0.609-0.438-1.164-0.914t-1.023-1.070q-1.25-1.578-2.047-3.367t-0.953-3.82q-0.703 0.703-1.258 1.539t-0.938 1.758-0.586 1.906-0.203 1.984q0 2.094 0.773 3.914t2.125 3.164 3.172 2.117 3.914 0.773q0.328 0 0.602-0.031t0.586-0.172zM19.969 29.938q2.094 0 3.914-0.773t3.164-2.117 2.117-3.164 0.773-3.914q0-1.344-0.375-2.586t-1.016-2.414q-0.656-1.188-1.563-2.117t-2.016-1.57-2.375-0.969-2.625-0.328q-0.328 0-0.609 0.023t-0.594 0.164q2.563 1.703 3.875 4.219t1.313 5.578q0 0.438-0.078 0.891t-0.125 0.891q-0.125 1.172-0.555 2.32t-1.094 2.188-1.523 1.93-1.813 1.547q0.313 0.156 0.594 0.18t0.609 0.023z"></path>
</svg>
