<!-- Generated by IcoMoon.io -->
<svg version="1.1" xmlns="http://www.w3.org/2000/svg" width="32" height="32" viewBox="0 0 32 32">
<title>uniE4F7</title>
<path d="M31.875 16.578q0 2.484-0.797 4.797-0.391 1.141-1.008 2.273t-1.383 2.18-1.664 1.977-1.852 1.664q-0.328 0.266-0.664 0.391t-0.742 0.125q-0.297 0-0.82-0.156t-1.094-0.367-1.094-0.422-0.836-0.336q-0.234 0.703-0.719 1.094t-1.086 0.57-1.273 0.211-1.297 0.031q-1.609 0-3.203-0.336t-3.086-0.977-2.844-1.563-2.453-2.094-1.922-2.57-1.273-2.992q-0.641-2.281-0.641-4.625 0-2.5 0.797-4.828 0.703-2.047 1.93-3.805t2.789-3.227q0.281-0.266 0.578-0.547t0.609-0.516q0.328-0.25 0.672-0.383t0.75-0.133q0.297 0 0.82 0.156t1.086 0.367 1.086 0.43 0.836 0.328q0.234-0.703 0.719-1.094t1.086-0.57 1.273-0.211 1.297-0.031q1.609 0 3.203 0.336t3.086 0.977 2.844 1.563 2.453 2.094 1.922 2.57 1.273 2.992q0.641 2.281 0.641 4.656zM15.547 28.609q0.219 0 0.422-0.008t0.422-0.023q-1.922-0.078-3.602-0.867t-2.922-2.086-1.961-3.016-0.719-3.641q0-1.266 0.32-2.484t0.961-2.313q0.828-1.438 1.945-2.383t2.586-1.648q0.109-0.047 0.203-0.141t0.094-0.219q0-0.031-0.078-0.336t-0.195-0.758-0.258-0.969-0.273-0.984-0.227-0.82-0.125-0.445q-0.078-0.031-0.391-0.148t-0.742-0.281-0.906-0.344-0.875-0.328-0.68-0.25-0.297-0.102q-0.094 0-0.141 0.047-1.313 1.063-2.406 2.328t-1.891 2.703-1.242 3.031-0.445 3.313q0 1.031 0.148 2.078t0.43 2.047q0.391 1.375 1.109 2.578t1.688 2.203 2.141 1.797 2.469 1.344 2.68 0.836 2.758 0.289zM16.719 22.203q0-0.75 0.422-1.313t1.078-0.875q1.047-0.484 1.898-1.195t1.445-1.609 0.922-1.953 0.328-2.227q0-1.563-0.594-2.953t-1.625-2.422-2.414-1.633-2.961-0.602q-0.25 0-0.5 0.016t-0.5 0.047l0.984 3.703q0.078 0.344 0.078 0.609 0 0.75-0.422 1.313t-1.078 0.875q-1.047 0.484-1.898 1.195t-1.445 1.609-0.922 1.961-0.328 2.234q0 1.578 0.602 2.969t1.641 2.422 2.43 1.625 2.969 0.594q0.25 0 0.484-0.016t0.469-0.047l-0.984-3.719q-0.031-0.156-0.055-0.297t-0.023-0.313zM29.875 16.563q0-1.047-0.148-2.086t-0.43-2.039q-0.578-2.063-1.883-3.727t-3.047-2.852-3.789-1.828-4.125-0.641q-0.219 0-0.422 0.008t-0.422 0.023q1.922 0.078 3.609 0.867t2.93 2.094 1.961 3.023 0.719 3.641q0 1.266-0.328 2.484t-0.969 2.313q-0.828 1.438-1.945 2.367t-2.586 1.648q-0.109 0.047-0.203 0.148t-0.094 0.227q0 0.031 0.078 0.336t0.195 0.75 0.258 0.961 0.273 0.984 0.227 0.82 0.125 0.445q0.094 0.031 0.406 0.156t0.734 0.281 0.898 0.336 0.883 0.328 0.68 0.25 0.305 0.102q0.078 0 0.125-0.047 1.313-1.109 2.414-2.359t1.898-2.664 1.234-2.992 0.438-3.359z"></path>
</svg>
