<!-- Generated by IcoMoon.io -->
<svg version="1.1" xmlns="http://www.w3.org/2000/svg" width="32" height="32" viewBox="0 0 32 32">
<title>uniF6BD</title>
<path d="M27.594 2q0.469 0 0.906 0.156t0.773 0.445 0.531 0.695 0.195 0.906v23.391q0 0.5-0.195 0.938t-0.523 0.766-0.766 0.516-0.922 0.188h-23.391q-0.5 0-0.906-0.195t-0.695-0.531-0.445-0.773-0.156-0.906v-23.391q0-0.453 0.172-0.852t0.477-0.703 0.703-0.477 0.852-0.172h23.391zM12 28v-7.594q0-0.125-0.063-0.227t-0.141-0.18h-7.797v7.594q0 0.125 0.063 0.227t0.141 0.18h7.797zM20 28v-15.797q-0.078-0.078-0.188-0.141t-0.219-0.063h-5.797q-0.156 1.078-0.672 2t-1.289 1.586-1.758 1.039-2.078 0.375q-1.125 0-2.164-0.398t-1.836-1.195v2.594h7.797q0.5 0 0.906 0.195t0.695 0.531 0.445 0.773 0.156 0.906v7.594h6zM4 11q0 0.828 0.313 1.555t0.859 1.273 1.273 0.859 1.555 0.313 1.555-0.313 1.273-0.859 0.859-1.273 0.313-1.555-0.313-1.555-0.859-1.273-1.273-0.859-1.555-0.313-1.555 0.313-1.273 0.859-0.859 1.273-0.313 1.555zM28 27.594v-23.391q-0.078-0.078-0.188-0.141t-0.219-0.063h-23.391l-0.203 0.203v2.406q0.797-0.813 1.836-1.211t2.164-0.398q1.094 0 2.078 0.375t1.758 1.039 1.289 1.586 0.672 2h5.797q0.469 0 0.906 0.156t0.773 0.445 0.531 0.695 0.195 0.906v15.797h5.594q0.156 0 0.281-0.125t0.125-0.281z"></path>
</svg>
