<!-- Generated by IcoMoon.io -->
<svg version="1.1" xmlns="http://www.w3.org/2000/svg" width="32" height="32" viewBox="0 0 32 32">
<title>uniF6BB</title>
<path d="M2 26h-2q0-1.875 0.555-3.609t1.563-3.203 2.438-2.594 3.18-1.813q-0.875-0.563-1.563-1.305t-1.172-1.609-0.742-1.844-0.258-2.023q0-1.656 0.625-3.117t1.711-2.547 2.547-1.711 3.117-0.625 3.117 0.625 2.547 1.711 1.711 2.547 0.625 3.117q0 1.219-0.352 2.336t-0.992 2.078-1.539 1.719-2.008 1.242q-0.703 0.313-1.422 0.422t-1.445 0.172l-1.453 0.125t-1.445 0.266q-1.625 0.453-2.977 1.383t-2.32 2.203-1.508 2.82-0.539 3.234zM12 14q1.234 0 2.328-0.469t1.914-1.289 1.289-1.906 0.469-2.336q0-1.234-0.469-2.328t-1.289-1.906-1.914-1.289-2.328-0.477q-1.25 0-2.336 0.469t-1.906 1.289-1.289 1.914-0.469 2.328q0 1.25 0.469 2.336t1.289 1.906 1.906 1.289 2.336 0.469zM28 27.984l-7 3.516-7-3.516q0-0.563 0.016-1.195t0.117-1.25 0.305-1.203 0.578-1.055l-3.016-1.375v9.094h-2v-10l11-5 11 5-5.016 2.281q0.375 0.484 0.578 1.063t0.305 1.195 0.117 1.242 0.016 1.203zM21 18.188l-6.172 2.813 6.172 2.813 6.172-2.813zM21 29.266l5-2.516q-0.016-0.406-0.070-0.742t-0.164-0.641-0.258-0.609-0.352-0.648l-4.156 1.891-4.156-1.891q-0.219 0.359-0.367 0.664t-0.242 0.609-0.148 0.633-0.070 0.75z"></path>
</svg>
