<!-- Generated by IcoMoon.io -->
<svg version="1.1" xmlns="http://www.w3.org/2000/svg" width="32" height="32" viewBox="0 0 32 32">
<title>uniF52D</title>
<path d="M18.688 6.813q-1.797-0.813-3.734-0.813-1.234 0-2.375 0.32t-2.141 0.914-1.813 1.414-1.398 1.82-0.906 2.148-0.32 2.383q0 1.797 0.688 3.445t1.953 2.914l-1.422 1.422q-1.563-1.563-2.391-3.57t-0.828-4.211q0-1.516 0.391-2.922t1.109-2.625 1.719-2.219 2.219-1.711 2.625-1.102 2.938-0.391q1.172 0 2.305 0.242t2.195 0.727zM22.453 20q0.75-1.109 1.141-2.383t0.391-2.602q0-0.969-0.203-1.898t-0.594-1.805l1.813-0.813q0.484 1.063 0.727 2.195t0.242 2.305q0 1.313-0.297 2.57t-0.891 2.43h-2.328zM2 15q0 1.797 0.469 3.453t1.313 3.102 2.031 2.633 2.633 2.031 3.102 1.313 3.453 0.469q2.594 0 5-1v2.125q-2.406 0.875-5 0.875-2.063 0-3.977-0.539t-3.586-1.516-3.039-2.344-2.344-3.039-1.516-3.586-0.539-3.977 0.539-3.977 1.516-3.586 2.344-3.039 3.039-2.344 3.586-1.516 3.977-0.539 3.977 0.539 3.586 1.516 3.039 2.344 2.344 3.039 1.516 3.586 0.539 3.977q0 2.594-0.875 5h-2.125q1-2.406 1-5 0-1.797-0.469-3.453t-1.313-3.102-2.031-2.633-2.633-2.031-3.102-1.313-3.453-0.469-3.453 0.469-3.102 1.313-2.633 2.031-2.031 2.633-1.313 3.102-0.469 3.453zM17.688 13.688q0.313 0.625 0.313 1.313 0 0.625-0.234 1.172t-0.641 0.953-0.953 0.641-1.172 0.234-1.172-0.234-0.953-0.641-0.641-0.953-0.234-1.172 0.234-1.172 0.641-0.953 0.953-0.641 1.172-0.234q0.672 0 1.297 0.297l5.75-5.75 1.406 1.406zM15 16q0.406 0 0.703-0.297t0.297-0.703-0.297-0.703-0.703-0.297-0.703 0.297-0.297 0.703 0.297 0.703 0.703 0.297zM32 26v2h-4v4h-2v-4h-4v-2h4v-4h2v4h4z"></path>
</svg>
