<!-- Generated by IcoMoon.io -->
<svg version="1.1" xmlns="http://www.w3.org/2000/svg" width="32" height="32" viewBox="0 0 32 32">
<title>uniE30A</title>
<path d="M25.406 14.297l4.703 4.703-4.703 4.703-1.406-1.406 2.281-2.297h-12.281v-2h12.281l-2.281-2.297zM20 22h2v3q0 0.703-0.305 1.258t-0.789 1.023q-0.813 0.797-2.055 1.32t-2.625 0.836-2.758 0.438-2.469 0.125-2.469-0.125-2.758-0.438-2.625-0.836-2.055-1.32q-0.484-0.469-0.789-1.023t-0.305-1.258v-18q0-0.703 0.305-1.258t0.789-1.023q0.813-0.797 2.055-1.32t2.625-0.836 2.758-0.438 2.469-0.125 2.469 0.125 2.758 0.438 2.625 0.836 2.055 1.32q0.484 0.469 0.789 1.023t0.305 1.258v9h-2v-6.031q-0.891 0.578-2.016 0.969t-2.328 0.625-2.406 0.336-2.25 0.102-2.25-0.102-2.406-0.336-2.328-0.625-2.016-0.969v15.031q0 0.328 0.266 0.625t0.641 0.547 0.766 0.445 0.625 0.289q0.75 0.313 1.586 0.516t1.711 0.336 1.742 0.188 1.664 0.055 1.664-0.055 1.742-0.188 1.711-0.336 1.586-0.516q0.234-0.094 0.625-0.289t0.766-0.445 0.641-0.547 0.266-0.625v-3zM2 7q0 0.328 0.266 0.625t0.641 0.547 0.766 0.445 0.625 0.289q0.734 0.313 1.578 0.516t1.719 0.336 1.742 0.188 1.664 0.055 1.664-0.055 1.742-0.188 1.719-0.336 1.578-0.516q0.234-0.094 0.625-0.289t0.766-0.445 0.641-0.547 0.266-0.625-0.266-0.625-0.641-0.547-0.766-0.445-0.625-0.289q-0.734-0.297-1.578-0.508t-1.719-0.344-1.742-0.188-1.664-0.055-1.664 0.055-1.742 0.188-1.719 0.344-1.578 0.508q-0.234 0.094-0.625 0.289t-0.766 0.445-0.641 0.547-0.266 0.625z"></path>
</svg>
