<!-- Generated by IcoMoon.io -->
<svg version="1.1" xmlns="http://www.w3.org/2000/svg" width="32" height="32" viewBox="0 0 32 32">
<title>uniE659</title>
<path d="M31.984 13.719q0 1.922-0.453 3.742t-1.297 3.438-2.055 2.977-2.719 2.336-3.289 1.523-3.781 0.547q-1.063 0-2.125-0.188t-2.063-0.547-1.922-0.906-1.703-1.281q-0.344 0.594-0.836 1.078t-1.078 0.82-1.242 0.516-1.344 0.18q-1.219 0-2.141-0.453t-1.602-1.203-1.133-1.734-0.727-2.063-0.391-2.164-0.117-2.055q0-1.922 0.453-3.742t1.297-3.438 2.055-2.969 2.727-2.328 3.297-1.523 3.781-0.547q1.047 0 2.109 0.18t2.063 0.547 1.922 0.914 1.703 1.266q0.344-0.594 0.836-1.078t1.078-0.82 1.25-0.516 1.352-0.18q1.219 0 2.141 0.445t1.602 1.203 1.133 1.742 0.719 2.063 0.383 2.164 0.117 2.055zM6.078 25.953q1.156 0 1.859-0.594t1.219-1.547q-0.969-1.266-1.484-2.773t-0.516-3.102q0-1.484 0.492-2.953t1.406-2.633 2.211-1.891 2.906-0.727q1.328 0 2.656 0.438t2.391 1.25 1.727 1.977 0.664 2.617q0 0.844-0.242 1.656t-0.742 1.5q0.531-0.469 0.945-1.063t0.688-1.25 0.414-1.367 0.141-1.414q0-1.234-0.359-2.336t-1-2.031-1.516-1.672-1.906-1.258-2.172-0.789-2.313-0.273q-1.719 0-3.234 0.477t-2.805 1.328-2.313 2.031-1.742 2.578-1.102 2.961-0.383 3.203q0 0.641 0.063 1.453t0.234 1.664 0.469 1.672 0.75 1.453 1.094 1.023 1.5 0.391zM29.984 13.703q0-0.641-0.063-1.453t-0.234-1.664-0.469-1.664-0.75-1.453-1.086-1.031-1.492-0.391q-1.156 0-1.867 0.594t-1.227 1.547q0.969 1.266 1.492 2.773t0.523 3.117q0 0.984-0.227 1.977t-0.648 1.906-1.039 1.695-1.398 1.367-1.719 0.914-2 0.328q-1.328 0-2.656-0.438t-2.391-1.25-1.727-1.969-0.664-2.609q0-0.859 0.266-1.656t0.719-1.516q-0.531 0.469-0.938 1.063t-0.688 1.258-0.422 1.375-0.141 1.414q0 1.234 0.359 2.336t1 2.031 1.516 1.664 1.906 1.25 2.172 0.789 2.313 0.273q1.719 0 3.242-0.477t2.813-1.328 2.313-2.023 1.734-2.57 1.094-2.969 0.383-3.211z"></path>
</svg>
