<!-- Generated by IcoMoon.io -->
<svg version="1.1" xmlns="http://www.w3.org/2000/svg" width="32" height="32" viewBox="0 0 32 32">
<title>uniE67F</title>
<path d="M6 9.953v15.047q0 0.313 0.203 0.547t0.422 0.438q0.641 0.594 1.711 0.984t2.273 0.617 2.375 0.32 2.016 0.094q0.5 0 1.016-0.047 0.188 0.5 0.391 1t0.5 0.953q-0.484 0.031-0.953 0.063t-0.953 0.031q-0.953 0-1.898-0.070t-1.883-0.227q-0.609-0.094-1.375-0.273t-1.57-0.445-1.57-0.625-1.367-0.852-0.969-1.117-0.367-1.391v-18q0-1.063 0.602-1.844t1.57-1.336 2.188-0.914 2.438-0.555 2.328-0.273 1.875-0.078 1.875 0.078 2.328 0.273 2.438 0.555 2.188 0.914 1.57 1.336 0.602 1.844v8.609q-0.516-0.063-0.992-0.086t-1.008-0.023v-5.547q-0.906 0.578-2.031 0.969t-2.32 0.633-2.398 0.344-2.25 0.102q-1.063 0-2.258-0.102t-2.391-0.344-2.32-0.633-2.031-0.969zM6 7q0 0.313 0.203 0.547t0.422 0.438q0.688 0.594 1.75 0.984t2.242 0.617 2.344 0.32 2.039 0.094q0.938 0 2.078-0.094t2.281-0.32 2.188-0.617 1.813-0.984q0.219-0.172 0.43-0.422t0.211-0.563-0.211-0.563-0.43-0.422q-0.75-0.594-1.797-0.984t-2.195-0.617-2.289-0.32-2.078-0.094q-0.875 0-2.039 0.094t-2.344 0.32-2.25 0.617-1.742 0.984q-0.219 0.203-0.422 0.438t-0.203 0.547zM32 25q0 1.453-0.547 2.727t-1.5 2.227-2.227 1.5-2.727 0.547-2.727-0.547-2.227-1.5-1.5-2.227-0.547-2.727q0-1.422 0.547-2.719t1.578-2.281h-2.125v-2h6v6h-2v-2.984q-0.938 0.734-1.469 1.758t-0.531 2.227q0 1.047 0.391 1.953t1.070 1.586 1.586 1.070 1.953 0.391q1.031 0 1.945-0.391t1.594-1.070 1.070-1.594 0.391-1.945q0-0.781-0.242-1.516t-0.68-1.352-1.055-1.094-1.352-0.727l0.656-1.891q1.047 0.375 1.906 1.031t1.477 1.516 0.953 1.891 0.336 2.141z"></path>
</svg>
