<!-- Generated by IcoMoon.io -->
<svg version="1.1" xmlns="http://www.w3.org/2000/svg" width="32" height="32" viewBox="0 0 32 32">
<title>uniE4F5</title>
<path d="M28 26h4v2h-4v4h-2v-4h-4v-2h4v-4h2v4zM6 25q0 0.141 0.078 0.273t0.188 0.258 0.234 0.234 0.219 0.188q0.781 0.594 1.82 0.984t2.156 0.625 2.242 0.336 2.063 0.102q1.266 0 2.523-0.148t2.477-0.477v2.078q-1.234 0.281-2.484 0.414t-2.516 0.133q-1.078 0-2.148-0.094t-2.133-0.297q-0.531-0.094-1.242-0.281t-1.453-0.469-1.469-0.656-1.289-0.852-0.914-1.063-0.352-1.289v-6q0-0.797 0.453-1.438t1.125-1.141 1.438-0.852 1.406-0.57q-0.641-0.203-1.406-0.563t-1.438-0.859-1.125-1.141-0.453-1.438v-6q0-0.703 0.352-1.289t0.914-1.063 1.289-0.852 1.469-0.656 1.453-0.461 1.242-0.289q1.063-0.203 2.133-0.297t2.148-0.094 2.148 0.094 2.133 0.297q0.531 0.109 1.242 0.289t1.453 0.461 1.469 0.656 1.289 0.852 0.914 1.063 0.352 1.289v6q0 0.797-0.453 1.438t-1.125 1.141-1.445 0.859-1.398 0.563q0.625 0.219 1.398 0.57t1.445 0.852 1.125 1.141 0.453 1.438v1h-2v1.875q-0.922 0.594-2.039 1t-2.305 0.656-2.383 0.359-2.273 0.109-2.273-0.109-2.383-0.359-2.305-0.656-2.039-1v3.125zM15 2q-0.938 0-2.086 0.102t-2.305 0.352-2.219 0.664-1.813 1.039q-0.156 0.141-0.367 0.375t-0.211 0.469 0.211 0.469 0.367 0.375q0.75 0.625 1.813 1.039t2.219 0.664 2.305 0.352 2.086 0.102 2.086-0.102 2.305-0.352 2.219-0.664 1.813-1.039q0.156-0.141 0.367-0.375t0.211-0.469-0.211-0.469-0.367-0.375q-0.75-0.625-1.813-1.039t-2.219-0.664-2.305-0.352-2.086-0.102zM6 11q0 0.234 0.211 0.469t0.367 0.375q0.75 0.625 1.813 1.039t2.219 0.664 2.305 0.352 2.086 0.102 2.086-0.102 2.305-0.352 2.219-0.664 1.813-1.039q0.156-0.141 0.367-0.375t0.211-0.469v-3.125q-0.922 0.594-2.039 1t-2.305 0.656-2.383 0.359-2.273 0.109-2.273-0.109-2.383-0.359-2.305-0.656-2.039-1v3.125zM15 16q-0.938 0-2.086 0.102t-2.305 0.352-2.219 0.664-1.813 1.039q-0.156 0.141-0.367 0.375t-0.211 0.469 0.211 0.469 0.367 0.375q0.75 0.625 1.813 1.039t2.219 0.664 2.305 0.352 2.086 0.102 2.086-0.102 2.305-0.352 2.219-0.664 1.813-1.039q0.156-0.141 0.367-0.375t0.211-0.469-0.211-0.469-0.367-0.375q-0.75-0.625-1.813-1.039t-2.219-0.664-2.305-0.352-2.086-0.102z"></path>
</svg>
