<!-- Generated by IcoMoon.io -->
<svg version="1.1" xmlns="http://www.w3.org/2000/svg" width="32" height="32" viewBox="0 0 32 32">
<title>uniE366</title>
<path d="M32 27q0 1.031-0.391 1.945t-1.070 1.594-1.594 1.070-1.945 0.391h-4q-1.047 0-1.953-0.391t-1.586-1.070-1.070-1.586-0.391-1.953q0-0.891 0.297-1.703t0.828-1.461 1.266-1.102 1.609-0.641v2.078q-0.906 0.328-1.453 1.086t-0.547 1.742q0 0.625 0.234 1.172t0.641 0.953 0.953 0.641 1.172 0.234h4q0.625 0 1.172-0.234t0.953-0.641 0.641-0.953 0.234-1.172q0-1.016-0.578-1.773t-1.516-1.086q0.094-0.563 0.094-1.141 0-0.234-0.016-0.461t-0.047-0.445q0.891 0.188 1.633 0.633t1.281 1.094 0.844 1.453 0.305 1.727zM6 16v6h4v10h-10v-10h4v-12h-4v-10h10v10h-4v4h16v-4h-4v-10h10v10h-4v6h-18zM20 8h6v-6h-6v6zM2 8h6v-6h-6v6zM8 24h-6v6h6v-6zM14 23q0 1.016 0.578 1.773t1.516 1.086q-0.094 0.563-0.094 1.141 0 0.234 0.016 0.461t0.047 0.445q-0.875-0.141-1.625-0.594t-1.289-1.117-0.844-1.492-0.305-1.703q0-1.031 0.391-1.945t1.070-1.594 1.594-1.070 1.945-0.391h4q1.031 0 1.938 0.398t1.586 1.078 1.078 1.586 0.398 1.938q0 0.844-0.32 1.648t-0.867 1.461-1.273 1.133-1.539 0.664v-2.078q0.656-0.141 1.047-0.367t0.602-0.563 0.281-0.805 0.070-1.094-0.234-1.172-0.641-0.953-0.953-0.641-1.172-0.234h-4q-0.625 0-1.172 0.234t-0.953 0.641-0.641 0.953-0.234 1.172z"></path>
</svg>
