<!-- Generated by IcoMoon.io -->
<svg version="1.1" xmlns="http://www.w3.org/2000/svg" width="32" height="32" viewBox="0 0 32 32">
<title>uniEFC8</title>
<path d="M15 28.063q0.75 0 1.531-0.047 0.391 1.031 0.969 1.922-0.625 0.063-1.25 0.094t-1.25 0.031q-2.094 0-4.094-0.344-0.578-0.094-1.313-0.273t-1.5-0.453-1.5-0.641-1.313-0.852-0.93-1.086-0.352-1.352v-18q0-0.703 0.305-1.258t0.789-1.023q0.531-0.531 1.273-0.938t1.602-0.711 1.797-0.508 1.859-0.328 1.781-0.18 1.594-0.055q1.125 0 2.492 0.125t2.734 0.43 2.602 0.836 2.078 1.328q0.484 0.453 0.789 1.031t0.305 1.25v8.938h-2v-5.969q-0.938 0.578-2.055 0.969t-2.297 0.625-2.375 0.336-2.273 0.102-2.273-0.102-2.383-0.336-2.297-0.625-2.047-0.969v15.031q0 0.313 0.227 0.578t0.445 0.438q0.734 0.578 1.789 0.961t2.211 0.609 2.297 0.32 2.031 0.094zM15 4.063q-0.797 0-1.664 0.055t-1.742 0.188-1.719 0.344-1.578 0.508q-0.234 0.094-0.625 0.289t-0.766 0.445-0.641 0.547-0.266 0.625q0 0.125 0.047 0.234t0.125 0.219q0.344 0.5 0.984 0.891t1.438 0.672 1.695 0.469 1.758 0.305 1.633 0.164 1.32 0.047 1.32-0.047 1.633-0.164 1.758-0.305 1.695-0.469 1.43-0.664 0.992-0.898q0.078-0.109 0.125-0.219t0.047-0.234q0-0.328-0.266-0.625t-0.641-0.547-0.766-0.445-0.625-0.289q-0.734-0.297-1.578-0.508t-1.719-0.344-1.742-0.188-1.664-0.055zM29.906 24.047q0.094 0.469 0.094 0.953t-0.094 0.953l1.938 0.797-0.766 1.859-1.938-0.813q-0.547 0.797-1.344 1.344l0.813 1.938-1.859 0.766-0.797-1.938q-0.469 0.094-0.953 0.094t-0.953-0.094l-0.797 1.938-1.859-0.766 0.813-1.938q-0.797-0.547-1.344-1.344l-1.938 0.813-0.766-1.859 1.938-0.797q-0.094-0.469-0.094-0.953t0.094-0.953l-1.938-0.797 0.766-1.859 1.938 0.813q0.547-0.797 1.344-1.344l-0.813-1.938 1.859-0.766 0.797 1.938q0.469-0.094 0.953-0.094t0.953 0.094l0.797-1.938 1.859 0.766-0.813 1.938q0.797 0.547 1.344 1.344l1.938-0.813 0.766 1.859zM25 28q0.625 0 1.172-0.234t0.953-0.641 0.641-0.953 0.234-1.172-0.234-1.172-0.641-0.953-0.953-0.641-1.172-0.234-1.172 0.234-0.953 0.641-0.641 0.953-0.234 1.172 0.234 1.172 0.641 0.953 0.953 0.641 1.172 0.234z"></path>
</svg>
