<!-- Generated by IcoMoon.io -->
<svg version="1.1" xmlns="http://www.w3.org/2000/svg" width="32" height="32" viewBox="0 0 32 32">
<title>uniEFC7</title>
<path d="M15 2q1.125 0 2.492 0.125t2.734 0.43 2.602 0.836 2.078 1.328q0.484 0.453 0.789 1.031t0.305 1.25v18q0 0.703-0.305 1.258t-0.789 1.023q-0.813 0.797-2.055 1.32t-2.625 0.836-2.758 0.438-2.469 0.125q-1.125 0-2.492-0.125t-2.734-0.43-2.602-0.836-2.078-1.328q-0.484-0.453-0.789-1.031t-0.305-1.25v-18q0-0.703 0.305-1.258t0.789-1.023q0.813-0.797 2.055-1.32t2.625-0.836 2.758-0.438 2.469-0.125zM15 4q-0.797 0-1.664 0.055t-1.742 0.188-1.711 0.344-1.586 0.508q-0.234 0.094-0.625 0.289t-0.766 0.445-0.641 0.555-0.266 0.617q0 0.125 0.047 0.234t0.125 0.219q0.328 0.5 0.945 0.875t1.391 0.656 1.648 0.477 1.742 0.313 1.672 0.172 1.43 0.055 1.43-0.055 1.672-0.172 1.742-0.313 1.648-0.477 1.383-0.656 0.953-0.875q0.078-0.109 0.125-0.219t0.047-0.234q0-0.313-0.266-0.617t-0.641-0.555-0.766-0.445-0.625-0.289q-0.75-0.297-1.586-0.508t-1.711-0.344-1.742-0.188-1.664-0.055zM15 28q0.797 0 1.664-0.055t1.742-0.188 1.711-0.336 1.586-0.516q0.234-0.094 0.625-0.289t0.766-0.445 0.641-0.555 0.266-0.617v-15.031q-0.891 0.578-2.016 0.969t-2.336 0.625-2.414 0.336-2.234 0.102-2.242-0.102-2.414-0.336-2.328-0.625-2.016-0.969v15.031q0 0.313 0.266 0.617t0.641 0.555 0.766 0.445 0.625 0.289q0.75 0.313 1.586 0.516t1.711 0.336 1.742 0.188 1.664 0.055z"></path>
</svg>
