<!-- Generated by IcoMoon.io -->
<svg version="1.1" xmlns="http://www.w3.org/2000/svg" width="32" height="32" viewBox="0 0 32 32">
<title>uniE670</title>
<path d="M6 9.953v15.047q0 0.328 0.227 0.609t0.586 0.523 0.805 0.445 0.891 0.367 0.844 0.273 0.648 0.172v2.063q-0.547-0.125-1.211-0.313t-1.328-0.445-1.289-0.609-1.109-0.797-0.773-1.016-0.289-1.273v-18q0-1.078 0.617-1.875t1.602-1.352 2.211-0.898 2.445-0.539 2.313-0.266 1.813-0.070 1.813 0.070 2.313 0.266 2.445 0.547 2.211 0.906 1.602 1.344 0.617 1.867v7h-2v-4.047q-0.938 0.578-2.055 0.969t-2.297 0.633-2.375 0.344-2.273 0.102q-1.063 0-2.258-0.102t-2.391-0.344-2.32-0.633-2.031-0.969zM6 7q0 0.313 0.203 0.563t0.422 0.422q0.719 0.594 1.781 0.984t2.219 0.617 2.305 0.32 2.070 0.094q0.906 0 2.055-0.094t2.313-0.32 2.211-0.617 1.781-0.984q0.219-0.172 0.43-0.422t0.211-0.563-0.211-0.563-0.43-0.422q-0.734-0.594-1.789-0.984t-2.203-0.617-2.297-0.32-2.070-0.094-2.070 0.094-2.305 0.32-2.219 0.617-1.781 0.984q-0.219 0.188-0.422 0.43t-0.203 0.555zM12 16h20v16h-20v-16zM30 30v-4h-5.453l-1.484-1.516-3.156 4.219-3.391-5.328-0.969 1.594-1.547 0.031v5h16zM30 24v-6h-16v5l0.422-0.031 2.031-3.391 3.578 5.625 2.813-3.75 2.516 2.547h4.641z"></path>
</svg>
