<!-- Generated by IcoMoon.io -->
<svg version="1.1" xmlns="http://www.w3.org/2000/svg" width="32" height="32" viewBox="0 0 32 32">
<title>uniE617</title>
<path d="M32 25q0 1.453-0.555 2.727t-1.5 2.219-2.219 1.5-2.727 0.555-2.727-0.555-2.219-1.5-1.5-2.219-0.555-2.727 0.555-2.727 1.5-2.219 2.219-1.5 2.727-0.555 2.727 0.555 2.219 1.5 1.5 2.219 0.555 2.727zM27.75 29.172l-6.922-6.922q-0.406 0.609-0.617 1.313t-0.211 1.438q0 1.047 0.391 1.953t1.070 1.586 1.586 1.070 1.953 0.391q0.734 0 1.438-0.211t1.313-0.617zM30 25q0-1.031-0.398-1.938t-1.078-1.586-1.586-1.078-1.938-0.398q-0.734 0-1.438 0.211t-1.313 0.617l6.922 6.922q0.406-0.609 0.617-1.313t0.211-1.438zM6 9.953v15.047q0 0.313 0.203 0.547t0.422 0.438q0.688 0.594 1.75 0.984t2.242 0.617 2.336 0.32 2.047 0.094q0.266 0 0.508-0.016t0.508-0.031q0.172 0.5 0.391 1t0.5 0.953q-0.484 0.031-0.953 0.063t-0.953 0.031q-0.953 0-1.898-0.070t-1.883-0.227q-0.594-0.094-1.359-0.273t-1.57-0.445-1.578-0.625-1.375-0.852-0.969-1.117-0.367-1.391v-18q0-1.063 0.602-1.844t1.57-1.336 2.18-0.914 2.438-0.555 2.336-0.273 1.875-0.078 1.875 0.078 2.336 0.273 2.438 0.555 2.18 0.914 1.57 1.336 0.602 1.844v8.609q-0.25-0.031-0.492-0.070t-0.508-0.039-0.508 0.039-0.492 0.070v-5.656q-0.906 0.578-2.031 0.969t-2.32 0.633-2.398 0.344-2.25 0.102q-1.063 0-2.258-0.102t-2.391-0.344-2.32-0.633-2.031-0.969zM6 7q0 0.313 0.203 0.555t0.422 0.43q0.469 0.391 1.102 0.695t1.367 0.531 1.523 0.375 1.57 0.242 1.5 0.133 1.313 0.039q0.938 0 2.078-0.094t2.289-0.32 2.195-0.617 1.797-0.984q0.219-0.172 0.43-0.422t0.211-0.563-0.211-0.563-0.43-0.422q-0.734-0.594-1.789-0.984t-2.203-0.617-2.297-0.32-2.070-0.094q-0.594 0-1.313 0.039t-1.5 0.133-1.57 0.242-1.523 0.375-1.367 0.531-1.102 0.695q-0.219 0.188-0.422 0.43t-0.203 0.555z"></path>
</svg>
