<!-- Generated by IcoMoon.io -->
<svg version="1.1" xmlns="http://www.w3.org/2000/svg" width="32" height="32" viewBox="0 0 32 32">
<title>uniE577</title>
<path d="M25 0q0.578 0 1.32 0.086t1.523 0.273 1.523 0.492 1.328 0.75 0.945 1.039 0.359 1.359v10q0 0.766-0.359 1.359t-0.945 1.039-1.328 0.75-1.523 0.492-1.523 0.273-1.32 0.086-1.32-0.086-1.523-0.273-1.523-0.492-1.328-0.75-0.945-1.039-0.359-1.359v-10q0-0.766 0.359-1.359t0.945-1.039 1.328-0.75 1.523-0.492 1.523-0.273 1.32-0.086zM30 14v-7.156q-1.109 0.641-2.422 0.898t-2.578 0.258-2.578-0.258-2.422-0.898v7.156q0 0.203 0.109 0.367t0.25 0.289q0.391 0.391 0.969 0.648t1.219 0.414 1.289 0.219 1.164 0.063 1.164-0.063 1.289-0.219 1.219-0.414 0.969-0.648q0.141-0.125 0.25-0.297t0.109-0.359zM25 6q0.516 0 1.164-0.063t1.289-0.219 1.219-0.414 0.969-0.648q0.141-0.125 0.25-0.297t0.109-0.359-0.109-0.352-0.25-0.305q-0.391-0.391-0.969-0.648t-1.219-0.414-1.289-0.219-1.164-0.063-1.164 0.063-1.289 0.219-1.219 0.414-0.969 0.648q-0.141 0.125-0.25 0.297t-0.109 0.359q0 0.203 0.109 0.367t0.25 0.289q0.391 0.391 0.969 0.648t1.219 0.414 1.289 0.219 1.164 0.063zM10.297 3.703l1.406-1.406 4.703 4.703-4.703 4.703-1.406-1.406 2.281-2.297h-2.578q-0.828 0-1.555 0.313t-1.273 0.859-0.859 1.273-0.313 1.555h-2q0-1.234 0.469-2.328t1.289-1.914 1.906-1.289 2.336-0.469h2.578zM9 14q0.578 0 1.32 0.086t1.523 0.273 1.523 0.492 1.328 0.75 0.945 1.039 0.359 1.359v10q0 0.766-0.359 1.359t-0.945 1.039-1.328 0.75-1.523 0.492-1.523 0.273-1.32 0.086-1.32-0.086-1.523-0.273-1.523-0.492-1.328-0.75-0.945-1.039-0.359-1.359v-10q0-0.766 0.359-1.359t0.945-1.039 1.328-0.75 1.523-0.492 1.523-0.273 1.32-0.086zM14 28v-7.156q-1.109 0.641-2.422 0.898t-2.578 0.258-2.578-0.258-2.422-0.898v7.156q0 0.203 0.109 0.367t0.25 0.289q0.391 0.391 0.969 0.648t1.219 0.414 1.289 0.219 1.164 0.063 1.164-0.063 1.289-0.219 1.219-0.414 0.969-0.648q0.141-0.125 0.25-0.297t0.109-0.359zM9 20q0.516 0 1.164-0.063t1.289-0.219 1.219-0.414 0.969-0.648q0.141-0.125 0.25-0.297t0.109-0.359-0.109-0.352-0.25-0.305q-0.391-0.391-0.969-0.648t-1.219-0.414-1.289-0.219-1.164-0.063-1.164 0.063-1.289 0.219-1.219 0.414-0.969 0.648q-0.141 0.125-0.25 0.297t-0.109 0.359q0 0.203 0.109 0.367t0.25 0.289q0.391 0.391 0.969 0.648t1.219 0.414 1.289 0.219 1.164 0.063z"></path>
</svg>
