<!-- Generated by IcoMoon.io -->
<svg version="1.1" xmlns="http://www.w3.org/2000/svg" width="32" height="32" viewBox="0 0 32 32">
<title>uniE671</title>
<path d="M16 18v10q0 0.766-0.359 1.359t-0.938 1.031-1.32 0.75-1.523 0.5-1.531 0.273-1.328 0.086q-0.594 0-1.336-0.086t-1.523-0.273-1.523-0.5-1.32-0.75-0.938-1.031-0.359-1.359v-10q0-0.766 0.359-1.359t0.938-1.031 1.32-0.75 1.523-0.5 1.523-0.273 1.336-0.086q0.578 0 1.328 0.086t1.531 0.273 1.523 0.5 1.32 0.75 0.938 1.031 0.359 1.359zM14 28v-7.156q-0.547 0.328-1.156 0.547t-1.258 0.352-1.305 0.195-1.281 0.063-1.281-0.063-1.305-0.195-1.266-0.352-1.148-0.547v7.156q0 0.219 0.102 0.367t0.258 0.289q0.422 0.406 0.992 0.664t1.195 0.406 1.258 0.211 1.195 0.063 1.203-0.063 1.258-0.211 1.188-0.406 0.992-0.664q0.141-0.125 0.25-0.289t0.109-0.367zM14 18q0-0.203-0.117-0.359t-0.242-0.297q-0.375-0.391-0.961-0.648t-1.227-0.414-1.289-0.219-1.164-0.063q-0.547 0-1.188 0.063t-1.266 0.219-1.195 0.414-0.992 0.648q-0.141 0.125-0.25 0.289t-0.109 0.367q0 0.219 0.102 0.367t0.258 0.289q0.422 0.406 0.992 0.664t1.195 0.406 1.258 0.211 1.195 0.063 1.195-0.063 1.266-0.219 1.195-0.414 0.984-0.648q0.141-0.125 0.25-0.289t0.109-0.367zM10.297 3.703l1.406-1.406 4.703 4.703-4.703 4.703-1.406-1.406 2.281-2.297h-2.578q-0.828 0-1.555 0.313t-1.273 0.859-0.859 1.273-0.313 1.555h-2q0-1.25 0.469-2.344t1.281-1.906 1.906-1.281 2.344-0.469h2.578zM32 4v10q0 0.766-0.359 1.359t-0.938 1.031-1.32 0.75-1.523 0.5-1.531 0.273-1.328 0.086q-0.594 0-1.336-0.086t-1.523-0.273-1.523-0.5-1.32-0.75-0.938-1.031-0.359-1.359v-10q0-0.766 0.359-1.359t0.938-1.031 1.32-0.75 1.523-0.5 1.523-0.273 1.336-0.086q0.578 0 1.328 0.086t1.531 0.273 1.523 0.5 1.32 0.75 0.938 1.031 0.359 1.359zM30 14v-7.156q-0.547 0.328-1.156 0.547t-1.258 0.352-1.305 0.195-1.281 0.063-1.281-0.063-1.305-0.195-1.266-0.352-1.148-0.547v7.156q0 0.219 0.102 0.367t0.258 0.289q0.422 0.406 0.992 0.664t1.195 0.406 1.258 0.211 1.195 0.063 1.195-0.063 1.258-0.211 1.195-0.406 0.992-0.664q0.141-0.125 0.25-0.289t0.109-0.367zM30 4q0-0.203-0.117-0.359t-0.242-0.297q-0.375-0.391-0.961-0.648t-1.227-0.414-1.289-0.219-1.164-0.063q-0.563 0-1.195 0.063t-1.258 0.211-1.195 0.414-0.992 0.656q-0.141 0.125-0.25 0.289t-0.109 0.367q0 0.219 0.102 0.367t0.258 0.289q0.422 0.406 0.992 0.664t1.195 0.406 1.258 0.211 1.195 0.063 1.195-0.063 1.258-0.211 1.195-0.406 0.992-0.664q0.141-0.125 0.25-0.289t0.109-0.367zM28 20h2q0 1.25-0.469 2.344t-1.281 1.906-1.906 1.281-2.344 0.469h-2.578l2.281 2.297-1.406 1.406-4.703-4.703 4.703-4.703 1.406 1.406-2.281 2.297h2.578q0.828 0 1.555-0.313t1.273-0.859 0.859-1.273 0.313-1.555z"></path>
</svg>
