<!-- Generated by IcoMoon.io -->
<svg version="1.1" xmlns="http://www.w3.org/2000/svg" width="32" height="32" viewBox="0 0 32 32">
<title>uniF842</title>
<path d="M3.938 8.891q-0.5-0.188-0.992-0.414t-0.945-0.508v11.031q0 0.297 0.227 0.578t0.547 0.516 0.664 0.414 0.563 0.273v2.125q-0.641-0.234-1.344-0.578t-1.297-0.82-0.977-1.102-0.383-1.406v-14q0-0.75 0.352-1.352t0.93-1.086 1.313-0.852 1.5-0.641 1.5-0.445 1.313-0.281q2-0.344 4.094-0.344 0.734 0 1.727 0.070t2.078 0.242 2.188 0.461 2.047 0.727 1.672 1.039 1.070 1.398q-0.781-0.141-1.547-0.242t-1.563-0.148q-0.797-0.438-1.758-0.734t-1.977-0.477-2.031-0.258-1.906-0.078q-0.906 0-2.016 0.086t-2.234 0.305-2.164 0.586-1.789 0.914q-0.266 0.188-0.531 0.477t-0.266 0.633q0 0.406 0.375 0.758t0.883 0.641 1.031 0.492 0.82 0.297q-0.359 0.375-0.656 0.797t-0.516 0.906zM17 16q-1.063 0-2.258-0.102t-2.391-0.344-2.32-0.633-2.031-0.953v11.031q0 0.359 0.289 0.688t0.75 0.602 1.031 0.5 1.117 0.398 1.008 0.289 0.711 0.164q0.766 0.141 1.539 0.227t1.555 0.117v2q-0.688-0.031-1.695-0.141t-2.117-0.344-2.219-0.609-1.992-0.922-1.43-1.281-0.547-1.688v-14q0-0.734 0.344-1.344t0.914-1.086 1.297-0.844 1.484-0.641 1.492-0.445 1.297-0.281q1.031-0.188 2.078-0.273t2.094-0.086 2.094 0.086 2.078 0.273q0.563 0.109 1.297 0.281t1.492 0.438 1.484 0.641 1.297 0.852 0.914 1.086 0.344 1.344v5h-2v-2.031q-0.922 0.563-2.039 0.953t-2.313 0.633-2.391 0.344-2.258 0.102zM17 8q-0.891 0-2.039 0.094t-2.313 0.32-2.234 0.617-1.789 0.984q-0.219 0.172-0.422 0.43t-0.203 0.555 0.203 0.555 0.422 0.43q0.719 0.594 1.789 0.984t2.234 0.617 2.313 0.32 2.039 0.094 2.039-0.094 2.313-0.32 2.227-0.617 1.781-0.984q0.219-0.172 0.43-0.43t0.211-0.555-0.211-0.547-0.43-0.438q-0.719-0.594-1.781-0.984t-2.227-0.617-2.313-0.32-2.039-0.094zM30 18h2v6h-6v-2h2.969q-0.703-0.938-1.75-1.469t-2.219-0.531q-0.922 0-1.742 0.313t-1.477 0.867-1.094 1.32-0.594 1.672l-1.984-0.344q0.219-1.266 0.844-2.328t1.539-1.844 2.070-1.219 2.438-0.438q1.422 0 2.719 0.555t2.281 1.586v-2.141zM25 30q0.922 0 1.742-0.313t1.477-0.867 1.102-1.32 0.602-1.672l1.969 0.344q-0.219 1.266-0.844 2.328t-1.539 1.844-2.070 1.219-2.438 0.438q-1.422 0-2.719-0.555t-2.281-1.586v2.141h-2v-6h6v2h-2.969q0.703 0.938 1.75 1.469t2.219 0.531z"></path>
</svg>
