<!-- Generated by IcoMoon.io -->
<svg version="1.1" xmlns="http://www.w3.org/2000/svg" width="32" height="32" viewBox="0 0 32 32">
<title>uniF38F</title>
<path d="M26.672 14.234q1.219 0.578 2.211 1.461t1.68 1.984 1.063 2.367 0.375 2.625q0 1.922-0.734 3.625t-2 2.969-2.969 2-3.625 0.734q-1.359 0-2.625-0.375t-2.367-1.063-1.984-1.68-1.461-2.211h-14.234v-24h5.328v-2.672h2.672v2.672h10.672v-2.672h2.656v2.672h5.344v11.563zM2.672 8h21.328v-2.672h-21.328v2.672zM13.422 24q-0.094-0.656-0.094-1.328 0-1.938 0.734-3.641t2-2.969 2.969-2 3.641-0.734q0.672 0 1.328 0.094v-2.75h-21.328v13.328h10.75zM22.672 29.328q1.375 0 2.586-0.523t2.117-1.43 1.43-2.117 0.523-2.586-0.523-2.594-1.422-2.125-2.117-1.43-2.594-0.523q-1.391 0-2.602 0.523t-2.117 1.43-1.43 2.125-0.523 2.594q0 1.391 0.523 2.602t1.43 2.109 2.125 1.422 2.594 0.523zM24 21.328h2.672v2.672h-5.344v-5.328h2.672v2.656z"></path>
</svg>
