<!-- Generated by IcoMoon.io -->
<svg version="1.1" xmlns="http://www.w3.org/2000/svg" width="32" height="32" viewBox="0 0 32 32">
<title>uniEA17</title>
<path d="M28 15.516q0.938 0.641 1.68 1.461t1.258 1.781 0.789 2.039 0.273 2.203q0 1.859-0.711 3.5t-1.93 2.859-2.859 1.93-3.5 0.711q-1.422 0-2.75-0.43t-2.445-1.219-1.969-1.898-1.32-2.453h-12.516v-24h4v-2h2v2h14v-2h2v2h4v13.516zM4 4v4h22v-4h-2v2h-2v-2h-14v2h-2v-2h-2zM14.047 24q-0.047-0.484-0.047-1 0-1.859 0.711-3.5t1.93-2.859 2.859-1.93 3.5-0.711q1.563 0 3 0.516v-4.516h-22v14h10.047zM23 30q1.453 0 2.727-0.555t2.219-1.5 1.5-2.219 0.555-2.727-0.555-2.727-1.5-2.219-2.219-1.5-2.727-0.555-2.727 0.555-2.219 1.5-1.5 2.219-0.555 2.727 0.555 2.727 1.5 2.219 2.219 1.5 2.727 0.555zM24 22h3v2h-5v-6h2v4z"></path>
</svg>
