<!-- Generated by IcoMoon.io -->
<svg version="1.1" xmlns="http://www.w3.org/2000/svg" width="32" height="32" viewBox="0 0 32 32">
<title>uniEFE1</title>
<path d="M28.422 27l3.531 3.547-1.406 1.406-3.547-3.531-3.547 3.547-1.406-1.422 3.547-3.547-3.547-3.547 1.406-1.406 3.547 3.547 3.547-3.547 1.406 1.422zM8 10h-2v-2h2v2zM8 14h-2v-2h2v2zM6 16h2v2h-2v-2zM4 30h16v2h-18v-32h17.422l8.578 8.578v11.422h-2v-10h-8v-8h-14v28zM20 8h4.578l-4.578-4.578v4.578zM16 10h-6v-2h6v2zM16 14h-6v-2h6v2zM10 16h6v2h-6v-2z"></path>
</svg>
