<!-- Generated by IcoMoon.io -->
<svg version="1.1" xmlns="http://www.w3.org/2000/svg" width="32" height="32" viewBox="0 0 32 32">
<title>uniF350</title>
<path d="M7.656 20.984q-0.391 0-0.758-0.156t-0.648-0.438l-5.672-5.672q-0.578-0.578-0.578-1.406 0-0.422 0.156-0.781t0.43-0.625 0.633-0.422 0.781-0.156q0.406 0 0.773 0.148t0.648 0.43l5.656 5.656q0.281 0.281 0.43 0.648t0.148 0.773-0.156 0.773-0.43 0.641-0.633 0.43-0.781 0.156zM18.969 9.672q-0.391 0-0.758-0.156t-0.648-0.438l-5.656-5.656q-0.594-0.594-0.594-1.422 0-0.422 0.156-0.781t0.43-0.633 0.633-0.43 0.781-0.156q0.828 0 1.406 0.578l5.672 5.672q0.281 0.281 0.43 0.648t0.148 0.773-0.156 0.773-0.43 0.641-0.633 0.43-0.781 0.156zM10.844 15.781l-5.656-5.656 4.938-4.938 5.656 5.656zM30.281 28.875q0.297 0.297 0.297 0.703t-0.297 0.703-0.703 0.297-0.703-0.297l-14.859-14.844 1.422-1.422zM0 30h16v2h-16v-2zM2 26h12v2h-12v-2z"></path>
</svg>
