<!-- Generated by IcoMoon.io -->
<svg version="1.1" xmlns="http://www.w3.org/2000/svg" width="32" height="32" viewBox="0 0 32 32">
<title>uniF218</title>
<path d="M7.266 4.141q1.406 0 2.422 0.5t1.719 1.336 1.133 1.938 0.664 2.297 0.313 2.406 0.078 2.289q0 1.109-0.109 2.352t-0.391 2.453-0.758 2.328-1.234 1.961-1.813 1.352-2.477 0.508q-1.344 0-2.344-0.484t-1.711-1.289-1.172-1.867-0.719-2.227-0.359-2.336-0.102-2.219q0-1.141 0.094-2.422t0.359-2.539 0.742-2.406 1.242-2.023 1.852-1.391 2.57-0.516zM7.016 24.219q1.047 0 1.805-0.461t1.273-1.219 0.828-1.727 0.477-1.984 0.211-1.977 0.047-1.727q0-0.75-0.039-1.727t-0.188-2.016-0.438-2.047-0.789-1.797-1.25-1.273-1.813-0.484q-1.109 0-1.891 0.484t-1.313 1.273-0.852 1.805-0.484 2.070-0.211 2.063-0.047 1.805q0 0.781 0.047 1.742t0.211 1.953 0.469 1.938 0.828 1.68 1.281 1.18 1.836 0.445zM15.984 22.406q0.688 0 1.148 0.461t0.461 1.148q0 0.328-0.125 0.617t-0.352 0.5-0.516 0.336-0.617 0.125q-0.688 0-1.133-0.445t-0.445-1.133 0.438-1.148 1.141-0.461zM25.266 4.141q1.406 0 2.422 0.5t1.719 1.336 1.133 1.938 0.664 2.297 0.313 2.406 0.078 2.289q0 1.109-0.109 2.352t-0.391 2.453-0.758 2.328-1.234 1.961-1.813 1.352-2.477 0.508q-1.344 0-2.344-0.484t-1.711-1.289-1.172-1.867-0.719-2.227-0.359-2.336-0.102-2.219q0-1.141 0.094-2.422t0.359-2.539 0.742-2.406 1.242-2.023 1.852-1.391 2.57-0.516zM25.016 24.219q1.047 0 1.805-0.461t1.273-1.219 0.828-1.727 0.477-1.984 0.211-1.977 0.047-1.727q0-0.75-0.039-1.727t-0.188-2.016-0.438-2.047-0.789-1.797-1.25-1.273-1.813-0.484q-1.109 0-1.891 0.484t-1.313 1.273-0.852 1.805-0.484 2.070-0.211 2.063-0.047 1.805q0 0.781 0.047 1.742t0.211 1.953 0.469 1.938 0.828 1.68 1.281 1.18 1.836 0.445z"></path>
</svg>
