<!-- Generated by IcoMoon.io -->
<svg version="1.1" xmlns="http://www.w3.org/2000/svg" width="32" height="32" viewBox="0 0 32 32">
<title>uniF405</title>
<path d="M16 8q1.172 0 2.492 0.125t2.664 0.398 2.68 0.688 2.555 1 2.273 1.344 1.852 1.695q0.672 0.797 1.078 1.742t0.406 2.008v2q0 0.625-0.234 1.172t-0.641 0.953-0.953 0.641-1.172 0.234h-4q-0.625 0-1.172-0.234t-0.953-0.641-0.641-0.953-0.234-1.172v-2q0-0.406-0.297-0.703t-0.703-0.297h-10q-0.406 0-0.703 0.297t-0.297 0.703v2q0 0.625-0.234 1.172t-0.641 0.953-0.953 0.641-1.172 0.234h-4q-0.625 0-1.172-0.234t-0.953-0.641-0.641-0.953-0.234-1.172v-2q0-1.063 0.406-2.008t1.078-1.742q0.797-0.938 1.852-1.695t2.273-1.344 2.555-1 2.68-0.688 2.656-0.398 2.5-0.125zM30 17q0-0.813-0.391-1.539t-0.992-1.328-1.32-1.078-1.359-0.82q-1.094-0.578-2.32-1t-2.508-0.695-2.578-0.406-2.531-0.133-2.531 0.133-2.578 0.406-2.508 0.695-2.32 1q-0.641 0.344-1.359 0.82t-1.32 1.078-0.992 1.328-0.391 1.539v2q0 0.406 0.297 0.703t0.703 0.297h4q0.406 0 0.703-0.297t0.297-0.703v-2q0-0.625 0.234-1.172t0.641-0.953 0.953-0.641 1.172-0.234h10q0.625 0 1.172 0.234t0.953 0.641 0.641 0.953 0.234 1.172v2q0 0.406 0.297 0.703t0.703 0.297h4q0.406 0 0.703-0.297t0.297-0.703v-2z"></path>
</svg>
