<!-- Generated by IcoMoon.io -->
<svg version="1.1" xmlns="http://www.w3.org/2000/svg" width="32" height="32" viewBox="0 0 32 32">
<title>uniF529</title>
<path d="M10 13.438q-0.453 0.266-0.961 0.414t-1.039 0.148v-2q0.422 0 0.781-0.156t0.633-0.43 0.43-0.633 0.156-0.781h2v10h-2v-6.563zM20 13.438q-0.453 0.266-0.961 0.414t-1.039 0.148v-2q0.422 0 0.781-0.156t0.633-0.43 0.43-0.633 0.156-0.781h2v10h-2v-6.563zM15 14q-0.406 0-0.703-0.297t-0.297-0.703 0.297-0.703 0.703-0.297 0.703 0.297 0.297 0.703-0.297 0.703-0.703 0.297zM15 18q-0.406 0-0.703-0.297t-0.297-0.703 0.297-0.703 0.703-0.297 0.703 0.297 0.297 0.703-0.297 0.703-0.703 0.297zM30 0v30h-30v-30h30zM28 2h-26v26h26v-26z"></path>
</svg>
