<!-- Generated by IcoMoon.io -->
<svg version="1.1" xmlns="http://www.w3.org/2000/svg" width="32" height="32" viewBox="0 0 32 32">
<title>uniF449</title>
<path d="M18.625 0.656q1.672 0.578 3.031 1.602t2.328 2.375 1.492 2.977 0.523 3.391q0 2.25-0.867 4.18t-2.43 3.523q-1.109 1.141-1.766 2.422t-0.828 2.875h-10.219q-0.172-1.594-0.82-2.875t-1.758-2.406q-1.563-1.609-2.438-3.531t-0.875-4.188q0-1.516 0.391-2.93t1.109-2.633 1.719-2.219 2.219-1.719 2.625-1.109 2.938-0.391q0.172 0 0.336 0.023t0.336 0.039l-5.938 5.938 7 7-4.109 4.109 1.766 1.781 5.875-5.891-7-7zM10 26h10v3q0 0.625-0.234 1.172t-0.641 0.953-0.953 0.641-1.172 0.234h-4q-0.625 0-1.172-0.234t-0.953-0.641-0.641-0.953-0.234-1.172v-3z"></path>
</svg>
