<!-- Generated by IcoMoon.io -->
<svg version="1.1" xmlns="http://www.w3.org/2000/svg" width="32" height="32" viewBox="0 0 32 32">
<title>uniF651</title>
<path d="M28.422 27l3.547 3.547-1.422 1.406-3.547-3.547-3.547 3.547-1.406-1.406 3.547-3.547-3.547-3.547 1.422-1.406 3.531 3.531 3.547-3.531 1.406 1.406zM31.953 27l0.047-0.047v0.094zM32 2v18h-10.031l-1.969 1.969v-1.969h-8v6h8v2h-20v-26h32zM10 20h-8v6h8v-6zM10 12h-8v6h8v-6zM10 4h-8v6h8v-6zM20 12h-8v6h8v-6zM20 4h-8v6h8v-6zM30 12h-8v6h8v-6zM30 4h-8v6h8v-6z"></path>
</svg>
