<!-- Generated by IcoMoon.io -->
<svg version="1.1" xmlns="http://www.w3.org/2000/svg" width="32" height="32" viewBox="0 0 32 32">
<title>uniE74D</title>
<path d="M28 6h-2v23q0 0.625-0.234 1.172t-0.641 0.953-0.953 0.641-1.172 0.234h-16q-0.625 0-1.172-0.234t-0.953-0.641-0.641-0.953-0.234-1.172v-23h-2v-2h8v-2q0-0.422 0.156-0.781t0.43-0.633 0.633-0.43 0.781-0.156h6q0.422 0 0.781 0.156t0.633 0.43 0.43 0.633 0.156 0.781v2h8v2zM12 4h6v-2h-6v2zM24 6h-18v23q0 0.406 0.297 0.703t0.703 0.297h16q0.406 0 0.703-0.297t0.297-0.703v-23zM12 26h-2v-16h2v16zM16 26h-2v-16h2v16zM20 26h-2v-16h2v16z"></path>
</svg>
