<!-- Generated by IcoMoon.io -->
<svg version="1.1" xmlns="http://www.w3.org/2000/svg" width="32" height="32" viewBox="0 0 32 32">
<title>uniEBF4</title>
<path d="M32 24h-8.188q-0.156 0.453-0.438 0.82t-0.648 0.625-0.813 0.406-0.914 0.148-0.914-0.148-0.813-0.406-0.648-0.625-0.438-0.82h-8.375q-0.156 0.453-0.438 0.82t-0.648 0.625-0.813 0.406-0.914 0.148-0.914-0.148-0.813-0.406-0.648-0.625-0.438-0.82h-4.188v-18h22v2h5.625l4.375 8.766v7.234zM2 22h2.188q0.156-0.438 0.438-0.813t0.648-0.633 0.813-0.406 0.914-0.148 0.914 0.148 0.813 0.406 0.648 0.633 0.438 0.813h8.375q0.219-0.641 0.695-1.117t1.117-0.695v-12.188h-18v14zM7 24q0.406 0 0.703-0.297t0.297-0.703-0.297-0.703-0.703-0.297-0.703 0.297-0.297 0.703 0.297 0.703 0.703 0.297zM21 24q0.406 0 0.703-0.297t0.297-0.703-0.297-0.703-0.703-0.297-0.703 0.297-0.297 0.703 0.297 0.703 0.703 0.297zM30 17.234l-3.625-7.234h-4.375v10.188q0.641 0.219 1.117 0.695t0.695 1.117h6.188v-4.766z"></path>
</svg>
