<!-- Generated by IcoMoon.io -->
<svg version="1.1" xmlns="http://www.w3.org/2000/svg" width="32" height="32" viewBox="0 0 32 32">
<title>uniED76</title>
<path d="M20 20h4v6h-4v-6zM31 6v7h-6v-7h6zM20 6h4v13h-4v-13zM25 14h6v12h-6v-12zM11.891 15.719q0 0.672-0.133 1.414t-0.461 1.359-0.875 1.016-1.391 0.398q-0.297 0-0.586-0.008t-0.586-0.023v-7.969q0.297-0.031 0.586-0.047t0.602-0.016q0.813 0 1.359 0.352t0.875 0.906 0.469 1.242 0.141 1.375zM1 4.109l18-3.234v30.25l-18-3.141v-23.875zM5.875 22.016q0.891 0.078 1.781 0.164t1.781 0.086 1.602-0.281 1.25-0.758 0.922-1.125 0.633-1.383 0.359-1.516 0.109-1.531q0-1.188-0.203-2.305t-0.727-1.984-1.422-1.391-2.273-0.523q-0.953 0-1.914 0.117t-1.898 0.195v12.234z"></path>
</svg>
