<!-- Generated by IcoMoon.io -->
<svg version="1.1" xmlns="http://www.w3.org/2000/svg" width="32" height="32" viewBox="0 0 32 32">
<title>uniE975</title>
<path d="M32 25.984q0 0.422-0.156 0.789t-0.43 0.641-0.633 0.43-0.781 0.156h-16q-0.422 0-0.781-0.156t-0.633-0.43-0.43-0.633-0.156-0.781v-2h-10.094q-0.391 0-0.742-0.148t-0.609-0.406-0.406-0.609-0.148-0.742q0-0.547 0.18-1.094t0.555-0.953l3.266-3.438v-12.609h22v8h4q0.406 0 0.766 0.156t0.633 0.422 0.438 0.625 0.164 0.766v12.016zM12 22v-4h-6.563l-3.219 3.391q-0.094 0.109-0.148 0.289t-0.070 0.32h10zM12 14q0-0.422 0.156-0.781t0.43-0.633 0.633-0.43 0.781-0.156h10v-6h-18v10h6v-2zM30 26v-12h-16v12h16zM20 22h4v2h-4v-2z"></path>
</svg>
