<!-- Generated by IcoMoon.io -->
<svg version="1.1" xmlns="http://www.w3.org/2000/svg" width="32" height="32" viewBox="0 0 32 32">
<title>uniE424</title>
<path d="M28 25.422v1.156l3.703 3.719-1.406 1.406-2.719-2.703q-0.297 0.688-0.766 1.234t-1.070 0.945-1.297 0.609-1.445 0.211-1.445-0.211-1.297-0.609-1.070-0.945-0.766-1.234l-2.719 2.703-1.406-1.406 3.703-3.719v-0.75q0-0.609 0.031-1.148t0.164-1.055 0.398-1.016 0.734-1q-0.328-0.75-0.328-1.609 0-0.719 0.25-1.391t0.719-1.219l-1.672-1.688 1.406-1.406 1.938 1.938q0.656-0.234 1.359-0.234t1.359 0.234l1.938-1.938 1.406 1.406-1.672 1.688q0.469 0.547 0.719 1.219t0.25 1.391q0 0.859-0.328 1.609 0.578 0.641 0.906 1.391l2.719-2.703 1.406 1.406zM25 20q0-0.422-0.156-0.781t-0.43-0.633-0.633-0.43-0.781-0.156-0.781 0.156-0.633 0.43-0.43 0.633-0.156 0.781q0 0.203 0.047 0.406 0.453-0.219 0.953-0.313t1-0.094 1 0.094 0.953 0.313q0.047-0.203 0.047-0.406zM26.25 27v-2q0-0.672-0.258-1.266t-0.695-1.031-1.031-0.695-1.266-0.258-1.266 0.258-1.031 0.695-0.695 1.031-0.258 1.266v2q0 0.672 0.258 1.266t0.695 1.031 1.031 0.695 1.266 0.258 1.266-0.258 1.031-0.695 0.695-1.031 0.258-1.266zM16 26h-6v-2h4v-2h-14v-18h30v8h-2v-6h-26v14h14v6z"></path>
</svg>
