<!-- Generated by IcoMoon.io -->
<svg version="1.1" xmlns="http://www.w3.org/2000/svg" width="32" height="32" viewBox="0 0 32 32">
<title>uniE402</title>
<path d="M2 6v14h14.953q-0.297 0.469-0.523 0.969t-0.398 1.031h-0.031v0.109q-0.031 0.188-0.102 0.383t-0.117 0.367q-0.125 0.531-0.203 1.063t-0.078 1.078q0 0.25 0.031 0.5l0.063 0.5h-5.594v-2h4v-2h-14v-18h30v12.953q-0.469-0.297-0.969-0.523t-1.031-0.398v-10.031h-26zM25 18q1.453 0 2.727 0.547t2.227 1.5 1.5 2.227 0.547 2.727-0.547 2.727-1.5 2.227-2.227 1.5-2.727 0.547-2.727-0.547-2.227-1.5-1.5-2.227-0.547-2.727 0.547-2.727 1.5-2.227 2.227-1.5 2.727-0.547zM20 25q0 1.031 0.391 1.945t1.070 1.594 1.594 1.070 1.945 0.391q0.734 0 1.438-0.211t1.313-0.617l-6.922-6.922q-0.406 0.609-0.617 1.313t-0.211 1.438zM29.172 27.75q0.406-0.609 0.617-1.313t0.211-1.438q0-1.031-0.398-1.938t-1.078-1.586-1.586-1.078-1.938-0.398q-0.734 0-1.438 0.211t-1.313 0.617z"></path>
</svg>
