<!-- Generated by IcoMoon.io -->
<svg version="1.1" xmlns="http://www.w3.org/2000/svg" width="32" height="32" viewBox="0 0 32 32">
<title>uniF568</title>
<path d="M23 8q1.859 0 3.5 0.711t2.859 1.93 1.93 2.859 0.711 3.5-0.711 3.5-1.93 2.859-2.859 1.93-3.5 0.711q-1.406 0-2.742-0.43t-2.477-1.227l-7.219 7.219q-0.438 0.438-1.063 0.438t-1.063-0.438-0.438-1.063 0.438-1.063l7.219-7.219q-0.797-1.141-1.227-2.477t-0.43-2.742q0-1.859 0.711-3.5t1.93-2.859 2.859-1.93 3.5-0.711zM19.5 23.063q0.609 0.359 1.281 0.578t1.375 0.313q0.344-0.422 0.344-0.953 0-0.625-0.438-1.063t-1.063-0.438-1.063 0.438-0.438 1.063v0.063zM28 21.891q0.969-0.984 1.484-2.25t0.516-2.641q0-1.453-0.555-2.727t-1.5-2.219-2.219-1.5-2.727-0.555q-1.375 0-2.641 0.516t-2.25 1.484h1.891v6h-2v-5.891q-0.969 0.984-1.484 2.25t-0.516 2.641q0 1.344 0.5 2.602t1.438 2.227q0.063 0.063 0.117 0.102t0.102 0.117q0.313-0.922 1.094-1.484t1.75-0.563q0.625 0 1.172 0.234t0.953 0.641 0.641 0.953 0.234 1.172q0 0.5-0.156 0.953 0.563-0.078 1.102-0.234t1.055-0.391v-3.328h2v1.891zM8.359 26h-7.359q-0.422 0-0.711-0.289t-0.289-0.711v-22q0-0.422 0.289-0.711t0.711-0.289h28q0.422 0 0.711 0.289t0.289 0.711v4.906q-0.453-0.359-0.953-0.68t-1.047-0.57v-0.656h-26v18h8.344zM25 12q0.625 0 1.172 0.234t0.953 0.641 0.641 0.953 0.234 1.172-0.234 1.172-0.641 0.953-0.953 0.641-1.172 0.234-1.172-0.234-0.953-0.641-0.641-0.953-0.234-1.172 0.234-1.172 0.641-0.953 0.953-0.641 1.172-0.234zM25 16.5q0.625 0 1.063-0.438t0.438-1.063-0.438-1.063-1.063-0.438-1.063 0.438-0.438 1.063 0.438 1.063 1.063 0.438zM13.922 10q-0.359 0.453-0.68 0.953t-0.555 1.047h-8.688v-2h9.922zM11.922 14q-0.313 0.984-0.359 2h-7.563v-2h7.922zM11.563 18q0.047 1.016 0.359 2h-7.922v-2h7.563z"></path>
</svg>
