<!-- Generated by IcoMoon.io -->
<svg version="1.1" xmlns="http://www.w3.org/2000/svg" width="32" height="32" viewBox="0 0 32 32">
<title>uniED02</title>
<path d="M32 13q0 0.359-0.234 0.641l-15 18q-0.281 0.359-0.766 0.359t-0.766-0.359l-15-18q-0.234-0.281-0.234-0.641 0-0.281 0.141-0.516l6-10q0.125-0.219 0.359-0.352t0.5-0.133h18q0.266 0 0.5 0.133t0.359 0.352l6 10q0.141 0.234 0.141 0.516zM18.328 4h-4.656l-3.188 8h11.031zM7.563 4l-4.797 8h5.563l3.188-8h-3.953zM3.141 14l9.703 11.656-4.531-11.656h-5.172zM16 28.234l5.547-14.234h-11.094zM19.156 25.656l9.703-11.656h-5.172zM23.672 12h5.563l-4.797-8h-3.953z"></path>
</svg>
