<!-- Generated by IcoMoon.io -->
<svg version="1.1" xmlns="http://www.w3.org/2000/svg" width="32" height="32" viewBox="0 0 32 32">
<title>uniE4F9</title>
<path d="M18.094 14h-7.641l4.828 12.375q-1.078 1.672-1.469 3.563l-13.578-16.297q-0.234-0.281-0.234-0.641 0-0.281 0.141-0.516l6-10q0.125-0.219 0.359-0.352t0.5-0.133h18q0.266 0 0.5 0.133t0.359 0.352l6 10q0.141 0.234 0.141 0.516 0 0.219-0.141 0.469t-0.328 0.492-0.391 0.469-0.344 0.383q-0.766-0.969-1.758-1.688t-2.164-1.125h2.359l-4.797-8h-3.953l3.016 7.563q-0.5 0.031-1 0.133t-1 0.258l-3.172-7.953h-4.656l-3.188 8h10.859q-0.922 0.313-1.742 0.805t-1.508 1.195zM7.563 4l-4.797 8h5.563l3.188-8h-3.953zM12.844 25.656l-4.531-11.656h-5.172zM27.672 24.828q1 0.516 1.82 1.273t1.406 1.688 0.898 2 0.313 2.211h-2q0-1.234-0.477-2.328t-1.289-1.906-1.906-1.289-2.328-0.477q-1.25 0-2.336 0.469t-1.906 1.289-1.289 1.914-0.469 2.328h-2q0-1.141 0.313-2.211t0.891-2 1.398-1.688 1.836-1.273q-1.156-0.859-1.797-2.125t-0.641-2.703q0-1.234 0.469-2.328t1.289-1.914 1.906-1.289 2.336-0.469q1.234 0 2.328 0.469t1.914 1.289 1.289 1.914 0.469 2.328q0 1.438-0.641 2.703t-1.797 2.125zM24.109 24q0.828 0 1.555-0.313t1.273-0.859 0.859-1.273 0.313-1.555-0.313-1.555-0.859-1.273-1.273-0.859-1.555-0.313-1.555 0.313-1.273 0.859-0.859 1.273-0.313 1.555 0.313 1.555 0.859 1.273 1.273 0.859 1.555 0.313z"></path>
</svg>
