<!-- Generated by IcoMoon.io -->
<svg version="1.1" xmlns="http://www.w3.org/2000/svg" width="32" height="32" viewBox="0 0 32 32">
<title>uniF69A</title>
<path d="M4 30h11.969l2 2h-13.969q-0.828 0-1.555-0.313t-1.273-0.859-0.859-1.273-0.313-1.555v-24q0-0.766 0.336-1.484t0.898-1.281 1.281-0.898 1.484-0.336h22v19.047l-1 1-1-1v-17.047h-20q-0.359 0-0.719 0.18t-0.641 0.461-0.461 0.641-0.18 0.719v20.563q0.453-0.266 0.953-0.414t1.047-0.148h15.047l1 1-1 1h-15.047q-0.422 0-0.781 0.156t-0.633 0.43-0.43 0.633-0.156 0.781 0.156 0.781 0.43 0.633 0.633 0.43 0.781 0.156zM20 12h-14v-6h14v6zM8 8v2h10v-2h-10zM30.953 20.453l-4.547 4.547 4.547 4.547-1.406 1.406-4.547-4.547-4.547 4.547-1.406-1.406 4.547-4.547-4.547-4.547 1.406-1.406 4.547 4.547 4.547-4.547z"></path>
</svg>
