<!-- Generated by IcoMoon.io -->
<svg version="1.1" xmlns="http://www.w3.org/2000/svg" width="32" height="32" viewBox="0 0 32 32">
<title>uniE8D8</title>
<path d="M25 18q1.453 0 2.727 0.547t2.227 1.5 1.5 2.227 0.547 2.727-0.547 2.727-1.5 2.227-2.227 1.5-2.727 0.547-2.727-0.547-2.227-1.5-1.5-2.227-0.547-2.727 0.547-2.727 1.5-2.227 2.227-1.5 2.727-0.547zM20 25q0 1.031 0.391 1.945t1.070 1.594 1.594 1.070 1.945 0.391q0.734 0 1.438-0.211t1.313-0.617l-6.922-6.922q-0.406 0.609-0.617 1.313t-0.211 1.438zM29.172 27.75q0.406-0.609 0.617-1.313t0.211-1.438q0-1.031-0.398-1.938t-1.078-1.586-1.586-1.078-1.938-0.398q-0.734 0-1.438 0.211t-1.313 0.617zM8 12h-8v-8h2v4.297q1.047-1.906 2.555-3.445t3.32-2.617 3.875-1.656 4.25-0.578q2.203 0 4.25 0.57t3.82 1.617 3.234 2.508 2.508 3.234 1.617 3.82 0.57 4.25q0 0.609-0.055 1.219t-0.148 1.203q-0.406-0.422-0.875-0.805t-0.969-0.695q0.016-0.234 0.031-0.461t0.016-0.461q0-1.922-0.5-3.711t-1.414-3.344-2.195-2.836-2.836-2.195-3.344-1.414-3.711-0.5q-2.016 0-3.914 0.57t-3.539 1.609-2.961 2.516-2.18 3.305h4.594v2zM16.922 29.953q0.313 0.5 0.695 0.969t0.805 0.875q-0.594 0.094-1.203 0.148t-1.219 0.055q-1.781 0-3.492-0.391t-3.258-1.117-2.922-1.773-2.484-2.352-1.945-2.844-1.305-3.258l1.922-0.531q0.625 2.266 1.93 4.148t3.086 3.242 3.953 2.117 4.516 0.758q0.234 0 0.461-0.016t0.461-0.031z"></path>
</svg>
