<!-- Generated by IcoMoon.io -->
<svg version="1.1" xmlns="http://www.w3.org/2000/svg" width="32" height="32" viewBox="0 0 32 32">
<title>uniF3C0</title>
<path d="M15 4q2.781 0 5.391 1.078 1.125 0.453 2.258 0.688t2.352 0.234h7v14h-6.516q-1.016 0-1.914 0.375t-1.617 1.094l-9.719 9.703q-0.391 0.391-0.781 0.609t-0.953 0.219q-0.516 0-0.969-0.195t-0.797-0.539-0.539-0.797-0.195-0.969q0-1.266 0.281-2.414t0.828-2.273q0.313-0.672 0.531-1.367t0.297-1.445h-6.938q-0.609 0-1.156-0.234t-0.961-0.641-0.648-0.953-0.234-1.172q0-0.5 0.156-0.953l4-12q0.313-0.922 1.094-1.484t1.75-0.563h8z"></path>
</svg>
