<!-- Generated by IcoMoon.io -->
<svg version="1.1" xmlns="http://www.w3.org/2000/svg" width="32" height="32" viewBox="0 0 32 32">
<title>uniE8E0</title>
<path d="M15 4q2.781 0 5.391 1.078 1.125 0.453 2.258 0.688t2.352 0.234h7v14h-6.516q-1.016 0-1.914 0.375t-1.617 1.094l-9.719 9.703q-0.391 0.391-0.781 0.609t-0.953 0.219q-0.516 0-0.969-0.195t-0.797-0.539-0.539-0.797-0.195-0.969q0-1.266 0.281-2.414t0.828-2.273q0.313-0.672 0.531-1.367t0.297-1.445h-6.938q-0.609 0-1.156-0.234t-0.961-0.641-0.648-0.953-0.234-1.172q0-0.5 0.156-0.953l4-12q0.313-0.922 1.094-1.484t1.75-0.563h8zM30 8h-5q-2.797 0-5.391-1.078-2.25-0.922-4.609-0.922h-8q-0.313 0-0.578 0.188t-0.375 0.5q-0.078 0.219-0.289 0.844t-0.508 1.508-0.656 1.938-0.719 2.133-0.695 2.102-0.602 1.844-0.422 1.344-0.156 0.602q0 0.406 0.297 0.703t0.703 0.297h9q0 0.828-0.039 1.539t-0.156 1.383-0.336 1.344-0.578 1.422q-0.438 0.906-0.664 1.852t-0.227 1.961q0 0.219 0.141 0.359t0.359 0.141q0.094 0 0.164-0.070l0.133-0.133 9.734-9.75q0.5-0.5 1.070-0.875t1.211-0.641q1.25-0.531 2.672-0.531h4.516v-10z"></path>
</svg>
