<!-- Generated by IcoMoon.io -->
<svg version="1.1" xmlns="http://www.w3.org/2000/svg" width="32" height="32" viewBox="0 0 32 32">
<title>uniEDCB</title>
<path d="M11.891 15.609q0 0.688-0.141 1.43t-0.469 1.352-0.891 1.008-1.406 0.398q-0.281 0-0.563-0.016l-0.563-0.031v-7.969q0.313-0.016 0.617-0.031t0.617-0.016q0.797 0 1.336 0.352t0.867 0.914 0.461 1.25 0.133 1.359zM1 4.266l18-3.203v29.875l-18-3.109v-23.563zM5.875 21.906q0.891 0.063 1.781 0.148t1.781 0.086q1.344 0 2.273-0.602t1.508-1.555 0.836-2.125 0.258-2.313q0-1.188-0.203-2.305t-0.727-1.984-1.422-1.391-2.273-0.523q-0.953 0-1.914 0.117t-1.898 0.195v12.25zM29.438 16.313h-7.547v7.547h-1.891v-9.422h6.922v-1.266h-6.922v-1.875h6.922v-1.266h-6.922v-1.891h6.922v-1.25h-6.922v-1.891h8.797q0.266 0 0.453 0.18t0.188 0.445v10.688zM31.313 17.578v9.422h-8.172v-9.422h8.172zM26.922 18.828q-0.656 0-1.227 0.242t-1 0.672-0.68 1-0.25 1.227h3.156v-3.141zM27.547 25.75q0.656 0 1.227-0.25t0.992-0.672 0.672-0.992 0.25-1.227-0.25-1.227-0.672-0.992-0.992-0.672-1.227-0.25v3.141h-3.141q0 0.656 0.25 1.227t0.672 0.992 0.992 0.672 1.227 0.25z"></path>
</svg>
