<!-- Generated by IcoMoon.io -->
<svg version="1.1" xmlns="http://www.w3.org/2000/svg" width="32" height="32" viewBox="0 0 32 32">
<title>uniF368</title>
<path d="M16 2q1.922 0 3.711 0.5t3.344 1.414 2.836 2.195 2.195 2.836 1.414 3.344 0.5 3.711-0.5 3.711-1.414 3.344-2.195 2.836-2.836 2.195-3.344 1.414-3.711 0.5-3.711-0.5-3.344-1.414-2.836-2.195-2.195-2.836-1.414-3.336-0.5-3.719q0-1.922 0.5-3.711t1.414-3.344 2.195-2.836 2.836-2.195 3.336-1.414 3.719-0.5zM18 8.281q1.313 0.344 2.414 1.078t1.898 1.758 1.242 2.273 0.445 2.609h4q0-2.188-0.75-4.172t-2.086-3.563-3.172-2.648-3.992-1.445v4.109zM22 16q0-1.234-0.469-2.328t-1.289-1.914-1.914-1.289-2.328-0.469q-1.25 0-2.336 0.469t-1.906 1.289-1.289 1.914-0.469 2.328q0 1.25 0.469 2.336t1.289 1.906 1.906 1.289 2.336 0.469q1.234 0 2.328-0.469t1.914-1.289 1.289-1.906 0.469-2.336zM16 28q2.188 0 4.172-0.75t3.563-2.086 2.648-3.172 1.445-3.992h-4.109q-0.344 1.313-1.078 2.414t-1.758 1.898-2.273 1.242-2.609 0.445q-1.656 0-3.109-0.633t-2.539-1.719-1.719-2.539-0.633-3.109 0.633-3.109 1.719-2.539 2.539-1.719 3.109-0.633v-4q-1.656 0-3.188 0.43t-2.867 1.211-2.43 1.875-1.875 2.43-1.211 2.867-0.43 3.188 0.43 3.188 1.211 2.867 1.875 2.43 2.43 1.875 2.867 1.211 3.188 0.43z"></path>
</svg>
