<!-- Generated by IcoMoon.io -->
<svg version="1.1" xmlns="http://www.w3.org/2000/svg" width="32" height="32" viewBox="0 0 32 32">
<title>uniF553</title>
<path d="M16.297 21.797l1.406 1.406-2.703 2.719-2.703-2.719 1.406-1.406 1.297 1.297zM13.703 8.219l-1.406-1.422 2.703-2.703 2.703 2.703-1.406 1.422-1.297-1.297zM4.203 13.703l-1.281 1.297 1.281 1.297-1.406 1.406-2.703-2.703 2.703-2.703zM29.906 15l-2.703 2.703-1.406-1.406 1.297-1.297-1.297-1.297 1.406-1.406zM6 10h18v2h-18v-2zM6 14h18v2h-18v-2zM6 18h18v2h-18v-2z"></path>
</svg>
