<!-- Generated by IcoMoon.io -->
<svg version="1.1" xmlns="http://www.w3.org/2000/svg" width="32" height="32" viewBox="0 0 32 32">
<title>uniF5B9</title>
<path d="M16 0q2.203 0 4.25 0.57t3.828 1.609 3.242 2.5 2.5 3.242 1.609 3.828 0.57 4.25-0.57 4.25-1.609 3.828-2.5 3.242-3.242 2.5-3.828 1.609-4.25 0.57-4.25-0.57-3.828-1.609-3.242-2.5-2.5-3.242-1.609-3.82-0.57-4.258q0-2.203 0.57-4.25t1.609-3.828 2.5-3.242 3.242-2.5 3.82-1.609 4.258-0.57zM16 30q1.922 0 3.711-0.5t3.344-1.414 2.836-2.195 2.195-2.836 1.414-3.336 0.5-3.719q0-1.922-0.5-3.711t-1.414-3.344-2.195-2.836-2.836-2.195-3.344-1.414-3.711-0.5-3.711 0.5-3.344 1.414-2.836 2.195-2.195 2.836-1.414 3.344-0.5 3.711 0.5 3.711 1.414 3.344 2.195 2.836 2.836 2.195 3.336 1.414 3.719 0.5zM17.703 8.297l7.719 7.688-7.719 7.719-1.406-1.406 5.297-5.297h-8.594q-1.391 0-2.68-0.531t-2.273-1.516-1.516-2.273-0.531-2.68h2q0 1.031 0.391 1.945t1.070 1.594 1.594 1.070 1.945 0.391q2.156 0 4.289-0.008t4.289-0.008l-5.281-5.281z"></path>
</svg>
