<!-- Generated by IcoMoon.io -->
<svg version="1.1" xmlns="http://www.w3.org/2000/svg" width="32" height="32" viewBox="0 0 32 32">
<title>uniE3FB</title>
<path d="M18 3.5q-0.422 0-0.781 0.156t-0.633 0.43-0.43 0.633-0.156 0.781v2.5h-6v6h-3.5q-0.422 0-0.781 0.156t-0.633 0.43-0.43 0.633-0.156 0.781 0.156 0.781 0.43 0.633 0.633 0.43 0.781 0.156h3.5v6h5.594l-0.063 0.5t-0.031 0.5q0 0.5 0.063 0.984t0.172 0.969q0.016 0.063 0.063 0.203t0.094 0.297 0.078 0.281 0.031 0.156v3.047q-0.922-0.531-1.461-1.445t-0.539-1.992v-1.5h-6v-6h-1.5q-0.828 0-1.555-0.313t-1.273-0.859-0.859-1.273-0.313-1.555 0.313-1.555 0.859-1.273 1.273-0.859 1.555-0.313h1.5v-6h6v-0.5q0-0.828 0.313-1.555t0.859-1.273 1.273-0.859 1.555-0.313 1.555 0.313 1.273 0.859 0.859 1.273 0.313 1.555v0.5h6v8h-2.5q-0.719 0-1.258 0.469t-0.664 1.172q-0.531 0.078-1.047 0.211t-1.016 0.336q0-0.047-0.008-0.094t-0.008-0.094q0-0.828 0.313-1.555t0.859-1.273 1.273-0.859 1.555-0.313h0.5v-4h-6v-2.5q0-0.422-0.156-0.781t-0.43-0.633-0.633-0.43-0.781-0.156zM32 25q0 1.453-0.547 2.727t-1.5 2.227-2.227 1.5-2.727 0.547-2.727-0.547-2.227-1.5-1.5-2.227-0.547-2.727 0.547-2.727 1.5-2.227 2.227-1.5 2.727-0.547 2.727 0.547 2.227 1.5 1.5 2.227 0.547 2.727zM20 25q0 1.031 0.391 1.945t1.070 1.594 1.594 1.070 1.945 0.391q0.734 0 1.438-0.211t1.313-0.617l-6.922-6.922q-0.406 0.609-0.617 1.313t-0.211 1.438zM29.172 27.75q0.406-0.609 0.617-1.313t0.211-1.438q0-1.031-0.398-1.938t-1.078-1.586-1.586-1.078-1.938-0.398q-0.734 0-1.438 0.211t-1.313 0.617z"></path>
</svg>
