<!-- Generated by IcoMoon.io -->
<svg version="1.1" xmlns="http://www.w3.org/2000/svg" width="32" height="32" viewBox="0 0 32 32">
<title>uniEDCD</title>
<path d="M14.641 18.75l3.547-3.516v16.766h-7.125v-12.766zM1.453 20.531l7.375-0.984v12.453h-7.375v-11.469zM20.359 13.078l7.375-7.266v26.188h-7.375v-18.922zM30.719 0q0.063-0.016 0.109 0.031t0.047 0.109v0.031l-0.672 3.641q0 0.031-0.031 0.070t-0.063 0.039q-0.109 0-0.156-0.047l-1.219-1.25-14.75 14.563q-0.094 0.094-0.25 0.125l-12.125 1.625q-0.203 0.031-0.344-0.109t-0.141-0.328q0-0.172 0.109-0.281t0.266-0.141l11.969-1.625 14.656-14.453q-0.063-0.063-0.281-0.273t-0.461-0.453-0.43-0.453-0.188-0.258q0-0.109 0.141-0.141z"></path>
</svg>
