<!-- Generated by IcoMoon.io -->
<svg version="1.1" xmlns="http://www.w3.org/2000/svg" width="32" height="32" viewBox="0 0 32 32">
<title>uniE776</title>
<path d="M0.047 16q0.172-2.063 0.961-3.969t2.133-3.484l1.406 1.422q-1.078 1.281-1.703 2.828t-0.797 3.203h-2zM4.547 7.141q1.578-1.344 3.484-2.133t3.969-0.961v2q-1.656 0.172-3.203 0.797t-2.828 1.703zM3.141 25.453q-1.344-1.578-2.133-3.484t-0.961-3.969h2q0.172 1.656 0.797 3.203t1.703 2.828zM12 29.953q-2.063-0.172-3.969-0.961t-3.484-2.133l1.422-1.406q1.281 1.078 2.828 1.703t3.203 0.797v2zM25.953 18q-0.172 2.063-0.961 3.969t-2.133 3.484l-1.406-1.422q1.078-1.281 1.703-2.828t0.797-3.203h2zM21.453 26.859q-1.578 1.344-3.484 2.133t-3.969 0.961v-2q1.656-0.172 3.203-0.797t2.828-1.703zM16 2v12h3l-4 4-4-4h3v-12h2zM28 19v-3h-8.172l2-2h6.172v-3l4 4z"></path>
</svg>
