<!-- Generated by IcoMoon.io -->
<svg version="1.1" xmlns="http://www.w3.org/2000/svg" width="32" height="32" viewBox="0 0 32 32">
<title>uniE807</title>
<path d="M15 0q0.406 0 0.703 0.297t0.297 0.703v11q0 0.828-0.32 1.555t-0.859 1.266-1.273 0.859-1.547 0.32v15q0 0.406-0.297 0.703t-0.703 0.297-0.703-0.297-0.297-0.703v-15q-0.828 0-1.555-0.32t-1.266-0.859-0.859-1.266-0.32-1.555v-11q0-0.406 0.297-0.703t0.703-0.297 0.703 0.297 0.297 0.703v11q0 0.422 0.156 0.781t0.43 0.633 0.633 0.43 0.781 0.156v-13q0-0.406 0.297-0.703t0.703-0.297 0.703 0.297 0.297 0.703v13q0.422 0 0.781-0.156t0.633-0.43 0.43-0.633 0.156-0.781v-11q0-0.406 0.297-0.703t0.703-0.297zM26 0v31q0 0.406-0.297 0.703t-0.703 0.297-0.703-0.297-0.297-0.703v-9q-0.578 0-1.25 0.016t-1.336-0.023-1.281-0.188-1.094-0.484-0.758-0.891-0.281-1.43v-12q0-1.453 0.555-2.727t1.5-2.219 2.219-1.5 2.727-0.555h1zM24 2.094q-0.875 0.172-1.602 0.633t-1.266 1.117-0.836 1.461-0.297 1.695v12q0 0.406 0.297 0.703t0.703 0.297h3v-17.906z"></path>
</svg>
