<!-- Generated by IcoMoon.io -->
<svg version="1.1" xmlns="http://www.w3.org/2000/svg" width="32" height="32" viewBox="0 0 32 32">
<title>uniE3AB</title>
<path d="M29.141 23.734q0.188 0 0.336 0.164t0.148 0.336q0 0.156-0.164 0.43t-0.422 0.617-0.57 0.703-0.594 0.68-0.5 0.547-0.297 0.305q-0.766 0.719-1.781 1.398t-2.148 1.211-2.305 0.852-2.234 0.32q-1.188 0-2.25-0.375t-1.969-1.039-1.625-1.555-1.227-1.922-0.781-2.141-0.273-2.219q0-1.328 0.438-2.617t1.156-2.398q0.188 1.266 0.734 2.359t1.359 2 1.844 1.617 2.18 1.195 2.367 0.742 2.406 0.258q1.484 0 2.898-0.305t2.742-0.961l0.266-0.133t0.266-0.070zM8.484 22.047q0 1.453 0.359 2.867t1.039 2.695 1.656 2.367 2.211 1.867q-1.969-0.266-3.742-0.992t-3.305-1.828-2.766-2.531-2.109-3.109-1.352-3.547-0.477-3.836q0-1.078 0.422-1.984t1.117-1.641 1.586-1.273 1.813-0.883q0.984-0.359 2.008-0.523t2.055-0.164q0.938 0 1.898 0.148t1.867 0.453 1.75 0.766 1.547 1.102q-0.469 0-0.922 0.094t-0.875 0.313v-0.031q-0.844 0.375-1.602 0.984t-1.398 1.383-1.156 1.68-0.875 1.859-0.555 1.914-0.195 1.852zM15.938 0q2.266 0 4.445 0.516t4.094 1.539 3.492 2.57 2.641 3.609q0.656 1.25 1.023 2.602t0.367 2.773q0 1.188-0.313 2.266t-0.914 1.984-1.461 1.617-1.938 1.18q-0.719 0.313-1.484 0.484t-1.547 0.172q-0.563 0-1.289-0.039t-1.461-0.164-1.406-0.375-1.125-0.656q-0.156-0.125-0.297-0.336t-0.141-0.43q0-0.203 0.211-0.469t0.469-0.656 0.477-0.922 0.219-1.266q0-1.406-0.531-2.617t-1.414-2.188-2.031-1.703-2.383-1.18q-1.125-0.406-2.289-0.594t-2.352-0.188q-2.063 0-4.078 0.602t-3.672 1.852q0.953-2.313 2.422-4.164t3.352-3.141 4.141-1.984 4.773-0.695z"></path>
</svg>
