<!-- Generated by IcoMoon.io -->
<svg version="1.1" xmlns="http://www.w3.org/2000/svg" width="32" height="32" viewBox="0 0 32 32">
<title>uniE3AA</title>
<path d="M29.141 23.734q0.172 0 0.328 0.156t0.156 0.328-0.102 0.336-0.195 0.289q-0.563 0.844-1.219 1.602t-1.406 1.43q-0.625 0.563-1.445 1.109t-1.734 0.992-1.852 0.719-1.797 0.273q-1.938 0-3.492-0.688t-2.641-1.898-1.672-2.836-0.586-3.5q0-0.953 0.258-1.867t0.68-1.758q0.547 1.594 1.656 2.852t2.547 2.133 3.086 1.336 3.258 0.461q1.484 0 2.898-0.305t2.742-0.961l0.266-0.133t0.266-0.070zM8.484 22.047q0 1.438 0.273 2.805t0.836 2.609 1.422 2.328 2.031 1.945q-1.891-0.328-3.586-1.094t-3.141-1.883-2.617-2.539-1.992-3.063-1.266-3.453-0.445-3.719q0-1.047 0.477-1.922t1.234-1.555 1.688-1.156 1.836-0.742q1.563-0.469 3.266-0.469 0.828 0 1.68 0.125t1.672 0.367 1.586 0.625 1.422 0.898l-0.219 0.094q-0.438 0.172-0.813 0.359t-0.766 0.453q-1.016 0.703-1.852 1.734t-1.445 2.234-0.945 2.5-0.336 2.516zM15.938 0q2.266 0 4.445 0.516t4.094 1.539 3.492 2.57 2.641 3.609q0.656 1.25 1.023 2.602t0.367 2.773q0 1.188-0.313 2.266t-0.914 1.984-1.461 1.617-1.938 1.18q-0.719 0.313-1.484 0.484t-1.547 0.172q-0.563 0-1.289-0.039t-1.461-0.164-1.406-0.375-1.125-0.656q-0.156-0.125-0.297-0.336t-0.141-0.43q0-0.203 0.211-0.469t0.469-0.656 0.477-0.922 0.219-1.266q0-1.5-0.57-2.781t-1.523-2.313-2.188-1.797-2.563-1.219q-2.25-0.75-4.656-0.75-1.75 0-3.461 0.414t-3.258 1.258q1.047-2.078 2.508-3.719t3.266-2.773 3.922-1.727 4.461-0.594z"></path>
</svg>
