<!-- Generated by IcoMoon.io -->
<svg version="1.1" xmlns="http://www.w3.org/2000/svg" width="32" height="32" viewBox="0 0 32 32">
<title>uniEC60</title>
<path d="M30.984 19h-20.453q0 1.156 0.359 2.094t0.984 1.664 1.469 1.25 1.797 0.867 1.977 0.508 2.023 0.164q1.266 0 2.391-0.203t2.195-0.555 2.117-0.836 2.141-1.063v6.781q-1.219 0.594-2.414 1.023t-2.414 0.727-2.484 0.438-2.625 0.141q-1.797 0-3.469-0.414t-3.141-1.188-2.688-1.883-2.094-2.5-1.359-3.031-0.484-3.484q0-1.969 0.539-3.758t1.555-3.289 2.477-2.664 3.289-1.898q-1 1-1.555 2.367t-0.711 2.742h11.391q0-1.719-0.352-3.008t-1.133-2.141-2.016-1.281-2.984-0.43q-2.063 0-4.125 0.617t-3.922 1.711-3.422 2.586-2.625 3.242q0.234-2.031 0.867-3.883t1.625-3.438 2.32-2.875 2.945-2.203 3.492-1.406 3.984-0.492q1.219 0 2.445 0.219t2.383 0.609q2.313 0.797 4.125 2.211t3.047 3.266 1.883 4.078 0.648 4.633v3.984z"></path>
</svg>
