<!-- Generated by IcoMoon.io -->
<svg version="1.1" xmlns="http://www.w3.org/2000/svg" width="32" height="32" viewBox="0 0 32 32">
<title>uniE370</title>
<path d="M3.438 28l-0.656 2h23.219v2h-26q0.031-0.094 0.195-0.578t0.383-1.148 0.469-1.414l0.953-2.859v-12h-2v-2l14-7v-5h5.984v4h-3.984v1l14 7v2h-2v2h-2v-2h-2v2h-2v-2h-2v2h-2v-2h-2v14h-12.563zM10 26v-12h-2v12h2zM14 26v-12h-2v12h2zM15 6.734l-10.531 5.266h21.063zM4 14v12h2v-12h-2zM32 31q0 0.406-0.297 0.703t-0.703 0.297-0.703-0.297l-4.547-4.531q-0.609 0.406-1.313 0.617t-1.438 0.211q-1.031 0-1.945-0.391t-1.594-1.070-1.070-1.594-0.391-1.945 0.391-1.938 1.070-1.586 1.594-1.078 1.945-0.398 1.938 0.398 1.586 1.078 1.078 1.586 0.398 1.938q0 0.734-0.211 1.438t-0.617 1.313l4.531 4.547q0.297 0.297 0.297 0.703zM20 23q0 0.625 0.234 1.172t0.641 0.953 0.953 0.641 1.172 0.234 1.172-0.234 0.953-0.641 0.641-0.953 0.234-1.172-0.234-1.172-0.641-0.953-0.953-0.641-1.172-0.234-1.172 0.234-0.953 0.641-0.641 0.953-0.234 1.172z"></path>
</svg>
