<!-- Generated by IcoMoon.io -->
<svg version="1.1" xmlns="http://www.w3.org/2000/svg" width="32" height="32" viewBox="0 0 32 32">
<title>uniE61B</title>
<path d="M32 5.234q0 1.047-0.391 2.008t-1.141 1.711l-20.578 20.578-9.891 2.469 2.469-9.891 20.578-20.578q0.75-0.75 1.711-1.141t2.008-0.391q1.078 0 2.031 0.414t1.664 1.125 1.125 1.664 0.414 2.031zM9.688 26.906l16.891-16.906-4.578-4.578-16.906 16.891q1.672 0.547 2.859 1.734t1.734 2.859zM4.031 24.109l-1.281 5.141 5.141-1.281q-0.156-0.719-0.508-1.359t-0.852-1.141-1.141-0.852-1.359-0.508zM28 8.578q0.391-0.391 0.75-0.734t0.641-0.727 0.445-0.828 0.164-1.039q0-0.672-0.258-1.266t-0.695-1.031-1.031-0.695-1.266-0.258q-0.594 0-1.039 0.164t-0.828 0.445-0.727 0.641-0.734 0.75zM13.047 8l-2 2h-7.047v-2h9.047zM9.047 12l-2 2h-3.047v-2h5.047zM17.047 4l-2 2h-11.047v-2h13.047zM2 4v2h-2v-2h2zM2 12v2h-2v-2h2zM2 8v2h-2v-2h2z"></path>
</svg>
