<!-- Generated by IcoMoon.io -->
<svg version="1.1" xmlns="http://www.w3.org/2000/svg" width="32" height="32" viewBox="0 0 32 32">
<title>uniEF60</title>
<path d="M16.484 14h-6.969l-1.328 4h-2.188l6-18h2l5.156 15.438-1.656 1.641zM15.813 12l-2.813-8.438-2.813 8.438h5.625zM24.891 14.047q0.656 0 1.227 0.227t0.984 0.633 0.656 0.961 0.242 1.227q0 0.609-0.234 1.188t-0.672 1.016l-11.203 11.203-5.891 1.469 1.469-5.891 11.203-11.188q0.438-0.438 1.023-0.641t1.195-0.203zM25.672 17.891q0.328-0.328 0.328-0.797 0-0.5-0.32-0.789t-0.805-0.289q-0.219 0-0.422 0.063t-0.359 0.219l-10.813 10.813-0.531 2.109 2.109-0.531z"></path>
</svg>
