<!-- Generated by IcoMoon.io -->
<svg version="1.1" xmlns="http://www.w3.org/2000/svg" width="32" height="32" viewBox="0 0 32 32">
<title>uniE70F</title>
<path d="M32 5.234q0 1.031-0.391 2t-1.141 1.719l-20.578 20.578-9.891 2.469 2.469-9.891 20.578-20.578q0.75-0.75 1.719-1.141t2-0.391q1.078 0 2.031 0.414t1.664 1.125 1.125 1.664 0.414 2.031zM5.094 22.313q1.656 0.547 2.852 1.742t1.742 2.852l16.891-16.906-4.578-4.578zM2.75 29.25l5.141-1.281q-0.156-0.719-0.508-1.359t-0.852-1.141-1.141-0.852-1.359-0.508zM28 8.578q0.391-0.391 0.75-0.734t0.641-0.727 0.445-0.828 0.164-1.039q0-0.672-0.258-1.258t-0.703-1.031-1.031-0.703-1.258-0.258q-0.594 0-1.039 0.164t-0.828 0.445-0.727 0.641-0.734 0.75z"></path>
</svg>
