<!-- Generated by IcoMoon.io -->
<svg version="1.1" xmlns="http://www.w3.org/2000/svg" width="32" height="32" viewBox="0 0 32 32">
<title>uniEF61</title>
<path d="M26.672 14.891q0.438-0.438 1.023-0.641t1.18-0.203q0.656 0 1.219 0.227t0.977 0.633 0.656 0.969 0.242 1.219q0 0.609-0.234 1.188t-0.672 1.016l-11.172 11.203-5.891 1.469 1.469-5.891zM29.672 17.891q0.328-0.328 0.328-0.797 0-0.5-0.32-0.789t-0.805-0.289q-0.219 0-0.422 0.063t-0.359 0.219l-10.813 10.813-0.531 2.109 2.109-0.531zM32 6v7.031q-0.453-0.328-0.953-0.539t-1.047-0.336v-2.031l-14 6.984-14-6.984v13.875h12.719l-2 2h-12.719v-20h32zM16 14.891l13.766-6.891h-27.531z"></path>
</svg>
