<!-- Generated by IcoMoon.io -->
<svg version="1.1" xmlns="http://www.w3.org/2000/svg" width="32" height="32" viewBox="0 0 32 32">
<title>uniEFD3</title>
<path d="M19.422 19.313q-0.703-0.797-1.555-1.414t-1.805-1.039-1.977-0.641-2.086-0.219q-1.375 0-2.656 0.359t-2.391 1.008-2.023 1.563-1.563 2.023-1.008 2.391-0.359 2.656h-2q0-1.875 0.555-3.609t1.57-3.203 2.445-2.609 3.18-1.797q-1.766-1.156-2.758-2.906t-0.992-3.875q0-1.656 0.625-3.117t1.711-2.547 2.547-1.711 3.117-0.625 3.117 0.625 2.547 1.711 1.711 2.547 0.625 3.117q0 1.031-0.258 2.016t-0.742 1.859-1.18 1.617-1.57 1.289q1.313 0.5 2.469 1.289t2.109 1.82zM6 8q0 1.25 0.469 2.336t1.289 1.906 1.906 1.289 2.336 0.469q1.234 0 2.328-0.469t1.914-1.289 1.289-1.906 0.469-2.336q0-1.234-0.469-2.328t-1.289-1.914-1.914-1.289-2.328-0.469q-1.25 0-2.336 0.469t-1.906 1.289-1.289 1.914-0.469 2.328zM28.875 14q0.656 0 1.227 0.234t0.992 0.648 0.664 0.984 0.242 1.227q0 0.609-0.234 1.188t-0.672 1.016l-11.203 11.203-5.891 1.469 1.469-5.891 11.203-11.188q0.453-0.453 1.016-0.672t1.188-0.219zM29.672 17.891q0.328-0.328 0.328-0.797 0-0.484-0.32-0.789t-0.805-0.305q-0.219 0-0.422 0.070t-0.359 0.227l-10.813 10.813-0.531 2.109 2.109-0.531z"></path>
</svg>
