<!-- Generated by IcoMoon.io -->
<svg version="1.1" xmlns="http://www.w3.org/2000/svg" width="32" height="32" viewBox="0 0 32 32">
<title>uniEF77</title>
<path d="M24 9q0-0.406 0.297-0.703t0.703-0.297 0.703 0.297 0.297 0.703-0.297 0.703-0.703 0.297-0.703-0.297-0.297-0.703zM2 26h11.438l-0.5 2h-12.938v-24h32v9.063q-0.438-0.344-0.945-0.578t-1.055-0.359v-6.125h-28v10.578l7-6.984 6 6 4-4 4.078 4.063-1.422 1.422-2.656-2.672-2.594 2.594 2.672 2.656-1.422 1.422-8.656-8.672-7 7.016v6.578zM30 23.219l2-2v6.781h-6.781l2-2h2.781v-2.781zM32 17.094q0 0.609-0.234 1.188t-0.672 1.016l-11.203 11.203-5.891 1.469 1.469-5.875 11.203-11.203q0.438-0.438 1.023-0.641t1.18-0.203q0.656 0 1.227 0.227t0.992 0.633 0.664 0.961 0.242 1.227zM29.672 17.891q0.328-0.328 0.328-0.797 0-0.5-0.32-0.789t-0.805-0.289q-0.219 0-0.422 0.063t-0.359 0.219l-10.813 10.813-0.531 2.109 2.109-0.531z"></path>
</svg>
