<!-- Generated by IcoMoon.io -->
<svg version="1.1" xmlns="http://www.w3.org/2000/svg" width="32" height="32" viewBox="0 0 32 32">
<title>uniF05B</title>
<path d="M14 14h-2v-2h2v2zM20 14h-2v-2h2v2zM12 16h2v2h-2v-2zM8 18h-2v-2h2v2zM18 16h2v2h-2v-2zM12 20h2v2h-2v-2zM8 22h-2v-2h2v2zM6 24h2v2h-2v-2zM14 24.719l-0.328 0.344-0.234 0.938h-1.438v-2h2v0.719zM26 12.875q-0.359 0.234-0.656 0.523t-0.609 0.602h-0.734v-2h2v0.875zM18 20h0.734l-0.734 0.734v-0.734zM32 2v11.063q-0.906-0.672-2-0.906v-2.156h-28v18h10.938l-0.5 2h-12.438v-28h6v-2h2v2h16v-2h2v2h6zM30 4h-4v2h-2v-2h-16v2h-2v-2h-4v4h28v-4zM26.672 14.891q0.438-0.438 1.023-0.641t1.18-0.203q0.656 0 1.227 0.227t0.992 0.633 0.664 0.961 0.242 1.227q0 0.609-0.234 1.188t-0.672 1.016l-11.203 11.203-5.891 1.469 1.469-5.891zM29.672 17.891q0.328-0.328 0.328-0.797 0-0.5-0.313-0.789t-0.813-0.289q-0.203 0-0.414 0.063t-0.367 0.219l-10.813 10.813-0.531 2.109 2.109-0.531z"></path>
</svg>
