<!-- Generated by IcoMoon.io -->
<svg version="1.1" xmlns="http://www.w3.org/2000/svg" width="32" height="32" viewBox="0 0 32 32">
<title>uniEB7E</title>
<path d="M0 5.234q0 1.031 0.391 2t1.141 1.719l20.578 20.578 9.891 2.469-2.469-9.891-20.578-20.578q-0.75-0.75-1.719-1.141t-2-0.391q-1.078 0-2.031 0.414t-1.664 1.125-1.125 1.664-0.414 2.031zM26.906 22.313q-1.656 0.547-2.852 1.742t-1.742 2.852l-16.891-16.906 4.578-4.578zM29.25 29.25l-5.141-1.281q0.156-0.719 0.508-1.359t0.852-1.141 1.141-0.852 1.359-0.508zM4 8.578q-0.391-0.391-0.75-0.734t-0.641-0.727-0.445-0.828-0.164-1.039q0-0.672 0.258-1.258t0.703-1.031 1.031-0.703 1.258-0.258q0.594 0 1.039 0.164t0.828 0.445 0.727 0.641 0.734 0.75z"></path>
</svg>
