<!-- Generated by IcoMoon.io -->
<svg version="1.1" xmlns="http://www.w3.org/2000/svg" width="32" height="32" viewBox="0 0 32 32">
<title>uniE4C4</title>
<path d="M20 18.016l-3.984 3.984h-4.016v6h-10v-24h26v7.578q-0.578 0.078-1.039 0.242t-0.961 0.477v-2.297h-6v4h4.016l-2 2h-2.016v2.016zM18 14v-4h-6v4h6zM10 26v-4h-6v4h6zM10 20v-4h-6v4h6zM10 14v-4h-6v4h6zM4 8h22v-2h-22v2zM12 16v4h6v-4h-6zM32 17.094q0 0.609-0.234 1.188t-0.672 1.016l-11.203 11.234-5.891 1.469 1.469-5.891 11.203-11.219q0.438-0.438 1.016-0.664t1.188-0.227q0.656 0 1.227 0.234t0.992 0.656 0.664 0.984 0.242 1.219zM30 17.094q0-0.484-0.32-0.789t-0.805-0.305q-0.219 0-0.422 0.070t-0.359 0.227l-10.813 10.844-0.531 2.109 2.109-0.531 10.813-10.828q0.328-0.328 0.328-0.797z"></path>
</svg>
