<!-- Generated by IcoMoon.io -->
<svg version="1.1" xmlns="http://www.w3.org/2000/svg" width="32" height="32" viewBox="0 0 32 32">
<title>uniF3C9</title>
<path d="M3.531 10.953q-0.75-0.75-1.141-1.711t-0.391-1.992q0-1.109 0.406-2.055t1.117-1.641 1.664-1.094 2.047-0.398q1.031 0 2.008 0.367t1.711 1.102l5.516 5.516-1.422 1.422-3.047-3.047-4.578 4.578 3.047 3.047-1.422 1.422zM7.25 4.031q-0.672 0-1.266 0.242t-1.031 0.68-0.695 1.023-0.258 1.273q0 0.594 0.164 1.039t0.445 0.828 0.641 0.727 0.75 0.734l4.578-4.578q-0.406-0.391-0.742-0.75t-0.711-0.633-0.82-0.43-1.055-0.156zM32 32l-9.891-2.469-4.578-4.578 1.422-1.422 3.391 3.406q0.25-0.813 0.695-1.539t1.039-1.32 1.313-1.031 1.547-0.703l-3.406-3.391 1.422-1.422 4.578 4.578zM29.25 29.25l-1.281-5.141q-0.734 0.156-1.367 0.508t-1.141 0.852-0.852 1.141-0.5 1.359zM27 3q0.828 0 1.555 0.313t1.273 0.859 0.859 1.273 0.313 1.555q0 0.797-0.305 1.531t-0.867 1.297l-17.906 17.906q-0.141 0.922-0.578 1.695t-1.094 1.352-1.492 0.898-1.758 0.32h-7v-2q0.172 0 0.367-0.055t0.336-0.133q0.391-0.203 0.641-0.516t0.398-0.688 0.203-0.789 0.055-0.82q0-0.922 0.32-1.758t0.898-1.492 1.352-1.094 1.695-0.578l17.906-17.906q0.563-0.563 1.297-0.867t1.531-0.305zM7 30q0.625 0 1.172-0.234t0.953-0.641 0.641-0.953 0.234-1.172-0.234-1.172-0.641-0.953-0.953-0.641-1.172-0.234-1.172 0.234-0.953 0.641-0.641 0.953-0.234 1.172q0 1.625-1 3h4zM15.094 21.734q-0.5-0.984-1.172-1.656t-1.656-1.172l-3.453 3.453q0.969 0.375 1.711 1.117t1.117 1.711zM28.406 8.406q0.578-0.578 0.578-1.406 0-0.406-0.156-0.766t-0.43-0.633-0.633-0.43-0.766-0.156q-0.828 0-1.406 0.578l-11.859 11.844q0.953 0.563 1.609 1.219t1.219 1.609z"></path>
</svg>
