<!-- Generated by IcoMoon.io -->
<svg version="1.1" xmlns="http://www.w3.org/2000/svg" width="32" height="32" viewBox="0 0 32 32">
<title>uniED9D</title>
<path d="M6 30h6.438l-0.5 2h-7.938v-30h2v-2h2v2h4v-2h2v2h4v-2h2v2h4v-2h2v2h2v10.125q-0.531 0.078-1.039 0.266t-0.961 0.484v-8.875h-20v26zM28.875 14q0.656 0 1.227 0.234t0.992 0.648 0.664 0.984 0.242 1.227q0 0.609-0.234 1.188t-0.672 1.016l-11.203 11.203-5.891 1.469 1.469-5.891 11.203-11.188q0.453-0.453 1.016-0.672t1.188-0.219zM29.672 17.891q0.328-0.328 0.328-0.797 0-0.484-0.32-0.789t-0.805-0.305q-0.219 0-0.422 0.070t-0.359 0.227l-10.813 10.813-0.531 2.109 2.109-0.531z"></path>
</svg>
