<!-- Generated by IcoMoon.io -->
<svg version="1.1" xmlns="http://www.w3.org/2000/svg" width="32" height="32" viewBox="0 0 32 32">
<title>uniF4FB</title>
<path d="M16 4q2.047 0 4.195 0.43t4.125 1.32 3.641 2.25 2.727 3.219q0.641 1.109 0.977 2.305t0.336 2.477-0.336 2.477-0.977 2.305q-1.063 1.859-2.727 3.219t-3.641 2.25-4.125 1.32-4.195 0.43-4.195-0.43-4.125-1.32-3.641-2.25-2.727-3.219q-0.641-1.109-0.977-2.305t-0.336-2.477 0.336-2.477 0.977-2.305q1.063-1.859 2.727-3.219t3.641-2.25 4.125-1.32 4.195-0.43zM16 26q1.313 0 2.641-0.18t2.609-0.555 2.492-0.945 2.273-1.352q0.844-0.625 1.578-1.383t1.266-1.641 0.836-1.867 0.305-2.078-0.305-2.078-0.836-1.867-1.266-1.641-1.578-1.383q-1.063-0.781-2.273-1.352t-2.492-0.945-2.609-0.555-2.641-0.18-2.641 0.18-2.609 0.555-2.492 0.945-2.273 1.352q-0.844 0.625-1.578 1.383t-1.266 1.641-0.836 1.867-0.305 2.078 0.305 2.078 0.836 1.867 1.266 1.641 1.578 1.383q1.063 0.781 2.273 1.352t2.492 0.945 2.609 0.555 2.641 0.18z"></path>
</svg>
