<!-- Generated by IcoMoon.io -->
<svg version="1.1" xmlns="http://www.w3.org/2000/svg" width="32" height="32" viewBox="0 0 32 32">
<title>uniEA88</title>
<path d="M16 20q1.125 0 2.328 0.25t2.297 0.758 2 1.289 1.438 1.844l-1.797 0.891q-0.406-0.797-1.125-1.367t-1.586-0.945-1.805-0.547-1.75-0.172q-0.844 0-1.773 0.164t-1.797 0.531-1.578 0.945-1.117 1.391l-1.797-0.891q0.531-1.078 1.43-1.867t1.992-1.289 2.297-0.742 2.344-0.242zM16 0q2.203 0 4.25 0.57t3.82 1.617 3.234 2.508 2.508 3.234 1.617 3.82 0.57 4.25-0.57 4.25-1.609 3.828-2.5 3.242-3.242 2.5-3.828 1.609-4.25 0.57-4.25-0.57-3.828-1.609-3.242-2.5-2.5-3.242-1.609-3.82-0.57-4.258q0-2.203 0.57-4.25t1.609-3.828 2.5-3.242 3.242-2.5 3.82-1.609 4.258-0.57zM16 30q1.922 0 3.711-0.5t3.344-1.414 2.836-2.195 2.195-2.836 1.414-3.336 0.5-3.719q0-1.922-0.5-3.711t-1.414-3.344-2.195-2.836-2.836-2.195-3.344-1.414-3.711-0.5-3.711 0.5-3.344 1.414-2.836 2.195-2.195 2.836-1.414 3.344-0.5 3.711 0.5 3.711 1.414 3.344 2.195 2.836 2.836 2.195 3.336 1.414 3.719 0.5zM11.984 14.328q-0.734-0.328-1.516-0.328-0.547 0-1.070 0.156t-0.969 0.445-0.797 0.695-0.586 0.906l-1.828-0.828q0.344-0.766 0.891-1.391t1.234-1.063 1.477-0.68 1.633-0.242q1.25 0 2.359 0.516zM19.188 12.516q0.547-0.266 1.148-0.391t1.211-0.125q0.844 0 1.633 0.242t1.477 0.68 1.227 1.063 0.898 1.391l-1.828 0.828q-0.234-0.5-0.586-0.906t-0.797-0.695-0.969-0.445-1.070-0.156q-0.813 0-1.531 0.328z"></path>
</svg>
