<!-- Generated by IcoMoon.io -->
<svg version="1.1" xmlns="http://www.w3.org/2000/svg" width="32" height="32" viewBox="0 0 32 32">
<title>uniEF88</title>
<path d="M12.219 24.828q-0.5 0-0.75-0.453-0.094-0.172-0.328-0.594t-0.492-0.883-0.453-0.859-0.195-0.539q0-0.25 0.117-0.531t0.281-0.563 0.328-0.539l0.273-0.43-1-0.797h3.078l0.734 3.031-1.203-0.953-0.859 1.734h2.859v2.375h-2.391zM15.828 14.766l-1.313 2.578-1.984-1 0.938-1.859q0.219-0.469 0.75-0.469l3.453-0.016q0.5 0 0.75 0.469l0.844 1.578 0.906-0.688-0.469 3.234-3.406-0.313 0.969-0.719zM17.734 26l-1.938-2.594 1.938-2.375v1.609h2.547l-1.047-1.922 1.906-1.125q0.063 0.141 0.211 0.398t0.289 0.539 0.25 0.547 0.109 0.422q0 0.188-0.094 0.375l-1.328 2.625q-0.109 0.219-0.313 0.336t-0.438 0.117h-2.094v1.047zM27.094 10h2.063l-4.234 18.922q-2.031 1.516-4.195 2.297t-4.711 0.781q-2.531 0-4.703-0.789t-4.188-2.289l-4.984-22.031-0.094-0.438t-0.047-0.453q0-0.906 0.461-1.648t1.211-1.32 1.703-1.023 1.93-0.758 1.891-0.516 1.602-0.313q2.578-0.422 5.203-0.422 0.797 0 1.586 0.039t1.586 0.117q-1.031 0.313-1.992 0.773t-1.836 1.086q-0.75 0.016-1.656 0.078t-1.883 0.188-1.969 0.328-1.922 0.5-1.734 0.695-1.398 0.898q-0.281 0.25-0.531 0.578t-0.25 0.719q0 0.234 0.094 0.445t0.25 0.406 0.336 0.359 0.352 0.289q0.656 0.5 1.508 0.875t1.805 0.648 1.969 0.461 2.016 0.305 1.938 0.164 1.734 0.047q0.172 0 0.344-0.008t0.344-0.008l0.016 0.016h9.875q-1.156 0.547-2.477 0.93t-2.703 0.617-2.758 0.344-2.641 0.109q-1.313 0-2.781-0.117t-2.945-0.383-2.875-0.703-2.555-1.078l4.063 18.031q1.563 1.094 3.391 1.648t3.734 0.555q1.891 0 3.711-0.555t3.383-1.648zM32 0v8h-8v-2h4.563q-1.188-0.938-2.609-1.422t-2.938-0.484q-1.781 0-3.414 0.672t-2.898 1.938l-1.406-1.406q1.547-1.547 3.539-2.375t4.18-0.828q1.906 0 3.703 0.641t3.281 1.859v-4.594h2z"></path>
</svg>
