<!-- Generated by IcoMoon.io -->
<svg version="1.1" xmlns="http://www.w3.org/2000/svg" width="32" height="32" viewBox="0 0 32 32">
<title>uniE54C</title>
<path d="M14 32h-2v-0.672q0-0.594-0.063-1.133t-0.328-1.133q-0.313-0.688-0.781-1.258t-1.063-0.969-1.297-0.617-1.469-0.219-1.469 0.219-1.297 0.617-1.070 0.961-0.773 1.266q-0.266 0.625-0.328 1.148t-0.063 1.117v0.672h-2v-1q0-0.969 0.266-1.891t0.75-1.734 1.18-1.469 1.555-1.109q-0.844-0.734-1.297-1.703t-0.453-2.094q0-1.031 0.391-1.945t1.070-1.594 1.594-1.070 1.945-0.391 1.938 0.398 1.586 1.078 1.078 1.586 0.398 1.938q0 1.109-0.453 2.094t-1.297 1.703q1.266 0.656 2.188 1.789t1.297 2.508q0.188 0.703 0.227 1.305t0.039 1.289v0.313zM10 21q0-0.625-0.234-1.172t-0.641-0.953-0.953-0.641-1.172-0.234-1.172 0.234-0.953 0.641-0.641 0.953-0.234 1.172 0.234 1.172 0.641 0.953 0.953 0.641 1.172 0.234 1.172-0.234 0.953-0.641 0.641-0.953 0.234-1.172zM32 32h-2v-0.672q0-0.594-0.063-1.133t-0.328-1.133q-0.313-0.688-0.781-1.258t-1.063-0.969-1.297-0.617-1.469-0.219-1.469 0.219-1.297 0.617-1.070 0.961-0.773 1.266q-0.266 0.625-0.328 1.148t-0.063 1.117v0.672h-2v-1q0-0.969 0.266-1.891t0.75-1.734 1.18-1.469 1.555-1.109q-0.844-0.734-1.297-1.703t-0.453-2.094q0-1.031 0.391-1.945t1.070-1.594 1.594-1.070 1.945-0.391 1.938 0.398 1.586 1.078 1.078 1.586 0.398 1.938q0 1.125-0.453 2.094t-1.297 1.703q1.266 0.656 2.188 1.789t1.297 2.508q0.188 0.703 0.227 1.305t0.039 1.289v0.313zM28 21q0-0.625-0.234-1.172t-0.641-0.953-0.953-0.641-1.172-0.234-1.172 0.234-0.953 0.641-0.641 0.953-0.234 1.172 0.234 1.172 0.641 0.953 0.953 0.641 1.172 0.234 1.172-0.234 0.953-0.641 0.641-0.953 0.234-1.172zM21.422 6h10.578v2h-10.578l3.281 3.297-1.406 1.406-5.703-5.703 5.703-5.703 1.406 1.406zM7.297 2.703l1.406-1.406 5.703 5.703-5.703 5.703-1.406-1.406 3.281-3.297h-10.578v-2h10.578z"></path>
</svg>
