<!-- Generated by IcoMoon.io -->
<svg version="1.1" xmlns="http://www.w3.org/2000/svg" width="32" height="32" viewBox="0 0 32 32">
<title>uniF69D</title>
<path d="M30 4v8q0 2.359-0.594 4.453t-1.641 3.953-2.477 3.484-3.094 3.055-3.5 2.672-3.695 2.336q-1.859-1.094-3.695-2.336t-3.5-2.672-3.094-3.055-2.477-3.484-1.641-3.953-0.594-4.453v-8q1.297 0 2.516-0.094t2.375-0.344 2.281-0.703 2.25-1.172q1.328-0.859 2.656-1.273t2.922-0.414q0.797 0 1.516 0.102t1.398 0.313 1.336 0.531 1.328 0.742q1.125 0.719 2.25 1.172t2.281 0.703 2.375 0.344 2.516 0.094zM28 12v-6.031q-2.328-0.125-4.461-0.75t-4.102-1.891q-1.063-0.688-2.117-1.008t-2.32-0.32-2.32 0.32-2.117 1.008q-1.969 1.266-4.102 1.891t-4.461 0.75v6.031q0 1.984 0.523 3.813t1.43 3.477 2.156 3.125 2.688 2.781 3.023 2.414 3.18 2.031q1.594-0.922 3.18-2.031t3.023-2.414 2.688-2.781 2.156-3.125 1.43-3.477 0.523-3.813zM15 5q1.031 0 1.938 0.398t1.586 1.078 1.078 1.586 0.398 1.938v2h2v10h-14v-10h2v-2q0-1.031 0.391-1.938t1.070-1.586 1.594-1.078 1.945-0.398zM20 20v-6h-10v6h10zM12 12h6v-2q0-0.625-0.234-1.172t-0.641-0.953-0.953-0.641-1.172-0.234-1.172 0.234-0.953 0.641-0.641 0.953-0.234 1.172v2z"></path>
</svg>
