<!-- Generated by IcoMoon.io -->
<svg version="1.1" xmlns="http://www.w3.org/2000/svg" width="32" height="32" viewBox="0 0 32 32">
<title>uniF362</title>
<path d="M7.078 8q1.719-1.922 4.031-2.961t4.891-1.039q0.5 0 1 0.047t1 0.125v2.031q-0.5-0.094-1-0.148t-1-0.055q-1.625 0-3.133 0.516t-2.805 1.484h-2.984zM25.797 18q0.094-0.5 0.148-1t0.055-1-0.055-1-0.148-1h2.031q0.078 0.5 0.125 1t0.047 1-0.047 1-0.125 1h-2.031zM8.047 22q0.703 0.938 1.594 1.68t1.914 1.258 2.148 0.789 2.297 0.273q0.5 0 1-0.055t1-0.148v2.031q-0.5 0.078-1 0.125t-1 0.047q-1.609 0-3.125-0.414t-2.859-1.195-2.469-1.891-1.922-2.5h2.422zM32 2v10h-12v-10h12zM30 4h-8v6h8v-6zM20 20h12v10h-12v-10zM22 28h8v-6h-8v6zM12 20h-12v-10h12v10zM10 12h-8v6h8v-6z"></path>
</svg>
