<!-- Generated by IcoMoon.io -->
<svg version="1.1" xmlns="http://www.w3.org/2000/svg" width="32" height="32" viewBox="0 0 32 32">
<title>uniF555</title>
<path d="M8 12h16v2h-16v-2zM24 8h-16v-2h16v2zM18 30l1.984 2h-15.984v-32h24v21.063l-1 0.984-1-1v-19.047h-20v28h12zM27 31.953l0.047 0.047h-0.094zM24 18l-2.016 2h-13.984v-2h16zM19.047 24l2 2h-13.047v-2h11.047zM28.422 27l3.531 3.547-1.406 1.406-3.547-3.531-3.547 3.547-1.406-1.422 3.547-3.547-3.547-3.547 1.406-1.406 3.547 3.547 3.547-3.547 1.406 1.422z"></path>
</svg>
