<!-- Generated by IcoMoon.io -->
<svg version="1.1" xmlns="http://www.w3.org/2000/svg" width="32" height="32" viewBox="0 0 32 32">
<title>uniF554</title>
<path d="M12.141 30q0.234 0.547 0.57 1.047t0.742 0.953h-13.453v-32h24v14.234q-0.5-0.141-1-0.266t-1-0.203v-11.766h-20v28h10.141zM20 8h-16v-2h16v2zM4 12h16v2h-16v-2zM19 22q1.031 0 1.938 0.398t1.586 1.078 1.078 1.586 0.398 1.938-0.398 1.945-1.078 1.594-1.586 1.070-1.938 0.391-1.945-0.391-1.594-1.070-1.070-1.594-0.391-1.945 0.391-1.938 1.070-1.586 1.594-1.078 1.945-0.398zM19 30q0.625 0 1.172-0.234t0.953-0.641 0.641-0.953 0.234-1.172-0.234-1.172-0.641-0.953-0.953-0.641-1.172-0.234-1.172 0.234-0.953 0.641-0.641 0.953-0.234 1.172 0.234 1.172 0.641 0.953 0.953 0.641 1.172 0.234zM19 16q1.563 0 3.133 0.336t3.016 0.992 2.695 1.609 2.172 2.172 1.453 2.703 0.531 3.188h-2q0-1.422-0.461-2.641t-1.258-2.219-1.867-1.773-2.289-1.297-2.531-0.797-2.594-0.273-2.594 0.273-2.531 0.797-2.289 1.297-1.867 1.773-1.258 2.219-0.461 2.641h-2q0-1.703 0.531-3.188t1.453-2.703 2.172-2.172 2.695-1.609 3.016-0.992 3.133-0.336z"></path>
</svg>
