<!-- Generated by IcoMoon.io -->
<svg version="1.1" xmlns="http://www.w3.org/2000/svg" width="32" height="32" viewBox="0 0 32 32">
<title>uniE9E9</title>
<path d="M32 4v2h-12v1q0 0.625-0.234 1.172t-0.641 0.953-0.953 0.641-1.172 0.234-1.172-0.234-0.953-0.641-0.641-0.953-0.234-1.172v-1h-14v-2h14v-1q0-0.625 0.234-1.172t0.641-0.953 0.953-0.641 1.172-0.234 1.172 0.234 0.953 0.641 0.641 0.953 0.234 1.172v1h12zM25 20q0.625 0 1.172 0.234t0.953 0.641 0.641 0.953 0.234 1.172v1h4v2h-4v1q0 0.625-0.234 1.172t-0.641 0.953-0.953 0.641-1.172 0.234-1.172-0.234-0.953-0.641-0.641-0.953-0.234-1.172v-1h-22v-2h22v-1q0-0.625 0.234-1.172t0.641-0.953 0.953-0.641 1.172-0.234zM7 10q0.625 0 1.172 0.234t0.953 0.641 0.641 0.953 0.234 1.172v1h22v2h-22v1q0 0.625-0.234 1.172t-0.641 0.953-0.953 0.641-1.172 0.234-1.172-0.234-0.953-0.641-0.641-0.953-0.234-1.172v-1h-4v-2h4v-1q0-0.625 0.234-1.172t0.641-0.953 0.953-0.641 1.172-0.234zM8 13q0-0.406-0.297-0.703t-0.703-0.297-0.703 0.297-0.297 0.703v4q0 0.406 0.297 0.703t0.703 0.297 0.703-0.297 0.297-0.703v-4zM18 3q0-0.406-0.297-0.703t-0.703-0.297-0.703 0.297-0.297 0.703v4q0 0.406 0.297 0.703t0.703 0.297 0.703-0.297 0.297-0.703v-4zM26 23q0-0.406-0.297-0.703t-0.703-0.297-0.703 0.297-0.297 0.703v4q0 0.406 0.297 0.703t0.703 0.297 0.703-0.297 0.297-0.703v-4z"></path>
</svg>
