<!-- Generated by IcoMoon.io -->
<svg version="1.1" xmlns="http://www.w3.org/2000/svg" width="32" height="32" viewBox="0 0 32 32">
<title>uniF869</title>
<path d="M2 10v12h4v2h-6v-22h4v-2h2v2h12v-2h2v2h4v10h-2v-2h-20zM4 4h-2v4h20v-4h-2v2h-2v-2h-12v2h-2v-2zM32 16.938q0 0.313-0.133 0.617t-0.352 0.523q-3.25 3.25-6.438 6.469t-6.453 6.438q-0.5 0.469-1.172 0.469t-1.141-0.469l-6.422-6.406q-0.234-0.219-0.359-0.523t-0.125-0.633q0-0.672 0.484-1.156l2.766-2.766q0.484-0.484 1.156-0.484 0.656 0 1.141 0.484l2.5 2.5 9-8.984q0.469-0.469 1.141-0.469 0.313 0 0.633 0.125t0.539 0.344l2.75 2.766q0.219 0.219 0.352 0.523t0.133 0.633zM13.828 25.656l2.234-2.234-2.25-2.25-2.234 2.25zM29.844 16.922l-2.25-2.25q-3.109 3.125-6.18 6.211t-6.195 6.195q0.563 0.563 1.117 1.125t1.117 1.125q3.125-3.109 6.203-6.195t6.188-6.211z"></path>
</svg>
