<!-- Generated by IcoMoon.io -->
<svg version="1.1" xmlns="http://www.w3.org/2000/svg" width="32" height="32" viewBox="0 0 32 32">
<title>uniF423</title>
<path d="M32 2v14h-2v-6h-28v18h22v2h-24v-28h6v-2h2v2h16v-2h2v2h6zM30 8v-4h-4v2h-2v-2h-16v2h-2v-2h-4v4h28zM26 30h2v2h-2v-2zM27 18q0.828 0 1.555 0.313t1.273 0.859 0.859 1.273 0.313 1.555q0 0.719-0.219 1.266t-0.555 0.984-0.727 0.789-0.727 0.695-0.555 0.703-0.219 0.813v0.75h-2v-0.75q0-0.734 0.219-1.273t0.555-0.977 0.727-0.789 0.727-0.695 0.555-0.703 0.219-0.813q0-0.422-0.156-0.781t-0.43-0.633-0.633-0.43-0.781-0.156-0.781 0.156-0.633 0.43-0.43 0.633-0.156 0.781h-2q0-0.828 0.313-1.555t0.859-1.273 1.273-0.859 1.555-0.313z"></path>
</svg>
