<!-- Generated by IcoMoon.io -->
<svg version="1.1" xmlns="http://www.w3.org/2000/svg" width="32" height="32" viewBox="0 0 32 32">
<title>uniF059</title>
<path d="M32 2v28h-32v-28h6v-2h2v2h16v-2h2v2h6zM2 4v4h28v-4h-4v2h-2v-2h-16v2h-2v-2h-4zM30 28v-18h-28v18h28zM22 14v10h-2v-7.594q-0.422 0.219-0.969 0.406t-1.031 0.188v-2q0.188 0 0.484-0.094t0.609-0.242 0.563-0.32 0.344-0.328v-0.016h2zM16 17q0 0.609-0.18 1.102t-0.477 0.906-0.688 0.789-0.797 0.727-0.805 0.711-0.727 0.766h3.672v2h-6q0-0.266-0.008-0.563t0-0.602 0.055-0.594 0.156-0.555q0.172-0.422 0.523-0.836t0.773-0.82 0.859-0.797 0.805-0.766 0.602-0.742 0.234-0.727q0-0.422-0.297-0.711t-0.703-0.289q-0.359 0-0.633 0.219t-0.352 0.578l-1.953-0.406q0.094-0.516 0.367-0.953t0.68-0.758 0.891-0.5 1-0.18q0.625 0 1.172 0.234t0.953 0.641 0.641 0.953 0.234 1.172z"></path>
</svg>
