<!-- Generated by IcoMoon.io -->
<svg version="1.1" xmlns="http://www.w3.org/2000/svg" width="32" height="32" viewBox="0 0 32 32">
<title>uniF396</title>
<path d="M30 0q0.406 0 0.773 0.156t0.641 0.43 0.43 0.641 0.156 0.773v28q0 0.406-0.156 0.773t-0.43 0.641-0.641 0.43-0.773 0.156h-22q-0.406 0-0.773-0.156t-0.641-0.43-0.43-0.641-0.156-0.773v-4h-4q-0.406 0-0.773-0.156t-0.641-0.43-0.43-0.641-0.156-0.773v-16q0-0.406 0.156-0.773t0.43-0.641 0.641-0.43 0.773-0.156h4v-4q0-0.406 0.156-0.773t0.43-0.641 0.641-0.43 0.773-0.156h22zM7.75 22.5l2.281-4.172 2.234 4.172h3.984l-4.047-6.547 3.953-6.453h-3.813l-2.188 3.984-2.016-3.984h-4.047l3.844 6.469-4.219 6.531h4.031zM18 30v-4h-10v4h10zM18 6v-4h-10v4h10zM30 30v-6h-10v6h10zM30 22v-6h-10v6h10zM30 14v-6h-10v6h10zM30 6v-4h-10v4h10z"></path>
</svg>
