<!-- Generated by IcoMoon.io -->
<svg version="1.1" xmlns="http://www.w3.org/2000/svg" width="32" height="32" viewBox="0 0 32 32">
<title>uniF1E5</title>
<path d="M30.672 2q0.547 0 0.938 0.391t0.391 0.938v25.344q0 0.547-0.391 0.938t-0.938 0.391h-21.344q-0.547 0-0.938-0.391t-0.391-0.938v-4.672h-6.672q-0.547 0-0.938-0.391t-0.391-0.938v-13.344q0-0.547 0.391-0.938t0.938-0.391h6.672v-4.672q0-0.547 0.391-0.938t0.938-0.391h21.344zM8 17.703l1.891 3.547h2.859l-3.172-5.156 3.109-5.063h-2.734l-1.75 3.203q-0.031 0.047-0.055 0.102t-0.055 0.117q-0.422-0.859-0.859-1.711t-0.875-1.711h-2.906l3.031 5.094-3.313 5.125h2.875zM19 28v-4h-9v4h9zM19 22v-5h-3v5h3zM19 15v-5h-3v5h3zM19 8v-4h-9v4h9zM30 28v-4h-9v4h9zM30 22v-5h-9v5h9zM30 15v-5h-9v5h9zM30 8v-4h-9v4h9z"></path>
</svg>
