<!-- Generated by IcoMoon.io -->
<svg version="1.1" xmlns="http://www.w3.org/2000/svg" width="32" height="32" viewBox="0 0 32 32">
<title>uniEF73</title>
<path d="M32 7.422v22.578q0 0.422-0.156 0.781t-0.43 0.633-0.633 0.43-0.781 0.156h-20q-0.422 0-0.781-0.156t-0.633-0.43-0.43-0.633-0.156-0.781v-4h-6.203q-0.375 0-0.695-0.141t-0.57-0.391-0.391-0.57-0.141-0.695v-14.406q0-0.375 0.141-0.695t0.391-0.57 0.57-0.391 0.695-0.141h6.203v-6q0-0.422 0.156-0.781t0.43-0.633 0.633-0.43 0.781-0.156h14.578q0.406 0 0.773 0.148t0.648 0.43l5.422 5.422q0.281 0.281 0.43 0.648t0.148 0.773zM26 3.422v2.578h2.578zM4.078 22.25h2.953q0.031-0.063 0.195-0.359t0.383-0.703 0.461-0.859 0.453-0.836 0.359-0.641l0.148-0.258q0.422 0.922 0.945 1.844t1.008 1.813h2.922l-3.266-5.297 3.203-5.203h-2.797q-0.484 0.891-0.945 1.781t-0.977 1.75q-0.453-0.891-0.891-1.766t-0.891-1.766h-2.984l3.109 5.234zM10 30h20v-22h-4q-0.422 0-0.781-0.156t-0.633-0.43-0.43-0.633-0.156-0.781v-4h-14v6h6.203q0.375 0 0.695 0.141t0.57 0.391 0.391 0.57 0.141 0.695v14.406q0 0.375-0.141 0.695t-0.391 0.57-0.57 0.391-0.695 0.141h-6.203v4zM20 14v-2h8v2h-8zM20 18v-2h8v2h-8zM20 22v-2h8v2h-8z"></path>
</svg>
