<!-- Generated by IcoMoon.io -->
<svg version="1.1" xmlns="http://www.w3.org/2000/svg" width="32" height="32" viewBox="0 0 32 32">
<title>uniED78</title>
<path d="M32 10.5q0 0.391-0.156 0.773t-0.422 0.648l-4.094 4.078 4.094 4.078q0.266 0.266 0.422 0.648t0.156 0.773v6.5q0 0.422-0.156 0.781t-0.43 0.633-0.633 0.43-0.781 0.156h-6.5q-0.391 0-0.773-0.156t-0.648-0.422l-4.078-4.094-4.078 4.094q-0.266 0.266-0.648 0.422t-0.773 0.156h-6.5q-0.422 0-0.781-0.156t-0.633-0.43-0.43-0.633-0.156-0.781v-4h-2.672q-0.547 0-0.938-0.391t-0.391-0.938v-13.344q0-0.547 0.391-0.938t0.938-0.391h2.672v-4q0-0.422 0.156-0.781t0.43-0.633 0.633-0.43 0.781-0.156h6.5q0.391 0 0.773 0.156t0.648 0.422l4.078 4.094 4.078-4.094q0.266-0.266 0.648-0.422t0.773-0.156h6.5q0.422 0 0.781 0.156t0.633 0.43 0.43 0.633 0.156 0.781v6.5zM6 4v4h8.672q0.547 0 0.938 0.391t0.391 0.938v-1.828l-3.5-3.5h-6.5zM4.5 21.25h7v-2.109h-4.547v-2.125h4.063v-2.109h-4.063v-2.031h4.328v-2.125h-6.781v10.5zM30 21.5l-3.5-3.5h-4.922q-0.328 0-0.617 0.125t-0.5 0.336-0.336 0.5-0.125 0.617v4.922l3.5 3.5h6.5v-6.5zM30 10.5v-6.5h-6.5l-5.5 5.5v2.922q0 1.031-0.539 1.898t-1.461 1.32v7.031q0 0.547-0.391 0.938t-0.938 0.391h-8.672v4h6.5l5.5-5.5v-2.922q0-0.75 0.281-1.398t0.766-1.133 1.133-0.766 1.398-0.281h2.922z"></path>
</svg>
