<!-- Generated by IcoMoon.io -->
<svg version="1.1" xmlns="http://www.w3.org/2000/svg" width="32" height="32" viewBox="0 0 32 32">
<title>uniEACC</title>
<path d="M2 10q0.656 0 1.047 0.313t0.68 0.688 0.57 0.688 0.703 0.313q0.75 0 1.328-0.297t1.070-0.742 0.953-0.961 0.992-0.961 1.164-0.742 1.492-0.297q0.563 0 1.094 0.18t0.984 0.492l0.016 0.031q0.266 0.188 0.508 0.383t0.508 0.383q0.188-0.188 0.398-0.328t0.492-0.141q0.422 0 0.711 0.305t0.289 0.711q0 0.313-0.203 0.594 0.5 0.313 1 0.602t1 0.57q0.25-0.266 0.531-0.523t0.672-0.258q0.406 0 0.703 0.297t0.297 0.703q0 0.25-0.102 0.406t-0.227 0.344q0.531 0.266 1.070 0.516t1.086 0.484q0.25-0.25 0.523-0.5t0.648-0.25q0.406 0 0.703 0.297t0.297 0.703q0 0.328-0.188 0.578 0.984 0.406 1.992 0.75t2.008 0.719q0.531 0.203 1.102 0.523t1.031 0.758 0.758 0.984 0.297 1.188v0.5q0 0.875-0.43 1.578t-1.086 1.258-1.445 0.961-1.492 0.672q-2.266 0.859-4.695 1.195t-4.852 0.336h-2q-0.656 0-1.18-0.156t-0.977-0.344-0.891-0.344-0.953-0.156q-0.422 0-0.789 0.102t-0.742 0.289q-0.594 0.297-1.195 0.453t-1.273 0.156h-5q-0.625 0-1.172-0.234t-0.953-0.641-0.641-0.953-0.234-1.172v-11q0-0.422 0.156-0.781t0.43-0.633 0.633-0.43 0.781-0.156zM30 19.5q0-0.25-0.211-0.492t-0.508-0.453-0.617-0.375-0.523-0.242q-1.219-0.469-2.43-0.891t-2.414-0.922l-1.594 1.578q-0.297 0.297-0.703 0.297t-0.703-0.297-0.297-0.703q0-0.234 0.148-0.477t0.352-0.469 0.43-0.43 0.383-0.359q-0.547-0.25-1.078-0.508t-1.063-0.523l-1.469 1.469q-0.297 0.297-0.703 0.297t-0.703-0.297-0.297-0.703 0.297-0.703l1.031-1.047q-0.5-0.281-0.992-0.578t-0.977-0.609l-1.656 1.641q-0.297 0.297-0.703 0.297t-0.703-0.297-0.297-0.703 0.297-0.703l1.391-1.391q-0.375-0.297-0.773-0.602t-0.914-0.305q-0.438 0-0.828 0.188t-0.688 0.5h-0.016q-0.625 0.625-1.195 1.219t-1.188 1.063-1.359 0.75-1.727 0.281q-0.5 0-0.906-0.141t-0.742-0.391-0.633-0.578-0.563-0.703q-0.094-0.125-0.156-0.172v7.984h28v-0.5zM8 24q0.516 0 0.945-0.156t0.883-0.344 0.969-0.344 1.203-0.156 1.273 0.156 1.195 0.453q0.547 0.266 1.055 0.344t1.102 0.078q1.359 0 2.883-0.070t3.047-0.281 2.961-0.609 2.641-1.070h-26.156v1q0 0.406 0.297 0.703t0.703 0.297h5z"></path>
</svg>
