<!-- Generated by IcoMoon.io -->
<svg version="1.1" xmlns="http://www.w3.org/2000/svg" width="32" height="32" viewBox="0 0 32 32">
<title>uniE557</title>
<path d="M28 23q0.828 0 1.555 0.313t1.273 0.859 0.859 1.273 0.313 1.555-0.313 1.555-0.859 1.273-1.273 0.859-1.555 0.313q-0.688 0-1.313-0.219t-1.141-0.617-0.883-0.953-0.539-1.211h-16.25q-0.172 0.656-0.539 1.211t-0.883 0.953-1.148 0.617-1.305 0.219q-0.828 0-1.555-0.313t-1.273-0.859-0.859-1.273-0.313-1.555 0.313-1.555 0.859-1.273 1.273-0.859 1.555-0.313q0.469 0 0.969 0.125l8.297-15.203q-0.609-0.578-0.938-1.328t-0.328-1.594q0-0.828 0.313-1.555t0.859-1.273 1.273-0.859 1.555-0.313 1.555 0.313 1.273 0.859 0.859 1.273 0.313 1.555q0 0.844-0.328 1.594t-0.938 1.328l8.297 15.203q0.5-0.125 0.969-0.125zM15.031 8.875l-8.297 15.203q0.406 0.391 0.703 0.883t0.438 1.039h16.25q0.141-0.547 0.438-1.039t0.703-0.883l-8.297-15.203q-0.5 0.125-0.969 0.125t-0.969-0.125z"></path>
</svg>
