<!-- Generated by IcoMoon.io -->
<svg version="1.1" xmlns="http://www.w3.org/2000/svg" width="32" height="32" viewBox="0 0 32 32">
<title>uniF446</title>
<path d="M4 28h6v2h-8v-28h28v8h-2v-6h-24v24zM29 18q-0.938 0-1.703-0.531t-1.109-1.406l-2.297 0.766q0.109 0.547 0.109 1.172 0 1.031-0.336 2t-0.992 1.766l3.984 4.547q0.656-0.313 1.344-0.313 0.625 0 1.172 0.234t0.953 0.641 0.641 0.953 0.234 1.172-0.234 1.172-0.641 0.953-0.953 0.641-1.172 0.234-1.172-0.234-0.953-0.641-0.641-0.953-0.234-1.172q0-0.453 0.125-0.891t0.391-0.797l-3.922-4.5q-0.781 0.578-1.695 0.883t-1.898 0.305q-0.125 0-0.266-0.008t-0.266-0.008l-0.844 2.5q0.641 0.406 1.008 1.078t0.367 1.438q0 0.625-0.234 1.172t-0.641 0.953-0.953 0.641-1.172 0.234-1.172-0.234-0.953-0.641-0.641-0.953-0.234-1.172q0-0.688 0.258-1.242t0.688-0.945 1.016-0.602 1.242-0.211l0.781-2.344q-0.891-0.313-1.625-0.883t-1.258-1.313-0.813-1.625-0.289-1.836q0-1.234 0.469-2.328t1.289-1.914 1.906-1.289 2.336-0.469q0.859 0 1.672 0.242t1.516 0.688 1.273 1.070 0.945 1.406l2.625-0.875q0.094-0.547 0.359-1.008t0.656-0.805 0.891-0.531 1.063-0.188q0.625 0 1.172 0.234t0.953 0.641 0.641 0.953 0.234 1.172-0.234 1.172-0.641 0.953-0.953 0.641-1.172 0.234zM18 21q0.625 0 1.172-0.234t0.953-0.641 0.641-0.953 0.234-1.172-0.234-1.172-0.641-0.953-0.953-0.641-1.172-0.234-1.172 0.234-0.953 0.641-0.641 0.953-0.234 1.172 0.234 1.172 0.641 0.953 0.953 0.641 1.172 0.234z"></path>
</svg>
