<!-- Generated by IcoMoon.io -->
<svg version="1.1" xmlns="http://www.w3.org/2000/svg" width="32" height="32" viewBox="0 0 32 32">
<title>uniF7EB</title>
<path d="M20.391 14h11.609v16h-32v-16h12.047q1.172-1.422 2.406-2.75t2.531-2.625q0.484-0.484 1.344-1.313t1.914-1.789 2.234-1.938 2.305-1.773 2.109-1.305 1.672-0.508q0.641 0 1.039 0.398t0.398 1.039q0 0.547-0.328 1.289t-0.883 1.609-1.281 1.813-1.531 1.898-1.625 1.859-1.57 1.695-1.375 1.406-1.016 0.992zM13.953 14.844q0.391 0.172 0.711 0.492t0.492 0.711q0.891-0.734 2.008-1.766t2.328-2.219 2.438-2.477 2.313-2.555 1.969-2.461 1.414-2.195q-1 0.531-2.195 1.414t-2.461 1.969-2.555 2.313-2.477 2.438-2.219 2.328-1.766 2.008zM12.375 16.516q-0.375 0-0.891 0.109t-1.086 0.289-1.156 0.422-1.125 0.516-0.969 0.563-0.695 0.57q-0.25 0.266-0.352 0.563t-0.102 0.656q0 0.688 0.336 1.367t0.875 1.219 1.219 0.875 1.367 0.336q0.359 0 0.656-0.102t0.563-0.352q0.281-0.266 0.57-0.695t0.563-0.961 0.516-1.125 0.422-1.164 0.289-1.078 0.109-0.898q0-0.641-0.234-0.875t-0.875-0.234zM30 28v-12h-11.75q-0.703 0.625-1.398 1.227t-1.43 1.195q-0.078 0.703-0.367 1.625t-0.703 1.844-0.914 1.734-1.016 1.328q-0.547 0.547-1.219 0.797t-1.438 0.25q-1.109 0-2.148-0.492t-1.844-1.297-1.289-1.844-0.484-2.148q0-0.844 0.273-1.477t0.742-1.125 1.086-0.875 1.289-0.742h-5.391v12h28zM18 22q0-0.828 0.313-1.555t0.859-1.273 1.273-0.859 1.555-0.313 1.555 0.313 1.273 0.859 0.859 1.273 0.313 1.555-0.313 1.555-0.859 1.273-1.273 0.859-1.555 0.313-1.555-0.313-1.273-0.859-0.859-1.273-0.313-1.555zM22 20q-0.422 0-0.781 0.156t-0.633 0.43-0.43 0.633-0.156 0.781 0.156 0.781 0.43 0.633 0.633 0.43 0.781 0.156 0.781-0.156 0.633-0.43 0.43-0.633 0.156-0.781-0.156-0.781-0.43-0.633-0.633-0.43-0.781-0.156z"></path>
</svg>
