<!-- Generated by IcoMoon.io -->
<svg version="1.1" xmlns="http://www.w3.org/2000/svg" width="32" height="32" viewBox="0 0 32 32">
<title>uniE3AC</title>
<path d="M32 8v8h-2v-8h-11q-0.734 0-1.203 0.094t-0.797 0.25-0.563 0.352-0.469 0.406-0.531 0.406-0.75 0.352q-0.266 0.094-0.594 0.117t-0.594 0.023h-11.5v14h22v2h-22q-0.422 0-0.781-0.156t-0.633-0.43-0.43-0.633-0.156-0.781v-20q0-0.422 0.156-0.781t0.43-0.633 0.633-0.43 0.781-0.156h11.5q0.578 0 1.070 0.211t0.914 0.563 0.766 0.797 0.609 0.914q0.203 0.359 0.398 0.633t0.438 0.477 0.555 0.305 0.75 0.102h11q0.422 0 0.781 0.156t0.633 0.43 0.43 0.633 0.156 0.781zM15.891 6.641q-0.234-0.25-0.492-0.695t-0.547-0.875-0.625-0.75-0.727-0.32h-11.5v4h11.5q0.422 0 0.719-0.148t0.563-0.359 0.523-0.445 0.586-0.406zM22 20.578l5-4.984 5 4.984-1.422 1.422-2.578-2.578v10.578h-2v-10.578l-2.578 2.578z"></path>
</svg>
