<!-- Generated by IcoMoon.io -->
<svg version="1.1" xmlns="http://www.w3.org/2000/svg" width="32" height="32" viewBox="0 0 32 32">
<title>uniF0AC</title>
<path d="M32 8v6h-2v-6h-11q-0.875 0-1.414 0.148t-0.906 0.367-0.633 0.484-0.586 0.484-0.773 0.367-1.188 0.148h-11.5v14h6v2h-6q-0.422 0-0.781-0.156t-0.633-0.43-0.43-0.633-0.156-0.781v-20q0-0.422 0.156-0.781t0.43-0.633 0.633-0.43 0.781-0.156h11.5q0.578 0 1.078 0.211t0.914 0.563 0.758 0.797 0.609 0.914q0.203 0.359 0.398 0.641t0.438 0.477 0.547 0.297 0.758 0.102h11q0.422 0 0.781 0.156t0.633 0.43 0.43 0.633 0.156 0.781zM13.5 8q0.422 0 0.711-0.141t0.547-0.344 0.523-0.445 0.609-0.43q-0.234-0.266-0.492-0.711t-0.555-0.875-0.633-0.742-0.711-0.313h-11.5v4h11.5zM10 32v-16h22v16h-22zM25.422 30h3.156l-3.578-3.594-1.578 1.594zM12 18v8.578l5-4.984 5 4.984 3-2.984 5 4.984v-10.578h-18zM12 29.422v0.578h10.578l-5.578-5.594zM27 22q-0.406 0-0.703-0.297t-0.297-0.703 0.297-0.703 0.703-0.297 0.703 0.297 0.297 0.703-0.297 0.703-0.703 0.297z"></path>
</svg>
