<!-- Generated by IcoMoon.io -->
<svg version="1.1" xmlns="http://www.w3.org/2000/svg" width="32" height="32" viewBox="0 0 32 32">
<title>uniF09C</title>
<path d="M32 8v8h-2v-8h-11q-0.875 0-1.414 0.148t-0.906 0.367-0.633 0.484-0.586 0.484-0.773 0.367-1.188 0.148h-11.5v14h12v2h-12q-0.422 0-0.781-0.156t-0.633-0.43-0.43-0.633-0.156-0.781v-20q0-0.422 0.156-0.781t0.43-0.633 0.633-0.43 0.781-0.156h11.5q0.578 0 1.078 0.211t0.914 0.563 0.758 0.797 0.609 0.914q0.203 0.359 0.398 0.641t0.438 0.477 0.547 0.297 0.758 0.102h11q0.422 0 0.781 0.156t0.633 0.43 0.43 0.633 0.156 0.781zM13.5 8q0.422 0 0.711-0.141t0.547-0.344 0.523-0.445 0.609-0.43q-0.234-0.266-0.492-0.711t-0.555-0.875-0.633-0.742-0.711-0.313h-11.5v4h11.5zM16 32v-14h16v14h-16zM18 28v2h12v-2h-2v-2h2v-2h-2v-2h2v-2h-12v2h2v2h-2v2h2v2h-2zM12 12q0.641 0 1.242 0.188t1.117 0.531 0.914 0.828 0.648 1.078l-1.844 0.766q-0.266-0.641-0.828-1.016t-1.25-0.375v5q0 0.688-0.313 1.242t-0.805 0.945-1.125 0.602-1.258 0.211q-0.641 0-1.266-0.211t-1.125-0.602-0.805-0.945-0.305-1.242 0.305-1.242 0.805-0.945 1.125-0.602 1.266-0.211q0.813 0 1.5 0.297v-4.297h2zM8.5 20q0.203 0 0.461-0.063t0.492-0.188 0.391-0.313 0.156-0.438-0.156-0.438-0.391-0.313-0.492-0.188-0.461-0.063-0.461 0.063-0.492 0.188-0.391 0.313-0.156 0.438 0.156 0.438 0.391 0.313 0.492 0.188 0.461 0.063z"></path>
</svg>
