<!-- Generated by IcoMoon.io -->
<svg version="1.1" xmlns="http://www.w3.org/2000/svg" width="32" height="32" viewBox="0 0 32 32">
<title>uniF0A8</title>
<path d="M31.328 14q0 0.5-0.234 0.938l-5.313 9.984q-0.266 0.5-0.734 0.789t-1.047 0.289h-22q-0.406 0-0.773-0.156t-0.641-0.43-0.43-0.641-0.156-0.773v-20q0-0.422 0.156-0.781t0.43-0.633 0.633-0.43 0.781-0.156h9.5q0.578 0 1.078 0.211t0.914 0.563 0.758 0.797 0.609 0.914q0.203 0.359 0.398 0.641t0.43 0.477 0.547 0.297 0.766 0.102h9q0.422 0 0.781 0.156t0.633 0.43 0.43 0.633 0.156 0.781v4q0.219 0 0.445-0.008t0.445-0.008q0.656 0 1.211 0.164t0.945 0.82q0.281 0.469 0.281 1.031zM2 4v16.766l3.828-7.656q0.266-0.516 0.742-0.813t1.055-0.297h18.375v-4h-9q-0.969 0-1.633-0.297t-1.133-0.742-0.797-0.961-0.617-0.961-0.594-0.742-0.727-0.297h-9.5zM24 24l5.328-10h-21.703l-5 10h21.375z"></path>
</svg>
