<!-- Generated by IcoMoon.io -->
<svg version="1.1" xmlns="http://www.w3.org/2000/svg" width="32" height="32" viewBox="0 0 32 32">
<title>uniF0A7</title>
<path d="M32 8v8h-2v-8h-11q-0.875 0-1.414 0.148t-0.906 0.367-0.633 0.484-0.586 0.484-0.773 0.367-1.188 0.148h-11.5v14h14v2h-14q-0.422 0-0.781-0.156t-0.633-0.43-0.43-0.633-0.156-0.781v-20q0-0.422 0.156-0.781t0.43-0.633 0.633-0.43 0.781-0.156h11.5q0.578 0 1.078 0.211t0.914 0.563 0.758 0.797 0.609 0.914q0.203 0.359 0.398 0.641t0.438 0.477 0.547 0.297 0.758 0.102h11q0.422 0 0.781 0.156t0.633 0.43 0.43 0.633 0.156 0.781zM13.5 8q0.422 0 0.711-0.141t0.547-0.344 0.523-0.445 0.609-0.43q-0.234-0.266-0.492-0.711t-0.555-0.875-0.633-0.742-0.711-0.313h-11.5v4h11.5zM30 20.141v-2.141h2v6h-6v-2h2.969q-0.703-0.938-1.75-1.469t-2.219-0.531q-0.922 0-1.742 0.313t-1.477 0.867-1.094 1.32-0.594 1.672l-1.984-0.344q0.219-1.266 0.844-2.336t1.539-1.844 2.070-1.211 2.438-0.438q1.422 0 2.719 0.555t2.281 1.586zM25 30q0.922 0 1.742-0.313t1.477-0.867 1.094-1.32 0.594-1.672l1.984 0.344q-0.219 1.266-0.844 2.336t-1.539 1.844-2.070 1.211-2.438 0.438q-1.422 0-2.719-0.555t-2.281-1.586v2.141h-2v-6h6v2h-2.969q0.703 0.938 1.75 1.469t2.219 0.531z"></path>
</svg>
