<!-- Generated by IcoMoon.io -->
<svg version="1.1" xmlns="http://www.w3.org/2000/svg" width="32" height="32" viewBox="0 0 32 32">
<title>uniF0A5</title>
<path d="M32 8v16q0 0.422-0.156 0.781t-0.43 0.633-0.633 0.43-0.781 0.156h-28q-0.422 0-0.781-0.156t-0.633-0.43-0.43-0.633-0.156-0.781v-4h2v4h28v-16h-11q-0.875 0-1.414 0.148t-0.906 0.367-0.633 0.484-0.586 0.484-0.773 0.367-1.188 0.148h-11.5v4h-2v-10q0-0.422 0.156-0.781t0.43-0.633 0.633-0.43 0.781-0.156h11.5q0.578 0 1.078 0.211t0.914 0.563 0.758 0.797 0.609 0.914q0.203 0.359 0.398 0.641t0.438 0.477 0.547 0.297 0.758 0.102h11q0.422 0 0.781 0.156t0.633 0.43 0.43 0.633 0.156 0.781zM13.5 8q0.422 0 0.711-0.141t0.547-0.344 0.523-0.445 0.609-0.43q-0.234-0.266-0.492-0.711t-0.555-0.875-0.633-0.742-0.711-0.313h-11.5v4h11.5zM10.297 20.297l2.281-2.297h-12.578v-2h12.578l-2.281-2.297 1.406-1.406 4.703 4.703-4.703 4.703z"></path>
</svg>
