<!-- Generated by IcoMoon.io -->
<svg version="1.1" xmlns="http://www.w3.org/2000/svg" width="32" height="32" viewBox="0 0 32 32">
<title>uniF0A1</title>
<path d="M32 8v4h-2v-4h-11q-0.875 0-1.414 0.148t-0.906 0.367-0.633 0.484-0.586 0.484-0.773 0.367-1.188 0.148h-11.5v14h2v2h-2q-0.422 0-0.781-0.156t-0.633-0.43-0.43-0.633-0.156-0.781v-20q0-0.422 0.156-0.781t0.43-0.633 0.633-0.43 0.781-0.156h11.5q0.578 0 1.078 0.211t0.914 0.563 0.758 0.797 0.609 0.914q0.203 0.359 0.398 0.641t0.438 0.477 0.547 0.297 0.758 0.102h11q0.422 0 0.781 0.156t0.633 0.43 0.43 0.633 0.156 0.781zM13.5 8q0.422 0 0.711-0.141t0.547-0.344 0.523-0.445 0.609-0.43q-0.234-0.266-0.492-0.711t-0.555-0.875-0.633-0.742-0.711-0.313h-11.5v4h11.5zM6 14h26v18h-26v-18zM30 30v-14h-22v14h22zM28 18v2h-6v-2h6zM26 22v2h-4v-2h4zM26 26v2h-4v-2h4zM20 18v10h-10v-10h10zM18 26v-6h-6v6h6z"></path>
</svg>
