<!-- Generated by IcoMoon.io -->
<svg version="1.1" xmlns="http://www.w3.org/2000/svg" width="32" height="32" viewBox="0 0 32 32">
<title>uniF5E6</title>
<path d="M32 8v7.859q-0.859-1.094-2-1.969v-5.891h-11q-0.875 0-1.414 0.148t-0.906 0.367-0.633 0.484-0.586 0.484-0.773 0.367-1.188 0.148h-11.5v14h10v2h-10q-0.422 0-0.781-0.156t-0.633-0.43-0.43-0.633-0.156-0.781v-20q0-0.422 0.156-0.781t0.43-0.633 0.633-0.43 0.781-0.156h11.5q0.578 0 1.078 0.211t0.914 0.563 0.758 0.797 0.609 0.914q0.203 0.359 0.398 0.641t0.438 0.477 0.547 0.297 0.758 0.102h11q0.422 0 0.781 0.156t0.633 0.43 0.43 0.633 0.156 0.781zM13.5 8q0.422 0 0.711-0.141t0.547-0.344 0.523-0.445 0.609-0.43q-0.234-0.266-0.492-0.711t-0.555-0.875-0.633-0.742-0.711-0.313h-11.5v4h11.5zM23 14q1.859 0 3.5 0.711t2.859 1.93 1.93 2.859 0.711 3.5-0.711 3.5-1.93 2.859-2.859 1.93-3.5 0.711-3.492-0.711-2.852-1.93-1.922-2.859-0.703-3.5 0.703-3.5 1.922-2.859 2.852-1.93 3.492-0.711zM29.594 20q-0.578-1.266-1.594-2.234t-2.297-1.5q0.438 0.891 0.695 1.828t0.398 1.906h2.797zM30.25 23q0-0.25-0.016-0.5t-0.063-0.5h-3.188v1.5t-0.016 0.5h3.203q0.047-0.25 0.063-0.5t0.016-0.5zM25 26h-4.047q0.109 0.766 0.305 1.523t0.555 1.461q0.063 0.141 0.195 0.352t0.289 0.414 0.344 0.352 0.375 0.148q0.141 0 0.258-0.094t0.211-0.188q0.313-0.313 0.563-0.805t0.438-1.055 0.313-1.117 0.203-0.992zM20.766 24h4.453q0.016-0.25 0.023-0.5t0.008-0.5-0.008-0.5-0.023-0.5h-4.453q0 0.25-0.008 0.5t-0.008 0.5 0.008 0.5 0.008 0.5zM15.859 24h3.156v-2h-3.156q-0.031 0.25-0.055 0.5t-0.023 0.5 0.023 0.5 0.055 0.5zM20.953 20h4.063q-0.125-0.75-0.32-1.484t-0.539-1.406q-0.047-0.094-0.18-0.32t-0.305-0.461-0.352-0.406-0.32-0.172q-0.172 0-0.352 0.156t-0.344 0.367-0.297 0.43-0.195 0.344q-0.328 0.641-0.531 1.445t-0.328 1.508zM16.438 20h2.75q0.141-0.953 0.383-1.891t0.664-1.813q-1.266 0.531-2.25 1.492t-1.547 2.211zM16.438 26q0.547 1.234 1.531 2.203t2.234 1.484q-0.406-0.859-0.648-1.805t-0.367-1.883h-2.75zM25.719 29.719q1.297-0.516 2.297-1.484t1.578-2.234h-2.813q-0.156 0.938-0.406 1.898t-0.656 1.82z"></path>
</svg>
