<!-- Generated by IcoMoon.io -->
<svg version="1.1" xmlns="http://www.w3.org/2000/svg" width="32" height="32" viewBox="0 0 32 32">
<title>uniF79C</title>
<path d="M14.109 14.438v1.344h-2.109v-13.781h2.109v6.109h0.031q0.547-0.906 1.328-1.383t1.844-0.477q1 0 1.711 0.383t1.164 1.031 0.664 1.477 0.211 1.719q0 0.063-0.008 0.109t-0.008 0.109l-4.828 4.844q-0.688-0.125-1.203-0.508t-0.875-0.977h-0.031zM14.094 11.891q0 0.5 0.164 0.945t0.461 0.773 0.727 0.523 0.945 0.195q0.719 0 1.203-0.313t0.781-0.813 0.414-1.117 0.117-1.227q0-0.547-0.125-1.070t-0.406-0.938-0.719-0.664-1.063-0.25q-0.609 0-1.070 0.227t-0.781 0.609-0.484 0.891-0.164 1.070v1.156zM9.844 15.781h-2.047v-1.453h-0.047q-0.953 1.672-2.828 1.672-0.641 0-1.172-0.18t-0.922-0.523-0.609-0.852-0.219-1.164q0-0.719 0.219-1.258t0.617-0.906 0.961-0.594 1.234-0.32l2.766-0.391q0-0.969-0.453-1.477t-1.438-0.508q-0.844 0-1.594 0.297t-1.406 0.844v-1.844q0.781-0.453 1.648-0.664t1.758-0.211q3.531 0 3.531 3.484v6.047zM7.797 12.016v-0.813l-1.953 0.281q-0.391 0.047-0.727 0.133t-0.578 0.258-0.383 0.453-0.141 0.734q0 0.672 0.477 1.008t1.086 0.336q0.516 0 0.922-0.188t0.695-0.516 0.445-0.766 0.156-0.922zM29.703 9.938q0 0.391-0.156 0.75t-0.422 0.625l-12.359 12.344q-0.344-0.5-0.625-0.867t-0.578-0.672-0.656-0.586-0.875-0.609l12.359-12.359q0.563-0.563 1.375-0.563 0.391 0 0.75 0.156t0.617 0.414 0.414 0.617 0.156 0.75zM14.625 25.547q0 0.516-0.195 0.961t-0.531 0.773-0.789 0.523-0.953 0.195h-3.281q-0.328 0-0.578-0.25 0.656-0.297 1.031-0.898t0.375-1.305q0-0.5 0.188-0.969 0.281-0.672 0.906-1.086t1.359-0.414q0.516 0 0.961 0.195t0.781 0.531 0.531 0.781 0.195 0.961z"></path>
</svg>
