<!-- Generated by IcoMoon.io -->
<svg version="1.1" xmlns="http://www.w3.org/2000/svg" width="32" height="32" viewBox="0 0 32 32">
<title>uniE45C</title>
<path d="M32 8v16q0 0.422-0.156 0.781t-0.43 0.633-0.633 0.43-0.781 0.156h-4v-2h4v-16h-11q-0.875 0-1.414 0.148t-0.906 0.367-0.633 0.484-0.586 0.484-0.773 0.367-1.188 0.148h-11.5v6.953q-1.109 0.703-2 1.672v-14.625q0-0.406 0.156-0.773t0.43-0.641 0.641-0.43 0.773-0.156h11.5q0.578 0 1.078 0.211t0.914 0.563 0.758 0.789 0.609 0.906q0.203 0.359 0.398 0.648t0.43 0.484 0.547 0.297 0.766 0.102h11q0.422 0 0.781 0.156t0.633 0.43 0.43 0.633 0.156 0.781zM13.5 8q0.422 0 0.711-0.141t0.547-0.344 0.523-0.445 0.609-0.43q-0.234-0.266-0.492-0.711t-0.555-0.875-0.633-0.742-0.711-0.313h-11.5v4h11.5zM10 31q0 0.406-0.297 0.703t-0.703 0.297h-2q-1.453 0-2.727-0.547t-2.227-1.5-1.5-2.227-0.547-2.727 0.547-2.727 1.5-2.227 2.227-1.5 2.727-0.547h2q0.406 0 0.703 0.297t0.297 0.703-0.297 0.703-0.703 0.297h-2q-1.031 0-1.945 0.398t-1.594 1.078-1.070 1.586-0.391 1.938 0.391 1.945 1.070 1.594 1.594 1.070 1.945 0.391h2q0.406 0 0.703 0.297t0.297 0.703zM17 18q1.453 0 2.727 0.547t2.227 1.5 1.5 2.227 0.547 2.727-0.547 2.727-1.5 2.227-2.227 1.5-2.727 0.547h-2q-0.406 0-0.703-0.297t-0.297-0.703 0.297-0.703 0.703-0.297h2q1.031 0 1.938-0.391t1.586-1.070 1.078-1.594 0.398-1.945-0.398-1.938-1.078-1.586-1.586-1.078-1.938-0.398h-2q-0.406 0-0.703-0.297t-0.297-0.703 0.297-0.703 0.703-0.297h2zM6 25q0-0.406 0.297-0.703t0.703-0.297h10q0.406 0 0.703 0.297t0.297 0.703-0.297 0.703-0.703 0.297h-10q-0.406 0-0.703-0.297t-0.297-0.703z"></path>
</svg>
