<!-- Generated by IcoMoon.io -->
<svg version="1.1" xmlns="http://www.w3.org/2000/svg" width="32" height="32" viewBox="0 0 32 32">
<title>uniE60E</title>
<path d="M14 6h-2q0-0.828 0.313-1.563t0.852-1.273 1.273-0.852 1.563-0.313h6q0-0.422 0.156-0.781t0.43-0.633 0.633-0.43 0.781-0.156h6q0 0.422-0.156 0.781t-0.43 0.633-0.633 0.43-0.781 0.156h-4q0 0.422-0.156 0.781t-0.43 0.633-0.633 0.43-0.781 0.156h-6q-0.406 0-0.773 0.156t-0.641 0.43-0.43 0.641-0.156 0.773zM14 18v4h-2v-4h2zM8 18v4h-2v-4h2zM26 18v4h-2v-4h2zM16 14h16v18h-32v-18h2v-10h6v10h2v-6h6v6zM12 10v4h2v-4h-2zM4 6v8h2v-8h-2zM18 30v-4h-4v4h4zM30 30v-14h-28v14h10v-6h8v6h10zM20 18v4h-2v-4h2z"></path>
</svg>
