<!-- Generated by IcoMoon.io -->
<svg version="1.1" xmlns="http://www.w3.org/2000/svg" width="32" height="32" viewBox="0 0 32 32">
<title>uniEBDA</title>
<path d="M27.969 26.828q1.531 0.75 2.539 2.117t1.258 3.055h-1.719q-0.172-0.891-0.641-1.656t-1.141-1.32-1.516-0.867-1.75-0.313q-0.922 0-1.758 0.313t-1.508 0.867-1.141 1.32-0.641 1.656h-1.719q0.25-1.688 1.258-3.055t2.539-2.117q-0.891-0.703-1.383-1.703t-0.492-2.125q0-0.703 0.195-1.367t0.563-1.234 0.883-1.031 1.156-0.758q-0.422-0.609-0.969-1.086t-1.188-0.82-1.352-0.523-1.445-0.18q-1.25 0-2.391 0.492t-1.984 1.414q0.375 1.016 0.375 2.094 0 1.438-0.641 2.703t-1.797 2.125q1.016 0.516 1.836 1.273t1.398 1.688 0.891 2 0.313 2.211h-2q0-1.234-0.469-2.328t-1.289-1.914-1.914-1.289-2.328-0.469q-1.25 0-2.336 0.469t-1.906 1.289-1.289 1.914-0.469 2.328h-2q0-1.141 0.313-2.211t0.891-2 1.398-1.688 1.836-1.273q-1.156-0.859-1.797-2.125t-0.641-2.703q0-1.234 0.469-2.328t1.289-1.914 1.906-1.289 2.336-0.469q1.328 0 2.523 0.563t2.055 1.563q0.406-0.391 0.883-0.711t0.977-0.586q-1.156-0.859-1.797-2.125t-0.641-2.703q0-1.234 0.469-2.328t1.289-1.914 1.906-1.289 2.336-0.469q1.234 0 2.328 0.469t1.914 1.289 1.289 1.914 0.469 2.328q0 1.438-0.641 2.703t-1.797 2.125q1.094 0.578 1.977 1.406t1.477 1.922q1 0 1.883 0.383t1.539 1.039 1.031 1.539 0.375 1.883q0 1.125-0.492 2.125t-1.383 1.703zM8 24q0.828 0 1.555-0.313t1.273-0.859 0.859-1.273 0.313-1.555-0.313-1.555-0.859-1.273-1.273-0.859-1.555-0.313-1.555 0.313-1.273 0.859-0.859 1.273-0.313 1.555 0.313 1.555 0.859 1.273 1.273 0.859 1.555 0.313zM14 10q0 0.828 0.313 1.555t0.859 1.273 1.273 0.859 1.555 0.313 1.555-0.313 1.273-0.859 0.859-1.273 0.313-1.555-0.313-1.555-0.859-1.273-1.273-0.859-1.555-0.313-1.555 0.313-1.273 0.859-0.859 1.273-0.313 1.555zM25 19.844q-0.656 0-1.227 0.25t-1 0.68-0.68 1-0.25 1.227 0.25 1.227 0.68 1 1 0.68 1.227 0.25 1.227-0.25 1-0.68 0.68-1 0.25-1.227-0.25-1.227-0.68-1-1-0.68-1.227-0.25z"></path>
</svg>
