<!-- Generated by IcoMoon.io -->
<svg version="1.1" xmlns="http://www.w3.org/2000/svg" width="32" height="32" viewBox="0 0 32 32">
<title>uniECEB</title>
<path d="M26.703 26.063q0.719 0.125 1.32 0.484t1.039 0.883 0.688 1.188 0.25 1.383v2h-24q-1.25 0-2.344-0.469t-1.906-1.281-1.281-1.906-0.469-2.344q0-1.234 0.469-2.328t1.289-1.914 1.906-1.289 2.336-0.469v2q-0.828 0-1.555 0.313t-1.273 0.859-0.859 1.273-0.313 1.555 0.313 1.555 0.859 1.273 1.273 0.859 1.555 0.313q0.391 0 0.766-0.148t0.656-0.43 0.43-0.656 0.148-0.766q0-3.063 1.141-5.891 0.547-1.375 1.336-2.555t1.805-2.242q1.828-1.922 2.773-4.289t0.945-5.023v-2q0-0.828 0.313-1.555t0.859-1.273 1.273-0.859 1.555-0.313h3q0.969 0 1.719 0.328t1.469 0.953q0.406 0.359 0.836 0.539t0.977 0.18q0.422 0 0.781 0.156t0.633 0.43 0.43 0.633 0.156 0.781v2q0 0.625-0.234 1.172t-0.641 0.953-0.953 0.641-1.172 0.234h-1v11q0 1.031 0.172 2.055t0.531 2.008zM28 30q0-0.406-0.156-0.773t-0.43-0.641-0.641-0.43-0.773-0.156h-0.672q-0.313-0.766-0.555-1.484t-0.414-1.445-0.266-1.484-0.094-1.586v-11q0-0.422 0.156-0.781t0.43-0.633 0.633-0.43 0.781-0.156q0.281 0 0.633 0.008t0.656-0.070 0.508-0.289 0.203-0.648v-2q-0.703 0-1.219-0.148t-0.906-0.367-0.711-0.484-0.641-0.484-0.68-0.367-0.844-0.148h-3q-0.406 0-0.773 0.156t-0.641 0.43-0.43 0.641-0.156 0.773v3q0 0.406 0.297 0.703t0.703 0.297q0.438 0 0.648-0.203t0.289-0.508 0.070-0.656-0.008-0.633h2v1q0 0.625-0.234 1.172t-0.641 0.953-0.953 0.641-1.172 0.234q-0.75 0-1.422-0.359-0.5 2.047-1.461 3.789t-2.398 3.258q-1.828 1.922-2.773 4.289t-0.945 5.023q0 1.063-0.531 2h12.531q0-0.422-0.156-0.781t-0.43-0.633-0.633-0.43-0.781-0.156h-2q0-0.828-0.313-1.555t-0.859-1.273-1.273-0.859-1.555-0.313v-2q0.969 0 1.852 0.289t1.617 0.813 1.297 1.258 0.891 1.641h0.344v-8h2v8.531q0.938 0.547 1.469 1.469t0.531 2h4z"></path>
</svg>
