<!-- Generated by IcoMoon.io -->
<svg version="1.1" xmlns="http://www.w3.org/2000/svg" width="32" height="32" viewBox="0 0 32 32">
<title>uniF19A</title>
<path d="M22.313 6.016q0.828-0.063 1.719 0.102t1.742 0.516 1.625 0.875 1.352 1.203 0.914 1.492 0.336 1.734q0 0.984-0.414 1.742t-1.094 1.273-1.539 0.773-1.766 0.258q-0.672 0-1.266-0.109 0.031 0.281 0.055 0.563t0.023 0.563q0 0.797-0.133 1.523t-0.352 1.477h-17.031q-0.188-0.766-0.336-1.484t-0.148-1.516q0-0.25 0.016-0.5t0.047-0.5q-0.844 0-1.578-0.305t-1.289-0.844-0.875-1.273-0.32-1.578q0-0.828 0.313-1.555t0.859-1.273 1.273-0.859 1.555-0.313q1.078 0 1.977 0.523t1.461 1.445q1.328-1.078 2.758-1.523t3.117-0.445q-0.656-0.797-0.984-1.742t-0.328-1.961q0-0.656 0.172-1.219t0.453-1.078 0.633-1 0.711-0.984zM4 12q0 0.422 0.156 0.781t0.43 0.633 0.633 0.43 0.781 0.156q0.313 0 0.594-0.094 0.484-1.328 1.328-2.406-0.172-0.641-0.711-1.070t-1.211-0.43q-0.422 0-0.781 0.156t-0.633 0.43-0.43 0.633-0.156 0.781zM21.922 18q0.047-0.25 0.063-0.5t0.016-0.5q0-0.469-0.078-0.922t-0.203-0.906q-0.656-0.328-1.258-0.781t-1.086-1.016-0.828-1.227-0.453-1.398q-0.719-0.359-1.5-0.555t-1.594-0.195q-1.422 0-2.688 0.563t-2.227 1.523-1.523 2.227-0.563 2.688q0 0.25 0.023 0.5t0.055 0.5h3.75q0.172-0.594 0.172-1.172 0-0.891-0.375-1.695t-1.063-1.383l1.281-1.531q1.031 0.859 1.586 2.039t0.555 2.539q0 0.313-0.023 0.609t-0.086 0.594h8.047zM25.203 13.984q0.469 0 0.969-0.109t0.906-0.359 0.664-0.641 0.258-0.953q0-0.859-0.516-1.578t-1.289-1.242-1.672-0.813-1.664-0.289q-0.313 0-0.609 0.047t-0.609 0.094l-5.344-5.047q-0.141 0.328-0.219 0.586t-0.078 0.617q0 0.594 0.172 1.141t0.484 1.016 0.75 0.836 0.984 0.602q0.5 0.219 1.055 0.281t1.086 0.141q-0.141 0.391-0.313 0.82t-0.172 0.852q0 0.922 0.5 1.656t1.266 1.258 1.672 0.805 1.719 0.281z"></path>
</svg>
