<!-- Generated by IcoMoon.io -->
<svg version="1.1" xmlns="http://www.w3.org/2000/svg" width="32" height="32" viewBox="0 0 32 32">
<title>uniE442</title>
<path d="M26.063 7.969l-10.063 8.125v-8.078l-10 8.078v-16.172l10 8v-8zM8 11.906l4.875-3.922-4.875-3.906v7.828zM18 4.078v7.828l4.875-3.922zM14.203 18v9.25h1.797v1.453h-1.797v3.297h-1.578v-3.297h-6.578v-1.375q0.922-1.031 1.82-2.148t1.734-2.289 1.57-2.398 1.328-2.492h1.703zM12.625 27.25v-6.859q-1.031 1.844-2.242 3.523t-2.539 3.336h4.781zM23.938 22h1.766l-3.359 5.063 3.297 4.938h-1.859q-0.594-1-1.203-1.992t-1.203-2.008h-0.031q-0.125 0.188-0.227 0.383t-0.227 0.383l-2.016 3.234h-1.844l3.406-4.906-3.25-5.094h1.859q0.594 1.047 1.195 2.086t1.164 2.117h0.031z"></path>
</svg>
