<!-- Generated by IcoMoon.io -->
<svg version="1.1" xmlns="http://www.w3.org/2000/svg" width="32" height="32" viewBox="0 0 32 32">
<title>uniE43F</title>
<path d="M26.063 7.969l-10.063 8.125v-8.078l-10 8.078v-16.172l10 8v-8zM8 11.906l4.875-3.922-4.875-3.906v7.828zM18 4.078v7.828l4.875-3.922zM13.406 18h0.594v14h-1.563v-11.828q-0.297 0.266-0.688 0.516t-0.813 0.461-0.852 0.383-0.82 0.266v-1.594q0.469-0.125 1.047-0.359t1.141-0.531 1.078-0.641 0.875-0.672zM23.938 22h1.766l-3.359 5.063 3.297 4.938h-1.859q-0.594-1-1.203-1.992t-1.203-2.008h-0.031q-0.125 0.188-0.227 0.383t-0.227 0.383l-2.016 3.234h-1.844l3.406-4.906-3.25-5.094h1.859q0.594 1.047 1.195 2.086t1.164 2.117h0.031z"></path>
</svg>
