<!-- Generated by IcoMoon.io -->
<svg version="1.1" xmlns="http://www.w3.org/2000/svg" width="32" height="32" viewBox="0 0 32 32">
<title>uniE67E</title>
<path d="M13.719 14h-7.844q1.594 1.219 3.156 2.438t3.172 2.422q-0.625 1.938-1.219 3.852t-1.188 3.852q1.563-1.203 3.102-2.391t3.102-2.391l0.406 0.313q-0.172 0.547-0.289 1.102t-0.148 1.133l-9.969 7.672 3.875-12.406-9.875-7.594h12.25l3.75-12 3.75 12h12.25l-5.344 4.109q-0.422-0.078-0.852-0.125t-0.867-0.047q-0.766 0-1.516 0.141l2.703-2.078h-7.844q-0.563-1.844-1.133-3.648t-1.148-3.648q-0.578 1.844-1.148 3.648t-1.133 3.648zM24.938 17.875q1.469 0 2.75 0.555t2.242 1.516 1.516 2.242 0.555 2.75-0.555 2.75-1.516 2.242-2.242 1.516-2.75 0.555-2.75-0.555-2.242-1.516-1.516-2.242-0.555-2.75 0.555-2.75 1.516-2.242 2.242-1.516 2.75-0.555zM19.875 24.938q0 1.047 0.398 1.969t1.086 1.609 1.609 1.086 1.969 0.398q0.75 0 1.461-0.219t1.336-0.625l-7.016-7.016q-0.406 0.625-0.625 1.336t-0.219 1.461zM29.156 27.734q0.406-0.625 0.625-1.336t0.219-1.461q0-1.047-0.398-1.969t-1.086-1.609-1.609-1.086-1.969-0.398q-0.75 0-1.461 0.219t-1.336 0.625z"></path>
</svg>
