<!-- Generated by IcoMoon.io -->
<svg version="1.1" xmlns="http://www.w3.org/2000/svg" width="32" height="32" viewBox="0 0 32 32">
<title>uniEF5C</title>
<path d="M5 16q0.406 0 0.703 0.297t0.297 0.703-0.297 0.703-0.703 0.297-0.703-0.297-0.297-0.703 0.297-0.703 0.703-0.297zM24 6q1.672 0 3.203 0.766 1.406 0.703 2.328 1.852t1.477 2.523 0.773 2.891 0.219 2.969-0.219 2.969-0.773 2.891-1.477 2.523-2.328 1.852q-1.531 0.766-3.203 0.766h-2v4h-16v-4h-6v-14q0-0.422 0.156-0.781t0.43-0.633 0.633-0.43 0.781-0.156h4v-12h16v6h2zM8 12h12v-10h-12v10zM20 22h-12v8h12v-8zM24 20v-6h-22v12h4v-6h18zM24 26q1.156 0 2.055-0.406t1.563-1.094 1.125-1.594 0.734-1.906 0.398-2.031 0.125-1.969-0.125-1.969-0.398-2.031-0.734-1.906-1.125-1.594-1.563-1.094-2.055-0.406h-1q-0.406 0-0.703 0.297t-0.297 0.703v2q0 0.438 0.203 0.648t0.508 0.289 0.656 0.070 0.633-0.008q0.422 0 0.781 0.156t0.633 0.43 0.43 0.633 0.156 0.781v6q0 0.422-0.156 0.781t-0.43 0.633-0.633 0.43-0.781 0.156q-0.281 0-0.633-0.008t-0.656 0.070-0.508 0.289-0.203 0.648v2q0 0.406 0.297 0.703t0.703 0.297h1z"></path>
</svg>
