<!-- Generated by IcoMoon.io -->
<svg version="1.1" xmlns="http://www.w3.org/2000/svg" width="32" height="32" viewBox="0 0 32 32">
<title>uniF35A</title>
<path d="M32 2v22h-21l-7 7v-7h-4v-22h32zM16 20h-2v2h2v-2zM20.125 10q0-1.063-0.406-1.992t-1.102-1.625-1.625-1.102-1.992-0.406-1.992 0.406-1.625 1.102-1.102 1.625-0.406 1.992q0 0.953 0.297 1.664t0.742 1.273 0.961 1.031 0.961 0.93 0.742 0.961 0.297 1.141v1h2.25v-1q0-0.953-0.297-1.664t-0.742-1.273-0.961-1.031-0.961-0.93-0.742-0.961-0.297-1.141q0-0.594 0.227-1.117t0.617-0.914 0.914-0.617 1.117-0.227 1.117 0.227 0.914 0.617 0.617 0.914 0.227 1.117h2.25z"></path>
</svg>
