<!-- Generated by IcoMoon.io -->
<svg version="1.1" xmlns="http://www.w3.org/2000/svg" width="32" height="32" viewBox="0 0 32 32">
<title>uniF359</title>
<path d="M32 2v22h-21l-7 7v-7h-4v-22h32zM16 20h-2v2h2v-2zM16.125 17.359q0-0.578 0.109-1.094t0.563-0.969q0.609-0.609 1.203-1.164t1.070-1.164 0.766-1.328 0.289-1.641q0-1.063-0.406-1.992t-1.102-1.625-1.625-1.102-1.992-0.406-1.992 0.406-1.625 1.102-1.102 1.625-0.406 1.992h2.25q0-0.594 0.227-1.117t0.617-0.914 0.914-0.617 1.117-0.227 1.117 0.227 0.914 0.617 0.617 0.914 0.227 1.117q0 0.641-0.297 1.141t-0.742 0.961-0.961 0.93-0.961 1.031-0.742 1.273-0.297 1.664v1h2.25v-0.641z"></path>
</svg>
