<!-- Generated by IcoMoon.io -->
<svg version="1.1" xmlns="http://www.w3.org/2000/svg" width="32" height="32" viewBox="0 0 32 32">
<title>uniF443</title>
<path d="M32 4v11.859q-0.438-0.547-0.938-1.047t-1.063-0.922v-7.891h-28v18h9.563q0.047 0.5 0.133 1t0.211 1h-11.906v-22h32zM23 14q1.859 0 3.5 0.711t2.859 1.93 1.93 2.859 0.711 3.5-0.711 3.5-1.93 2.859-2.859 1.93-3.5 0.711-3.5-0.711-2.859-1.93-1.93-2.859-0.711-3.5 0.711-3.5 1.93-2.859 2.859-1.93 3.5-0.711zM23 30q1.453 0 2.727-0.555t2.219-1.5 1.5-2.219 0.555-2.727-0.555-2.727-1.5-2.219-2.219-1.5-2.727-0.555-2.727 0.555-2.219 1.5-1.5 2.219-0.555 2.727 0.555 2.727 1.5 2.219 2.219 1.5 2.727 0.555zM22 18h2v6h-2v-6zM22 26h2v2h-2v-2z"></path>
</svg>
