<!-- Generated by IcoMoon.io -->
<svg version="1.1" xmlns="http://www.w3.org/2000/svg" width="32" height="32" viewBox="0 0 32 32">
<title>uniF442</title>
<path d="M32 4v13.516q-0.313-0.781-0.828-1.438t-1.172-1.156v-8.922h-28v18h16v2h-18v-22h32zM26 16q0.828 0 1.555 0.313t1.273 0.859 0.859 1.273 0.313 1.555v2h2v10h-12v-10h2v-2q0-0.828 0.313-1.555t0.859-1.273 1.273-0.859 1.555-0.313zM24 22h4v-2q0-0.422-0.156-0.781t-0.43-0.633-0.633-0.43-0.781-0.156-0.781 0.156-0.633 0.43-0.43 0.633-0.156 0.781v2zM30 24h-8v6h8v-6z"></path>
</svg>
