<!-- Generated by IcoMoon.io -->
<svg version="1.1" xmlns="http://www.w3.org/2000/svg" width="32" height="32" viewBox="0 0 32 32">
<title>uniF5DA</title>
<path d="M4 2v28h16v2h-18v-32h17.422l8.578 8.578v11.422h-2v-10h-8v-8h-14zM20 3.422v4.578h4.578zM27.313 22h1.75l-3.281 6.375v3.625h-1.656v-3.594l-3.188-6.406h1.891l1.969 4.281q0.063 0.141 0.109 0.297t0.094 0.297h0.016q0.094-0.328 0.234-0.594zM31 26q-0.406 0-0.703-0.297t-0.297-0.703 0.297-0.703 0.703-0.297 0.703 0.297 0.297 0.703-0.297 0.703-0.703 0.297zM31 28q0.406 0 0.703 0.297t0.297 0.703-0.297 0.703-0.703 0.297-0.703-0.297-0.297-0.703 0.297-0.703 0.703-0.297z"></path>
</svg>
