<!-- Generated by IcoMoon.io -->
<svg version="1.1" xmlns="http://www.w3.org/2000/svg" width="32" height="32" viewBox="0 0 32 32">
<title>uniF2E8</title>
<path d="M4 20h-2v-20h17.422l8.578 8.578v11.422h-2v-10h-8v-8h-14v18zM20 8h4.578l-4.578-4.578v4.578zM1.625 30.578q0.531 0 0.852-0.234t0.492-0.609 0.234-0.82 0.063-0.867v-6.047h1.625v6.313q0 0.75-0.18 1.422t-0.57 1.172-0.984 0.797-1.422 0.297q-0.281 0-0.563-0.023t-0.547-0.133v-1.531q0.219 0.141 0.477 0.203t0.523 0.063zM11.328 22l3.656 9.844h-1.797l-0.875-2.516h-3.875l-0.844 2.516h-1.781l3.672-9.844h1.844zM11.875 28l-1.359-3.922q-0.047-0.156-0.086-0.305t-0.070-0.305q-0.047 0.344-0.141 0.609l-1.344 3.922h3zM23.25 22l-3.531 9.844h-1.813l-3.484-9.844h1.797l2.422 7.469q0.078 0.203 0.117 0.406t0.086 0.422q0.031-0.219 0.078-0.422t0.125-0.422l2.484-7.453h1.719zM31.875 31.844h-1.797l-0.875-2.516h-3.875l-0.844 2.516h-1.797l3.688-9.844h1.844zM28.766 28l-1.375-3.922q-0.047-0.141-0.078-0.297t-0.078-0.281q-0.031 0.141-0.055 0.297t-0.070 0.281l-1.359 3.922h3.016z"></path>
</svg>
