<!-- Generated by IcoMoon.io -->
<svg version="1.1" xmlns="http://www.w3.org/2000/svg" width="32" height="32" viewBox="0 0 32 32">
<title>uniF2ED</title>
<path d="M4 30h4v2h-6v-32h17.422l8 8h0.578v12h-2v-10h-8v-8h-14v28zM24.578 8l-4.578-4.578v4.578h4.578zM13.703 23.703l-3.297 3.297 3.297 3.297-1.406 1.406-4.703-4.703 4.703-4.703zM19 24q0.625 0 1.172 0.234t0.953 0.641 0.641 0.953 0.234 1.172-0.234 1.172-0.641 0.953-0.953 0.641-1.172 0.234-1.172-0.234-0.953-0.641-0.641-0.953-0.234-1.172 0.234-1.172 0.641-0.953 0.953-0.641 1.172-0.234zM30.406 27l-4.703 4.703-1.406-1.406 3.297-3.297-3.297-3.297 1.406-1.406z"></path>
</svg>
