<!-- Generated by IcoMoon.io -->
<svg version="1.1" xmlns="http://www.w3.org/2000/svg" width="32" height="32" viewBox="0 0 32 32">
<title>uniF2E9</title>
<path d="M4 30h8v2h-10v-32h17.422l8.578 8.578v1.422h-10v-8h-14v28zM20 8h4.578l-4.578-4.578v4.578zM22 12q2.078 0 3.898 0.781t3.18 2.141 2.141 3.18 0.781 3.898-0.781 3.898-2.141 3.18-3.18 2.141-3.898 0.781-3.898-0.781-3.18-2.141-2.141-3.18-0.781-3.898 0.781-3.898 2.141-3.18 3.18-2.141 3.898-0.781zM22 30q0.328 0 0.578-0.227t0.445-0.594 0.328-0.82 0.227-0.898 0.148-0.828 0.086-0.633h-3.594q0.031 0.219 0.086 0.609t0.156 0.836 0.242 0.898 0.328 0.82 0.43 0.602 0.539 0.234zM23.969 24q0.016-0.5 0.023-1t0.008-1q0-0.984-0.047-2h-3.906q-0.047 1.016-0.047 2 0 1 0.047 2h3.922zM14 22q0 0.5 0.063 1t0.188 1h3.797q-0.047-1-0.047-2 0-0.984 0.047-2h-3.797q-0.125 0.5-0.188 1t-0.063 1zM22 14q-0.297 0-0.531 0.234t-0.422 0.609-0.328 0.828-0.234 0.898-0.156 0.828-0.094 0.602h3.516q-0.031-0.203-0.094-0.586t-0.172-0.828-0.25-0.906-0.32-0.836-0.414-0.609-0.5-0.234zM25.953 20q0.047 1.016 0.047 2 0 0.5-0.008 1t-0.023 1h3.781q0.125-0.5 0.188-1t0.063-1-0.063-1-0.188-1h-3.797zM28.922 18q-0.672-1.172-1.688-2.047t-2.266-1.375q0.328 0.813 0.508 1.68t0.289 1.742h3.156zM18.969 14.594q-1.219 0.5-2.227 1.375t-1.664 2.031h3.125q0.203-1.734 0.766-3.406zM15.078 26q0.656 1.141 1.656 2.016t2.219 1.375q-0.328-0.797-0.492-1.664t-0.258-1.727h-3.125zM25.109 29.359q1.203-0.5 2.18-1.367t1.633-1.992h-3.094q-0.078 0.797-0.242 1.711t-0.477 1.648z"></path>
</svg>
