<!-- Generated by IcoMoon.io -->
<svg version="1.1" xmlns="http://www.w3.org/2000/svg" width="32" height="32" viewBox="0 0 32 32">
<title>uniF311</title>
<path d="M4 30h24v2h-26v-32h17.422l8.578 8.578v1.422h-10v-8h-14v28zM20 8h4.578l-4.578-4.578v4.578zM32 12v16h-22v-16h22zM12 14v6.578l5-4.984 6.5 6.5 2.5-2.5 4 4v-9.594h-18zM27.422 26h2.172l-3.594-3.594-1.078 1.094zM12 26h12.578l-7.578-7.594-5 5.016v2.578zM27 18q-0.406 0-0.703-0.297t-0.297-0.703 0.297-0.703 0.703-0.297 0.703 0.297 0.297 0.703-0.297 0.703-0.703 0.297z"></path>
</svg>
