<!-- Generated by IcoMoon.io -->
<svg version="1.1" xmlns="http://www.w3.org/2000/svg" width="32" height="32" viewBox="0 0 32 32">
<title>uniF2E6</title>
<path d="M19.422 0l8.578 8.578v3.422h-2v-2h-8v-8h-14v28h12v2h-14v-32h17.422zM20 8h4.578l-4.578-4.578v4.578zM30 30h2v2h-2v-2zM26 30h2v2h-2v-2zM22 30h2v2h-2v-2zM26 14h2v2h-2v-2zM22 14h2v2h-2v-2zM18 30h2v2h-2v-2zM30 26h2v2h-2v-2zM18 26h2v2h-2v-2zM30 22h2v2h-2v-2zM18 22h2v2h-2v-2zM30 18h2v2h-2v-2zM18 18h2v2h-2v-2zM32 14v2h-2v-2h2zM18 14h2v2h-2v-2z"></path>
</svg>
