<!-- Generated by IcoMoon.io -->
<svg version="1.1" xmlns="http://www.w3.org/2000/svg" width="32" height="32" viewBox="0 0 32 32">
<title>uniF2E7</title>
<path d="M4 30h2v2h-4v-32h17.422l8.578 8.578v11.422h-2v-10h-8v-8h-14v28zM20 8h4.578l-4.578-4.578v4.578zM10.547 24.344q0 0.406 0.305 0.695t0.75 0.539 0.977 0.5 0.977 0.586 0.75 0.797 0.305 1.117q0 0.703-0.289 1.164t-0.758 0.734-1.055 0.383-1.164 0.109q-0.234 0-0.547-0.031t-0.633-0.086-0.617-0.148-0.5-0.219v-1.484q0.188 0.188 0.469 0.336t0.586 0.242 0.617 0.148 0.578 0.055q0.297 0 0.609-0.039t0.578-0.172 0.438-0.359 0.172-0.602q0-0.422-0.305-0.711t-0.75-0.531-0.977-0.484-0.977-0.57-0.75-0.789-0.305-1.133q0-0.641 0.297-1.094t0.766-0.742 1.039-0.422 1.117-0.133q0.469 0 1.016 0.055t0.969 0.258v1.422q-0.406-0.297-0.906-0.414t-1-0.117q-0.266 0-0.578 0.055t-0.578 0.18-0.445 0.344-0.18 0.563zM23.984 26.375q0 0.547-0.086 1.078t-0.289 1.023-0.516 0.93-0.75 0.781l2.516 1.813h-2.188l-1.563-1.203q-0.344 0.078-0.664 0.125t-0.664 0.047q-0.969 0-1.742-0.328t-1.305-0.914-0.813-1.391-0.281-1.742q0-0.984 0.281-1.828t0.828-1.461 1.344-0.961 1.828-0.344q0.953 0 1.711 0.344t1.281 0.93 0.797 1.391 0.273 1.711zM19.781 29.719q0.719 0 1.227-0.258t0.836-0.695 0.477-1.023 0.148-1.227q0-0.625-0.141-1.219t-0.453-1.039-0.813-0.719-1.219-0.273q-0.688 0-1.188 0.273t-0.836 0.727-0.5 1.039-0.164 1.195 0.156 1.188 0.477 1.031 0.813 0.727 1.18 0.273zM30.391 29.609v1.219h-4.813v-8.688h1.438v7.469h3.375z"></path>
</svg>
