<!-- Generated by IcoMoon.io -->
<svg version="1.1" xmlns="http://www.w3.org/2000/svg" width="32" height="32" viewBox="0 0 32 32">
<title>uniF2EC</title>
<path d="M4 30h2v2h-4v-32h17.422l8.578 8.578v13.422h-2v-12h-8v-8h-14v28zM20 8h4.578l-4.578-4.578v4.578zM8 6h-2v-2h2v2zM6 8h2v2h-2v-2zM8 14h-2v-2h2v2zM8 22h1.516v9.844h-1.516v-9.844zM14.719 24q0.875 0 1.492 0.297t1.016 0.813 0.586 1.211 0.188 1.492v0.656h-5.203q0.031 1.109 0.672 1.656t1.703 0.547q1.203 0 2.234-0.719v1.391q-0.609 0.391-1.328 0.523t-1.422 0.133q-0.922 0-1.602-0.297t-1.125-0.82-0.664-1.25-0.219-1.602q0-0.813 0.25-1.539t0.727-1.281 1.156-0.883 1.539-0.328zM16.328 27.25q0-0.391-0.086-0.75t-0.281-0.625-0.508-0.43-0.75-0.164q-0.422 0-0.75 0.164t-0.57 0.438-0.391 0.633-0.195 0.734h3.531zM20.906 26.188q0 0.359 0.273 0.586t0.688 0.398 0.891 0.344 0.891 0.445 0.688 0.688 0.273 1.055-0.313 1.086-0.789 0.711-1.055 0.383-1.109 0.117q-0.563 0-1.109-0.094t-1.063-0.328v-1.594q0.469 0.359 1.008 0.547t1.133 0.188q0.234 0 0.508-0.031t0.516-0.125 0.398-0.273 0.156-0.492q0-0.375-0.273-0.602t-0.688-0.398-0.891-0.336-0.891-0.43-0.688-0.68-0.273-1.086q0-0.609 0.289-1.039t0.75-0.703 1.008-0.398 1.063-0.125q0.484 0 0.969 0.070t0.938 0.242v1.531q-0.828-0.563-1.844-0.563-0.203 0-0.453 0.039t-0.477 0.148-0.375 0.281-0.148 0.438zM27.5 26.188q0 0.375 0.273 0.594t0.68 0.391 0.891 0.344 0.891 0.445 0.68 0.68 0.273 1.063-0.305 1.094-0.781 0.703-1.055 0.383-1.109 0.117q-0.547 0-1.109-0.094t-1.063-0.328v-1.594q0.469 0.359 1.008 0.547t1.133 0.188q0.234 0 0.508-0.031t0.516-0.125 0.398-0.273 0.156-0.492q0-0.375-0.273-0.602t-0.688-0.398-0.891-0.336-0.891-0.43-0.688-0.68-0.273-1.086q0-0.609 0.289-1.039t0.75-0.703 1.008-0.398 1.063-0.125q0.484 0 0.969 0.070t0.938 0.242v1.531q-0.828-0.563-1.859-0.563-0.203 0-0.453 0.039t-0.469 0.148-0.367 0.281-0.148 0.438z"></path>
</svg>
