<!-- Generated by IcoMoon.io -->
<svg version="1.1" xmlns="http://www.w3.org/2000/svg" width="32" height="32" viewBox="0 0 32 32">
<title>uniF2EB</title>
<path d="M4 32h-2v-32h17.422l8.578 8.578v13.422h-2v-12h-8v-8h-14v30zM20 8h4.578l-4.578-4.578v4.578zM8 6h-2v-2h2v2zM8 10h-2v-2h2v2zM6 12h2v2h-2v-2zM7.594 24.609q0 0.328 0.125 0.563t0.391 0.438q0.328 0.266 0.734 0.43t0.766 0.352q0.453 0.234 0.898 0.508t0.797 0.625 0.57 0.797 0.219 1.008q0 0.781-0.32 1.289t-0.836 0.82-1.164 0.438-1.305 0.125q-0.25 0-0.602-0.031t-0.727-0.102-0.703-0.172-0.531-0.242v-1.656q0.203 0.203 0.516 0.359t0.664 0.273 0.695 0.18 0.625 0.063q0.328 0 0.688-0.047t0.648-0.188 0.484-0.398 0.195-0.68q0-0.469-0.336-0.789t-0.836-0.594-1.086-0.539-1.086-0.633-0.836-0.883-0.336-1.266q0-0.719 0.328-1.227t0.844-0.82 1.148-0.461 1.242-0.148q0.5 0 1.133 0.055t1.086 0.289v1.578q-0.469-0.328-1.016-0.453t-1.109-0.125q-0.297 0-0.641 0.055t-0.641 0.195-0.492 0.391-0.195 0.625zM16.313 24.5q1.344 0 2.031 0.656t0.688 2.016v4.656h-1.594v-1.109q-0.734 1.281-2.188 1.281-0.984 0-1.617-0.531t-0.633-1.563q0-0.563 0.172-0.977t0.477-0.695 0.742-0.445 0.953-0.242l2.125-0.313q0-0.734-0.352-1.133t-1.102-0.398q-0.656 0-1.234 0.234t-1.078 0.656v-1.422q0.594-0.359 1.258-0.516t1.352-0.156zM17.469 28.313l-1.516 0.203q-0.594 0.078-1 0.313t-0.406 0.906q0 0.531 0.359 0.781t0.844 0.25q0.391 0 0.703-0.148t0.539-0.391 0.352-0.578 0.125-0.711v-0.625zM22.625 26.563q0 0.344 0.258 0.547t0.641 0.367 0.836 0.328 0.836 0.414 0.641 0.641 0.258 1q0 0.594-0.297 1.008t-0.742 0.664-0.992 0.359-1.031 0.109q-0.516 0-1.031-0.086t-1-0.305v-1.5q0.453 0.328 0.961 0.508t1.055 0.18q0.219 0 0.477-0.031t0.477-0.125 0.367-0.266 0.148-0.453q0-0.344-0.258-0.555t-0.648-0.367-0.836-0.32-0.836-0.414-0.648-0.641-0.258-1q0-0.563 0.273-0.969t0.703-0.664 0.945-0.375 1-0.117q0.953 0 1.781 0.297v1.422q-0.781-0.516-1.734-0.516-0.203 0-0.438 0.039t-0.438 0.141-0.336 0.266-0.133 0.414zM28.531 26.563q0 0.344 0.258 0.547t0.641 0.367 0.836 0.328 0.836 0.414 0.641 0.641 0.258 1-0.289 1.016-0.734 0.656-0.984 0.359-1.039 0.109q-0.516 0-1.039-0.086t-0.992-0.305v-1.5q0.438 0.328 0.945 0.508t1.055 0.18q0.219 0 0.477-0.031t0.477-0.125 0.367-0.266 0.148-0.453q0-0.344-0.258-0.555t-0.641-0.367-0.836-0.32-0.836-0.414-0.641-0.633-0.258-1.008q0-0.563 0.273-0.969t0.703-0.664 0.945-0.375 1-0.117q0.938 0 1.781 0.297v1.422q-0.781-0.516-1.734-0.516-0.188 0-0.43 0.039t-0.445 0.141-0.344 0.266-0.141 0.414z"></path>
</svg>
