<!-- Generated by IcoMoon.io -->
<svg version="1.1" xmlns="http://www.w3.org/2000/svg" width="32" height="32" viewBox="0 0 32 32">
<title>uniE795</title>
<path d="M25 0q0.625 0 1.172 0.234t0.953 0.641 0.641 0.953 0.234 1.172v1h-0.531q-0.266 0-0.523 0.031t-0.469 0.133-0.344 0.297-0.133 0.539v13q0 0.422-0.156 0.781t-0.43 0.633-0.633 0.43-0.781 0.156h-4v8q0 0.828-0.313 1.555t-0.859 1.273-1.273 0.859-1.555 0.313-1.555-0.313-1.273-0.859-0.859-1.273-0.313-1.555v-8h-4q-0.422 0-0.781-0.156t-0.633-0.43-0.43-0.633-0.156-0.781v-14q0-0.828 0.313-1.555t0.859-1.273 1.273-0.859 1.555-0.313h15zM24 18v-2h-16v2h6v10q0 0.422 0.156 0.781t0.43 0.633 0.633 0.43 0.781 0.156 0.781-0.156 0.633-0.43 0.43-0.633 0.156-0.781v-10h6zM24 5q0-0.859 0.461-1.594t1.242-1.109q-0.125-0.156-0.313-0.227t-0.391-0.070h-15q-0.422 0-0.781 0.156t-0.633 0.43-0.43 0.633-0.156 0.781v10h16v-9z"></path>
</svg>
