<!-- Generated by IcoMoon.io -->
<svg version="1.1" xmlns="http://www.w3.org/2000/svg" width="32" height="32" viewBox="0 0 32 32">
<title>uniF1F3</title>
<path d="M28.453 20.547q0 1.594-0.406 3.055t-1.148 2.734-1.789 2.32-2.32 1.789-2.734 1.148-3.055 0.406-3.055-0.406-2.734-1.148-2.32-1.789-1.789-2.32-1.148-2.734-0.406-3.055q0-1.547 0.398-3.055t1.227-2.82q0.328 0.656 0.703 1.297t0.867 1.148 1.117 0.82 1.453 0.313q0.719 0 1.344-0.273t1.094-0.742 0.742-1.094 0.273-1.344q0-0.609-0.188-1.094t-0.531-0.984q-0.406-0.578-0.711-1.125t-0.508-1.117-0.305-1.18-0.102-1.344q0-1.484 0.523-2.844t1.445-2.43 2.188-1.781 2.75-0.898q0.234 3.344 1.563 6.133t3.656 5.164q1.906 1.953 2.906 4.234t1 5.016z"></path>
</svg>
