<!-- Generated by IcoMoon.io -->
<svg version="1.1" xmlns="http://www.w3.org/2000/svg" width="32" height="32" viewBox="0 0 32 32">
<title>uniF54E</title>
<path d="M25 9q0 0.625-0.234 1.172t-0.641 0.953-0.953 0.641-1.172 0.234h-1.813q0.203 0.359 0.43 0.711t0.414 0.719 0.313 0.758 0.125 0.813q0 0.609-0.234 1.156t-0.641 0.961-0.953 0.648-1.172 0.234q-0.75 0-1.398-0.344t-1.070-0.953v6.641q0.641-0.797 1.43-1.422t1.688-1.047 1.883-0.648 2-0.227h1v1q0 1.719-0.609 3.258t-1.688 2.742-2.539 1.977-3.164 0.977v2.047h-2v-2.047q-1.703-0.203-3.164-0.977t-2.539-1.977-1.688-2.742-0.609-3.258v-1h1q1.016 0 2 0.227t1.883 0.648 1.688 1.047 1.43 1.422v-6.641q-0.422 0.609-1.070 0.953t-1.398 0.344q-0.625 0-1.172-0.234t-0.953-0.648-0.641-0.961-0.234-1.156q0-0.422 0.125-0.813t0.313-0.758 0.414-0.719 0.43-0.711h-1.813q-0.625 0-1.172-0.234t-0.953-0.641-0.641-0.953-0.234-1.172 0.234-1.172 0.641-0.953 0.953-0.641 1.172-0.234h1.813q-0.203-0.344-0.43-0.703t-0.414-0.727-0.313-0.758-0.125-0.813q0-0.609 0.234-1.156t0.641-0.961 0.953-0.648 1.172-0.234q0.672 0 1.164 0.211t0.852 0.57 0.648 0.828 0.57 0.984l0.234 0.406 0.234-0.406q0.281-0.516 0.57-0.984t0.648-0.828 0.844-0.57 1.172-0.211q0.625 0 1.172 0.234t0.953 0.648 0.641 0.961 0.234 1.156q0 0.422-0.125 0.813t-0.313 0.758-0.414 0.727-0.43 0.703h1.813q0.625 0 1.172 0.234t0.953 0.641 0.641 0.953 0.234 1.172zM18.453 2q-0.266 0-0.5 0.141t-0.359 0.359l-1.516 2.641q0.984 0.281 1.719 1l1.531-2.641q0.141-0.234 0.141-0.5 0-0.406-0.297-0.703t-0.719-0.297zM15 11q0.422 0 0.781-0.156t0.633-0.43 0.43-0.633 0.156-0.781-0.156-0.781-0.43-0.633-0.633-0.43-0.781-0.156-0.781 0.156-0.633 0.43-0.43 0.633-0.156 0.781 0.156 0.781 0.43 0.633 0.633 0.43 0.781 0.156zM11.547 2q-0.422 0-0.719 0.297t-0.297 0.703q0 0.266 0.141 0.5l1.531 2.641q0.734-0.719 1.719-1l-1.516-2.641q-0.125-0.219-0.359-0.359t-0.5-0.141zM11.125 10q-0.063-0.25-0.094-0.492t-0.031-0.508 0.031-0.508 0.094-0.492h-3.125q-0.406 0-0.703 0.297t-0.297 0.703 0.297 0.703 0.703 0.297h3.125zM11.547 16q0.266 0 0.5-0.133t0.359-0.367l1.516-2.641q-0.984-0.281-1.719-1l-1.531 2.641q-0.141 0.234-0.141 0.5 0 0.406 0.297 0.703t0.719 0.297zM8.078 22.078q0.172 1.125 0.688 2.109t1.289 1.758 1.758 1.289 2.109 0.688q-0.172-1.125-0.688-2.109t-1.289-1.758-1.758-1.289-2.109-0.688zM21.906 22.078q-1.125 0.172-2.109 0.688t-1.75 1.289-1.281 1.758-0.688 2.109q1.125-0.172 2.109-0.688t1.758-1.289 1.281-1.758 0.68-2.109zM18.453 16q0.422 0 0.719-0.297t0.297-0.703q0-0.266-0.141-0.5l-1.531-2.641q-0.734 0.719-1.719 1l1.516 2.641q0.125 0.234 0.359 0.367t0.5 0.133zM22 10q0.406 0 0.703-0.297t0.297-0.703-0.297-0.703-0.703-0.297h-3.125q0.063 0.25 0.094 0.492t0.031 0.508-0.031 0.508-0.094 0.492h3.125z"></path>
</svg>
