<!-- Generated by IcoMoon.io -->
<svg version="1.1" xmlns="http://www.w3.org/2000/svg" width="32" height="32" viewBox="0 0 32 32">
<title>uniE49C</title>
<path d="M14 0v2h-2v-2h2zM2 8v2h-2v-2h2zM2 0v2h-2v-2h2zM2 4v2h-2v-2h2zM18 0v2h-2v-2h2zM24 4h-2v-2h2v2zM22 0v2h-2v-2h2zM24 10v2h-2v-2h2zM24 6v2h-2v-2h2zM22 16v-2h2v2h-2zM2 32v-2h2v2h-2zM6 32v-2h2v2h-2zM10 0v2h-2v-2h2zM6 0v2h-2v-2h2zM24 18h6v6h-6v-2h-1.719l-3.203 8h-3.078v2h-6v-6h6v2h1.719l3.203-8h3.078v-2zM14 30v-2h-2v2h2zM28 22v-2h-2v2h2zM2 20v2h-2v-2h2zM0 28h2v2h-2v-2zM2 16v2h-2v-2h2zM2 12v2h-2v-2h2zM2 24v2h-2v-2h2z"></path>
</svg>
