<!-- Generated by IcoMoon.io -->
<svg version="1.1" xmlns="http://www.w3.org/2000/svg" width="32" height="32" viewBox="0 0 32 32">
<title>uniE48A</title>
<path d="M12 26v2h-4q-0.828 0-1.555-0.313t-1.273-0.859-0.859-1.273-0.313-1.555v-12h2v12q0 0.422 0.156 0.781t0.43 0.633 0.633 0.43 0.781 0.156h4zM12 6v-2h12q0.828 0 1.555 0.313t1.273 0.859 0.859 1.273 0.313 1.555v4h-2v-4q0-0.422-0.156-0.781t-0.43-0.633-0.633-0.43-0.781-0.156h-12zM10 7q0 0.625-0.234 1.172t-0.641 0.953-0.953 0.641-1.172 0.234h-4q-0.625 0-1.172-0.234t-0.953-0.641-0.641-0.953-0.234-1.172v-4q0-0.625 0.234-1.172t0.641-0.953 0.953-0.641 1.172-0.234h4q0.625 0 1.172 0.234t0.953 0.641 0.641 0.953 0.234 1.172v4zM2 7q0 0.406 0.297 0.703t0.703 0.297h4q0.406 0 0.703-0.297t0.297-0.703v-4q0-0.406-0.297-0.703t-0.703-0.297h-4q-0.406 0-0.703 0.297t-0.297 0.703v4zM28 14q0.828 0 1.555 0.313t1.273 0.859 0.859 1.273 0.313 1.555v10q0 0.828-0.313 1.555t-0.859 1.273-1.273 0.859-1.555 0.313h-10q-0.828 0-1.555-0.313t-1.273-0.859-0.859-1.273-0.313-1.555v-10q0-0.828 0.313-1.555t0.859-1.273 1.273-0.859 1.555-0.313h10zM30 28v-10q0-0.422-0.156-0.781t-0.43-0.633-0.633-0.43-0.781-0.156h-10q-0.422 0-0.781 0.156t-0.633 0.43-0.43 0.633-0.156 0.781v10q0 0.422 0.156 0.781t0.43 0.633 0.633 0.43 0.781 0.156h10q0.422 0 0.781-0.156t0.633-0.43 0.43-0.633 0.156-0.781z"></path>
</svg>
