<!-- Generated by IcoMoon.io -->
<svg version="1.1" xmlns="http://www.w3.org/2000/svg" width="32" height="32" viewBox="0 0 32 32">
<title>uniF277</title>
<path d="M21 12q-0.406 0-0.703-0.297t-0.297-0.703 0.297-0.703 0.703-0.297 0.703 0.297 0.297 0.703-0.297 0.703-0.703 0.297zM30.297 29.703l-4.109-4.094q-0.672 0.656-1.359 1.234t-1.484 1.078l2.359 2.375-1.406 1.406-2.844-2.797q-2.609 1.094-5.453 1.094-1.641 0-3.211-0.367t-2.992-1.070-2.664-1.727-2.242-2.32l-3.188 3.188-1.406-1.406 3.469-3.484q-0.891-1.547-1.328-3.289t-0.438-3.523q0-1.938 0.5-3.727t1.414-3.344 2.188-2.828 2.828-2.188 3.344-1.414 3.727-0.5 3.727 0.5 3.344 1.414 2.828 2.188 2.188 2.828 1.414 3.344 0.5 3.727q0 2.172-0.641 4.227t-1.906 3.82l4.25 4.25zM4 16q0 1.391 0.32 2.734t0.93 2.594l5.75-5.734 6 6 4-4 5.016 5.016q0.969-1.484 1.477-3.164t0.508-3.445q0-1.656-0.43-3.188t-1.211-2.867-1.875-2.43-2.43-1.875-2.867-1.211-3.188-0.43-3.188 0.43-2.867 1.211-2.43 1.875-1.875 2.43-1.211 2.867-0.43 3.188zM16 28q2.016 0 3.922-0.656l-8.922-8.938-4.672 4.688q0.844 1.156 1.922 2.063t2.32 1.539 2.617 0.969 2.813 0.336zM21.875 26.453q0.813-0.453 1.531-1.023t1.359-1.242l-3.766-3.781-2.594 2.594z"></path>
</svg>
