<!-- Generated by IcoMoon.io -->
<svg version="1.1" xmlns="http://www.w3.org/2000/svg" width="32" height="32" viewBox="0 0 32 32">
<title>uniEA6F</title>
<path d="M16 1.875q1.953 0 3.758 0.508t3.375 1.422 2.859 2.203 2.203 2.859 1.422 3.375 0.508 3.758-0.508 3.758-1.422 3.375-2.203 2.859-2.859 2.203-3.375 1.422-3.758 0.508-3.758-0.508-3.375-1.422-2.859-2.203-2.203-2.859-1.422-3.375-0.508-3.758 0.508-3.758 1.422-3.375 2.203-2.859 2.859-2.203 3.375-1.422 3.758-0.508zM16 28.125q1.672 0 3.219-0.438t2.898-1.227 2.453-1.891 1.891-2.453 1.227-2.898 0.438-3.219-0.438-3.219-1.227-2.898-1.891-2.453-2.453-1.891-2.898-1.227-3.219-0.438-3.219 0.438-2.898 1.227-2.453 1.891-1.891 2.453-1.227 2.898-0.438 3.219 0.438 3.219 1.227 2.898 1.891 2.453 2.453 1.891 2.898 1.227 3.219 0.438zM20.375 10q0.328 0 0.625 0.125t0.523 0.352 0.352 0.523 0.125 0.625v8.75q0 0.328-0.125 0.625t-0.352 0.523-0.523 0.352-0.625 0.125h-8.75q-0.328 0-0.625-0.125t-0.523-0.352-0.352-0.523-0.125-0.625v-8.75q0-0.328 0.125-0.625t0.352-0.523 0.523-0.352 0.625-0.125h8.75zM20 12h-8v8h8v-8z"></path>
</svg>
