<!-- Generated by IcoMoon.io -->
<svg version="1.1" xmlns="http://www.w3.org/2000/svg" width="32" height="32" viewBox="0 0 32 32">
<title>uniE9CB</title>
<path d="M27.516 16.188q0.984 0.266 1.805 0.82t1.422 1.328 0.93 1.711 0.328 1.953q0 0.516-0.102 1.016t-0.273 0.984h-2.172q0.266-0.453 0.406-0.961t0.141-1.039q0-0.859-0.32-1.586t-0.883-1.266-1.305-0.844-1.586-0.305q-0.188-1.281-0.797-2.383t-1.531-1.906-2.094-1.258-2.484-0.453q-1.203 0-2.289 0.391t-1.977 1.078-1.539 1.656-0.945 2.109q-0.688-0.594-1.516-0.914t-1.734-0.32q-1.031 0-1.945 0.391t-1.594 1.070-1.070 1.594-0.391 1.945q0 0.813 0.266 1.578t0.766 1.422h-2.328q-0.344-0.703-0.523-1.461t-0.18-1.539q0-1.453 0.555-2.727t1.5-2.219 2.219-1.5 2.727-0.555q1.156 0 2.297 0.391 0.609-1.016 1.445-1.828t1.828-1.383 2.117-0.875 2.313-0.305q1.453 0 2.789 0.453t2.461 1.273 1.969 1.953 1.297 2.508zM11 24q-0.406 0-0.703-0.297t-0.297-0.703 0.297-0.703 0.703-0.297h14q0.406 0 0.703 0.297t0.297 0.703-0.297 0.703-0.703 0.297h-14zM29 26q0.406 0 0.703 0.297t0.297 0.703-0.297 0.703-0.703 0.297h-24q-0.406 0-0.703-0.297t-0.297-0.703 0.297-0.703 0.703-0.297h24zM23 30q0.406 0 0.703 0.297t0.297 0.703-0.297 0.703-0.703 0.297h-14q-0.406 0-0.703-0.297t-0.297-0.703 0.297-0.703 0.703-0.297h14z"></path>
</svg>
