<!-- Generated by IcoMoon.io -->
<svg version="1.1" xmlns="http://www.w3.org/2000/svg" width="32" height="32" viewBox="0 0 32 32">
<title>uniF2CE</title>
<path d="M9.5 2q0.703 0 1.211 0.148t0.906 0.367 0.711 0.484 0.633 0.484 0.688 0.367 0.852 0.148h15.5q0.422 0 0.781 0.156t0.633 0.43 0.43 0.633 0.156 0.781v14h-2v-14h-15.5q-0.484 0-0.852 0.148t-0.688 0.367-0.633 0.484-0.711 0.484-0.906 0.367-1.211 0.148h-7.5v18h14v2h-16v-24q0-0.422 0.156-0.781t0.43-0.633 0.633-0.43 0.781-0.156h7.5zM9.5 6q0.375 0 0.656-0.070t0.516-0.203 0.461-0.313 0.492-0.414q-0.266-0.234-0.492-0.414t-0.461-0.313-0.516-0.203-0.656-0.070h-7.5v2h7.5zM22 30h10v2h-10v-2zM18 30h2v2h-2v-2zM18 26h2v2h-2v-2zM22 26h10v2h-10v-2zM18 22h2v2h-2v-2zM22 22h10v2h-10v-2z"></path>
</svg>
