<!-- Generated by IcoMoon.io -->
<svg version="1.1" xmlns="http://www.w3.org/2000/svg" width="32" height="32" viewBox="0 0 32 32">
<title>uniEF65</title>
<path d="M9.5 2q0.703 0 1.211 0.148t0.906 0.367 0.711 0.484 0.633 0.484 0.688 0.367 0.852 0.148h15.5q0.422 0 0.781 0.156t0.633 0.43 0.43 0.633 0.156 0.781v9.422q-0.906-0.813-2-1.297v-8.125h-15.5q-0.484 0-0.852 0.148t-0.688 0.367-0.633 0.484-0.711 0.484-0.906 0.367-1.211 0.148h-7.5v18h15.047l-2 2h-15.047v-24q0-0.422 0.156-0.781t0.43-0.633 0.633-0.43 0.781-0.156h7.5zM9.5 6q0.375 0 0.656-0.070t0.516-0.203 0.461-0.313 0.492-0.414q-0.266-0.234-0.492-0.414t-0.461-0.313-0.516-0.203-0.656-0.070h-7.5v2h7.5zM27 16q1.031 0 1.938 0.398t1.586 1.078 1.078 1.586 0.398 1.938-0.398 1.945-1.078 1.594-1.586 1.070-1.938 0.391q-0.734 0-1.438-0.211t-1.313-0.617l-6.547 6.531q-0.297 0.297-0.703 0.297t-0.703-0.297-0.297-0.703 0.297-0.703l6.531-6.547q-0.406-0.609-0.617-1.313t-0.211-1.438q0-1.031 0.391-1.938t1.070-1.586 1.594-1.078 1.945-0.398zM27 24q0.625 0 1.172-0.234t0.953-0.641 0.641-0.953 0.234-1.172-0.234-1.172-0.641-0.953-0.953-0.641-1.172-0.234-1.172 0.234-0.953 0.641-0.641 0.953-0.234 1.172 0.234 1.172 0.641 0.953 0.953 0.641 1.172 0.234z"></path>
</svg>
