<!-- Generated by IcoMoon.io -->
<svg version="1.1" xmlns="http://www.w3.org/2000/svg" width="32" height="32" viewBox="0 0 32 32">
<title>uniEE05</title>
<path d="M31.906 25l-5.703 5.703-1.406-1.406 3.297-3.297h-10.094v-2h10.094l-3.297-3.297 1.406-1.406zM21.109 21.906q-0.609-1.344-1.555-2.43t-2.133-1.859-2.57-1.195-2.852-0.422q-1.375 0-2.656 0.359t-2.391 1.008-2.023 1.563-1.563 2.023-1.008 2.391-0.359 2.656h-2q0-1.828 0.555-3.578t1.578-3.242 2.453-2.641 3.164-1.758q-0.875-0.563-1.57-1.297t-1.18-1.609-0.742-1.852-0.258-2.023q0-1.656 0.625-3.117t1.711-2.547 2.547-1.711 3.117-0.625 3.117 0.625 2.547 1.711 1.711 2.547 0.625 3.117q0 2.141-0.992 3.883t-2.758 2.898q1.125 0.422 2.125 1.055t1.852 1.438 1.531 1.773 1.18 2.047zM6 8q0 1.25 0.469 2.336t1.289 1.906 1.906 1.289 2.336 0.469q1.234 0 2.328-0.469t1.914-1.289 1.289-1.906 0.469-2.336q0-1.234-0.469-2.328t-1.289-1.914-1.914-1.289-2.328-0.469q-1.25 0-2.336 0.469t-1.906 1.289-1.289 1.914-0.469 2.328z"></path>
</svg>
