<!-- Generated by IcoMoon.io -->
<svg version="1.1" xmlns="http://www.w3.org/2000/svg" width="32" height="32" viewBox="0 0 32 32">
<title>uniE8D2</title>
<path d="M11.953 16h-5.906l-1.328 4h-2.109l5.344-16h2.094l4.188 12.531-1.266 2.531zM11.281 14l-2.281-6.844-2.281 6.844h4.563zM26.625 24.609q0.266 0.641 0.492 1.141t0.539 0.852 0.781 0.531 1.219 0.18v0.688h-7.016v-0.688q0.266 0 0.586 0.008t0.602-0.063 0.469-0.258 0.188-0.578q0-0.219-0.102-0.609t-0.25-0.844-0.328-0.93-0.344-0.898-0.289-0.727-0.172-0.414h-7q-0.047 0.125-0.188 0.43t-0.32 0.719-0.375 0.883-0.359 0.914-0.266 0.836-0.102 0.625q0 0.375 0.195 0.555t0.477 0.25 0.602 0.078 0.57 0.023v0.688h-5.891v-0.688q0.766-0.141 1.188-0.328t0.688-0.508 0.469-0.805 0.516-1.234l6.125-14.438h1.281zM22.078 20l-2.766-5.953-2.641 5.953h5.406z"></path>
</svg>
