<!-- Generated by IcoMoon.io -->
<svg version="1.1" xmlns="http://www.w3.org/2000/svg" width="32" height="32" viewBox="0 0 32 32">
<title>uniE5BA</title>
<path d="M10.672 15.375v-1.375h9.344q-0.063 2.328-0.742 4.313t-1.859 3.648-2.805 3.039-3.594 2.484l-1.203-1.25q1.656-0.688 3.125-1.789t2.609-2.516 1.875-3.078 0.938-3.477h-7.688zM24.938 20.25h3.578v1.375h-3.578v10.375h-1.547v-20h1.547v8.25zM19.672 9.656q0.188 0 0.43 0.016t0.453 0.086 0.359 0.219 0.148 0.398q0 0.313-0.258 0.453t-0.523 0.141h-3.953v1.031h-1.469v-10.047q0-0.141-0.195-0.305t-0.492-0.328-0.633-0.32-0.633-0.297-0.492-0.25-0.195-0.172q0-0.094 0.133-0.148t0.297-0.086 0.328-0.039 0.211-0.008q0.141 0 0.508 0.078t0.781 0.18 0.789 0.203 0.547 0.164q0.203 0.078 0.398 0.195t0.195 0.367q0 0.188-0.031 0.367t-0.031 0.367v8.344h1.141q0.234 0 0.43-0.094t0.422-0.211 0.539-0.211 0.797-0.094zM11.359 4.484q0 0.094-0.063 0.188t-0.141 0.188l-0.156 0.188t-0.125 0.172q-0.125 0.234-0.219 0.477t-0.203 0.477q-0.266 0.563-0.555 1.109t-0.602 1.094q-0.781 1.344-1.719 2.531t-2 2.242-2.25 2.008-2.469 1.813q-0.094 0.078-0.328 0.219t-0.375 0.141q-0.094 0-0.094-0.063t0.078-0.156 0.18-0.195 0.195-0.18 0.125-0.109q0.5-0.438 0.992-0.859t0.977-0.875q0.953-0.938 1.969-2.117t1.922-2.477 1.617-2.664 1.055-2.68q-0.797 0.031-1.57 0.086t-1.555 0.102q-0.359 0.031-0.734 0.039t-0.734 0.086q-0.125 0.031-0.289 0.086t-0.328 0.125-0.305 0.117-0.219 0.047q-0.156 0-0.57-0.141t-0.844-0.344-0.758-0.422-0.328-0.375q0-0.078 0.078-0.102t0.141-0.023q0.141 0 0.289 0.031t0.289 0.063q0.656 0.125 1.32 0.156t1.336 0.031q1.078 0 2.164-0.039t2.148-0.148q0.328-0.031 0.625-0.141t0.625-0.109q0.094 0 0.328 0.016t0.469 0.055 0.422 0.117 0.188 0.219z"></path>
</svg>
