<!-- Generated by IcoMoon.io -->
<svg version="1.1" xmlns="http://www.w3.org/2000/svg" width="32" height="32" viewBox="0 0 32 32">
<title>uniE3DC</title>
<path d="M31.828 4q0 0.75-0.281 1.453t-0.828 1.25l-5.297 5.297 1.875 1.875q0.422 0.422 0.648 0.977t0.227 1.148-0.227 1.148-0.648 0.977q-0.406 0.406-0.82 0.844t-0.852 0.797l-11.75 9.625-13.703-16 1.609-0.359q1.297-0.297 2.297-0.586t1.82-0.633 1.508-0.773 1.359-1.008 1.375-1.32 1.547-1.727q0.516-0.594 1.070-1.156t1.117-1.125q0.422-0.422 0.977-0.648t1.148-0.227 1.148 0.227 0.977 0.648l1.875 1.875 5.297-5.297q0.547-0.547 1.25-0.828t1.453-0.281q0.797 0 1.492 0.297t1.219 0.82 0.82 1.219 0.297 1.492zM3.813 14.578l1.359 1.594 15.422 5.141 2.922-2.391-10.469-10.453q-0.766 0.891-1.43 1.594t-1.305 1.281-1.305 1.039-1.438 0.844-1.688 0.711-2.070 0.641zM7.703 19.125l6.422 7.484 4.641-3.797zM29.828 4q0-0.375-0.148-0.711t-0.391-0.578-0.578-0.391-0.711-0.148q-0.75 0-1.281 0.531l-6.719 6.719-3.297-3.297q-0.297-0.297-0.703-0.297-0.25 0-0.469 0.125t-0.422 0.313-0.375 0.391-0.328 0.344l10.594 10.594q0.141-0.156 0.344-0.328t0.391-0.375 0.313-0.422 0.125-0.469q0-0.406-0.297-0.703l-3.297-3.297 6.719-6.719q0.531-0.531 0.531-1.281z"></path>
</svg>
