<!-- Generated by IcoMoon.io -->
<svg version="1.1" xmlns="http://www.w3.org/2000/svg" width="32" height="32" viewBox="0 0 32 32">
<title>uniEEBA</title>
<path d="M9.5 2q0.703 0 1.211 0.148t0.906 0.367 0.711 0.484 0.633 0.484 0.688 0.367 0.852 0.148h15.5q0.422 0 0.781 0.156t0.633 0.43 0.43 0.633 0.156 0.781v7.047l-2-2v-5.047h-15.5q-0.484 0-0.852 0.148t-0.688 0.367-0.633 0.484-0.711 0.484-0.906 0.367-1.211 0.148h-7.5v18h10v2h-12v-24q0-0.422 0.156-0.781t0.43-0.633 0.633-0.43 0.781-0.156h7.5zM9.5 6q0.375 0 0.656-0.070t0.516-0.203 0.461-0.313 0.492-0.414q-0.266-0.234-0.492-0.414t-0.461-0.313-0.516-0.203-0.656-0.070h-7.5v2h7.5zM25.422 10l6.578 6.578v15.422h-18v-22h11.422zM26 16h2.578l-2.578-2.578v2.578zM30 30v-12h-6v-6h-8v18h14zM20 26h8v2h-8v-2zM24 22h4v2h-4v-2z"></path>
</svg>
