<!-- Generated by IcoMoon.io -->
<svg version="1.1" xmlns="http://www.w3.org/2000/svg" width="32" height="32" viewBox="0 0 32 32">
<title>uniE9EF</title>
<path d="M28 20.125q0.953 0.984 1.477 2.242t0.523 2.633q0 1.453-0.547 2.727t-1.5 2.227-2.227 1.5-2.727 0.547-2.727-0.547-2.227-1.5-1.5-2.227-0.547-2.727q0-1.375 0.523-2.633t1.477-2.242v-15.125q0-1.031 0.391-1.938t1.070-1.586 1.594-1.078 1.945-0.398 1.938 0.398 1.586 1.078 1.078 1.586 0.398 1.938v15.125zM23 30q1.031 0 1.938-0.391t1.586-1.070 1.078-1.594 0.398-1.945q0-1.297-0.531-2.234t-1.469-1.766v-16q0-0.625-0.234-1.172t-0.641-0.953-0.953-0.641-1.172-0.234-1.172 0.234-0.953 0.641-0.641 0.953-0.234 1.172v16q-0.938 0.828-1.469 1.766t-0.531 2.234q0 1.031 0.391 1.945t1.070 1.594 1.594 1.070 1.945 0.391zM24 22.172q0.453 0.156 0.82 0.438t0.633 0.656 0.406 0.82 0.141 0.914q0 0.625-0.234 1.172t-0.641 0.953-0.953 0.641-1.172 0.234-1.172-0.234-0.953-0.641-0.641-0.953-0.234-1.172q0-0.469 0.141-0.914t0.406-0.82 0.633-0.656 0.82-0.438v-6.172h2v6.172zM16 6l-2 12-1.344-8.063-2.156 10.063-2.219-10.375-1.281 6.375-1.453-7.281-1.547 9.281-2-12h14z"></path>
</svg>
