<!-- Generated by IcoMoon.io -->
<svg version="1.1" xmlns="http://www.w3.org/2000/svg" width="32" height="32" viewBox="0 0 32 32">
<title>uniE96B</title>
<path d="M19.656 18.719q1.422 0.563 2.594 1.508t2.008 2.156 1.289 2.641 0.453 2.977h-2q0-1.656-0.633-3.109t-1.719-2.539-2.539-1.719-3.109-0.633-3.109 0.633-2.539 1.719-1.719 2.539-0.633 3.109h-2q0-1.547 0.453-2.977t1.289-2.641 2-2.156 2.602-1.508q-1.109-0.844-1.727-2.078t-0.617-2.641q0-1.234 0.469-2.328t1.289-1.914 1.906-1.289 2.336-0.469q1.234 0 2.328 0.469t1.914 1.289 1.289 1.914 0.469 2.328q0 1.406-0.617 2.641t-1.727 2.078zM12 14q0 0.828 0.313 1.555t0.859 1.273 1.273 0.859 1.555 0.313 1.555-0.313 1.273-0.859 0.859-1.273 0.313-1.555-0.313-1.555-0.859-1.273-1.273-0.859-1.555-0.313-1.555 0.313-1.273 0.859-0.859 1.273-0.313 1.555zM32 4v20h-4.172q-0.172-0.516-0.391-1.016t-0.484-0.984h3.047v-16h-28v16h3.047q-0.266 0.484-0.484 0.984t-0.391 1.016h-4.172v-20h32z"></path>
</svg>
