<!-- Generated by IcoMoon.io -->
<svg version="1.1" xmlns="http://www.w3.org/2000/svg" width="32" height="32" viewBox="0 0 32 32">
<title>uniF2F6</title>
<path d="M30 2v28h-28v-28h28zM28.141 3.859h-24.281v24.281h24.281v-24.281zM12.469 26h-1.984v-12h6.469v1.688h-4.484v3.609h4.141v1.688h-4.141v5.016zM20.063 21.172h-1.75l0.219-1.063h1.766l0.422-2.109h-1.859l0.219-1.063h1.859l0.609-2.938h1.234l-0.609 2.938h1.844l0.625-2.938h1.219l-0.625 2.938h1.75l-0.234 1.063h-1.734l-0.438 2.109h1.891l-0.281 1.063h-1.844l-0.625 2.828h-1.203l0.609-2.828h-1.844l-0.609 2.828h-1.203zM21.484 20.109h1.875l0.453-2.109h-1.859z"></path>
</svg>
