<!-- Generated by IcoMoon.io -->
<svg version="1.1" xmlns="http://www.w3.org/2000/svg" width="32" height="32" viewBox="0 0 32 32">
<title>uniF2F5</title>
<path d="M2.25 6h10.156v2.125h-7.813v6.906h7.234v2.109h-7.234v8.859h-2.344v-20zM25.953 12.969l-0.875 4.125h3.859l-0.375 1.453h-3.766l-1.219 5.453h-1.719l1.172-5.453h-3.438l-1.141 5.453h-1.719l1.156-5.453h-3.609l0.281-1.453h3.641l0.828-4.125h-3.797l0.281-1.453h3.813l1.156-5.516h1.734l-1.156 5.516h3.453l1.188-5.516h1.688l-1.156 5.516h3.609l-0.313 1.453h-3.578zM24.25 12.969h-3.469l-0.906 4.125h3.484z"></path>
</svg>
