<!-- Generated by IcoMoon.io -->
<svg version="1.1" xmlns="http://www.w3.org/2000/svg" width="32" height="32" viewBox="0 0 32 32">
<title>uniF31C</title>
<path d="M14 8h2v8h-2v-8zM8 12h-8v-8h2v4.281q1.047-1.922 2.547-3.453t3.32-2.602 3.883-1.648 4.25-0.578q2.203 0 4.25 0.57t3.828 1.609 3.242 2.5 2.5 3.242 1.609 3.828 0.57 4.25h-2q0-1.922-0.5-3.711t-1.414-3.344-2.195-2.836-2.836-2.195-3.344-1.414-3.711-0.5q-2.016 0-3.922 0.563t-3.555 1.609-2.977 2.523-2.188 3.305h4.641v2zM16 18h16v2h-16v-2zM16 24h16v2h-16v-2zM16 30h16v2h-16v-2zM2.516 19.734q0.563 2.016 1.648 3.734t2.586 3.039 3.344 2.18 3.906 1.156v2.031q-2.406-0.328-4.563-1.297t-3.906-2.477-3.023-3.5-1.914-4.336z"></path>
</svg>
