<!-- Generated by IcoMoon.io -->
<svg version="1.1" xmlns="http://www.w3.org/2000/svg" width="32" height="32" viewBox="0 0 32 32">
<title>uniF542</title>
<path d="M18 8h-4v-4h2v2h2v2zM26 24.125q0.656 0.172 1.203 0.547t0.945 0.891 0.625 1.141 0.227 1.297q0 0.828-0.313 1.555t-0.859 1.273-1.273 0.859-1.555 0.313-1.555-0.313-1.273-0.859-0.859-1.273-0.313-1.555q0-0.672 0.219-1.297t0.617-1.141 0.953-0.891 1.211-0.547v-4.125h-8v4.125q0.656 0.172 1.203 0.547t0.945 0.891 0.625 1.141 0.227 1.297q0 0.828-0.313 1.555t-0.859 1.273-1.273 0.859-1.555 0.313-1.555-0.313-1.273-0.859-0.859-1.273-0.313-1.555q0-0.672 0.219-1.297t0.617-1.141 0.953-0.891 1.211-0.547v-4.125h-8v4.125q0.656 0.172 1.203 0.547t0.945 0.891 0.625 1.141 0.227 1.297q0 0.828-0.313 1.555t-0.859 1.273-1.273 0.859-1.555 0.313-1.555-0.313-1.273-0.859-0.859-1.273-0.313-1.555q0-0.672 0.219-1.297t0.617-1.141 0.953-0.891 1.211-0.547v-6.125h10v-4.078q-1.297-0.172-2.398-0.789t-1.898-1.547-1.25-2.109-0.453-2.477q0-1.453 0.547-2.727t1.5-2.227 2.227-1.5 2.727-0.547 2.727 0.547 2.227 1.5 1.5 2.227 0.547 2.727q0 1.297-0.453 2.477t-1.25 2.109-1.898 1.547-2.398 0.789v4.078h10v6.125zM10 7q0 1.031 0.391 1.945t1.070 1.594 1.594 1.070 1.945 0.391 1.938-0.391 1.586-1.070 1.078-1.594 0.398-1.945-0.398-1.938-1.078-1.586-1.586-1.078-1.938-0.398-1.945 0.398-1.594 1.078-1.070 1.586-0.391 1.938zM7 28q0-0.422-0.156-0.781t-0.43-0.633-0.633-0.43-0.781-0.156-0.781 0.156-0.633 0.43-0.43 0.633-0.156 0.781 0.156 0.781 0.43 0.633 0.633 0.43 0.781 0.156 0.781-0.156 0.633-0.43 0.43-0.633 0.156-0.781zM17 28q0-0.422-0.156-0.781t-0.43-0.633-0.633-0.43-0.781-0.156-0.781 0.156-0.633 0.43-0.43 0.633-0.156 0.781 0.156 0.781 0.43 0.633 0.633 0.43 0.781 0.156 0.781-0.156 0.633-0.43 0.43-0.633 0.156-0.781zM25 30q0.422 0 0.781-0.156t0.633-0.43 0.43-0.633 0.156-0.781-0.156-0.781-0.43-0.633-0.633-0.43-0.781-0.156-0.781 0.156-0.633 0.43-0.43 0.633-0.156 0.781 0.156 0.781 0.43 0.633 0.633 0.43 0.781 0.156z"></path>
</svg>
