<!-- Generated by IcoMoon.io -->
<svg version="1.1" xmlns="http://www.w3.org/2000/svg" width="192" height="32" viewBox="0 0 192 32">
<title>uniF496</title>
<path d="M190.609 15.391h-1.391v-2.188h-13.719v2.188h-1.203v-3.375h16.313v3.375zM191.203 10.422h-5.359v1.188h-1.406v-1.188h-4.172v1.188h-1.188v-1.188h-5.375v-1h5.375v-1.391h1.188v1.391h4.172v-1.391h1.406v1.391h5.359v1zM178.484 18.578v0.391h-1.406v-4.375h10.75v4.375h-1.391v-0.391h-7.953zM178.484 17.578h7.953v-1.781h-7.953v1.781zM187.828 24.531h-10.547v1h-1.391v-5.359h13.328v5.359h-1.391v-1zM187.828 21.156h-10.547v2.391h10.547v-2.391zM171.719 10.422h-9.953v-1.391h9.953v1.391zM172.906 14.984h-6.766q-0.703 1.266-1.414 2.531t-1.555 2.453q1.547-0.172 3.078-0.227t3.078-0.18q-0.531-0.656-0.945-1.359t-0.836-1.422l0.984-0.594q1.016 1.172 1.891 2.414t1.688 2.555l-1.188 1q-0.219-0.344-0.414-0.688t-0.383-0.703q-1.844 0.109-3.68 0.242t-3.68 0.352q-0.313 0.031-0.594 0.109t-0.594 0.094l-0.594-1.203q0.531-0.547 1-1.203t0.883-1.352 0.781-1.414 0.711-1.406h-3.781v-1.375h12.328v1.375zM157.406 8.031q0.703 0.844 1.391 1.695t1.391 1.695l-1.203 0.984q-0.688-0.828-1.305-1.68t-1.273-1.695zM158.391 22.75q-0.656 0.5-1.172 1.125t-1.016 1.266l-0.797-1.594q0.625-0.469 1.211-0.977t1.18-1.008v-5.969h-2.188v-1.391h3.578v7.547q0.703 0.844 1.648 1.32t2.039 0.477h10.234l-0.594 1.391h-9.938q-1.297-0.172-2.352-0.641t-1.836-1.547zM152.422 5.047q0.188 0.375 0.398 0.758t0.211 0.836q0 0.469-0.195 0.898t-0.531 0.766-0.766 0.531-0.898 0.195-0.875-0.203-0.695-0.547-0.453-0.766-0.164-0.875q0-1 0.594-1.594t1.594-0.594q0.547 0 0.938 0.148t0.844 0.445zM150.641 4.859q-0.344 0-0.703 0.141t-0.648 0.383-0.469 0.57-0.18 0.688q0 0.328 0.188 0.68t0.484 0.641 0.648 0.477 0.68 0.188q0.406 0 0.766-0.156t0.633-0.43 0.43-0.633 0.156-0.766q0-0.891-0.57-1.336t-1.414-0.445zM151 7.031q0.078 0 0.117 0.031t0.117 0.172l0.391 0.797h-0.188l-0.406-0.797q-0.109 0-0.211-0.063t-0.18-0.141h-0.406v1h-0.391v-2.578h0.797q0.797 0 0.797 0.797 0 0.313-0.172 0.484t-0.438 0.297h0.172zM151.234 6.25q0-0.141-0.102-0.203t-0.102-0.203q-0.125-0.078-0.297-0.078-0.094 0-0.094 0.078h-0.406v0.797h0.406q0.172 0 0.328-0.148t0.266-0.242zM141.281 4.453q0.359 0.219 0.688 0.398t0.664 0.32 0.688 0.266 0.758 0.219q-0.625 0.828-1.313 1.578t-1.281 1.594h3.188l-0.406 2.391-5.563-0.203q-0.156 0.922-0.422 1.805t-0.563 1.773h6.359l-0.594 2.594-5.578-0.203q0.422 0.844 0.625 1.547t0.359 1.297 0.344 1.109 0.586 0.969 1.070 0.852 1.797 0.789q-0.688 0.563-1.328 1.164t-1.266 1.227l-0.297-0.234q-0.719-0.531-1.234-0.945t-0.906-0.781-0.672-0.758-0.523-0.891-0.461-1.164-0.484-1.602q-0.703 1.094-1.547 1.984t-1.82 1.617-2.078 1.305-2.305 1.063q-0.375-0.578-0.703-1.18t-0.688-1.195q1.5-0.219 2.586-0.742t1.93-1.32 1.516-1.836 1.328-2.273h-5.375l0.594-2.594 5.578 0.203q0.188-0.922 0.477-1.789t0.508-1.789h-5.359l0.391-2.391 3.375 0.203q-0.156-0.484-0.273-0.898t-0.242-0.813-0.281-0.797-0.391-0.867q0.766-0.219 1.5-0.477t1.484-0.523q0.281 0.813 0.648 1.727t0.742 1.664q-0.453 0.109-0.742 0.164t-0.523 0.141-0.484 0.234-0.625 0.445h4.969q-0.25-0.219-0.57-0.367t-0.633-0.227q0.438-0.438 0.797-0.906t0.672-0.945 0.625-0.961 0.688-0.969zM129.75 7.438l-2.375 10.938q0.5-0.125 1.016-0.211t0.969-0.383q-0.125 0.234-0.164 0.477t-0.039 0.508q-0.25 0.375-0.336 0.781t-0.258 0.813q-0.453 0-0.898 0.125t-0.883 0.281l-1 4.766h-3.188l1.188-4.172q-1.75 0.266-3.484 0.547t-3.469 0.641v-2.578l1.391-0.203 2.781-12.328h-1.391l0.406-2.391h11.734l-0.406 2.594zM126.375 10.031l0.594-2.594h-2.984l-0.594 2.594h2.984zM125.781 12.016h-2.781l-0.594 2.188h2.969zM124.391 18.969l0.391-2.578h-2.781l-0.797 2.984q0.797-0.125 1.586-0.266t1.602-0.141zM111.063 9.031h-12.125l-1.406 1.984h9.75q-1.453 2.578-2.703 5.211t-2.469 5.336h7.359l-0.797 2.781h-25.047l0.797-3.188h13.906l1.203-2.188h-10.734q0.891-1.234 1.727-2.516t1.656-2.555 1.656-2.547 1.711-2.523h-6.563l0.797-2.781h22.078zM94.156 16.391h6.563l1.391-2.781h-6.156zM76.859 8.438h-9.156l0.609-2.781h12.531l-2.391 9.328h-8.563q-0.063 0.156-0.211 0.68t-0.344 1.227-0.414 1.508-0.398 1.516-0.297 1.25-0.117 0.727v0.063q0.266 0.141 0.594 0.219t0.672 0.117 0.688 0.047 0.641 0.008h1.781q0.844 0 1.367-0.156t0.891-0.469 0.633-0.789 0.578-1.133q0.031-0.063 0.055-0.117t0.055-0.117q0.25 0.266 0.594 0.461t0.719 0.344 0.758 0.289 0.711 0.313q-0.281 0.578-0.617 1.047t-0.711 0.883-0.797 0.813-0.859 0.82q-0.344 0-0.68 0.055t-0.68 0.125-0.688 0.125-0.688 0.055q-0.547 0-1.141 0.008t-1.25 0.008q-0.813 0-1.648-0.031t-1.648-0.133-1.555-0.297-1.352-0.508q0-0.016-0.008-0.023t-0.008-0.023q-0.047-0.172-0.125-0.414t-0.078-0.414q0-0.078 0.016-0.109l2.781-10.547h8.563zM64.328 7.641q0.375 0.375 0.797 0.703t0.797 0.688l0.797 0.188q-2.125 1.641-4.188 3.289t-4.172 3.289q1.641-0.281 3.273-0.461t3.289-0.352q-0.375 0.641-0.711 1.289t-0.68 1.305q-2.453 0-4.883 0.328t-4.852 0.672q-0.125-0.609-0.18-1.203t-0.227-1.188q1.297-0.641 2.453-1.484t2.328-1.688h-3.984q0.141-0.266 0.219-0.594t0.117-0.672 0.047-0.688 0.008-0.641q0.281-0.266 0.633-0.508t0.727-0.484 0.742-0.484 0.68-0.508q1.109-0.969 2.086-2t1.898-2.188q0.703 0.422 1.445 0.727t1.539 0.477q-1.469 1.328-2.938 2.633t-3.031 2.539h2.594q0.875-0.75 1.719-1.461t1.656-1.523zM47.828 13.609l-4.781-0.203-1.781 6.563h-10.547l1.797-6.766h-2.984l-2.188 8.359h17.5l-0.797 2.969h-21.078l2.984-11.328h-3.781l0.797-2.781 3.766 0.203 1.406-5.578 3.766 0.203-1.578 5.375h2.984l1.188-5.172h3.781l-1.594 5.172h3.375l1.391-5.172h3.781l-1.594 5.172h4.984zM36.094 13.203l-1 3.984h3.188l0.984-3.781zM51.797 21.563q3.047-0.313 6.016-0.883t5.922-1.305q-0.234 0.234-0.414 0.531t-0.18 0.656q-0.266 0.297-0.367 0.664t-0.242 0.727q-2.5 0.594-4.969 1.18t-4.969 1.211q-0.156-0.734-0.352-1.406t-0.445-1.375zM10.234 8.031v3.188h6.563v13.922h-1.391v-1h-11.938v1h-1.375v-13.922h6.547v-3.188h1.594zM15.406 12.609h-5.172v4.375h5.172v-4.375zM3.469 16.984h5.172v-4.375h-5.172v4.375zM10.234 22.75h5.172v-4.375h-5.172v4.375zM8.641 22.75v-4.375h-5.172v4.375h5.172z"></path>
</svg>
