<!-- Generated by IcoMoon.io -->
<svg version="1.1" xmlns="http://www.w3.org/2000/svg" width="32" height="32" viewBox="0 0 32 32">
<title>uniF4A9</title>
<path d="M29 2q0.609 0 1.156 0.234t0.961 0.648 0.648 0.961 0.234 1.156v20q0 0.609-0.234 1.156t-0.648 0.961-0.961 0.648-1.156 0.234h-26q-0.609 0-1.156-0.234t-0.961-0.648-0.648-0.961-0.234-1.156v-20q0-0.609 0.234-1.156t0.648-0.961 0.961-0.648 1.156-0.234h26zM30 25v-20q0-0.406-0.297-0.703t-0.703-0.297h-26q-0.406 0-0.703 0.297t-0.297 0.703v20q0 0.406 0.297 0.703t0.703 0.297h26q0.406 0 0.703-0.297t0.297-0.703zM20.219 19.906v-9.813h5.281v1.391h-3.656v2.938h3.375v1.375h-3.375v4.109h-1.625zM9.969 15.938v-1.359h3.688v4.656q-0.797 0.422-1.656 0.625t-1.75 0.203q-1.109 0-2.008-0.359t-1.539-1.008-0.984-1.555-0.344-2.016q0-1.141 0.391-2.094t1.086-1.641 1.648-1.070 2.094-0.383q0.703 0 1.398 0.102t1.352 0.367v1.688q-0.594-0.406-1.281-0.586t-1.406-0.18q-0.813 0-1.469 0.281t-1.125 0.781-0.719 1.18-0.25 1.477q0 0.75 0.195 1.414t0.594 1.156 0.992 0.773 1.406 0.281q0.453 0 0.898-0.086t0.852-0.305v-2.344h-2.063zM16.156 20v-9.797h1.688v9.797h-1.688z"></path>
</svg>
