<!-- Generated by IcoMoon.io -->
<svg version="1.1" xmlns="http://www.w3.org/2000/svg" width="32" height="32" viewBox="0 0 32 32">
<title>uniF133</title>
<path d="M3 7.5q-0.359-0.844-1.008-1.492t-1.492-1.008q0.844-0.359 1.492-1.008t1.008-1.492q0.359 0.844 1.008 1.492t1.492 1.008q-0.844 0.359-1.492 1.008t-1.008 1.492zM29 8.5q0.359 0.844 1.008 1.492t1.492 1.008q-0.844 0.359-1.492 1.008t-1.008 1.492q-0.359-0.844-1.008-1.492t-1.492-1.008q0.844-0.359 1.492-1.008t1.008-1.492zM23 10q-0.734-1.703-2.016-2.984t-2.984-2.016q1.703-0.734 2.984-2.016t2.016-2.984q0.734 1.703 2.016 2.984t2.984 2.016q-1.703 0.734-2.984 2.016t-2.016 2.984zM23 3.031q-0.875 1.109-1.969 1.969 1.094 0.875 1.969 1.969 0.859-1.094 1.969-1.969-1.109-0.859-1.969-1.969zM11.672 12.266q-0.734 0-1.383-0.305t-1.133-0.82-0.758-1.188-0.273-1.391q0-0.922 0.383-1.727t1.023-1.406 1.477-0.953 1.742-0.352q1.313 0 2.336 0.555t1.727 1.461 1.070 2.063 0.367 2.359q0 1.641-0.531 3.070t-1.461 2.602-2.195 2.070-2.719 1.508q-0.141 0.063-0.359 0.063-0.359 0-0.609-0.258t-0.25-0.617q0-0.563 0.531-0.813 1.188-0.563 2.195-1.211t1.766-1.484 1.234-1.906 0.617-2.461q0.016-0.156 0.023-0.305t0.008-0.305q0-0.813-0.234-1.641t-0.703-1.5-1.172-1.086-1.641-0.414q-0.531 0-1.047 0.211t-0.922 0.57-0.656 0.852-0.25 1.055q0 0.359 0.141 0.711t0.383 0.625 0.578 0.445 0.711 0.172 0.594-0.117 0.359-0.305 0.227-0.391 0.188-0.391 0.266-0.305 0.445-0.117q0.359 0 0.625 0.266t0.266 0.625q0 0.078-0.031 0.203-0.125 0.5-0.414 0.922t-0.68 0.727-0.867 0.469-0.992 0.164zM25.422 14l4.281 4.297-1.406 1.406-2.297-2.281v14.578h-22v-14.578l-2.297 2.281-1.406-1.406 4.281-4.297h8.672q-0.547 0.641-1.211 1.133t-1.414 0.867h-4.625v14h18v-14h-5.172q0.266-0.484 0.484-0.984t0.391-1.016h5.719z"></path>
</svg>
