<!-- Generated by IcoMoon.io -->
<svg version="1.1" xmlns="http://www.w3.org/2000/svg" width="32" height="32" viewBox="0 0 32 32">
<title>uniEC1F</title>
<path d="M28 12v20h-26v-20h4.563q-0.547-0.922-0.547-2 0-0.828 0.313-1.555t0.852-1.273 1.266-0.859 1.555-0.313q1.516 0 2.836 0.711t2.164 1.977q0.844-1.266 2.164-1.977t2.836-0.711q0.828 0 1.555 0.313t1.273 0.859 0.859 1.273 0.313 1.555q0 0.531-0.148 1.039t-0.414 0.961h4.563zM14 14h-10v16h10v-16zM14 12q0-0.828-0.313-1.555t-0.859-1.273-1.273-0.859-1.555-0.313q-0.422 0-0.781 0.156t-0.633 0.43-0.43 0.633-0.156 0.781 0.156 0.781 0.43 0.633 0.633 0.43 0.781 0.156h4zM20 8q-0.828 0-1.555 0.313t-1.273 0.859-0.859 1.273-0.313 1.555h4q0.422 0 0.781-0.156t0.633-0.43 0.43-0.633 0.156-0.781-0.156-0.781-0.43-0.633-0.633-0.43-0.781-0.156zM26 14h-10v16h10v-16z"></path>
</svg>
