<!-- Generated by IcoMoon.io -->
<svg version="1.1" xmlns="http://www.w3.org/2000/svg" width="32" height="32" viewBox="0 0 32 32">
<title>uniEB8E</title>
<path d="M30.25 4q0.359 0 0.68 0.141t0.555 0.375 0.375 0.555 0.141 0.68v18.5q0 0.359-0.141 0.68t-0.375 0.555-0.555 0.375-0.68 0.141h-28.5q-0.359 0-0.68-0.141t-0.555-0.375-0.375-0.555-0.141-0.68v-18.5q0-0.359 0.141-0.68t0.375-0.555 0.555-0.375 0.68-0.141h28.5zM30 6h-20v2.172q0.516-0.172 1-0.172 0.625 0 1.172 0.234t0.953 0.641 0.641 0.953 0.234 1.172q0 0.484-0.172 1h16.172v-6zM6 11q0 0.406 0.297 0.703t0.703 0.297h1v-1q0-0.406-0.297-0.703t-0.703-0.297-0.703 0.297-0.297 0.703zM11 12q0.406 0 0.703-0.297t0.297-0.703-0.297-0.703-0.703-0.297-0.703 0.297-0.297 0.703v1h1zM2 6v6h2.172q-0.172-0.516-0.172-1 0-0.625 0.234-1.172t0.641-0.953 0.953-0.641 1.172-0.234q0.484 0 1 0.172v-2.172h-6zM2 24h6v-8.578l-2.297 2.281-1.406-1.406 2.281-2.297h-4.578v10zM30 24v-10h-18.578l2.281 2.297-1.406 1.406-2.297-2.281v8.578h20z"></path>
</svg>
