<!-- Generated by IcoMoon.io -->
<svg version="1.1" xmlns="http://www.w3.org/2000/svg" width="32" height="32" viewBox="0 0 32 32">
<title>uniEA16</title>
<path d="M20 8q0.25 0 0.453 0.109l11.547 5.766v2.125q-0.406 0-0.703 0.297t-0.297 0.703v2q0 1.453-0.555 2.727t-1.5 2.219-2.219 1.5-2.727 0.555-2.727-0.555-2.219-1.5-1.5-2.219-0.555-2.727q0-0.406-0.297-0.703t-0.703-0.297-0.703 0.297-0.297 0.703q0 1.453-0.555 2.727t-1.5 2.219-2.219 1.5-2.727 0.555-2.727-0.555-2.219-1.5-1.5-2.219-0.555-2.727v-2q0-0.406-0.297-0.703t-0.703-0.297v-2.125l11.547-5.766q0.203-0.109 0.453-0.109 0.406 0 0.703 0.297 0.156 0.156 0.383 0.352t0.43 0.414 0.344 0.453 0.141 0.484q0 0.406-0.297 0.703t-0.703 0.297q-0.391 0-0.664-0.258t-0.539-0.523l-7.563 3.781h7.766q0.594 0 1.023 0.148t0.766 0.367 0.602 0.484 0.508 0.484 0.508 0.367 0.594 0.148 0.594-0.148 0.508-0.367 0.508-0.484 0.602-0.484 0.766-0.367 1.023-0.148h7.766l-7.563-3.781q-0.266 0.266-0.539 0.523t-0.664 0.258q-0.406 0-0.703-0.297t-0.297-0.703q0-0.25 0.141-0.484t0.344-0.453 0.43-0.414 0.383-0.352q0.297-0.297 0.703-0.297zM13 18q0-0.406-0.156-0.773t-0.43-0.641-0.641-0.43-0.773-0.156h-7q-0.406 0-0.703 0.297t-0.297 0.703v2q0 1.031 0.391 1.945t1.070 1.594 1.594 1.070 1.945 0.391 1.938-0.391 1.586-1.070 1.078-1.594 0.398-1.945v-1zM24 24q1.031 0 1.938-0.391t1.586-1.070 1.078-1.594 0.398-1.945q0-0.344-0.016-0.734t-0.016-0.781 0.039-0.773 0.164-0.711h-8.172q-0.406 0-0.773 0.156t-0.641 0.43-0.43 0.641-0.156 0.773v1q0 1.031 0.391 1.945t1.070 1.594 1.594 1.070 1.945 0.391z"></path>
</svg>
