<!-- Generated by IcoMoon.io -->
<svg version="1.1" xmlns="http://www.w3.org/2000/svg" width="32" height="32" viewBox="0 0 32 32">
<title>uniE774</title>
<path d="M16 0q2.203 0 4.25 0.57t3.828 1.609 3.242 2.5 2.5 3.242 1.609 3.828 0.57 4.25-0.57 4.25-1.609 3.828-2.5 3.242-3.242 2.5-3.828 1.609-4.25 0.57-4.25-0.57-3.828-1.609-3.242-2.5-2.5-3.242-1.609-3.82-0.57-4.258q0-2.203 0.57-4.25t1.609-3.828 2.5-3.242 3.242-2.5 3.82-1.609 4.258-0.57zM28.641 10q-0.594-1.266-1.438-2.383t-1.875-2.039-2.234-1.641-2.516-1.172q0.563 0.781 1.016 1.656t0.805 1.805 0.602 1.883 0.438 1.891h5.203zM30 16q0-2.078-0.578-4h-5.672q0.125 1 0.188 1.992t0.063 2.008-0.063 2.008-0.188 1.992h5.672q0.578-1.922 0.578-4zM16 30q0.766 0 1.43-0.422t1.227-1.109 1.008-1.555 0.789-1.758 0.578-1.719 0.359-1.438h-10.781q0.125 0.609 0.359 1.438t0.578 1.719 0.789 1.758 1.008 1.555 1.227 1.109 1.43 0.422zM21.734 20q0.125-1 0.195-1.992t0.070-2.008-0.070-2.008-0.195-1.992h-11.469q-0.125 1-0.195 1.992t-0.070 2.008 0.070 2.008 0.195 1.992h11.469zM2 16q0 2.078 0.578 4h5.672q-0.125-1-0.188-1.992t-0.063-2.008 0.063-2.008 0.188-1.992h-5.672q-0.578 1.922-0.578 4zM16 2q-0.766 0-1.43 0.422t-1.227 1.109-1.008 1.555-0.789 1.758-0.578 1.719-0.359 1.438h10.781q-0.125-0.609-0.359-1.438t-0.578-1.719-0.789-1.758-1.008-1.555-1.227-1.109-1.43-0.422zM11.422 2.766q-1.313 0.453-2.516 1.172t-2.234 1.641-1.875 2.039-1.438 2.383h5.203q0.188-0.938 0.438-1.891t0.602-1.883 0.805-1.805 1.016-1.656zM3.359 22q0.594 1.266 1.438 2.383t1.875 2.039 2.234 1.641 2.516 1.172q-0.563-0.781-1.016-1.656t-0.805-1.805-0.602-1.883-0.438-1.891h-5.203zM20.578 29.234q1.313-0.453 2.516-1.172t2.234-1.641 1.875-2.039 1.438-2.383h-5.203q-0.188 0.938-0.438 1.891t-0.602 1.883-0.805 1.805-1.016 1.656z"></path>
</svg>
