<!-- Generated by IcoMoon.io -->
<svg version="1.1" xmlns="http://www.w3.org/2000/svg" width="32" height="32" viewBox="0 0 32 32">
<title>uniF49A</title>
<path d="M29.641 24.563q0 0.406-0.297 0.703t-0.703 0.297q-0.234 0-0.484-0.156t-0.484-0.367-0.438-0.445-0.359-0.391q-1.656 1.469-3.633 2.359t-4.164 1.203v2.234h2.922v2h-8v-2h3.078v-2.094q-2.094 0-4.016-0.531t-3.602-1.5-3.055-2.336-2.352-3.031-1.516-3.586-0.539-4.016q0-2.766 0.953-5.273t2.75-4.602q-0.141-0.125-0.289-0.266t-0.281-0.297-0.219-0.336-0.086-0.383q0-0.406 0.297-0.703t0.703-0.297q0.422 0 0.719 0.297l3.469 3.453q1.484-1.219 3.273-1.859t3.711-0.641q1.516 0 2.922 0.391t2.633 1.109 2.227 1.719 1.719 2.227 1.109 2.633 0.391 2.922q0 1.922-0.641 3.711t-1.859 3.273l3.844 3.859q0.297 0.297 0.297 0.719zM8 13q0 1.266 0.359 2.516l2.016-2.031q-0.578-0.859-1.031-1.773t-0.766-1.898q-0.578 1.563-0.578 3.188zM11.813 6.266q-0.797 0-1.172 0.383t-0.375 1.18q0 0.516 0.141 1.078t0.367 1.117 0.5 1.070 0.555 0.953l4.219-4.219q-0.438-0.281-0.961-0.563t-1.070-0.5-1.109-0.359-1.094-0.141zM22.172 13.953l-4.219 4.219q0.438 0.281 0.953 0.555t1.070 0.5 1.117 0.367 1.078 0.141q0.813 0 1.188-0.375t0.375-1.188q0-0.516-0.141-1.078t-0.367-1.117-0.5-1.070-0.555-0.953zM16.297 17l4.703-4.703q-1.484-1.813-3.297-3.297l-4.703 4.703q1.484 1.813 3.297 3.297zM11.578 15.109l-2.375 2.391q0.594 1.031 1.43 1.867t1.867 1.43l2.391-2.375q-1.828-1.484-3.313-3.313zM16.516 19.625l-2.031 2.016q1.25 0.359 2.516 0.359 1.625 0 3.188-0.578-0.984-0.313-1.898-0.766t-1.773-1.031zM25.422 16.188q0.578-1.563 0.578-3.188 0-1.266-0.359-2.516l-2.016 2.031q0.578 0.859 1.031 1.773t0.766 1.898zM24.797 8.5q-0.594-1.031-1.43-1.867t-1.867-1.43l-2.391 2.375q1.828 1.484 3.313 3.313zM19.516 4.359q-1.25-0.359-2.516-0.359-1.625 0-3.188 0.578 0.984 0.313 1.898 0.766t1.773 1.031zM17 25.906q2.328 0 4.5-0.805t3.953-2.32l-1.359-1.359q-1.516 1.25-3.313 1.914t-3.781 0.664q-1.516 0-2.922-0.391t-2.633-1.109-2.227-1.719-1.719-2.227-1.109-2.633-0.391-2.922q0-1.984 0.664-3.781t1.914-3.313l-1.453-1.453q-1.516 1.781-2.32 3.953t-0.805 4.516q0 1.797 0.461 3.453t1.313 3.102 2.031 2.625 2.625 2.031 3.109 1.313 3.461 0.461z"></path>
</svg>
