<!-- Generated by IcoMoon.io -->
<svg version="1.1" xmlns="http://www.w3.org/2000/svg" width="32" height="32" viewBox="0 0 32 32">
<title>uniF89F</title>
<path d="M27 16q-1.031 0-1.945-0.391t-1.594-1.070-1.070-1.594-0.391-1.945 0.391-1.945 1.070-1.594 1.594-1.070 1.945-0.391 1.945 0.391 1.594 1.070 1.070 1.594 0.391 1.945-0.391 1.945-1.070 1.594-1.594 1.070-1.945 0.391zM19.594 8q-0.188 0.484-0.305 0.984t-0.195 1.016h-19.094v-2h19.594zM20.813 16q1.016 1.25 2.391 2h-23.203v-2h20.813zM0 26v-2h32v2h-32z"></path>
</svg>
