<!-- Generated by IcoMoon.io -->
<svg version="1.1" xmlns="http://www.w3.org/2000/svg" width="32" height="32" viewBox="0 0 32 32">
<title>uniEEED</title>
<path d="M17.688 13.688q0.313 0.625 0.313 1.313 0 0.625-0.234 1.172t-0.641 0.953-0.953 0.641-1.172 0.234-1.172-0.234-0.953-0.641-0.641-0.953-0.234-1.172 0.234-1.172 0.641-0.953 0.953-0.641 1.172-0.234q0.688 0 1.313 0.313l-0.016-0.016 5.75-5.75 1.406 1.406-5.75 5.75zM15 16q0.406 0 0.703-0.297t0.297-0.703-0.297-0.703-0.703-0.297-0.703 0.297-0.297 0.703 0.297 0.703 0.703 0.297zM21.359 21.359q1.266-1.266 1.953-2.891t0.688-3.422q0-1.938-0.813-3.734l1.813-0.813q0.484 1.063 0.727 2.195t0.242 2.305q0 2.188-0.82 4.211t-2.367 3.57zM18.688 6.813q-1.797-0.813-3.734-0.813-1.234 0-2.375 0.32t-2.141 0.914-1.813 1.414-1.398 1.82-0.906 2.148-0.32 2.383q0 1.797 0.688 3.445t1.953 2.914l-1.422 1.422q-1.563-1.563-2.391-3.57t-0.828-4.211q0-1.516 0.391-2.922t1.109-2.625 1.719-2.219 2.219-1.711 2.625-1.102 2.938-0.391q1.172 0 2.305 0.242t2.195 0.727zM2 15q0 1.797 0.469 3.453t1.313 3.102 2.031 2.633 2.633 2.031 3.102 1.313 3.453 0.469q0.25 0 0.5-0.016l0.5-0.031v2l-0.5 0.031t-0.5 0.016q-2.063 0-3.977-0.539t-3.586-1.516-3.039-2.344-2.344-3.039-1.516-3.586-0.539-3.977 0.539-3.977 1.516-3.586 2.344-3.039 3.039-2.344 3.586-1.516 3.977-0.539 3.977 0.539 3.586 1.516 3.039 2.344 2.344 3.039 1.516 3.586 0.539 3.977q0 1.531-0.313 3.023t-0.922 2.914l-1.547-1.547q0.781-2.125 0.781-4.391 0-1.797-0.469-3.453t-1.313-3.102-2.031-2.633-2.633-2.031-3.102-1.313-3.453-0.469-3.453 0.469-3.102 1.313-2.633 2.031-2.031 2.633-1.313 3.102-0.469 3.453zM32 27l-5 5-1.422-1.422 2.594-2.578h-10.172v-2h10.172l-2.594-2.578 1.422-1.422z"></path>
</svg>
