<!-- Generated by IcoMoon.io -->
<svg version="1.1" xmlns="http://www.w3.org/2000/svg" width="32" height="32" viewBox="0 0 32 32">
<title>uniE35D</title>
<path d="M32 16q-1.953 3.359-3.867 6.68t-3.867 6.68l-0.281 0.5h-15.984l-0.281-0.5q-1.953-3.359-3.859-6.688t-3.859-6.672q1.922-3.5 4-6.93t4-6.93h15.984q0.953 1.766 1.969 3.484t2.039 3.445 2.039 3.453 1.969 3.477zM24.156 14.797l-1.172-10.984-10.703 3.953q0.031 0.109 0.031 0.211v0.211l11.438 6.797q0.172-0.109 0.406-0.188zM12.172 22.781l10.984-6.406q-0.031-0.156-0.031-0.25 0-0.172 0.047-0.344l-11.297-6.703q-0.203 0.172-0.484 0.281l0.297 13.125q0.297 0.109 0.484 0.297zM10.438 22.672q0.109-0.094 0.266-0.141l-0.297-13.203q-0.109-0.031-0.195-0.094t-0.164-0.141l-8.141 6.891zM22 3.125h-12.891l1.688 3.578q0.031 0 0.070-0.008t0.070-0.008q0.203 0 0.398 0.063t0.367 0.172zM8.266 3.641l-6.406 11.094 7.719-6.531q0-0.313 0.063-0.563t0.281-0.484zM1.797 17.141l6.484 11.219 1.953-3.656q-0.172-0.172-0.266-0.422t-0.094-0.516v-0.141t0.031-0.141zM9.125 28.875h12.984l-9.953-4.063q-0.25 0.219-0.492 0.281t-0.555 0.063zM23 28.172l1.078-10.734q-0.219-0.063-0.422-0.219l-11.047 6.438v0.281zM24.016 27.844l6.563-11.344h-4.75q-0.078 0.297-0.281 0.523t-0.469 0.352zM25.719 15.5h4.859l-6.563-11.328 1.141 10.75q0.375 0.219 0.563 0.578z"></path>
</svg>
