<!-- Generated by IcoMoon.io -->
<svg version="1.1" xmlns="http://www.w3.org/2000/svg" width="32" height="32" viewBox="0 0 32 32">
<title>uniF54B</title>
<path d="M26 6v26h-22v-25.734l18-5.625v5.359h4zM20 3.359l-8.453 2.641h8.453v-2.641zM24 8h-18v22h18v-22zM15 14.094q0.578-0.531 1.305-0.813t1.523-0.281q0.859 0 1.625 0.328t1.328 0.891 0.891 1.328 0.328 1.641q0 0.828-0.313 1.594t-0.906 1.359l-5.781 5.766-5.781-5.766q-0.594-0.594-0.906-1.359t-0.313-1.594q0-0.875 0.328-1.641t0.891-1.328 1.32-0.891 1.633-0.328q0.797 0 1.523 0.281t1.305 0.813zM19.359 18.719q0.641-0.641 0.641-1.531 0-0.453-0.172-0.852t-0.469-0.695-0.695-0.469-0.852-0.172q-0.891 0-1.531 0.641l-1.281 1.281-1.281-1.281q-0.641-0.641-1.531-0.641-0.453 0-0.852 0.172t-0.695 0.469-0.469 0.695-0.172 0.852q0 0.891 0.641 1.531l4.359 4.359z"></path>
</svg>
