<!-- Generated by IcoMoon.io -->
<svg version="1.1" xmlns="http://www.w3.org/2000/svg" width="32" height="32" viewBox="0 0 32 32">
<title>uniE75E</title>
<path d="M16 0q2.063 0 3.883 0.789t3.18 2.148 2.148 3.18 0.789 3.883v12q0 2.063-0.789 3.883t-2.148 3.18-3.18 2.148-3.883 0.789-3.883-0.789-3.18-2.148-2.148-3.18-0.789-3.883v-12q0-2.063 0.789-3.883t2.148-3.18 3.18-2.148 3.883-0.789zM16 16q1.234 0 2.328-0.477t1.906-1.289 1.289-1.906 0.477-2.328-0.477-2.328-1.289-1.906-1.906-1.289-2.328-0.477-2.328 0.477-1.906 1.289-1.289 1.906-0.477 2.328 0.477 2.328 1.289 1.906 1.906 1.289 2.328 0.477zM16 5.828q0.859 0 1.617 0.328t1.328 0.898 0.898 1.328 0.328 1.617-0.328 1.617-0.898 1.328-1.328 0.898-1.617 0.328-1.617-0.328-1.328-0.898-0.898-1.328-0.328-1.617 0.328-1.617 0.898-1.328 1.328-0.898 1.617-0.328z"></path>
</svg>
