<!-- Generated by IcoMoon.io -->
<svg version="1.1" xmlns="http://www.w3.org/2000/svg" width="32" height="32" viewBox="0 0 32 32">
<title>uniEA13</title>
<path d="M20 20.25q0.359 0 0.68 0.141t0.555 0.375 0.375 0.555 0.141 0.68-0.141 0.68-0.375 0.555-0.555 0.375-0.68 0.141-0.68-0.141-0.555-0.375-0.375-0.555-0.141-0.68 0.141-0.68 0.375-0.555 0.555-0.375 0.68-0.141zM20 26.25q0.359 0 0.68 0.141t0.555 0.375 0.375 0.555 0.141 0.68-0.141 0.68-0.375 0.555-0.555 0.375-0.68 0.141-0.68-0.141-0.555-0.375-0.375-0.555-0.141-0.68 0.141-0.68 0.375-0.555 0.555-0.375 0.68-0.141zM14 22.25q0.359 0 0.68 0.141t0.555 0.375 0.375 0.555 0.141 0.68-0.141 0.68-0.375 0.555-0.555 0.375-0.68 0.141-0.68-0.141-0.555-0.375-0.375-0.555-0.141-0.68 0.141-0.68 0.375-0.555 0.555-0.375 0.68-0.141zM14 28.25q0.359 0 0.68 0.141t0.555 0.375 0.375 0.555 0.141 0.68-0.141 0.68-0.375 0.555-0.555 0.375-0.68 0.141-0.68-0.141-0.555-0.375-0.375-0.555-0.141-0.68 0.141-0.68 0.375-0.555 0.555-0.375 0.68-0.141zM27.516 16.188q0.984 0.266 1.805 0.82t1.422 1.32 0.93 1.703 0.328 1.969q0 1.25-0.469 2.336t-1.289 1.906-1.914 1.289-2.328 0.469h-2v-2h2q0.828 0 1.555-0.313t1.273-0.859 0.859-1.273 0.313-1.555q0-0.859-0.32-1.594t-0.883-1.266-1.313-0.836-1.594-0.305q-0.188-1.281-0.797-2.383t-1.531-1.906-2.094-1.258-2.469-0.453q-1.188 0-2.281 0.391t-1.984 1.078-1.539 1.656-0.945 2.109q-0.688-0.594-1.516-0.914t-1.734-0.32q-1.031 0-1.945 0.391t-1.594 1.070-1.070 1.594-0.391 1.945 0.391 1.945 1.070 1.594 1.594 1.070 1.945 0.391h1v2h-1q-1.453 0-2.727-0.555t-2.219-1.5-1.5-2.219-0.555-2.727q0-1.203 0.398-2.328t1.148-2.063q-1.266-0.844-2.133-2.094t-1.195-2.734q0.906 0.219 1.781 0.219 1.656 0 3.117-0.625t2.547-1.711 1.711-2.547 0.625-3.117q0-0.453-0.063-0.898t-0.156-0.883q1.359 0.313 2.5 1.047t1.969 1.766 1.289 2.305 0.461 2.664v0.266t-0.016 0.266q1.438-0.531 3.016-0.531 1.453 0 2.789 0.453t2.461 1.273 1.969 1.953 1.297 2.508zM5.063 15.219q0.875-0.594 1.875-0.906t2.063-0.313q1.156 0 2.297 0.391 0.953-1.594 2.453-2.688 0.125-0.406 0.188-0.836t0.063-0.867q0-1.328-0.547-2.516t-1.563-2.047q-0.234 1.641-0.969 3.078t-1.852 2.555-2.555 1.852-3.078 0.969q0.344 0.406 0.758 0.734t0.867 0.594z"></path>
</svg>
