<!-- Generated by IcoMoon.io -->
<svg version="1.1" xmlns="http://www.w3.org/2000/svg" width="32" height="32" viewBox="0 0 32 32">
<title>uniF501</title>
<path d="M24 0v30q-0.922 0-1.781-0.047t-1.703-0.172-1.68-0.359-1.68-0.594q-2.094-0.891-3.781-2.305t-2.883-3.219-1.844-3.922-0.648-4.383q0-2.078 0.531-3.992t1.508-3.586 2.344-3.039 3.039-2.344 3.586-1.508 3.992-0.531h1zM22 2.031q-1.688 0.125-3.234 0.664t-2.875 1.414-2.422 2.055-1.859 2.578-1.188 2.984-0.422 3.273 0.422 3.273 1.188 2.984 1.859 2.578 2.422 2.055 2.875 1.414 3.234 0.664v-25.938z"></path>
</svg>
