<!-- Generated by IcoMoon.io -->
<svg version="1.1" xmlns="http://www.w3.org/2000/svg" width="32" height="32" viewBox="0 0 32 32">
<title>uniEAD0</title>
<path d="M25 4q0.625 0 1.172 0.234t0.953 0.641 0.641 0.953 0.234 1.172v14q0 1.859-0.711 3.5t-1.93 2.859-2.859 1.93-3.5 0.711q-2.25 0-4.195-0.859t-3.523-2.438l-7.375-7.375q-0.438-0.438-0.672-1.016t-0.234-1.188q0-0.656 0.25-1.227t0.672-0.992 0.992-0.664 1.211-0.242q0.625 0 1.188 0.242t1.016 0.68l1.672 1.656v-11.578q0-0.625 0.234-1.172t0.641-0.953 0.953-0.641 1.172-0.234q0.578 0 1.109 0.219 0.125-0.484 0.406-0.891t0.664-0.703 0.852-0.461 0.969-0.164 0.969 0.164 0.852 0.461 0.664 0.703 0.406 0.891q0.531-0.219 1.109-0.219 0.5 0 0.969 0.164t0.852 0.461 0.664 0.703 0.406 0.891q0.531-0.219 1.109-0.219zM26 7q0-0.406-0.297-0.703t-0.703-0.297-0.703 0.297-0.297 0.703v7q0 0.406-0.297 0.703t-0.703 0.297-0.703-0.297-0.297-0.703v-9q0-0.406-0.297-0.703t-0.703-0.297-0.703 0.297-0.297 0.703v8q0 0.406-0.297 0.703t-0.703 0.297-0.703-0.297-0.297-0.703v-10q0-0.406-0.297-0.703t-0.703-0.297-0.703 0.297-0.297 0.703v10q0 0.406-0.297 0.703t-0.703 0.297-0.703-0.297-0.297-0.703v-8q0-0.406-0.297-0.703t-0.703-0.297-0.703 0.297-0.297 0.703v12.297q0 0.359-0.133 0.664t-0.359 0.539-0.539 0.367-0.656 0.133-0.664-0.125-0.57-0.375l-2.172-2.172q-0.328-0.328-0.781-0.328t-0.789 0.328-0.336 0.797q0 0.453 0.328 0.781l7.375 7.391q1.313 1.313 2.875 2.008t3.422 0.695q1.453 0 2.727-0.555t2.219-1.5 1.5-2.219 0.555-2.727v-14z"></path>
</svg>
