<!-- Generated by IcoMoon.io -->
<svg version="1.1" xmlns="http://www.w3.org/2000/svg" width="32" height="32" viewBox="0 0 32 32">
<title>uniF18F</title>
<path d="M26 24h-2v-2h2v2zM22 24h-2v-2h2v2zM26 16h-2v-2h2v2zM22 16h-2v-2h2v2zM27 2q0.625 0 1.172 0.234t0.953 0.641 0.641 0.953 0.234 1.172v23h-28v-23q0-0.625 0.234-1.172t0.641-0.953 0.953-0.641 1.172-0.234h22zM28 20h-24v6h24v-6zM28 12h-24v6h24v-6zM28 10v-5q0-0.406-0.297-0.703t-0.703-0.297h-22q-0.406 0-0.703 0.297t-0.297 0.703v5h24zM24 6h2v2h-2v-2zM20 6h2v2h-2v-2z"></path>
</svg>
