<!-- Generated by IcoMoon.io -->
<svg version="1.1" xmlns="http://www.w3.org/2000/svg" width="32" height="32" viewBox="0 0 32 32">
<title>uniF55B</title>
<path d="M27 8q1.031 0 1.938 0.398t1.586 1.078 1.078 1.586 0.398 1.938v4.563q-0.313-0.781-0.828-1.453t-1.172-1.188v-1.922q0-0.625-0.234-1.172t-0.641-0.953-0.953-0.641-1.172-0.234h-22q-0.625 0-1.172 0.234t-0.953 0.641-0.641 0.953-0.234 1.172v5h18v2h-20v-7q0-1.031 0.391-1.938t1.070-1.586 1.594-1.078 1.945-0.398h22zM28 12v2h-2v-2h2zM24 14h-2v-2h2v2zM26 16q0.828 0 1.555 0.313t1.273 0.859 0.859 1.273 0.313 1.555v2h2v10h-12v-10h8v-2q0-0.422-0.156-0.781t-0.43-0.633-0.633-0.43-0.781-0.156-0.781 0.156-0.633 0.43-0.43 0.633-0.156 0.781h-2q0-0.828 0.313-1.555t0.859-1.273 1.273-0.859 1.555-0.313zM30 24h-8v6h8v-6z"></path>
</svg>
