<!-- Generated by IcoMoon.io -->
<svg version="1.1" xmlns="http://www.w3.org/2000/svg" width="32" height="32" viewBox="0 0 32 32">
<title>uniE479</title>
<path d="M31 20q0.406 0 0.703 0.297t0.297 0.703-0.297 0.703-0.703 0.297h-24q-0.406 0-0.703-0.297t-0.297-0.703 0.297-0.703 0.703-0.297h24zM25 24q0.406 0 0.703 0.297t0.297 0.703-0.266 0.688-0.672 0.313q-2.078 1.922-4.672 2.938t-5.422 1.016q-2.063 0-3.977-0.531t-3.578-1.508-3.031-2.344-2.344-3.031-1.508-3.578-0.531-3.977q0-1.891 0.453-3.664t1.289-3.352 2.023-2.914 2.648-2.359 3.172-1.68 3.586-0.891q-0.953 1.703-1.445 3.563t-0.492 3.813q0 2.281 0.672 4.445t1.969 4.055h13.125q0.406 0 0.703 0.297t0.297 0.703-0.297 0.703-0.703 0.297h-16q-0.406 0-0.703-0.297t-0.297-0.703q0-0.359 0.141-0.563t0.367-0.297 0.492-0.117 0.531-0.023q-1.125-1.953-1.711-4.102t-0.586-4.398q0-1.125 0.148-2.234t0.43-2.188q-1.781 0.766-3.219 2t-2.461 2.789-1.578 3.367-0.555 3.75q0 1.781 0.461 3.438t1.313 3.102 2.031 2.625 2.625 2.031 3.102 1.313 3.438 0.461q1.813 0 3.547-0.5t3.281-1.453h-10.797q-0.406 0-0.703-0.297t-0.297-0.703 0.297-0.703 0.703-0.297h14z"></path>
</svg>
