<!-- Generated by IcoMoon.io -->
<svg version="1.1" xmlns="http://www.w3.org/2000/svg" width="32" height="32" viewBox="0 0 32 32">
<title>uniE46B</title>
<path d="M16 0v6h-2v-6h2zM6 14v2h-6v-2h6zM9.344 7.922l-1.422 1.422-4.234-4.25 1.406-1.406zM26.313 5.094l-4.234 4.25-1.422-1.422 4.25-4.234zM32 21q0 0.406-0.297 0.703t-0.703 0.297h-24q-0.406 0-0.703-0.297t-0.297-0.703 0.297-0.703 0.703-0.297h3.109l-0.063-0.047q-0.5-0.469-0.875-1.047t-0.641-1.219-0.398-1.32-0.133-1.367q0-1.453 0.547-2.727t1.5-2.227 2.227-1.5 2.727-0.547 2.727 0.547 2.227 1.5 1.5 2.227 0.547 2.727q0 0.25-0.023 0.5t-0.055 0.5h5.078q0.406 0 0.703 0.297t0.297 0.703-0.297 0.703-0.703 0.297h-14q-0.406 0-0.703-0.297t-0.297-0.703 0.297-0.703 0.703-0.297h6.906q0.094-0.484 0.094-1 0-1.031-0.398-1.938t-1.078-1.586-1.586-1.078-1.938-0.398-1.945 0.398-1.594 1.078-1.070 1.586-0.391 1.938 0.391 1.945 1.070 1.594 1.594 1.070 1.945 0.391h16q0.406 0 0.703 0.297t0.297 0.703zM25 24q0.406 0 0.703 0.297t0.297 0.703-0.297 0.703-0.703 0.297h-14q-0.406 0-0.703-0.297t-0.297-0.703 0.297-0.703 0.703-0.297h14z"></path>
</svg>
