<!-- Generated by IcoMoon.io -->
<svg version="1.1" xmlns="http://www.w3.org/2000/svg" width="32" height="32" viewBox="0 0 32 32">
<title>uniEF37</title>
<path d="M12 6h2v22h-2v-10h-10v10h-2v-22h2v10h10v-10zM25.297 16.531q1.047 0.109 1.961 0.508t1.594 1.047 1.070 1.539 0.391 1.984q0 1.609-0.617 2.805t-1.656 1.992-2.391 1.195-2.82 0.398q-1.25 0-2.5-0.234t-2.328-0.922v-2.609q2.156 1.688 4.922 1.688 0.953 0 1.844-0.242t1.57-0.742 1.086-1.273 0.406-1.836q0-1.078-0.352-1.813t-0.945-1.195-1.383-0.703-1.641-0.344-1.727-0.109-1.656-0.008v-2.063q0.734 0 1.539-0.008t1.578-0.102 1.461-0.32 1.211-0.664 0.828-1.117 0.305-1.695q0-0.969-0.281-1.656t-0.797-1.125-1.258-0.641-1.664-0.203q-1.188 0-2.242 0.398t-1.992 1.117v-2.359q1.109-0.656 2.344-0.938t2.5-0.281q1.156 0 2.227 0.32t1.883 0.953 1.297 1.586 0.484 2.219q0 2.172-1.102 3.492t-3.148 1.898v0.063z"></path>
</svg>
