<!-- Generated by IcoMoon.io -->
<svg version="1.1" xmlns="http://www.w3.org/2000/svg" width="32" height="32" viewBox="0 0 32 32">
<title>uniEF36</title>
<path d="M12 6h2v22h-2v-10h-10v10h-2v-22h2v10h10v-10zM30.531 11.828q0 1.281-0.297 2.297t-0.82 1.859-1.227 1.547-1.523 1.344-1.703 1.266-1.758 1.313q-0.344 0.266-0.703 0.578t-0.688 0.656-0.594 0.734-0.406 0.813q-0.125 0.391-0.18 0.875t-0.055 0.891h9.422v2h-12q0-0.891 0.023-1.766t0.273-1.75q0.297-1.016 0.867-1.836t1.305-1.523 1.578-1.32 1.688-1.242 1.609-1.281 1.359-1.438 0.945-1.711 0.352-2.102q0-0.922-0.281-1.648t-0.797-1.234-1.258-0.781-1.648-0.273q-0.75 0-1.469 0.211t-1.375 0.57-1.25 0.844-1.078 1.016v-2.656q0.609-0.578 1.227-0.977t1.289-0.641 1.406-0.352 1.563-0.109q1.328 0 2.461 0.391t1.969 1.141 1.305 1.836 0.469 2.461z"></path>
</svg>
