<!-- Generated by IcoMoon.io -->
<svg version="1.1" xmlns="http://www.w3.org/2000/svg" width="32" height="32" viewBox="0 0 32 32">
<title>uniF348</title>
<path d="M16 0q1.656 0 3.188 0.43t2.867 1.211 2.43 1.875 1.875 2.43 1.211 2.867 0.43 3.188v8.5q0 0.625-0.438 1.063t-1.063 0.438h-4.5v-10h4q0-1.375-0.359-2.656t-1.008-2.391-1.563-2.023-2.023-1.563-2.391-1.008-2.656-0.359-2.656 0.359-2.391 1.008-2.023 1.563-1.563 2.023-1.008 2.391-0.359 2.656h4v10h-2v2q0 0.828 0.313 1.555t0.859 1.273 1.273 0.859 1.555 0.313v-0.75q0-0.516 0.367-0.883t0.883-0.367h5.5q0.516 0 0.883 0.367t0.367 0.883v3.5q0 0.516-0.367 0.883t-0.883 0.367h-5.5q-0.516 0-0.883-0.367t-0.367-0.883v-0.75q-1.25 0-2.344-0.469t-1.906-1.281-1.281-1.906-0.469-2.344v-2h-0.5q-0.625 0-1.063-0.438t-0.438-1.063v-8.5q0-1.656 0.43-3.188t1.211-2.867 1.875-2.43 2.43-1.875 2.867-1.211 3.188-0.43z"></path>
</svg>
