<!-- Generated by IcoMoon.io -->
<svg version="1.1" xmlns="http://www.w3.org/2000/svg" width="32" height="32" viewBox="0 0 32 32">
<title>uniE3BD</title>
<path d="M2.016 10.484q0 0.734 0.172 1.516h-2.047q-0.078-0.375-0.102-0.75t-0.023-0.75q0-1.766 0.664-3.313t1.813-2.703 2.695-1.82 3.313-0.664q1.688 0 3.258 0.641t2.758 1.844l1.484 1.5 1.484-1.5q1.188-1.203 2.758-1.844t3.258-0.641q1.75 0 3.297 0.664t2.695 1.805 1.813 2.688 0.664 3.297q0 1.531-0.531 2.953t-1.516 2.594h-7.344l-1.578-1.594-1.578 1.594h-2.844l4.422-4.406 2.422 2.406h5.547q0.5-0.797 0.766-1.688t0.266-1.828q0-1.359-0.508-2.531t-1.391-2.039-2.063-1.359-2.539-0.492q-1.281 0-2.477 0.469t-2.117 1.375l-2.906 2.906-2.906-2.906q-0.938-0.938-2.102-1.422t-2.492-0.484q-1.344 0-2.531 0.508t-2.063 1.391-1.383 2.063-0.508 2.523zM4.813 16l10.953 10.953q0.125 0.641 0.336 1.25t0.523 1.188l-0.625 0.625-13.516-13.5q-0.547-0.547-0.969-1.18t-0.734-1.336h3.797l4.422-4.406 7 6.984v2.844l-7-7.016-3.578 3.594h-0.609zM27.328 18.422v0zM32 25.016q0 1.453-0.547 2.719t-1.492 2.211-2.219 1.492-2.711 0.547q-1.453 0-2.719-0.547t-2.219-1.492-1.5-2.219-0.547-2.711q0-1.422 0.547-2.727t1.563-2.289h-2.141v-2h6v6h-1.984v-2.984q-0.938 0.719-1.469 1.758t-0.531 2.227q0 1.031 0.398 1.945t1.078 1.594 1.594 1.078 1.945 0.398 1.938-0.391 1.586-1.070 1.070-1.594 0.391-1.945q0-0.797-0.242-1.531t-0.68-1.359-1.055-1.094-1.367-0.734l0.672-1.875q1.047 0.375 1.898 1.031t1.461 1.523 0.945 1.898 0.336 2.141z"></path>
</svg>
