<!-- Generated by IcoMoon.io -->
<svg version="1.1" xmlns="http://www.w3.org/2000/svg" width="32" height="32" viewBox="0 0 32 32">
<title>uniF33F</title>
<path d="M23.5 2q1.766 0 3.313 0.664t2.695 1.813 1.813 2.695 0.664 3.313q0 0.906-0.188 1.797t-0.563 1.719h-7.234l-3-3.125-5 5-7-7-5 5.125h-3.234q-0.375-0.828-0.563-1.719t-0.188-1.797q0-1.766 0.664-3.313t1.813-2.695 2.695-1.813 3.313-0.664q1.703 0 3.258 0.641t2.758 1.844l1.484 1.5 1.484-1.5q1.203-1.203 2.758-1.844t3.258-0.641zM22 16h7.969q-0.109 0.125-0.219 0.258t-0.234 0.258l-13.516 13.5-13.516-13.5q-0.125-0.125-0.234-0.258t-0.219-0.258h3.969l3-2.875 7 7 5-5z"></path>
</svg>
