<!-- Generated by IcoMoon.io -->
<svg version="1.1" xmlns="http://www.w3.org/2000/svg" width="32" height="32" viewBox="0 0 32 32">
<title>uniEB51</title>
<path d="M23.5 2q1.766 0 3.313 0.672t2.703 1.82 1.82 2.703 0.664 3.305q0 1.703-0.648 3.266t-1.836 2.75l-13.516 13.5-13.516-13.5q-1.188-1.188-1.836-2.75t-0.648-3.266q0-1.75 0.664-3.305t1.82-2.703 2.703-1.82 3.313-0.672q1.297 0 2.313 0.297t1.883 0.82 1.656 1.258 1.648 1.609q0.859-0.875 1.648-1.609t1.656-1.258 1.883-0.82 2.313-0.297zM28.094 15.094q0.922-0.922 1.406-2.109t0.484-2.484q0-1.359-0.5-2.539t-1.383-2.047-2.063-1.359-2.539-0.492q-1.313 0-2.328 0.414t-1.875 1.086-1.648 1.523-1.648 1.727q-0.844-0.844-1.641-1.703t-1.664-1.547-1.891-1.125-2.305-0.438q-1.344 0-2.531 0.508t-2.070 1.391-1.391 2.070-0.508 2.531q0 1.297 0.492 2.484t1.414 2.109l12.094 12.094z"></path>
</svg>
