<!-- Generated by IcoMoon.io -->
<svg version="1.1" xmlns="http://www.w3.org/2000/svg" width="32" height="32" viewBox="0 0 32 32">
<title>uniEB52</title>
<path d="M29.516 4.484q0.828 0.828 1.383 1.813t0.828 2.047 0.273 2.164-0.273 2.156-0.828 2.039-1.383 1.813l-13.516 13.5-13.516-13.5q-0.828-0.828-1.383-1.813t-0.828-2.039-0.273-2.156 0.273-2.164 0.828-2.047 1.383-1.813q1.219-1.203 2.766-1.844t3.25-0.641 3.25 0.641 2.766 1.844l1.484 1.5 1.484-1.5q1.219-1.203 2.766-1.844t3.25-0.641 3.25 0.641 2.766 1.844z"></path>
</svg>
