<!-- Generated by IcoMoon.io -->
<svg version="1.1" xmlns="http://www.w3.org/2000/svg" width="32" height="32" viewBox="0 0 32 32">
<title>uniEA51</title>
<path d="M16 30h-2v2h2v-2zM15 0q-1.234 0-2.383 0.32t-2.148 0.906-1.828 1.414-1.414 1.828-0.906 2.148-0.32 2.383q0 1.313 0.344 2.375t0.906 1.945 1.281 1.633 1.469 1.453 1.469 1.398 1.281 1.477 0.906 1.688 0.344 2.031v3h2v-3q0-1.313-0.344-2.375t-0.906-1.945-1.281-1.625-1.469-1.445-1.469-1.406-1.281-1.484-0.906-1.688-0.344-2.031q0-1.453 0.555-2.727t1.5-2.219 2.219-1.5 2.727-0.555 2.727 0.555 2.219 1.5 1.5 2.219 0.555 2.727h2q0-1.234-0.32-2.383t-0.906-2.148-1.414-1.828-1.828-1.414-2.148-0.906-2.383-0.32z"></path>
</svg>
