<!-- Generated by IcoMoon.io -->
<svg version="1.1" xmlns="http://www.w3.org/2000/svg" width="32" height="32" viewBox="0 0 32 32">
<title>uniE3F8</title>
<path d="M21.984 12.563q-0.547 0.297-1.047 0.641t-0.938 0.781v-0.25l-4-2.281-4 2.281v4.531l4 2.281 1.531-0.875q0 0.078-0.016 0.164t-0.016 0.164q0 0.469 0.070 0.938t0.18 0.922l-1.75 1-6-3.438v-6.844l6-3.438zM4 9.156v13.688l9.047 5.156q-0.391 0.406-0.711 0.742t-0.539 0.852l-9.797-5.594v-16l14-8 14 8v4.547q-0.953-0.531-2-0.781v-2.609l-12-6.859zM26 14q1.234 0 2.328 0.469t1.914 1.289 1.289 1.914 0.469 2.328q0 1.25-0.469 2.336t-1.289 1.906-1.914 1.289-2.328 0.469q-0.938 0-1.828-0.281t-1.641-0.828l-6.828 6.813q-0.297 0.297-0.703 0.297t-0.703-0.297-0.297-0.703 0.297-0.703l6.813-6.828q-0.547-0.75-0.828-1.641t-0.281-1.828q0-1.234 0.469-2.328t1.289-1.914 1.906-1.289 2.336-0.469zM26 24q0.828 0 1.555-0.313t1.273-0.859 0.859-1.273 0.313-1.555-0.313-1.555-0.859-1.273-1.273-0.859-1.555-0.313-1.555 0.313-1.273 0.859-0.859 1.273-0.313 1.555 0.313 1.555 0.859 1.273 1.273 0.859 1.555 0.313z"></path>
</svg>
