<!-- Generated by IcoMoon.io -->
<svg version="1.1" xmlns="http://www.w3.org/2000/svg" width="32" height="32" viewBox="0 0 32 32">
<title>uniE3FA</title>
<path d="M4 9.156v13.688l10.078 5.75q-0.172 0.5-0.289 1.008t-0.195 1.023l-11.594-6.625v-16l14-8 14 8v6q-0.438-0.438-0.945-0.789t-1.055-0.664v-3.391l-12-6.859zM16 11.453l-4 2.281v4.531l3.516 2.016q0.031 0.656 0.164 1.297t0.352 1.266l-0.031 0.016-6-3.438v-6.844l6-3.438 5.078 2.906q-0.547 0.219-1.070 0.484t-1.008 0.625zM27.547 24.828q1.016 0.516 1.844 1.266t1.406 1.688 0.891 2.008 0.313 2.211h-2q0-1.234-0.469-2.328t-1.289-1.914-1.914-1.289-2.328-0.469q-1.25 0-2.336 0.469t-1.906 1.289-1.289 1.914-0.469 2.328h-2q0-1.141 0.313-2.211t0.891-2.008 1.406-1.688 1.844-1.266q-1.156-0.844-1.805-2.117t-0.648-2.711q0-1.234 0.469-2.328t1.289-1.914 1.906-1.289 2.336-0.469q1.234 0 2.328 0.469t1.906 1.289 1.281 1.914 0.469 2.328q0 1.438-0.641 2.711t-1.797 2.117zM20 20q0 0.828 0.313 1.555t0.859 1.273 1.273 0.859 1.555 0.313 1.555-0.313 1.273-0.859 0.859-1.273 0.313-1.555-0.313-1.555-0.859-1.273-1.273-0.859-1.555-0.313-1.555 0.313-1.273 0.859-0.859 1.273-0.313 1.555z"></path>
</svg>
