<!-- Generated by IcoMoon.io -->
<svg version="1.1" xmlns="http://www.w3.org/2000/svg" width="32" height="32" viewBox="0 0 32 32">
<title>uniE3F9</title>
<path d="M12 18.266l3.078 1.766q0.141 0.109 0.438 0.398t0.625 0.617 0.625 0.641 0.453 0.469l-1.219 0.703-6-3.438v-6.844l6-3.438 6 3.438v4.469l-2-2v-1.313l-4-2.281-4 2.281v4.531zM4 9.156v13.688l11.594 6.625-1.469 1.453-12.125-6.922v-16l14-8 14 8v7.047l-2 2v-7.891l-12-6.859zM31.703 19.703l-5.297 5.297 5.297 5.297-1.406 1.406-5.297-5.297-5.297 5.297-1.406-1.406 5.297-5.297-5.297-5.297 1.406-1.406 5.297 5.297 5.297-5.297z"></path>
</svg>
