<!-- Generated by IcoMoon.io -->
<svg version="1.1" xmlns="http://www.w3.org/2000/svg" width="32" height="32" viewBox="0 0 32 32">
<title>uniF6AC</title>
<path d="M1.156 4.563l1.406-1.406 25.469 25.453-1.422 1.422-7.141-7.141q-0.844 0.547-1.648 0.828t-1.82 0.281q-1.25 0-2.344-0.469t-1.906-1.281-1.281-1.906-0.469-2.344q0-1.016 0.281-1.82t0.828-1.648l-5-5q-1.953 1.641-3.031 3.766t-1.078 4.703h-2q0-1.422 0.328-2.805t0.938-2.656 1.477-2.391 1.961-2.023zM12 18q0 0.828 0.313 1.555t0.859 1.273 1.273 0.859 1.555 0.313q0.563 0 1.047-0.148t0.969-0.414l-5.453-5.453q-0.266 0.484-0.414 0.969t-0.148 1.047zM17.125 14.172l-2.078-2.078q0.234-0.031 0.477-0.063t0.477-0.031q1.234 0 2.328 0.469t1.914 1.289 1.289 1.914 0.469 2.328q0 0.234-0.031 0.477t-0.063 0.477l-2.078-2.078q-0.656-2.047-2.703-2.703zM32 18h-2q0-1.844-0.563-3.453t-1.555-2.938-2.336-2.375-2.898-1.766-3.25-1.094-3.398-0.375q-1.531 0-3 0.297t-2.891 0.875l-1.531-1.531q1.813-0.828 3.617-1.234t3.805-0.406q2.25 0 4.453 0.555t4.148 1.633 3.523 2.664 2.594 3.648q0.625 1.281 0.953 2.672t0.328 2.828z"></path>
</svg>
