<!-- Generated by IcoMoon.io -->
<svg version="1.1" xmlns="http://www.w3.org/2000/svg" width="32" height="32" viewBox="0 0 32 32">
<title>uniF403</title>
<path d="M2 8h6v18h-6v-18zM4 24h2v-14h-2v14zM20 16.953q-1.109 0.703-2 1.672v-14.625h6v11.594q-0.5 0.063-1.008 0.164t-0.992 0.273v-10.031h-2v10.953zM10 12h6v14h-6v-14zM12 24h2v-10h-2v10zM25 18q1.453 0 2.719 0.555t2.219 1.5 1.5 2.219 0.547 2.727-0.547 2.727-1.5 2.219-2.219 1.5-2.719 0.555-2.727-0.555-2.219-1.5-1.5-2.219-0.555-2.727 0.555-2.727 1.5-2.219 2.219-1.5 2.727-0.555zM25 30q0.734 0 1.438-0.211t1.313-0.617l-6.922-6.922q-0.406 0.609-0.617 1.313t-0.211 1.438q0 1.031 0.391 1.945t1.070 1.594 1.594 1.070 1.945 0.391zM29.172 27.75q0.406-0.609 0.617-1.313t0.211-1.438q0-1.031-0.398-1.938t-1.078-1.586-1.586-1.078-1.938-0.398q-0.734 0-1.438 0.211t-1.313 0.617z"></path>
</svg>
