<!-- Generated by IcoMoon.io -->
<svg version="1.1" xmlns="http://www.w3.org/2000/svg" width="32" height="32" viewBox="0 0 32 32">
<title>uniEF89</title>
<path d="M25 18q1.453 0 2.727 0.547t2.227 1.5 1.5 2.227 0.547 2.727-0.547 2.727-1.5 2.227-2.227 1.5-2.727 0.547-2.727-0.547-2.227-1.5-1.5-2.227-0.547-2.727 0.547-2.727 1.5-2.227 2.227-1.5 2.727-0.547zM20 25q0 1.031 0.391 1.945t1.070 1.594 1.594 1.070 1.945 0.391q0.734 0 1.438-0.211t1.313-0.617l-6.922-6.922q-0.406 0.609-0.617 1.313t-0.211 1.438zM29.172 27.75q0.406-0.609 0.617-1.313t0.211-1.438q0-1.031-0.398-1.938t-1.078-1.586-1.586-1.078-1.938-0.398q-0.734 0-1.438 0.211t-1.313 0.617zM0.016 16.031l-0.016 0.047v-0.078zM29.859 16.266q-0.281-1.625-0.984-3.016t-1.734-2.531-2.313-2.016-2.734-1.477-3-0.914-3.094-0.313q-1.703 0-3.398 0.375t-3.25 1.094-2.898 1.766-2.336 2.375-1.555 2.938-0.563 3.453h-2q0-2.125 0.633-3.984t1.758-3.414 2.648-2.781 3.297-2.078 3.727-1.297 3.938-0.445q1.953 0 3.898 0.445t3.711 1.281 3.289 2.047 2.648 2.75 1.773 3.383 0.68 3.953q-0.953-0.922-2.141-1.594zM16 14q-0.828 0-1.555 0.313t-1.273 0.859-0.859 1.273-0.313 1.555q0 0.75 0.266 1.43t0.727 1.211 1.094 0.883 1.383 0.445q-0.313 1-0.406 1.953-1.094-0.172-2.016-0.703t-1.602-1.32-1.063-1.789-0.383-2.109q0-1.234 0.469-2.328t1.289-1.914 1.906-1.289 2.336-0.469q0.891 0 1.734 0.258t1.563 0.734 1.289 1.148 0.93 1.484q-0.969 0.359-1.797 0.891-0.234-0.563-0.609-1.031t-0.859-0.797-1.063-0.508-1.188-0.18z"></path>
</svg>
