<!-- Generated by IcoMoon.io -->
<svg version="1.1" xmlns="http://www.w3.org/2000/svg" width="32" height="32" viewBox="0 0 32 32">
<title>uniED1A</title>
<path d="M16 14q0.422 0 0.781 0.156t0.633 0.43 0.43 0.633 0.156 0.781-0.156 0.781-0.43 0.633-0.633 0.43-0.781 0.156-0.781-0.156-0.633-0.43-0.43-0.633-0.156-0.781 0.156-0.781 0.43-0.633 0.633-0.43 0.781-0.156zM25 18q1.453 0 2.727 0.547t2.227 1.5 1.5 2.227 0.547 2.727-0.547 2.727-1.5 2.227-2.227 1.5-2.727 0.547-2.727-0.547-2.227-1.5-1.5-2.227-0.547-2.727 0.547-2.727 1.5-2.227 2.227-1.5 2.727-0.547zM20 25q0 1.031 0.391 1.945t1.070 1.594 1.594 1.070 1.945 0.391q0.734 0 1.438-0.211t1.313-0.617l-6.922-6.922q-0.406 0.609-0.617 1.313t-0.211 1.438zM29.172 27.75q0.406-0.609 0.617-1.313t0.211-1.438q0-1.031-0.398-1.938t-1.078-1.586-1.586-1.078-1.938-0.398q-0.734 0-1.438 0.211t-1.313 0.617zM10 16q0 1.156 0.406 2.18t1.125 1.82 1.695 1.313 2.117 0.656q0.297 0.031 0.602 0.031h0.602q-0.344 0.984-0.453 2-2.375 0-4.602-0.602t-4.266-1.664-3.859-2.531-3.367-3.203q1.516-1.703 3.328-3.172t3.852-2.539 4.258-1.68 4.563-0.609q2.391 0 4.625 0.57t4.258 1.617 3.82 2.523 3.297 3.289l-1.422 1.422-0.125-0.141q-1.688-1.969-3.633-3.508t-4.367-2.508q0.75 1.031 1.148 2.25t0.398 2.484v0.094q-1.016 0.109-2 0.453v-0.547q0-1.234-0.477-2.328t-1.289-1.906-1.906-1.289-2.328-0.477-2.328 0.477-1.906 1.289-1.289 1.906-0.477 2.328zM9.422 20.547q-0.703-1-1.063-2.164t-0.359-2.383 0.359-2.383 1.063-2.164q-1.875 0.813-3.531 1.969t-3.125 2.578q1.469 1.422 3.125 2.578t3.531 1.969z"></path>
</svg>
