<!-- Generated by IcoMoon.io -->
<svg version="1.1" xmlns="http://www.w3.org/2000/svg" width="32" height="32" viewBox="0 0 32 32">
<title>uniE7E6</title>
<path d="M32 0v8q-1.359 0-2.328 0.305t-1.648 0.852-1.094 1.289-0.633 1.633-0.297 1.875-0.078 2.016 0.039 2.047 0.039 1.984h-4v6l-12 6v-12h-4q0-0.969 0.039-1.984t0.039-2.047-0.078-2.016-0.297-1.875-0.633-1.633-1.094-1.289-1.656-0.852-2.32-0.305v-8h2v6h28v-6h2zM20 20h-8v8.766l8-4v-4.766zM24 18q0-0.703-0.016-1.375t-0.016-1.344q0-1 0.078-1.969t0.32-1.883 0.719-1.773 1.273-1.656h-20.719q0.797 0.797 1.273 1.664t0.719 1.781 0.32 1.875 0.078 1.961q0 0.672-0.016 1.344t-0.016 1.375h16z"></path>
</svg>
