<!-- Generated by IcoMoon.io -->
<svg version="1.1" xmlns="http://www.w3.org/2000/svg" width="32" height="32" viewBox="0 0 32 32">
<title>uniF50F</title>
<path d="M32 4v6h-2v-4h-28v18h14v2h-16v-22h32zM24 10q1.656 0 3.117 0.625t2.547 1.711 1.711 2.547 0.625 3.117-0.602 3.055-1.727 2.586l-0.5 0.531q-0.188 0.203-0.391 0.461t-0.367 0.555-0.266 0.602-0.102 0.586v2.625q0 0.641-0.242 1.195t-0.648 0.961-0.969 0.648-1.188 0.242h-2q-0.641 0-1.195-0.242t-0.961-0.648-0.648-0.961-0.242-1.195v-2.625q-0.016-0.391-0.172-0.766t-0.391-0.719-0.523-0.656-0.539-0.594q-1.125-1.188-1.727-2.586t-0.602-3.055 0.625-3.117 1.711-2.547 2.547-1.711 3.117-0.625zM25.953 28.047h-3.906v0.953q0 0.391 0.281 0.672t0.672 0.281h2q0.391 0 0.672-0.281t0.281-0.672v-0.953zM26.094 25.953q0.156-0.891 0.5-1.539t0.781-1.188 0.898-1.031 0.844-1.078 0.633-1.328 0.25-1.789q0-1.25-0.469-2.344t-1.281-1.906-1.906-1.281-2.344-0.469-2.344 0.469-1.906 1.281-1.281 1.906-0.469 2.344q0 1.188 0.453 2.305t1.297 1.992q0.422 0.422 0.773 0.82t0.625 0.82 0.461 0.914 0.297 1.102h4.188z"></path>
</svg>
