<!-- Generated by IcoMoon.io -->
<svg version="1.1" xmlns="http://www.w3.org/2000/svg" width="32" height="32" viewBox="0 0 32 32">
<title>uniE91D</title>
<path d="M14 12v4h-4v4h4v4h4v-4h4v-4h-4v-4h-4zM20 14h4v8h-4v4h-8v-4h-4v-8h4v-4h8v4zM29 6q0.625 0 1.172 0.234t0.953 0.641 0.641 0.953 0.234 1.172v18q0 0.625-0.234 1.172t-0.641 0.953-0.953 0.641-1.172 0.234h-26q-0.625 0-1.172-0.234t-0.953-0.641-0.641-0.953-0.234-1.172v-18q0-0.625 0.234-1.172t0.641-0.953 0.953-0.641 1.172-0.234h5q0-0.578-0.016-1.281t0.148-1.305 0.578-1.008 1.289-0.406h12q0.578 0 0.953 0.188t0.594 0.5 0.32 0.727 0.133 0.859 0.016 0.891-0.016 0.836h5zM10 6h12v-2h-12v2zM30 9q0-0.406-0.297-0.703t-0.703-0.297h-26q-0.406 0-0.703 0.297t-0.297 0.703v18q0 0.406 0.297 0.703t0.703 0.297h26q0.406 0 0.703-0.297t0.297-0.703v-18z"></path>
</svg>
