<!-- Generated by IcoMoon.io -->
<svg version="1.1" xmlns="http://www.w3.org/2000/svg" width="32" height="32" viewBox="0 0 32 32">
<title>uniECE2</title>
<path d="M16 22.188q0.438 0.156 0.813 0.438t0.633 0.648 0.406 0.813 0.148 0.914q0 0.625-0.234 1.172t-0.641 0.953-0.953 0.641-1.172 0.234-1.172-0.234-0.953-0.641-0.641-0.953-0.234-1.172q0-0.469 0.148-0.914t0.406-0.813 0.625-0.648 0.82-0.438v-17.188q0-0.406 0.297-0.703t0.703-0.297 0.703 0.297 0.297 0.703v17.188zM20 20.609q0.891 0.984 1.391 2.188t0.5 2.531q0 1.406-0.555 2.625t-1.508 2.117-2.203 1.414-2.625 0.516q-1.391 0-2.633-0.516t-2.195-1.414-1.508-2.117-0.555-2.625q0-1.328 0.5-2.531t1.391-2.188v-15.609q0-1.031 0.391-1.938t1.070-1.586 1.594-1.078 1.945-0.398 1.938 0.398 1.586 1.078 1.078 1.586 0.398 1.938v15.609zM15 30q0.969 0 1.852-0.359t1.555-0.984 1.070-1.484 0.398-1.844q0-1.172-0.516-2.148t-1.359-1.758v-16.422q0-0.625-0.234-1.172t-0.641-0.953-0.953-0.641-1.172-0.234-1.172 0.234-0.953 0.641-0.641 0.953-0.234 1.172v16.422q-0.844 0.781-1.359 1.758t-0.516 2.148q0 0.984 0.398 1.844t1.070 1.484 1.555 0.984 1.852 0.359z"></path>
</svg>
