<!-- Generated by IcoMoon.io -->
<svg version="1.1" xmlns="http://www.w3.org/2000/svg" width="32" height="32" viewBox="0 0 32 32">
<title>uniE824</title>
<path d="M32 18v12h-2v-2h-28v2h-2v-12h2v1.766l4-8v-9.766h2v2h16v-2h2v6q0.422 0 0.781 0.156t0.633 0.43 0.43 0.633 0.156 0.781v4q0 0.609-0.328 1.094l2.328 4.672v-1.766h2zM18 10v4h8v-4h-8zM8 6v6h8v-2q0-0.422 0.156-0.781t0.43-0.633 0.633-0.43 0.781-0.156h6v-2h-16zM4.125 20h23.75l-2-4h-7.875q-0.422 0-0.781-0.156t-0.633-0.43-0.43-0.633-0.156-0.781h-8.891zM30 26v-4h-28v4h28z"></path>
</svg>
