<!-- Generated by IcoMoon.io -->
<svg version="1.1" xmlns="http://www.w3.org/2000/svg" width="32" height="32" viewBox="0 0 32 32">
<title>uniEA03</title>
<path d="M26 4q0 1.656-0.477 3.227t-1.414 2.945q-0.484 0.703-1.016 1.281t-1.133 1.055-1.273 0.883-1.438 0.766q-0.578 0.266-0.914 0.727t-0.336 1.117 0.336 1.117 0.914 0.727q0.766 0.359 1.438 0.766t1.273 0.883 1.133 1.055 1.016 1.281q0.938 1.375 1.414 2.945t0.477 3.227h2v2h-26v-2h2q0-1.656 0.477-3.227t1.414-2.945q0.5-0.734 1.031-1.305t1.117-1.039 1.258-0.859 1.453-0.766q0.563-0.266 0.906-0.734t0.344-1.125-0.336-1.117-0.914-0.727q-0.766-0.359-1.438-0.766t-1.273-0.883-1.133-1.055-1.016-1.281q-0.938-1.375-1.414-2.945t-0.477-3.227h-2v-2h26v2h-2zM16 16q0-1.281 0.672-2.219t1.797-1.484q0.453-0.219 0.875-0.43t0.828-0.508q0.906-0.625 1.617-1.445t1.203-1.766 0.75-2 0.258-2.148h-18q0 1.094 0.258 2.148t0.75 2 1.203 1.766 1.617 1.445q0.406 0.297 0.828 0.508t0.875 0.43q1.125 0.547 1.797 1.484t0.672 2.219-0.672 2.219-1.797 1.484q-0.453 0.219-0.875 0.43t-0.828 0.508q-0.906 0.625-1.617 1.445t-1.203 1.766-0.75 2-0.258 2.148h18q0-1.094-0.258-2.148t-0.75-2-1.203-1.766-1.617-1.445q-0.406-0.297-0.828-0.508t-0.875-0.43q-1.125-0.547-1.797-1.484t-0.672-2.219z"></path>
</svg>
