<!-- Generated by IcoMoon.io -->
<svg version="1.1" xmlns="http://www.w3.org/2000/svg" width="32" height="32" viewBox="0 0 32 32">
<title>uniE473</title>
<path d="M18 25l3-5 3 5-3 5zM10 27l3-5 3 5-3 5zM27.516 16.188q0.984 0.266 1.805 0.82t1.422 1.32 0.93 1.703 0.328 1.969q0 0.953-0.289 1.836t-0.813 1.617-1.266 1.297-1.633 0.875v-2.172q0.922-0.547 1.461-1.461t0.539-1.992q0-0.859-0.32-1.586t-0.883-1.266-1.305-0.844-1.586-0.305q-0.188-1.281-0.797-2.383t-1.531-1.906-2.094-1.258-2.484-0.453q-1.203 0-2.289 0.391t-1.977 1.078-1.539 1.656-0.945 2.109q-0.688-0.594-1.516-0.914t-1.734-0.32q-1.031 0-1.945 0.391t-1.594 1.070-1.070 1.594-0.391 1.945q0 0.891 0.297 1.703t0.828 1.461 1.266 1.102 1.609 0.625v2q-1.281-0.188-2.383-0.797t-1.906-1.531-1.258-2.094-0.453-2.469q0-1.453 0.555-2.727t1.5-2.219 2.219-1.5 2.727-0.555q1.156 0 2.297 0.391 0.609-1.016 1.445-1.828t1.828-1.383 2.117-0.875 2.313-0.305q1.453 0 2.789 0.453t2.461 1.273 1.969 1.953 1.297 2.508z"></path>
</svg>
