<!-- Generated by IcoMoon.io -->
<svg version="1.1" xmlns="http://www.w3.org/2000/svg" width="32" height="32" viewBox="0 0 32 32">
<title>uniF4E8</title>
<path d="M26 9q0 0.406-0.297 0.703t-0.703 0.297-0.703-0.297-0.297-0.703 0.297-0.703 0.703-0.297 0.703 0.297 0.297 0.703zM32 4v9.984q-0.438-0.438-0.945-0.789t-1.055-0.648v-6.547h-28v10.578l7-6.984 8.688 8.672q-0.188 0.844-0.188 1.734 0 0.25 0.031 0.5l0.063 0.5-8.594-8.594-7 7.016v6.578h13.047l-2 2h-13.047v-24h32zM26 14q1.234 0 2.328 0.469t1.914 1.289 1.289 1.914 0.469 2.328q0 1.25-0.469 2.336t-1.289 1.906-1.914 1.289-2.328 0.469q-0.938 0-1.82-0.289t-1.648-0.836l-6.828 6.828q-0.297 0.297-0.703 0.297t-0.703-0.297-0.297-0.703 0.297-0.703l6.828-6.828q-0.547-0.766-0.836-1.648t-0.289-1.82q0-1.234 0.469-2.328t1.289-1.914 1.906-1.289 2.336-0.469zM26 24q0.828 0 1.555-0.313t1.273-0.859 0.859-1.273 0.313-1.555-0.313-1.555-0.859-1.273-1.273-0.859-1.555-0.313-1.555 0.313-1.273 0.859-0.859 1.273-0.313 1.555 0.313 1.555 0.859 1.273 1.273 0.859 1.555 0.313z"></path>
</svg>
