<!-- Generated by IcoMoon.io -->
<svg version="1.1" xmlns="http://www.w3.org/2000/svg" width="32" height="32" viewBox="0 0 32 32">
<title>uniE420</title>
<path d="M23 10q-0.406 0-0.703-0.297t-0.297-0.703 0.297-0.703 0.703-0.297 0.703 0.297 0.297 0.703-0.297 0.703-0.703 0.297zM0 26v-22h28v10.078l-2-1v-7.078h-24v6.578l3-2.984 8 8 4-4 2 2-1.875 0.938-0.125-0.125-2.594 2.594 1.594 1.594v2.828l-11-11.016-3 3.016v8.578h14v2h-16zM22.313 16.719l2.688-1.344 2.688 1.344-0.891 1.797-1.797-0.891-1.781 0.891zM29.203 17.484l2.797 1.406v3.109h-2v-0.891l-0.797 0.406-0.891-1.797 0.453-0.219-0.453-0.219zM30 26.891v-2.891h2v4.125l-2.797 1.391-0.891-1.797zM26 28.891l0.797-0.406 0.891 1.797-2.688 1.344-2.688-1.344 0.906-1.797 0.781 0.406v-0.891h2v0.891zM20 24v2.875l1.688 0.844-0.891 1.797-2.797-1.391v-4.125h2zM20.797 17.484l0.891 1.797-0.453 0.219 0.453 0.219-0.891 1.797-0.797-0.406v0.891h-2v-3.125zM25 21.391l1.797-0.891 0.891 1.781-1.688 0.844v2.875h-2v-2.875l-1.688-0.844 0.891-1.781z"></path>
</svg>
