<!-- Generated by IcoMoon.io -->
<svg version="1.1" xmlns="http://www.w3.org/2000/svg" width="32" height="32" viewBox="0 0 32 32">
<title>uniF41C</title>
<path d="M30 19.938q0.016 0.047 0.023 0.75t0.008 1.766q0 1.047-0.008 2.281t-0.008 2.336-0.008 1.914-0.008 1.016h-30q0-0.203-0.008-1.016t-0.008-1.914-0.008-2.336-0.008-2.281q0-1.063 0.008-1.766t0.023-0.75l5.984-17.938h18.031zM28 22h-5.375l-2 4h-11.25l-2-4h-5.375v6h26v-6zM27.906 20l-5.328-16h-15.156l-5.328 16h6.531l2 4h8.75l2-4h6.531z"></path>
</svg>
