<!-- Generated by IcoMoon.io -->
<svg version="1.1" xmlns="http://www.w3.org/2000/svg" width="32" height="32" viewBox="0 0 32 32">
<title>uniEF64</title>
<path d="M13 12.406l-5.703-5.703 1.406-1.406 4.297 4.297 8.297-8.297 1.406 1.406zM30 19.938q0.016 0.031 0.023 0.453t0.008 1.086v1.508t-0.008 1.742-0.008 1.773-0.008 1.602-0.008 1.234v0.664h-30v-0.664t-0.008-1.234-0.008-1.602-0.008-1.773-0.008-1.742v-1.508t0.008-1.086 0.023-0.453l3.719-11.156 1.578 1.594-3.203 9.625h6.531l2 4h8.75l2-4h6.531l-4.203-12.641 1.578-1.578zM28 22h-5.375l-2 4h-11.25l-2-4h-5.375v6h26v-6z"></path>
</svg>
