<!-- Generated by IcoMoon.io -->
<svg version="1.1" xmlns="http://www.w3.org/2000/svg" width="32" height="32" viewBox="0 0 32 32">
<title>uniE497</title>
<path d="M27 12.5q0.125 0 0.25-0.023t0.25-0.023q0.047 0.125 0.25 0.727t0.477 1.43 0.586 1.766 0.578 1.727 0.438 1.313l0.172 0.523v10.063h-30v-10.063l0.156-0.477t0.43-1.289 0.633-1.898 0.773-2.32 0.852-2.555 0.867-2.594 0.813-2.43 0.688-2.070l0.508-1.523t0.266-0.781h14.156q-0.219 0.484-0.344 0.984t-0.203 1.016h-12.172l-5.328 16h6.531l2 4h8.75l2-4h6.531l-2.563-7.703q0.406 0.094 0.82 0.148t0.836 0.055zM28 28v-6h-5.375l-2 4h-11.25l-2-4h-5.375v6h26zM27 0q1.031 0 1.945 0.391t1.594 1.070 1.070 1.594 0.391 1.945-0.391 1.945-1.070 1.594-1.594 1.070-1.945 0.391-1.945-0.391-1.594-1.070-1.070-1.594-0.391-1.945 0.391-1.945 1.070-1.594 1.594-1.070 1.945-0.391z"></path>
</svg>
