<!-- Generated by IcoMoon.io -->
<svg version="1.1" xmlns="http://www.w3.org/2000/svg" width="32" height="32" viewBox="0 0 32 32">
<title>uniF803</title>
<path d="M6 2h26v10h-2v5l-5-5h-1v-2h1.828l2.172 2.172v-2.172h2v-6h-22v4.672q-0.656 0.734-1.148 1.563t-0.805 1.766h-0.047v-10zM15 22q-1.453 0-2.727-0.547t-2.227-1.5-1.5-2.227-0.547-2.727 0.547-2.727 1.5-2.227 2.227-1.5 2.727-0.547 2.727 0.547 2.227 1.5 1.5 2.227 0.547 2.727-0.547 2.727-1.5 2.227-2.227 1.5-2.727 0.547zM20 15q0-1.031-0.398-1.938t-1.078-1.586-1.586-1.078-1.938-0.398q-0.734 0-1.438 0.211t-1.313 0.617l6.922 6.922q0.406-0.609 0.617-1.313t0.211-1.438zM10 15q0 1.031 0.391 1.945t1.070 1.594 1.594 1.070 1.945 0.391q0.734 0 1.438-0.211t1.313-0.617l-6.922-6.922q-0.406 0.609-0.617 1.313t-0.211 1.438zM24 24v-8h2v10h-19l-5 5v-5h-2v-10h6v2h-4v6h2v2.172l2.172-2.172h17.828z"></path>
</svg>
