<!-- Generated by IcoMoon.io -->
<svg version="1.1" xmlns="http://www.w3.org/2000/svg" width="32" height="32" viewBox="0 0 32 32">
<title>uniF167</title>
<path d="M15 0q2.063 0 3.984 0.539t3.586 1.516 3.031 2.344 2.344 3.031 1.516 3.586 0.539 3.984-0.539 3.984-1.516 3.586-2.344 3.031-3.031 2.344-3.586 1.516-3.984 0.539-3.984-0.539-3.586-1.516-3.031-2.344-2.344-3.031-1.516-3.578-0.539-3.992q0-2.063 0.539-3.984t1.516-3.586 2.344-3.031 3.031-2.344 3.578-1.516 3.992-0.539zM16 12h-2v10h2v-10zM16 8h-2v2h2v-2z"></path>
</svg>
