<!-- Generated by IcoMoon.io -->
<svg version="1.1" xmlns="http://www.w3.org/2000/svg" width="32" height="32" viewBox="0 0 32 32">
<title>uniE41E</title>
<path d="M2 12v8h18v2h-20v-12h16.141q0.234 0.547 0.57 1.047t0.742 0.953h-15.453zM29.859 10h2.141v12h-6v-2h4v-8h-1.453q0.406-0.453 0.742-0.953t0.57-1.047zM24 11.906v16.094l-1 2-1-2v-16.094q-0.875-0.188-1.609-0.641t-1.266-1.102-0.828-1.461-0.297-1.703q0-1.031 0.391-1.945t1.070-1.594 1.594-1.070 1.945-0.391 1.938 0.398 1.586 1.078 1.078 1.586 0.398 1.938q0 0.891-0.297 1.703t-0.828 1.461-1.266 1.102-1.609 0.641zM26 7q0-0.625-0.234-1.172t-0.641-0.953-0.953-0.641-1.172-0.234-1.172 0.234-0.953 0.641-0.641 0.953-0.234 1.172 0.234 1.172 0.641 0.953 0.953 0.641 1.172 0.234 1.172-0.234 0.953-0.641 0.641-0.953 0.234-1.172z"></path>
</svg>
