<!-- Generated by IcoMoon.io -->
<svg version="1.1" xmlns="http://www.w3.org/2000/svg" width="32" height="32" viewBox="0 0 32 32">
<title>uniEC7D</title>
<path d="M32 6.063v23.813h-27.813v-6h1.813v4.188h24.188v-20.188h-12.188v-1.813h14zM5.844 19.875h-5.844v-0.688q0.297-0.047 0.594-0.086t0.578-0.117q0.219-0.063 0.477-0.406t0.492-0.766 0.43-0.836 0.289-0.633l6.063-14.344h1.281l5.969 14.5q0.141 0.344 0.336 0.781t0.453 0.836 0.594 0.688 0.758 0.336q0.438 0.047 0.875 0.047v0.688h-6.969v-0.688q0.266 0 0.578 0.008t0.586-0.063 0.461-0.25 0.188-0.57q0-0.344-0.172-0.945t-0.406-1.242-0.477-1.242-0.398-0.961h-6.969q-0.141 0.359-0.414 0.961t-0.531 1.242-0.453 1.234-0.195 0.938q0 0.375 0.188 0.555t0.469 0.242 0.602 0.070 0.57 0.023v0.688zM6.281 11.922h5.375l-2.75-5.906z"></path>
</svg>
