<!-- Generated by IcoMoon.io -->
<svg version="1.1" xmlns="http://www.w3.org/2000/svg" width="32" height="32" viewBox="0 0 32 32">
<title>uniF677</title>
<path d="M26 23.938l2-2v10.063h-26v-32h17.422l7.797 7.797q-0.547 0.172-0.945 0.367t-0.742 0.438-0.656 0.555l-0.844 0.844h-6.031v-8h-14v28h22v-6.063zM20 8h4.578l-4.578-4.578v4.578zM28.875 10q0.656 0 1.227 0.234t0.992 0.656 0.664 0.984 0.242 1.219q0 0.609-0.234 1.188t-0.672 1.016l-11.203 11.234q-0.109 0.031-0.578 0.148t-1.117 0.281-1.383 0.344-1.352 0.336-1.031 0.258-0.43 0.102h-8v-2h8.5l0.969-3.891 11.203-11.219q0.438-0.438 1.016-0.664t1.188-0.227zM29.672 13.891q0.328-0.328 0.328-0.797 0-0.484-0.32-0.789t-0.805-0.305q-0.219 0-0.422 0.070t-0.359 0.227l-10.813 10.844-0.531 2.109 2.109-0.531z"></path>
</svg>
