<!-- Generated by IcoMoon.io -->
<svg version="1.1" xmlns="http://www.w3.org/2000/svg" width="32" height="32" viewBox="0 0 32 32">
<title>uniE3AF</title>
<path d="M15 6q1.859 0 3.5 0.711t2.859 1.93 1.93 2.859 0.711 3.5q0 0.984-0.125 1.844t-0.398 1.648-0.688 1.547-0.992 1.555q-0.453 0.625-0.797 1.125t-0.563 1.008-0.328 1.094-0.109 1.383v2.797q0 0.625-0.234 1.172t-0.641 0.953-0.953 0.641-1.172 0.234h-4q-0.625 0-1.172-0.234t-0.953-0.641-0.641-0.953-0.234-1.172v-2.813q0-0.797-0.109-1.375t-0.336-1.086-0.563-1.008-0.789-1.125q-0.578-0.797-0.992-1.555t-0.688-1.547-0.398-1.648-0.125-1.844q0-1.859 0.711-3.5t1.93-2.859 2.859-1.93 3.5-0.711zM18 29v-1h-6v1q0 0.406 0.297 0.703t0.703 0.297h4q0.406 0 0.703-0.297t0.297-0.703zM22 15q0-1.453-0.547-2.727t-1.5-2.227-2.227-1.5-2.727-0.547-2.727 0.547-2.227 1.5-1.5 2.227-0.547 2.727q0 1.391 0.289 2.391t0.734 1.789 0.953 1.469 0.953 1.438 0.75 1.688 0.32 2.227h6q0.016-1.297 0.32-2.227t0.75-1.688 0.953-1.438 0.953-1.469 0.734-1.789 0.289-2.391zM15 4q-0.406 0-0.703-0.297t-0.297-0.703v-2q0-0.406 0.297-0.703t0.703-0.297 0.703 0.297 0.297 0.703v2q0 0.406-0.297 0.703t-0.703 0.297zM3 14.5h-2q-0.406 0-0.703-0.297t-0.297-0.703 0.297-0.703 0.703-0.297h2q0.406 0 0.703 0.297t0.297 0.703-0.297 0.703-0.703 0.297zM3.828 18.578q0.406 0 0.703 0.297t0.297 0.719q0 0.313-0.18 0.555t-0.461 0.367q-0.172 0.078-0.477 0.211t-0.633 0.266-0.633 0.234-0.492 0.102q-0.406 0-0.703-0.297t-0.297-0.719q0-0.313 0.18-0.555t0.461-0.367q0.172-0.063 0.477-0.203t0.633-0.273 0.633-0.234 0.492-0.102zM6.203 8.5q0 0.406-0.297 0.703t-0.703 0.297q-0.281 0-0.516-0.141l-1.703-1.047q-0.219-0.141-0.352-0.367t-0.133-0.492q0-0.406 0.297-0.703t0.703-0.297q0.25 0 0.516 0.156l1.719 1.031q0.219 0.125 0.344 0.359t0.125 0.5zM7.5 2.75q0-0.406 0.297-0.703t0.703-0.297q0.266 0 0.508 0.141t0.367 0.375l0.969 1.75q0.125 0.219 0.125 0.469 0 0.422-0.297 0.719t-0.703 0.297q-0.266 0-0.508-0.141t-0.367-0.375l-0.969-1.75q-0.125-0.219-0.125-0.484zM29 12.5q0.406 0 0.703 0.297t0.297 0.703-0.297 0.703-0.703 0.297h-2q-0.406 0-0.703-0.297t-0.297-0.703 0.297-0.703 0.703-0.297h2zM29.031 20.328q0 0.406-0.297 0.703t-0.703 0.297q-0.172 0-0.477-0.102t-0.633-0.242-0.633-0.273-0.477-0.211q-0.281-0.125-0.461-0.375t-0.18-0.563q0-0.422 0.305-0.711t0.711-0.289q0.188 0 0.484 0.109t0.625 0.25 0.633 0.281 0.477 0.203q0.281 0.125 0.453 0.367t0.172 0.555zM24.797 9.5q-0.406 0-0.703-0.297t-0.297-0.703q0-0.266 0.125-0.5t0.344-0.359l1.719-1.031q0.266-0.156 0.516-0.156 0.406 0 0.703 0.297t0.297 0.703q0 0.266-0.133 0.492t-0.352 0.367l-1.703 1.047q-0.234 0.141-0.516 0.141zM19.531 4.484q0-0.25 0.125-0.469l0.969-1.75q0.125-0.234 0.367-0.375t0.508-0.141q0.406 0 0.703 0.297t0.297 0.703q0 0.266-0.125 0.484l-0.969 1.75q-0.125 0.234-0.367 0.375t-0.508 0.141q-0.406 0-0.703-0.297t-0.297-0.719z"></path>
</svg>
