<!-- Generated by IcoMoon.io -->
<svg version="1.1" xmlns="http://www.w3.org/2000/svg" width="32" height="32" viewBox="0 0 32 32">
<title>uniF28D</title>
<path d="M27 10q1.031 0 1.938 0.398t1.586 1.078 1.078 1.586 0.398 1.938v7h-2v-7q0-0.625-0.234-1.172t-0.641-0.953-0.953-0.641-1.172-0.234h-22q-0.625 0-1.172 0.234t-0.953 0.641-0.641 0.953-0.234 1.172v5h22v2h-24v-7q0-1.031 0.391-1.938t1.070-1.586 1.594-1.078 1.945-0.398h22zM30.547 24.047l1.406 1.406-4.953 4.953-4.953-4.953 1.406-1.406 2.547 2.531v-8.578h2v8.578zM28 16h-2v-2h2v2zM22 14h2v2h-2v-2z"></path>
</svg>
