<!-- Generated by IcoMoon.io -->
<svg version="1.1" xmlns="http://www.w3.org/2000/svg" width="32" height="32" viewBox="0 0 32 32">
<title>uniE478</title>
<path d="M14 8q0 2.203 0.57 4.25t1.617 3.82 2.508 3.234 3.234 2.508 3.82 1.617 4.25 0.57q0.484 0 0.961-0.031t0.961-0.094q-1.063 1.875-2.563 3.383t-3.305 2.563-3.852 1.617-4.203 0.563q-2.031 0-3.984-0.508t-3.734-1.492h-6.281q-0.828 0-1.555-0.313t-1.273-0.859-0.859-1.273-0.313-1.555q0-0.719 0.242-1.367t0.672-1.172 1.016-0.883 1.289-0.5q-0.594-1.453-0.906-2.984t-0.313-3.094q0-2.016 0.484-3.914t1.383-3.578 2.164-3.109 2.828-2.523 3.383-1.797 3.836-0.953q-1.016 1.797-1.547 3.797t-0.531 4.078zM2 26q0 0.422 0.156 0.781t0.43 0.633 0.633 0.43 0.781 0.156h8.5q0.625 0 1.063-0.438t0.438-1.063-0.438-1.063-1.063-0.438h-1.422l-0.188-0.75q-0.125-0.484-0.406-0.898t-0.664-0.719-0.844-0.469-0.977-0.164q-0.578 0-1.016 0.164t-0.781 0.453-0.625 0.688-0.531 0.852q-0.266-0.047-0.523-0.102t-0.523-0.055q-0.422 0-0.781 0.156t-0.633 0.43-0.43 0.633-0.156 0.781zM18 30q1.391 0 2.742-0.273t2.617-0.805 2.414-1.297 2.133-1.75q-2.266-0.266-4.32-1.055t-3.82-2.016-3.203-2.844-2.453-3.516-1.563-4.031-0.547-4.414q0-2.531 0.703-4.953-1.969 0.813-3.578 2.141t-2.742 3.023-1.758 3.68-0.625 4.109q0 2.594 0.953 5.047 0.656-0.5 1.438-0.773t1.609-0.273q0.75 0 1.445 0.211t1.289 0.609 1.063 0.953 0.766 1.227q0.719 0.016 1.344 0.297t1.094 0.75 0.734 1.102 0.266 1.352q0 0.922-0.453 1.727t-1.25 1.273q1.828 0.5 3.703 0.5zM20 12q-0.828 0-1.555-0.313t-1.273-0.859-0.859-1.273-0.313-1.555 0.32-1.563 0.867-1.273 1.273-0.852 1.555-0.313q0.703-0.938 1.758-1.469t2.227-0.531q0.75 0 1.445 0.211t1.289 0.609 1.063 0.953 0.766 1.227q0.719 0.016 1.344 0.297t1.094 0.75 0.734 1.102 0.266 1.352-0.273 1.359-0.75 1.117-1.117 0.75-1.359 0.273h-8.5zM20 6q-0.422 0-0.781 0.156t-0.633 0.43-0.43 0.633-0.156 0.781 0.156 0.781 0.43 0.633 0.633 0.43 0.781 0.156h8.5q0.625 0 1.063-0.438t0.438-1.063-0.438-1.063-1.063-0.438h-1.422l-0.188-0.75q-0.125-0.484-0.406-0.898t-0.664-0.719-0.844-0.469-0.977-0.164q-0.578 0-1.016 0.164t-0.781 0.453-0.625 0.688-0.531 0.852q-0.266-0.047-0.523-0.102t-0.523-0.055z"></path>
</svg>
