<!-- Generated by IcoMoon.io -->
<svg version="1.1" xmlns="http://www.w3.org/2000/svg" width="32" height="32" viewBox="0 0 32 32">
<title>uniF854</title>
<path d="M8 22q0-1.297 0.633-2.414t1.727-1.82q-0.406-0.469-0.633-1.055t-0.227-1.211q0-0.719 0.273-1.359t0.75-1.117 1.109-0.75 1.367-0.273q0.719 0 1.359 0.273t1.117 0.75 0.75 1.117 0.273 1.359q0 0.625-0.227 1.211t-0.633 1.055q1.109 0.703 1.734 1.813t0.625 2.422h-2q0-0.625-0.234-1.172t-0.641-0.953-0.953-0.641-1.172-0.234-1.172 0.234-0.953 0.648-0.641 0.961-0.234 1.156h-2zM13 14q-0.625 0-1.063 0.438t-0.438 1.063 0.438 1.063 1.063 0.438q0.641 0 1.070-0.43t0.43-1.070q0-0.625-0.438-1.063t-1.063-0.438zM6 26h9.047l-2 2h-7.547q-0.625 0-1.063-0.438t-0.438-1.063v-21q0-0.625 0.438-1.063t1.063-0.438h3.797l-2.016-4h2.234l2.016 4h2.906l2-4h2.234l-2 4h3.828q0.625 0 1.063 0.438t0.438 1.063v7.047q-0.547 0.297-1.055 0.648t-0.945 0.789v-7.984h-7.469q0.094 0.203 0.328 0.625t0.477 0.891 0.422 0.883 0.18 0.602q0 0.422-0.297 0.719t-0.703 0.297q-0.281 0-0.523-0.148t-0.367-0.398l-1.75-3.469h-4.297v20zM26 14q1.234 0 2.328 0.469t1.914 1.289 1.289 1.914 0.469 2.328q0 1.25-0.469 2.336t-1.289 1.906-1.914 1.289-2.328 0.469q-0.938 0-1.82-0.289t-1.648-0.836l-6.828 6.828q-0.297 0.297-0.703 0.297t-0.703-0.297-0.297-0.703q0-0.422 0.297-0.719l6.813-6.813q-0.531-0.766-0.82-1.648t-0.289-1.82q0-1.234 0.469-2.328t1.289-1.914 1.906-1.289 2.336-0.469zM26 24q0.828 0 1.555-0.313t1.273-0.859 0.859-1.273 0.313-1.555-0.313-1.555-0.859-1.273-1.273-0.859-1.555-0.313-1.555 0.313-1.273 0.859-0.859 1.273-0.313 1.555 0.313 1.555 0.859 1.273 1.273 0.859 1.555 0.313z"></path>
</svg>
