<!-- Generated by IcoMoon.io -->
<svg version="1.1" xmlns="http://www.w3.org/2000/svg" width="32" height="32" viewBox="0 0 32 32">
<title>uniF22C</title>
<path d="M28 14q0.828 0 1.555 0.313t1.273 0.859 0.859 1.273 0.313 1.555-0.313 1.555-0.859 1.273-1.273 0.859-1.555 0.313q-0.781 0-1.469-0.281t-1.227-0.773-0.883-1.156-0.406-1.445l-2.344-0.391q-0.375 1.078-1.117 1.945t-1.742 1.398l0.906 2.719q0.078-0.016 0.141-0.016h0.141q0.828 0 1.555 0.313t1.273 0.859 0.859 1.273 0.313 1.555-0.313 1.555-0.859 1.273-1.273 0.859-1.555 0.313-1.555-0.313-1.273-0.859-0.859-1.273-0.313-1.555q0-1.031 0.492-1.922t1.336-1.438l-0.906-2.719q-0.219 0.031-0.453 0.055t-0.469 0.023q-1.438 0-2.711-0.648t-2.133-1.805l-3.25 1.609q0.094 0.422 0.094 0.844 0 0.828-0.313 1.555t-0.859 1.273-1.273 0.859-1.555 0.313-1.555-0.313-1.273-0.859-0.859-1.273-0.313-1.555 0.313-1.555 0.859-1.273 1.273-0.859 1.555-0.313q0.875 0 1.656 0.359t1.359 1.016l3.25-1.625q-0.266-0.875-0.266-1.75 0-1.109 0.391-2.141t1.141-1.859l-1.891-2.359q-0.797 0.359-1.641 0.359-0.828 0-1.555-0.313t-1.273-0.859-0.859-1.273-0.313-1.555 0.313-1.555 0.859-1.273 1.273-0.859 1.555-0.313 1.555 0.313 1.273 0.859 0.859 1.273 0.313 1.555q0 1.328-0.797 2.391l1.875 2.359q0.672-0.359 1.414-0.555t1.508-0.195q1.297 0 2.453 0.516l2.563-3.844q-0.484-0.547-0.75-1.234t-0.266-1.438q0-0.828 0.313-1.555t0.859-1.273 1.273-0.859 1.555-0.313 1.555 0.313 1.273 0.859 0.859 1.273 0.313 1.555-0.313 1.555-0.859 1.273-1.273 0.859-1.555 0.313q-0.656 0-1.313-0.219l-2.578 3.859q0.906 0.844 1.398 1.977t0.492 2.367l2.344 0.391q0.234-0.531 0.617-0.977t0.859-0.75 1.031-0.477 1.148-0.172zM24 2q-0.422 0-0.781 0.156t-0.633 0.43-0.43 0.633-0.156 0.781 0.156 0.781 0.43 0.633 0.633 0.43 0.781 0.156 0.781-0.156 0.633-0.43 0.43-0.633 0.156-0.781-0.156-0.781-0.43-0.633-0.633-0.43-0.781-0.156zM4 24q0.422 0 0.781-0.156t0.633-0.43 0.43-0.633 0.156-0.781-0.156-0.781-0.43-0.633-0.633-0.43-0.781-0.156-0.781 0.156-0.633 0.43-0.43 0.633-0.156 0.781 0.156 0.781 0.43 0.633 0.633 0.43 0.781 0.156zM22 28q0-0.422-0.156-0.781t-0.43-0.633-0.633-0.43-0.781-0.156-0.781 0.156-0.633 0.43-0.43 0.633-0.156 0.781 0.156 0.781 0.43 0.633 0.633 0.43 0.781 0.156 0.781-0.156 0.633-0.43 0.43-0.633 0.156-0.781zM6 6q0 0.422 0.156 0.781t0.43 0.633 0.633 0.43 0.781 0.156 0.781-0.156 0.633-0.43 0.43-0.633 0.156-0.781-0.156-0.781-0.43-0.633-0.633-0.43-0.781-0.156-0.781 0.156-0.633 0.43-0.43 0.633-0.156 0.781zM16 20q0.828 0 1.555-0.313t1.273-0.859 0.859-1.273 0.313-1.555-0.313-1.555-0.859-1.273-1.273-0.859-1.555-0.313-1.555 0.313-1.273 0.859-0.859 1.273-0.313 1.555 0.313 1.555 0.859 1.273 1.273 0.859 1.555 0.313zM28 20q0.422 0 0.781-0.156t0.633-0.43 0.43-0.633 0.156-0.781-0.156-0.781-0.43-0.633-0.633-0.43-0.781-0.156-0.781 0.156-0.633 0.43-0.43 0.633-0.156 0.781 0.156 0.781 0.43 0.633 0.633 0.43 0.781 0.156z"></path>
</svg>
