<!-- Generated by IcoMoon.io -->
<svg version="1.1" xmlns="http://www.w3.org/2000/svg" width="32" height="32" viewBox="0 0 32 32">
<title>uniE4D6</title>
<path d="M12 16q0 0.906 0.398 1.719t1.102 1.375v2.328q-0.688-0.328-1.281-0.805t-1.047-1.086l-3.266 1.641q0.094 0.406 0.094 0.828 0 0.828-0.313 1.555t-0.859 1.273-1.273 0.859-1.555 0.313-1.555-0.313-1.273-0.859-0.859-1.273-0.313-1.555 0.313-1.555 0.859-1.273 1.273-0.859 1.555-0.313q0.875 0 1.648 0.359t1.352 1.016l3.281-1.641q-0.125-0.422-0.203-0.852t-0.078-0.883q0-1.109 0.398-2.133t1.148-1.836l-1.922-2.391q-0.766 0.359-1.625 0.359-0.828 0-1.555-0.313t-1.273-0.859-0.859-1.273-0.313-1.555 0.313-1.555 0.859-1.273 1.273-0.859 1.555-0.313 1.555 0.313 1.273 0.859 0.859 1.273 0.313 1.555q0 0.656-0.211 1.266t-0.602 1.125l1.922 2.391q0.656-0.375 1.391-0.578t1.5-0.203q0.641 0 1.25 0.133t1.188 0.398l2.594-3.875q-0.5-0.547-0.766-1.227t-0.266-1.43q0-0.828 0.313-1.555t0.859-1.273 1.273-0.859 1.555-0.313 1.555 0.313 1.273 0.859 0.859 1.273 0.313 1.555-0.313 1.555-0.859 1.273-1.273 0.859-1.555 0.313q-0.344 0-0.672-0.063t-0.641-0.172l-2.578 3.875q0.313 0.313 0.578 0.664t0.484 0.727q-0.469 0.156-0.867 0.359t-0.836 0.438q-0.031 0.016-0.047 0.016t-0.047 0.016q-0.547-0.859-1.445-1.359t-1.93-0.5q-0.828 0-1.555 0.313t-1.273 0.859-0.859 1.273-0.313 1.555zM24 2q-0.422 0-0.781 0.156t-0.633 0.43-0.43 0.633-0.156 0.781 0.156 0.781 0.43 0.633 0.633 0.43 0.781 0.156 0.781-0.156 0.633-0.43 0.43-0.633 0.156-0.781-0.156-0.781-0.43-0.633-0.633-0.43-0.781-0.156zM8 8q0.422 0 0.781-0.156t0.633-0.43 0.43-0.633 0.156-0.781-0.156-0.781-0.43-0.633-0.633-0.43-0.781-0.156-0.781 0.156-0.633 0.43-0.43 0.633-0.156 0.781 0.156 0.781 0.43 0.633 0.633 0.43 0.781 0.156zM4 24q0.422 0 0.781-0.156t0.633-0.43 0.43-0.633 0.156-0.781-0.156-0.781-0.43-0.633-0.633-0.43-0.781-0.156-0.781 0.156-0.633 0.43-0.43 0.633-0.156 0.781 0.156 0.781 0.43 0.633 0.633 0.43 0.781 0.156zM32 16.547v5.078q0 1.641-0.594 3.102t-1.586 2.703-2.266 2.242-2.633 1.719l-0.922 0.484-0.938-0.484q-1.359-0.703-2.633-1.711t-2.258-2.258-1.578-2.711-0.594-3.086v-5.078q0.375 0 0.781 0.016t0.828 0.016q0.844 0 1.68-0.109t1.492-0.516q0.781-0.453 1.547-0.664t1.672-0.211q0.922 0 1.688 0.219t1.563 0.672q0.656 0.391 1.5 0.492t1.688 0.102q0.406 0 0.805-0.008t0.758-0.008zM30 21.625v-3.078q-1.031 0-1.984-0.188t-1.844-0.703q-0.531-0.313-1.039-0.445t-1.133-0.133q-0.594 0-1.109 0.133t-1.031 0.43q-0.906 0.516-1.867 0.711t-1.992 0.195v3.078q0 1.344 0.523 2.539t1.375 2.219 1.922 1.844 2.18 1.398q1.094-0.578 2.172-1.398t1.93-1.844 1.375-2.219 0.523-2.539z"></path>
</svg>
