<!-- Generated by IcoMoon.io -->
<svg version="1.1" xmlns="http://www.w3.org/2000/svg" width="32" height="32" viewBox="0 0 32 32">
<title>uniF420</title>
<path d="M15 0q2.063 0 3.984 0.539t3.586 1.516 3.031 2.344 2.344 3.031 1.516 3.586 0.539 3.984-0.539 3.984-1.516 3.586-2.344 3.031-3.031 2.344-3.586 1.516-3.984 0.539q-1.484 0-3-0.313v-1.688h3q1.797 0 3.453-0.469t3.102-1.313 2.633-2.031 2.031-2.633 1.313-3.102 0.469-3.453-0.469-3.453-1.313-3.102-2.031-2.633-2.633-2.031-3.102-1.313-3.453-0.469-3.453 0.469-3.102 1.313-2.633 2.031-2.031 2.633-1.313 3.102-0.469 3.453q0 1 0.148 1.992t0.461 1.945l-1.563 1.563q-0.516-1.328-0.758-2.703t-0.242-2.797q0-2.063 0.531-3.977t1.508-3.586 2.336-3.039 3.023-2.344 3.57-1.516 3.984-0.539zM24 16h-18v-2h18v2zM3.906 26l2.547 2.547-1.406 1.406-4.953-4.953 4.953-4.953 1.406 1.406-2.547 2.547h8.094v2h-8.094z"></path>
</svg>
