<!-- Generated by IcoMoon.io -->
<svg version="1.1" xmlns="http://www.w3.org/2000/svg" width="32" height="32" viewBox="0 0 32 32">
<title>uniF41F</title>
<path d="M2 15q0 1.797 0.469 3.453t1.313 3.102 2.031 2.633 2.633 2.031 3.102 1.313 3.453 0.469h5v1.109q-1.219 0.422-2.469 0.656t-2.531 0.234q-2.078 0-3.984-0.539t-3.57-1.516-3.023-2.344-2.336-3.039-1.508-3.586-0.531-3.977 0.531-3.977 1.508-3.586 2.336-3.039 3.023-2.344 3.57-1.516 3.984-0.539q2.063 0 3.984 0.539t3.586 1.516 3.031 2.344 2.344 3.031 1.516 3.586 0.539 3.984q0 2.031-0.547 4l-1.672-1.672q0.219-1.188 0.219-2.328 0-1.797-0.469-3.453t-1.313-3.102-2.031-2.633-2.633-2.031-3.102-1.313-3.453-0.469-3.453 0.469-3.102 1.313-2.633 2.031-2.031 2.633-1.313 3.102-0.469 3.453zM6 14h18v2h-18v-2zM31.906 25l-4.953 4.953-1.406-1.406 2.547-2.547h-8.094v-2h8.094l-2.547-2.547 1.406-1.406z"></path>
</svg>
