<!-- Generated by IcoMoon.io -->
<svg version="1.1" xmlns="http://www.w3.org/2000/svg" width="32" height="32" viewBox="0 0 32 32">
<title>uniF41D</title>
<path d="M15 28q1.781 0 3.547-0.5l1.578 1.578q-1.234 0.453-2.516 0.688t-2.609 0.234q-2.063 0-3.984-0.539t-3.586-1.516-3.031-2.344-2.344-3.031-1.516-3.578-0.539-3.992q0-2.063 0.539-3.984t1.516-3.586 2.344-3.031 3.031-2.344 3.578-1.516 3.992-0.539q2.063 0 3.984 0.539t3.586 1.516 3.031 2.344 2.344 3.031 1.516 3.586 0.539 3.984q0 1.5-0.297 2.961t-0.875 2.836l-1.547-1.563q0.719-2.078 0.719-4.234 0-1.797-0.469-3.453t-1.313-3.102-2.031-2.633-2.633-2.031-3.102-1.313-3.453-0.469-3.453 0.469-3.102 1.313-2.633 2.031-2.031 2.633-1.313 3.102-0.469 3.453 0.469 3.453 1.313 3.102 2.031 2.633 2.633 2.031 3.102 1.313 3.453 0.469zM6 14h18v2h-18v-2zM28 24q0.828 0 1.555 0.313t1.273 0.859 0.859 1.273 0.313 1.555-0.313 1.555-0.859 1.273-1.273 0.859-1.555 0.313v-2q0.422 0 0.781-0.156t0.633-0.43 0.43-0.633 0.156-0.781-0.156-0.781-0.43-0.633-0.633-0.43-0.781-0.156h-4.578l2.531 2.547-1.406 1.406-4.953-4.953 4.953-4.953 1.406 1.406-2.531 2.547h4.578z"></path>
</svg>
