<!-- Generated by IcoMoon.io -->
<svg version="1.1" xmlns="http://www.w3.org/2000/svg" width="32" height="32" viewBox="0 0 32 32">
<title>uniF41E</title>
<path d="M15 0q2.063 0 3.984 0.539t3.586 1.516 3.031 2.344 2.344 3.031 1.516 3.586 0.539 3.984-0.539 3.984-1.516 3.586-2.344 3.031-3.031 2.344-3.586 1.516-3.984 0.539q-1.813 0-3.594-0.453l1.703-1.703q0.469 0.078 0.945 0.117t0.945 0.039q1.797 0 3.453-0.469t3.102-1.313 2.633-2.031 2.031-2.633 1.313-3.102 0.469-3.453-0.469-3.453-1.313-3.102-2.031-2.633-2.633-2.031-3.102-1.313-3.453-0.469-3.453 0.469-3.102 1.313-2.633 2.031-2.031 2.633-1.313 3.102-0.469 3.453q0 1.469 0.336 2.898t0.977 2.758l-1.5 1.5q-0.891-1.656-1.352-3.469t-0.461-3.688q0-2.063 0.539-3.984t1.516-3.586 2.344-3.031 3.031-2.344 3.578-1.516 3.992-0.539zM24 16h-18v-2h18v2zM12.406 25l-4.953 4.953-1.406-1.406 2.531-2.547h-4.578q-0.422 0-0.781 0.156t-0.633 0.43-0.43 0.633-0.156 0.781 0.156 0.781 0.43 0.633 0.633 0.43 0.781 0.156v2q-0.828 0-1.555-0.313t-1.273-0.859-0.859-1.273-0.313-1.555 0.313-1.555 0.859-1.273 1.273-0.859 1.555-0.313h4.578l-2.531-2.547 1.406-1.406z"></path>
</svg>
