<!-- Generated by IcoMoon.io -->
<svg version="1.1" xmlns="http://www.w3.org/2000/svg" width="32" height="32" viewBox="0 0 32 32">
<title>uniE5CF</title>
<path d="M24.328 3.141l-0.594 3.047q-0.531-0.359-1.195-0.648t-1.383-0.484-1.438-0.305-1.359-0.109q-0.922 0-1.836 0.242t-1.633 0.742-1.164 1.273-0.445 1.82q0 0.984 0.367 1.766t0.961 1.445 1.359 1.25 1.57 1.18 1.57 1.234 1.359 1.414 0.961 1.711 0.367 2.125q0 0.781-0.148 1.531t-0.461 1.469q-0.531 1.203-1.367 2t-1.883 1.273-2.227 0.68-2.398 0.203q-0.797 0-1.672-0.102t-1.734-0.305-1.688-0.5-1.531-0.688l0.516-3.047q0.672 0.453 1.438 0.82t1.57 0.625 1.641 0.391 1.648 0.133q1 0 1.93-0.211t1.648-0.695 1.148-1.266 0.43-1.938q0-0.906-0.367-1.633t-0.969-1.352-1.375-1.195-1.578-1.164-1.578-1.25-1.375-1.461-0.969-1.805-0.367-2.266q0-1.188 0.344-2.203t0.977-1.852 1.523-1.461 1.969-1.016q0.875-0.313 1.813-0.438t1.859-0.125q1.422 0 2.938 0.305t2.828 0.836z"></path>
</svg>
