<!-- Generated by IcoMoon.io -->
<svg version="1.1" xmlns="http://www.w3.org/2000/svg" width="32" height="32" viewBox="0 0 32 32">
<title>uniE5B2</title>
<path d="M28 3.578l-0.656 3.016q-1.422-0.953-3.023-1.453t-3.32-0.5q-1.75 0-3.273 0.422t-2.789 1.203-2.258 1.875-1.672 2.438-1.039 2.898-0.359 3.242q0 1.906 0.516 3.492t1.539 2.727 2.531 1.766 3.492 0.625q0.953 0 1.813-0.094t1.68-0.305 1.625-0.547 1.633-0.805l-0.688 3.094q-1.625 0.734-3.258 1.031t-3.414 0.297q-2.469 0-4.43-0.82t-3.32-2.289-2.078-3.492-0.719-4.43q0-3.266 1.031-6.008t2.938-4.734 4.602-3.109 6.008-1.117q1.797 0 3.539 0.375t3.352 1.203z"></path>
</svg>
