<!-- Generated by IcoMoon.io -->
<svg version="1.1" xmlns="http://www.w3.org/2000/svg" width="32" height="32" viewBox="0 0 32 32">
<title>uniE5CE</title>
<path d="M28.031 12.516q0 1.938-0.383 3.82t-1.211 3.633q-1.016 2.156-2.508 3.68t-3.344 2.492-3.984 1.414-4.398 0.445h-8.234l5.531-26h7.234q2.438 0 4.508 0.688t3.578 2.023 2.359 3.297 0.852 4.508zM24.844 12.734q0-2.094-0.648-3.602t-1.813-2.484-2.797-1.438-3.602-0.461h-3.969l-4.391 20.5h4.844q2.828 0 5.117-0.898t3.906-2.539 2.484-3.953 0.867-5.125z"></path>
</svg>
