<!-- Generated by IcoMoon.io -->
<svg version="1.1" xmlns="http://www.w3.org/2000/svg" width="32" height="32" viewBox="0 0 32 32">
<title>uniED8F</title>
<path d="M14.344 29.391q-0.156 0.594-0.242 1.211t-0.102 1.242q-2-0.234-3.813-0.938t-3.367-1.805-2.813-2.531-2.148-3.117-1.375-3.57-0.484-3.883q0-2.203 0.57-4.25t1.609-3.828 2.5-3.242 3.242-2.5 3.82-1.609 4.258-0.57q2.203 0 4.242 0.57t3.82 1.617 3.242 2.508 2.508 3.242 1.617 3.82 0.57 4.242h-1.109q-0.219-0.359-0.461-0.703t-0.539-0.656q-0.094-1.359-0.484-2.641h-19.141q-0.125 1-0.195 1.992t-0.070 2.008 0.070 2.008 0.195 1.992h5.734q0 0.5 0.078 1t0.203 1h-5.672q0.188 0.891 0.508 1.953t0.781 2.086 1.070 1.906 1.375 1.445zM28.641 10q-0.609-1.266-1.445-2.375t-1.867-2.039-2.227-1.641-2.523-1.164q0.563 0.781 1.008 1.656t0.797 1.805 0.602 1.875 0.438 1.883h5.219zM16 2q-0.781 0-1.445 0.422t-1.219 1.109-1 1.555-0.789 1.758-0.578 1.719-0.359 1.438h10.781q-0.125-0.609-0.359-1.438t-0.578-1.719-0.789-1.758-1-1.555-1.227-1.109-1.438-0.422zM11.438 2.766q-1.328 0.453-2.531 1.164t-2.234 1.641-1.875 2.047-1.438 2.383h5.219q0.172-0.859 0.43-1.836t0.617-1.938 0.813-1.859 1-1.602zM2 16q0 2.078 0.578 4h5.672q-0.125-1-0.188-1.992t-0.063-2.008 0.063-2.008 0.188-1.992h-5.672q-0.578 1.922-0.578 4zM3.328 22q0.609 1.266 1.445 2.383t1.875 2.039 2.242 1.633 2.531 1.164q-0.563-0.781-1.008-1.656t-0.797-1.797-0.609-1.875-0.445-1.891h-5.234zM27.531 24.828q1.016 0.516 1.844 1.266t1.414 1.688 0.898 2.008 0.313 2.211h-2q0-1.234-0.469-2.328t-1.289-1.914-1.914-1.289-2.328-0.469q-1.25 0-2.336 0.469t-1.906 1.289-1.289 1.914-0.469 2.328h-2q0-1.141 0.313-2.211t0.891-2.008 1.406-1.688 1.844-1.266q-1.172-0.844-1.813-2.117t-0.641-2.711q0-1.234 0.469-2.328t1.289-1.914 1.906-1.289 2.336-0.469q1.234 0 2.328 0.469t1.914 1.289 1.289 1.914 0.469 2.328q0 1.438-0.648 2.711t-1.82 2.117zM24 24q0.828 0 1.555-0.313t1.273-0.859 0.859-1.273 0.313-1.555-0.313-1.555-0.859-1.273-1.273-0.859-1.555-0.313-1.555 0.313-1.273 0.859-0.859 1.273-0.313 1.555 0.313 1.555 0.859 1.273 1.273 0.859 1.555 0.313z"></path>
</svg>
