<!-- Generated by IcoMoon.io -->
<svg version="1.1" xmlns="http://www.w3.org/2000/svg" width="32" height="32" viewBox="0 0 32 32">
<title>uniEBF0</title>
<path d="M30 2v28h-28v-28h28zM28.141 3.859h-24.281v24.281h24.281v-24.281zM23.328 22.828q0-0.563-0.398-0.945t-1.008-0.711-1.305-0.648-1.305-0.758-1.008-1.055-0.398-1.523q0-0.859 0.391-1.469t1.016-0.992 1.383-0.555 1.492-0.172q0.297 0 0.648 0.016t0.703 0.055 0.688 0.117 0.617 0.219v1.906q-0.547-0.406-1.203-0.555t-1.328-0.148q-0.359 0-0.773 0.063t-0.773 0.234-0.594 0.469-0.234 0.75q0 0.406 0.156 0.688t0.469 0.516q0.406 0.313 0.883 0.516t0.93 0.422q0.531 0.25 1.063 0.594t0.961 0.773 0.695 0.969 0.266 1.195q0 0.938-0.391 1.555t-1.016 0.984-1.406 0.516-1.563 0.148q-0.281 0-0.711-0.047t-0.875-0.133-0.852-0.203-0.625-0.273v-1.984q0.266 0.234 0.633 0.43t0.773 0.336 0.82 0.211 0.773 0.070q0.391 0 0.82-0.055t0.781-0.227 0.578-0.484 0.227-0.813zM11.984 26q-0.641 0-1.242-0.195t-1.102-0.563-0.883-0.875-0.57-1.117l1.609-0.5q0.25 0.672 0.805 1.117t1.305 0.445q0.594 0 0.961-0.289t0.563-0.734 0.266-0.961 0.070-0.984v-7.156h1.922v7.453q0 0.875-0.219 1.672t-0.672 1.391-1.148 0.945-1.664 0.352z"></path>
</svg>
