<!-- Generated by IcoMoon.io -->
<svg version="1.1" xmlns="http://www.w3.org/2000/svg" width="32" height="32" viewBox="0 0 32 32">
<title>uniF492</title>
<path d="M29.344 7.781q1.313 1.797 1.984 3.891t0.672 4.328q0 1.938-0.5 3.727t-1.414 3.344-2.188 2.828-2.828 2.188-3.344 1.414-3.727 0.5-3.727-0.5-3.344-1.414-2.828-2.188-2.188-2.828-1.414-3.344-0.5-3.727v-7.172q0-0.5-0.219-0.898t-0.555-0.75-0.727-0.68-0.727-0.688-0.555-0.766-0.219-0.922q0-0.438 0.164-0.828t0.453-0.68 0.68-0.453 0.828-0.164h14.875q2.609 0 4.992 0.914t4.336 2.648l1.813-1.828q0.438-0.438 1.063-0.438t1.063 0.438 0.438 1.063-0.438 1.063zM30 16q0-1.828-0.531-3.555t-1.563-3.227l-10.844 10.844q-0.438 0.438-1.063 0.438t-1.063-0.438l-4.938-4.938q-0.438-0.438-0.438-1.063t0.438-1.063 1.063-0.438 1.063 0.438l3.875 3.875 9.906-9.906q-1.672-1.469-3.68-2.219t-4.227-0.75h-14.875q-0.125 0-0.125 0.125l0.031 0.078 1.797 1.797q0.563 0.563 0.867 1.297t0.305 1.531v7.172q0 1.656 0.43 3.188t1.211 2.867 1.875 2.43 2.43 1.875 2.867 1.211 3.188 0.43 3.188-0.43 2.867-1.211 2.43-1.875 1.875-2.43 1.211-2.867 0.43-3.188z"></path>
</svg>
