<!-- Generated by IcoMoon.io -->
<svg version="1.1" xmlns="http://www.w3.org/2000/svg" width="32" height="32" viewBox="0 0 32 32">
<title>uniE4FC</title>
<path d="M30 21.531q0 1.734-0.648 3.273t-1.773 2.695-2.648 1.828-3.273 0.672q-1.422 0-2.852-0.477t-2.523-1.414q-0.266-0.219-0.492-0.469t-0.477-0.469q-0.188-0.172-0.359-0.266t-0.438-0.094-0.547 0.156q-0.547 0.297-1.039 0.531t-0.992 0.406-1.039 0.266-1.18 0.094q-1.578 0-2.984-0.609t-2.461-1.656-1.664-2.445-0.609-2.977q0-0.906 0.219-1.805t0.633-1.719 1.008-1.523 1.344-1.234q0.344-0.25 0.711-0.414t0.727-0.383q0.313-0.172 0.469-0.391t0.156-0.578q0-0.406-0.086-0.867t-0.086-0.945q0-1.813 0.695-3.406t1.891-2.773 2.789-1.859 3.406-0.68q1.797 0 3.383 0.703t2.773 1.898 1.875 2.789 0.688 3.391q0 0.5-0.055 0.977t-0.148 0.961q-0.031 0.156-0.031 0.25 0 0.328 0.172 0.547t0.438 0.391q0.188 0.109 0.383 0.195t0.383 0.195q0.984 0.547 1.773 1.328t1.344 1.719 0.852 2 0.297 2.188zM22.344 12.969q0-0.531 0.125-1.047t0.125-1.047q-1.234 0.266-2.445 0.586t-2.445 0.539l3.516 7.313 4.25-2.813q-0.313-0.234-0.641-0.414t-0.672-0.352q-0.828-0.406-1.32-1.117t-0.492-1.648zM22.328 8.875q-0.281-0.984-0.836-1.828t-1.313-1.477-1.688-1.031-1.945-0.508q0.156 1.516 0.305 3.031t0.289 3.031zM16.172 13.406l-3.547 5.828q1.656 0.125 3.273 0.227t3.273 0.227zM14.547 4.125q-0.938 0.188-1.773 0.617t-1.516 1.047-1.172 1.414-0.742 1.719l5.781 1.141zM4.375 22.563l4.703-2.563-3.828-2.984q-0.609 0.75-0.93 1.672t-0.32 1.891q0 1.047 0.375 1.984zM9.703 26.266q0.359 0 0.719-0.047l-0.375-4.469-4.641 2.531q0.813 0.938 1.938 1.461t2.359 0.523zM6.781 15.672l3.859 2.984 4.031-6.656-5.578-1.078q0 0.406 0.078 0.813t0.078 0.813q0 0.922-0.477 1.656t-1.305 1.125q-0.172 0.078-0.344 0.164t-0.344 0.18zM14.516 24.813q0.625 0 1.023 0.156t0.711 0.406 0.617 0.57 0.727 0.648l1.813-4.891q-1.859-0.109-3.703-0.234t-3.703-0.25q0.078 1.094 0.172 2.188t0.203 2.188q0.297-0.156 0.531-0.305t0.477-0.25 0.508-0.164 0.625-0.063zM21.609 28q1.219 0 2.328-0.438t1.984-1.281l-4.656-3.844-1.922 5.141q1.078 0.422 2.266 0.422zM27.172 24.719q0.406-0.719 0.617-1.516t0.211-1.625q0-0.969-0.289-1.891t-0.836-1.719q-1.094 0.734-2.195 1.445t-2.195 1.445zM26.891 17.953v0z"></path>
</svg>
