<!-- Generated by IcoMoon.io -->
<svg version="1.1" xmlns="http://www.w3.org/2000/svg" width="32" height="32" viewBox="0 0 32 32">
<title>uniF44A</title>
<path d="M16 9q1.594 0 3.063 0.414t2.742 1.156 2.328 1.797 1.797 2.328 1.156 2.742 0.414 3.063q0 1.75-0.508 3.375t-1.438 3.016-2.25 2.484-2.93 1.75l-0.688-2.063q-0.859 0.453-1.789 0.695t-1.898 0.242-1.898-0.242-1.789-0.695l-0.688 2.063q-1.625-0.656-2.938-1.75t-2.242-2.484-1.438-3.016-0.508-3.375q0-1.594 0.414-3.063t1.156-2.742 1.797-2.328 2.328-1.797 2.742-1.156 3.063-0.414zM10 24q0.422 0 0.781-0.156t0.633-0.43 0.43-0.633 0.156-0.781-0.156-0.781-0.43-0.633-0.633-0.43-0.781-0.156-0.781 0.156-0.633 0.43-0.43 0.633-0.156 0.781 0.156 0.781 0.43 0.633 0.633 0.43 0.781 0.156zM12 18q0.422 0 0.781-0.156t0.633-0.43 0.43-0.633 0.156-0.781-0.156-0.781-0.43-0.633-0.633-0.43-0.781-0.156-0.781 0.156-0.633 0.43-0.43 0.633-0.156 0.781 0.156 0.781 0.43 0.633 0.633 0.43 0.781 0.156zM16 28q0.813 0 1.578-0.227t1.469-0.633l-3.047-9.141-3.047 9.141q0.703 0.406 1.469 0.633t1.578 0.227zM18 16q0 0.422 0.156 0.781t0.43 0.633 0.633 0.43 0.781 0.156 0.781-0.156 0.633-0.43 0.43-0.633 0.156-0.781-0.156-0.781-0.43-0.633-0.633-0.43-0.781-0.156-0.781 0.156-0.633 0.43-0.43 0.633-0.156 0.781zM22 24q0.422 0 0.781-0.156t0.633-0.43 0.43-0.633 0.156-0.781-0.156-0.781-0.43-0.633-0.633-0.43-0.781-0.156-0.781 0.156-0.633 0.43-0.43 0.633-0.156 0.781 0.156 0.781 0.43 0.633 0.633 0.43 0.781 0.156zM11 7q0-1.125 0.469-2.109l-2.172-2.188 1.406-1.406 1.969 1.969q0.703-0.609 1.547-0.938t1.781-0.328 1.781 0.328 1.547 0.938l1.969-1.969 1.406 1.406-2.172 2.188q0.469 0.984 0.469 2.109 0 0.203-0.023 0.398t-0.055 0.383q-1.172-0.5-2.414-0.766t-2.508-0.266-2.508 0.266-2.414 0.766q-0.031-0.188-0.055-0.383t-0.023-0.398z"></path>
</svg>
