<!-- Generated by IcoMoon.io -->
<svg version="1.1" xmlns="http://www.w3.org/2000/svg" width="32" height="32" viewBox="0 0 32 32">
<title>uniF552</title>
<path d="M13.813 24q0.234 1.047 0.656 2h-12.469q-0.422 0-0.781-0.156t-0.633-0.43-0.43-0.633-0.156-0.781q0-0.25 0.047-0.539t0.133-0.586 0.219-0.555 0.32-0.445l3.281-3.297v-14.578h24v9.547q-0.469-0.266-0.977-0.438t-1.023-0.297v-6.813h-20v12h7.5v2h-8.078l-3.219 3.203q-0.047 0.047-0.086 0.156t-0.063 0.227-0.039 0.234-0.016 0.18h11.813zM24 15.078q0.922 0 1.688 0.219t1.563 0.672q0.656 0.391 1.5 0.492t1.688 0.102q0.406 0 0.805-0.008t0.758-0.008v5.078q0 1.641-0.594 3.102t-1.586 2.703-2.266 2.242-2.633 1.719l-0.922 0.484-0.938-0.484q-1.359-0.703-2.633-1.711t-2.258-2.258-1.578-2.711-0.594-3.086v-5.078q0.375 0 0.789 0.008t0.836 0.008q0.828 0 1.664-0.102t1.492-0.508q0.781-0.453 1.547-0.664t1.672-0.211zM30 18.547q-1.031 0-1.984-0.188t-1.844-0.703q-0.531-0.313-1.039-0.445t-1.133-0.133q-0.594 0-1.109 0.133t-1.031 0.43q-0.906 0.516-1.867 0.711t-1.992 0.195v3.078q0 1.344 0.523 2.539t1.375 2.219 1.922 1.844 2.18 1.398q1.094-0.578 2.172-1.398t1.93-1.844 1.375-2.219 0.523-2.539v-3.078z"></path>
</svg>
