<!-- Generated by IcoMoon.io -->
<svg version="1.1" xmlns="http://www.w3.org/2000/svg" width="32" height="32" viewBox="0 0 32 32">
<title>uniF7DB</title>
<path d="M6 24h2v2h-4v-20h-2v22h6v2h-8v-26h4v-2h6q1.375 0 2.648 0.422t2.352 1.266q1.078-0.844 2.352-1.266t2.648-0.422h6v2h4v12.797l-2-0.906v-9.891h-2v8.984l-2-0.922v-10.063h-4q-1.109 0-2.133 0.383t-1.867 1.102v9.5l-2 0.906v-10.406q-0.844-0.719-1.867-1.102t-2.133-0.383h-4v20zM28 27.984l-7 3.516-7-3.516q0-0.563 0.023-1.195t0.125-1.258 0.305-1.211 0.563-1.039l-3.016-1.375v9.094h-2v-10l11-5 11 5-5.016 2.281 0.125 0.172q0.328 0.484 0.508 1.047t0.266 1.148 0.102 1.18 0.016 1.156zM21 18.188l-6.172 2.813 6.172 2.813 6.172-2.813zM21 29.266l5-2.516q-0.016-0.406-0.070-0.742t-0.164-0.641-0.258-0.609-0.352-0.648l-4.156 1.891-4.156-1.891q-0.234 0.375-0.383 0.672t-0.242 0.594-0.141 0.633-0.063 0.758z"></path>
</svg>
