<!-- Generated by IcoMoon.io -->
<svg version="1.1" xmlns="http://www.w3.org/2000/svg" width="32" height="32" viewBox="0 0 32 32">
<title>uniE5D8</title>
<path d="M24 16q1.656 0 3.117 0.625t2.547 1.711 1.711 2.547 0.625 3.117-0.625 3.117-1.711 2.547-2.547 1.711-3.117 0.625-3.117-0.625-2.547-1.711-1.711-2.547-0.625-3.117 0.625-3.117 1.711-2.547 2.547-1.711 3.117-0.625zM28.094 23.938q0-0.234-0.109-0.453t-0.313-0.344l-4.281-2.797q-0.219-0.156-0.484-0.156-0.375 0-0.641 0.297t-0.266 0.656v5.719q0 0.359 0.266 0.656t0.641 0.297q0.266 0 0.5-0.156l4.281-2.922q0.203-0.125 0.305-0.344t0.102-0.453zM14.297 28q0.438 1.047 1.109 2h-7.406q-0.828 0-1.555-0.313t-1.273-0.859-0.859-1.273-0.313-1.555v-22q0-0.828 0.313-1.555t0.859-1.273 1.273-0.859 1.555-0.313h16q0.828 0 1.555 0.313t1.273 0.859 0.859 1.273 0.313 1.555v10.297q-1.906-0.797-4-0.797-2.172 0-4.078 0.828t-3.336 2.258-2.258 3.336-0.828 4.078q0 0.5 0.055 1t0.148 1h-7.703q0 0.422 0.156 0.781t0.43 0.633 0.633 0.43 0.781 0.156h6.297zM8 5v2q0 0.406 0.297 0.703t0.703 0.297h14q0.406 0 0.703-0.297t0.297-0.703v-2q0-0.406-0.297-0.703t-0.703-0.297h-14q-0.406 0-0.703 0.297t-0.297 0.703z"></path>
</svg>
