<!-- Generated by IcoMoon.io -->
<svg version="1.1" xmlns="http://www.w3.org/2000/svg" width="32" height="32" viewBox="0 0 32 32">
<title>uniEF62</title>
<path d="M16 0q2.203 0 4.25 0.57t3.828 1.609 3.242 2.5 2.5 3.242 1.609 3.828 0.57 4.25-0.57 4.25-1.609 3.828-2.5 3.242-3.242 2.5-3.828 1.609-4.25 0.57-4.25-0.57-3.828-1.609-3.242-2.5-2.5-3.242-1.609-3.82-0.57-4.258q0-2.203 0.57-4.25t1.609-3.828 2.5-3.242 3.242-2.5 3.82-1.609 4.258-0.57zM30 16q0-1.125-0.18-2.234t-0.539-2.188q-0.953 0.313-1.898 0.625t-1.898 0.625q0.516 1.531 0.516 3.172 0 1.656-0.516 3.172l3.797 1.25q0.359-1.078 0.539-2.188t0.18-2.234zM2 16q0 1.125 0.18 2.234t0.539 2.188q0.953-0.313 1.898-0.625t1.898-0.625q-0.516-1.516-0.516-3.172 0-1.641 0.516-3.172l-3.797-1.25q-0.359 1.078-0.539 2.188t-0.18 2.234zM8 16q0 1.656 0.633 3.109t1.719 2.539 2.539 1.719 3.109 0.633 3.109-0.633 2.539-1.719 1.719-2.539 0.633-3.109-0.633-3.109-1.719-2.539-2.539-1.719-3.109-0.633-3.109 0.633-2.539 1.719-1.719 2.539-0.633 3.109zM20.422 2.719q-1.078-0.359-2.188-0.539t-2.234-0.18-2.234 0.18-2.188 0.539q0.313 0.953 0.625 1.898t0.625 1.898q1.516-0.516 3.172-0.516 1.641 0 3.172 0.516zM11.578 29.281q1.078 0.359 2.188 0.539t2.234 0.18 2.234-0.18 2.188-0.539q-0.313-0.953-0.625-1.898t-0.625-1.898q-1.531 0.516-3.172 0.516-1.656 0-3.172-0.516z"></path>
</svg>
