<!-- Generated by IcoMoon.io -->
<svg version="1.1" xmlns="http://www.w3.org/2000/svg" width="32" height="32" viewBox="0 0 32 32">
<title>uniEF63</title>
<path d="M26 16q0.828 0 1.555 0.313t1.273 0.859 0.859 1.273 0.313 1.555v2h2v10h-12v-10h2v-2q0-0.828 0.313-1.555t0.859-1.273 1.273-0.859 1.555-0.313zM24 22h4v-2q0-0.422-0.156-0.781t-0.43-0.633-0.633-0.43-0.781-0.156-0.781 0.156-0.633 0.43-0.43 0.633-0.156 0.781v2zM30 24h-8v6h8v-6zM8 16q0 1.656 0.633 3.109t1.719 2.539 2.539 1.719 3.109 0.633q0.5 0 1-0.063t1-0.188v2.047q-0.5 0.094-1 0.148t-1 0.055q-0.813 0-1.602-0.125t-1.555-0.391l-1.266 3.797q1.078 0.359 2.188 0.539t2.234 0.18q1.016 0 2-0.141v2.016q-0.5 0.063-1 0.094t-1 0.031q-2.203 0-4.25-0.57t-3.82-1.617-3.234-2.508-2.508-3.234-1.617-3.82-0.57-4.25 0.57-4.25 1.617-3.82 2.508-3.234 3.234-2.508 3.82-1.617 4.25-0.57 4.25 0.57 3.82 1.617 3.234 2.508 2.508 3.234 1.617 3.82 0.57 4.25q0 1.25-0.188 2.484-0.234-0.859-0.695-1.609t-1.133-1.344q-0.047-2.031-0.703-3.953-0.953 0.313-1.898 0.633t-1.898 0.633q0.094 0.281 0.172 0.57t0.141 0.586h-2.047q-0.344-1.328-1.086-2.43t-1.766-1.898-2.281-1.234-2.617-0.438q-1.656 0-3.109 0.633t-2.539 1.719-1.719 2.539-0.633 3.109zM16 2q-1.125 0-2.234 0.18t-2.188 0.539q0.313 0.953 0.633 1.898t0.633 1.898q0.766-0.266 1.555-0.391t1.602-0.125 1.602 0.125 1.555 0.391l1.266-3.797q-1.078-0.359-2.188-0.539t-2.234-0.18zM6.516 19.156q-0.266-0.766-0.391-1.555t-0.125-1.602 0.125-1.602 0.391-1.555l-3.797-1.266q-0.359 1.078-0.539 2.188t-0.18 2.234 0.18 2.234 0.539 2.188q0.953-0.313 1.898-0.633t1.898-0.633z"></path>
</svg>
