<!-- Generated by IcoMoon.io -->
<svg version="1.1" xmlns="http://www.w3.org/2000/svg" width="32" height="32" viewBox="0 0 32 32">
<title>uniE4D3</title>
<path d="M5.594 30l7.938-7.953q0.031 0.625 0.133 1.234t0.273 1.203l-7.531 7.516h-4.531l6-12h-6.984l10-20h11.234l-6 12h10.281l-0.734 0.75q-0.422-0.078-0.844-0.125t-0.859-0.047q-1.266 0-2.344 0.305t-2.156 0.945q-0.109 0.063-0.375 0.117t-0.375 0.055h-5.828l6-12h-6.766l-8 16h6.984l-6 12h0.484zM32 16.547v5.078q0 1.641-0.594 3.102t-1.586 2.703-2.266 2.242-2.633 1.719l-0.922 0.484-0.938-0.484q-1.359-0.703-2.633-1.711t-2.258-2.258-1.578-2.711-0.594-3.086v-5.078q0.375 0 0.781 0.016t0.828 0.016q0.844 0 1.68-0.109t1.492-0.516q0.781-0.453 1.547-0.664t1.672-0.211q0.922 0 1.688 0.219t1.563 0.672q0.656 0.391 1.5 0.492t1.688 0.102q0.406 0 0.805-0.008t0.758-0.008zM30 21.625v-3.078q-1.031 0-1.984-0.188t-1.844-0.703q-0.531-0.313-1.039-0.445t-1.133-0.133q-0.594 0-1.109 0.133t-1.031 0.43q-0.906 0.516-1.867 0.711t-1.992 0.195v3.078q0 1.344 0.523 2.539t1.375 2.219 1.922 1.844 2.18 1.398q1.094-0.578 2.172-1.398t1.93-1.844 1.375-2.219 0.523-2.539z"></path>
</svg>
