<!-- Generated by IcoMoon.io -->
<svg version="1.1" xmlns="http://www.w3.org/2000/svg" width="32" height="32" viewBox="0 0 32 32">
<title>uniF4EE</title>
<path d="M22.766 20.578q0 1.734-0.586 3.109t-1.617 2.336-2.453 1.469-3.109 0.508h-7v-26h6.844q1.391 0 2.609 0.383t2.125 1.141 1.43 1.883 0.523 2.594q0 1.125-0.305 2.125t-0.891 1.813-1.438 1.414-1.93 0.945v0.063q1.313 0.141 2.375 0.625t1.828 1.281 1.18 1.883 0.414 2.43zM9.797 3.656v10.063h3.625q1.266 0 2.398-0.328t1.984-0.992 1.359-1.68 0.508-2.391q0-1.313-0.414-2.211t-1.156-1.445-1.758-0.781-2.219-0.234h-4.328zM20.938 20.719q0-1.625-0.625-2.672t-1.648-1.648-2.344-0.828-2.695-0.227h-3.828v11.031h4.828q1.375 0 2.539-0.328t2-1.023 1.305-1.758 0.469-2.547z"></path>
</svg>
