<!-- Generated by IcoMoon.io -->
<svg version="1.1" xmlns="http://www.w3.org/2000/svg" width="32" height="32" viewBox="0 0 32 32">
<title>uniE681</title>
<path d="M26 11q0 2.297-0.852 4.203t-2.461 3.516q-0.625 0.625-1.133 1.336t-0.867 1.523-0.523 1.672-0.164 1.75v4q0 0.625-0.234 1.172t-0.641 0.953-0.953 0.641-1.172 0.234h-4q-0.625 0-1.172-0.234t-0.953-0.641-0.641-0.953-0.234-1.172v-4q0-0.891-0.172-1.742t-0.531-1.68q-0.359-0.813-0.859-1.516t-1.125-1.344q-1.609-1.609-2.461-3.516t-0.852-4.203q0-1.516 0.391-2.922t1.109-2.633 1.719-2.227 2.227-1.719 2.633-1.109 2.922-0.391 2.922 0.391 2.633 1.109 2.227 1.719 1.719 2.227 1.109 2.633 0.391 2.922zM18 29v-3h-6v3q0 0.406 0.297 0.703t0.703 0.297h4q0.406 0 0.703-0.297t0.297-0.703z"></path>
</svg>
