<!-- Generated by IcoMoon.io -->
<svg version="1.1" xmlns="http://www.w3.org/2000/svg" width="32" height="32" viewBox="0 0 32 32">
<title>uniEA02</title>
<path d="M27.516 16.188q0.984 0.266 1.805 0.82t1.422 1.32 0.93 1.703 0.328 1.969q0 1.25-0.469 2.336t-1.289 1.906-1.914 1.289-2.328 0.469h-2v-2h2q0.828 0 1.555-0.313t1.273-0.859 0.859-1.273 0.313-1.555q0-0.859-0.32-1.586t-0.883-1.266-1.305-0.844-1.586-0.305q-0.188-1.281-0.797-2.383t-1.531-1.906-2.094-1.258-2.484-0.453q-1.203 0-2.289 0.391t-1.977 1.078-1.539 1.656-0.945 2.109q-0.688-0.594-1.516-0.914t-1.734-0.32q-1.031 0-1.945 0.391t-1.594 1.070-1.070 1.594-0.391 1.945 0.391 1.945 1.070 1.594 1.594 1.070 1.945 0.391h1v2h-1q-1.453 0-2.727-0.555t-2.219-1.5-1.5-2.219-0.555-2.727 0.555-2.727 1.5-2.219 2.219-1.5 2.727-0.555q1.156 0 2.297 0.391 0.609-1.016 1.445-1.828t1.828-1.383 2.117-0.875 2.313-0.305q1.453 0 2.789 0.453t2.461 1.273 1.969 1.953 1.297 2.508zM20.969 28.141q0.219 0.125 0.359 0.359t0.141 0.5q0 0.406-0.297 0.703t-0.703 0.297q-0.266 0-0.5-0.141l-1.969-1.125v2.266q0 0.406-0.297 0.703t-0.703 0.297-0.703-0.297-0.297-0.703v-2.266l-1.969 1.125q-0.234 0.141-0.5 0.141-0.406 0-0.703-0.297t-0.297-0.703q0-0.266 0.141-0.5t0.359-0.359l1.969-1.141-1.969-1.141q-0.219-0.125-0.359-0.359t-0.141-0.5q0-0.406 0.297-0.703t0.703-0.297q0.266 0 0.5 0.141l1.969 1.125v-2.266q0-0.406 0.297-0.703t0.703-0.297 0.703 0.297 0.297 0.703v2.266l1.969-1.125q0.234-0.141 0.5-0.141 0.406 0 0.703 0.297t0.297 0.703q0 0.266-0.141 0.5t-0.359 0.359l-1.969 1.141z"></path>
</svg>
