<!-- Generated by IcoMoon.io -->
<svg version="1.1" xmlns="http://www.w3.org/2000/svg" width="32" height="32" viewBox="0 0 32 32">
<title>uniF3BF</title>
<path d="M29 10q0.609 0 1.156 0.234t0.961 0.641 0.648 0.953 0.234 1.172q0 0.5-0.156 0.953l-4 12q-0.156 0.453-0.438 0.836t-0.656 0.648-0.82 0.414-0.93 0.148h-8q-2.797 0-5.391-1.078-1.125-0.453-2.258-0.688t-2.352-0.234h-7v-14h6.516q1.016 0 1.914-0.375t1.617-1.094l9.719-9.703q0.391-0.391 0.781-0.609t0.953-0.219q0.516 0 0.969 0.195t0.797 0.539 0.539 0.797 0.195 0.969q0 1.266-0.281 2.414t-0.828 2.273q-0.313 0.672-0.531 1.367t-0.297 1.445h6.938z"></path>
</svg>
