<!-- Generated by IcoMoon.io -->
<svg version="1.1" xmlns="http://www.w3.org/2000/svg" width="32" height="32" viewBox="0 0 32 32">
<title>uniE71B</title>
<path d="M24 12v2q1.188 0 2.273 0.273t1.914 0.875 1.32 1.547 0.492 2.305q0 1.031-0.398 1.938t-1.078 1.586-1.586 1.078-1.938 0.398h-8q-1.031 0-1.938-0.398t-1.586-1.078-1.078-1.586-0.398-1.938q0-1.359 0.492-2.305t1.32-1.547 1.914-0.875 2.273-0.273v-2h-1q-1.453 0-2.727 0.555t-2.219 1.5-1.5 2.219-0.555 2.727 0.555 2.727 1.5 2.219 2.219 1.5 2.727 0.555h8q1.453 0 2.727-0.555t2.219-1.5 1.5-2.219 0.555-2.727-0.555-2.727-1.5-2.219-2.219-1.5-2.727-0.555h-1zM14 20v-2q1.188 0 2.273-0.273t1.914-0.875 1.32-1.547 0.492-2.305q0-1.031-0.398-1.938t-1.078-1.586-1.586-1.078-1.938-0.398h-8q-1.031 0-1.938 0.398t-1.586 1.078-1.078 1.586-0.398 1.938q0 1.359 0.492 2.305t1.32 1.547 1.914 0.875 2.273 0.273v2h-1q-1.453 0-2.727-0.555t-2.219-1.5-1.5-2.219-0.555-2.727 0.555-2.727 1.5-2.219 2.219-1.5 2.727-0.555h8q1.453 0 2.727 0.555t2.219 1.5 1.5 2.219 0.555 2.727-0.555 2.727-1.5 2.219-2.219 1.5-2.727 0.555h-1z"></path>
</svg>
