<!-- Generated by IcoMoon.io -->
<svg version="1.1" xmlns="http://www.w3.org/2000/svg" width="32" height="32" viewBox="0 0 32 32">
<title>uniF20A</title>
<path d="M29.625 0q0.484 0 0.914 0.18t0.758 0.492 0.516 0.734 0.188 0.906v27.375q0 0.484-0.188 0.906t-0.516 0.734-0.758 0.492-0.914 0.18h-27.266q-0.484 0-0.914-0.18t-0.75-0.492-0.508-0.734-0.188-0.906v-27.375q0-0.484 0.188-0.906t0.508-0.734 0.75-0.492 0.914-0.18h27.266zM9.484 27v-15h-4.75v15h4.75zM7.109 9.906q0.563 0 1.070-0.211t0.883-0.586 0.594-0.875 0.219-1.078-0.219-1.078-0.594-0.875-0.883-0.586-1.070-0.211-1.063 0.219-0.875 0.594-0.594 0.875-0.219 1.063 0.219 1.063 0.594 0.875 0.875 0.594 1.063 0.219zM27.266 27v-8.109q0-1.547-0.219-2.875t-0.836-2.305-1.727-1.531-2.906-0.555q-0.672 0-1.336 0.156t-1.258 0.469-1.086 0.766-0.82 1.063h-0.063v-2.078h-4.547v15h4.734v-7.281q0-0.75 0.102-1.461t0.406-1.258 0.859-0.875 1.477-0.328q0.906 0 1.406 0.375t0.734 0.961 0.281 1.305 0.047 1.406v7.156h4.75z"></path>
</svg>
