<!-- Generated by IcoMoon.io -->
<svg version="1.1" xmlns="http://www.w3.org/2000/svg" width="32" height="32" viewBox="0 0 32 32">
<title>uniF779</title>
<path d="M2 25q0 0.313 0.203 0.555t0.422 0.43q0.547 0.453 1.266 0.781t1.531 0.547 1.68 0.359 1.727 0.211 1.672 0.094 1.5 0.023v2h-1.156q-0.734 0-1.82-0.094t-2.289-0.313-2.406-0.586-2.164-0.922-1.563-1.32-0.602-1.766v-18q0-1.078 0.617-1.867t1.602-1.344 2.219-0.906 2.453-0.547 2.313-0.266 1.797-0.070 1.797 0.070 2.313 0.266 2.453 0.547 2.219 0.906 1.602 1.344 0.617 1.867v9h-2v-6.047q-0.906 0.578-2.031 0.969t-2.32 0.633-2.398 0.344-2.25 0.102q-1.063 0-2.258-0.102t-2.391-0.344-2.32-0.633-2.031-0.969v15.047zM11 4q-0.922 0-2.070 0.094t-2.305 0.32-2.219 0.617-1.781 0.984q-0.219 0.188-0.422 0.43t-0.203 0.555 0.203 0.555 0.422 0.43q0.719 0.594 1.781 0.984t2.219 0.617 2.305 0.32 2.070 0.094q0.906 0 2.055-0.094t2.313-0.32 2.211-0.617 1.781-0.984q0.219-0.172 0.43-0.422t0.211-0.563-0.211-0.563-0.43-0.422q-0.734-0.594-1.781-0.984t-2.211-0.617-2.313-0.32-2.055-0.094zM17 20q-0.625 0-1.172 0.234t-0.953 0.641-0.641 0.953-0.234 1.172q0 1.016 0.578 1.773t1.516 1.086q-0.094 0.563-0.094 1.141 0 0.234 0.016 0.461t0.047 0.445q-0.875-0.141-1.625-0.594t-1.289-1.117-0.844-1.492-0.305-1.703q0-1.031 0.391-1.945t1.070-1.594 1.594-1.070 1.945-0.391h4q1.031 0 1.938 0.398t1.586 1.078 1.078 1.586 0.398 1.938q0 0.844-0.32 1.641t-0.867 1.461-1.273 1.141-1.539 0.664v-2.078q0.656-0.141 1.047-0.367t0.602-0.563 0.281-0.805 0.070-1.094-0.234-1.172-0.641-0.953-0.953-0.641-1.172-0.234h-4zM27.938 22.094q0.891 0.188 1.633 0.633t1.281 1.094 0.844 1.453 0.305 1.727q0 1.031-0.391 1.945t-1.070 1.594-1.594 1.070-1.945 0.391h-4q-1.047 0-1.953-0.391t-1.586-1.070-1.070-1.586-0.391-1.953q0-0.891 0.297-1.703t0.828-1.461 1.266-1.102 1.609-0.641v2.078q-0.906 0.328-1.453 1.086t-0.547 1.742q0 0.625 0.234 1.172t0.641 0.953 0.953 0.641 1.172 0.234h4q0.625 0 1.172-0.234t0.953-0.641 0.641-0.953 0.234-1.172q0-1.016-0.578-1.773t-1.516-1.086q0.094-0.563 0.094-1.141 0-0.234-0.016-0.461t-0.047-0.445z"></path>
</svg>
