<!-- Generated by IcoMoon.io -->
<svg version="1.1" xmlns="http://www.w3.org/2000/svg" width="32" height="32" viewBox="0 0 32 32">
<title>uniF6E3</title>
<path d="M26.672 11.172q1.188 0.422 2.172 1.172t1.688 1.734 1.086 2.156 0.383 2.438q0 1.656-0.633 3.109t-1.719 2.539-2.539 1.719-3.109 0.633h-8q-1.656 0-3.109-0.633t-2.539-1.719-1.719-2.539-0.633-3.109 0.633-3.109 1.719-2.539 2.539-1.719 3.109-0.633h2.672q0 0.547-0.211 1.031t-0.578 0.844-0.852 0.57-1.031 0.211q-1.109 0-2.078 0.422t-1.695 1.148-1.141 1.703-0.414 2.070q0 1.109 0.422 2.078t1.141 1.688 1.688 1.141 2.078 0.422h8q1.094 0 2.070-0.422t1.695-1.141 1.141-1.688 0.422-2.078q0-1.438-0.719-2.633t-1.938-1.914v-2.953zM2.672 10.672q0 1.422 0.719 2.617t1.938 1.93v2.953q-1.188-0.422-2.172-1.172t-1.688-1.734-1.086-2.156-0.383-2.438q0-1.656 0.633-3.109t1.719-2.539 2.539-1.719 3.109-0.633h8q1.656 0 3.109 0.633t2.539 1.719 1.719 2.539 0.633 3.109-0.633 3.109-1.719 2.539-2.539 1.719-3.109 0.633h-2.672q0-0.547 0.211-1.031t0.57-0.852 0.844-0.578 1.047-0.211q1.094 0 2.070-0.422t1.695-1.141 1.141-1.688 0.422-2.078q0-1.094-0.414-2.070t-1.141-1.703-1.695-1.148-2.078-0.422h-8q-1.109 0-2.078 0.422t-1.695 1.148-1.141 1.703-0.414 2.070z"></path>
</svg>
