<!-- Generated by IcoMoon.io -->
<svg version="1.1" xmlns="http://www.w3.org/2000/svg" width="32" height="32" viewBox="0 0 32 32">
<title>uniF6A6</title>
<path d="M15 12q1.453 0 2.727 0.555t2.219 1.5 1.5 2.219 0.555 2.727-0.555 2.727-1.5 2.219-2.219 1.5-2.727 0.555-2.727-0.555-2.219-1.5-1.5-2.219-0.555-2.727 0.555-2.727 1.5-2.219 2.219-1.5 2.727-0.555zM20.406 18q-0.234-1.25-0.984-2.266t-1.875-1.609q0.453 0.906 0.656 1.891t0.266 1.984h1.938zM16.953 20h-3.922q0.016 0.25 0.070 0.688t0.156 0.938 0.258 1.008 0.375 0.922 0.492 0.68 0.617 0.266q0.328 0 0.594-0.266t0.477-0.688 0.367-0.938 0.266-1.016 0.172-0.93 0.078-0.664zM13.031 18h3.938q-0.016-0.234-0.078-0.656t-0.172-0.922-0.273-1.016-0.375-0.945-0.484-0.695-0.586-0.266q-0.344 0-0.617 0.266t-0.484 0.688-0.367 0.938-0.266 1.016-0.164 0.93-0.070 0.664zM12.391 14.156q-0.547 0.297-1.008 0.703t-0.82 0.898-0.609 1.063-0.359 1.18h1.938q0.063-0.984 0.25-1.961t0.609-1.883zM9.594 20q0.219 1.219 0.953 2.227t1.813 1.602q-0.406-0.891-0.586-1.867t-0.242-1.961h-1.938zM17.563 23.875q1.109-0.594 1.859-1.617t0.984-2.258h-1.938q-0.078 0.984-0.289 1.977t-0.617 1.898zM17.422 0l8.578 8.578v21.422h-22v-30h13.422zM18 3.422v4.578h4.578zM6 28h18v-18h-8v-8h-10v26z"></path>
</svg>
