<!-- Generated by IcoMoon.io -->
<svg version="1.1" xmlns="http://www.w3.org/2000/svg" width="32" height="32" viewBox="0 0 32 32">
<title>uniE80E</title>
<path d="M16 2q1.922 0 3.711 0.5t3.344 1.414 2.836 2.195 2.195 2.836 1.414 3.344 0.5 3.711-0.5 3.711-1.414 3.344-2.195 2.836-2.836 2.195-3.344 1.414-3.711 0.5-3.711-0.5-3.344-1.414-2.836-2.195-2.195-2.836-1.414-3.336-0.5-3.719q0-1.922 0.5-3.711t1.414-3.344 2.195-2.836 2.836-2.195 3.336-1.414 3.719-0.5zM16 28q1.656 0 3.188-0.43t2.867-1.211 2.43-1.875 1.875-2.43 1.211-2.867 0.43-3.188-0.43-3.188-1.211-2.867-1.875-2.43-2.43-1.875-2.867-1.211-3.188-0.43-3.188 0.43-2.867 1.211-2.43 1.875-1.875 2.43-1.211 2.867-0.43 3.188 0.43 3.188 1.211 2.867 1.875 2.43 2.43 1.875 2.867 1.211 3.188 0.43z"></path>
</svg>
