<!-- Generated by IcoMoon.io -->
<svg version="1.1" xmlns="http://www.w3.org/2000/svg" width="32" height="32" viewBox="0 0 32 32">
<title>uniF1FB</title>
<path d="M20 8q0 1.656-0.625 3.117t-1.711 2.547-2.547 1.711-3.117 0.625q-1.375 0-2.656 0.359t-2.391 1.008-2.023 1.563-1.563 2.023-1.008 2.391-0.359 2.656h-2q0-1.891 0.555-3.625t1.563-3.195 2.438-2.586 3.18-1.813q-0.875-0.563-1.57-1.305t-1.172-1.609-0.734-1.844-0.258-2.023q0-1.656 0.625-3.117t1.711-2.547 2.547-1.711 3.117-0.625 3.117 0.625 2.547 1.711 1.711 2.547 0.625 3.117zM12 14q1.234 0 2.328-0.469t1.914-1.289 1.289-1.906 0.469-2.336q0-1.234-0.469-2.328t-1.289-1.914-1.914-1.289-2.328-0.469q-1.25 0-2.336 0.469t-1.906 1.289-1.289 1.914-0.469 2.328q0 1.25 0.469 2.336t1.289 1.906 1.906 1.289 2.336 0.469zM32 16.547v5.078q0 1.641-0.594 3.102t-1.586 2.703-2.266 2.242-2.633 1.719l-0.922 0.484-0.938-0.484q-1.359-0.703-2.633-1.711t-2.258-2.258-1.578-2.711-0.594-3.086v-5.078q0.547 0 1.18 0.016t1.266-0.016 1.234-0.164 1.102-0.43q0.781-0.453 1.547-0.664t1.672-0.211q0.922 0 1.688 0.219t1.563 0.672q0.484 0.281 1.086 0.414t1.234 0.164 1.258 0.016 1.172-0.016zM30 21.625v-3.078q-1.031 0-1.984-0.188t-1.844-0.703q-0.531-0.313-1.039-0.445t-1.133-0.133q-0.594 0-1.109 0.133t-1.031 0.43q-0.906 0.516-1.867 0.711t-1.992 0.195v3.078q0 1.344 0.523 2.539t1.375 2.219 1.922 1.844 2.18 1.398q1.094-0.578 2.172-1.398t1.93-1.844 1.375-2.219 0.523-2.539z"></path>
</svg>
