<!-- Generated by IcoMoon.io -->
<svg version="1.1" xmlns="http://www.w3.org/2000/svg" width="32" height="32" viewBox="0 0 32 32">
<title>uniF2B7</title>
<path d="M9.391 18l4.609 13.844v0.156h-2.047l-1.344-4h-5.219l-1.344 4h-2.047v-0.156l4.609-13.844h2.781zM9.953 26l-1.953-5.844-1.953 5.844h3.906zM13.953 8q0.047 1.016 0.047 2 0 0.5-0.008 1t-0.023 1h-1.969v2h-3.828q0.078 0.5 0.164 1t0.211 1h-2.016q-0.125-0.5-0.195-1t-0.133-1h-3.266q0.313 0.563 0.727 1.063t0.883 0.938h-0.547l-0.703 1.406q-1.578-1.422-2.438-3.352t-0.859-4.055q0-1.375 0.359-2.656t1.008-2.391 1.563-2.023 2.023-1.563 2.391-1.008 2.656-0.359 2.656 0.359 2.391 1.008 2.023 1.563 1.563 2.023 1.008 2.391 0.359 2.656q0 0.5-0.055 1t-0.148 1h-1.938q0.266-1.016 0.266-2t-0.266-2h-3.906zM10 1.875q-0.297 0-0.539 0.25t-0.438 0.648-0.336 0.875-0.242 0.938-0.164 0.844-0.094 0.57h3.609q-0.031-0.172-0.094-0.555t-0.164-0.836-0.25-0.938-0.344-0.883-0.43-0.656-0.516-0.258zM6.047 12q-0.047-1-0.047-2 0-0.984 0.047-2h-3.906q-0.266 1.016-0.266 2t0.266 2h3.906zM6.219 6q0.094-0.906 0.281-1.813t0.531-1.75q-1.297 0.516-2.352 1.43t-1.742 2.133h3.281zM11.984 12q0.047-1 0.047-2 0-0.984-0.047-2h-3.969q-0.047 1.016-0.047 2 0 1 0.047 2h3.969zM12.891 2.422q0.359 0.844 0.563 1.75t0.313 1.828h3.297q-0.703-1.219-1.773-2.148t-2.398-1.43zM21.734 13.891q0-0.469-0.016-0.953t-0.125-0.938q1.078 0 2.141 0.094 0.094 0.016 0.195 0.047t0.102 0.156q0 0.078-0.047 0.188t-0.078 0.188q-0.031 0.094-0.055 0.25t-0.031 0.336-0.008 0.344v0.461h4.625q0.656 0 1.305-0.016t1.305-0.031q0.109 0 0.203 0.047 0.047 0.078 0.047 0.156-0.016 0.266-0.031 0.555t-0.016 0.555v0.906q0 0.563 0.016 1.133t0.031 1.133q0 0.047-0.008 0.109t-0.039 0.094q-0.125 0.031-0.203 0.031t-0.391 0.008-0.641 0.008q-0.297 0-0.531-0.016t-0.266-0.047q-0.031-0.125-0.039-0.375t-0.008-0.563q0-0.516 0.016-1.063t0.016-0.813h-12.531v0.227t0.008 0.391 0.008 0.484v0.523q0 0.453-0.016 0.82t-0.047 0.398q-0.125 0.031-0.203 0.031h-1.594q-0.172 0-0.203-0.047t-0.031-0.203q0.016-0.625 0.016-1.234v-2.141t-0.016-0.906q0-0.078 0.031-0.172 0.125-0.031 0.203-0.031 0.656 0.016 1.305 0.031t1.305 0.016h4.297v-0.172zM31.719 22.531q0.031 0.125 0.031 0.203v1.5q0 0.063-0.031 0.188-0.125 0.031-0.203 0.031-0.625-0.016-1.234-0.031t-1.234-0.016h-5.016v0.516q0 0.813 0.016 1.625t0.047 1.625v0.063q0 0.375-0.141 0.75t-0.453 0.594q-0.219 0.156-0.617 0.242t-0.852 0.125-0.883 0.047-0.68 0.008q-0.094 0-0.297-0.008t-0.281-0.086q-0.047-0.047-0.109-0.25t-0.094-0.281q-0.109-0.406-0.258-0.758t-0.367-0.711q0.531 0.063 1.063 0.086t1.063 0.023q0.375 0 0.57-0.117t0.195-0.523v-2.969h-4.984q-0.625 0-1.25 0.016l-1.25 0.031q-0.125 0-0.188-0.047-0.031-0.094-0.031-0.172v-1.5q0-0.047 0.008-0.117t0.039-0.102q0.094-0.031 0.172-0.031l1.25 0.031t1.25 0.016h4.984q-0.031-0.406-0.039-0.82t-0.086-0.82q0.313 0.031 0.617 0.055t0.617 0.055q0.031 0 0.055 0.008t0.055 0.008q0.547-0.391 1.047-0.828t1-0.891h-4.813q-0.656 0-1.305 0.016t-1.305 0.031q-0.125 0-0.188-0.047-0.031-0.094-0.031-0.172v-1.484q0-0.063 0.031-0.188 0.125-0.031 0.188-0.031 0.656 0.016 1.305 0.031t1.305 0.016h5.828q0.25 0 0.469-0.070t0.391-0.070q0.125 0 0.359 0.188t0.469 0.438 0.414 0.508 0.18 0.383q0 0.156-0.102 0.242t-0.227 0.148q-0.219 0.109-0.422 0.281t-0.391 0.328q-0.813 0.672-1.633 1.305t-1.711 1.211v0.172h5.016q0.625 0 1.234-0.016t1.234-0.031q0.109 0 0.203 0.047z"></path>
</svg>
