<!-- Generated by IcoMoon.io -->
<svg version="1.1" xmlns="http://www.w3.org/2000/svg" width="32" height="32" viewBox="0 0 32 32">
<title>uniE455</title>
<path d="M25.453 27.953l-1.406-1.406 2.531-2.547h-4.578q-0.422 0-0.781 0.156t-0.633 0.43-0.43 0.633-0.156 0.781v2h-2v-2q0-0.828 0.313-1.555t0.859-1.273 1.273-0.859 1.555-0.313h4.578l-2.531-2.547 1.406-1.406 4.953 4.953zM18 32v-2h10v2h-10zM6 16v14h10v2h-12v-18h4v-5.844q0-1.688 0.609-3.172t1.688-2.594 2.539-1.75 3.164-0.641 3.164 0.641 2.539 1.75 1.688 2.594 0.609 3.172v5.844h4v2h-22zM10 8.156v5.844h12v-5.844q0-1.266-0.453-2.383t-1.258-1.961-1.906-1.328-2.383-0.484-2.383 0.484-1.906 1.328-1.258 1.961-0.453 2.383z"></path>
</svg>
