<!-- Generated by IcoMoon.io -->
<svg version="1.1" xmlns="http://www.w3.org/2000/svg" width="32" height="32" viewBox="0 0 32 32">
<title>uniF316</title>
<path d="M4 28h17.063l-2 2h-17.063v-6h-2v-2h2v-12h-2v-2h2v-8h28v19.063l-2 2v-19.063h-24v6h2v2h-2v12h2v2h-2v4zM16 10v14h-6v-14h6zM14 12h-2v10h2v-10zM22 19.969v-11.969h-2v13.969l-1.484 1.484 0.531 0.547h-1.047v-18h6v13.047l-0.547-0.531zM28.422 27l3.531 3.547-1.406 1.406-3.547-3.531-3.547 3.547-1.406-1.422 3.547-3.547-3.547-3.547 1.406-1.406 3.547 3.547 3.547-3.547 1.406 1.422z"></path>
</svg>
