<!-- Generated by IcoMoon.io -->
<svg version="1.1" xmlns="http://www.w3.org/2000/svg" width="32" height="32" viewBox="0 0 32 32">
<title>uniE5EE</title>
<path d="M30 15v11h-2v-2.094q-0.984 1.016-2.281 1.555t-2.719 0.539q-1.047 0-1.953-0.391t-1.586-1.070-1.070-1.586-0.391-1.953q0-0.797 0.273-1.516t0.758-1.289 1.148-0.961 1.445-0.516l6.375-1.063v-0.656q0-0.625-0.234-1.172t-0.641-0.953-0.953-0.641-1.172-0.234q-1.406 0-2.703 0.508t-2.297 1.492v-2.547q1.109-0.719 2.391-1.086t2.609-0.367q1.047 0 1.953 0.391t1.586 1.070 1.070 1.586 0.391 1.953zM28 19v-1.313l-6.047 1q-0.422 0.078-0.781 0.281t-0.617 0.516-0.406 0.703-0.148 0.813q0 0.625 0.234 1.172t0.641 0.953 0.953 0.641 1.172 0.234q1.031 0 1.945-0.391t1.594-1.070 1.070-1.594 0.391-1.945zM14 15v11h-2v-2.094q-0.984 1.016-2.281 1.555t-2.719 0.539q-1.047 0-1.953-0.391t-1.586-1.070-1.070-1.586-0.391-1.953q0-0.797 0.273-1.516t0.758-1.289 1.148-0.961 1.445-0.516l6.375-1.063v-0.656q0-0.625-0.234-1.172t-0.641-0.953-0.953-0.641-1.172-0.234q-1.406 0-2.703 0.508t-2.297 1.492v-2.547q1.109-0.719 2.391-1.086t2.609-0.367q1.047 0 1.953 0.391t1.586 1.070 1.070 1.586 0.391 1.953zM12 19v-1.313l-6.047 1q-0.422 0.078-0.781 0.281t-0.617 0.516-0.406 0.703-0.148 0.813q0 0.625 0.234 1.172t0.641 0.953 0.953 0.641 1.172 0.234q1.031 0 1.945-0.391t1.594-1.070 1.070-1.594 0.391-1.945z"></path>
</svg>
