<!-- Generated by IcoMoon.io -->
<svg version="1.1" xmlns="http://www.w3.org/2000/svg" width="32" height="32" viewBox="0 0 32 32">
<title>uniED79</title>
<path d="M21.703 12.453q-0.453 0-0.898 0.063t-0.805 0.359v-2.906q0.203-0.031 0.383-0.102t0.383-0.102q-0.047-0.078-0.18-0.227t-0.258-0.313-0.227-0.328-0.102-0.273v-0.719q0-0.219 0.117-0.391t0.297-0.289 0.398-0.18 0.406-0.063q0.266 0 0.523 0.117t0.414 0.336l3.813 5.016h-4.266zM32 15.891q0 1.078-0.359 2.078t-1.016 1.805-1.555 1.352-1.977 0.734q0.25 0.344 0.516 0.688t0.266 0.797q0 0.531-0.367 0.906t-0.898 0.375q-0.328 0-0.531-0.102t-0.406-0.367l-3.813-4.906q1.109 0.016 2.211 0.023t2.211 0.008q0.172 0 0.406-0.055t0.391-0.117q0.516-0.172 0.93-0.5t0.719-0.75 0.469-0.922 0.164-1.047q0-0.594-0.195-1.172t-0.57-1.047q-0.125-0.156-0.148-0.18t-0.031-0.016-0.031-0.016-0.148-0.164l-2.844-3.438h1.188v-0.016q1.172 0.078 2.164 0.602t1.719 1.352 1.133 1.891 0.406 2.203zM20 18.813l2.438 3.078h-1.078q-0.406 0-0.711-0.078t-0.648-0.297v-2.703zM1 4.25l18-3.203v29.906l-18-3.109v-23.594zM7.281 21.781l6.078 0.344-0.031-2.234-4.016-0.063v-10.047l-2.031 0.25v11.75z"></path>
</svg>
