<!-- Generated by IcoMoon.io -->
<svg version="1.1" xmlns="http://www.w3.org/2000/svg" width="32" height="32" viewBox="0 0 32 32">
<title>uniF7C1</title>
<path d="M22.828 11.203h-16.109v-3.203h16.109v3.203zM12 18h20v6.406q0 1.156-0.438 2.172t-1.203 1.781-1.781 1.203-2.172 0.438h-20.813q-1.156 0-2.172-0.438t-1.781-1.203-1.203-1.781-0.438-2.172v-24.406h29.594v15.594h-3.188v-12.391h-23.203v21.203q0 0.5 0.188 0.93t0.516 0.758 0.758 0.516 0.93 0.188h4q0.484 0 0.922-0.188t0.766-0.516 0.523-0.766 0.195-0.922v-6.406zM28.797 24.406v-3.203h-13.594v3.203q0 0.625-0.133 1.234t-0.414 1.156h11.75q0.484 0 0.922-0.188t0.766-0.516 0.516-0.758 0.188-0.93z"></path>
</svg>
