<!-- Generated by IcoMoon.io -->
<svg version="1.1" xmlns="http://www.w3.org/2000/svg" width="32" height="32" viewBox="0 0 32 32">
<title>uniE3B8</title>
<path d="M30.75 17.109q0.594 0.563 0.922 1.313t0.328 1.578-0.313 1.555-0.859 1.273-1.273 0.859-1.555 0.313q-0.328 0-0.656-0.047l-7.359 3.672q0.016 0.094 0.016 0.188v0.188q0 0.828-0.313 1.555t-0.859 1.273-1.273 0.859-1.555 0.313q-0.813 0-1.539-0.313t-1.281-0.852-0.875-1.258-0.32-1.531q0-0.109 0.008-0.211t0.023-0.211l-7.359-3.672q-0.328 0.047-0.656 0.047-0.828 0-1.555-0.313t-1.273-0.859-0.859-1.273-0.313-1.555q0-1.109 0.57-2.055t1.539-1.461l2.734-10.031q-0.844-1.078-0.844-2.453 0-0.828 0.313-1.555t0.859-1.273 1.273-0.859 1.555-0.313q1.078 0 2 0.531t1.469 1.469h9.063q0.547-0.938 1.469-1.469t2-0.531q0.828 0 1.555 0.313t1.273 0.859 0.859 1.273 0.313 1.555q0 0.656-0.203 1.273t-0.609 1.133zM24 20q0-0.859 0.344-1.641t1-1.344l-7.016-5.266-10.359 7.766 0.031 0.484h16zM8 8q-0.734 0-1.438-0.266l-2.25 8.281q0.859 0.078 1.617 0.484t1.273 1.094l9.469-7.094-5.469-4.094q-0.578 0.75-1.414 1.172t-1.789 0.422zM27.391 16.047q0.125-0.031 0.281-0.039t0.297-0.008h0.156t0.156 0.016l-2.766-8.313q-0.766 0.297-1.516 0.297-0.313 0-0.609-0.047l-3.391 2.547zM24 2q-0.422 0-0.781 0.156t-0.633 0.43-0.43 0.633-0.156 0.781 0.156 0.781 0.43 0.633 0.633 0.43 0.781 0.156 0.781-0.156 0.633-0.43 0.43-0.633 0.156-0.781-0.156-0.781-0.43-0.633-0.633-0.43-0.781-0.156zM20 4h-8l-0.031 0.484 6.359 4.766 3.016-2.266q-0.656-0.563-1-1.344t-0.344-1.641zM8 2q-0.422 0-0.781 0.156t-0.633 0.43-0.43 0.633-0.156 0.781 0.156 0.781 0.43 0.633 0.633 0.43 0.781 0.156 0.781-0.156 0.633-0.43 0.43-0.633 0.156-0.781-0.156-0.781-0.43-0.633-0.633-0.43-0.781-0.156zM2 20q0 0.422 0.156 0.781t0.43 0.633 0.633 0.43 0.781 0.156 0.781-0.156 0.633-0.43 0.43-0.633 0.156-0.781-0.156-0.781-0.43-0.633-0.633-0.43-0.781-0.156-0.781 0.156-0.633 0.43-0.43 0.633-0.156 0.781zM16 30q0.422 0 0.781-0.156t0.633-0.43 0.43-0.633 0.156-0.781-0.156-0.781-0.43-0.633-0.633-0.43-0.781-0.156-0.781 0.156-0.633 0.43-0.43 0.633-0.156 0.781 0.156 0.781 0.43 0.633 0.633 0.43 0.781 0.156zM16 24q0.984 0 1.867 0.461t1.43 1.273l5.859-2.922q-0.172-0.188-0.336-0.391t-0.289-0.422h-17.063q-0.125 0.219-0.289 0.422t-0.336 0.391l5.859 2.922q0.547-0.813 1.43-1.273t1.867-0.461zM28 22q0.422 0 0.781-0.156t0.633-0.43 0.43-0.633 0.156-0.781q0-0.516-0.25-0.969t-0.688-0.719l-0.016 0.016-0.016-0.016 0.016-0.016q-0.5-0.297-1.047-0.297-0.422 0-0.781 0.156t-0.633 0.43-0.43 0.633-0.156 0.781 0.156 0.781 0.43 0.633 0.633 0.43 0.781 0.156z"></path>
</svg>
