<!-- Generated by IcoMoon.io -->
<svg version="1.1" xmlns="http://www.w3.org/2000/svg" width="32" height="32" viewBox="0 0 32 32">
<title>uniF417</title>
<path d="M0 6v10h2v-5.875l14 6.984 14-6.984v13.875h-22v2h24v-20h-32zM16 14.891l-13.766-6.891h27.531zM6 30h-2v2h2v-2zM5 18q-0.828 0-1.555 0.313t-1.273 0.859-0.859 1.273-0.313 1.555q0 0.719 0.219 1.266t0.555 0.984 0.727 0.789 0.727 0.695 0.555 0.703 0.219 0.813v0.75h2v-0.75q0-0.734-0.219-1.273t-0.555-0.977-0.727-0.789-0.727-0.695-0.555-0.703-0.219-0.813q0-0.422 0.156-0.781t0.43-0.633 0.633-0.43 0.781-0.156 0.781 0.156 0.633 0.43 0.43 0.633 0.156 0.781h2q0-0.828-0.313-1.555t-0.859-1.273-1.273-0.859-1.555-0.313z"></path>
</svg>
