<!-- Generated by IcoMoon.io -->
<svg version="1.1" xmlns="http://www.w3.org/2000/svg" width="32" height="32" viewBox="0 0 32 32">
<title>uniF72E</title>
<path d="M15 17.188l-13-8.359v15.172h12v2h-14v-20h30v9.391q-0.203-0.141-0.453-0.305t-0.516-0.313-0.531-0.281-0.5-0.195v-5.469zM25.594 8h-21.188l10.594 6.813zM32 24q0 1.656-0.625 3.117t-1.711 2.547-2.547 1.711-3.117 0.625-3.117-0.625-2.547-1.711-1.711-2.547-0.625-3.117 0.625-3.117 1.711-2.547 2.547-1.711 3.117-0.625 3.117 0.625 2.547 1.711 1.711 2.547 0.625 3.117zM24 30q1.234 0 2.328-0.469t1.914-1.289 1.289-1.906 0.469-2.336q0-1.234-0.469-2.328t-1.289-1.914-1.914-1.289-2.328-0.469q-1.25 0-2.336 0.469t-1.906 1.289-1.289 1.914-0.469 2.328q0 1.25 0.469 2.336t1.289 1.906 1.906 1.289 2.336 0.469zM24 20v4h3v2h-5v-6h2z"></path>
</svg>
