<!-- Generated by IcoMoon.io -->
<svg version="1.1" xmlns="http://www.w3.org/2000/svg" width="32" height="32" viewBox="0 0 32 32">
<title>uniED84</title>
<path d="M32 26q0.031 1.219-0.469 2.281t-1.344 1.867-1.938 1.289-2.25 0.547h-0.141l-0.031 0.016h-0.172q-1.703 0-3.188-0.68t-2.469-2.117v2.797h-2v-6h6v2h-2.375q0.297 0.453 0.719 0.82t0.914 0.633 1.023 0.406 1.078 0.141q0.875 0 1.641-0.227t1.367-0.68 1.016-1.117 0.586-1.539l0.016-0.031v-0.172l0.016-0.031v-0.203h2zM30 18h2v6h-6v-2h2.375q-0.297-0.453-0.719-0.82t-0.914-0.633-1.031-0.406-1.070-0.141q-0.875 0-1.641 0.227t-1.367 0.68-1.016 1.117-0.586 1.539l-0.016 0.031v0.172l-0.016 0.031v0.203h-2q-0.031-1.219 0.461-2.281t1.336-1.867 1.945-1.289 2.258-0.547h0.141l0.031-0.016h0.172q1.703 0 3.188 0.68t2.469 2.117v-2.797zM32 6v10h-2v-5.875l-14 6.984-14-6.984v13.875h14v2h-16v-20h32zM16 14.891l13.766-6.891h-27.531z"></path>
</svg>
