<!-- Generated by IcoMoon.io -->
<svg version="1.1" xmlns="http://www.w3.org/2000/svg" width="32" height="32" viewBox="0 0 32 32">
<title>uniE8CA</title>
<path d="M32 6v16.906q-0.453-0.359-0.953-0.617t-1.047-0.445v-12.734l-14 7.016-14-7.016v14.891h16v2h-18v-20h32zM16 13.875l11.766-5.875h-23.531zM23.422 24q0.781 0 1.727-0.039t1.898 0.008 1.844 0.227 1.586 0.625 1.109 1.211 0.414 1.969q0 0.828-0.32 1.555t-0.859 1.266-1.273 0.859-1.547 0.32v-2q0.422 0 0.781-0.156t0.633-0.43 0.43-0.633 0.156-0.781-0.156-0.781-0.43-0.633-0.633-0.43-0.781-0.156h-4.578l2.531 2.547-1.406 1.406-4.953-4.953 4.953-4.953 1.406 1.406z"></path>
</svg>
