<!-- Generated by IcoMoon.io -->
<svg version="1.1" xmlns="http://www.w3.org/2000/svg" width="32" height="32" viewBox="0 0 32 32">
<title>uniED80</title>
<path d="M32 6v10.688q-0.859-1.234-2-2.172v-4.391l-4.406 2.188q-0.641-0.141-1.289-0.227t-1.305-0.086q-0.359 0-0.727 0.031t-0.727 0.078l8.219-4.109h-27.531l13.5 6.75q-0.391 0.359-0.75 0.734t-0.672 0.781l-12.313-6.141v13.875h10.047q0.047 0.5 0.148 1t0.227 1h-12.422v-20h32zM23 14q1.859 0 3.5 0.711t2.859 1.93 1.93 2.859 0.711 3.5-0.711 3.5-1.93 2.859-2.859 1.93-3.5 0.711-3.5-0.711-2.859-1.93-1.93-2.859-0.711-3.5 0.711-3.5 1.93-2.859 2.859-1.93 3.5-0.711zM23 30q1.453 0 2.727-0.555t2.219-1.5 1.5-2.219 0.555-2.727-0.555-2.727-1.5-2.219-2.219-1.5-2.727-0.555-2.727 0.555-2.219 1.5-1.5 2.219-0.555 2.727 0.555 2.727 1.5 2.219 2.219 1.5 2.727 0.555zM22 18h2v6h-2v-6zM22 26h2v2h-2v-2z"></path>
</svg>
