<!-- Generated by IcoMoon.io -->
<svg version="1.1" xmlns="http://www.w3.org/2000/svg" width="32" height="32" viewBox="0 0 32 32">
<title>uniEFAC</title>
<path d="M17 20q-0.625 0-1.172 0.234t-0.953 0.641-0.641 0.953-0.234 1.172q0 0.5 0.156 0.945t0.43 0.82 0.664 0.656 0.859 0.438q-0.047 0.281-0.078 0.57t-0.031 0.57q0 0.219 0.031 0.453t0.063 0.453q-0.891-0.156-1.641-0.602t-1.297-1.102-0.852-1.477-0.305-1.727q0-1.031 0.391-1.938t1.070-1.586 1.594-1.078 1.945-0.398h4q1.031 0 1.938 0.398t1.586 1.078 1.078 1.586 0.398 1.938q0 0.891-0.297 1.703t-0.828 1.461-1.266 1.102-1.609 0.625v-2.078q0.438-0.156 0.813-0.438t0.633-0.648 0.406-0.813 0.148-0.914q0-0.625-0.234-1.172t-0.641-0.953-0.953-0.641-1.172-0.234h-4zM27.906 22.016q0.891 0.172 1.641 0.625t1.297 1.109 0.852 1.477 0.305 1.727q0 1.031-0.391 1.945t-1.070 1.609-1.594 1.094-1.945 0.398h-4q-1.031 0-1.945-0.398t-1.594-1.094-1.070-1.609-0.391-1.945q0-0.891 0.297-1.703t0.828-1.477 1.266-1.125 1.609-0.633v2.078q-0.453 0.156-0.82 0.445t-0.625 0.672-0.406 0.828-0.148 0.914q0 0.609 0.234 1.164t0.641 0.977 0.953 0.664 1.172 0.242h4q0.625 0 1.172-0.242t0.953-0.664 0.641-0.977 0.234-1.164q0-0.484-0.156-0.945t-0.43-0.844-0.664-0.672-0.859-0.43q0.047-0.281 0.078-0.57t0.031-0.57q0-0.219-0.031-0.453t-0.063-0.453zM32 6v16.063q-0.438-0.453-0.938-0.82t-1.063-0.633v-11.5l-14 7.016-14-7.016v14.891h8.094q0.078 0.516 0.234 1.023t0.375 0.977h-10.703v-20h32zM16 13.875l11.766-5.875h-23.531z"></path>
</svg>
