<!-- Generated by IcoMoon.io -->
<svg version="1.1" xmlns="http://www.w3.org/2000/svg" width="32" height="32" viewBox="0 0 32 32">
<title>uniF774</title>
<path d="M0 6h32v12h-2v-7.875l-3.813 1.891q-1.109 0-2.211-0.008t-2.211-0.008l8-4h-27.531l13.766 6.891v2.219l-14-6.984v13.875h14v2h-16v-20zM30 20h2v5q0 1.453-0.555 2.727t-1.5 2.219-2.219 1.5-2.727 0.555-2.727-0.555-2.219-1.5-1.5-2.219-0.555-2.727v-6q0-1.031 0.391-1.938t1.070-1.586 1.594-1.078 1.945-0.398 1.938 0.398 1.586 1.078 1.078 1.586 0.398 1.938v5q0 0.625-0.234 1.172t-0.641 0.953-0.953 0.641-1.172 0.234-1.172-0.234-0.953-0.641-0.641-0.953-0.234-1.172v-4h2v4q0 0.406 0.297 0.703t0.703 0.297 0.703-0.297 0.297-0.703v-5q0-0.625-0.234-1.172t-0.641-0.953-0.953-0.641-1.172-0.234-1.172 0.234-0.953 0.641-0.641 0.953-0.234 1.172v6q0 1.031 0.391 1.945t1.070 1.594 1.594 1.070 1.945 0.391 1.938-0.391 1.586-1.070 1.078-1.594 0.398-1.945v-5z"></path>
</svg>
