<!-- Generated by IcoMoon.io -->
<svg version="1.1" xmlns="http://www.w3.org/2000/svg" width="32" height="32" viewBox="0 0 32 32">
<title>uniEA57</title>
<path d="M0 6v16.906q0.453-0.359 0.953-0.617t1.047-0.445v-12.734l14 7.016 14-7.016v14.891h-16v2h18v-20h-32zM16 13.875l-11.766-5.875h23.531zM8.578 24q-0.781 0-1.727-0.039t-1.898 0.008-1.844 0.227-1.586 0.625-1.109 1.211-0.414 1.969q0 0.828 0.32 1.555t0.859 1.266 1.273 0.859 1.547 0.32v-2q-0.422 0-0.781-0.156t-0.633-0.43-0.43-0.633-0.156-0.781 0.156-0.781 0.43-0.633 0.633-0.43 0.781-0.156h4.578l-2.531 2.547 1.406 1.406 4.953-4.953-4.953-4.953-1.406 1.406z"></path>
</svg>
