<!-- Generated by IcoMoon.io -->
<svg version="1.1" xmlns="http://www.w3.org/2000/svg" width="32" height="32" viewBox="0 0 32 32">
<title>uniF418</title>
<path d="M32 6v10h-2v-5.875l-14 6.984-14-6.984v13.875h14v2h-16v-20h32zM16 14.891l13.766-6.891h-27.531zM25 18q1.031 0 1.938 0.398t1.586 1.078 1.078 1.586 0.398 1.938v3h2v2h-4v1q0 0.625-0.234 1.172t-0.641 0.953-0.953 0.641-1.172 0.234-1.172-0.234-0.953-0.641-0.641-0.953-0.234-1.172v-1h-4v-2h2v-3q0-1.031 0.391-1.938t1.070-1.586 1.594-1.078 1.945-0.398zM26 28h-2v1q0 0.406 0.297 0.703t0.703 0.297 0.703-0.297 0.297-0.703v-1zM28 26v-3q0-0.625-0.234-1.172t-0.641-0.953-0.953-0.641-1.172-0.234-1.172 0.234-0.953 0.641-0.641 0.953-0.234 1.172v3h6z"></path>
</svg>
