<!-- Generated by IcoMoon.io -->
<svg version="1.1" xmlns="http://www.w3.org/2000/svg" width="32" height="32" viewBox="0 0 32 32">
<title>uniE4D4</title>
<path d="M0 6h32v8.047h-2v-3.922l-5.047 2.516q-0.25-0.031-0.492-0.047t-0.492-0.016q-1.234 0-2.336 0.297t-2.164 0.953q-0.141 0.078-0.375 0.125t-0.5 0.070-0.516 0.023h-0.406l12.094-6.047h-27.531l11.766 6v2l-12-5.875v13.875h11.813q0.234 1.047 0.656 2h-14.469v-20zM32 16.547v5.078q0 1.641-0.594 3.102t-1.586 2.703-2.266 2.242-2.633 1.719l-0.922 0.484-0.938-0.484q-1.359-0.703-2.633-1.711t-2.258-2.258-1.578-2.711-0.594-3.086v-5.078q0.375 0 0.781 0.016t0.828 0.016q0.844 0 1.68-0.109t1.492-0.516q0.781-0.453 1.547-0.664t1.672-0.211q0.922 0 1.688 0.219t1.563 0.672q0.656 0.391 1.5 0.492t1.688 0.102q0.406 0 0.805-0.008t0.758-0.008zM30 21.625v-3.078q-1.031 0-1.984-0.188t-1.844-0.703q-0.531-0.313-1.039-0.445t-1.133-0.133q-0.594 0-1.109 0.133t-1.031 0.43q-0.906 0.516-1.867 0.711t-1.992 0.195v3.078q0 1.344 0.523 2.539t1.375 2.219 1.922 1.844 2.18 1.398q1.094-0.578 2.172-1.398t1.93-1.844 1.375-2.219 0.523-2.539z"></path>
</svg>
