<!-- Generated by IcoMoon.io -->
<svg version="1.1" xmlns="http://www.w3.org/2000/svg" width="32" height="32" viewBox="0 0 32 32">
<title>uniEE23</title>
<path d="M32 28h-3.547q0.75 0.828 1.148 1.852t0.398 2.148h-2q0-0.828-0.313-1.555t-0.859-1.273-1.273-0.859-1.555-0.313-1.555 0.313-1.273 0.859-0.859 1.273-0.313 1.555h-2q0-0.828-0.313-1.555t-0.859-1.273-1.273-0.859-1.555-0.313-1.555 0.313-1.273 0.859-0.859 1.273-0.313 1.555h-2q0-0.813 0.219-1.594t0.617-1.461 0.977-1.242 1.297-0.953q-0.531-0.547-0.82-1.266t-0.289-1.484q0-1.078 0.539-1.992t1.461-1.445v-4.563q0-0.469 0.211-0.891t0.586-0.703q-0.859-1.141-2.117-1.773t-2.68-0.633q-1.25 0-2.336 0.469t-1.906 1.289-1.289 1.914-0.469 2.328h-2q0-1.141 0.313-2.211t0.898-2.008 1.414-1.688 1.844-1.266q-1.172-0.844-1.82-2.117t-0.648-2.711q0-1.234 0.469-2.328t1.289-1.914 1.906-1.289 2.336-0.469q1.234 0 2.328 0.469t1.914 1.289 1.289 1.914 0.469 2.328q0 1.453-0.648 2.727t-1.82 2.117q1.063 0.531 1.93 1.328t1.461 1.828h5.578q0.484 0 0.844-0.148t0.68-0.367 0.641-0.484 0.719-0.484 0.906-0.367 1.211-0.148h4.5q0.422 0 0.781 0.156t0.633 0.43 0.43 0.633 0.156 0.781v14zM8 10q0.828 0 1.555-0.313t1.273-0.859 0.859-1.273 0.313-1.555-0.313-1.555-0.859-1.273-1.273-0.859-1.555-0.313-1.555 0.313-1.273 0.859-0.859 1.273-0.313 1.555 0.313 1.555 0.859 1.273 1.273 0.859 1.555 0.313zM14 26q0.422 0 0.781-0.156t0.633-0.43 0.43-0.633 0.156-0.781-0.156-0.781-0.43-0.633-0.633-0.43-0.781-0.156-0.781 0.156-0.633 0.43-0.43 0.633-0.156 0.781 0.156 0.781 0.43 0.633 0.633 0.43 0.781 0.156zM24 26q0.422 0 0.781-0.156t0.633-0.43 0.43-0.633 0.156-0.781-0.156-0.781-0.43-0.633-0.633-0.43-0.781-0.156-0.781 0.156-0.633 0.43-0.43 0.633-0.156 0.781 0.156 0.781 0.43 0.633 0.633 0.43 0.781 0.156zM30 18h-4.5q-0.703 0-1.219-0.148t-0.906-0.367-0.711-0.484-0.641-0.484-0.68-0.367-0.844-0.148h-6.5v4q0.828 0 1.555 0.313t1.273 0.859 0.859 1.273 0.313 1.555q0 0.766-0.289 1.484t-0.82 1.266q1.297 0.719 2.109 1.938 0.813-1.219 2.109-1.938-0.531-0.547-0.82-1.266t-0.289-1.484q0-0.828 0.313-1.555t0.859-1.273 1.273-0.859 1.555-0.313 1.555 0.313 1.273 0.859 0.859 1.273 0.313 1.555q0 0.531-0.148 1.039t-0.414 0.961h2.563v-8zM30 14h-4.5q-0.359 0-0.641 0.078t-0.531 0.211-0.492 0.313-0.492 0.398q0.25 0.219 0.492 0.398t0.492 0.313 0.531 0.211 0.641 0.078h4.5v-2z"></path>
</svg>
