<!-- Generated by IcoMoon.io -->
<svg version="1.1" xmlns="http://www.w3.org/2000/svg" width="32" height="32" viewBox="0 0 32 32">
<title>uniE99C</title>
<path d="M32 20.578v3.422h-2v-2.578l-1.703-1.719 0.047-0.047q-0.625 0.344-1.391 0.344-0.688 0-1.266-0.281l-1.688 1.703v2.578h-2v-3.422l2.266-2.25-0.047-0.109-3.922-8.781-6.375 6.578q0.031 0.25 0.055 0.492t0.023 0.492v13h2v2h-16v-2h2v-13q0-1.188 0.438-2.242t1.195-1.859 1.781-1.305 2.211-0.578l9.5-9.797q0.563-0.594 1.313-0.906t1.563-0.313q0.547 0 1.102 0.164t1.047 0.469 0.883 0.719 0.625 0.93l6 13.406q0.141 0.313 0.203 0.641t0.063 0.656q0 0.375-0.086 0.742t-0.258 0.695l0.125-0.125zM12 30v-13q0-0.828-0.313-1.555t-0.859-1.273-1.273-0.859-1.555-0.313-1.555 0.313-1.273 0.859-0.859 1.273-0.313 1.555v13h8zM10.063 11.359q0.969 0.359 1.766 1.016t1.328 1.547l8.281-8.531q0.563-0.594 0.563-1.391 0-0.422-0.156-0.781t-0.43-0.633-0.633-0.43-0.781-0.156q-0.859 0-1.438 0.609zM23.266 6.297q-0.281 0.453-0.695 0.836t-0.773 0.758l3.078 6.891 1.828-0.781zM26.953 18q0.453 0 0.719-0.297t0.266-0.719q0-0.313-0.148-0.602t-0.273-0.555l-1.828 0.781q0.094 0.234 0.188 0.484t0.234 0.453 0.336 0.328 0.508 0.125zM8 16q0.422 0 0.781 0.156t0.633 0.43 0.43 0.633 0.156 0.781-0.156 0.781-0.43 0.633-0.633 0.43-0.781 0.156-0.781-0.156-0.633-0.43-0.43-0.633-0.156-0.781 0.156-0.781 0.43-0.633 0.633-0.43 0.781-0.156z"></path>
</svg>
