<!-- Generated by IcoMoon.io -->
<svg version="1.1" xmlns="http://www.w3.org/2000/svg" width="32" height="32" viewBox="0 0 32 32">
<title>uniE3AE</title>
<path d="M24 16l5.328 16h-29.328l5.328-16h8v-5.844q-0.891-0.219-1.625-0.711t-1.258-1.18-0.82-1.523-0.297-1.742q0-1.109 0.422-2.078t1.148-1.695 1.695-1.141 2.078-0.414q1.094 0 2.070 0.422t1.695 1.141 1.141 1.695 0.422 2.070q0 0.906-0.297 1.742t-0.82 1.523-1.258 1.18-1.625 0.711v5.844h8zM12 5q0 0.547 0.211 1.039t0.57 0.852 0.852 0.57 1.039 0.211 1.031-0.211 0.844-0.57 0.57-0.852 0.211-1.039-0.211-1.031-0.57-0.852-0.844-0.578-1.031-0.211-1.039 0.211-0.852 0.578-0.57 0.852-0.211 1.031zM7.25 18.672l-3.547 10.656h21.922l-3.547-10.656h-6.078v4q0 0.547-0.391 0.938t-0.938 0.391q-0.281 0-0.523-0.102t-0.422-0.281-0.289-0.422-0.109-0.523v-4h-6.078z"></path>
</svg>
