<!-- Generated by IcoMoon.io -->
<svg version="1.1" xmlns="http://www.w3.org/2000/svg" width="32" height="32" viewBox="0 0 32 32">
<title>uniF52E</title>
<path d="M30 32h-30l6-18h8v-4.094q-0.875-0.188-1.609-0.641t-1.266-1.102-0.828-1.461-0.297-1.703q0-1.031 0.391-1.938t1.070-1.586 1.594-1.078 1.945-0.398 1.938 0.398 1.586 1.078 1.078 1.586 0.398 1.938q0 0.891-0.297 1.703t-0.828 1.461-1.266 1.102-1.609 0.641v4.094h8zM12 5q0 0.625 0.234 1.172t0.641 0.953 0.953 0.641 1.172 0.234 1.172-0.234 0.953-0.641 0.641-0.953 0.234-1.172-0.234-1.172-0.641-0.953-0.953-0.641-1.172-0.234-1.172 0.234-0.953 0.641-0.641 0.953-0.234 1.172zM16 16h-2v7.5q0 0.141 0.117 0.242t0.281 0.156 0.328 0.078 0.273 0.023 0.273-0.023 0.328-0.078 0.281-0.156 0.117-0.242v-7.5z"></path>
</svg>
