<!-- Generated by IcoMoon.io -->
<svg version="1.1" xmlns="http://www.w3.org/2000/svg" width="32" height="32" viewBox="0 0 32 32">
<title>uniF6AE</title>
<path d="M18.641 25.172l-11-11 4.422-4.422 11 11zM20.234 20.75l-8.172-8.172-1.594 1.594 8.172 8.172zM26 30v-10h2v12h-26v-32h14.406l-2 2h-10.406v28h22zM30.766 6.859l-3.359 1.359 3.828 3.828-4.188 4.188-1.125-1.141-1.391 1.344-9.094-9.094 1.391-1.344-1.094-1.078 4.188-4.188 3.766 3.781 1.422-3.313 1.156-1.156 5.656 5.656zM26.469 3.078l-1.531 2.625 1.234 1.281 2.688-1.516zM28.406 12.047l-8.484-8.484-1.719 1.891 8.484 8.484z"></path>
</svg>
