<!-- Generated by IcoMoon.io -->
<svg version="1.1" xmlns="http://www.w3.org/2000/svg" width="32" height="32" viewBox="0 0 32 32">
<title>uniF2FB</title>
<path d="M10.047 22.344q0.219-0.625 0.445-1.242t0.492-1.211l6.141-13.891h2.875v20h-2.281v-13.422q0-0.984 0.047-1.945t0.094-1.945q-0.125 0.484-0.258 0.984t-0.336 0.953l-6.703 15.375h-1.125l-6.688-15.25q-0.219-0.484-0.352-1.016t-0.289-1.047q0.078 0.984 0.094 1.961t0.016 1.961v13.391h-2.219v-20h3.031l6.031 13.953q0.25 0.578 0.5 1.18t0.391 1.211h0.094zM31.703 21.703l-4.703 4.703-4.703-4.703 1.406-1.406 2.297 2.281v-16.578h2v16.578l2.297-2.281z"></path>
</svg>
