<!-- Generated by IcoMoon.io -->
<svg version="1.1" xmlns="http://www.w3.org/2000/svg" width="32" height="32" viewBox="0 0 32 32">
<title>uniF5BA</title>
<path d="M15 12q-1.063 0-2.258-0.102t-2.391-0.344-2.32-0.633-2.031-0.969v15.047q0 0.359 0.297 0.68t0.758 0.602 1.023 0.5 1.109 0.391 1.008 0.281 0.711 0.156q0.766 0.141 1.539 0.227t1.555 0.117v2.031q-0.688-0.031-1.695-0.141t-2.117-0.344-2.219-0.609-1.992-0.922-1.43-1.281-0.547-1.688v-18q0-0.734 0.344-1.344t0.914-1.086 1.297-0.852 1.484-0.641 1.484-0.438 1.305-0.281q1.031-0.188 2.078-0.273t2.094-0.086 2.094 0.086 2.078 0.273q0.563 0.109 1.297 0.281t1.492 0.445 1.484 0.633 1.297 0.844 0.914 1.094 0.344 1.344v7h-2v-4.047q-0.922 0.578-2.039 0.969t-2.313 0.633-2.391 0.344-2.258 0.102zM15 4q-0.891 0-2.039 0.094t-2.313 0.32-2.234 0.617-1.789 0.984q-0.219 0.172-0.422 0.43t-0.203 0.555 0.203 0.555 0.422 0.43q0.719 0.594 1.789 0.984t2.234 0.617 2.313 0.32 2.039 0.094 2.039-0.094 2.313-0.32 2.227-0.617 1.781-0.984q0.219-0.172 0.43-0.43t0.211-0.555-0.211-0.555-0.43-0.43q-0.719-0.594-1.781-0.984t-2.227-0.617-2.313-0.32-2.039-0.094zM32 15.547v16.453h-16v-16.391l4.75 6.266 3.281-5.938 3.297 5.938zM30 21.625l-2.906 3.953-3.063-5.516-3.031 5.469-3-3.969v8.438h12v-8.375z"></path>
</svg>
