<!-- Generated by IcoMoon.io -->
<svg version="1.1" xmlns="http://www.w3.org/2000/svg" width="32" height="32" viewBox="0 0 32 32">
<title>uniF6B9</title>
<path d="M17.359 8h-2.719l-5.578-8h13.875zM28 0q0.828 0 1.555 0.313t1.273 0.859 0.859 1.273 0.313 1.555q0 1.047-0.305 1.891t-0.883 1.703l-6.625 9.922q-1.422-1.781-3.398-2.805t-4.258-1.148l9.453-13.563h2.016zM15.469 13.563q-2.281 0.125-4.258 1.148t-3.398 2.805l-6.641-9.953q-0.563-0.844-0.867-1.688t-0.305-1.875q0-0.828 0.313-1.555t0.859-1.273 1.273-0.859 1.555-0.313h2.016zM16 16q1.656 0 3.117 0.625t2.547 1.711 1.711 2.547 0.625 3.117-0.625 3.117-1.711 2.547-2.547 1.711-3.117 0.625-3.117-0.625-2.547-1.711-1.711-2.547-0.625-3.117 0.625-3.117 1.711-2.547 2.547-1.711 3.117-0.625z"></path>
</svg>
