<!-- Generated by IcoMoon.io -->
<svg version="1.1" xmlns="http://www.w3.org/2000/svg" width="32" height="32" viewBox="0 0 32 32">
<title>uniEE38</title>
<path d="M32 4q0 1.047-0.313 1.883t-0.875 1.695l-8.063 12.109q0.609 0.969 0.93 2.070t0.32 2.242q0 1.656-0.625 3.117t-1.711 2.547-2.547 1.711-3.117 0.625-3.117-0.625-2.547-1.711-1.711-2.547-0.625-3.117q0-1.141 0.32-2.242t0.93-2.070l-8.063-12.109q-0.563-0.859-0.875-1.695t-0.313-1.883q0-0.828 0.313-1.555t0.859-1.273 1.273-0.859 1.555-0.313h24q0.828 0 1.555 0.313t1.273 0.859 0.859 1.273 0.313 1.555zM24.625 2h-17.25l2.656 4h11.938zM11.375 8l4.625 6.953 4.625-6.953h-9.25zM2 4q0 0.719 0.219 1.281t0.609 1.156l7.781 11.656q0.797-0.734 1.758-1.227t2.039-0.711l-9.438-14.156h-0.969q-0.422 0-0.781 0.156t-0.633 0.43-0.43 0.633-0.156 0.781zM16 30q1.234 0 2.328-0.469t1.914-1.289 1.289-1.906 0.469-2.336q0-1.234-0.469-2.328t-1.289-1.914-1.914-1.289-2.328-0.469q-1.25 0-2.336 0.469t-1.906 1.289-1.289 1.914-0.469 2.328q0 1.25 0.469 2.336t1.289 1.906 1.906 1.289 2.336 0.469zM29.188 6.406q0.391-0.531 0.602-1.141t0.211-1.266q0-0.422-0.156-0.781t-0.43-0.633-0.633-0.43-0.781-0.156h-0.969l-9.438 14.156q1.078 0.219 2.039 0.711t1.758 1.227l7.797-11.672v-0.016z"></path>
</svg>
