<!-- Generated by IcoMoon.io -->
<svg version="1.1" xmlns="http://www.w3.org/2000/svg" width="32" height="32" viewBox="0 0 32 32">
<title>uniE54D</title>
<path d="M15 10q0.406 0 0.703 0.297t0.297 0.703-0.297 0.703-0.703 0.297-0.703-0.297-0.297-0.703 0.297-0.703 0.703-0.297zM15 18q0.406 0 0.703 0.297t0.297 0.703-0.297 0.703-0.703 0.297-0.703-0.297-0.297-0.703 0.297-0.703 0.703-0.297zM11 14q0.406 0 0.703 0.297t0.297 0.703-0.297 0.703-0.703 0.297-0.703-0.297-0.297-0.703 0.297-0.703 0.703-0.297zM15 14q0.406 0 0.703 0.297t0.297 0.703-0.297 0.703-0.703 0.297-0.703-0.297-0.297-0.703 0.297-0.703 0.703-0.297zM20 15q0 0.406-0.297 0.703t-0.703 0.297-0.703-0.297-0.297-0.703 0.297-0.703 0.703-0.297 0.703 0.297 0.297 0.703zM30 23q0 1.453-0.547 2.727t-1.5 2.219-2.227 1.5-2.727 0.555q-1.391 0-2.68-0.531t-2.273-1.516l-3.047-3.047-3.047 3.047q-0.984 0.984-2.273 1.516t-2.68 0.531q-1.453 0-2.727-0.555t-2.227-1.5-1.5-2.219-0.547-2.727q0-1.406 0.531-2.688t1.516-2.266l3.047-3.047-3.047-3.047q-0.984-0.984-1.516-2.266t-0.531-2.688q0-1.453 0.547-2.727t1.5-2.219 2.227-1.5 2.727-0.555q1.391 0 2.68 0.531t2.273 1.516l3.047 3.047 3.047-3.047q0.984-0.984 2.273-1.516t2.68-0.531q1.453 0 2.727 0.555t2.227 1.5 1.5 2.219 0.547 2.727q0 1.406-0.531 2.688t-1.516 2.266l-3.047 3.047 3.047 3.047q0.984 0.984 1.516 2.266t0.531 2.688zM16.406 6.516l7.078 7.078 3.047-3.063q0.719-0.734 1.094-1.617t0.375-1.914-0.391-1.945-1.070-1.594-1.594-1.070-1.945-0.391-1.914 0.375-1.617 1.094zM6.516 13.594l7.078-7.078-3.063-3.047q-0.734-0.719-1.617-1.094t-1.914-0.375-1.945 0.391-1.594 1.070-1.070 1.594-0.391 1.945 0.375 1.914 1.094 1.617zM13.594 23.484l-7.078-7.078-3.047 3.063q-0.719 0.734-1.094 1.617t-0.375 1.914 0.391 1.945 1.070 1.594 1.594 1.070 1.945 0.391 1.914-0.375 1.617-1.094zM7.922 15l7.078 7.078 7.078-7.078-7.078-7.078zM28 23q0-1.031-0.375-1.914t-1.094-1.617l-3.047-3.063-7.078 7.078 3.063 3.047q0.734 0.719 1.617 1.094t1.914 0.375 1.945-0.391 1.594-1.070 1.070-1.594 0.391-1.945z"></path>
</svg>
