<!-- Generated by IcoMoon.io -->
<svg version="1.1" xmlns="http://www.w3.org/2000/svg" width="32" height="32" viewBox="0 0 32 32">
<title>uniE54F</title>
<path d="M4 30h8.203q0.156 0.594 0.453 1.078t0.734 0.922h-11.391v-32h17.391l8.609 8.609v2.984h-2v-1.594h-8v-8h-14v28zM20 3.406v4.594h4.594zM27 14q1.031 0 1.938 0.398t1.586 1.078 1.078 1.586 0.398 1.938q0 1.016-0.375 1.914t-1.094 1.617l-8 8q-0.719 0.719-1.617 1.094t-1.914 0.375q-1.031 0-1.945-0.391t-1.594-1.070-1.070-1.594-0.391-1.945q0-1.016 0.375-1.914t1.094-1.617l8-8q0.719-0.719 1.617-1.094t1.914-0.375zM24.406 25.828l-4.234-4.234-3.297 3.281q-0.422 0.422-0.648 0.977t-0.227 1.148q0 0.625 0.234 1.172t0.641 0.953 0.953 0.641 1.172 0.234q0.594 0 1.148-0.227t0.977-0.648zM30 19q0-0.625-0.234-1.172t-0.641-0.953-0.953-0.641-1.172-0.234q-0.594 0-1.148 0.227t-0.977 0.648l-3.281 3.297 4.234 4.234 3.297-3.281q0.422-0.422 0.648-0.977t0.227-1.148zM25 20q0.406 0 0.703 0.297t0.297 0.703-0.297 0.703-0.703 0.297-0.703-0.297-0.297-0.703 0.297-0.703 0.703-0.297zM27 18q0.406 0 0.703 0.297t0.297 0.703-0.297 0.703-0.703 0.297-0.703-0.297-0.297-0.703 0.297-0.703 0.703-0.297z"></path>
</svg>
