<!-- Generated by IcoMoon.io -->
<svg version="1.1" xmlns="http://www.w3.org/2000/svg" width="32" height="32" viewBox="0 0 32 32">
<title>uniEAD4</title>
<path d="M27 10q1.031 0 1.938 0.398t1.586 1.078 1.078 1.586 0.398 1.938q0 0.891-0.297 1.703t-0.828 1.461-1.266 1.102-1.609 0.641v1.594q0 1.391-0.344 2.711t-0.977 2.492-1.531 2.141-2.016 1.672-2.414 1.094-2.719 0.391-2.719-0.391-2.414-1.094-2.016-1.672-1.531-2.141-0.977-2.492-0.344-2.711v-3.578q-1.922-0.172-3.414-0.922t-2.508-1.969-1.547-2.828-0.531-3.484v-8.719h5q0.406 0 0.703 0.297t0.297 0.703-0.297 0.703-0.703 0.297h-3v6.719q0 1.656 0.461 3t1.352 2.297 2.195 1.469 2.992 0.516q1.578 0 2.875-0.484t2.211-1.391 1.414-2.195 0.5-2.883v-7.047h-3q-0.406 0-0.703-0.297t-0.297-0.703 0.297-0.703 0.703-0.297h5v8.719q0 1.875-0.531 3.484t-1.547 2.828-2.508 1.969-3.414 0.922v3.578q0 1.672 0.602 3.211t1.672 2.711 2.531 1.875 3.195 0.703 3.195-0.703 2.531-1.875 1.672-2.711 0.602-3.211v-1.594q-0.875-0.188-1.609-0.641t-1.266-1.102-0.828-1.461-0.297-1.703q0-1.031 0.391-1.938t1.070-1.586 1.594-1.078 1.945-0.398zM27 18q0.625 0 1.172-0.234t0.953-0.641 0.641-0.953 0.234-1.172-0.234-1.172-0.641-0.953-0.953-0.641-1.172-0.234-1.172 0.234-0.953 0.641-0.641 0.953-0.234 1.172 0.234 1.172 0.641 0.953 0.953 0.641 1.172 0.234z"></path>
</svg>
