<!-- Generated by IcoMoon.io -->
<svg version="1.1" xmlns="http://www.w3.org/2000/svg" width="32" height="32" viewBox="0 0 32 32">
<title>uniF510</title>
<path d="M4 6h2v2h-2v-2zM4 10h2v2h-2v-2zM18 6h2v2h-2v-2zM29.422 20h-4.844l2.422-2.406zM22 15q0-0.406 0.297-0.703t0.703-0.297 0.703 0.297 0.297 0.703-0.297 0.703-0.703 0.297-0.703-0.297-0.297-0.703zM32 10v14h-2v-12h-20v8.578l5-4.984 7 6.984 2-2v2.844l-0.578 0.578h-2.844l-5.578-5.594-5 5.016v2.578h10v2h-12v-10h-8v-18h24v10h8zM22 10v-8h-2v2h-2v-2h-12v2h-2v-2h-2v14h2v-2h2v2h2v-6h14zM28 26h4v2h-4v4h-2v-4h-4v-2h4v-4h2v4z"></path>
</svg>
