<!-- Generated by IcoMoon.io -->
<svg version="1.1" xmlns="http://www.w3.org/2000/svg" width="32" height="32" viewBox="0 0 32 32">
<title>uniE54E</title>
<path d="M19.063 16.328l-1.422 1.422q-1.25-0.844-2.688-1.297t-2.953-0.453q-1.375 0-2.656 0.359t-2.391 1.008-2.023 1.563-1.563 2.023-1.008 2.391-0.359 2.656h-2q0-1.875 0.555-3.609t1.57-3.203 2.445-2.609 3.18-1.797q-0.875-0.547-1.57-1.289t-1.18-1.617-0.742-1.859-0.258-2.016q0-1.656 0.633-3.109t1.719-2.539 2.539-1.719 3.109-0.633 3.109 0.633 2.539 1.719 1.719 2.539 0.633 3.109q0 1.031-0.258 2.016t-0.742 1.859-1.188 1.617-1.578 1.289q0.75 0.297 1.461 0.68t1.367 0.867zM6 8q0 1.25 0.469 2.336t1.289 1.906 1.906 1.289 2.336 0.469q1.234 0 2.328-0.469t1.914-1.289 1.289-1.906 0.469-2.336q0-1.234-0.469-2.328t-1.289-1.914-1.914-1.289-2.328-0.469q-1.25 0-2.336 0.469t-1.906 1.289-1.289 1.914-0.469 2.328zM27 14q1.031 0 1.938 0.398t1.586 1.078 1.078 1.586 0.398 1.938q0 1.016-0.375 1.914t-1.094 1.617l-8 8q-0.719 0.719-1.617 1.094t-1.914 0.375q-1.031 0-1.945-0.391t-1.594-1.070-1.070-1.594-0.391-1.945q0-1.016 0.375-1.914t1.094-1.617l8-8q0.719-0.719 1.617-1.094t1.914-0.375zM24.406 25.828l-4.234-4.234-3.297 3.281q-0.422 0.422-0.648 0.977t-0.227 1.148q0 0.625 0.234 1.172t0.641 0.953 0.953 0.641 1.172 0.234q0.594 0 1.148-0.227t0.977-0.648zM30 19q0-0.625-0.234-1.172t-0.641-0.953-0.953-0.641-1.172-0.234q-0.594 0-1.148 0.227t-0.977 0.648l-3.281 3.297 4.234 4.234 3.297-3.281q0.422-0.422 0.648-0.977t0.227-1.148zM25 20q0.406 0 0.703 0.297t0.297 0.703-0.297 0.703-0.703 0.297-0.703-0.297-0.297-0.703 0.297-0.703 0.703-0.297zM27 18q0.406 0 0.703 0.297t0.297 0.703-0.297 0.703-0.703 0.297-0.703-0.297-0.297-0.703 0.297-0.703 0.703-0.297z"></path>
</svg>
