<!-- Generated by IcoMoon.io -->
<svg version="1.1" xmlns="http://www.w3.org/2000/svg" width="32" height="32" viewBox="0 0 32 32">
<title>uniF332</title>
<path d="M30 7q0.094-0.016 0.25-0.023t0.344-0.008q0.375 0 0.781 0.016t0.625 0.016v18q-0.219 0-0.609 0.008t-0.766 0.008h-0.469t-0.328-0.031l-11.922-2.125q-0.156 0.891-0.602 1.656t-1.102 1.313-1.477 0.859-1.727 0.313q-1.031 0-1.945-0.391t-1.594-1.070-1.070-1.594-0.391-1.945q0-0.438 0.094-0.891l-6.188-1.109q-0.125-0.016-0.273-0.023t-0.32-0.008q-0.344 0-0.695 0.016t-0.617 0.016v-8q0.219 0 0.602 0.016t0.742 0.016q0.172 0 0.32-0.008t0.242-0.023zM13 25q0.547 0 1.047-0.188t0.891-0.523 0.656-0.789 0.359-1l-5.906-1.047q-0.047 0.281-0.047 0.547 0 0.625 0.234 1.172t0.641 0.953 0.953 0.641 1.172 0.234z"></path>
</svg>
