<!-- Generated by IcoMoon.io -->
<svg version="1.1" xmlns="http://www.w3.org/2000/svg" width="32" height="32" viewBox="0 0 32 32">
<title>uniE77C</title>
<path d="M25 8q1.453 0 2.727 0.555t2.219 1.5 1.5 2.219 0.555 2.727-0.555 2.727-1.5 2.219-2.219 1.5-2.727 0.555h-18q-1.453 0-2.727-0.555t-2.219-1.5-1.5-2.219-0.555-2.727 0.555-2.727 1.5-2.219 2.219-1.5 2.727-0.555 2.727 0.555 2.219 1.5 1.5 2.219 0.555 2.727q0 0.328-0.070 0.789t-0.195 0.953-0.313 1-0.422 0.953-0.516 0.789-0.594 0.516h8.219q-0.313-0.172-0.594-0.516t-0.516-0.789-0.422-0.953-0.313-1-0.195-0.945-0.070-0.797q0-1.453 0.555-2.727t1.5-2.219 2.219-1.5 2.727-0.555zM2 15q0 1.031 0.398 1.938t1.078 1.586 1.586 1.078 1.938 0.398 1.938-0.398 1.586-1.078 1.078-1.586 0.398-1.938-0.398-1.938-1.078-1.586-1.586-1.078-1.938-0.398-1.938 0.398-1.586 1.078-1.078 1.586-0.398 1.938zM25 20q1.031 0 1.938-0.398t1.586-1.078 1.078-1.586 0.398-1.938-0.398-1.938-1.078-1.586-1.586-1.078-1.938-0.398-1.938 0.398-1.586 1.078-1.078 1.586-0.398 1.938 0.398 1.938 1.078 1.586 1.586 1.078 1.938 0.398z"></path>
</svg>
