<!-- Generated by IcoMoon.io -->
<svg version="1.1" xmlns="http://www.w3.org/2000/svg" width="32" height="32" viewBox="0 0 32 32">
<title>uniEFC9</title>
<path d="M10 7q0 1.859 0.711 3.5t1.93 2.859 2.859 1.93 3.5 0.711h13v2h-9q-1.828 0-3.453 0.68t-2.906 1.961-1.961 2.906-0.68 3.453v5h-2v-5q0-1.328 0.32-2.617t0.914-2.453 1.461-2.164 1.977-1.766h-16.672v-2h12.672q-1.203-0.828-2.156-2h-10.516v-2h9.203q-0.594-1.125-0.898-2.422t-0.305-2.578v-7h2v7zM14 5.313q0 1.391 0.523 2.609t1.43 2.125 2.125 1.43 2.609 0.523h11.313v2h-11.313q-1.797 0-3.383-0.68t-2.766-1.859-1.859-2.766-0.68-3.383v-5.313h2v5.313zM32 20v2h-7.313q-1.344 0-2.57 0.508t-2.164 1.445-1.445 2.164-0.508 2.57v3.313h-2v-3.313q0-1.797 0.68-3.383t1.859-2.766 2.766-1.859 3.383-0.68h7.313z"></path>
</svg>
