<!-- Generated by IcoMoon.io -->
<svg version="1.1" xmlns="http://www.w3.org/2000/svg" width="32" height="32" viewBox="0 0 32 32">
<title>uniF29A</title>
<path d="M16 10q0 1.484 0.422 2.891t1.203 2.609 1.883 2.164 2.461 1.57q0.234 0.109 0.578 0.234t0.719 0.242 0.734 0.203 0.609 0.086q0.281 0.016 0.563 0.016h0.563q0.563 0 1.133-0.008t1.133-0.008v12h-12v-12h3.375q-1.438-0.969-2.555-2.297t-1.82-2.922q-0.703 1.594-1.82 2.922t-2.555 2.297h3.375v12h-12v-12q0.563 0 1.133 0.008t1.133 0.008h0.563t0.563-0.016q0.25 0 0.609-0.086t0.734-0.203 0.719-0.242 0.578-0.234q1.359-0.609 2.461-1.57t1.883-2.164 1.203-2.609 0.422-2.891v-4.578l-4.547 4.531-1.406-1.406 6.953-6.953 6.953 6.953-1.406 1.406-4.547-4.531v4.578zM4 22v8h8v-8h-8zM26 22h-8v8h8v-8z"></path>
</svg>
