<!-- Generated by IcoMoon.io -->
<svg version="1.1" xmlns="http://www.w3.org/2000/svg" width="32" height="32" viewBox="0 0 32 32">
<title>uniE7D5</title>
<path d="M28 28v4h-0.672q-3.516 0-6.391-1.906-2.547-1.672-4.359-4.703-0.344-0.578-0.656-1.188t-0.594-1.266q-0.266 0.656-0.578 1.266t-0.656 1.188q-1.813 3.031-4.359 4.703-2.891 1.906-6.406 1.906h-0.656v-4h0.656q4.547 0 7.328-4.656 0.641-1.063 1.141-2.313t0.836-2.617 0.516-2.813 0.18-2.93v-6.234l-3.75 0.938q-0.125 0.031-0.203 0.031-0.313 0-0.508-0.234t-0.195-0.516q0-0.297 0.219-0.516l5.922-5.922q0.219-0.219 0.516-0.219 0.281 0 0.531 0.219l5.922 5.922q0.219 0.219 0.219 0.531 0 0.281-0.203 0.508t-0.516 0.227q-0.078 0-0.203-0.031l-3.75-0.938v6.234q0 1.484 0.18 2.93t0.523 2.813 0.844 2.617 1.141 2.313q2.781 4.656 7.313 4.656h0.672z"></path>
</svg>
