<!-- Generated by IcoMoon.io -->
<svg version="1.1" xmlns="http://www.w3.org/2000/svg" width="32" height="32" viewBox="0 0 32 32">
<title>uniF781</title>
<path d="M10 5.063l-2-2v-0.063q0-0.625 0.234-1.172t0.641-0.953 0.953-0.641 1.172-0.234h8q0.625 0 1.172 0.234t0.953 0.641 0.641 0.953 0.234 1.172v14.063l-2-2v-12.063q0-0.422-0.289-0.711t-0.711-0.289h-8q-0.422 0-0.711 0.289t-0.289 0.711v2.063zM26 16v5.047l-2-1.984v-3.063h2zM31.703 30.297l-1.406 1.406-5.891-5.891q-0.922 1.047-2.172 1.617t-2.641 0.57h-3.594v2h4v2h-10v-2h4v-2h-3.594q-1.328 0-2.492-0.508t-2.031-1.375-1.375-2.031-0.508-2.492v-5.594h2v5.594q0 0.906 0.352 1.711t0.945 1.398 1.398 0.945 1.711 0.352h9.188q0.984 0 1.867-0.422t1.523-1.172l-1.594-1.609q-0.422 0.563-1.055 0.883t-1.336 0.32h-8q-0.625 0-1.172-0.234t-0.953-0.641-0.641-0.953-0.234-1.172v-11.578l-7.703-7.719 1.406-1.406zM19 22q0.313 0 0.57-0.172t0.367-0.469l-9.938-9.938v9.578q0 0.422 0.289 0.711t0.711 0.289h8z"></path>
</svg>
