<!-- Generated by IcoMoon.io -->
<svg version="1.1" xmlns="http://www.w3.org/2000/svg" width="32" height="32" viewBox="0 0 32 32">
<title>uniF782</title>
<path d="M11.516 26.813q0 1.203 0.086 2.398t0.305 2.383l-2.313 0.078q-0.078-0.344-0.125-0.68t-0.047-0.695h-0.141q-1.031 0.938-2.305 1.297t-2.633 0.359q-0.938 0-1.703-0.281t-1.305-0.805-0.836-1.281-0.297-1.711q0-1.375 0.469-2.367t1.281-1.641 1.914-0.953 2.367-0.305q0.984 0 1.969 0.188 0.203 0.031 0.523 0.133t0.508 0.102q0.078 0 0.094-0.039t0.016-0.117q0-0.172-0.031-0.328t-0.031-0.328q0-0.984-0.289-1.578t-0.805-0.914-1.234-0.422-1.563-0.102q-0.469 0-0.82 0.070t-0.672 0.172-0.648 0.219-0.766 0.227l-0.375-2.031q0.547-0.156 1.031-0.297t0.961-0.242 0.984-0.156 1.086-0.055q1.25 0 2.258 0.234t1.727 0.789 1.102 1.469 0.383 2.273q0 1.234-0.063 2.469t-0.063 2.469zM5.438 29.938q1.047 0 2.047-0.266t1.828-0.953q-0.047-1.016-0.063-2.008t-0.016-2.008q-0.547-0.172-1.125-0.258t-1.156-0.086q-0.719 0-1.492 0.172t-1.406 0.547-1.039 0.969-0.406 1.453q0 0.656 0.219 1.117t0.594 0.75 0.891 0.43 1.125 0.141zM3.5 5.5q1.172-0.813 2.539-1.203t2.789-0.391q0.672 0 1.375 0.086t1.391 0.266 1.336 0.453 1.211 0.648q-0.969 0.078-1.977 0.391t-1.938 0.828-1.719 1.211-1.305 1.523l4.641 4.656h-11.844v-11.969zM20.156 20.031h11.844v11.969l-3.5-3.484q-1.172 0.813-2.539 1.195t-2.789 0.383q-0.672 0-1.367-0.086t-1.383-0.266-1.344-0.453-1.219-0.648q0.953-0.063 1.969-0.383t1.945-0.836 1.719-1.211 1.305-1.523zM22.531 15.516q-0.406 0.422-0.852 0.813t-0.945 0.695-1.055 0.484-1.164 0.18q-1.266 0-1.859-0.766t-0.594-1.984q0-1.047 0.367-1.922t0.977-1.586 1.414-1.281 1.68-1.023q-0.016-0.266-0.023-0.516t-0.008-0.516q0-0.734 0.039-1.453t0.117-1.438q-0.188 0.016-0.383 0.016h-0.945q-0.422 0-0.75-0.023t-0.625-0.141-0.578-0.352-0.625-0.641q-0.141-0.172-0.313-0.367t-0.172-0.414q0-0.297 0.219-0.422t0.484-0.125q0.344 0 0.555 0.125t0.359 0.281 0.273 0.297 0.297 0.188q0.219 0.063 0.484 0.070t0.516 0.008h0.328q0.516 0 1.031-0.047 0.063-0.516 0.141-1.023t0.156-1.023q-0.078-0.219-0.266-0.328t-0.383-0.195-0.344-0.195-0.148-0.328q0-0.313 0.242-0.398t0.477-0.086q0.172 0 0.406 0.070t0.406 0.102q0.188 0.047 0.555 0.133t0.742 0.227 0.656 0.336 0.281 0.445q0 0.031-0.078 0.289t-0.172 0.563-0.18 0.578-0.102 0.352q0.875-0.297 1.625-0.859 0.359-0.266 0.805-0.508t0.914-0.242q0.406 0 0.688 0.234t0.281 0.656q0 0.453-0.258 0.805t-0.672 0.609-0.938 0.445-1.055 0.32-1.016 0.211-0.813 0.141q-0.172 0.828-0.273 1.664t-0.133 1.68q0.531-0.188 1.078-0.336t1.109-0.227q-0.141-0.125-0.406-0.273t-0.539-0.313-0.469-0.336-0.195-0.359q0-0.313 0.219-0.398t0.484-0.086q0.406 0 0.984 0.055t1.109 0.227 0.906 0.508 0.375 0.898q1.063 0.109 1.977 0.461t1.578 0.961 1.039 1.469 0.375 1.984q0 0.266-0.078 0.633t-0.156 0.633q-0.25 0.797-0.727 1.477t-1.094 1.242-1.344 1.008-1.461 0.789q-0.359 0.172-0.797 0.359t-0.844 0.266l-0.109 0.016q-0.25-0.031-0.523-0.211t-0.273-0.461q0-0.297 0.25-0.406t0.469-0.156q0.063-0.016 0.234-0.086t0.367-0.164 0.367-0.188 0.234-0.125q0.594-0.313 1.242-0.742t1.195-0.969 0.906-1.188 0.359-1.398q0-0.094-0.008-0.195t-0.023-0.195q-0.438-3.203-3.656-3.438-0.578 1.344-1.266 2.633t-1.547 2.461q0.234 0.344 0.484 0.633t0.531 0.602q0.141 0.141 0.141 0.297 0 0.141-0.094 0.266t-0.227 0.219-0.281 0.148-0.273 0.055q-0.188 0-0.391-0.078t-0.406-0.203-0.367-0.281-0.258-0.297zM24.453 9.188q-1.078 0.188-2.109 0.563 0.047 0.625 0.148 1.242t0.289 1.211q0.203-0.328 0.445-0.703t0.469-0.766 0.43-0.781 0.328-0.766zM17.828 15.281q0 0.406 0.289 0.711t0.695 0.305q0.344 0 0.742-0.266t0.773-0.641 0.688-0.766 0.5-0.641q-0.375-0.797-0.578-1.648t-0.313-1.727q-0.531 0.375-1.031 0.898t-0.891 1.141-0.633 1.289-0.242 1.344z"></path>
</svg>
