<!-- Generated by IcoMoon.io -->
<svg version="1.1" xmlns="http://www.w3.org/2000/svg" width="32" height="32" viewBox="0 0 32 32">
<title>uniF130</title>
<path d="M32 0v32h-32v-32h32zM14.797 25.859q1.375 0 2.711-0.281t2.383-0.945 1.688-1.758 0.641-2.703q0-1.188-0.414-2.078t-1.102-1.563-1.586-1.188-1.852-0.984l-0.578-0.289t-0.664-0.352-0.641-0.391-0.492-0.406q-0.313-0.313-0.445-0.672t-0.133-0.813q0-0.547 0.25-0.914t0.633-0.594 0.859-0.32 0.93-0.094q0.578 0 1.102 0.070t1.016 0.211 0.969 0.352 0.977 0.492q0.063 0.031 0.109 0.031 0.219 0 0.219-0.219v-3.438q0-0.141-0.141-0.203-0.453-0.203-1.023-0.328t-1.18-0.203-1.203-0.109-1.078-0.031q-1.328 0-2.578 0.328t-2.227 1.023-1.57 1.766-0.594 2.555q0 1.094 0.336 1.914t0.898 1.453 1.273 1.109 1.445 0.867 1.445 0.742 1.273 0.742 0.898 0.844 0.336 1.063q0 0.563-0.258 0.938t-0.664 0.602-0.898 0.313-0.961 0.086q-0.719 0-1.328-0.109t-1.156-0.328-1.086-0.523-1.117-0.711q-0.063-0.031-0.125-0.031-0.078 0-0.148 0.055t-0.070 0.148v3.688q0 0.125 0.109 0.188 0.516 0.281 1.109 0.477t1.227 0.313 1.266 0.164 1.211 0.047z"></path>
</svg>
