<!-- Generated by IcoMoon.io -->
<svg version="1.1" xmlns="http://www.w3.org/2000/svg" width="32" height="32" viewBox="0 0 32 32">
<title>uniF853</title>
<path d="M11.516 26.813q0 1.203 0.086 2.398t0.305 2.383l-2.313 0.078q-0.078-0.344-0.125-0.68t-0.047-0.695h-0.141q-1.031 0.938-2.305 1.297t-2.633 0.359q-0.938 0-1.703-0.281t-1.305-0.805-0.836-1.281-0.297-1.711q0-1.375 0.469-2.367t1.281-1.641 1.914-0.953 2.367-0.305q0.984 0 1.969 0.188 0.203 0.031 0.523 0.133t0.508 0.102q0.078 0 0.094-0.039t0.016-0.117q0-0.172-0.031-0.328t-0.031-0.328q0-0.984-0.289-1.578t-0.805-0.914-1.234-0.422-1.563-0.102q-0.469 0-0.82 0.070t-0.672 0.172-0.648 0.219-0.766 0.227l-0.375-2.031q0.547-0.156 1.031-0.297t0.961-0.242 0.984-0.156 1.086-0.055q1.25 0 2.258 0.234t1.727 0.789 1.102 1.469 0.383 2.273q0 1.234-0.063 2.469t-0.063 2.469zM5.438 29.938q1.047 0 2.047-0.266t1.828-0.953q-0.047-1.016-0.063-2.008t-0.016-2.008q-0.547-0.172-1.125-0.258t-1.156-0.086q-0.719 0-1.492 0.172t-1.406 0.547-1.039 0.969-0.406 1.453q0 0.656 0.219 1.117t0.594 0.75 0.891 0.43 1.125 0.141zM7.203 9.313l4.641 4.656h-11.844v-11.969l3.5 3.5q1.172-0.813 2.539-1.203t2.789-0.391q0.672 0 1.375 0.086t1.391 0.266 1.336 0.453 1.211 0.648q-0.969 0.078-1.977 0.391t-1.938 0.828-1.719 1.211-1.305 1.523z"></path>
</svg>
