<!-- Generated by IcoMoon.io -->
<svg version="1.1" xmlns="http://www.w3.org/2000/svg" width="32" height="32" viewBox="0 0 32 32">
<title>uniE732</title>
<path d="M27 22q1.031 0 1.938 0.398t1.586 1.078 1.078 1.586 0.398 1.938-0.398 1.945-1.078 1.594-1.586 1.070-1.938 0.391h-4q-0.891 0-1.703-0.297t-1.461-0.828-1.102-1.266-0.641-1.609h-4.188q-0.188 0.875-0.641 1.609t-1.102 1.266-1.461 0.828-1.703 0.297h-4q-1.031 0-1.945-0.391t-1.594-1.070-1.070-1.594-0.391-1.945 0.391-1.938 1.070-1.586 1.594-1.078 1.945-0.398h4q0.891 0 1.703 0.297t1.461 0.828 1.102 1.266 0.641 1.609h4.188q0.188-0.875 0.641-1.609t1.102-1.266 1.461-0.828 1.703-0.297h4zM9 30q0.469 0 0.914-0.141t0.82-0.406 0.656-0.633 0.438-0.82h-2.828q-0.406 0-0.703-0.297t-0.297-0.703 0.297-0.703 0.703-0.297h2.828q-0.156-0.453-0.438-0.82t-0.656-0.633-0.82-0.406-0.914-0.141h-4q-0.625 0-1.172 0.234t-0.953 0.641-0.641 0.953-0.234 1.172 0.234 1.172 0.641 0.953 0.953 0.641 1.172 0.234h4zM27 30q0.625 0 1.172-0.234t0.953-0.641 0.641-0.953 0.234-1.172-0.234-1.172-0.641-0.953-0.953-0.641-1.172-0.234h-4q-0.469 0-0.914 0.141t-0.82 0.406-0.656 0.633-0.438 0.82h2.828q0.406 0 0.703 0.297t0.297 0.703-0.297 0.703-0.703 0.297h-2.828q0.156 0.453 0.438 0.82t0.656 0.633 0.82 0.406 0.914 0.141h4z"></path>
</svg>
