<!-- Generated by IcoMoon.io -->
<svg version="1.1" xmlns="http://www.w3.org/2000/svg" width="32" height="32" viewBox="0 0 32 32">
<title>uniE463</title>
<path d="M32 32h-2.016l-1.984-15.219q-0.047-0.406-0.164-0.82t-0.414-0.711l-6.984-6.938 0.516 6.219 1.383 1.383t1.367 1.383l-1.406 1.406-5.781-5.766q-0.438-0.438-1.047-0.438-0.297 0-0.563 0.117t-0.469 0.32-0.32 0.469-0.117 0.563q0 0.609 0.438 1.047l2.563 2.578v2.406q0 1.031 0.367 1.922t1.016 1.555 1.531 1.063 1.898 0.445q0 0.047-0.008 0.094t-0.008 0.094q0 0.25 0.031 0.547t0.070 0.602 0.070 0.602 0.031 0.547q0 0.547-0.211 1.008t-0.563 0.797-0.828 0.531-1.008 0.195h-16.969q-0.5 0-0.945-0.172t-0.773-0.484-0.516-0.742-0.188-0.945q0-0.109 0.008-0.203t0.023-0.203l3.703-23.813q0.063-0.359 0.297-0.625t0.555-0.445 0.688-0.273 0.68-0.094h11.969q0.313 0 0.672 0.086t0.672 0.266 0.531 0.453 0.25 0.633l0.141 1.797 8.625 8.594q0.563 0.563 0.813 1.242t0.359 1.461zM18.766 12.344l-0.688-8.328q-0.047-0.016-0.156-0.016h-11.969q-0.078 0-0.148 0.016t-0.148 0.031l-3.656 23.516v0.094q0 0.172 0.125 0.258t0.297 0.086h16.969q0.219 0 0.414-0.125t0.195-0.375q0-0.203-0.016-0.414t-0.047-0.414q-0.813-0.234-1.523-0.656t-1.305-1-1.039-1.281-0.711-1.5q-0.25-0.719-0.305-1.391t-0.055-1.391v-1.047l-1.984-1.969q-0.5-0.5-0.758-1.133t-0.258-1.336q0-0.719 0.273-1.352t0.742-1.102 1.102-0.742 1.352-0.273q0.578 0 1.023 0.141t0.82 0.391 0.719 0.586 0.734 0.727zM9 26v-2h4v2h-4z"></path>
</svg>
