<!-- Generated by IcoMoon.io -->
<svg version="1.1" xmlns="http://www.w3.org/2000/svg" width="32" height="32" viewBox="0 0 32 32">
<title>uniF18A</title>
<path d="M30 6v4h-6v-4h6zM0 16h6v10h-6v-10zM8 6h6v20h-6v-20zM28 12q0.422 0 0.781 0.156t0.633 0.43 0.43 0.633 0.156 0.781v16q0 0.422-0.156 0.781t-0.43 0.633-0.633 0.43-0.781 0.156h-10q-0.422 0-0.781-0.156t-0.633-0.43-0.43-0.633-0.156-0.781v-16q0-0.422 0.156-0.781t0.43-0.633 0.633-0.43 0.781-0.156h10zM28 14h-10v16h10v-16zM20 26h6v2h-6v-2zM22 10h-6v-10h6v10z"></path>
</svg>
