<!-- Generated by IcoMoon.io -->
<svg version="1.1" xmlns="http://www.w3.org/2000/svg" width="32" height="32" viewBox="0 0 32 32">
<title>uniE5FD</title>
<path d="M21 13.5v6h-4.5v0.5q0 0.359-0.039 0.711t-0.195 0.711q-0.359 0.844-1.109 1.336t-1.656 0.492q-0.922 0-1.664-0.492t-1.102-1.336q-0.172-0.359-0.203-0.711t-0.031-0.711v-0.5h-4.5v-4.5h-0.5q-0.359 0-0.711-0.031t-0.711-0.203q-0.844-0.359-1.336-1.102t-0.492-1.664q0-0.906 0.492-1.656t1.336-1.109q0.359-0.156 0.711-0.195t0.711-0.039h0.5v-4.5h4.5v-0.5q0-0.359 0.031-0.695t0.203-0.711q0.359-0.844 1.102-1.344t1.664-0.5 1.664 0.5 1.102 1.344q0.156 0.375 0.195 0.711t0.039 0.695v0.5h4.5v6h-2.25q-0.625 0-1.063 0.438t-0.438 1.063 0.438 1.063 1.063 0.438h2.25zM19.5 18v-3h-0.516q-0.359 0-0.703-0.031t-0.703-0.203q-0.844-0.359-1.336-1.109t-0.492-1.656 0.492-1.656 1.336-1.109q0.359-0.156 0.703-0.195t0.703-0.039h0.516v-3h-4.5v-2.25q0-0.625-0.438-1.063t-1.063-0.438-1.063 0.438-0.438 1.063v2.25h-4.5v4.5h-2.25q-0.625 0-1.063 0.438t-0.438 1.063 0.438 1.063 1.063 0.438h2.25v4.5h4.5v2.25q0 0.625 0.438 1.063t1.063 0.438 1.063-0.438 0.438-1.063v-2.25h4.5zM32 25v2h-5v5h-2v-5h-5v-2h5v-5h2v5h5z"></path>
</svg>
