<!-- Generated by IcoMoon.io -->
<svg version="1.1" xmlns="http://www.w3.org/2000/svg" width="32" height="32" viewBox="0 0 32 32">
<title>uniEAFD</title>
<path d="M32 6v20h-30v-4h-2v-18h28v2h4zM24 6q0 0.422 0.156 0.781t0.43 0.633 0.633 0.43 0.781 0.156v-2h-2zM2 8q0.422 0 0.781-0.156t0.633-0.43 0.43-0.633 0.156-0.781h-2v2zM2 16q0.828 0 1.555 0.313t1.273 0.859 0.859 1.273 0.313 1.555h16q0-0.828 0.313-1.555t0.859-1.273 1.273-0.859 1.555-0.313v-6q-0.828 0-1.555-0.313t-1.273-0.859-0.859-1.273-0.313-1.555h-16q0 0.828-0.313 1.555t-0.859 1.273-1.273 0.859-1.555 0.313v6zM26 18q-0.422 0-0.781 0.156t-0.633 0.43-0.43 0.633-0.156 0.781h2v-2zM2 20h2q0-0.422-0.156-0.781t-0.43-0.633-0.633-0.43-0.781-0.156v2zM30 8h-2v14h-24v2h26v-16zM7 14q-0.406 0-0.703-0.297t-0.297-0.703 0.297-0.703 0.703-0.297 0.703 0.297 0.297 0.703-0.297 0.703-0.703 0.297zM21 14q-0.406 0-0.703-0.297t-0.297-0.703 0.297-0.703 0.703-0.297 0.703 0.297 0.297 0.703-0.297 0.703-0.703 0.297zM14 18q-0.828 0-1.555-0.313t-1.273-0.859-0.859-1.273-0.313-1.555v-2q0-0.828 0.313-1.555t0.859-1.273 1.273-0.859 1.555-0.313 1.555 0.313 1.273 0.859 0.859 1.273 0.313 1.555v2q0 0.828-0.313 1.555t-0.859 1.273-1.273 0.859-1.555 0.313zM12 14q0 0.422 0.156 0.781t0.43 0.633 0.633 0.43 0.781 0.156 0.781-0.156 0.633-0.43 0.43-0.633 0.156-0.781v-2q0-0.422-0.156-0.781t-0.43-0.633-0.633-0.43-0.781-0.156-0.781 0.156-0.633 0.43-0.43 0.633-0.156 0.781v2z"></path>
</svg>
