<!-- Generated by IcoMoon.io -->
<svg version="1.1" xmlns="http://www.w3.org/2000/svg" width="32" height="32" viewBox="0 0 32 32">
<title>uniF2BC</title>
<path d="M16 26q0.422 0 0.781 0.156t0.633 0.43 0.43 0.633 0.156 0.781-0.156 0.781-0.43 0.633-0.633 0.43-0.781 0.156-0.781-0.156-0.633-0.43-0.43-0.633-0.156-0.781 0.156-0.781 0.43-0.633 0.633-0.43 0.781-0.156zM16 14q0.422 0 0.781 0.156t0.633 0.43 0.43 0.633 0.156 0.781-0.156 0.781-0.43 0.633-0.633 0.43-0.781 0.156-0.781-0.156-0.633-0.43-0.43-0.633-0.156-0.781 0.156-0.781 0.43-0.633 0.633-0.43 0.781-0.156zM16 6q-0.422 0-0.781-0.156t-0.633-0.43-0.43-0.633-0.156-0.781 0.156-0.781 0.43-0.633 0.633-0.43 0.781-0.156 0.781 0.156 0.633 0.43 0.43 0.633 0.156 0.781-0.156 0.781-0.43 0.633-0.633 0.43-0.781 0.156z"></path>
</svg>
