<!-- Generated by IcoMoon.io -->
<svg version="1.1" xmlns="http://www.w3.org/2000/svg" width="32" height="32" viewBox="0 0 32 32">
<title>uniEB22</title>
<path d="M9.703 18.297l4 4-1.406 1.406-4-4zM19 0q1.797 0 3.461 0.461t3.109 1.313 2.625 2.031 2.031 2.625 1.313 3.109 0.461 3.461q0 2.281-0.75 4.359t-2.102 3.766-3.211 2.875-4.078 1.688q0.141 1.156 0.141 2.313 0 0.828-0.313 1.555t-0.859 1.273-1.273 0.859-1.555 0.313q-2.484 0-4.789-0.641t-4.305-1.813-3.641-2.813-2.813-3.641-1.813-4.305-0.641-4.789q0-0.828 0.313-1.555t0.859-1.273 1.273-0.859 1.555-0.313q1.156 0 2.313 0.141 0.5-2.219 1.688-4.078t2.875-3.211 3.766-2.102 4.359-0.75zM24.531 8.891q0.75 0.547 1.641 0.828t1.828 0.281q0.781 0 1.531-0.188-0.313-1.063-0.844-2.031t-1.234-1.813zM26.031 4.547q-0.844-0.703-1.813-1.234t-2.031-0.844q-0.188 0.75-0.188 1.531 0 0.938 0.281 1.828t0.828 1.641zM20.234 2.078q-0.313-0.047-0.617-0.063t-0.617-0.016q-1.938 0-3.742 0.664t-3.289 1.898l7.031 7.031 2.688-2.688q-0.828-1.047-1.258-2.305t-0.43-2.602q0-0.984 0.234-1.922zM10.547 5.969q-0.828 0.984-1.406 2.133t-0.859 2.414q2.141 0.5 4.109 1.547t3.609 2.516l1.594-1.578zM18 30q0.422 0 0.781-0.156t0.633-0.43 0.43-0.633 0.156-0.781q0-2.203-0.57-4.25t-1.617-3.82-2.508-3.234-3.234-2.508-3.82-1.617-4.25-0.57q-0.422 0-0.781 0.156t-0.633 0.43-0.43 0.633-0.156 0.781q0 2.203 0.57 4.25t1.617 3.82 2.508 3.234 3.234 2.508 3.82 1.617 4.25 0.57zM17.422 16q1.469 1.641 2.516 3.609t1.547 4.109q1.266-0.281 2.414-0.859t2.133-1.406l-7.031-7.047zM27.438 20.031q1.234-1.484 1.898-3.289t0.664-3.742q0-0.313-0.016-0.617t-0.063-0.617q-0.938 0.234-1.922 0.234-1.344 0-2.602-0.43t-2.305-1.258l-2.688 2.688z"></path>
</svg>
