<!-- Generated by IcoMoon.io -->
<svg version="1.1" xmlns="http://www.w3.org/2000/svg" width="32" height="32" viewBox="0 0 32 32">
<title>uniE46F</title>
<path d="M4 12v2h-4v-2h4zM7.344 5.922l-1.422 1.422-2.828-2.828 1.422-1.422zM14 0v4h-2v-4h2zM22.906 4.516l-2.828 2.828-1.422-1.422 2.828-2.828zM27.516 16.188q0.984 0.266 1.805 0.82t1.422 1.32 0.93 1.703 0.328 1.969q0 1.25-0.469 2.336t-1.289 1.906-1.914 1.289-2.328 0.469h-6l2-2h4q0.828 0 1.555-0.313t1.273-0.859 0.859-1.273 0.313-1.555q0-0.859-0.32-1.586t-0.883-1.266-1.305-0.844-1.586-0.305q-0.188-1.281-0.797-2.383t-1.531-1.906-2.094-1.258-2.484-0.453q-1.203 0-2.289 0.391t-1.977 1.078-1.539 1.656-0.945 2.109q-0.688-0.594-1.516-0.914t-1.734-0.32q-1.031 0-1.945 0.391t-1.594 1.070-1.070 1.594-0.391 1.945 0.391 1.945 1.070 1.594 1.594 1.070 1.945 0.391h4l-1 2h-3q-1.453 0-2.727-0.555t-2.219-1.5-1.5-2.219-0.555-2.727q0-1.047 0.297-2.023t0.844-1.813 1.32-1.492 1.727-1.078q-0.188-0.766-0.188-1.594 0-1.453 0.547-2.727t1.5-2.227 2.227-1.5 2.727-0.547q1 0 1.953 0.281t1.773 0.805 1.484 1.266 1.086 1.648q1.406 0.047 2.695 0.523t2.375 1.289 1.898 1.93 1.25 2.445zM11.297 14.391q0.953-1.609 2.469-2.703t3.344-1.484q-0.688-1.031-1.781-1.617t-2.328-0.586q-1.031 0-1.945 0.398t-1.594 1.078-1.070 1.586-0.391 1.938q0 0.266 0.023 0.523t0.102 0.523q0.438-0.047 0.875-0.047 1.156 0 2.297 0.391zM23 22l-10 10 4-8h-3.5l3-6h3.5l-2 4h5z"></path>
</svg>
