<!-- Generated by IcoMoon.io -->
<svg version="1.1" xmlns="http://www.w3.org/2000/svg" width="32" height="32" viewBox="0 0 32 32">
<title>uniE47B</title>
<path d="M27.922 19.031q0.656 0.078 1.219 0.383t0.977 0.766 0.648 1.063 0.234 1.258q0 0.719-0.273 1.359t-0.75 1.117-1.117 0.75-1.359 0.273h-1.5v-2q0.188 0 0.391 0.008t0.422 0.008q0.391 0 0.781-0.047t0.703-0.195 0.508-0.453 0.195-0.82-0.195-0.813-0.508-0.453-0.703-0.203-0.781-0.047q-0.219 0-0.422 0.008t-0.391 0.008v-1q0-0.828-0.313-1.555t-0.859-1.273-1.273-0.859-1.555-0.313q-1.25 0-2.227 0.68t-1.477 1.82q-0.078 0.203-0.164 0.406t-0.164 0.406q-0.359-0.094-0.734-0.203t-0.734-0.109q-0.516 0-0.969 0.195t-0.797 0.539-0.539 0.797-0.195 0.969q0 0.703 0.367 1.281t0.977 0.891l-0.875 1.828q-0.563-0.297-1.016-0.719t-0.781-0.938-0.5-1.109-0.172-1.234q0-0.891 0.336-1.703t0.945-1.453q-1.609-2.281-2.445-4.914t-0.836-5.43q0-2.531 0.703-4.953-1.969 0.813-3.578 2.141t-2.742 3.023-1.758 3.68-0.625 4.109q0 1.844 0.461 3.563t1.305 3.234 2.031 2.781 2.641 2.203 3.141 1.508 3.531 0.68l-0.984 1.922q-2.016-0.234-3.844-0.938t-3.398-1.797-2.844-2.523-2.172-3.117-1.383-3.594-0.484-3.922 0.484-3.914 1.383-3.578 2.164-3.109 2.828-2.523 3.391-1.797 3.828-0.953q-1.016 1.797-1.547 3.797t-0.531 4.078q0 2.5 0.75 4.859t2.203 4.406q0.75-0.266 1.5-0.266 0.078 0 0.164 0.008t0.18 0.008q0.391-0.703 0.953-1.266t1.234-0.945 1.438-0.594 1.578-0.211q1.094 0 2.094 0.383t1.789 1.055 1.328 1.594 0.711 2zM22.875 20l-1.875 4h4l-8.125 8 3.125-6h-3l2.875-6h3z"></path>
</svg>
