<!-- Generated by IcoMoon.io -->
<svg version="1.1" xmlns="http://www.w3.org/2000/svg" width="32" height="32" viewBox="0 0 32 32">
<title>uniE468</title>
<path d="M16 0v6h-2v-6h2zM14 30v-6h2v6h-2zM6 14v2h-6v-2h6zM9.344 7.922l-1.422 1.422-4.234-4.25 1.406-1.406zM20.656 22.078l1.422-1.422 4.234 4.25-1.406 1.406zM3.688 24.906l4.234-4.25 1.422 1.422-4.25 4.234zM28.563 9q0.719 0.016 1.344 0.297t1.094 0.75 0.734 1.102 0.266 1.352-0.273 1.359-0.75 1.117-1.117 0.75-1.359 0.273h-6.578q-0.172 1.297-0.789 2.398t-1.547 1.898-2.109 1.25-2.477 0.453q-1.453 0-2.727-0.547t-2.227-1.5-1.5-2.227-0.547-2.727 0.547-2.727 1.5-2.227 2.227-1.5 2.727-0.547q0.75 0 1.469 0.156t1.406 0.453q0.484-0.297 1.031-0.453t1.109-0.156q0.703-0.938 1.758-1.469t2.227-0.531q0.75 0 1.445 0.211t1.289 0.609 1.063 0.953 0.766 1.227zM15 20q0.891 0 1.703-0.297t1.461-0.828 1.102-1.266 0.641-1.609q-0.813-0.016-1.523-0.336t-1.242-0.867-0.836-1.266-0.305-1.531q0-0.469 0.109-0.922t0.313-0.875q-0.359-0.094-0.711-0.148t-0.711-0.055q-1.031 0-1.945 0.398t-1.594 1.078-1.070 1.586-0.391 1.938 0.391 1.945 1.070 1.594 1.594 1.070 1.945 0.391zM28.5 14q0.625 0 1.063-0.438t0.438-1.063-0.438-1.063-1.063-0.438h-1.422l-0.188-0.75q-0.125-0.484-0.406-0.898t-0.664-0.719-0.844-0.469-0.977-0.164q-0.578 0-1.016 0.164t-0.781 0.453-0.625 0.688-0.531 0.852q-0.266-0.047-0.523-0.102t-0.523-0.055q-0.422 0-0.781 0.156t-0.633 0.43-0.43 0.633-0.156 0.781 0.156 0.781 0.43 0.633 0.633 0.43 0.781 0.156h8.5z"></path>
</svg>
