<!-- Generated by IcoMoon.io -->
<svg version="1.1" xmlns="http://www.w3.org/2000/svg" width="32" height="32" viewBox="0 0 32 32">
<title>uniE476</title>
<path d="M12 8q0 2.203 0.57 4.25t1.617 3.82 2.508 3.234 3.234 2.508 3.82 1.617 4.25 0.57q0.484 0 0.961-0.031t0.961-0.094q-1.063 1.875-2.563 3.383t-3.305 2.563-3.852 1.617-4.203 0.563q-2.203 0-4.25-0.57t-3.82-1.617-3.234-2.508-2.508-3.234-1.617-3.82-0.57-4.25q0-2.016 0.484-3.914t1.383-3.578 2.164-3.109 2.828-2.523 3.391-1.797 3.828-0.953q-1.016 1.797-1.547 3.797t-0.531 4.078zM25.906 25.875q-2.266-0.266-4.32-1.055t-3.82-2.016-3.203-2.844-2.453-3.516-1.563-4.031-0.547-4.414q0-2.531 0.703-4.953-1.969 0.797-3.578 2.125t-2.742 3.023-1.758 3.688-0.625 4.117q0 1.938 0.5 3.727t1.414 3.344 2.188 2.828 2.828 2.188 3.344 1.414 3.727 0.5q2.828 0 5.367-1.063t4.539-3.063zM28.563 9q0.719 0.016 1.344 0.297t1.094 0.75 0.734 1.102 0.266 1.352-0.273 1.359-0.75 1.117-1.117 0.75-1.359 0.273h-8.5q-0.828 0-1.555-0.313t-1.273-0.859-0.859-1.273-0.313-1.555 0.32-1.563 0.867-1.273 1.273-0.852 1.555-0.313q0.703-0.938 1.758-1.469t2.227-0.531q0.75 0 1.445 0.211t1.289 0.609 1.063 0.953 0.766 1.227zM28.5 14q0.625 0 1.063-0.438t0.438-1.063-0.438-1.063-1.063-0.438h-1.422l-0.188-0.75q-0.125-0.484-0.406-0.898t-0.664-0.719-0.844-0.469-0.977-0.164q-0.578 0-1.016 0.164t-0.781 0.453-0.625 0.688-0.531 0.852q-0.266-0.047-0.523-0.102t-0.523-0.055q-0.422 0-0.781 0.156t-0.633 0.43-0.43 0.633-0.156 0.781 0.156 0.781 0.43 0.633 0.633 0.43 0.781 0.156h8.5z"></path>
</svg>
