<!-- Generated by IcoMoon.io -->
<svg version="1.1" xmlns="http://www.w3.org/2000/svg" width="32" height="32" viewBox="0 0 32 32">
<title>uniE7C2</title>
<path d="M3.828 16l3.219 3.203-1.422 1.422-5.625-5.625 5.625-5.625 1.422 1.422-3.219 3.203h6.172v2h-6.172zM30 15l-5.563 5.547-1.406-1.406 3.141-3.141h-6.172v-2h6.172l-3.219-3.203 1.422-1.422zM10.859 6.969l-1.406-1.406 5.547-5.563 5.625 5.625-1.422 1.422-3.203-3.219v6.172h-2v-6.172zM19.203 22.953l1.422 1.422-5.625 5.625-5.625-5.625 1.422-1.422 3.203 3.219v-6.172h2v6.172z"></path>
</svg>
