<!-- Generated by IcoMoon.io -->
<svg version="1.1" xmlns="http://www.w3.org/2000/svg" width="32" height="32" viewBox="0 0 32 32">
<title>uniE601</title>
<path d="M21.141 11.422q-0.234 0-0.398-0.164t-0.164-0.398v-4h-4.578v5.141l-1.188 1.188 8 8 0.609-0.609h8q0.234 0 0.406 0.156t0.172 0.406v8l-2.859 2.859h-8q-0.25 0-0.406-0.172t-0.156-0.406v-8l0.609-0.609-8-8-1.188 1.188h-5.141v4.578h4q0.234 0 0.398 0.164t0.164 0.398v8l-2.844 2.859h-8q-0.25 0-0.414-0.164t-0.164-0.414v-8l2.859-2.844h1.719v-4.578h-3.781q-0.328 0-0.563-0.234t-0.234-0.563v-11.203l4-4h11.203q0.328 0 0.563 0.234t0.234 0.563v3.781h4.578v-1.719l2.844-2.859h8q0.25 0 0.414 0.164t0.164 0.414v8l-2.859 2.844h-8zM22.859 9.141h5.328l1.531-1.516v-5.344h-5.344l-1.516 1.531v5.328zM3.813 22.859l-1.531 1.516v5.344h5.344l1.516-1.531v-5.328h-5.328zM22.859 29.719h5.328l1.531-1.531v-5.328h-5.344l-1.516 1.516v5.344z"></path>
</svg>
