<!-- Generated by IcoMoon.io -->
<svg version="1.1" xmlns="http://www.w3.org/2000/svg" width="32" height="32" viewBox="0 0 32 32">
<title>uniEB6C</title>
<path d="M19.688 10.906q0 2.328-0.367 4.586t-1.102 4.492q-0.359 1.109-0.695 2.188t-0.719 2.102-0.852 1.977-1.094 1.813-1.453 1.633-1.938 1.414q-0.703 0.406-1.469 0.648t-1.578 0.242q-0.875 0-1.516-0.289t-1.063-0.805-0.633-1.211-0.211-1.523q0-1.047 0.406-2.172t1.063-2.172 1.5-1.922 1.719-1.422q0.109-0.063 0.203-0.102t0.219-0.039q0.078 0 0.344 0.102t0.617 0.266 0.758 0.359 0.773 0.375 0.664 0.328 0.438 0.211q0.219 0.094 0.43 0.148t0.43 0.133l0.063-0.125-0.813-0.625t-0.797-0.656q-2.125-1.828-3.469-4.016t-1.906-4.938q-0.203-1.016-0.352-2.031t-0.148-2.047q0-0.219 0.008-0.43t0.023-0.43q0.047-0.734 0.219-1.539t0.469-1.578 0.727-1.469 1.008-1.227 1.297-0.844 1.594-0.313q0.703 0 1.375 0.211t1.281 0.57q1.125 0.656 1.961 1.719t1.398 2.32 0.852 2.617 0.32 2.594q0.016 0.219 0.016 0.438v0.438zM27.547 9.156q0.344 0 0.563 0.156t0.336 0.391 0.164 0.531 0.047 0.578q0 1.266-0.5 2.633t-1.258 2.695-1.641 2.531-1.633 2.156q-0.547 0.688-1.188 1.227t-1.484 0.82l0.047 0.109h1.406q-0.156 1.063-0.352 2.008t-0.523 1.828-0.836 1.703-1.273 1.617q-0.141 0.141-0.344 0.313t-0.43 0.32-0.469 0.25-0.445 0.102q-0.344 0-0.563-0.195t-0.336-0.484-0.164-0.617-0.047-0.594q0-0.547 0.227-1.438t0.586-1.961 0.805-2.219 0.883-2.219 0.82-1.977 0.617-1.469q0.703-1.656 1.516-3.258t1.969-2.977q0.453-0.531 0.977-1.023t1.055-0.945q0.266-0.219 0.695-0.406t0.773-0.188z"></path>
</svg>
