<!-- Generated by IcoMoon.io -->
<svg version="1.1" xmlns="http://www.w3.org/2000/svg" width="32" height="32" viewBox="0 0 32 32">
<title>uniEB1C</title>
<path d="M16 0q2.203 0 4.25 0.57t3.82 1.617 3.234 2.508 2.508 3.234 1.617 3.82 0.57 4.25-0.57 4.25-1.617 3.82-2.508 3.234-3.234 2.508-3.82 1.617-4.25 0.57-4.25-0.57-3.828-1.609-3.242-2.5-2.5-3.242-1.609-3.82-0.57-4.258q0-2.203 0.57-4.25t1.617-3.82 2.508-3.234 3.234-2.508 3.82-1.617 4.25-0.57zM16 30q1.938 0 3.727-0.5t3.344-1.414 2.828-2.188 2.188-2.828 1.414-3.344 0.5-3.727-0.5-3.727-1.414-3.344-2.188-2.828-2.828-2.188-3.344-1.414-3.727-0.5-3.727 0.5-3.344 1.414-2.828 2.188-2.188 2.828-1.414 3.344-0.5 3.727 0.5 3.727 1.406 3.344 2.188 2.836 2.836 2.188 3.344 1.406 3.727 0.5zM12 8l12 7.953-12 8.047v-16zM14 20.25l6.391-4.281-6.391-4.25v8.531z"></path>
</svg>
