<!-- Generated by IcoMoon.io -->
<svg version="1.1" xmlns="http://www.w3.org/2000/svg" width="32" height="32" viewBox="0 0 32 32">
<title>uniEA36</title>
<path d="M28 22q0 0.969-0.461 1.711t-1.188 1.25-1.617 0.773-1.734 0.266-1.734-0.266-1.617-0.773-1.188-1.25-0.461-1.711q0-0.953 0.461-1.703t1.188-1.258 1.617-0.773 1.734-0.266q0.797 0 1.563 0.195t1.438 0.602v-15.266l-14 3.5v18.969q0 0.969-0.461 1.711t-1.188 1.25-1.617 0.773-1.734 0.266-1.734-0.266-1.617-0.773-1.188-1.25-0.461-1.711q0-0.953 0.461-1.703t1.188-1.258 1.617-0.773 1.734-0.266q0.797 0 1.563 0.195t1.438 0.602v-17.328l18-4.5v21.031z"></path>
</svg>
