<!-- Generated by IcoMoon.io -->
<svg version="1.1" xmlns="http://www.w3.org/2000/svg" width="32" height="32" viewBox="0 0 32 32">
<title>uniF17A</title>
<path d="M25 18q1.453 0 2.727 0.547t2.227 1.5 1.5 2.227 0.547 2.727-0.547 2.727-1.5 2.227-2.227 1.5-2.727 0.547-2.727-0.547-2.227-1.5-1.5-2.227-0.547-2.727 0.547-2.727 1.5-2.227 2.227-1.5 2.727-0.547zM20 25q0 1.031 0.391 1.945t1.070 1.594 1.594 1.070 1.945 0.391q0.734 0 1.438-0.211t1.313-0.617l-6.922-6.922q-0.406 0.609-0.617 1.313t-0.211 1.438zM29.172 27.75q0.406-0.609 0.617-1.313t0.211-1.438q0-1.031-0.398-1.938t-1.078-1.586-1.586-1.078-1.938-0.398q-0.734 0-1.438 0.211t-1.313 0.617zM32 2v17.016q-0.438-0.516-0.93-0.969t-1.070-0.813v-13.234h-28v18h4v4.172l4.172-4.172h6.125q-0.344 0.984-0.453 2h-4.844l-7 7v-7h-4v-22h32z"></path>
</svg>
