<!-- Generated by IcoMoon.io -->
<svg version="1.1" xmlns="http://www.w3.org/2000/svg" width="32" height="32" viewBox="0 0 32 32">
<title>uniEE6C</title>
<path d="M30 14v13q0 0.625-0.234 1.172t-0.641 0.953-0.953 0.641-1.172 0.234h-22q-0.625 0-1.172-0.234t-0.953-0.641-0.641-0.953-0.234-1.172v-7.922q0-0.578 0.023-1.047t0.031-0.93 0-0.93-0.055-1.047q-0.031-0.328-0.094-0.602t-0.133-0.523-0.156-0.508-0.164-0.586l-1.109-4.453 27.156-6.781 1.938 7.766-18.297 4.563h18.859zM10.641 7.938l-5.016 1.25 5.5 2.75 5.016-1.25zM19.125 9.953l5.031-1.266-5.5-2.734-5.031 1.25zM2.781 10.016l0.953 3.766 4.406-1.094zM26.047 4.094l-4.406 1.109 5.344 2.672zM28 16h-24v11q0 0.406 0.297 0.703t0.703 0.297h22q0.406 0 0.703-0.297t0.297-0.703v-11z"></path>
</svg>
