<!-- Generated by IcoMoon.io -->
<svg version="1.1" xmlns="http://www.w3.org/2000/svg" width="32" height="32" viewBox="0 0 32 32">
<title>uniE4F6</title>
<path d="M32 10.906v10.109q0 0.922-0.422 1.672t-1.078 1.359q-0.813 0.766-1.898 1.344t-2.344 1.008-2.617 0.719-2.703 0.469-2.609 0.258-2.328 0.078-2.328-0.078-2.609-0.258-2.703-0.469-2.617-0.719-2.352-1.016-1.891-1.336q-0.656-0.609-1.078-1.359t-0.422-1.672v-10.109q0-0.906 0.43-1.672t1.070-1.359q0.797-0.766 1.891-1.344t2.352-1.016 2.617-0.727 2.703-0.461 2.609-0.25 2.328-0.078 2.328 0.078 2.609 0.25 2.703 0.461 2.617 0.727 2.352 1.016 1.891 1.344q0.641 0.594 1.070 1.359t0.43 1.672zM2 10.906q0 0.594 0.422 1.109t1.016 0.93 1.234 0.719 1.094 0.492q1.141 0.469 2.422 0.781t2.609 0.516 2.648 0.289 2.555 0.086 2.555-0.086 2.641-0.289 2.602-0.516 2.438-0.781q0.438-0.188 1.086-0.492t1.242-0.719 1.016-0.93 0.422-1.109q0-0.578-0.422-1.094t-1.023-0.93-1.242-0.727-1.078-0.5q-1.125-0.469-2.414-0.781t-2.625-0.508-2.656-0.281-2.539-0.086-2.539 0.086-2.656 0.281-2.625 0.508-2.414 0.781q-0.438 0.188-1.078 0.5t-1.242 0.727-1.023 0.93-0.422 1.094zM30 21.016v-6.641q-1.313 1-3.063 1.664t-3.648 1.063-3.789 0.563-3.5 0.164-3.5-0.164-3.789-0.563-3.648-1.063-3.063-1.664v6.641q0 0.594 0.422 1.109t1.016 0.93 1.234 0.719 1.094 0.492q1.141 0.469 2.422 0.781t2.609 0.508 2.648 0.281 2.555 0.086 2.555-0.086 2.641-0.281 2.602-0.508 2.438-0.781q0.438-0.188 1.086-0.492t1.242-0.719 1.016-0.93 0.422-1.109zM19.234 9.031l-3.25 0.953-3.484-1.188 0.656-1.891 2.859 0.984 2.656-0.781zM16.016 13.938l-2.859 0.984-0.656-1.891 3.484-1.203 3.25 0.969-0.563 1.922zM22.547 13.828l-1.094-1.656 1.75-1.172-1.75-1.172 1.094-1.656 4.25 2.828zM10.547 12.172l-1.094 1.656-4.25-2.828 4.25-2.828 1.094 1.656-1.75 1.172z"></path>
</svg>
