<!-- Generated by IcoMoon.io -->
<svg version="1.1" xmlns="http://www.w3.org/2000/svg" width="32" height="32" viewBox="0 0 32 32">
<title>uniE8F4</title>
<path d="M28 0q0.422 0 0.781 0.156t0.633 0.43 0.43 0.633 0.156 0.781v15.5q0 0.484 0.148 0.852t0.367 0.688 0.484 0.633 0.484 0.711 0.367 0.906 0.148 1.211v7.5q0 0.422-0.156 0.781t-0.43 0.633-0.633 0.43-0.781 0.156h-18v-2h14v-7.5q0-0.703 0.148-1.211t0.367-0.906 0.484-0.711 0.484-0.633 0.367-0.688 0.148-0.852v-15.5h-20v12h-2v-14h22zM30 22.5q0-0.375-0.070-0.656t-0.203-0.516-0.313-0.461-0.414-0.492q-0.234 0.266-0.414 0.492t-0.313 0.461-0.203 0.516-0.070 0.656v7.5h2v-7.5zM14 26h-6v6h-2v-6h-6v-2h6v-6h2v6h6v2z"></path>
</svg>
