<!-- Generated by IcoMoon.io -->
<svg version="1.1" xmlns="http://www.w3.org/2000/svg" width="32" height="32" viewBox="0 0 32 32">
<title>uniE900</title>
<path d="M32 8v14q0 0.828-0.32 1.555t-0.859 1.266-1.273 0.859-1.547 0.32h-24.109q-0.797 0-1.508-0.313t-1.234-0.836-0.836-1.234-0.313-1.508v-18.109h28v4h4zM30 10h-2v11q0 0.406-0.297 0.703t-0.703 0.297-0.703-0.297-0.297-0.703v-15h-24v16.109q0 0.391 0.148 0.734t0.406 0.602 0.602 0.406 0.734 0.148h24.109q0.422 0 0.781-0.156t0.633-0.43 0.43-0.633 0.156-0.781v-12zM24 10h-20v-2h20v2zM24 22h-8v-2h8v2zM24 18h-8v-2h8v2zM24 14h-8v-2h8v2zM14 22h-10v-10.047h10v10.047zM6 20h6v-6.047h-6v6.047z"></path>
</svg>
