<!-- Generated by IcoMoon.io -->
<svg version="1.1" xmlns="http://www.w3.org/2000/svg" width="32" height="32" viewBox="0 0 32 32">
<title>uniF4E9</title>
<path d="M23.234 12q-0.922 0.313-1.742 0.813t-1.508 1.188h-3.984v-2h7.234zM17.5 20q0 0.5 0.070 1t0.195 1h-1.766v-2h1.5zM32 8v5.984q-0.438-0.438-0.945-0.789t-1.055-0.648v-2.547h-2v1.766q-0.5-0.125-1-0.195t-1-0.070v-5.5h-24v16.109q0 0.391 0.148 0.734t0.406 0.602 0.602 0.406 0.734 0.148h13.156l-2 2h-11.156q-0.797 0-1.508-0.305t-1.242-0.836-0.836-1.242-0.305-1.508v-18.109h28v4h4zM24 10h-20v-2h20v2zM4 12h10v10h-10v-10zM6 20h6v-6h-6v6zM16 16h2v1.234q-0.141 0.391-0.234 0.766h-1.766v-2zM26 14q1.234 0 2.328 0.469t1.914 1.289 1.289 1.914 0.469 2.328q0 1.25-0.469 2.336t-1.289 1.906-1.914 1.289-2.328 0.469q-0.938 0-1.82-0.289t-1.648-0.836l-6.828 6.828q-0.297 0.297-0.703 0.297t-0.703-0.297-0.297-0.703 0.297-0.703l6.828-6.828q-0.547-0.766-0.836-1.648t-0.289-1.82q0-1.234 0.469-2.328t1.289-1.914 1.906-1.289 2.336-0.469zM26 24q0.828 0 1.555-0.313t1.273-0.859 0.859-1.273 0.313-1.555-0.313-1.555-0.859-1.273-1.273-0.859-1.555-0.313-1.555 0.313-1.273 0.859-0.859 1.273-0.313 1.555 0.313 1.555 0.859 1.273 1.273 0.859 1.555 0.313z"></path>
</svg>
