<!-- Generated by IcoMoon.io -->
<svg version="1.1" xmlns="http://www.w3.org/2000/svg" width="32" height="32" viewBox="0 0 32 32">
<title>uniF4EF</title>
<path d="M24 20.516q0 1.797-0.688 3.188t-1.852 2.336-2.695 1.438-3.203 0.492h-7.563v-25.969h7.391q1.375 0 2.695 0.344t2.344 1.070 1.648 1.844 0.625 2.68q0 1.078-0.305 2.063t-0.891 1.789-1.422 1.398-1.883 0.906v0.078q1.313 0.141 2.383 0.648t1.828 1.328 1.172 1.93 0.414 2.438zM11.047 4.75v8.375h3.094q1.125 0 2.102-0.258t1.703-0.805 1.141-1.422 0.414-2.094q0-1.125-0.406-1.859t-1.094-1.164-1.578-0.602-1.875-0.172h-3.5zM20.813 20.469q0-1.406-0.539-2.297t-1.422-1.398-2.016-0.695-2.32-0.188h-3.469v9.328h4.109q1.141 0 2.164-0.273t1.797-0.844 1.234-1.469 0.461-2.164z"></path>
</svg>
