<!-- Generated by IcoMoon.io -->
<svg version="1.1" xmlns="http://www.w3.org/2000/svg" width="32" height="32" viewBox="0 0 32 32">
<title>uniED9A</title>
<path d="M28 19.859q0.953 0.422 2 0.563v9.578h-19.422l-8.578-8.578v-19.422h28v3.578q-1.047 0.141-2 0.563v-2.141h-24v16h8v8h16v-8.141zM10 22h-4.578l4.578 4.578v-4.578zM32 8v10h-1q-1.219 0-2.234-0.523t-1.75-1.477h-1.719q-0.438 0.922-1.094 1.664t-1.477 1.258-1.766 0.797-1.961 0.281h-1v-6h-8l-2-1 2-1h8v-6h1q1.016 0 1.961 0.281t1.766 0.797 1.477 1.258 1.094 1.664h1.719q0.734-0.953 1.75-1.477t2.234-0.523h1zM30 10.172q-0.375 0.125-0.641 0.313t-0.477 0.414-0.391 0.508-0.367 0.594h-4.203l-0.234-0.672q-0.438-1.234-1.422-2.094t-2.266-1.125v9.781q1.281-0.266 2.266-1.125t1.422-2.094l0.234-0.672h4.203q0.188 0.313 0.367 0.594t0.391 0.508 0.477 0.414 0.641 0.313v-5.656z"></path>
</svg>
