<!-- Generated by IcoMoon.io -->
<svg version="1.1" xmlns="http://www.w3.org/2000/svg" width="32" height="32" viewBox="0 0 32 32">
<title>uniF440</title>
<path d="M10 26.156l6.063-4.234q-0.234 0.688-0.367 1.391t-0.164 1.422l-7.531 5.266v-28l19.969 14.016q-0.719-0.234-1.461-0.375t-1.508-0.141q-0.266 0-0.523 0.039t-0.523 0.070l-13.953-9.766v20.313zM25 18q1.453 0 2.727 0.547t2.227 1.5 1.5 2.227 0.547 2.727-0.547 2.727-1.5 2.227-2.227 1.5-2.727 0.547-2.727-0.547-2.227-1.5-1.5-2.227-0.547-2.727 0.547-2.727 1.5-2.227 2.227-1.5 2.727-0.547zM20 25q0 1.031 0.391 1.945t1.070 1.594 1.594 1.070 1.945 0.391q0.734 0 1.438-0.211t1.313-0.617l-6.922-6.922q-0.406 0.609-0.617 1.313t-0.211 1.438zM29.172 27.75q0.406-0.609 0.617-1.313t0.211-1.438q0-1.031-0.398-1.938t-1.078-1.586-1.586-1.078-1.938-0.398q-0.734 0-1.438 0.211t-1.313 0.617z"></path>
</svg>
