<!-- Generated by IcoMoon.io -->
<svg version="1.1" xmlns="http://www.w3.org/2000/svg" width="32" height="32" viewBox="0 0 32 32">
<title>uniF441</title>
<path d="M25 15.5q-1.594 0-3.008 0.5t-2.602 1.375l-2.953-1.938-10.313 15.641q-0.313 0.453-0.844 0.453-0.281 0-0.547-0.172-0.438-0.297-0.438-0.828 0-0.297 0.156-0.547l10.328-15.656-5.109-3.359-0.313 0.484q-0.297 0.438-0.742 0.664t-0.945 0.227q-0.594 0-1.078-0.328-0.438-0.297-0.672-0.742t-0.234-0.945q0-0.578 0.328-1.078l5.516-8.359q0.297-0.438 0.734-0.664t0.938-0.227q0.578 0 1.094 0.328 0.438 0.297 0.672 0.742t0.234 0.945q0 0.594-0.328 1.078l-0.328 0.484 11.688 7.703 0.313-0.469q0.297-0.438 0.742-0.672t0.945-0.234q0.578 0 1.094 0.328 0.438 0.297 0.664 0.742t0.227 0.945q0 0.578-0.328 1.094l-1.969 2.984q-0.703-0.219-1.43-0.359t-1.492-0.141zM29.953 20.047q0.984 1 1.516 2.266t0.531 2.688-0.531 2.688-1.516 2.25q-1 1-2.266 1.531t-2.688 0.531-2.688-0.531-2.25-1.516q-1-1-1.531-2.266t-0.531-2.688 0.531-2.688 1.516-2.25q1-1 2.266-1.531t2.688-0.531 2.688 0.531 2.266 1.516zM20 25q0 1.031 0.391 1.945t1.070 1.594 1.594 1.070 1.945 0.391q0.766 0 1.461-0.219t1.289-0.609l-6.922-6.922q-0.391 0.594-0.609 1.289t-0.219 1.461zM29.172 27.75q0.391-0.594 0.609-1.289t0.219-1.461q0-1.031-0.398-1.938t-1.078-1.586-1.586-1.078-1.938-0.398q-0.766 0-1.461 0.219t-1.289 0.609z"></path>
</svg>
