<!-- Generated by IcoMoon.io -->
<svg version="1.1" xmlns="http://www.w3.org/2000/svg" width="32" height="32" viewBox="0 0 32 32">
<title>uniF44C</title>
<path d="M22.922 4q1.891 0 3.539 0.711t2.883 1.945 1.945 2.891 0.711 3.547v9.813q0 1.891-0.711 3.547t-1.945 2.891-2.883 1.945-3.539 0.711h-9.828q-1.891 0-3.547-0.711t-2.883-1.945-1.938-2.891-0.711-3.547v-9.813q0-1.891 0.711-3.547t1.938-2.891 2.883-1.945 3.547-0.711h9.828zM11.172 15.563q0.703 0 1.32-0.266t1.078-0.727 0.727-1.078 0.266-1.32-0.266-1.32-0.727-1.078-1.078-0.727-1.32-0.266-1.32 0.266-1.078 0.727-0.727 1.078-0.266 1.32 0.266 1.32 0.727 1.078 1.078 0.727 1.32 0.266zM22 28.781q1.219 0 2.289-0.461t1.867-1.258 1.258-1.867 0.461-2.289-0.461-2.289-1.258-1.867-1.867-1.258-2.289-0.461-2.289 0.461-1.867 1.258-1.258 1.867-0.461 2.289 0.461 2.289 1.258 1.867 1.867 1.258 2.289 0.461zM6 3q0 0.625-0.234 1.172t-0.641 0.953-0.953 0.641-1.172 0.234-1.172-0.234-0.953-0.641-0.641-0.953-0.234-1.172 0.234-1.172 0.641-0.953 0.953-0.641 1.172-0.234 1.172 0.234 0.953 0.641 0.641 0.953 0.234 1.172z"></path>
</svg>
