<!-- Generated by IcoMoon.io -->
<svg version="1.1" xmlns="http://www.w3.org/2000/svg" width="32" height="32" viewBox="0 0 32 32">
<title>uniE398</title>
<path d="M0 8v-2h24v2h-24zM0 16v-2h24v2h-24zM0 24v-2h24v2h-24zM28.859 5.953v-1.078q0.484-0.172 0.922-0.375t0.844-0.516h0.766v6.016h-1.281v-4.547q-0.219 0.172-0.586 0.336t-0.664 0.164zM32 16.922v1.078h-3.922v-0.438q0-0.531 0.195-0.922t0.477-0.695 0.625-0.547 0.625-0.484 0.477-0.5 0.195-0.602q0-0.422-0.234-0.594t-0.625-0.172q-0.406 0-0.773 0.172t-0.68 0.438v-1.141q0.781-0.5 1.734-0.5 0.391 0 0.742 0.102t0.609 0.313 0.406 0.523 0.148 0.734q0 0.484-0.188 0.852t-0.461 0.656-0.602 0.516-0.602 0.422-0.461 0.391-0.188 0.398h2.5zM30.656 22.938q0.563 0.078 0.953 0.422t0.391 0.953q0 0.484-0.195 0.828t-0.508 0.555-0.727 0.313-0.836 0.102q-0.375 0-0.758-0.063t-0.727-0.234v-1.141q0.297 0.219 0.648 0.328t0.727 0.109q0.406 0 0.727-0.172t0.32-0.641q0-0.281-0.141-0.445t-0.359-0.242-0.484-0.102-0.5-0.023h-0.344v-1h0.406q0.203 0 0.43-0.023t0.406-0.094 0.297-0.219 0.117-0.414q0-0.406-0.258-0.563t-0.617-0.156q-0.609 0-1.156 0.375v-1.063q0.344-0.172 0.711-0.242t0.742-0.070q0.344 0 0.688 0.078t0.609 0.258 0.438 0.461 0.172 0.672q0 0.594-0.305 0.945t-0.867 0.492v0.016z"></path>
</svg>
