<!-- Generated by IcoMoon.io -->
<svg version="1.1" xmlns="http://www.w3.org/2000/svg" width="32" height="32" viewBox="0 0 32 32">
<title>uniEA1C</title>
<path d="M32 6v2h-24v-2h24zM8 14h24v2h-24v-2zM8 22h24v2h-24v-2zM2.109 5.453q-0.219 0.172-0.586 0.336t-0.664 0.164v-1.078q0.484-0.172 0.922-0.375t0.844-0.516h0.766v6.016h-1.281v-4.547zM2.094 12.016q0.391 0 0.742 0.102t0.609 0.313 0.406 0.523 0.148 0.734q0 0.484-0.188 0.852t-0.461 0.656-0.602 0.516-0.602 0.422-0.461 0.391-0.188 0.398h2.5v1.078h-3.922q0-0.359 0.008-0.641t0.148-0.609q0.234-0.531 0.641-0.898t0.805-0.68 0.695-0.625 0.297-0.734-0.234-0.594-0.625-0.172q-0.406 0-0.773 0.172t-0.68 0.438v-1.141q0.781-0.5 1.734-0.5zM2.656 22.938q0.563 0.078 0.953 0.422t0.391 0.953q0 0.484-0.195 0.828t-0.508 0.555-0.727 0.313-0.836 0.102q-0.375 0-0.758-0.063t-0.727-0.234v-1.141q0.297 0.219 0.648 0.328t0.727 0.109q0.406 0 0.727-0.172t0.32-0.641q0-0.344-0.203-0.508t-0.492-0.234-0.602-0.070h-0.531v-1h0.5t0.539-0.055 0.438-0.211 0.18-0.484q0-0.406-0.258-0.563t-0.617-0.156q-0.609 0-1.156 0.375v-1.063q0.344-0.172 0.711-0.242t0.742-0.070q0.344 0 0.688 0.078t0.609 0.258 0.438 0.461 0.172 0.672q0 0.594-0.305 0.945t-0.867 0.492v0.016z"></path>
</svg>
