<!-- Generated by IcoMoon.io -->
<svg version="1.1" xmlns="http://www.w3.org/2000/svg" width="32" height="32" viewBox="0 0 32 32">
<title>uniF797</title>
<path d="M2.109 5.453q-0.219 0.172-0.594 0.336t-0.656 0.164v-1.078q0.469-0.156 0.914-0.367t0.852-0.523h0.766v6.016h-1.281v-4.547zM1.5 16.922h2.5v1.078h-3.922v-0.188q0-0.266 0.023-0.531t0.133-0.531q0.188-0.438 0.594-0.813t0.813-0.719 0.719-0.688 0.313-0.719q0-0.422-0.227-0.594t-0.633-0.172-0.773 0.172-0.68 0.438v-1.141q0.781-0.5 1.734-0.5 0.797 0 1.352 0.406t0.555 1.266q0 0.719-0.391 1.195t-0.859 0.828-0.859 0.625-0.391 0.586zM4 24.313q0 0.484-0.195 0.828t-0.508 0.555-0.727 0.313-0.836 0.102q-0.406 0-0.766-0.063t-0.719-0.234v-1.141q0.313 0.219 0.648 0.328t0.727 0.109q0.406 0 0.727-0.172t0.32-0.641q0-0.281-0.148-0.445t-0.375-0.242-0.492-0.102-0.5-0.023h-0.313v-1h0.359q0.219 0 0.445-0.023t0.414-0.094 0.313-0.219 0.125-0.414q0-0.406-0.258-0.563t-0.617-0.156q-0.609 0-1.156 0.375v-1.063q0.344-0.172 0.711-0.242t0.742-0.070q0.344 0 0.68 0.078t0.609 0.258 0.445 0.461 0.172 0.672q0 0.594-0.305 0.945t-0.867 0.492v0.016q0.578 0.078 0.961 0.43t0.383 0.945z"></path>
</svg>
