<!-- Generated by IcoMoon.io -->
<svg version="1.1" xmlns="http://www.w3.org/2000/svg" width="32" height="32" viewBox="0 0 32 32">
<title>uniEDC4</title>
<path d="M16 20h-6v-1.172t0.219-1.141q0.172-0.438 0.523-0.852t0.773-0.82 0.859-0.789 0.805-0.758 0.594-0.742 0.227-0.727q0-0.406-0.297-0.703t-0.703-0.297q-0.359 0-0.633 0.219t-0.352 0.578l-1.953-0.406q0.094-0.516 0.367-0.953t0.68-0.758 0.891-0.5 1-0.18q0.625 0 1.172 0.234t0.953 0.641 0.641 0.953 0.234 1.172q0 0.609-0.18 1.102t-0.477 0.906-0.688 0.789-0.797 0.727-0.805 0.711-0.727 0.766h3.672v2zM32 4v22h-32v-22h32zM30 6h-28v18h28v-18zM6.203 12.297q-0.453 0.266-1.063 0.484t-1.141 0.219v-2q0.172 0 0.484-0.094t0.625-0.242 0.57-0.32 0.336-0.344h1.984v10h-1.797v-7.703zM20.625 20q-0.656 0-1.273-0.219t-1.164-0.578v-1.984q0.313 0.234 0.555 0.406t0.492 0.281 0.539 0.156 0.695 0.047q0.344 0 0.656-0.070t0.555-0.234 0.383-0.43 0.141-0.656q0-0.484-0.375-0.695t-0.875-0.273-1.023-0.039-0.82 0.023v-1.516h0.906t0.906-0.117 0.703-0.406 0.281-0.883q0-0.656-0.398-0.875t-0.992-0.219q-0.625 0-1.078 0.281t-0.906 0.672v-2.031q0.531-0.359 1.188-0.5t1.281-0.141q0.563 0 1.094 0.156t0.945 0.461 0.664 0.766 0.25 1.070q0 0.75-0.305 1.336t-0.961 0.945q0.688 0.234 1.125 0.828t0.438 1.328-0.313 1.313-0.82 0.977-1.164 0.609-1.328 0.211z"></path>
</svg>
