<!-- Generated by IcoMoon.io -->
<svg version="1.1" xmlns="http://www.w3.org/2000/svg" width="32" height="32" viewBox="0 0 32 32">
<title>uniF52A</title>
<path d="M20 7.438q-0.453 0.266-0.961 0.414t-1.039 0.148v-2q0.422 0 0.781-0.156t0.633-0.43 0.43-0.633 0.156-0.781h2v10h-2v-6.563zM23 28h-6q0-0.203-0.008-0.398t-0.008-0.398q0-0.391 0.047-0.773t0.188-0.742q0.172-0.438 0.516-0.852t0.766-0.813 0.867-0.781 0.805-0.766 0.594-0.75 0.234-0.727q0-0.422-0.297-0.711t-0.703-0.289q-0.359 0-0.633 0.219t-0.352 0.578l-1.953-0.406q0.094-0.516 0.367-0.953t0.68-0.758 0.891-0.5 1-0.18q0.625 0 1.172 0.234t0.953 0.641 0.641 0.953 0.234 1.172q0 0.922-0.391 1.594t-0.961 1.234-1.203 1.070-1.117 1.102h3.672v2zM8.203 13.969h-1.781l3.672-9.813h1.828l3.656 9.813h-1.797l-0.875-2.5h-3.859zM10.953 5.609q-0.031 0.172-0.055 0.328t-0.070 0.297l-1.359 3.906h3.016l-1.375-3.906q-0.047-0.141-0.078-0.305t-0.078-0.32zM8.203 27.969h-1.781l3.672-9.813h1.828l3.656 9.813h-1.797l-0.875-2.5h-3.859zM10.953 19.609q-0.031 0.172-0.055 0.328t-0.070 0.297l-1.359 3.906h3.016l-1.375-3.906q-0.047-0.141-0.078-0.305t-0.078-0.32zM24.031 15.891q0.328 0 0.531-0.188t0.313-0.461 0.148-0.586 0.039-0.563h-1.063v-2.063h2v2.063q0 0.469-0.102 0.953t-0.328 0.883-0.602 0.648-0.938 0.25v-0.938zM32 0v32h-32v-32h32zM30 2h-28v28h28v-28z"></path>
</svg>
