<!-- Generated by IcoMoon.io -->
<svg version="1.1" xmlns="http://www.w3.org/2000/svg" width="32" height="32" viewBox="0 0 32 32">
<title>uniE4BB</title>
<path d="M8.891 14h14.219q0.406 0 0.648 0.313t0.242 0.688-0.242 0.688-0.648 0.313h-14.219q-0.406 0-0.648-0.313t-0.242-0.688 0.242-0.688 0.648-0.313zM14 23q0 0.406-0.297 0.703t-0.703 0.297h-4q-1.859 0-3.5-0.711t-2.859-1.93-1.93-2.859-0.711-3.5 0.711-3.5 1.93-2.859 2.859-1.93 3.5-0.711h4q0.406 0 0.703 0.297t0.297 0.703-0.297 0.703-0.703 0.297h-4q-1.453 0-2.727 0.555t-2.219 1.5-1.5 2.219-0.555 2.727 0.555 2.727 1.5 2.219 2.219 1.5 2.727 0.555h4q0.406 0 0.703 0.297t0.297 0.703zM32 15q0 1.859-0.711 3.5t-1.93 2.859-2.859 1.93-3.5 0.711h-4q-0.406 0-0.703-0.297t-0.297-0.703 0.297-0.703 0.703-0.297h4q1.453 0 2.727-0.555t2.219-1.5 1.5-2.219 0.555-2.727-0.555-2.727-1.5-2.219-2.219-1.5-2.727-0.555h-4q-0.406 0-0.703-0.297t-0.297-0.703 0.297-0.703 0.703-0.297h4q1.859 0 3.5 0.711t2.859 1.93 1.93 2.859 0.711 3.5z"></path>
</svg>
