<!-- Generated by IcoMoon.io -->
<svg version="1.1" xmlns="http://www.w3.org/2000/svg" width="32" height="32" viewBox="0 0 32 32">
<title>uniE4BC</title>
<path d="M13.328 22.672q0 0.547-0.391 0.938t-0.938 0.391h-2.672q-1.922 0-3.625-0.734t-2.969-2-2-2.969-0.734-3.625q0-1.281 0.336-2.477t0.938-2.234 1.453-1.891 1.891-1.461 2.234-0.945 2.477-0.336h2.672q0.281 0 0.523 0.109t0.422 0.289 0.281 0.422 0.102 0.523q0 0.547-0.391 0.938t-0.938 0.391h-2.672q-1.375 0-2.586 0.523t-2.117 1.43-1.43 2.125-0.523 2.594 0.523 2.586 1.43 2.117 2.117 1.43 2.586 0.523h2.672q0.281 0 0.523 0.109t0.422 0.289 0.281 0.422 0.102 0.523zM32 14.672q0 1.922-0.734 3.625t-2 2.969-2.969 2-3.625 0.734h-2.672q-0.547 0-0.938-0.391t-0.391-0.938q0-0.281 0.102-0.523t0.281-0.422 0.422-0.289 0.523-0.109h2.672q1.375 0 2.586-0.523t2.117-1.43 1.43-2.117 0.523-2.586-0.523-2.594-1.43-2.125-2.117-1.43-2.586-0.523h-2.672q-0.547 0-0.938-0.391t-0.391-0.938q0-0.281 0.102-0.523t0.281-0.422 0.422-0.289 0.523-0.109h2.672q1.281 0 2.477 0.336t2.234 0.945 1.891 1.461 1.453 1.891 0.938 2.234 0.336 2.477zM8 14.672q0-0.281 0.102-0.523t0.281-0.422 0.422-0.289 0.523-0.109h13.344q0.281 0 0.523 0.109t0.422 0.289 0.281 0.422 0.102 0.523q0 0.547-0.391 0.938t-0.938 0.391h-13.344q-0.547 0-0.938-0.391t-0.391-0.938z"></path>
</svg>
