<!-- Generated by IcoMoon.io -->
<svg version="1.1" xmlns="http://www.w3.org/2000/svg" width="32" height="32" viewBox="0 0 32 32">
<title>uniE649</title>
<path d="M30 15v8q0 1.031-0.391 1.945t-1.070 1.594-1.594 1.070-1.945 0.391h-8q-1.031 0-1.945-0.391t-1.594-1.070-1.070-1.594-0.391-1.945v-1h2v1q0 0.625 0.234 1.172t0.641 0.953 0.953 0.641 1.172 0.234h8q0.625 0 1.172-0.234t0.953-0.641 0.641-0.953 0.234-1.172v-8q0-0.625-0.234-1.172t-0.641-0.953-0.953-0.641-1.172-0.234h-11.172q-0.156 0.453-0.438 0.82t-0.656 0.633-0.82 0.406-0.914 0.141q-0.625 0-1.172-0.234t-0.953-0.641-0.641-0.953-0.234-1.172 0.234-1.172 0.641-0.953 0.953-0.641 1.172-0.234q0.469 0 0.914 0.141t0.82 0.406 0.656 0.633 0.438 0.82h11.172q1.031 0 1.945 0.391t1.594 1.070 1.070 1.594 0.391 1.945zM11 12q0.406 0 0.703-0.297t0.297-0.703-0.297-0.703-0.703-0.297-0.703 0.297-0.297 0.703 0.297 0.703 0.703 0.297zM21 22q-0.469 0-0.914-0.141t-0.82-0.406-0.656-0.633-0.438-0.82h-11.172q-1.031 0-1.945-0.391t-1.594-1.070-1.070-1.594-0.391-1.945v-8q0-1.031 0.391-1.945t1.070-1.594 1.594-1.070 1.945-0.391h8q1.031 0 1.945 0.391t1.594 1.070 1.070 1.594 0.391 1.945v1h-2v-1q0-0.625-0.234-1.172t-0.641-0.953-0.953-0.641-1.172-0.234h-8q-0.625 0-1.172 0.234t-0.953 0.641-0.641 0.953-0.234 1.172v8q0 0.625 0.234 1.172t0.641 0.953 0.953 0.641 1.172 0.234h11.172q0.156-0.453 0.438-0.82t0.656-0.633 0.82-0.406 0.914-0.141q0.625 0 1.172 0.234t0.953 0.641 0.641 0.953 0.234 1.172-0.234 1.172-0.641 0.953-0.953 0.641-1.172 0.234zM21 18q-0.406 0-0.703 0.297t-0.297 0.703 0.297 0.703 0.703 0.297 0.703-0.297 0.297-0.703-0.297-0.703-0.703-0.297z"></path>
</svg>
