<!-- Generated by IcoMoon.io -->
<svg version="1.1" xmlns="http://www.w3.org/2000/svg" width="32" height="32" viewBox="0 0 32 32">
<title>uniE64A</title>
<path d="M20 24q-0.641 0-1.227-0.195t-1.078-0.547-0.875-0.844-0.586-1.086h-8.234q-1.109 0-2.078-0.422t-1.688-1.141-1.141-1.688-0.422-2.078v-8q0-1.094 0.422-2.070t1.141-1.695 1.688-1.141 2.078-0.422h8q1.094 0 2.070 0.422t1.695 1.141 1.141 1.695 0.422 2.070h-2.656q0-0.547-0.211-1.031t-0.578-0.852-0.852-0.578-1.031-0.211h-8q-0.547 0-1.039 0.211t-0.852 0.578-0.57 0.852-0.211 1.031v8q0 0.547 0.211 1.039t0.57 0.852 0.852 0.57 1.039 0.211h8.234q0.203-0.594 0.586-1.086t0.875-0.844 1.078-0.547 1.227-0.195q0.828 0 1.555 0.313t1.273 0.859 0.859 1.273 0.313 1.555-0.313 1.555-0.859 1.273-1.273 0.859-1.555 0.313zM29.328 16v8q0 1.109-0.422 2.078t-1.141 1.688-1.695 1.141-2.070 0.422h-8q-1.109 0-2.078-0.422t-1.688-1.141-1.141-1.688-0.422-2.078h2.656q0 0.547 0.211 1.039t0.57 0.852 0.852 0.57 1.039 0.211h8q0.547 0 1.031-0.211t0.852-0.57 0.578-0.852 0.211-1.039v-8q0-0.547-0.211-1.031t-0.578-0.852-0.852-0.578-1.031-0.211h-8.234q-0.219 0.594-0.594 1.086t-0.867 0.844-1.086 0.547-1.219 0.195q-0.828 0-1.555-0.313t-1.273-0.859-0.859-1.273-0.313-1.555 0.313-1.555 0.859-1.273 1.273-0.859 1.555-0.313q0.625 0 1.219 0.195t1.086 0.547 0.867 0.844 0.594 1.086h8.234q1.094 0 2.070 0.422t1.695 1.141 1.141 1.695 0.422 2.070z"></path>
</svg>
