<!-- Generated by IcoMoon.io -->
<svg version="1.1" xmlns="http://www.w3.org/2000/svg" width="32" height="32" viewBox="0 0 32 32">
<title>uniF434</title>
<path d="M21 19h7v7h-7v-7zM23 24h3v-3h-3v3zM24.5 14q-0.938 0-1.758-0.352t-1.43-0.961-0.961-1.43-0.352-1.758 0.352-1.758 0.961-1.43 1.43-0.961 1.758-0.352 1.758 0.352 1.43 0.961 0.961 1.43 0.352 1.758-0.352 1.758-0.961 1.43-1.43 0.961-1.758 0.352zM24.5 7q-0.516 0-0.969 0.195t-0.797 0.539-0.539 0.797-0.195 0.969 0.195 0.969 0.539 0.797 0.797 0.539 0.969 0.195 0.969-0.195 0.797-0.539 0.539-0.797 0.195-0.969-0.195-0.969-0.539-0.797-0.797-0.539-0.969-0.195zM30.672 2q0.547 0 0.938 0.391t0.391 0.938v25.344q0 0.547-0.391 0.938t-0.938 0.391h-21.344q-0.547 0-0.938-0.391t-0.391-0.938v-4.672h-6.672q-0.547 0-0.938-0.391t-0.391-0.938v-13.344q0-0.547 0.391-0.938t0.938-0.391h6.672v-4.672q0-0.547 0.391-0.938t0.938-0.391h21.344zM10 8h4.672q0.547 0 0.938 0.391t0.391 0.938v5.672h14v-11h-20v4zM11.25 17.219v-2.125h-4.047v-2.219h4.344v-2.125h-6.797v10.5h2.453v-4.031h4.047zM30 28v-11h-14v5.672q0 0.547-0.391 0.938t-0.938 0.391h-4.672v4h20z"></path>
</svg>
