<!-- Generated by IcoMoon.io -->
<svg version="1.1" xmlns="http://www.w3.org/2000/svg" width="32" height="32" viewBox="0 0 32 32">
<title>uniED7A</title>
<path d="M1 4.109l18-3.234v30.25l-18-3.141v-23.875zM7.641 10.25h-2.469l3.438 11.859h2.563l2.969-12.094h-2.469q-0.453 2.188-0.891 4.359t-0.922 4.359q-0.547-2.156-1.102-4.281t-1.117-4.281v0.078zM23.5 21q-1.031 0-1.938-0.453t-1.563-1.25v-5.594q0.656-0.797 1.563-1.25t1.938-0.453q0.938 0 1.758 0.352t1.43 0.961 0.961 1.43 0.352 1.758-0.352 1.758-0.961 1.43-1.43 0.961-1.758 0.352zM22 18.797l3.75-2.297-3.75-2.297v4.594zM30 8q0.422 0 0.781 0.156t0.633 0.43 0.43 0.633 0.156 0.781v13q0 0.422-0.156 0.781t-0.43 0.633-0.633 0.43-0.781 0.156h-10v-2h10v-13h-10v-2h10z"></path>
</svg>
