<!-- Generated by IcoMoon.io -->
<svg version="1.1" xmlns="http://www.w3.org/2000/svg" width="32" height="32" viewBox="0 0 32 32">
<title>uniEB6E</title>
<path d="M28 6.328v19.344q0 1.016-0.594 1.805t-1.578 1.070l-8.672 2.484q-0.172 0.047-0.367 0.070t-0.367 0.023q-0.5 0-0.906-0.133t-0.828-0.367l-5.672-3.203q-0.313-0.172-0.492-0.461t-0.18-0.648q0-0.547 0.383-0.93t0.93-0.383h7.344v-17.844l-5.516 1.969q-0.672 0.234-1.078 0.828t-0.406 1.297v10.172q0 0.625-0.313 1.148t-0.859 0.82l-2.609 1.422q-0.359 0.188-0.719 0.188-0.625 0-1.063-0.438t-0.438-1.063v-14.328q0-0.781 0.414-1.5t1.102-1.109l9.313-5.297q0.313-0.172 0.672-0.266t0.719-0.094q0.266 0 0.477 0.039t0.461 0.117l8.672 2.391q0.484 0.141 0.883 0.414t0.688 0.656 0.445 0.844 0.156 0.961zM26 25.672v-19.344q0-0.344-0.203-0.602t-0.531-0.352l-4.266-1.172q-0.5-0.141-1-0.289t-1-0.273v24.781l6.266-1.797q0.328-0.094 0.531-0.352t0.203-0.602z"></path>
</svg>
