<!-- Generated by IcoMoon.io -->
<svg version="1.1" xmlns="http://www.w3.org/2000/svg" width="32" height="32" viewBox="0 0 32 32">
<title>uniF433</title>
<path d="M30 0q0.406 0 0.773 0.156t0.641 0.43 0.43 0.641 0.156 0.773v28q0 0.422-0.156 0.781t-0.43 0.633-0.633 0.43-0.781 0.156h-22q-0.406 0-0.773-0.156t-0.641-0.43-0.43-0.641-0.156-0.773v-4h-4q-0.406 0-0.773-0.156t-0.641-0.43-0.43-0.641-0.156-0.773v-16q0-0.406 0.156-0.773t0.43-0.641 0.641-0.43 0.773-0.156h4v-4q0-0.422 0.156-0.781t0.43-0.633 0.633-0.43 0.781-0.156h22zM8 2v4h10q0.219 0 0.438 0.055t0.422 0.133q0.703-1.031 1.797-1.609t2.344-0.578q1.031 0 1.945 0.391t1.594 1.070 1.070 1.594 0.391 1.945-0.391 1.945-1.070 1.594-1.594 1.070-1.945 0.391q-0.813 0-1.578-0.258t-1.422-0.742v3h10v-14h-22zM23 6q-0.625 0-1.172 0.234t-0.953 0.641-0.641 0.953-0.234 1.172 0.234 1.172 0.641 0.953 0.953 0.641 1.172 0.234 1.172-0.234 0.953-0.641 0.641-0.953 0.234-1.172-0.234-1.172-0.641-0.953-0.953-0.641-1.172-0.234zM6.125 22.5h3.359v-4.844h4.844v-2.938h-4.844v-2.266h5.188v-2.953h-8.547v13zM8 30h22v-12h-10v2h8v8h-8v-4q0 0.406-0.156 0.773t-0.43 0.641-0.641 0.43-0.773 0.156h-10v4zM22 26h4v-4h-4v4z"></path>
</svg>
