<!-- Generated by IcoMoon.io -->
<svg version="1.1" xmlns="http://www.w3.org/2000/svg" width="32" height="32" viewBox="0 0 32 32">
<title>uniEDCF</title>
<path d="M24 8h8v21q0 0.625-0.234 1.172t-0.641 0.953-0.953 0.641-1.172 0.234h-26q-0.625 0-1.172-0.234t-0.953-0.641-0.641-0.953-0.234-1.172v-21h8q0-1.656 0.625-3.117t1.711-2.547 2.547-1.711 3.117-0.625 3.117 0.625 2.547 1.711 1.711 2.547 0.625 3.117zM16 2q-1.25 0-2.336 0.469t-1.906 1.289-1.289 1.914-0.469 2.328h12q0-1.234-0.469-2.328t-1.289-1.914-1.914-1.289-2.328-0.469zM30 29v-19h-28v19q0 0.406 0.297 0.703t0.703 0.297h26q0.406 0 0.703-0.297t0.297-0.703z"></path>
</svg>
