<!-- Generated by IcoMoon.io -->
<svg version="1.1" xmlns="http://www.w3.org/2000/svg" width="32" height="32" viewBox="0 0 32 32">
<title>uniF43B</title>
<path d="M21.328 26.672v-8h8v8h-8zM22.672 20v5.328h5.328v-5.328h-5.328zM24.672 13.328q-0.969 0-1.82-0.367t-1.484-1-1-1.477-0.367-1.813 0.367-1.82 1-1.484 1.484-1 1.82-0.367 1.813 0.367 1.477 1 1 1.484 0.367 1.82-0.367 1.813-1 1.477-1.477 1-1.813 0.367zM24.672 5.328q-0.688 0-1.297 0.266t-1.063 0.719-0.719 1.063-0.266 1.297 0.266 1.289 0.719 1.055 1.063 0.719 1.297 0.266 1.289-0.266 1.055-0.719 0.719-1.055 0.266-1.289-0.266-1.297-0.719-1.063-1.055-0.719-1.289-0.266zM30.672 1.328q0.281 0 0.523 0.109t0.422 0.289 0.281 0.422 0.102 0.523v26.656q0 0.281-0.102 0.523t-0.281 0.422-0.422 0.289-0.523 0.109h-21.344q-0.281 0-0.523-0.109t-0.422-0.289-0.281-0.422-0.102-0.523v-4h-6.438q-0.656 0-1.109-0.445t-0.453-1.102v-15.563q0-0.656 0.453-1.102t1.109-0.445h6.438v-4q0-0.281 0.102-0.523t0.281-0.422 0.422-0.289 0.523-0.109h21.344zM9.328 2.672v4h7.781q0.656 0 1.109 0.445t0.453 1.102v6.453h12v-12h-21.344zM7.75 17.359h4.313v-2.391h-4.313v-2.234h4.625v-2.406h-7.375v11.344h2.75v-4.313zM9.328 29.328h21.344v-13.328h-12v7.781q0 0.656-0.453 1.102t-1.109 0.445h-7.781v4z"></path>
</svg>
