<!-- Generated by IcoMoon.io -->
<svg version="1.1" xmlns="http://www.w3.org/2000/svg" width="32" height="32" viewBox="0 0 32 32">
<title>uniF34E</title>
<path d="M15 12q-1.078 0-2.148-0.094t-2.133-0.297q-0.531-0.109-1.242-0.289t-1.453-0.461-1.469-0.656-1.289-0.852-0.914-1.063-0.352-1.289 0.352-1.289 0.914-1.063 1.289-0.852 1.469-0.656 1.453-0.461 1.242-0.289q1.063-0.203 2.133-0.297t2.148-0.094 2.148 0.094 2.133 0.297q0.531 0.109 1.242 0.289t1.453 0.461 1.469 0.656 1.289 0.852 0.914 1.063 0.352 1.289-0.352 1.289-0.914 1.063-1.289 0.852-1.469 0.656-1.453 0.469-1.242 0.281q-1.063 0.203-2.133 0.297t-2.148 0.094zM15 14q0.703 0 1.57-0.047t1.797-0.156 1.875-0.289 1.828-0.445 1.648-0.625 1.344-0.828q0.203-0.172 0.336-0.336t0.305-0.352q0.031-0.031 0.141-0.102t0.156-0.102v2.281q0 0.719-0.359 1.305t-0.945 1.070-1.328 0.859-1.5 0.656-1.484 0.469-1.258 0.281q-1.031 0.188-2.063 0.273t-2.063 0.086-2.063-0.086-2.063-0.273q-0.531-0.094-1.258-0.281t-1.484-0.469-1.5-0.656-1.328-0.859-0.945-1.070-0.359-1.305v-2.281q0.047 0.031 0.156 0.102t0.141 0.102q0.172 0.188 0.305 0.352t0.336 0.336q0.563 0.469 1.336 0.828t1.656 0.625 1.828 0.445 1.875 0.289 1.789 0.156 1.578 0.047zM15 20q0.703 0 1.57-0.047t1.797-0.156 1.875-0.289 1.828-0.445 1.648-0.625 1.344-0.828q0.203-0.172 0.336-0.336t0.305-0.352q0.031-0.031 0.141-0.102t0.156-0.102v2.281q0 0.719-0.359 1.305t-0.945 1.070-1.328 0.859-1.5 0.656-1.484 0.469-1.258 0.281q-1.031 0.188-2.063 0.273t-2.063 0.086-2.063-0.086-2.063-0.273q-0.531-0.109-1.258-0.289t-1.484-0.461-1.5-0.656-1.328-0.859-0.945-1.070-0.359-1.305v-2.281q0.047 0.031 0.156 0.102t0.141 0.102q0.172 0.188 0.305 0.352t0.336 0.336q0.563 0.469 1.336 0.828t1.656 0.625 1.828 0.445 1.875 0.289 1.789 0.156 1.578 0.047zM15 26q0.703 0 1.57-0.047t1.797-0.156 1.875-0.289 1.828-0.445 1.648-0.625 1.344-0.828q0.203-0.172 0.336-0.336t0.305-0.352q0.031-0.031 0.141-0.102t0.156-0.102v2.281q0 0.719-0.359 1.305t-0.945 1.070-1.328 0.859-1.5 0.656-1.484 0.469-1.258 0.281q-1.031 0.188-2.063 0.273t-2.063 0.086-2.063-0.086-2.063-0.273q-0.531-0.094-1.258-0.281t-1.484-0.469-1.5-0.656-1.328-0.859-0.945-1.070-0.359-1.305v-2.281q0.047 0.031 0.156 0.102t0.141 0.102q0.172 0.188 0.305 0.352t0.336 0.336q0.563 0.469 1.336 0.828t1.656 0.625 1.828 0.445 1.875 0.289 1.789 0.156 1.578 0.047z"></path>
</svg>
