<!-- Generated by IcoMoon.io -->
<svg version="1.1" xmlns="http://www.w3.org/2000/svg" width="32" height="32" viewBox="0 0 32 32">
<title>uniEEC9</title>
<path d="M15 22.203q0.984 0 1.859 0.375t1.531 1.031 1.031 1.531 0.375 1.859-0.375 1.859-1.031 1.531-1.531 1.031-1.859 0.375-1.859-0.375-1.531-1.031-1.031-1.531-0.375-1.859 0.375-1.859 1.031-1.531 1.531-1.031 1.859-0.375zM15 30.203q0.656 0 1.242-0.25t1.023-0.688 0.688-1.023 0.25-1.242-0.25-1.242-0.688-1.023-1.023-0.688-1.242-0.25-1.242 0.25-1.023 0.688-0.688 1.023-0.25 1.242 0.25 1.242 0.688 1.023 1.023 0.688 1.242 0.25zM31.703 26.297l-1.406 1.406-26-26 1.406-1.406 1.766 1.75q1.719-1 3.625-1.523t3.906-0.523q2.063 0 3.977 0.539t3.586 1.516 3.039 2.344 2.344 3.039 1.516 3.586 0.539 3.977v0.484l-5.063 4.047zM27.859 14.625q-1.406-0.547-2.875-0.828t-2.984-0.281q-0.719 0-1.422 0.063t-1.406 0.188l4.344 4.344zM15 2q-1.594 0-3.125 0.383t-2.938 1.133l8.563 8.578q1.109-0.281 2.227-0.43t2.258-0.148q1.469 0 2.914 0.242t2.836 0.711q-0.453-2.266-1.625-4.188t-2.867-3.32-3.813-2.18-4.43-0.781zM10.703 21.484q-0.406 0.313-0.75 0.68t-0.641 0.773l-9.313-7.453q0-3.109 0.984-5.82t3.156-4.992l1.422 1.422q-1.25 1.328-2.094 2.945t-1.203 3.414q1.375-0.453 2.805-0.695t2.898-0.242q0.844 0 1.664 0.078t1.648 0.234l4.719 4.703v3.297q-0.25-0.031-0.5-0.055t-0.5-0.023-0.5 0.023-0.5 0.055v-5.141q-2.891-1.188-6.016-1.188-1.516 0-2.977 0.289t-2.867 0.836zM20.219 20.75l1.422 1.422-0.953 0.766q-0.297-0.406-0.641-0.773t-0.75-0.68z"></path>
</svg>
