<!-- Generated by IcoMoon.io -->
<svg version="1.1" xmlns="http://www.w3.org/2000/svg" width="32" height="32" viewBox="0 0 32 32">
<title>uniEEC8</title>
<path d="M15 22q1.031 0 1.938 0.398t1.586 1.078 1.078 1.586 0.398 1.938-0.398 1.945-1.078 1.594-1.586 1.070-1.938 0.391-1.945-0.391-1.594-1.070-1.070-1.594-0.391-1.945 0.391-1.938 1.070-1.586 1.594-1.078 1.945-0.398zM15 30q0.625 0 1.172-0.234t0.953-0.641 0.641-0.953 0.234-1.172-0.234-1.172-0.641-0.953-0.953-0.641-1.172-0.234-1.172 0.234-0.953 0.641-0.641 0.953-0.234 1.172 0.234 1.172 0.641 0.953 0.953 0.641 1.172 0.234zM15 0q2.063 0 3.977 0.539t3.586 1.516 3.039 2.344 2.344 3.039 1.516 3.586 0.539 3.977v0.484l-9.313 7.453q-0.297-0.406-0.641-0.773t-0.75-0.68l8.563-6.859q-1.406-0.547-2.883-0.836t-2.992-0.289q-1.547 0-3.055 0.297t-2.93 0.875v5.406q-0.25-0.031-0.5-0.055t-0.5-0.023-0.5 0.023-0.5 0.055v-5.391q-2.891-1.188-6.016-1.188-1.516 0-2.977 0.289t-2.867 0.836l8.563 6.859q-0.406 0.313-0.75 0.68t-0.641 0.773l-9.313-7.453v-0.484q0-2.063 0.539-3.977t1.516-3.586 2.344-3.039 3.039-2.344 3.586-1.516 3.977-0.539zM15.125 12.875q1.672-0.656 3.352-1.016t3.477-0.359q2.969 0 5.781 0.969-0.453-2.266-1.625-4.188t-2.867-3.32-3.813-2.18-4.43-0.781q-2.328 0-4.438 0.781t-3.805 2.172-2.867 3.313-1.625 4.188q2.828-0.953 5.766-0.953 0.859 0 1.758 0.086t1.797 0.266 1.766 0.445 1.648 0.625z"></path>
</svg>
