<!-- Generated by IcoMoon.io -->
<svg version="1.1" xmlns="http://www.w3.org/2000/svg" width="32" height="32" viewBox="0 0 32 32">
<title>uniF3BA</title>
<path d="M32 8v24h-32v-24h8.078q-0.031-0.25-0.055-0.5t-0.023-0.5q0-1.453 0.547-2.727t1.5-2.227 2.227-1.5 2.727-0.547 2.727 0.547 2.227 1.5 1.5 2.227 0.547 2.727q0 0.25-0.023 0.5t-0.055 0.5h10.078zM15 2q-1.031 0-1.945 0.398t-1.594 1.078-1.070 1.586-0.391 1.938 0.391 1.945 1.070 1.594 1.594 1.070 1.945 0.391 1.938-0.391 1.586-1.070 1.078-1.594 0.398-1.945-0.398-1.938-1.078-1.586-1.586-1.078-1.938-0.398zM30 10h-8.672q-0.391 0.813-0.969 1.516t-1.328 1.203q1.609 0.625 2.906 1.664t2.195 2.375 1.383 2.93 0.484 3.313v1h-2v-1q0-1.922-0.688-3.57t-1.891-2.852-2.852-1.891-3.57-0.688q-1.734 0-3.289 0.602t-2.75 1.664-1.961 2.531-0.953 3.203h10.125l-3.594-3.594 1.422-1.406 6 6-6 6-1.422-1.406 3.594-3.594h-12.172v-1q0-1.719 0.492-3.305t1.398-2.922 2.203-2.375 2.891-1.664q-1.531-1.078-2.313-2.734h-6.672v20h28v-20z"></path>
</svg>
