<!-- Generated by IcoMoon.io -->
<svg version="1.1" xmlns="http://www.w3.org/2000/svg" width="32" height="32" viewBox="0 0 32 32">
<title>uniEF32</title>
<path d="M20 22h6v2h-6v6h-2v-6h-6v-2h6v-6h2v6zM29.344 14.547q1.328 0.656 1.992 1.836t0.664 2.648q0 0.875-0.297 1.695t-0.828 1.492-1.266 1.133-1.609 0.602v-2.063q0.438-0.141 0.813-0.43t0.633-0.68 0.406-0.844 0.148-0.906q0-0.563-0.172-1.086t-0.5-0.93-0.805-0.664-1.070-0.305q0.047-0.906-0.195-1.695t-0.75-1.375-1.242-0.93-1.672-0.344q-0.484 0-1.063 0.125t-1 0.375q-0.703-1.031-1.711-1.617t-2.273-0.586q-0.344 0-0.688 0.039t-0.672 0.117q-0.766 0.188-1.391 0.609t-1.094 1.016-0.742 1.313-0.336 1.484q-0.75 0.031-1.43 0.273t-1.188 0.688-0.813 1.078-0.305 1.43q0 0.828 0.25 1.617t0.859 1.383v2.375q-0.531-0.25-0.992-0.609t-0.82-0.813h-2.516q-1.141 0-2.164-0.469t-1.805-1.25-1.242-1.82-0.461-2.164q0-1.797 0.852-3.211t2.523-2.148q0.188-1.219 0.758-2.258t1.438-1.797 1.961-1.195 2.344-0.438q0.375 0 0.75 0.039t0.734 0.133q1.109-1.25 2.602-1.961t3.164-0.711q0.766 0 1.508 0.148t1.445 0.43q2.203 0.875 3.453 2.563t1.609 3.969l0.016 0.047q0.844 0.203 1.547 0.641t1.242 1.047 0.898 1.359 0.5 1.594zM23.109 9.734q-0.203-1.078-0.75-1.992t-1.344-1.578-1.797-1.039-2.094-0.375q-0.797 0-1.539 0.219t-1.391 0.625-1.18 0.977-0.922 1.258q-0.453-0.281-1.078-0.43t-1.141-0.148q-0.969 0-1.805 0.375t-1.453 1.023-0.969 1.5-0.352 1.805q0 0.125 0.008 0.258t0.023 0.258q-0.766 0.063-1.383 0.391t-1.047 0.844-0.664 1.18-0.234 1.414q0 0.734 0.305 1.398t0.805 1.18 1.164 0.82 1.398 0.305h1.484q-0.156-0.469-0.211-0.961t-0.055-0.992q0-0.984 0.289-1.82t0.82-1.492 1.281-1.133 1.672-0.758q0.359-1.141 0.984-2.039t1.469-1.523 1.891-0.953 2.25-0.328q1.328 0 2.5 0.469t2.125 1.391z"></path>
</svg>
