<!-- Generated by IcoMoon.io -->
<svg version="1.1" xmlns="http://www.w3.org/2000/svg" width="32" height="32" viewBox="0 0 32 32">
<title>uniF53B</title>
<path d="M32 4v24h-32v-20h13l4-4h15zM10.094 22q-0.109-0.484-0.109-1.047 0-1.438 0.836-2.344t2.195-1.219q0.453-1.719 1.641-2.672t3-0.953q0.984 0 1.852 0.375t1.539 1.109q0.234-0.063 0.469-0.102t0.469-0.055q0.016-0.156 0.016-0.297v-0.297q0-0.203-0.063-0.438t-0.141-0.406q-0.328-1-1.008-1.734t-1.664-1.125q-0.797-0.328-1.688-0.328-1.219 0-2.219 0.641t-1.578 1.688q-0.344-0.219-0.813-0.328t-0.859-0.109q-0.734 0-1.367 0.289t-1.102 0.773-0.734 1.141-0.266 1.375v0.172t0.016 0.188q-0.578 0.047-1.047 0.289t-0.797 0.641-0.5 0.906-0.172 1.070q0 0.547 0.227 1.055t0.609 0.891 0.891 0.617 1.055 0.234h1.313zM25.156 24q0.438 0 0.82-0.195t0.664-0.516 0.438-0.734 0.156-0.836q0-0.438-0.133-0.844t-0.383-0.719-0.609-0.508-0.828-0.227v-0.219q0-0.656-0.203-1.227t-0.586-0.992-0.938-0.664-1.242-0.242q-0.375 0-0.82 0.094t-0.773 0.281q-0.531-0.797-1.297-1.242t-1.75-0.445q-0.781 0-1.453 0.258t-1.172 0.719-0.813 1.109-0.375 1.43q-0.578 0.016-1.102 0.203t-0.914 0.531-0.625 0.836-0.234 1.102q0 1.422 0.773 2.234t2.211 0.813h11.188z"></path>
</svg>
