<!-- Generated by IcoMoon.io -->
<svg version="1.1" xmlns="http://www.w3.org/2000/svg" width="32" height="32" viewBox="0 0 32 32">
<title>uniE941</title>
<path d="M25.938 13.016q1.281 0.078 2.383 0.625t1.922 1.422 1.289 2.016 0.469 2.422q0 1.344-0.516 2.523t-1.398 2.063-2.063 1.398-2.523 0.516h-17.5q-1.656 0-3.109-0.633t-2.539-1.719-1.719-2.539-0.633-3.109q0-1.313 0.414-2.516t1.148-2.211 1.766-1.766 2.281-1.148q0.578-0.172 1.133-0.25t1.148-0.109h0.016q0.688-1.047 1.609-1.883t2-1.422 2.273-0.891 2.461-0.305q1.703 0 3.273 0.555t2.859 1.547 2.211 2.375 1.344 3.039zM16.25 7.5q-1.766 0-3.359 0.727t-2.719 2.086q0.594 0.156 1.133 0.398t1.055 0.555l6.375 3.813 3.641-1.531q0.359-0.156 0.727-0.273t0.773-0.195q-0.391-1.25-1.141-2.273t-1.758-1.758-2.211-1.141-2.516-0.406zM3.219 21.609l13.219-5.578-5.109-3.063q-0.781-0.469-1.641-0.719t-1.766-0.25q-1.219 0-2.297 0.484t-1.883 1.305-1.273 1.914-0.469 2.297q0 0.938 0.313 1.898t0.906 1.711zM25.5 24q0.75 0 1.438-0.234t1.281-0.688l-9.641-5.766-13.734 5.781q0.703 0.438 1.508 0.672t1.648 0.234h17.5zM29.516 21.531q0.484-0.969 0.484-2.031 0-1.031-0.391-1.875t-1.055-1.43-1.555-0.906-1.875-0.32q-0.563 0-1.117 0.133t-1.086 0.336-1.047 0.445-1.016 0.461z"></path>
</svg>
