<!-- Generated by IcoMoon.io -->
<svg version="1.1" xmlns="http://www.w3.org/2000/svg" width="32" height="32" viewBox="0 0 32 32">
<title>uniEDD0</title>
<path d="M29.5 13q0.219 0 0.359 0.141t0.141 0.359v4q0 0.219-0.141 0.359t-0.359 0.141h-0.5v-5h0.5zM29.5 19q0.219 0 0.359 0.141t0.141 0.359v4q0 0.219-0.141 0.359t-0.359 0.141h-0.5v-5h0.5zM29.5 7q0.219 0 0.359 0.141t0.141 0.359v4q0 0.219-0.141 0.359t-0.359 0.141h-1.5v14.25q0 0.313-0.219 0.531t-0.531 0.219h-8.25v-3h6v-1h-6v-2h6v-1h-6v-7.047l3.75 1.359 2.484-1v2.156q0 0.109 0.078 0.18t0.188 0.070 0.188-0.070 0.078-0.18v-2.344l1-0.438-4.031-1.797-3.734 1.469v-7.359h8.25q0.313 0 0.531 0.219t0.219 0.531v1.25h1.5zM22.703 16.75q0.25 0 0.539-0.023t0.555-0.102 0.5-0.219 0.391-0.375l-0.016-1.922q-0.078 0.031-0.375 0.148t-0.625 0.25-0.602 0.234-0.32 0.102q-0.609-0.188-1.211-0.414t-1.195-0.445q-0.016 0.406-0.023 0.828t-0.008 0.828q0 0.328 0.289 0.539t0.68 0.336 0.797 0.18 0.625 0.055zM2 4.797l16-2.703v27.813l-16-2.703v-22.406zM6.453 20.969l1.594 0.078v-7.5l4.234 7.734 2.125 0.125v-11.094l-1.984 0.125v5.484q0 0.484-0.016 0.977t0.016 0.977l-3.938-7.203-2.031 0.078v10.219z"></path>
</svg>
