<!-- Generated by IcoMoon.io -->
<svg version="1.1" xmlns="http://www.w3.org/2000/svg" width="32" height="32" viewBox="0 0 32 32">
<title>uniF39A</title>
<path d="M30 0q0.406 0 0.773 0.156t0.641 0.43 0.43 0.641 0.156 0.773v28q0 0.406-0.156 0.773t-0.43 0.641-0.641 0.43-0.773 0.156h-22q-0.406 0-0.773-0.156t-0.641-0.43-0.43-0.641-0.156-0.773v-4h-4q-0.406 0-0.773-0.156t-0.641-0.43-0.43-0.641-0.156-0.773v-16q0-0.406 0.156-0.773t0.43-0.641 0.641-0.43 0.773-0.156h4v-4q0-0.406 0.156-0.773t0.43-0.641 0.641-0.43 0.773-0.156h22zM7.063 14.688l6.125 7.813h3.203v-13h-3.234v7.625l-5.969-7.625h-3.375v13h3.25v-7.813zM30 30v-6h-6v6h6zM30 22v-6h-6v6h6zM30 14v-6h-6v6h6zM30 6v-4h-22v4h10q0.406 0 0.773 0.156t0.641 0.43 0.43 0.641 0.156 0.773v16q0 0.406-0.156 0.773t-0.43 0.641-0.641 0.43-0.773 0.156h-10v4h14v-24h8z"></path>
</svg>
