<!-- Generated by IcoMoon.io -->
<svg version="1.1" xmlns="http://www.w3.org/2000/svg" width="32" height="32" viewBox="0 0 32 32">
<title>uniF04F</title>
<path d="M32 6v6q0 0.422-0.156 0.781t-0.43 0.633-0.633 0.43-0.781 0.156h-2v16q0 0.422-0.156 0.781t-0.43 0.633-0.633 0.43-0.781 0.156h-18q-0.422 0-0.781-0.156t-0.633-0.43-0.43-0.633-0.156-0.781v-4h-4.203q-0.375 0-0.695-0.141t-0.57-0.391-0.391-0.57-0.141-0.695v-14.406q0-0.375 0.141-0.695t0.391-0.57 0.57-0.391 0.695-0.141h4.203v-6q0-0.422 0.156-0.781t0.43-0.633 0.633-0.43 0.781-0.156h18q0.422 0 0.781 0.156t0.633 0.43 0.43 0.633 0.156 0.781v2h2q0.422 0 0.781 0.156t0.633 0.43 0.43 0.633 0.156 0.781zM3.75 11.344v11.313h2.438v-7.391l0.375 0.5t0.688 0.898 0.891 1.164 0.977 1.289 0.961 1.266 0.836 1.109 0.594 0.805 0.242 0.359h2.5v-11.313h-2.438q0 1.813 0.008 3.617t0.008 3.617l-5.438-7.234h-2.641zM30 12v-6h-4v-4h-18v6h8.203q0.375 0 0.695 0.141t0.57 0.391 0.391 0.57 0.141 0.695v14.406q0 0.375-0.141 0.695t-0.391 0.57-0.57 0.391-0.695 0.141h-8.203v4h18v-18h4z"></path>
</svg>
