<!-- Generated by IcoMoon.io -->
<svg version="1.1" xmlns="http://www.w3.org/2000/svg" width="32" height="32" viewBox="0 0 32 32">
<title>uniEC0D</title>
<path d="M30.672 2q0.547 0 0.938 0.391t0.391 0.938v25.344q0 0.547-0.391 0.938t-0.938 0.391h-21.344q-0.547 0-0.938-0.391t-0.391-0.938v-4.672h-6.672q-0.547 0-0.938-0.391t-0.391-0.938v-13.344q0-0.547 0.391-0.938t0.938-0.391h6.672v-4.672q0-0.547 0.391-0.938t0.938-0.391h21.344zM6.078 14.672l3.781 6.563h2.375v-10.469h-2.313v6.703l-3.641-6.703h-2.516v10.469h2.313v-6.563zM30 28v-4h-4v4h4zM30 22v-4h-4v4h4zM30 16v-4h-4v4h4zM30 10v-6h-20v4h4.672q0.547 0 0.938 0.391t0.391 0.938v13.344q0 0.547-0.391 0.938t-0.938 0.391h-4.672v4h14v-18h6z"></path>
</svg>
