<!-- Generated by IcoMoon.io -->
<svg version="1.1" xmlns="http://www.w3.org/2000/svg" width="32" height="32" viewBox="0 0 32 32">
<title>uniE4CB</title>
<path d="M16 12v2h-6v-2h6zM10 18v-2h6v2h-6zM16 8v2h-6v-2h6zM26 10h-8v-8h-14v28h14v2h-16v-32h17.422l8.578 8.578v5.266q-0.484-0.156-0.984-0.25t-1.016-0.094v-3.5zM20 3.422v4.578h4.578zM30 22h2v10h-12v-10h2v-2q0-0.828 0.313-1.555t0.859-1.273 1.273-0.859 1.555-0.313 1.555 0.313 1.273 0.859 0.859 1.273 0.313 1.555v2zM24 20v2h4v-2q0-0.422-0.156-0.781t-0.43-0.633-0.633-0.43-0.781-0.156-0.781 0.156-0.633 0.43-0.43 0.633-0.156 0.781zM30 30v-6h-8v6h8zM8 12v2h-2v-2h2zM8 8v2h-2v-2h2zM6 18v-2h2v2h-2z"></path>
</svg>
