<!-- Generated by IcoMoon.io -->
<svg version="1.1" xmlns="http://www.w3.org/2000/svg" width="32" height="32" viewBox="0 0 32 32">
<title>uniE8B4</title>
<path d="M22 26h-22v-14h22v14zM20 14h-18v10h18v-10zM2 10h-2v-2h2v2zM2 6h-2v-2h2v2zM2 2h-2v-2h2v2zM14 2h-2v-2h2v2zM6 2h-2v-2h2v2zM10 2h-2v-2h2v2zM14 6h-2v-2h2v2zM14 10h-2v-2h2v2zM25.422 2q1.594 1.594 2.82 3.086t2.063 3.125 1.266 3.523 0.43 4.266q0 2.203-0.57 4.25t-1.609 3.828-2.5 3.242-3.242 2.5-3.828 1.609-4.25 0.57v-2q1.922 0 3.711-0.5t3.344-1.414 2.836-2.195 2.195-2.836 1.414-3.344 0.5-3.711q0-2.078-0.398-3.781t-1.156-3.188-1.875-2.844-2.57-2.766v4.578h-2v-8h8v2h-4.578z"></path>
</svg>
