<!-- Generated by IcoMoon.io -->
<svg version="1.1" xmlns="http://www.w3.org/2000/svg" width="32" height="32" viewBox="0 0 32 32">
<title>uniF7E1</title>
<path d="M24 12v2h-2v-2h2zM24 0v2h-2v-2h2zM28 0v2h-2v-2h2zM28 12v2h-2v-2h2zM30 6v-2h2v2h-2zM30 10v-2h2v2h-2zM20 0v22h-14v-22h14zM18 20v-18h-10v18h10zM30 0h2v2h-2v-2zM30 14v-2h2v2h-2zM24 24v-2h8v8h-2v-4.578q-1.609 1.609-3.117 2.836t-3.141 2.063-3.508 1.258-4.234 0.422q-2.219 0-4.266-0.57t-3.82-1.609-3.234-2.5-2.5-3.234-1.609-3.82-0.57-4.266h2q0 1.938 0.5 3.719t1.414 3.336 2.195 2.836 2.836 2.195 3.344 1.414 3.711 0.5q2.063 0 3.766-0.398t3.195-1.164 2.852-1.883 2.766-2.555h-4.578z"></path>
</svg>
