<!-- Generated by IcoMoon.io -->
<svg version="1.1" xmlns="http://www.w3.org/2000/svg" width="32" height="32" viewBox="0 0 32 32">
<title>uniEB6D</title>
<path d="M10.5 16.047q0 0.609-0.141 1.164t-0.438 0.992-0.781 0.695-1.156 0.258q-0.656 0-1.125-0.273t-0.766-0.719-0.438-1.008-0.141-1.141q0-0.594 0.141-1.164t0.445-1.016 0.789-0.719 1.156-0.273q0.688 0 1.156 0.281t0.758 0.734 0.414 1.023 0.125 1.164zM32 16v12.5q0 0.625-0.438 1.063t-1.063 0.438h-21q-0.625 0-1.063-0.438t-0.438-1.063v-4.5h-6.672q-0.547 0-0.938-0.391t-0.391-0.938v-13.344q0-0.547 0.391-0.938t0.938-0.391h8.672v-4.594q0-0.594 0.406-1t1-0.406h17.188q0.594 0 1 0.406t0.406 1v11.063l1.656 0.953h0.016q0.141 0.094 0.234 0.25t0.094 0.328zM24 5v4h4v-4h-4zM24 11v4h4v-4h-4zM24 17v2.438l4.063-2.438h-4.063zM17 5v4h5v-4h-5zM17 11v4h5v-4h-5zM17 17v2.703l3.219 2 1.781-1.063v-3.641h-5zM12 5v3h2.672q0.078 0 0.164 0.016t0.164 0.047v-3.063h-3zM7.969 21.313q1.203 0 2.141-0.414t1.578-1.141 0.977-1.711 0.336-2.141q0-1.109-0.328-2.063t-0.953-1.656-1.531-1.102-2.063-0.398q-1.234 0-2.188 0.398t-1.609 1.125-0.992 1.727-0.336 2.188q0 1.125 0.344 2.078t0.984 1.641 1.563 1.078 2.078 0.391zM10 28h16.516l-10.516-6.563v1.234q0 0.547-0.391 0.938t-0.938 0.391h-4.672v4zM30 27.828v-9.656l-7.875 4.719z"></path>
</svg>
