<!-- Generated by IcoMoon.io -->
<svg version="1.1" xmlns="http://www.w3.org/2000/svg" width="32" height="32" viewBox="0 0 32 32">
<title>uniF39C</title>
<path d="M32 15.703v14.516q0 0.375-0.141 0.695t-0.383 0.563-0.563 0.383-0.695 0.141h-24.438q-0.375 0-0.695-0.141t-0.563-0.383-0.383-0.563-0.141-0.695v-4.219h-2q-0.406 0-0.773-0.156t-0.641-0.43-0.43-0.641-0.156-0.773v-16q0-0.406 0.156-0.773t0.43-0.641 0.641-0.43 0.773-0.156h4v-4q0-0.422 0.156-0.781t0.43-0.633 0.633-0.43 0.781-0.156h20q0.422 0 0.781 0.156t0.633 0.43 0.43 0.633 0.156 0.781v12.125l1.594 0.906q0.172 0.109 0.289 0.281t0.117 0.391zM18 4v2q0.406 0 0.773 0.156t0.641 0.43 0.43 0.641 0.156 0.773v4h8v-8.016zM28 14h-8v6.609l8-4.609v-2zM8 4v2h8v-2h-8zM9.969 22.5q1.484 0 2.688-0.484t2.047-1.352 1.305-2.086 0.461-2.703q0-1.422-0.445-2.594t-1.273-2.016-1.992-1.313-2.586-0.469q-1.516 0-2.734 0.469t-2.078 1.336-1.328 2.094-0.469 2.742q0 1.438 0.469 2.609t1.313 2.008 2.023 1.297 2.602 0.461zM6 30h22.328l-8.719-4.875q-0.281 0.391-0.695 0.633t-0.914 0.242h-12v4zM30 28.641v-11.422l-0.016-0.016v0.031l-9.984 5.688v0.141zM7.094 16q0-0.703 0.18-1.344t0.547-1.133 0.93-0.781 1.328-0.289q0.797 0 1.344 0.297t0.891 0.797 0.492 1.148 0.148 1.352q0 0.719-0.164 1.352t-0.523 1.102-0.922 0.742-1.344 0.273q-0.766 0-1.313-0.289t-0.898-0.781-0.523-1.125-0.172-1.32z"></path>
</svg>
