<!-- Generated by IcoMoon.io -->
<svg version="1.1" xmlns="http://www.w3.org/2000/svg" width="32" height="32" viewBox="0 0 32 32">
<title>uniE481</title>
<path d="M23 0q0.625 0 1.172 0.234t0.953 0.641 0.641 0.953 0.234 1.172v26q0 0.625-0.234 1.172t-0.641 0.953-0.953 0.641-1.172 0.234h-16q-0.625 0-1.172-0.234t-0.953-0.641-0.641-0.953-0.234-1.172v-26q0-0.625 0.234-1.172t0.641-0.953 0.953-0.641 1.172-0.234h16zM24 29v-26q0-0.406-0.297-0.703t-0.703-0.297h-16q-0.406 0-0.703 0.297t-0.297 0.703v26q0 0.406 0.297 0.703t0.703 0.297h16q0.406 0 0.703-0.297t0.297-0.703zM8 16v-12h14v12h-14zM10 6v8h10v-8h-10zM8 28v-10h14v10h-14zM10 20v6h10v-6h-10z"></path>
</svg>
