<!-- Generated by IcoMoon.io -->
<svg version="1.1" xmlns="http://www.w3.org/2000/svg" width="32" height="32" viewBox="0 0 32 32">
<title>uniF43F</title>
<path d="M18 10v-8h-14v28h14v2h-16v-32h17.422l8.578 8.578v5.266q-0.484-0.156-0.984-0.25t-1.016-0.094v-3.5h-8zM20 8h4.578l-4.578-4.578v4.578zM32 22v10h-12v-10h2v-2q0-0.828 0.313-1.555t0.859-1.273 1.273-0.859 1.555-0.313 1.555 0.313 1.273 0.859 0.859 1.273 0.313 1.555v2h2zM24 22h4v-2q0-0.422-0.156-0.781t-0.43-0.633-0.633-0.43-0.781-0.156-0.781 0.156-0.633 0.43-0.43 0.633-0.156 0.781v2zM30 24h-8v6h8v-6z"></path>
</svg>
