<!-- Generated by IcoMoon.io -->
<svg version="1.1" xmlns="http://www.w3.org/2000/svg" width="32" height="32" viewBox="0 0 32 32">
<title>uniE302</title>
<path d="M14.078 23q0 1.016 0.578 1.773t1.516 1.086q-0.047 0.281-0.078 0.563t-0.031 0.578q0 0.219 0.023 0.453t0.055 0.453q-0.891-0.172-1.633-0.617t-1.281-1.094-0.836-1.469-0.297-1.727q0-1.031 0.391-1.938t1.055-1.586 1.57-1.078 1.938-0.398h3.969q1.016 0 1.922 0.398t1.578 1.086 1.063 1.594 0.391 1.922q0 0.875-0.297 1.688t-0.82 1.469-1.258 1.117-1.594 0.617v-2.078q0.891-0.344 1.438-1.086t0.547-1.727q0-0.609-0.234-1.156t-0.633-0.961-0.938-0.648-1.164-0.234h-3.969q-0.625 0-1.172 0.234t-0.945 0.641-0.625 0.953-0.227 1.172zM32 26.953q0 1.031-0.391 1.953t-1.070 1.609-1.586 1.086-1.953 0.398h-4q-1.047 0-1.953-0.398t-1.586-1.086-1.070-1.609-0.391-1.953q0-0.875 0.297-1.695t0.828-1.484 1.266-1.133 1.609-0.625v2.078q-0.453 0.156-0.82 0.445t-0.625 0.672-0.406 0.828-0.148 0.914q0 0.625 0.234 1.18t0.641 0.969 0.953 0.656 1.172 0.242h4q0.625 0 1.172-0.242t0.953-0.664 0.641-0.977 0.234-1.164q0-0.484-0.156-0.938t-0.43-0.844-0.664-0.68-0.859-0.43q0.047-0.281 0.078-0.57t0.031-0.57q0-0.234-0.031-0.461t-0.063-0.445q0.891 0.172 1.641 0.625t1.297 1.109 0.852 1.477 0.305 1.727zM2 2v28h14v2h-16v-32h17.422l8.578 8.578v7.422h-2v-6h-8v-8h-14zM18 3.422v4.578h4.578z"></path>
</svg>
