<!-- Generated by IcoMoon.io -->
<svg version="1.1" xmlns="http://www.w3.org/2000/svg" width="32" height="32" viewBox="0 0 32 32">
<title>uniF02D</title>
<path d="M28.906 26.75q0.719 0.391 1.289 0.953t0.969 1.25 0.617 1.461 0.219 1.586h-2q0-0.828-0.313-1.555t-0.859-1.273-1.273-0.859-1.555-0.313-1.555 0.313-1.273 0.859-0.859 1.273-0.313 1.555h-2q0-0.813 0.219-1.586t0.617-1.461 0.969-1.25 1.289-0.953q-0.516-0.547-0.805-1.266t-0.289-1.484q0-0.828 0.313-1.555t0.859-1.273 1.273-0.859 1.555-0.313 1.555 0.313 1.273 0.859 0.859 1.273 0.313 1.555q0 0.766-0.289 1.484t-0.805 1.266zM24 24q0 0.422 0.156 0.781t0.43 0.633 0.633 0.43 0.781 0.156 0.781-0.156 0.633-0.43 0.43-0.633 0.156-0.781-0.156-0.781-0.43-0.633-0.633-0.43-0.781-0.156-0.781 0.156-0.633 0.43-0.43 0.633-0.156 0.781zM18 10v-8h-14v28h13.75q-0.125 0.5-0.188 1t-0.063 1h-15.5v-32h17.422l8.578 8.578v9.234q-0.984-0.313-2-0.313v-7.5h-8zM20 8h4.578l-4.578-4.578v4.578z"></path>
</svg>
