<!-- Generated by IcoMoon.io -->
<svg version="1.1" xmlns="http://www.w3.org/2000/svg" width="32" height="32" viewBox="0 0 32 32">
<title>uniE618</title>
<path d="M27 18q0.406 0 0.703 0.297t0.297 0.703-0.297 0.703-0.703 0.297-0.703-0.297-0.297-0.703 0.297-0.703 0.703-0.297zM26 14q1.234 0 2.328 0.469t1.914 1.289 1.289 1.914 0.469 2.328q0 1.25-0.469 2.344t-1.281 1.906-1.906 1.281-2.344 0.469q-1.016 0-2-0.359v2.359h-2v2h-2v2h-6v-4.406l6.172-6.188q-0.094-0.344-0.133-0.695t-0.039-0.711q0-1.25 0.469-2.344t1.281-1.906 1.906-1.281 2.344-0.469zM26 24q0.828 0 1.555-0.313t1.273-0.859 0.859-1.273 0.313-1.555-0.313-1.555-0.859-1.273-1.273-0.859-1.555-0.313-1.555 0.313-1.273 0.859-0.859 1.273-0.313 1.555q0 0.5 0.141 0.992t0.328 0.961l-6.469 6.453v1.594h2v-2h2v-2h2v-1.422l1.453-1.438q0.641 0.359 1.211 0.609t1.336 0.25zM0 2h32v11.984q-0.438-0.438-0.945-0.789t-1.055-0.648v-2.547h-28v16h10v2h-12v-26zM30 8v-4h-28v4h28z"></path>
</svg>
