<!-- Generated by IcoMoon.io -->
<svg version="1.1" xmlns="http://www.w3.org/2000/svg" width="32" height="32" viewBox="0 0 32 32">
<title>uniE31D</title>
<path d="M2 2v28h10q-0.156 0.5-0.305 1t-0.258 1h-11.438v-32h28v11.578q-0.547 0.078-1.039 0.25t-0.961 0.469v-10.297h-24zM32.016 17.094q0 0.609-0.234 1.188t-0.672 1.016l-11.203 11.203-5.891 1.469 1.469-5.891 11.203-11.188q0.453-0.453 1.008-0.672t1.195-0.219q0.656 0 1.227 0.234t0.992 0.648 0.664 0.984 0.242 1.227zM30.016 17.094q0-0.5-0.32-0.797t-0.805-0.297q-0.219 0-0.422 0.070t-0.359 0.227l-10.813 10.813-0.531 2.109 2.109-0.531 10.813-10.797q0.328-0.328 0.328-0.797zM24 14h-20v-9.969h20v9.969zM6 6v6h16v-6h-16zM6 24h8.031l-0.398 0.398t-0.414 0.398q-0.078 0.313-0.148 0.609t-0.148 0.594h-8.922v-10h18.031l-2.016 2h-14.016v6z"></path>
</svg>
