<!-- Generated by IcoMoon.io -->
<svg version="1.1" xmlns="http://www.w3.org/2000/svg" width="32" height="32" viewBox="0 0 32 32">
<title>uniE7B0</title>
<path d="M23 14q-0.406 0-0.703-0.297t-0.297-0.703 0.297-0.703 0.703-0.297 0.703 0.297 0.297 0.703-0.297 0.703-0.703 0.297zM0 4.359q3.766 1.797 7.805 2.695t8.195 0.898 8.195-0.898 7.805-2.695v23.25q-3.766-1.797-7.805-2.703t-8.195-0.906-8.195 0.906-7.805 2.703v-23.25zM2 24.641q2.391-0.922 4.859-1.5t5.016-0.844l-4.875-4.875-5 4.984v2.234zM14.531 22.125q0.375-0.016 0.758-0.023t0.758-0.008q3.078 0 6.109 0.469l-5.156-5.141-3.578 3.578zM30 22.406l-3-2.984-2.594 2.578 1.297 1.297q1.094 0.281 2.164 0.609t2.133 0.734v-2.234zM30 7.328q-3.359 1.297-6.875 1.984t-7.125 0.688-7.125-0.688-6.875-1.984v12.266l5-5.016 5 5.016 5-5.016 6 6 4-4 3 3.016v-12.266z"></path>
</svg>
