<!-- Generated by IcoMoon.io -->
<svg version="1.1" xmlns="http://www.w3.org/2000/svg" width="32" height="32" viewBox="0 0 32 32">
<title>uniF352</title>
<path d="M15 0q1.484 0 2.938 0.25t2.859 0.75q1.922 0.688 3.594 1.859t2.922 2.719 1.969 3.43 0.719 3.992q0 0.781-0.469 1.375t-1.078 1.016q-0.078 0.047-0.227 0.133t-0.305 0.164-0.289 0.156-0.164 0.109l-7.469 7.469v7.078q0 0.625-0.438 1.063t-1.063 0.438h-7q-0.625 0-1.063-0.438t-0.438-1.063v-7.078l-7.469-7.469q-0.031-0.031-0.164-0.109t-0.289-0.156-0.305-0.164-0.227-0.133q-0.609-0.422-1.078-1.016t-0.469-1.375q0-2.109 0.719-3.992t1.969-3.43 2.922-2.719 3.594-1.859q1.406-0.5 2.859-0.75t2.938-0.25zM14 17.984q-1.859-0.031-3.695-0.211t-3.664-0.539l4.781 4.766h2.578v-4.016zM18.578 22l4.781-4.766q-1.828 0.359-3.664 0.539t-3.695 0.211v4.016h2.578z"></path>
</svg>
