<!-- Generated by IcoMoon.io -->
<svg version="1.1" xmlns="http://www.w3.org/2000/svg" width="32" height="32" viewBox="0 0 32 32">
<title>uniF351</title>
<path d="M30 13q0 0.453-0.164 0.836t-0.43 0.711-0.609 0.594-0.703 0.469q-0.172 0.109-0.32 0.148t-0.305 0.195l-7.469 7.469v7.078q0 0.625-0.438 1.063t-1.063 0.438h-7q-0.625 0-1.063-0.438t-0.438-1.063v-7.078l-7.469-7.469q-0.156-0.156-0.305-0.195t-0.32-0.148q-0.359-0.203-0.703-0.469t-0.609-0.594-0.43-0.711-0.164-0.836q0-1.984 0.602-3.719t1.656-3.18 2.492-2.578 3.102-1.914 3.484-1.195 3.664-0.414q1.828 0 3.656 0.414t3.492 1.195 3.102 1.914 2.492 2.578 1.656 3.18 0.602 3.719zM15 2q-1.547 0-3.117 0.344t-3.016 1-2.695 1.602-2.18 2.172-1.461 2.703-0.531 3.18q0 0.125 0.078 0.234t0.195 0.219 0.234 0.188 0.195 0.125q0.719 0.453 1.68 0.797t2.055 0.594 2.258 0.406 2.297 0.258 2.156 0.141 1.852 0.039q0.813 0 1.844-0.039t2.164-0.141 2.297-0.258 2.258-0.406 2.055-0.594 1.68-0.797q0.078-0.047 0.195-0.125t0.234-0.188 0.195-0.219 0.078-0.234q0-1.703-0.531-3.18t-1.461-2.703-2.18-2.172-2.695-1.602-3.016-1-3.117-0.344zM14 17.984q-1.844-0.031-3.688-0.211t-3.656-0.539l4.766 4.766h2.578v-4.016zM18 24h-6v6h6v-6zM23.344 17.234q-1.813 0.359-3.656 0.539t-3.688 0.211v4.016h2.578z"></path>
</svg>
