<!-- Generated by IcoMoon.io -->
<svg version="1.1" xmlns="http://www.w3.org/2000/svg" width="32" height="32" viewBox="0 0 32 32">
<title>uniF306</title>
<path d="M16.047 7q1.891 0 3.547 0.578t2.891 1.672 1.945 2.656 0.711 3.531q0 1.031-0.273 2.148t-0.844 2.031-1.453 1.508-2.102 0.594q-1.344 0-1.938-0.734t-0.609-2.016h-0.063q-0.359 1.234-1.164 1.992t-2.148 0.758q-0.922 0-1.586-0.367t-1.094-0.969-0.633-1.375-0.203-1.602q0-1.094 0.289-2.188t0.883-1.953 1.508-1.398 2.164-0.539q0.359 0 0.727 0.094t0.695 0.281 0.578 0.469 0.375 0.656v-0.078q0.031-0.313 0.055-0.625t0.055-0.625h1.453l-0.375 4.469q-0.047 0.5-0.109 1.016t-0.063 1.016q0 0.344 0.039 0.758t0.18 0.781 0.414 0.609 0.742 0.242q0.563 0 1-0.242t0.758-0.633 0.539-0.898 0.359-1.047 0.195-1.070 0.055-0.969q0-1.719-0.563-3.063t-1.57-2.266-2.406-1.406-3.055-0.484q-1.797 0-3.258 0.672t-2.5 1.82-1.602 2.68-0.563 3.266q0 1.797 0.555 3.258t1.586 2.492 2.492 1.594 3.258 0.563q1.266 0 2.508-0.203t2.383-0.75v1.438q-1.172 0.5-2.453 0.68t-2.547 0.18q-2.078 0-3.797-0.648t-2.961-1.844-1.93-2.898-0.688-3.797q0-2.109 0.703-3.906t1.969-3.109 3.031-2.055 3.906-0.742zM14.828 20.359q0.953 0 1.563-0.539t0.953-1.336 0.477-1.703 0.133-1.641q0-0.531-0.109-0.984t-0.352-0.781-0.648-0.516-0.984-0.188q-0.906 0-1.516 0.469t-0.984 1.172-0.539 1.539-0.164 1.57q0 0.516 0.109 1.039t0.359 0.945 0.672 0.688 1.031 0.266zM0 4h6v2h-4v20h4v2h-6v-24zM32 4v24h-6v-2h4v-20h-4v-2h6z"></path>
</svg>
