<!-- Generated by IcoMoon.io -->
<svg version="1.1" xmlns="http://www.w3.org/2000/svg" width="32" height="32" viewBox="0 0 32 32">
<title>uniEA5E</title>
<path d="M0 20q0 1.188 0.641 2.172t1.719 1.469q0.484 1.078 1.469 1.719t2.172 0.641q1.078 0 2-0.531t1.469-1.469h11.063q0.547 0.938 1.469 1.469t2 0.531 2-0.531 1.469-1.469h2.531q0.422 0 0.781-0.156t0.633-0.43 0.43-0.633 0.156-0.781v-4q0-1.25-0.469-2.344t-1.281-1.906-1.906-1.281-2.344-0.469h-0.578l-5.125-5.125q-0.422-0.422-0.977-0.648t-1.148-0.227h-14.172v2h0.453l-4 8.797q-0.313 0.703-0.383 1.281t-0.070 1.25v0.672zM7.297 8h4.703v4h-7.172l1.547-3.422q0.125-0.266 0.383-0.422t0.539-0.156zM22.578 12h-8.578v-4h4.172q0.406 0 0.703 0.297zM24 24q-0.422 0-0.781-0.156t-0.633-0.43-0.43-0.633-0.156-0.781 0.156-0.781 0.43-0.633 0.633-0.43 0.781-0.156 0.781 0.156 0.633 0.43 0.43 0.633 0.156 0.781-0.156 0.781-0.43 0.633-0.633 0.43-0.781 0.156zM24 18q-0.828 0-1.555 0.313t-1.273 0.859-0.859 1.273-0.313 1.555h-6v-8h12q0.828 0 1.555 0.313t1.273 0.859 0.859 1.273 0.313 1.555v4h-2q0-0.828-0.313-1.555t-0.859-1.273-1.273-0.859-1.555-0.313zM6 24q-0.422 0-0.781-0.156t-0.633-0.43-0.43-0.633-0.156-0.781 0.156-0.781 0.43-0.633 0.633-0.43 0.781-0.156 0.781 0.156 0.633 0.43 0.43 0.633 0.156 0.781-0.156 0.781-0.43 0.633-0.633 0.43-0.781 0.156zM2 20v-1.125q0-0.641 0.266-1.25l1.656-3.625h8.078v8h-2q0-0.828-0.313-1.555t-0.859-1.273-1.273-0.859-1.555-0.313q-0.656 0-1.266 0.203t-1.109 0.578-0.875 0.898-0.578 1.148q-0.172-0.422-0.172-0.828z"></path>
</svg>
