<!-- Generated by IcoMoon.io -->
<svg version="1.1" xmlns="http://www.w3.org/2000/svg" width="32" height="32" viewBox="0 0 32 32">
<title>uniE811</title>
<path d="M32 20q0 1.188-0.641 2.172t-1.719 1.469q-0.484 1.078-1.469 1.719t-2.172 0.641q-1.078 0-2-0.531t-1.469-1.469h-11.063q-0.547 0.938-1.469 1.469t-2 0.531-2-0.531-1.469-1.469h-2.531q-0.422 0-0.781-0.156t-0.633-0.43-0.43-0.633-0.156-0.781v-4q0-1.25 0.469-2.344t1.281-1.906 1.906-1.281 2.344-0.469h0.578l5.125-5.125q0.422-0.422 0.977-0.648t1.148-0.227h14.172v2h-0.453l4 8.797q0.313 0.703 0.383 1.281t0.070 1.25v0.672zM24.703 8h-4.703v4h7.172l-1.547-3.422q-0.125-0.266-0.383-0.422t-0.539-0.156zM9.422 12h8.578v-4h-4.172q-0.406 0-0.703 0.297zM8 24q0.422 0 0.781-0.156t0.633-0.43 0.43-0.633 0.156-0.781-0.156-0.781-0.43-0.633-0.633-0.43-0.781-0.156-0.781 0.156-0.633 0.43-0.43 0.633-0.156 0.781 0.156 0.781 0.43 0.633 0.633 0.43 0.781 0.156zM8 18q0.828 0 1.555 0.313t1.273 0.859 0.859 1.273 0.313 1.555h6v-8h-12q-0.828 0-1.555 0.313t-1.273 0.859-0.859 1.273-0.313 1.555v4h2q0-0.828 0.313-1.555t0.859-1.273 1.273-0.859 1.555-0.313zM26 24q0.422 0 0.781-0.156t0.633-0.43 0.43-0.633 0.156-0.781-0.156-0.781-0.43-0.633-0.633-0.43-0.781-0.156-0.781 0.156-0.633 0.43-0.43 0.633-0.156 0.781 0.156 0.781 0.43 0.633 0.633 0.43 0.781 0.156zM30 20v-1.125q0-0.641-0.266-1.25l-1.656-3.625h-8.078v8h2q0-0.828 0.313-1.555t0.859-1.273 1.273-0.859 1.555-0.313q0.656 0 1.266 0.203t1.109 0.578 0.875 0.898 0.578 1.148q0.172-0.422 0.172-0.828z"></path>
</svg>
