<!-- Generated by IcoMoon.io -->
<svg version="1.1" xmlns="http://www.w3.org/2000/svg" width="32" height="32" viewBox="0 0 32 32">
<title>uniF34A</title>
<path d="M31.547 16.797q0.453 1 0.453 2.078v1.125q0 0.594-0.164 1.141t-0.469 1.016-0.742 0.852-0.969 0.617q-0.234 0.547-0.617 0.984t-0.859 0.742-1.031 0.477-1.148 0.172q-1.078 0-2-0.531t-1.469-1.469h-11.063q-0.547 0.938-1.469 1.469t-2 0.531-2-0.531-1.469-1.469h-2.531q-0.422 0-0.781-0.156t-0.633-0.43-0.43-0.633-0.156-0.781v-4q0-1.234 0.469-2.328t1.289-1.914 1.906-1.289 2.336-0.469h0.578l5.125-5.125q0.422-0.422 0.977-0.648t1.148-0.227h14.172v2h-0.453zM8 24q0.422 0 0.781-0.156t0.633-0.43 0.43-0.633 0.156-0.781-0.156-0.781-0.43-0.633-0.633-0.43-0.781-0.156-0.781 0.156-0.633 0.43-0.43 0.633-0.156 0.781 0.156 0.781 0.43 0.633 0.633 0.43 0.781 0.156zM18 8h-4.172q-0.406 0-0.703 0.297l-3.703 3.703h8.578v-4zM20 12h7.172l-1.547-3.422q-0.125-0.266-0.375-0.422t-0.547-0.156h-4.703v4zM26 24q0.422 0 0.781-0.156t0.633-0.43 0.43-0.633 0.156-0.781-0.156-0.781-0.43-0.633-0.633-0.43-0.781-0.156-0.781 0.156-0.633 0.43-0.43 0.633-0.156 0.781 0.156 0.781 0.43 0.633 0.633 0.43 0.781 0.156z"></path>
</svg>
