<!-- Generated by IcoMoon.io -->
<svg version="1.1" xmlns="http://www.w3.org/2000/svg" width="32" height="32" viewBox="0 0 32 32">
<title>uniF34B</title>
<path d="M0.453 16.797q-0.453 1-0.453 2.078v1.125q0 0.594 0.164 1.141t0.469 1.016 0.742 0.852 0.969 0.617q0.234 0.547 0.617 0.984t0.859 0.742 1.031 0.477 1.148 0.172q1.078 0 2-0.531t1.469-1.469h11.063q0.547 0.938 1.469 1.469t2 0.531 2-0.531 1.469-1.469h2.531q0.422 0 0.781-0.156t0.633-0.43 0.43-0.633 0.156-0.781v-4q0-1.234-0.469-2.328t-1.289-1.914-1.906-1.289-2.336-0.469h-0.578l-5.125-5.125q-0.422-0.422-0.977-0.648t-1.148-0.227h-14.172v2h0.453zM24 24q-0.422 0-0.781-0.156t-0.633-0.43-0.43-0.633-0.156-0.781 0.156-0.781 0.43-0.633 0.633-0.43 0.781-0.156 0.781 0.156 0.633 0.43 0.43 0.633 0.156 0.781-0.156 0.781-0.43 0.633-0.633 0.43-0.781 0.156zM14 8h4.172q0.406 0 0.703 0.297l3.703 3.703h-8.578v-4zM12 12h-7.172l1.547-3.422q0.125-0.266 0.375-0.422t0.547-0.156h4.703v4zM6 24q-0.422 0-0.781-0.156t-0.633-0.43-0.43-0.633-0.156-0.781 0.156-0.781 0.43-0.633 0.633-0.43 0.781-0.156 0.781 0.156 0.633 0.43 0.43 0.633 0.156 0.781-0.156 0.781-0.43 0.633-0.633 0.43-0.781 0.156z"></path>
</svg>
