<!-- Generated by IcoMoon.io -->
<svg version="1.1" xmlns="http://www.w3.org/2000/svg" width="32" height="32" viewBox="0 0 32 32">
<title>uniE9C0</title>
<path d="M27.516 16.188q1 0.281 1.82 0.836t1.414 1.313 0.922 1.695 0.328 1.969q0 1.25-0.469 2.336t-1.289 1.906-1.914 1.289-2.328 0.469h-17q-1.453 0-2.727-0.547t-2.227-1.5-1.5-2.227-0.547-2.727q0-1.031 0.297-2.008t0.844-1.82 1.32-1.508 1.727-1.070q-0.188-0.766-0.188-1.594 0-1.453 0.547-2.727t1.5-2.227 2.227-1.5 2.727-0.547q1 0 1.953 0.281t1.773 0.805 1.484 1.266 1.086 1.648q1.406 0.047 2.703 0.516t2.383 1.281 1.898 1.938 1.234 2.453zM13 8q-1.031 0-1.945 0.398t-1.594 1.078-1.070 1.586-0.391 1.938q0 0.266 0.023 0.523t0.102 0.523q0.438-0.047 0.875-0.047 0.594 0 1.172 0.094t1.125 0.297q0.453-0.797 1.086-1.477t1.383-1.219 1.602-0.922 1.742-0.57q-0.688-1.031-1.781-1.617t-2.328-0.586zM26 26q0.828 0 1.555-0.313t1.273-0.859 0.859-1.273 0.313-1.555q0-0.859-0.32-1.594t-0.883-1.266-1.313-0.836-1.594-0.305q-0.188-1.281-0.797-2.383t-1.523-1.906-2.086-1.258-2.484-0.453q-1.203 0-2.289 0.391t-1.977 1.078-1.539 1.656-0.945 2.109q-0.688-0.594-1.516-0.914t-1.734-0.32q-1.031 0-1.945 0.391t-1.594 1.070-1.070 1.594-0.391 1.945 0.391 1.945 1.070 1.594 1.594 1.070 1.945 0.391h17zM4 14h-4v-2h4v2zM5.922 7.344l-2.828-2.828 1.422-1.422 2.828 2.828zM14 4h-2v-4h2v4zM20.078 7.344l-1.422-1.422 2.828-2.828 1.422 1.422z"></path>
</svg>
