<!-- Generated by IcoMoon.io -->
<svg version="1.1" xmlns="http://www.w3.org/2000/svg" width="32" height="32" viewBox="0 0 32 32">
<title>uniE47A</title>
<path d="M27.922 19.031q0.656 0.078 1.219 0.383t0.977 0.766 0.648 1.063 0.234 1.258q0 0.719-0.273 1.359t-0.75 1.117-1.117 0.75-1.359 0.273h-1.781q-0.172-0.531-0.422-1.016t-0.5-0.984h2.703q0.625 0 1.063-0.438t0.438-1.063-0.438-1.063-1.063-0.438h-1.5v-1q0-0.828-0.313-1.555t-0.859-1.273-1.273-0.859-1.555-0.313q-1.25 0-2.234 0.68t-1.469 1.82q-0.078 0.203-0.164 0.406t-0.164 0.406q-0.359-0.094-0.734-0.203t-0.734-0.109q-0.516 0-0.969 0.195t-0.797 0.539-0.539 0.797-0.195 0.969 0.195 0.969 0.539 0.797 0.797 0.539 0.969 0.195h0.703q-0.25 0.5-0.492 0.977t-0.414 1.008q-0.891-0.047-1.68-0.414t-1.367-0.969-0.914-1.398-0.336-1.703q0-0.891 0.336-1.703t0.945-1.453q-1.609-2.281-2.445-4.914t-0.836-5.43q0-2.531 0.703-4.953-1.969 0.813-3.578 2.141t-2.742 3.023-1.758 3.68-0.625 4.109q0 1.938 0.5 3.719t1.414 3.336 2.195 2.836 2.836 2.195 3.344 1.414 3.711 0.5h0.328t0.328-0.016q0.328 0.563 0.789 1.031t1.023 0.797q-1.219 0.188-2.469 0.188-2.203 0-4.25-0.57t-3.82-1.617-3.234-2.508-2.508-3.234-1.617-3.82-0.57-4.25q0-2.016 0.484-3.914t1.383-3.578 2.164-3.109 2.828-2.523 3.391-1.797 3.828-0.953q-1.016 1.797-1.547 3.797t-0.531 4.078q0 2.5 0.75 4.859t2.203 4.406q0.75-0.266 1.5-0.266 0.078 0 0.164 0.008t0.18 0.008q0.391-0.703 0.953-1.266t1.234-0.945 1.438-0.594 1.578-0.211q1.094 0 2.094 0.383t1.789 1.055 1.328 1.594 0.711 2zM21 22l2.281 4.547q0.219 0.469 0.219 0.953 0 0.516-0.195 0.969t-0.539 0.797-0.797 0.539-0.969 0.195-0.969-0.195-0.797-0.539-0.539-0.797-0.195-0.969q0-0.484 0.219-0.953z"></path>
</svg>
