<!-- Generated by IcoMoon.io -->
<svg version="1.1" xmlns="http://www.w3.org/2000/svg" width="32" height="32" viewBox="0 0 32 32">
<title>uniE477</title>
<path d="M31 22.5q0 0.563-0.172 1.086t-0.484 0.953-0.75 0.758-0.969 0.516q-1.141 1.469-2.555 2.617t-3.031 1.945-3.398 1.211-3.641 0.414q-2.203 0-4.25-0.57t-3.82-1.617-3.234-2.508-2.508-3.234-1.617-3.82-0.57-4.25q0-2.016 0.484-3.914t1.383-3.578 2.164-3.109 2.828-2.523 3.391-1.797 3.828-0.953q-1.016 1.797-1.547 3.797t-0.531 4.078q0 2.516 0.75 4.867t2.219 4.398q0.313-0.125 0.711-0.195t0.773-0.070h0.172t0.172 0.016q0.406-0.703 0.969-1.266t1.234-0.945 1.43-0.594 1.57-0.211q1.094 0 2.094 0.383t1.789 1.055 1.328 1.594 0.711 2q0.656 0.078 1.219 0.383t0.977 0.766 0.648 1.063 0.234 1.258zM16.5 19q-0.516 0-0.969 0.195t-0.797 0.539-0.539 0.797-0.195 0.969 0.195 0.969 0.539 0.797 0.797 0.539 0.969 0.195h11q0.625 0 1.063-0.438t0.438-1.063-0.438-1.063-1.063-0.438h-1.5v-1q0-0.828-0.313-1.555t-0.859-1.273-1.273-0.859-1.555-0.313q-0.609 0-1.18 0.18t-1.047 0.508-0.859 0.789-0.617 1.023l-0.328 0.813q-0.359-0.094-0.734-0.203t-0.734-0.109zM2 16q0 1.938 0.5 3.719t1.414 3.336 2.195 2.836 2.836 2.195 3.344 1.414 3.711 0.5q2.766 0 5.289-1.031t4.492-2.969h-9.281q-0.938 0-1.758-0.352t-1.43-0.961-0.961-1.43-0.352-1.758q0-0.891 0.336-1.703t0.961-1.453q-1.609-2.281-2.453-4.914t-0.844-5.43q0-2.531 0.703-4.953-1.969 0.813-3.578 2.141t-2.742 3.023-1.758 3.68-0.625 4.109z"></path>
</svg>
