<!-- Generated by IcoMoon.io -->
<svg version="1.1" xmlns="http://www.w3.org/2000/svg" width="32" height="32" viewBox="0 0 32 32">
<title>uniE472</title>
<path d="M22 15q0 0.906-0.227 1.773t-0.664 1.641-1.055 1.43-1.398 1.125q0.344 0.766 0.344 1.531 0 0.719-0.273 1.359t-0.75 1.117-1.117 0.75-1.359 0.273h-1.5v-2h1.5q0.625 0 1.063-0.438t0.438-1.063-0.438-1.063-1.063-0.438h-1.5v-1q0-0.828-0.313-1.555t-0.859-1.273-1.273-0.859-1.555-0.313q-0.609 0-1.18 0.18t-1.055 0.508-0.859 0.789-0.609 1.023l-0.328 0.813q-0.359-0.094-0.734-0.203t-0.734-0.109q-0.516 0-0.969 0.195t-0.797 0.539-0.539 0.797-0.195 0.969q0 0.453 0.148 0.844t0.422 0.711 0.641 0.531 0.789 0.305v2.063q-0.844-0.094-1.578-0.477t-1.273-0.984-0.844-1.367-0.305-1.625q0-0.922 0.352-1.742t0.945-1.43 1.398-0.969 1.727-0.359h0.188t0.188 0.016q0.547-0.938 1.375-1.633t1.859-1.055q0.125-1.344 0.727-2.5t1.539-2.008 2.141-1.336 2.563-0.484q1.453 0 2.727 0.547t2.227 1.5 1.5 2.227 0.547 2.727zM15.922 19.031q0.688 0.063 1.328 0.438 0.625-0.313 1.133-0.789t0.867-1.063 0.555-1.25 0.195-1.367q0-1.031-0.398-1.938t-1.078-1.586-1.586-1.078-1.938-0.398q-0.891 0-1.703 0.297t-1.461 0.828-1.102 1.266-0.641 1.609q1.078 0.016 2.063 0.406t1.758 1.055 1.305 1.578 0.703 1.992zM16 0v6h-2v-6h2zM24 14h6v2h-6v-2zM9.344 7.922l-1.422 1.422-4.234-4.25 1.406-1.406zM20.656 22.078l1.422-1.422 4.234 4.25-1.406 1.406zM26.313 5.094l-4.234 4.25-1.422-1.422 4.25-4.234zM12.594 29.5q0 0.422-0.297 0.711t-0.703 0.289q-0.188 0-0.406-0.086t-0.43-0.211-0.406-0.25-0.352-0.219q0 0.172 0.008 0.375t0.008 0.422q0 0.266-0.031 0.531t-0.141 0.477-0.313 0.336-0.531 0.125-0.531-0.125-0.313-0.336-0.141-0.477-0.031-0.531q0-0.219 0.008-0.422t0.008-0.375q-0.156 0.094-0.352 0.219t-0.406 0.25-0.43 0.211-0.406 0.086q-0.406 0-0.703-0.289t-0.297-0.711q0-0.563 0.5-0.859l1.094-0.641-1.094-0.641q-0.5-0.297-0.5-0.859 0-0.406 0.289-0.703t0.695-0.297q0.203 0 0.422 0.086t0.43 0.211 0.406 0.25 0.352 0.219q0-0.172-0.008-0.367t-0.008-0.414q0-0.266 0.031-0.531t0.141-0.477 0.313-0.344 0.531-0.133 0.531 0.133 0.313 0.344 0.141 0.477 0.031 0.531q0 0.219-0.008 0.414t-0.008 0.367q0.156-0.094 0.352-0.219t0.406-0.25 0.43-0.211 0.422-0.086q0.406 0 0.695 0.297t0.289 0.703q0 0.563-0.5 0.859l-1.094 0.641 1.094 0.641q0.5 0.297 0.5 0.859z"></path>
</svg>
