<!-- Generated by IcoMoon.io -->
<svg version="1.1" xmlns="http://www.w3.org/2000/svg" width="32" height="32" viewBox="0 0 32 32">
<title>uniECA7</title>
<path d="M18.25 14.781q0.594 0.234 1.156 0.516t1.094 0.641q-0.344 0.375-0.625 0.789t-0.516 0.867q-1.203-0.781-2.57-1.188t-2.789-0.406q-1.375 0-2.656 0.359t-2.391 1.008-2.023 1.563-1.563 2.023-1.008 2.391-0.359 2.656h-2q0-1.875 0.555-3.609t1.57-3.203 2.445-2.609 3.18-1.797q-1.766-1.156-2.758-2.906t-0.992-3.875q0-1.656 0.625-3.117t1.711-2.547 2.547-1.711 3.117-0.625 3.117 0.625 2.547 1.711 1.711 2.547 0.625 3.117q0 1.031-0.258 2.016t-0.742 1.859-1.18 1.617-1.57 1.289zM8 8q0 1.25 0.469 2.336t1.289 1.906 1.906 1.289 2.336 0.469q1.234 0 2.328-0.469t1.914-1.289 1.289-1.906 0.469-2.336q0-1.234-0.469-2.328t-1.289-1.914-1.914-1.289-2.328-0.469q-1.25 0-2.336 0.469t-1.906 1.289-1.289 1.914-0.469 2.328zM31 21q0 0.813-0.258 1.578t-0.742 1.422v8l-4-2-4 2v-8q-0.484-0.656-0.742-1.422t-0.258-1.578q0-1.031 0.391-1.938t1.070-1.586 1.594-1.078 1.945-0.398 1.938 0.398 1.586 1.078 1.078 1.586 0.398 1.938zM26 18q-0.625 0-1.172 0.234t-0.953 0.641-0.641 0.953-0.234 1.172 0.234 1.172 0.641 0.953 0.953 0.641 1.172 0.234 1.172-0.234 0.953-0.641 0.641-0.953 0.234-1.172-0.234-1.172-0.641-0.953-0.953-0.641-1.172-0.234zM28 28.766v-3.188q-0.938 0.422-2 0.422t-2-0.422v3.188q0.5-0.25 1-0.492t1-0.508q0.5 0.266 1 0.508t1 0.492z"></path>
</svg>
