<!-- Generated by IcoMoon.io -->
<svg version="1.1" xmlns="http://www.w3.org/2000/svg" width="32" height="32" viewBox="0 0 32 32">
<title>uniE9C1</title>
<path d="M27.516 16.188q0.984 0.281 1.813 0.836t1.422 1.313 0.922 1.695 0.328 1.969q0 1.234-0.477 2.328t-1.289 1.906-1.906 1.289-2.328 0.477h-17q-1.453 0-2.727-0.547t-2.227-1.5-1.5-2.227-0.547-2.727q0-1.219 0.391-2.336t1.156-2.055q-1.266-0.844-2.133-2.094t-1.195-2.734q0.906 0.219 1.781 0.219 1.656 0 3.117-0.625t2.547-1.711 1.711-2.547 0.625-3.117q0-0.875-0.219-1.781 1.359 0.313 2.5 1.047t1.969 1.766 1.289 2.305 0.461 2.664q0 0.125-0.016 0.266t-0.031 0.266l0.063-0.016q0.75-0.234 1.469-0.375t1.516-0.141q1.453 0 2.797 0.445t2.461 1.266 1.961 1.961 1.297 2.516zM11.891 5.438q-0.234 1.641-0.969 3.078t-1.852 2.555-2.555 1.852-3.078 0.969q0.672 0.813 1.625 1.313 0.891-0.594 1.875-0.898t2.063-0.305q0.594 0 1.172 0.094t1.125 0.297q0.453-0.813 1.086-1.461t1.352-1.227q0.266-0.844 0.266-1.703 0-1.328-0.547-2.516t-1.563-2.047zM26 26q0.828 0 1.555-0.313t1.273-0.859 0.859-1.273 0.313-1.555q0-0.859-0.32-1.594t-0.883-1.273-1.313-0.836-1.594-0.297q-0.188-1.281-0.797-2.383t-1.531-1.906-2.094-1.258-2.469-0.453q-1.203 0-2.289 0.383t-1.977 1.078-1.539 1.656-0.945 2.117q-0.688-0.594-1.516-0.914t-1.734-0.32q-1.031 0-1.945 0.391t-1.594 1.070-1.070 1.594-0.391 1.945 0.391 1.945 1.070 1.594 1.594 1.070 1.945 0.391h17z"></path>
</svg>
