<!-- Generated by IcoMoon.io -->
<svg version="1.1" xmlns="http://www.w3.org/2000/svg" width="32" height="32" viewBox="0 0 32 32">
<title>uniE46E</title>
<path d="M22 15q0 0.906-0.227 1.773t-0.664 1.641-1.055 1.43-1.398 1.125q0.344 0.766 0.344 1.531 0 0.719-0.273 1.359t-0.75 1.117-1.117 0.75-1.359 0.273h-1.781q-0.172-0.531-0.422-1.016t-0.5-0.984h2.703q0.625 0 1.063-0.438t0.438-1.063-0.438-1.063-1.063-0.438h-1.5v-1q0-0.828-0.313-1.555t-0.859-1.273-1.273-0.859-1.555-0.313q-0.609 0-1.18 0.18t-1.055 0.508-0.859 0.789-0.609 1.023l-0.328 0.813q-0.359-0.094-0.734-0.203t-0.734-0.109q-0.516 0-0.969 0.195t-0.797 0.539-0.539 0.797-0.195 0.969 0.195 0.969 0.539 0.797 0.797 0.539 0.969 0.195h0.703q-0.25 0.5-0.492 0.977t-0.414 1.008q-0.891-0.047-1.68-0.414t-1.367-0.969-0.914-1.398-0.336-1.703q0-0.938 0.352-1.758t0.961-1.43 1.422-0.961 1.734-0.352q0.078 0 0.164 0.008t0.164 0.008q0.547-0.938 1.375-1.633t1.859-1.055q0.125-1.344 0.727-2.5t1.539-2.008 2.141-1.336 2.563-0.484q1.453 0 2.727 0.547t2.227 1.5 1.5 2.227 0.547 2.727zM15.922 19.031q0.688 0.063 1.328 0.438 0.625-0.313 1.141-0.789t0.867-1.055 0.547-1.25 0.195-1.375q0-1.031-0.398-1.938t-1.078-1.586-1.586-1.078-1.938-0.398q-0.891 0-1.703 0.297t-1.461 0.828-1.102 1.266-0.641 1.609q1.078 0.016 2.063 0.406t1.758 1.055 1.305 1.578 0.703 1.992zM16 0v6h-2v-6h2zM24 14h6v2h-6v-2zM9.344 7.922l-1.422 1.422-4.234-4.25 1.406-1.406zM20.656 22.078l1.422-1.422 4.234 4.25-1.406 1.406zM26.313 5.094l-4.234 4.25-1.422-1.422 4.25-4.234zM9 22l2.281 4.547q0.219 0.469 0.219 0.953 0 0.516-0.195 0.969t-0.539 0.797-0.797 0.539-0.969 0.195-0.969-0.195-0.797-0.539-0.539-0.797-0.195-0.969q0-0.484 0.219-0.953z"></path>
</svg>
