<!-- Generated by IcoMoon.io -->
<svg version="1.1" xmlns="http://www.w3.org/2000/svg" width="32" height="32" viewBox="0 0 32 32">
<title>uniF32A</title>
<path d="M21 23.594l5.297-5.297 1.406 1.406-6.703 6.703-3.703-3.703 1.406-1.406zM32 12v20h-20v-12.203q-0.953 0.203-2 0.203-2.078 0-3.898-0.781t-3.18-2.141-2.141-3.18-0.781-3.898 0.781-3.898 2.141-3.18 3.18-2.141 3.898-0.781 3.898 0.781 3.18 2.141 2.141 3.18 0.781 3.898q0 1.047-0.203 2h12.203zM2 10q0 1.656 0.633 3.109t1.719 2.539 2.539 1.719 3.109 0.633 3.109-0.633 2.539-1.719 1.719-2.539 0.633-3.109-0.633-3.109-1.719-2.539-2.539-1.719-3.109-0.633-3.109 0.633-2.539 1.719-1.719 2.539-0.633 3.109zM30 14h-10.828q-0.797 1.766-2.102 3.070t-3.070 2.102v10.828h16v-16zM15.703 7.703l-6.703 6.703-3.703-3.703 1.406-1.406 2.297 2.297 5.297-5.297z"></path>
</svg>
