<!-- Generated by IcoMoon.io -->
<svg version="1.1" xmlns="http://www.w3.org/2000/svg" width="32" height="32" viewBox="0 0 32 32">
<title>uniF6AA</title>
<path d="M0 4h32v22h-32v-22zM30 24v-18h-28v18h28zM8 17.5q-0.516 0-0.969-0.195t-0.797-0.539-0.539-0.797-0.195-0.969 0.195-0.969 0.539-0.797 0.797-0.539 0.969-0.195 0.969 0.195 0.797 0.539 0.539 0.797 0.195 0.969-0.195 0.969-0.539 0.797-0.797 0.539-0.969 0.195zM16 17.5q-0.516 0-0.969-0.195t-0.797-0.539-0.539-0.797-0.195-0.969 0.195-0.969 0.539-0.797 0.797-0.539 0.969-0.195 0.969 0.195 0.797 0.539 0.539 0.797 0.195 0.969-0.195 0.969-0.539 0.797-0.797 0.539-0.969 0.195zM24 17.5q-0.516 0-0.969-0.195t-0.797-0.539-0.539-0.797-0.195-0.969 0.195-0.969 0.539-0.797 0.797-0.539 0.969-0.195 0.969 0.195 0.797 0.539 0.539 0.797 0.195 0.969-0.195 0.969-0.539 0.797-0.797 0.539-0.969 0.195z"></path>
</svg>
