<!-- Generated by IcoMoon.io -->
<svg version="1.1" xmlns="http://www.w3.org/2000/svg" width="32" height="32" viewBox="0 0 32 32">
<title>uniF5D5</title>
<path d="M4 28h12v2h-14v-26h8q0-0.828 0.313-1.555t0.859-1.273 1.273-0.859 1.555-0.313 1.555 0.313 1.273 0.859 0.859 1.273 0.313 1.555h8v10h-2v-8h-2v4h-16v-4h-2v22zM8 6v2h12v-2h-4v-2q0-0.422-0.156-0.781t-0.43-0.633-0.633-0.43-0.781-0.156-0.781 0.156-0.633 0.43-0.43 0.633-0.156 0.781v2h-4zM31.391 32h-2.109l-1.328-4h-5.906l-1.328 4h-2.109l5.344-16h2.094zM27.281 26l-2.281-6.828-2.281 6.828h4.563z"></path>
</svg>
