<!-- Generated by IcoMoon.io -->
<svg version="1.1" xmlns="http://www.w3.org/2000/svg" width="32" height="32" viewBox="0 0 32 32">
<title>uniE77F</title>
<path d="M30 12v20h-16v-2h-12v-26h8q0-0.813 0.32-1.547t0.859-1.273 1.266-0.859 1.555-0.32q0.813 0 1.547 0.32t1.273 0.859 0.859 1.273 0.32 1.547h8v8h4zM8 6v2h12v-2h-4q0-0.25 0.008-0.523t0.008-0.555q0-0.531-0.055-1.055t-0.266-0.938-0.609-0.672-1.086-0.258-1.086 0.258-0.609 0.672-0.266 0.938-0.055 1.055q0 0.281 0.008 0.555t0.008 0.523h-4zM14 28v-16h10v-6h-2v4h-16v-4h-2v22h10zM28 14h-12v16h12v-16z"></path>
</svg>
