<!-- Generated by IcoMoon.io -->
<svg version="1.1" xmlns="http://www.w3.org/2000/svg" width="32" height="32" viewBox="0 0 32 32">
<title>uniE548</title>
<path d="M2 30h15.703l2.297 2h-20v-32h2v12.234l8.938-10.641 8.063 6.297 7.5-7.594 1.422 1.406-8.797 8.906-7.938-6.203-9.188 10.938v14.656zM32 22q0 1.609-0.609 3.063t-1.734 2.594q-0.656 0.656-1.398 1.227t-1.477 1.148q-0.469 0.375-0.922 0.781t-0.922 0.797q-0.219 0.172-0.43 0.273t-0.508 0.102-0.508-0.094-0.43-0.281q-0.469-0.391-0.922-0.789t-0.938-0.789q-0.719-0.578-1.461-1.148t-1.398-1.227q-1.125-1.141-1.734-2.594t-0.609-3.063q0-1.641 0.633-3.102t1.719-2.555 2.539-1.727 3.109-0.633 3.109 0.633 2.539 1.727 1.719 2.547 0.633 3.109zM30 22q0-1.234-0.469-2.328t-1.289-1.914-1.914-1.297-2.328-0.477q-1.25 0-2.336 0.477t-1.906 1.297-1.289 1.914-0.469 2.328q0 1 0.266 1.797t0.719 1.469 1.055 1.242 1.273 1.094 1.359 1.047 1.328 1.102q0.641-0.578 1.328-1.102t1.359-1.047 1.273-1.094 1.055-1.242 0.719-1.469 0.266-1.797zM24 18q0.828 0 1.563 0.313t1.273 0.852 0.852 1.273 0.313 1.563-0.313 1.563-0.852 1.273-1.273 0.852-1.563 0.313-1.563-0.313-1.273-0.852-0.852-1.273-0.313-1.563 0.313-1.563 0.852-1.273 1.273-0.852 1.563-0.313zM24 24q0.406 0 0.773-0.156t0.641-0.43 0.43-0.641 0.156-0.773-0.156-0.773-0.43-0.641-0.641-0.43-0.773-0.156-0.773 0.156-0.641 0.43-0.43 0.641-0.156 0.773 0.156 0.773 0.43 0.641 0.641 0.43 0.773 0.156z"></path>
</svg>
