<!-- Generated by IcoMoon.io -->
<svg version="1.1" xmlns="http://www.w3.org/2000/svg" width="32" height="32" viewBox="0 0 32 32">
<title>uniE554</title>
<path d="M16 4q1.375 0 2.656 0.359t2.391 1.008 2.023 1.563 1.563 2.023 1.008 2.391 0.359 2.656-0.359 2.656-1.008 2.391-1.563 2.023-2.023 1.563-2.391 1.008-2.656 0.359-2.656-0.359-2.391-1.008-2.023-1.563-1.563-2.023-1.008-2.391-0.359-2.656 0.359-2.656 1.008-2.391 1.563-2.023 2.023-1.563 2.391-1.008 2.656-0.359zM16 22.047q1.656 0 3.125-0.633t2.57-1.727 1.734-2.555 0.633-3.133q0-1.656-0.633-3.125t-1.734-2.563-2.57-1.727-3.125-0.633q-1.672 0-3.133 0.633t-2.563 1.727-1.734 2.563-0.633 3.125q0 1.672 0.633 3.133t1.734 2.555 2.563 1.727 3.133 0.633zM16 32q-0.953 0-1.641-0.656-2.078-2.031-4.125-4.023t-4.125-4.023q-1.984-1.938-3.047-4.406t-1.063-5.234q0-1.922 0.516-3.68t1.438-3.273 2.211-2.75 2.844-2.117 3.328-1.359 3.664-0.477 3.664 0.477 3.328 1.359 2.844 2.117 2.219 2.75 1.438 3.273 0.508 3.68q0 2.766-1.063 5.242t-3.031 4.398q-2.078 2.031-4.133 4.023t-4.133 4.023q-0.688 0.656-1.641 0.656zM28 13.672q0-1.641-0.438-3.141t-1.234-2.797-1.906-2.359-2.438-1.813-2.852-1.156-3.133-0.406-3.133 0.406-2.852 1.156-2.438 1.813-1.906 2.359-1.234 2.797-0.438 3.141q0 2.359 0.906 4.453t2.594 3.734l8.25 8.047q0.094 0.094 0.25 0.094t0.25-0.094l8.25-8.047q1.688-1.641 2.594-3.734t0.906-4.453z"></path>
</svg>
