<!-- Generated by IcoMoon.io -->
<svg version="1.1" xmlns="http://www.w3.org/2000/svg" width="32" height="32" viewBox="0 0 32 32">
<title>uniE4EA</title>
<path d="M29.297 26.891l1.406 1.406-3.703 3.703-3.703-3.703 1.406-1.406 1.297 1.281v-8.172h2v8.172zM24.703 23.703l-1.406 1.406-1.297-1.281v8.172h-2v-8.172l-1.297 1.281-1.406-1.406 3.703-3.703zM20 17.469l-2 2v-4.156q-0.953 0.375-1.953 0.531t-2.031 0.156q-1 0-2.039-0.156t-1.977-0.531v5.344q0 0.141 0.094 0.219l0.188 0.156q0.297 0.266 0.773 0.453t1 0.305 1.039 0.164 0.906 0.047q0.859 0 1.625-0.156l-1.859 1.859 0.281 0.297h-0.047q-0.5 0-1.141-0.063t-1.305-0.219-1.305-0.406-1.141-0.625-0.805-0.875-0.305-1.156v-7.656q0-0.609 0.32-1.078t0.836-0.797 1.164-0.547 1.32-0.352 1.297-0.18 1.078-0.047 1.078 0.047 1.289 0.172 1.313 0.344 1.164 0.547 0.828 0.797 0.313 1.094v4.469zM18 12.953q-0.188-0.25-0.719-0.438t-1.148-0.297-1.211-0.164-0.906-0.055q-0.188 0-0.539 0.023t-0.773 0.078-0.875 0.141-0.836 0.203-0.656 0.273-0.352 0.344q0.203 0.266 0.742 0.438t1.156 0.289 1.211 0.164 0.922 0.047q0.297 0 0.906-0.055t1.25-0.18 1.164-0.32 0.664-0.492zM2 26h14.063l1.438 1.438v0.563h-17.5v-26h28v16h-2v-10h-24v18zM2 4v2h24v-2h-24z"></path>
</svg>
