<!-- Generated by IcoMoon.io -->
<svg version="1.1" xmlns="http://www.w3.org/2000/svg" width="32" height="32" viewBox="0 0 32 32">
<title>uniE4EB</title>
<path d="M2 2h28v26h-28v-26zM28 26v-18h-24v18h24zM28 6v-2h-24v2h24zM10 20.656v-7.656q0-0.609 0.32-1.078t0.836-0.797 1.172-0.547 1.32-0.352 1.289-0.18 1.078-0.047 1.078 0.047 1.289 0.172 1.313 0.344 1.164 0.547 0.828 0.797 0.313 1.094v7.656q0 0.641-0.305 1.141t-0.813 0.875-1.148 0.625-1.305 0.406-1.305 0.227-1.125 0.070q-0.5 0-1.141-0.063t-1.305-0.219-1.305-0.406-1.141-0.625-0.805-0.875-0.305-1.156zM20 20.656v-5.344q-0.953 0.375-1.953 0.531t-2.031 0.156q-1 0-2.039-0.156t-1.977-0.531v5.344q0 0.125 0.102 0.211t0.18 0.164q0.297 0.266 0.766 0.453t1 0.305 1.047 0.164 0.906 0.047 0.906-0.047 1.047-0.164 1-0.297 0.766-0.461l0.188-0.156t0.094-0.219zM11.984 13.063q0.203 0.266 0.742 0.438t1.156 0.289 1.211 0.164 0.922 0.047q0.297 0 0.906-0.055t1.25-0.18 1.164-0.32 0.664-0.492q-0.188-0.25-0.719-0.438t-1.148-0.297-1.211-0.164-0.906-0.055q-0.188 0-0.539 0.023t-0.773 0.078-0.875 0.141-0.836 0.203-0.656 0.273-0.352 0.344z"></path>
</svg>
