<!-- Generated by IcoMoon.io -->
<svg version="1.1" xmlns="http://www.w3.org/2000/svg" width="32" height="32" viewBox="0 0 32 32">
<title>uniE4EC</title>
<path d="M29.297 26.891l1.406 1.406-3.703 3.703-3.703-3.703 1.406-1.406 1.297 1.281v-8.172h2v8.172zM24.703 23.703l-1.406 1.406-1.297-1.281v8.172h-2v-8.172l-1.297 1.281-1.406-1.406 3.703-3.703zM2 26h14l2 2h-18v-26h26v16h-2v-10h-22v18zM2 4v2h22v-2h-22zM19.953 17.516l-2.234 2.234q0.234-0.406 0.414-0.844t0.273-0.906h-1.938q-0.078 1-0.289 1.977t-0.617 1.898l0.094-0.063-2.141 2.141q-0.125 0.016-0.258 0.031t-0.258 0.016q-1.453 0-2.727-0.555t-2.219-1.5-1.5-2.219-0.555-2.727 0.555-2.727 1.5-2.219 2.219-1.5 2.727-0.555 2.727 0.555 2.219 1.5 1.5 2.219 0.555 2.727q0 0.125-0.016 0.258t-0.031 0.258zM10.359 21.828q-0.406-0.922-0.578-1.875t-0.25-1.953h-1.938q0.219 1.219 0.945 2.227t1.82 1.602zM10.391 12.156q-1.109 0.594-1.836 1.602t-0.961 2.242h1.938q0.078-1 0.258-1.961t0.602-1.883zM14.953 18h-3.922q0.016 0.266 0.078 0.695t0.164 0.93 0.25 1.016 0.359 0.922 0.484 0.672 0.633 0.266q0.328 0 0.594-0.266t0.477-0.68 0.367-0.93 0.258-1.016 0.164-0.93 0.094-0.68zM11.031 16h3.938q-0.031-0.25-0.094-0.68t-0.172-0.93-0.266-1.016-0.367-0.93-0.477-0.68-0.594-0.266q-0.344 0-0.617 0.266t-0.484 0.68-0.367 0.922-0.258 1.008-0.164 0.938-0.078 0.688zM16.469 16h1.938q-0.234-1.25-0.984-2.266t-1.875-1.609q0.453 0.938 0.648 1.891t0.273 1.984z"></path>
</svg>
