<!-- Generated by IcoMoon.io -->
<svg version="1.1" xmlns="http://www.w3.org/2000/svg" width="32" height="32" viewBox="0 0 32 32">
<title>uniE658</title>
<path d="M20 4v4h-2v-4h2zM16 20v-2h4v2h-4zM20 12v4h-2v-4h2zM12 20h-4v-2h4v2zM20 0v2h-4v-2h4zM2 12v4h-2v-4h2zM2 4v4h-2v-4h2zM4 18v2h-4v-2h4zM12 0v2h-4v-2h4zM4 0v2h-4v-2h4zM4 16v-7.109l9.75-4.891h2.25v1.125l-8.766 4.375 8.766 4.375v2.125h-0.25l-9.75-4.891v4.891h-2zM22 4.891l8 4v16.219l-13 6.516-13-6.516v-3.109h2v1.875l10 5.016v-6.891h2v6.891l10-5.016v-12.766l-6 3.016v-2.25l4.766-2.375-4.766-2.375v-2.234z"></path>
</svg>
