<!-- Generated by IcoMoon.io -->
<svg version="1.1" xmlns="http://www.w3.org/2000/svg" width="32" height="32" viewBox="0 0 32 32">
<title>uniE5EC</title>
<path d="M4 8v2h-2v-2h2zM4 12v2h-2v-2h2zM4 4v2h-2v-2h2zM4 20v2h-2v-2h2zM4 16v2h-2v-2h2zM26 4h-2v-2h2v2zM24 0v2h-2v-2h2zM4 32v-2h2v2h-2zM24 12v-2h2v2h-2zM26 6v2h-2v-2h2zM4 0v2h-2v-2h2zM4 24v2h-2v-2h2zM22 32v-10h2v10h-2zM26 14v2h-2v-2h2zM18 2v-2h2v2h-2zM26 32v-14h2v14h-2zM18 32v-6h2v6h-2zM30 22h2v10h-2v-10zM12 0v2h-2v-2h2zM8 32v-2h2v2h-2zM14 2v-2h2v2h-2zM8 0v2h-2v-2h2zM2 28h2v2h-2v-2zM12 32v-2h2v2h-2z"></path>
</svg>
