<!-- Generated by IcoMoon.io -->
<svg version="1.1" xmlns="http://www.w3.org/2000/svg" width="32" height="32" viewBox="0 0 32 32">
<title>uniE67D</title>
<path d="M27 3q0.828 0 1.555 0.313t1.273 0.859 0.859 1.273 0.313 1.555-0.313 1.555-0.859 1.273-1.273 0.859-1.555 0.313q-0.297 0-0.586-0.055t-0.57-0.133l-6.969 11.406q0.547 0.563 0.836 1.281t0.289 1.5q0 0.828-0.313 1.555t-0.859 1.273-1.273 0.859-1.555 0.313-1.555-0.313-1.273-0.859-0.859-1.273-0.313-1.555q0-0.781 0.289-1.5t0.836-1.281l-6.969-11.406q-0.281 0.078-0.57 0.133t-0.586 0.055q-0.828 0-1.555-0.313t-1.273-0.859-0.859-1.273-0.313-1.555 0.313-1.555 0.859-1.273 1.273-0.859 1.555-0.313 1.555 0.313 1.273 0.859 0.859 1.273 0.313 1.555q0 0.781-0.289 1.5t-0.836 1.281l6.969 11.406q0.281-0.078 0.57-0.133t0.586-0.055 0.586 0.055 0.57 0.133l6.969-11.406q-0.547-0.563-0.836-1.281t-0.289-1.5q0-0.828 0.313-1.555t0.859-1.273 1.273-0.859 1.555-0.313zM5 9q0.422 0 0.781-0.156t0.633-0.43 0.43-0.633 0.156-0.781-0.156-0.781-0.43-0.633-0.633-0.43-0.781-0.156-0.781 0.156-0.633 0.43-0.43 0.633-0.156 0.781 0.156 0.781 0.43 0.633 0.633 0.43 0.781 0.156zM16 27q0.406 0 0.773-0.156t0.641-0.43 0.43-0.641 0.156-0.773-0.156-0.773-0.43-0.641-0.641-0.43-0.773-0.156-0.773 0.156-0.641 0.43-0.43 0.641-0.156 0.773 0.156 0.773 0.43 0.641 0.641 0.43 0.773 0.156zM27 9q0.422 0 0.781-0.156t0.633-0.43 0.43-0.633 0.156-0.781-0.156-0.781-0.43-0.633-0.633-0.43-0.781-0.156-0.781 0.156-0.633 0.43-0.43 0.633-0.156 0.781 0.156 0.781 0.43 0.633 0.633 0.43 0.781 0.156z"></path>
</svg>
