<!-- Generated by IcoMoon.io -->
<svg version="1.1" xmlns="http://www.w3.org/2000/svg" width="32" height="32" viewBox="0 0 32 32">
<title>uniEA90</title>
<path d="M30 26h-2v6h-26v-6h-2v-16h2v-10h19.422l6.578 6.578v3.422h2v16zM22 6h2.578l-2.578-2.578v2.578zM4 10h22v-2h-6v-6h-16v8zM26 26h-22v4h22v-4zM28 12h-26v12h26v-12zM7 14q0.625 0 1.172 0.234t0.953 0.641 0.641 0.953 0.234 1.172-0.234 1.172-0.641 0.953-0.953 0.641-1.172 0.234h-1v2h-2v-8h3zM7 18q0.406 0 0.703-0.297t0.297-0.703-0.297-0.703-0.703-0.297h-1v2h1zM14 14q0.828 0 1.555 0.313t1.273 0.859 0.859 1.273 0.313 1.555-0.313 1.555-0.859 1.273-1.273 0.859-1.555 0.313h-2v-8h2zM14 20q0.422 0 0.781-0.156t0.633-0.43 0.43-0.633 0.156-0.781-0.156-0.781-0.43-0.633-0.633-0.43-0.781-0.156v4zM20 14h5v2h-3v2h3v2h-3v2h-2v-8z"></path>
</svg>
