<!-- Generated by IcoMoon.io -->
<svg version="1.1" xmlns="http://www.w3.org/2000/svg" width="32" height="32" viewBox="0 0 32 32">
<title>uniEF7B</title>
<path d="M32 5.25q0 1.031-0.391 1.992t-1.141 1.711l-20.578 20.578-9.891 2.469 2.469-9.891 20.578-20.578q0.75-0.75 1.711-1.141t1.992-0.391q1.094 0 2.047 0.414t1.664 1.125 1.125 1.664 0.414 2.047zM30 5.25q0-0.672-0.258-1.266t-0.695-1.031-1.031-0.695-1.266-0.258q-0.594 0-1.039 0.164t-0.828 0.445-0.727 0.641-0.734 0.75l4.578 4.578q0.391-0.391 0.75-0.734t0.641-0.727 0.445-0.828 0.164-1.039zM5.094 22.313q1.672 0.547 2.859 1.734t1.734 2.859l16.891-16.906-4.578-4.578zM2.75 29.25l5.141-1.281q-0.156-0.719-0.508-1.359t-0.852-1.141-1.141-0.852-1.359-0.508zM28 24q0.828 0 1.555 0.313t1.273 0.859 0.859 1.273 0.313 1.555-0.313 1.555-0.859 1.273-1.273 0.859-1.555 0.313v-2q0.422 0 0.781-0.156t0.633-0.43 0.43-0.633 0.156-0.781-0.156-0.781-0.43-0.633-0.633-0.43-0.781-0.156h-4.578l2.531 2.547-1.406 1.406-4.969-4.953 4.969-4.953 1.406 1.406-2.531 2.547h4.578z"></path>
</svg>
