<!-- Generated by IcoMoon.io -->
<svg version="1.1" xmlns="http://www.w3.org/2000/svg" width="32" height="32" viewBox="0 0 32 32">
<title>uniED92</title>
<path d="M32 18v6h-6v-2h2.391q-0.641-0.969-1.695-1.484t-2.195-0.516q-0.844 0-1.656 0.289t-1.445 0.813-1.016 1.258-0.383 1.641h-2q0-1.328 0.539-2.43t1.445-1.898 2.078-1.234 2.438-0.438q0.813 0 1.594 0.18t1.5 0.539 1.328 0.883 1.078 1.195v-2.797h2zM25.5 30q0.844 0 1.648-0.289t1.438-0.813 1.023-1.258 0.391-1.641h2q0 1.328-0.539 2.43t-1.445 1.898-2.078 1.234-2.438 0.438q-0.813 0-1.594-0.18t-1.5-0.539-1.328-0.875-1.078-1.203v2.797h-2v-6h6v2h-2.391q0.641 0.969 1.695 1.484t2.195 0.516zM22 12q-1.234 0-2.328 0.469t-1.906 1.281-1.289 1.906-0.477 2.328q0 1.453-0.648 2.727t-1.82 2.133q0.703 0.359 1.328 0.844t1.141 1.078l-1.594 1.234q-0.844-0.953-1.992-1.477t-2.414-0.523q-1.25 0-2.336 0.469t-1.906 1.289-1.289 1.914-0.469 2.328h-2q0-1.141 0.313-2.211t0.891-2.008 1.406-1.688 1.844-1.266q-1.156-0.844-1.805-2.117t-0.648-2.711q0-1.234 0.469-2.328t1.289-1.914 1.906-1.289 2.336-0.469q1.438 0 2.711 0.648t2.117 1.805q0.594-1.172 1.523-2.102t2.102-1.523q-1.156-0.844-1.805-2.117t-0.648-2.711q0-1.234 0.469-2.328t1.289-1.914 1.906-1.289 2.336-0.469q1.234 0 2.328 0.469t1.914 1.289 1.289 1.914 0.469 2.328q0 1.438-0.641 2.711t-1.813 2.117q1.563 0.781 2.648 2.133t1.523 3.039h-2.094q-0.313-0.891-0.875-1.633t-1.297-1.266-1.617-0.813-1.836-0.289zM22 2q-0.828 0-1.555 0.313t-1.273 0.859-0.859 1.273-0.313 1.555 0.313 1.555 0.859 1.273 1.273 0.859 1.555 0.313 1.555-0.313 1.273-0.859 0.859-1.273 0.313-1.555-0.313-1.555-0.859-1.273-1.273-0.859-1.555-0.313zM10 22q0.828 0 1.555-0.313t1.273-0.859 0.859-1.273 0.313-1.555-0.313-1.563-0.852-1.273-1.273-0.852-1.563-0.313-1.555 0.313-1.273 0.859-0.859 1.273-0.313 1.555 0.313 1.555 0.859 1.273 1.273 0.859 1.555 0.313z"></path>
</svg>
