<!-- Generated by IcoMoon.io -->
<svg version="1.1" xmlns="http://www.w3.org/2000/svg" width="32" height="32" viewBox="0 0 32 32">
<title>uniE5EF</title>
<path d="M13.547 22.828q0.438 0.219 0.836 0.477t0.758 0.57l-1.281 1.531q-0.813-0.688-1.805-1.047t-2.055-0.359q-1.25 0-2.336 0.469t-1.906 1.289-1.289 1.914-0.469 2.328h-2q0-1.141 0.313-2.211t0.891-2 1.398-1.688 1.836-1.273q-1.156-0.859-1.797-2.125t-0.641-2.703q0-1.234 0.469-2.328t1.289-1.914 1.906-1.289 2.336-0.469q1.438 0 2.703 0.641t2.125 1.797q0.594-1.172 1.516-2.094t2.094-1.516q-1.156-0.859-1.797-2.125t-0.641-2.703q0-1.234 0.469-2.328t1.289-1.914 1.906-1.289 2.336-0.469q1.234 0 2.328 0.469t1.914 1.289 1.289 1.914 0.469 2.328q0 1.438-0.641 2.703t-1.797 2.125q1.016 0.516 1.836 1.273t1.398 1.688 0.891 2 0.313 2.211h-2q0-1.234-0.469-2.328t-1.289-1.914-1.914-1.289-2.328-0.469q-1.25 0-2.336 0.469t-1.906 1.289-1.289 1.914-0.469 2.328q0 1.438-0.648 2.711t-1.805 2.117zM18 6q0 0.828 0.313 1.555t0.859 1.273 1.273 0.859 1.555 0.313 1.555-0.313 1.273-0.859 0.859-1.273 0.313-1.555-0.313-1.555-0.859-1.273-1.273-0.859-1.555-0.313-1.555 0.313-1.273 0.859-0.859 1.273-0.313 1.555zM10 22q0.828 0 1.555-0.313t1.273-0.859 0.859-1.273 0.313-1.555-0.313-1.555-0.859-1.273-1.273-0.859-1.555-0.313-1.555 0.313-1.273 0.859-0.859 1.273-0.313 1.555 0.313 1.555 0.859 1.273 1.273 0.859 1.555 0.313zM31.828 27l-4.656 4.656-1.328-1.328 2.328-2.328h-8.344l2.328 2.344-1.328 1.313-4.656-4.656 4.656-4.656 1.328 1.313-2.328 2.344h8.344l-2.328-2.328 1.328-1.328z"></path>
</svg>
