<!-- Generated by IcoMoon.io -->
<svg version="1.1" xmlns="http://www.w3.org/2000/svg" width="32" height="32" viewBox="0 0 32 32">
<title>uniF349</title>
<path d="M32 24.578v7.422h-8v-4h-4v-4h-4v-3.234q-1.156 0.609-2.422 0.922t-2.578 0.313q-1.516 0-2.922-0.391t-2.625-1.109-2.227-1.727-1.727-2.227-1.109-2.625-0.391-2.922 0.391-2.922 1.109-2.625 1.727-2.227 2.227-1.727 2.625-1.109 2.922-0.391 2.922 0.391 2.625 1.109 2.227 1.727 1.727 2.227 1.109 2.625 0.391 2.922q0 0.797-0.125 1.578t-0.359 1.531zM8 11q0.625 0 1.172-0.234t0.953-0.641 0.641-0.953 0.234-1.172-0.234-1.172-0.641-0.953-0.953-0.641-1.172-0.234-1.172 0.234-0.953 0.641-0.641 0.953-0.234 1.172 0.234 1.172 0.641 0.953 0.953 0.641 1.172 0.234z"></path>
</svg>
