<!-- Generated by IcoMoon.io -->
<svg version="1.1" xmlns="http://www.w3.org/2000/svg" width="32" height="32" viewBox="0 0 32 32">
<title>uniE48D</title>
<path d="M28 4h4v14.016q-0.422-0.578-0.922-1.086t-1.078-0.93v-7.875l-2.328 1.156q-0.359-0.969-1.047-1.703l3.141-1.578h-23.531l11.766 5.875 0.125-0.047q0.078 0.5 0.25 0.984t0.438 0.906l-0.813 0.406-12-6v11.875h8v2h-10v-4h-4v-18h28v4zM2 16h2v-12h22v-2h-24v14zM32 24q0 1.656-0.633 3.109t-1.719 2.539-2.539 1.719-3.109 0.633-3.109-0.633-2.539-1.719-1.719-2.539-0.633-3.109v-4l4 4h-2q0 1.234 0.477 2.328t1.289 1.906 1.906 1.289 2.328 0.477 2.328-0.477 1.906-1.289 1.289-1.906 0.477-2.328q0-1.047-0.273-1.859t-0.727-1.461-1.047-1.164-1.242-0.992-1.32-0.945-1.258-1-1.063-1.18-0.758-1.477q-0.5-0.109-0.93-0.391t-0.734-0.672-0.477-0.867-0.172-0.992q0-0.609 0.234-1.156t0.648-0.961 0.961-0.648 1.156-0.234 1.156 0.234 0.961 0.648 0.648 0.961 0.234 1.156q0 0.844-0.445 1.563t-1.195 1.109q0.297 0.625 0.781 1.125t1.070 0.961 1.25 0.906 1.305 0.953 1.227 1.109 1.031 1.367 0.711 1.727 0.266 2.18z"></path>
</svg>
