<!-- Generated by IcoMoon.io -->
<svg version="1.1" xmlns="http://www.w3.org/2000/svg" width="32" height="32" viewBox="0 0 32 32">
<title>uniE48E</title>
<path d="M26 21q0 1.516-0.391 2.922t-1.109 2.633-1.719 2.227-2.227 1.719-2.633 1.109-2.922 0.391-2.922-0.391-2.633-1.109-2.227-1.719-1.719-2.227-1.109-2.633-0.391-2.922v-7l6 6h-4v1q0 1.859 0.711 3.5t1.93 2.859 2.859 1.93 3.5 0.711 3.5-0.711 2.859-1.93 1.93-2.859 0.711-3.5q0-1.953-0.805-3.727t-2.273-3.055q-1.125-0.984-2.258-1.969t-2.258-1.969q-0.984-0.844-1.586-2t-0.773-2.438q-0.922-0.313-1.484-1.094t-0.563-1.75q0-0.625 0.234-1.172t0.641-0.953 0.953-0.641 1.172-0.234 1.172 0.234 0.953 0.641 0.641 0.953 0.234 1.172q0 0.938-0.531 1.703t-1.406 1.109q0.141 0.875 0.57 1.625t1.086 1.328l4.516 3.938q0.891 0.781 1.594 1.727t1.188 2.008 0.734 2.219 0.25 2.344zM15 2q-0.406 0-0.703 0.297t-0.297 0.703 0.297 0.703 0.703 0.297 0.703-0.297 0.297-0.703-0.297-0.703-0.703-0.297z"></path>
</svg>
