<!-- Generated by IcoMoon.io -->
<svg version="1.1" xmlns="http://www.w3.org/2000/svg" width="32" height="32" viewBox="0 0 32 32">
<title>uniE717</title>
<path d="M25.109 18.953q0.688 0 1.32 0.258t1.117 0.742l3.438 3.438q0.484 0.484 0.742 1.117t0.258 1.32-0.258 1.32-0.742 1.117l-0.219 0.219q-0.844 0.844-1.547 1.5t-1.469 1.102-1.703 0.68-2.234 0.234q-1.953 0-4.016-0.609t-4.102-1.688-4-2.563-3.703-3.242-3.211-3.719-2.531-4-1.656-4.070-0.594-3.938q0-1.297 0.227-2.219t0.672-1.688 1.094-1.461 1.492-1.539l0.25-0.25q0.484-0.484 1.109-0.75t1.328-0.266q0.688 0 1.32 0.266t1.117 0.75l3.438 3.438q0.484 0.484 0.742 1.117t0.258 1.32-0.234 1.227-0.578 0.977-0.758 0.797-0.758 0.703-0.578 0.695-0.234 0.758q0 0.594 0.422 1.016l8.609 8.609q0.422 0.422 1.016 0.422 0.406 0 0.758-0.234t0.695-0.578 0.703-0.758 0.797-0.758 0.977-0.578 1.227-0.234zM23.813 30q1.125 0 1.883-0.211t1.367-0.609 1.188-0.992 1.328-1.344q0.422-0.422 0.422-1.016 0-0.281-0.227-0.664t-0.586-0.805-0.805-0.867-0.875-0.844-0.797-0.734-0.57-0.539q-0.422-0.422-1.031-0.422-0.406 0-0.75 0.234t-0.688 0.578-0.711 0.758-0.805 0.758-0.977 0.578-1.227 0.234-1.32-0.258-1.117-0.742l-8.609-8.609q-0.484-0.484-0.742-1.117t-0.258-1.32 0.234-1.227 0.578-0.977 0.758-0.805 0.758-0.711 0.578-0.688 0.234-0.75q0-0.609-0.422-1.031-0.203-0.203-0.539-0.57t-0.734-0.797-0.844-0.875-0.867-0.805-0.805-0.586-0.664-0.227q-0.594 0-1.016 0.422-0.75 0.75-1.336 1.328t-1 1.188-0.625 1.367-0.211 1.867q0 1.75 0.57 3.609t1.578 3.719 2.383 3.664 3 3.414 3.43 2.969 3.656 2.352 3.688 1.547 3.523 0.555z"></path>
</svg>
