<!-- Generated by IcoMoon.io -->
<svg version="1.1" xmlns="http://www.w3.org/2000/svg" width="32" height="32" viewBox="0 0 32 32">
<title>uniF0B1</title>
<path d="M4 8h2v2h-2v-2zM4 12h2v2h-2v-2zM20 10h-2v-2h2v2zM32 12v18h-24v-10h-8v-18h24v10h8zM30 14h-20v8.578l5-4.984 7 6.984 5-4.984 3 2.984v-8.578zM8 18v-6h14v-8h-2v2h-2v-2h-12v2h-2v-2h-2v14h2v-2h2v2h2zM10 28h12.578l-7.578-7.594-5 5.016v2.578zM30 28v-2.578l-3-3.016-3.578 3.594 2 2h4.578zM23 18q-0.406 0-0.703-0.297t-0.297-0.703 0.297-0.703 0.703-0.297 0.703 0.297 0.297 0.703-0.297 0.703-0.703 0.297z"></path>
</svg>
