<!-- Generated by IcoMoon.io -->
<svg version="1.1" xmlns="http://www.w3.org/2000/svg" width="32" height="32" viewBox="0 0 32 32">
<title>uniECAC</title>
<path d="M22 9q0-0.406 0.297-0.703t0.703-0.297 0.703 0.297 0.297 0.703-0.297 0.703-0.703 0.297-0.703-0.297-0.297-0.703zM28.406 25l3.547 3.547-1.406 1.406-3.547-3.547-3.547 3.547-1.406-1.406 3.547-3.547-3.547-3.547 1.406-1.406 3.547 3.547 3.547-3.547 1.406 1.406zM22.766 25l-1.016 1h-21.75v-22h28v15.75l-1 1.016-1-1.016v-13.75h-24v6.578l3-2.984 8 8 4-4 5.047 5.031-1.422 1.422-3.625-3.641-2.594 2.594 5.016 5h2.328zM16.578 24l-11.578-11.594-3 3.016v8.578h14.578z"></path>
</svg>
