<!-- Generated by IcoMoon.io -->
<svg version="1.1" xmlns="http://www.w3.org/2000/svg" width="32" height="32" viewBox="0 0 32 32">
<title>uniF526</title>
<path d="M11 6q-0.406 0-0.703-0.297t-0.297-0.703 0.297-0.703 0.703-0.297 0.703 0.297 0.297 0.703-0.297 0.703-0.703 0.297zM30 0v30h-30v-30h30zM16 14h8.578l-5.578-5.594-3 3.016v2.578zM2 2v6.578l3-2.984 8.422 8.406h0.578v-12h-12zM2 14h8.578l-5.578-5.594-3 3.016v2.578zM2 28h8.578l-5.578-5.594-3 3.016v2.578zM14 16h-12v6.578l3-2.984 8.422 8.406h0.578v-12zM16 28h8.578l-5.578-5.594-3 3.016v2.578zM28 16h-12v6.578l3-2.984 8.422 8.406h0.578v-12zM28 14v-12h-12v6.578l3-2.984 8.422 8.406h0.578zM25 4q0.406 0 0.703 0.297t0.297 0.703-0.297 0.703-0.703 0.297-0.703-0.297-0.297-0.703 0.297-0.703 0.703-0.297zM11 20q-0.406 0-0.703-0.297t-0.297-0.703 0.297-0.703 0.703-0.297 0.703 0.297 0.297 0.703-0.297 0.703-0.703 0.297zM25 20q-0.406 0-0.703-0.297t-0.297-0.703 0.297-0.703 0.703-0.297 0.703 0.297 0.297 0.703-0.297 0.703-0.703 0.297z"></path>
</svg>
