<!-- Generated by IcoMoon.io -->
<svg version="1.1" xmlns="http://www.w3.org/2000/svg" width="32" height="32" viewBox="0 0 32 32">
<title>uniF522</title>
<path d="M28 24h-24v-18h24v18zM6 8v7.594l5.5-5.5 7 6.984 3-2.984 4.5 4.484v-10.578h-20zM6 22h14.578l-9.078-9.078-5.5 5.484v3.594zM26 22v-0.578l-4.5-4.5-1.594 1.578 3.516 3.5h2.578zM23 12q-0.406 0-0.703-0.297t-0.297-0.703 0.297-0.703 0.703-0.297 0.703 0.297 0.297 0.703-0.297 0.703-0.703 0.297zM32 0v32h-32v-32h32zM30 2h-28v28h28v-28z"></path>
</svg>
