<!-- Generated by IcoMoon.io -->
<svg version="1.1" xmlns="http://www.w3.org/2000/svg" width="32" height="32" viewBox="0 0 32 32">
<title>uniF524</title>
<path d="M8 8h16v16h-16v-16zM10 22h8.578l-5.578-5.594-3 3.016v2.578zM10 10v6.578l3-2.984 8.422 8.406h0.578v-12h-12zM19 14q-0.406 0-0.703-0.297t-0.297-0.703 0.297-0.703 0.703-0.297 0.703 0.297 0.297 0.703-0.297 0.703-0.703 0.297zM13.422 5.422l-1.422-1.422 4-4 4 4-1.422 1.422-2.578-2.594zM18.578 26.578l1.422 1.422-4 4-4-4 1.422-1.422 2.578 2.594zM5.422 13.422l-2.594 2.578 2.594 2.578-1.422 1.422-4-4 4-4zM32 16l-4 4-1.422-1.422 2.594-2.578-2.594-2.578 1.422-1.422z"></path>
</svg>
