<!-- Generated by IcoMoon.io -->
<svg version="1.1" xmlns="http://www.w3.org/2000/svg" width="32" height="32" viewBox="0 0 32 32">
<title>uniEEC2</title>
<path d="M9.5 2q0.703 0 1.211 0.148t0.906 0.367 0.711 0.484 0.633 0.484 0.688 0.367 0.852 0.148h15.5q0.422 0 0.781 0.156t0.633 0.43 0.43 0.633 0.156 0.781v8h-2v-8h-15.5q-0.484 0-0.852 0.148t-0.688 0.367-0.633 0.484-0.711 0.484-0.906 0.367-1.211 0.148h-7.5v18h6v2h-8v-24q0-0.422 0.156-0.781t0.43-0.633 0.633-0.43 0.781-0.156h7.5zM9.5 6q0.375 0 0.656-0.070t0.516-0.203 0.461-0.313 0.492-0.414q-0.266-0.234-0.492-0.414t-0.461-0.313-0.516-0.203-0.656-0.070h-7.5v2h7.5zM10 16h22v16h-22v-16zM12 30h12.578l-7.578-7.594-5 5.016v2.578zM27.422 30h2.172l-3.594-3.594-1.078 1.094zM12 18v6.578l5-4.984 6.5 6.5 2.5-2.5 4 4v-9.594h-18zM27 22q-0.406 0-0.703-0.297t-0.297-0.703 0.297-0.703 0.703-0.297 0.703 0.297 0.297 0.703-0.297 0.703-0.703 0.297z"></path>
</svg>
