<!-- Generated by IcoMoon.io -->
<svg version="1.1" xmlns="http://www.w3.org/2000/svg" width="32" height="32" viewBox="0 0 32 32">
<title>uniF525</title>
<path d="M0 12h22v18h-22v-18zM2 28h13.594l-9.094-9.078-4.5 4.5v4.578zM20 28v-1.594l-3.5-3.484-1.578 1.578 3.484 3.5h1.594zM2 14v6.578l4.5-4.484 7 6.984 3-2.984 3.5 3.5v-9.594h-18zM15 18q-0.406 0-0.703-0.297t-0.297-0.703 0.297-0.703 0.703-0.297 0.703 0.297 0.297 0.703-0.297 0.703-0.703 0.297zM30 10v-4.578l-5.297 5.281-1.406-1.406 5.281-5.297h-4.578v-2h8v8h-2zM18 2h4v2h-4v-2zM16 4h-4v-2h4v2zM10 4h-4v-2h4v2zM4 4h-4v-2h4v2zM2 10h-2v-4h2v4zM32 12v4h-2v-4h2zM30 18h2v4h-2v-4zM30 24h2v4h-2v-4zM24 28h4v2h-4v-2z"></path>
</svg>
