<!-- Generated by IcoMoon.io -->
<svg version="1.1" xmlns="http://www.w3.org/2000/svg" width="32" height="32" viewBox="0 0 32 32">
<title>uniEB04</title>
<path d="M16 2q0.906 0 1.773 0.047t1.711 0.18 1.68 0.359 1.68 0.586q2.078 0.891 3.773 2.313t2.891 3.227 1.844 3.914 0.648 4.375q0 2.078-0.531 3.992t-1.508 3.586-2.344 3.039-3.039 2.344-3.586 1.508-3.992 0.531q-3.047 0-5.75-1.125t-4.859-3.266l-0.703-0.703 10.313-10.328v-14.578zM17 30q1.797 0 3.453-0.469t3.102-1.313 2.633-2.031 2.031-2.633 1.313-3.102 0.469-3.453q0-1.688-0.422-3.273t-1.188-2.984-1.859-2.578-2.422-2.055-2.875-1.414-3.234-0.664v13.391l-9.453 9.453q1.781 1.531 3.945 2.328t4.508 0.797zM14 14h-14q0-1.938 0.5-3.727t1.414-3.344 2.188-2.828 2.828-2.188 3.344-1.414 3.727-0.5v14zM12 2.156q-1.891 0.328-3.539 1.195t-2.945 2.164-2.164 2.945-1.195 3.539h9.844v-9.844zM13.5 16l-9.75 9.75q-1.844-2-2.797-4.516t-0.953-5.234h13.5zM2.156 18q0.203 1.266 0.641 2.461t1.141 2.273l4.734-4.734h-6.516z"></path>
</svg>
