<!-- Generated by IcoMoon.io -->
<svg version="1.1" xmlns="http://www.w3.org/2000/svg" width="32" height="32" viewBox="0 0 32 32">
<title>uniF530</title>
<path d="M18 0q1.938 0 3.727 0.5t3.344 1.414 2.828 2.188 2.188 2.828 1.414 3.344 0.5 3.727h-14v-14zM16 16h14q0 0.922-0.047 1.781t-0.18 1.703-0.359 1.68-0.586 1.68q-0.891 2.094-2.313 3.781t-3.227 2.883-3.914 1.844-4.375 0.648q-2.078 0-3.992-0.531t-3.586-1.508-3.039-2.344-2.344-3.039-1.508-3.586-0.531-3.992 0.531-3.992 1.508-3.586 2.344-3.039 3.039-2.344 3.586-1.508 3.992-0.531h1v14z"></path>
</svg>
