<!-- Generated by IcoMoon.io -->
<svg version="1.1" xmlns="http://www.w3.org/2000/svg" width="32" height="32" viewBox="0 0 32 32">
<title>uniEACB</title>
<path d="M24 11q0.406 0 0.703 0.297t0.297 0.703-0.297 0.703-0.703 0.297-0.703-0.297-0.297-0.703 0.297-0.703 0.703-0.297zM21 14q0.406 0 0.703 0.297t0.297 0.703-0.297 0.703-0.703 0.297-0.703-0.297-0.297-0.703q0-0.422 0.289-0.711t0.711-0.289zM18 11q0.406 0 0.703 0.297t0.297 0.703-0.297 0.703-0.703 0.297-0.703-0.297-0.297-0.703 0.297-0.703 0.703-0.297zM23.922 0q1.672 0 3.148 0.633t2.57 1.727 1.727 2.57 0.633 3.148q0 1.609-0.609 3.086t-1.75 2.617l-15.859 15.859q-1.141 1.141-2.617 1.75t-3.086 0.609q-1.672 0-3.148-0.633t-2.57-1.727-1.727-2.57-0.633-3.148q0-1.609 0.609-3.086t1.75-2.617l15.859-15.859q1.141-1.141 2.617-1.75t3.086-0.609zM8.078 30q1.219 0 2.313-0.453t1.969-1.328l7.25-7.25-8.578-8.578-7.25 7.25q-0.859 0.859-1.32 1.969t-0.461 2.328q0 1.266 0.477 2.367t1.305 1.922 1.93 1.297 2.367 0.477zM28.219 12.359q0.859-0.859 1.32-1.961t0.461-2.32q0-1.266-0.477-2.367t-1.305-1.93-1.93-1.305-2.367-0.477q-1.219 0-2.32 0.461t-1.961 1.32l-7.203 7.188 8.594 8.594z"></path>
</svg>
