<!-- Generated by IcoMoon.io -->
<svg version="1.1" xmlns="http://www.w3.org/2000/svg" width="32" height="32" viewBox="0 0 32 32">
<title>uniE718</title>
<path d="M32 8v14h-1q-1.219 0-2.234-0.523t-1.75-1.477h-7.719q-0.438 0.922-1.094 1.664t-1.477 1.258-1.766 0.797-1.961 0.281h-1v-8h-10l-2-1 2-1h10v-8h1q1.016 0 1.961 0.281t1.766 0.797 1.477 1.258 1.094 1.664h7.719q0.734-0.953 1.75-1.477t2.234-0.523h1zM30 10.172q-0.375 0.125-0.641 0.313t-0.477 0.414-0.391 0.508-0.367 0.594h-10.203l-0.234-0.672q-0.438-1.234-1.422-2.094t-2.266-1.125v13.781q1.281-0.266 2.266-1.125t1.422-2.094l0.234-0.672h10.203q0.188 0.313 0.367 0.594t0.391 0.508 0.477 0.414 0.641 0.313v-9.656z"></path>
</svg>
