<!-- Generated by IcoMoon.io -->
<svg version="1.1" xmlns="http://www.w3.org/2000/svg" width="32" height="32" viewBox="0 0 32 32">
<title>uniF676</title>
<path d="M31.094 11.688q-0.516 0.516-1.008 0.945t-1.023 0.727-1.148 0.461-1.383 0.164q-0.531 0-1.016-0.094l-5.922 5.922q0.203 0.594 0.297 1.219t0.094 1.25q0 1.016-0.203 1.852t-0.586 1.563-0.93 1.391-1.234 1.352l-6.031-6.031-8.875 8.891-2.125 0.703 0.703-2.125 8.891-8.875-6.031-6.031q0.688-0.688 1.352-1.234t1.391-0.93 1.563-0.586 1.852-0.203q0.625 0 1.25 0.094t1.219 0.297l5.922-5.922q-0.094-0.484-0.094-1.016 0-0.766 0.164-1.383t0.461-1.148 0.727-1.023 0.945-1.008z"></path>
</svg>
