<!-- Generated by IcoMoon.io -->
<svg version="1.1" xmlns="http://www.w3.org/2000/svg" width="32" height="32" viewBox="0 0 32 32">
<title>uniE353</title>
<path d="M32 8v13.328h-1.328q-0.594 0-1.18-0.125t-1.133-0.328l-15.469-15.484q1.219 0.125 2.344 0.555t2.102 1.109 1.758 1.602 1.313 2.016h4.953q0.938-1.266 2.344-1.969t2.969-0.703h1.328zM0.391 2.281l1.891-1.891 29.328 29.328-1.891 1.891-10.766-10.766q-0.656 0.75-1.453 1.336t-1.688 0.992-1.852 0.617-1.961 0.211h-1.328v-8h-8l-2.672-1.328 2.672-1.344h8v-0.781z"></path>
</svg>
