<!-- Generated by IcoMoon.io -->
<svg version="1.1" xmlns="http://www.w3.org/2000/svg" width="32" height="32" viewBox="0 0 32 32">
<title>uniF24C</title>
<path d="M32 0v32h-32v-32h32zM30 2h-28v28h28v-28zM10 10h-6v-6h6v6zM8 6h-2v2h2v-2zM10 28h-6v-16h6v16zM8 14h-2v12h2v-12zM28 10h-16v-6h16v6zM26 6h-12v2h12v-2zM15.297 26.703l-3.703-3.703 3.703-3.703 1.406 1.406-1.281 1.297h4.578q0.422 0 0.781-0.156t0.633-0.43 0.43-0.633 0.156-0.781v-4.578l-1.297 1.281-1.406-1.406 3.703-3.703 3.703 3.703-1.406 1.406-1.297-1.281v4.578q0 0.828-0.313 1.555t-0.859 1.273-1.273 0.859-1.555 0.313h-4.578l1.281 1.297z"></path>
</svg>
