<!-- Generated by IcoMoon.io -->
<svg version="1.1" xmlns="http://www.w3.org/2000/svg" width="32" height="32" viewBox="0 0 32 32">
<title>uniEDD1</title>
<path d="M27.672 1q0.547 0 0.938 0.391t0.391 0.938v15.344q0 0.547-0.391 0.938t-0.938 0.391h-7.672v4.672q0 0.547-0.391 0.938t-0.938 0.391h-6.672v4.656q0 0.281-0.102 0.523t-0.281 0.422-0.422 0.289-0.523 0.109h-6.344q-0.281 0-0.523-0.109t-0.422-0.289-0.281-0.422-0.102-0.523v-27.328q0-0.547 0.391-0.938t0.938-0.391h23.344zM18 3h-6v8h6v-8zM5 3v12h5v-12h-5zM10 29v-12h-5v12h5zM18 23v-10h-6v10h6zM27 17v-14h-7v14h7z"></path>
</svg>
