<!-- Generated by IcoMoon.io -->
<svg version="1.1" xmlns="http://www.w3.org/2000/svg" width="32" height="32" viewBox="0 0 32 32">
<title>uniF360</title>
<path d="M2 4v6h30v2h-30v18h-2v-28h32v2h-30zM4 14h2v2h-2v-2zM8 14h2v2h-2v-2zM12 14h2v2h-2v-2zM16 14h2v2h-2v-2zM20 14h2v2h-2v-2zM24 14h2v2h-2v-2zM28 14h2v2h-2v-2zM4 22h2v2h-2v-2zM8 22h2v2h-2v-2zM12 22h2v2h-2v-2zM16 22h2v2h-2v-2zM20 22h2v2h-2v-2zM24 22h2v2h-2v-2zM28 22h2v2h-2v-2zM4 18h2v2h-2v-2zM8 18h2v2h-2v-2zM12 18h2v2h-2v-2zM16 18h2v2h-2v-2zM20 18h2v2h-2v-2zM24 18h2v2h-2v-2zM28 18h2v2h-2v-2zM4 26h2v2h-2v-2zM8 26h2v2h-2v-2zM12 26h2v2h-2v-2zM16 26h2v2h-2v-2zM20 26h2v2h-2v-2z"></path>
</svg>
