<!-- Generated by IcoMoon.io -->
<svg version="1.1" xmlns="http://www.w3.org/2000/svg" width="32" height="32" viewBox="0 0 32 32">
<title>uniF302</title>
<path d="M4 19q0-1.391 0.531-2.68t1.516-2.273l3.547-3.531 9.891 9.891-3.531 3.547q-0.984 0.984-2.273 1.516t-2.68 0.531q-1.141 0-2.211-0.352t-1.977-1.039l-5.109 5.094-1.406-1.406 5.094-5.109q-0.688-0.906-1.039-1.977t-0.352-2.211zM11 24q1 0 1.914-0.383t1.617-1.086l2.125-2.125-7.063-7.063-2.125 2.125q-0.703 0.703-1.086 1.617t-0.383 1.914q0 1.031 0.391 1.945t1.070 1.594 1.594 1.070 1.945 0.391zM24.609 6.813q0.688 0.906 1.039 1.977t0.352 2.211q0 1.391-0.531 2.68t-1.516 2.273l-3.547 3.531-9.891-9.891 3.531-3.547q0.984-0.984 2.273-1.516t2.68-0.531q1.141 0 2.211 0.352t1.977 1.039l5.109-5.094 1.406 1.406zM22.531 14.531q0.703-0.703 1.086-1.617t0.383-1.914q0-1.031-0.398-1.938t-1.078-1.586-1.586-1.078-1.938-0.398q-1 0-1.914 0.383t-1.617 1.086l-2.125 2.125 7.063 7.063z"></path>
</svg>
