<!-- Generated by IcoMoon.io -->
<svg version="1.1" xmlns="http://www.w3.org/2000/svg" width="32" height="32" viewBox="0 0 32 32">
<title>uniECAF</title>
<path d="M16 0q1.375 0 2.656 0.359t2.391 1.008 2.023 1.563 1.563 2.023 1.008 2.391 0.359 2.656q0 1.078-0.258 2.055t-0.742 1.945l-9 18-9-18q-0.484-0.969-0.742-1.945t-0.258-2.055q0-1.375 0.359-2.656t1.008-2.391 1.563-2.023 2.023-1.563 2.391-1.008 2.656-0.359zM23.438 13.219q0-0.016 0.008-0.016t0.008-0.016q0.391-0.734 0.594-1.547t0.203-1.641q0-1.703-0.648-3.203t-1.773-2.625-2.625-1.773-3.203-0.648-3.203 0.648-2.625 1.773-1.773 2.625-0.648 3.203q0 0.828 0.203 1.641t0.594 1.547q0 0.016 0.008 0.016t0.008 0.016l7.438 14.875zM16 4.125q1.219 0 2.289 0.461t1.867 1.258 1.258 1.867 0.461 2.289-0.461 2.289-1.258 1.867-1.867 1.258-2.289 0.461-2.289-0.461-1.867-1.258-1.258-1.867-0.461-2.289 0.461-2.289 1.258-1.867 1.867-1.258 2.289-0.461zM16 14.125q0.859 0 1.609-0.32t1.313-0.883 0.883-1.313 0.32-1.609-0.32-1.609-0.883-1.313-1.313-0.883-1.609-0.32-1.609 0.32-1.313 0.883-0.883 1.313-0.32 1.609 0.32 1.609 0.883 1.313 1.313 0.883 1.609 0.32z"></path>
</svg>
