<!-- Generated by IcoMoon.io -->
<svg version="1.1" xmlns="http://www.w3.org/2000/svg" width="32" height="32" viewBox="0 0 32 32">
<title>uniE5FC</title>
<path d="M12 24q-1.672 0-3.203-0.43t-2.867-1.203-2.43-1.867-1.867-2.43-1.203-2.875-0.43-3.195 0.43-3.195 1.211-2.867 1.875-2.422 2.422-1.875 2.867-1.211 3.195-0.43 3.188 0.43 2.867 1.211 2.43 1.875 1.875 2.43 1.211 2.867 0.43 3.188-0.43 3.195-1.211 2.867-1.875 2.422-2.422 1.875-2.867 1.211-3.195 0.43zM22.5 12q0-0.766-0.109-1.516t-0.328-1.484h-4.25q0.188 1.5 0.188 3t-0.188 3h4.25q0.219-0.734 0.328-1.484t0.109-1.516zM15.438 2.078q0.875 1.203 1.367 2.594t0.773 2.828h3.906q-0.453-0.938-1.078-1.773t-1.406-1.539-1.68-1.242-1.883-0.867zM16.5 12q0-0.75-0.055-1.5t-0.148-1.5h-8.594q-0.094 0.75-0.148 1.5t-0.055 1.5q0 0.766 0.055 1.508t0.148 1.492h8.594q0.094-0.75 0.148-1.5t0.055-1.5zM7.953 7.5h8.094q-0.094-0.453-0.273-1.078t-0.438-1.289-0.594-1.32-0.75-1.164-0.914-0.828-1.078-0.32-1.078 0.32-0.914 0.828-0.75 1.164-0.594 1.32-0.438 1.289-0.273 1.078zM2.516 7.5h3.906q0.281-1.438 0.773-2.828t1.367-2.594q-0.984 0.328-1.883 0.867t-1.68 1.242-1.414 1.539-1.070 1.773zM1.5 12q0 0.766 0.109 1.516t0.328 1.484h4.25q-0.188-1.5-0.188-3t0.188-3h-4.25q-0.219 0.734-0.328 1.484t-0.109 1.516zM8.563 21.922q-0.875-1.203-1.359-2.586t-0.781-2.836h-3.906q0.438 0.938 1.070 1.781t1.414 1.539 1.68 1.234 1.883 0.867zM16.047 16.5h-8.094q0.094 0.469 0.273 1.086t0.438 1.289 0.586 1.32 0.75 1.164 0.922 0.828 1.078 0.313 1.078-0.32 0.922-0.828 0.75-1.164 0.586-1.32 0.438-1.289 0.273-1.078zM21.484 16.5h-3.906q-0.297 1.453-0.781 2.836t-1.359 2.586q0.984-0.328 1.883-0.867t1.68-1.234 1.406-1.539 1.078-1.781zM32 25v2h-5v5h-2v-5h-5v-2h5v-5h2v5h5z"></path>
</svg>
