<!-- Generated by IcoMoon.io -->
<svg version="1.1" xmlns="http://www.w3.org/2000/svg" width="32" height="32" viewBox="0 0 32 32">
<title>uniF4B1</title>
<path d="M31.563 15q0 0.875-0.578 1.531l-9.328 10.672q-0.328 0.375-0.797 0.586t-0.969 0.211h-17.453q-0.484 0-0.906-0.188t-0.742-0.5-0.5-0.742-0.18-0.914q0-0.875 0.578-1.531l7.984-9.125-7.984-9.125q-0.578-0.656-0.578-1.531 0-0.484 0.18-0.914t0.5-0.742 0.742-0.5 0.906-0.188h17.453q0.5 0 0.969 0.211t0.797 0.586l9.328 10.672q0.578 0.656 0.578 1.531zM10 13.484l8.234-9.484h-15.797q-0.141 0-0.234 0.102t-0.094 0.242q0 0.094 0.078 0.203zM2.438 26h7.453l14.813-16.672-4.234-4.844q-4.563 5.25-9.133 10.492t-9.148 10.477q-0.078 0.109-0.078 0.203 0 0.141 0.094 0.242t0.234 0.102zM29.563 15q0-0.109-0.078-0.219l-3.453-3.938-13.469 15.156h7.328q0.141 0 0.25-0.109l9.344-10.672q0.078-0.109 0.078-0.219z"></path>
</svg>
