<!-- Generated by IcoMoon.io -->
<svg version="1.1" xmlns="http://www.w3.org/2000/svg" width="32" height="32" viewBox="0 0 32 32">
<title>uniF393</title>
<path d="M10.281 15.422h-1.406v-3.063h1.469q0.797 0 1.242 0.313t0.445 1.172q0 0.891-0.461 1.234t-1.289 0.344zM16 0q2.203 0 4.25 0.57t3.82 1.617 3.234 2.508 2.508 3.234 1.617 3.82 0.57 4.25-0.57 4.25-1.617 3.82-2.508 3.234-3.234 2.508-3.82 1.617-4.25 0.57q-1.828 0-3.578-0.406t-3.352-1.172-3.008-1.883-2.547-2.539h-1.516q-0.406 0-0.773-0.156t-0.641-0.43-0.43-0.641-0.156-0.773v-16q0-0.406 0.156-0.773t0.43-0.641 0.641-0.43 0.773-0.156h1.516q1.141-1.422 2.547-2.539t3.008-1.883 3.352-1.172 3.578-0.406zM18 2.141v3.859q0.406 0 0.773 0.164t0.641 0.43 0.43 0.625 0.156 0.781v6h9.859q-0.328-2.297-1.367-4.313t-2.602-3.578-3.578-2.602-4.313-1.367zM16 2q-2.766 0-5.289 1.031t-4.492 2.969h9.781v-4zM5.641 9.5v13h3.234v-4.25h1.656q1.016 0 1.898-0.305t1.539-0.883 1.031-1.414 0.375-1.898q0-1.094-0.352-1.898t-0.969-1.328-1.484-0.773-1.898-0.25h-5.031zM16 30q1.922 0 3.711-0.5t3.344-1.414 2.836-2.195 2.195-2.844 1.414-3.344 0.5-3.719h-10v8.016q0 0.406-0.156 0.773t-0.43 0.641-0.641 0.43-0.773 0.156h-11.781q1.969 1.938 4.492 2.969t5.289 1.031z"></path>
</svg>
