<!-- Generated by IcoMoon.io -->
<svg version="1.1" xmlns="http://www.w3.org/2000/svg" width="32" height="32" viewBox="0 0 32 32">
<title>uniEA1E</title>
<path d="M27.672 0q0.484 0 0.906 0.188t0.734 0.5 0.5 0.734 0.188 0.906v27.344q0 0.484-0.188 0.906t-0.5 0.742-0.734 0.5-0.906 0.18h-25.344q-0.484 0-0.906-0.18t-0.742-0.5-0.5-0.742-0.18-0.906v-11.344q0-0.484 0.18-0.906t0.5-0.734 0.742-0.5 0.906-0.188h5.672v-5.672q0-0.484 0.18-0.906t0.5-0.734 0.742-0.5 0.906-0.188h5.672v-5.672q0-0.484 0.18-0.906t0.5-0.734 0.742-0.5 0.906-0.188h9.344zM12 30v-11.656q0-0.141-0.102-0.242t-0.242-0.102h-9.328q-0.125 0-0.227 0.102t-0.102 0.227v11.344q0 0.125 0.102 0.227t0.227 0.102h9.672zM20 30v-19.672q0-0.125-0.102-0.227t-0.227-0.102h-9.344q-0.125 0-0.227 0.102t-0.102 0.227v5.672h1.656q0.484 0 0.914 0.188t0.742 0.5 0.5 0.742 0.188 0.914v11.656h6zM28 29.672v-27.344q0-0.125-0.102-0.227t-0.227-0.102h-9.344q-0.125 0-0.227 0.102t-0.102 0.227v5.672h1.672q0.484 0 0.906 0.188t0.734 0.5 0.5 0.734 0.188 0.906v19.672h5.672q0.125 0 0.227-0.102t0.102-0.227z"></path>
</svg>
