<!-- Generated by IcoMoon.io -->
<svg version="1.1" xmlns="http://www.w3.org/2000/svg" width="32" height="32" viewBox="0 0 32 32">
<title>uniEF72</title>
<path d="M32 7.422v22.578q0 0.422-0.156 0.781t-0.43 0.633-0.633 0.43-0.781 0.156h-20q-0.422 0-0.781-0.156t-0.633-0.43-0.43-0.633-0.156-0.781v-4h-6.203q-0.375 0-0.695-0.141t-0.57-0.391-0.391-0.57-0.141-0.695v-14.406q0-0.375 0.141-0.695t0.391-0.57 0.57-0.391 0.695-0.141h6.203v-6q0-0.422 0.156-0.781t0.43-0.633 0.633-0.43 0.781-0.156h14.578q0.406 0 0.773 0.148t0.648 0.43l5.422 5.422q0.281 0.281 0.43 0.648t0.148 0.773zM26 3.422v2.578h2.578zM5.75 11.75v10.5h2.344v-3.531h1.563q0.813 0 1.516-0.242t1.227-0.711 0.828-1.133 0.305-1.508q0-0.875-0.273-1.516t-0.773-1.055-1.188-0.609-1.516-0.195h-4.031zM30 30v-22h-4q-0.422 0-0.781-0.156t-0.633-0.43-0.43-0.633-0.156-0.781v-4h-14v6h6.203q0.375 0 0.695 0.141t0.57 0.391 0.391 0.57 0.141 0.695v14.406q0 0.375-0.141 0.695t-0.391 0.57-0.57 0.391-0.695 0.141h-6.203v4h20zM24 10q1.234 0 2.328 0.469t1.914 1.289 1.289 1.914 0.469 2.328h-6v-6zM22 12v6h6q0 1.25-0.469 2.336t-1.289 1.906-1.914 1.289-2.328 0.469q-0.516 0-1.016-0.102t-0.984-0.273v-11.25q0.484-0.172 0.984-0.273t1.016-0.102zM9.438 16.688h-1.344v-2.891h1.406q0.734 0 1.156 0.313t0.422 1.094q0 0.813-0.438 1.148t-1.203 0.336z"></path>
</svg>
