<!-- Generated by IcoMoon.io -->
<svg version="1.1" xmlns="http://www.w3.org/2000/svg" width="32" height="32" viewBox="0 0 32 32">
<title>uniF091</title>
<path d="M31.875 16.031q0 0.406-0.133 0.781t-0.398 0.688l-11.078 13.469q-0.344 0.406-0.805 0.633t-0.992 0.227q-0.516 0-0.914-0.195t-0.727-0.5-0.609-0.68-0.578-0.734q-0.297 0.375-0.563 0.742t-0.57 0.656-0.688 0.469-0.914 0.18-1.016-0.234-0.813-0.641l-10.641-13.422q-0.5-0.625-0.5-1.453 0-0.391 0.125-0.766t0.375-0.688l10.641-13.406q0.328-0.422 0.805-0.656t1.023-0.234q0.516 0 0.906 0.18t0.695 0.469 0.578 0.656 0.555 0.742q0.297-0.359 0.578-0.734t0.609-0.68 0.727-0.5 0.914-0.195q0.531 0 0.992 0.227t0.805 0.633l11.078 13.469q0.531 0.656 0.531 1.5zM13.453 8.234q0 0.094 0.078 0.203l4.938 6 4.594-5.594q0.125-0.156 0.273-0.281t0.32-0.219l-4.938-6q-0.094-0.125-0.25-0.125t-0.25 0.125l-4.688 5.672q-0.078 0.109-0.078 0.219zM14.344 28.141l-2.359-2.859q-0.531-0.625-0.531-1.484 0-0.406 0.133-0.789t0.398-0.695l5.016-6.078q0.063-0.078 0.063-0.219 0-0.125-0.063-0.203l-5.016-6.094q-0.531-0.656-0.531-1.484t0.531-1.484l2.359-2.859-1.172-1.5q-0.094-0.109-0.266-0.109t-0.266 0.109l-10.625 13.422q-0.078 0.109-0.078 0.203 0 0.078 0.023 0.117t0.055 0.086l10.625 13.422q0.094 0.125 0.266 0.125t0.266-0.125zM23.656 23.703q-0.344-0.219-0.594-0.516l-4.594-5.594-4.938 6q-0.078 0.109-0.078 0.219 0 0.094 0.078 0.203l4.688 5.688q0.094 0.125 0.25 0.125t0.25-0.125zM29.875 15.984q0-0.031-0.023-0.086t-0.055-0.086l-4.688-5.703q-0.094-0.109-0.234-0.109-0.172 0-0.266 0.125l-4.672 5.688q-0.078 0.109-0.078 0.203 0 0.109 0.078 0.219l4.672 5.672q0.094 0.125 0.25 0.125 0.172 0 0.266-0.125l4.672-5.672q0.078-0.094 0.078-0.25z"></path>
</svg>
