<!-- Generated by IcoMoon.io -->
<svg version="1.1" xmlns="http://www.w3.org/2000/svg" width="32" height="32" viewBox="0 0 32 32">
<title>uniE55C</title>
<path d="M15 0v16h-2v-16h2zM13.891 30q0.813 1.063 1.813 1.891-0.422 0.047-0.852 0.078t-0.852 0.031q-1.938 0-3.719-0.5t-3.336-1.414-2.836-2.195-2.195-2.836-1.414-3.344-0.5-3.711q0-2.281 0.695-4.383t1.969-3.852 3.063-3.063 3.961-2.016l0.625 1.891q-1.859 0.609-3.391 1.734t-2.625 2.625-1.695 3.305-0.602 3.758q0 1.641 0.422 3.164t1.203 2.852 1.859 2.422 2.406 1.883 2.844 1.227 3.156 0.453zM24.094 11.563q-1.125-1.766-2.766-3.047t-3.641-1.938l0.625-1.891q1.391 0.453 2.641 1.172t2.32 1.664 1.93 2.102 1.469 2.484q-1.266-0.422-2.578-0.547zM23 14q1.859 0 3.5 0.711t2.859 1.93 1.93 2.859 0.711 3.5-0.711 3.5-1.93 2.859-2.859 1.93-3.5 0.711-3.5-0.711-2.859-1.93-1.93-2.859-0.711-3.5 0.711-3.5 1.93-2.859 2.859-1.93 3.5-0.711zM23 30q1.453 0 2.727-0.555t2.219-1.5 1.5-2.219 0.555-2.727-0.555-2.727-1.5-2.219-2.219-1.5-2.727-0.555-2.727 0.555-2.219 1.5-1.5 2.219-0.555 2.727 0.555 2.727 1.5 2.219 2.219 1.5 2.727 0.555zM24 18v4h3v2h-5v-6h2z"></path>
</svg>
