<!-- Generated by IcoMoon.io -->
<svg version="1.1" xmlns="http://www.w3.org/2000/svg" width="32" height="32" viewBox="0 0 32 32">
<title>uniF790</title>
<path d="M6 17.859q0.422 0 0.789 0.172t0.641 0.453 0.422 0.656 0.148 0.797v4.781q0 0.422-0.148 0.797t-0.422 0.664-0.641 0.453-0.789 0.164-0.789-0.164-0.641-0.453-0.422-0.664-0.148-0.797v-4.781q0-0.422 0.148-0.797t0.422-0.656 0.641-0.453 0.789-0.172zM12 10.375q0.422 0 0.789 0.164t0.641 0.453 0.422 0.664 0.148 0.797v12.266q0 0.422-0.148 0.797t-0.422 0.664-0.641 0.453-0.789 0.164-0.789-0.164-0.641-0.453-0.422-0.664-0.148-0.797v-12.266q0-0.422 0.148-0.797t0.422-0.664 0.641-0.453 0.789-0.164zM24 5.203q0.422 0 0.789 0.172t0.641 0.453 0.422 0.656 0.148 0.797v17.375q0 0.422-0.148 0.797t-0.422 0.664-0.641 0.453-0.789 0.164-0.789-0.164-0.633-0.445-0.422-0.656-0.156-0.797v-17.391q0-0.422 0.148-0.797t0.422-0.664 0.641-0.453 0.789-0.164zM18 13.516q0.422 0 0.789 0.172t0.641 0.453 0.422 0.656 0.148 0.797v9.125q0 0.422-0.148 0.797t-0.422 0.656-0.641 0.453-0.789 0.172-0.789-0.164-0.641-0.453-0.422-0.664-0.148-0.797v-9.125q0-0.422 0.156-0.797t0.422-0.656 0.633-0.453 0.789-0.172z"></path>
</svg>
