<!-- Generated by IcoMoon.io -->
<svg version="1.1" xmlns="http://www.w3.org/2000/svg" width="32" height="32" viewBox="0 0 32 32">
<title>uniE4AC</title>
<path d="M14 0v2h-2v-2h2zM2 16v2h-2v-2h2zM2 0v2h-2v-2h2zM2 8v2h-2v-2h2zM2 12v2h-2v-2h2zM2 4v2h-2v-2h2zM22 0v2h-2v-2h2zM24 4h-2v-2h2v2zM18 0v2h-2v-2h2zM22 8v-2h2v2h-2zM19.047 15.063q0-0.422 0.266-0.734l2.578-3.234q0.172-0.219 0.406-0.328t0.5-0.109q0.578 0 0.922 0.438l2.578 3.234q0.25 0.297 0.25 0.734 0 0.188-0.063 0.375t-0.188 0.344l-2.578 3.234q-0.344 0.438-0.922 0.438-0.266 0-0.5-0.109t-0.406-0.328l-2.578-3.234q-0.266-0.313-0.266-0.719zM0 28h2v2h-2v-2zM18.906 30.25q0 0.453-0.258 0.75t-0.539 0.609q-0.344 0.391-0.875 0.391-0.266 0-0.516-0.125t-0.422-0.344l-7.375-9.828q-0.234-0.297-0.234-0.703 0-0.391 0.234-0.703l7.375-9.828q0.172-0.219 0.422-0.344t0.516-0.125q0.25 0 0.445 0.086t0.352 0.227 0.297 0.32 0.297 0.352q0.297 0.344 0.297 0.766t-0.289 0.852-0.633 0.859-0.633 0.852-0.289 0.844q0 0.391 0.25 0.719l3.375 4.422q0.234 0.313 0.234 0.703 0 0.406-0.234 0.703l-3.375 4.5q-0.234 0.313-0.234 0.703 0 0.438 0.281 0.852t0.625 0.828 0.625 0.828 0.281 0.836zM10 32v-2h2v2h-2zM32 21.016q0 0.188-0.063 0.375t-0.188 0.344l-2.594 3.234q-0.172 0.203-0.406 0.32t-0.5 0.117-0.5-0.117-0.406-0.32l-2.594-3.234q-0.266-0.313-0.266-0.719 0-0.422 0.266-0.734l2.594-3.234q0.172-0.203 0.406-0.32t0.5-0.117 0.5 0.117 0.406 0.32l2.594 3.234q0.25 0.297 0.25 0.734zM26.547 26.969q0 0.188-0.063 0.375t-0.188 0.344l-2.578 3.234q-0.344 0.438-0.922 0.438-0.266 0-0.5-0.109t-0.406-0.328l-2.578-3.234q-0.266-0.313-0.266-0.719 0-0.422 0.266-0.734l2.578-3.234q0.172-0.219 0.406-0.328t0.5-0.109q0.578 0 0.922 0.438l2.578 3.234q0.25 0.297 0.25 0.734zM10 0v2h-2v-2h2zM2 24v2h-2v-2h2zM2 20v2h-2v-2h2zM2 32v-2h2v2h-2zM6 32v-2h2v2h-2zM6 0v2h-2v-2h2z"></path>
</svg>
