<!-- Generated by IcoMoon.io -->
<svg version="1.1" xmlns="http://www.w3.org/2000/svg" width="32" height="32" viewBox="0 0 32 32">
<title>uniEC2A</title>
<path d="M18 2q1.938 0 3.727 0.5t3.344 1.414 2.828 2.188 2.188 2.828 1.414 3.344 0.5 3.727-0.5 3.727-1.414 3.344-2.188 2.828-2.828 2.188-3.344 1.414-3.727 0.5q-1.719 0-3.359-0.406t-3.117-1.18-2.75-1.891-2.258-2.523h-5.188q-0.547 0-0.938-0.391t-0.391-0.938v-13.344q0-0.547 0.391-0.938t0.938-0.391h5.188q0.984-1.406 2.258-2.523t2.75-1.891 3.117-1.18 3.359-0.406zM19 4.047v10.953h10.953q-0.188-2.188-1.102-4.102t-2.375-3.375-3.383-2.375-4.094-1.102zM11.984 14.141q0-0.906-0.305-1.555t-0.836-1.055-1.25-0.594-1.563-0.188h-4.234v10.484h2.453v-3.656h1.656q0.766 0 1.492-0.227t1.305-0.656 0.93-1.070 0.352-1.484zM18 28q1.563 0 3.016-0.383t2.742-1.094 2.367-1.703 1.891-2.219 1.313-2.648 0.625-2.969h-12.938v-12.938q-2.313 0.188-4.359 1.211t-3.594 2.742h5.609q0.547 0 0.938 0.391t0.391 0.938v13.344q0 0.547-0.391 0.938t-0.938 0.391h-5.609q0.859 0.953 1.883 1.695t2.164 1.258 2.375 0.781 2.516 0.266zM7.75 12.797q0.766 0 1.219 0.305t0.453 1.117q0 0.359-0.164 0.586t-0.414 0.367-0.563 0.195-0.594 0.055h-1.438v-2.625h1.5z"></path>
</svg>
