<!-- Generated by IcoMoon.io -->
<svg version="1.1" xmlns="http://www.w3.org/2000/svg" width="32" height="32" viewBox="0 0 32 32">
<title>uniE9CF</title>
<path d="M25.109 18.219q0.438 0.891 0.664 1.844t0.227 1.938q0 1.375-0.359 2.656t-1.008 2.391-1.563 2.023-2.023 1.563-2.391 1.008-2.656 0.359-2.656-0.359-2.391-1.008-2.023-1.563-1.563-2.023-1.008-2.391-0.359-2.656q0-0.984 0.227-1.938t0.664-1.844l9.109-18.219zM16 30q1.656 0 3.117-0.625t2.547-1.711 1.711-2.547 0.625-3.117q0-0.75-0.172-1.484t-0.516-1.406l-7.313-14.641-7.313 14.641q-0.344 0.672-0.516 1.406t-0.172 1.484q0 1.656 0.625 3.117t1.711 2.547 2.547 1.711 3.117 0.625z"></path>
</svg>
