<!-- Generated by IcoMoon.io -->
<svg version="1.1" xmlns="http://www.w3.org/2000/svg" width="32" height="32" viewBox="0 0 32 32">
<title>uniE8FF</title>
<path d="M17.422 0l8.578 8.578v1.422h-10v-10h1.422zM18 8h4.578l-4.578-4.578v4.578zM24 14v-2h2v2h-2zM24 18v-2h2v2h-2zM24 22v-2h2v2h-2zM24 26v-2h2v2h-2zM24 30v-2h2v2h-2zM20 30v-2h2v2h-2zM16 30v-2h2v2h-2zM12 30v-2h2v2h-2zM8 30v-2h2v2h-2zM4 30v-2h2v2h-2zM4 14v-2h2v2h-2zM4 10v-2h2v2h-2zM4 6v-2h2v2h-2zM4 2v-2h2v2h-2zM8 2v-2h2v2h-2zM12 2v-2h2v2h-2zM4 18v-2h2v2h-2zM4 22v-2h2v2h-2zM4 26v-2h2v2h-2z"></path>
</svg>
