<!-- Generated by IcoMoon.io -->
<svg version="1.1" xmlns="http://www.w3.org/2000/svg" width="32" height="32" viewBox="0 0 32 32">
<title>uniE5D6</title>
<path d="M10 16q1.234 0 2.328 0.477t1.906 1.289 1.289 1.906 0.477 2.328-0.477 2.328-1.289 1.906-1.906 1.289-2.328 0.477q-0.938 0-1.828-0.281t-1.641-0.828l-5.094 5.078-1.406-1.406 5.078-5.094q-0.547-0.75-0.828-1.641t-0.281-1.828q0-1.234 0.477-2.328t1.289-1.906 1.906-1.289 2.328-0.477zM10 26q0.813 0 1.547-0.32t1.273-0.859 0.859-1.266 0.32-1.555q0-0.813-0.32-1.547t-0.859-1.273-1.273-0.859-1.547-0.32q-0.828 0-1.555 0.32t-1.266 0.859-0.859 1.273-0.32 1.547q0 0.828 0.32 1.555t0.859 1.266 1.266 0.859 1.555 0.32zM10 14v-14h10v22h-2q0-0.5-0.078-1t-0.203-1h0.281v0.359-18.359h-6v12.281q-0.5-0.125-1-0.203t-1-0.078zM22 0h10v22h-10v-22zM30 20v-18h-6v18h6z"></path>
</svg>
