<!-- Generated by IcoMoon.io -->
<svg version="1.1" xmlns="http://www.w3.org/2000/svg" width="32" height="32" viewBox="0 0 32 32">
<title>uniE749</title>
<path d="M30 12q0.406 0 0.773 0.156t0.641 0.43 0.43 0.641 0.156 0.773v14h-8v4h-16v-4h-8v-14q0-0.406 0.156-0.773t0.43-0.641 0.641-0.43 0.773-0.156h6v-12h16v12h6zM10 12h12v-10h-12v10zM22 22h-12v8h12v-8zM30 14h-28v12h6v-6h16v6h6v-12zM5 16q0.406 0 0.703 0.297t0.297 0.703-0.297 0.703-0.703 0.297-0.703-0.297-0.297-0.703 0.297-0.703 0.703-0.297z"></path>
</svg>
