<!-- Generated by IcoMoon.io -->
<svg version="1.1" xmlns="http://www.w3.org/2000/svg" width="32" height="32" viewBox="0 0 32 32">
<title>uniE9F3</title>
<path d="M4.281 23.563q1.641 2.516 4.156 4.156l-0.766 1.859q-1.609-0.984-2.938-2.313t-2.313-2.938zM2.359 13.063q-0.172 0.734-0.266 1.461t-0.094 1.477 0.094 1.484 0.266 1.469l-1.859 0.766q-0.219-0.922-0.359-1.852t-0.141-1.867 0.141-1.867 0.359-1.852zM16 30q0.75 0 1.484-0.094t1.469-0.266l0.766 1.859q-0.922 0.219-1.852 0.359t-1.867 0.141-1.867-0.141-1.852-0.359l0.766-1.859q0.734 0.172 1.469 0.266t1.484 0.094zM31.5 12.281q0.219 0.922 0.352 1.852t0.133 1.867-0.133 1.867-0.352 1.852l-1.859-0.766q0.172-0.734 0.266-1.469t0.094-1.484-0.094-1.477-0.266-1.461zM27.703 8.438q-0.797-1.25-1.844-2.297t-2.297-1.844l0.766-1.859q1.609 0.984 2.938 2.305t2.313 2.93zM23.563 27.719q2.516-1.641 4.156-4.156l1.859 0.766q-0.984 1.609-2.313 2.938t-2.938 2.313zM4 0h8v8h-2v-4.578q-1.75 0.828-3.219 2.094t-2.516 2.906l-1.875-0.766q1.094-1.781 2.594-3.211t3.328-2.445h-4.313v-2z"></path>
</svg>
