<!-- Generated by IcoMoon.io -->
<svg version="1.1" xmlns="http://www.w3.org/2000/svg" width="32" height="32" viewBox="0 0 32 32">
<title>uniF290</title>
<path d="M14.859 16.203q0.547-0.797 1.344-1.344l-0.813-1.938 1.859-0.766 0.797 1.938q0.469-0.094 0.953-0.094t0.953 0.094l0.797-1.938 1.859 0.766-0.813 1.938q0.406 0.266 0.742 0.602t0.602 0.742l1.938-0.813 0.766 1.859-1.938 0.797q0.094 0.469 0.094 0.953t-0.094 0.953l1.938 0.797-0.766 1.859-1.938-0.813q-0.266 0.406-0.602 0.742t-0.742 0.602l0.813 1.938-1.859 0.766-0.797-1.938q-0.469 0.094-0.953 0.094t-0.953-0.094l-0.797 1.938-1.859-0.766 0.813-1.938q-0.797-0.547-1.344-1.344l-1.938 0.813-0.766-1.859 1.938-0.797q-0.094-0.469-0.094-0.953t0.094-0.953l-1.938-0.797 0.766-1.859zM22 19q0-0.625-0.234-1.172t-0.641-0.953-0.953-0.641-1.172-0.234-1.172 0.234-0.953 0.641-0.641 0.953-0.234 1.172 0.234 1.172 0.641 0.953 0.953 0.641 1.172 0.234q0.609 0 1.156-0.234t0.961-0.648 0.648-0.961 0.234-1.156zM4.172 12.641l1.875-1.094q-0.047-0.281-0.047-0.547t0.047-0.547l-1.875-1.094 1-1.719 1.891 1.078q0.453-0.359 0.938-0.531v-2.188h2v2.188q0.484 0.172 0.938 0.531l1.891-1.078 1 1.719-1.875 1.094q0.047 0.281 0.047 0.547t-0.047 0.547l1.875 1.094-1 1.719-1.891-1.078q-0.219 0.172-0.445 0.305t-0.492 0.227v2.188h-2v-2.188q-0.266-0.094-0.492-0.227t-0.445-0.305l-1.891 1.078zM9 9.5q-0.625 0-1.063 0.438t-0.438 1.063 0.438 1.063 1.063 0.438 1.063-0.438 0.438-1.063-0.438-1.063-1.063-0.438zM30 0v32h-30v-32h30zM28 2h-26v28h26v-28z"></path>
</svg>
