<!-- Generated by IcoMoon.io -->
<svg version="1.1" xmlns="http://www.w3.org/2000/svg" width="32" height="32" viewBox="0 0 32 32">
<title>uniE405</title>
<path d="M30.156 9.844q0 0.719-0.156 1.344l1.922 0.797-0.75 1.844-1.938-0.797q-0.734 1.156-1.891 1.891l0.797 1.938-1.844 0.766-0.797-1.938q-0.625 0.156-1.344 0.156t-1.344-0.156l-0.797 1.938-1.844-0.766 0.797-1.938q-1.156-0.734-1.891-1.891l-1.938 0.797-0.766-1.844 1.938-0.797q-0.156-0.625-0.156-1.344t0.156-1.344l-1.938-0.797 0.766-1.844 1.938 0.797q0.734-1.156 1.891-1.891l-0.797-1.922 1.844-0.766 0.797 1.922q0.625-0.156 1.344-0.156t1.344 0.156l0.797-1.922 1.844 0.766-0.797 1.922q1.156 0.734 1.891 1.891l1.938-0.797 0.75 1.844-1.922 0.797q0.156 0.625 0.156 1.344zM24.156 13.844q0.828 0 1.555-0.313t1.273-0.859 0.859-1.273 0.313-1.555-0.313-1.555-0.859-1.273-1.273-0.859-1.555-0.313-1.555 0.313-1.273 0.859-0.859 1.273-0.313 1.555 0.313 1.555 0.859 1.273 1.273 0.859 1.555 0.313zM17.313 16.375l0.766 1.859-2.141 0.875q0.219 0.875 0.219 1.734t-0.219 1.734l2.141 0.891-0.766 1.844-2.141-0.891q-0.469 0.797-1.063 1.375t-1.375 1.078l0.891 2.141-1.859 0.75-0.875-2.141q-0.875 0.219-1.734 0.219t-1.734-0.219l-0.891 2.141-1.844-0.75 0.891-2.141q-0.797-0.5-1.375-1.078t-1.078-1.375l-2.141 0.891-0.75-1.844 2.141-0.891q-0.219-0.875-0.219-1.734t0.219-1.734l-2.141-0.875 0.75-1.859 2.141 0.891q0.5-0.781 1.078-1.375t1.375-1.063l-0.891-2.141 1.844-0.766 0.891 2.141q0.875-0.219 1.734-0.219t1.734 0.219l0.875-2.141 1.859 0.766-0.891 2.141q1.516 0.922 2.438 2.438zM9.156 25.844q1.031 0 1.938-0.391t1.586-1.070 1.078-1.594 0.398-1.945-0.398-1.938-1.078-1.586-1.586-1.078-1.938-0.398-1.945 0.398-1.594 1.078-1.070 1.586-0.391 1.938 0.391 1.945 1.070 1.594 1.594 1.070 1.945 0.391zM28 32v-12h2v12h-2zM22 32v-12h2v12h-2z"></path>
</svg>
