<!-- Generated by IcoMoon.io -->
<svg version="1.1" xmlns="http://www.w3.org/2000/svg" width="32" height="32" viewBox="0 0 32 32">
<title>uniE404</title>
<path d="M30.156 9.844q0 0.344-0.039 0.68t-0.117 0.664l1.922 0.797-0.766 1.844-1.938-0.797q-0.719 1.156-1.875 1.875l0.797 1.953-1.844 0.766-0.813-1.938q-0.328 0.078-0.656 0.117t-0.672 0.039-0.68-0.039-0.664-0.117l-0.359 0.875-1.734-1.047 0.25-0.609q-1.156-0.719-1.875-1.875l-1.953 0.797-0.766-1.844 1.938-0.797q-0.078-0.328-0.117-0.664t-0.039-0.68 0.039-0.672 0.117-0.656l-1.938-0.813 0.766-1.844 1.953 0.813q0.359-0.578 0.828-1.055t1.047-0.836l-0.797-1.938 1.844-0.766 0.797 1.922q0.328-0.078 0.664-0.117t0.68-0.039 0.672 0.039 0.656 0.117l0.813-1.922 1.844 0.766-0.797 1.938q1.156 0.719 1.875 1.875l1.938-0.797 0.766 1.844-1.922 0.813q0.078 0.328 0.117 0.656t0.039 0.672zM24.156 13.844q0.828 0 1.555-0.313t1.273-0.859 0.859-1.273 0.313-1.555-0.313-1.555-0.859-1.273-1.273-0.859-1.555-0.313-1.555 0.313-1.273 0.859-0.859 1.273-0.313 1.555 0.313 1.555 0.859 1.273 1.273 0.859 1.555 0.313zM15.141 17.281l2.172-0.906 0.688 1.656v0.234l-2.078 0.859q0.109 0.422 0.172 0.852t0.063 0.867-0.063 0.867-0.172 0.852l2.078 0.859v0.234l-0.688 1.656-2.172-0.906q-0.453 0.75-1.063 1.367t-1.359 1.070l0.906 2.172-1.859 0.766-0.891-2.172q-0.422 0.109-0.852 0.172t-0.867 0.063-0.867-0.063-0.852-0.172l-0.906 2.172-1.844-0.766 0.906-2.188q-1.516-0.906-2.422-2.422l-2.188 0.906-0.75-1.844 2.156-0.906q-0.109-0.422-0.172-0.852t-0.063-0.867 0.063-0.867 0.172-0.852l-2.156-0.891 0.75-1.859 2.188 0.906q0.906-1.516 2.422-2.422l-0.906-2.172 1.844-0.766 0.906 2.156q0.422-0.109 0.852-0.172t0.867-0.063 0.867 0.063 0.852 0.172l0.891-2.156 1.859 0.766-0.906 2.172q1.516 0.906 2.422 2.422zM9.156 25.844q1.031 0 1.938-0.391t1.586-1.070 1.078-1.594 0.398-1.945-0.398-1.938-1.078-1.586-1.586-1.078-1.938-0.398-1.945 0.398-1.594 1.078-1.070 1.586-0.391 1.938 0.391 1.945 1.070 1.594 1.594 1.070 1.945 0.391zM20 32v-14l11.672 7zM22 21.531v6.938l5.781-3.469z"></path>
</svg>
