<!-- Generated by IcoMoon.io -->
<svg version="1.1" xmlns="http://www.w3.org/2000/svg" width="32" height="32" viewBox="0 0 32 32">
<title>uniE5E4</title>
<path d="M16 30q2.281 0 4.414-0.711t3.961-2.086l1.422 1.422q-2.125 1.656-4.617 2.516t-5.18 0.859-5.18-0.859-4.617-2.516l1.422-1.422q1.828 1.375 3.961 2.086t4.414 0.711zM6.203 3.375q2.125-1.656 4.617-2.516t5.18-0.859 5.18 0.859 4.617 2.516l-1.422 1.422q-1.828-1.375-3.961-2.086t-4.414-0.711-4.414 0.711-3.961 2.086zM3.375 6.203l1.422 1.422q-1.375 1.828-2.086 3.961t-0.711 4.414 0.711 4.414 2.086 3.961l-1.422 1.422q-1.656-2.125-2.516-4.617t-0.859-5.18 0.859-5.18 2.516-4.617zM7 21l3-3v-4h-2v-6h6v6h-2v4l2 2h4v-2h6v6h-6v-2h-4l-3 3zM20 20v2h2v-2h-2zM10 10v2h2v-2h-2zM11 19.828l-1.172 1.172 1.172 1.172 1.172-1.172zM28.625 6.203q1.656 2.125 2.516 4.617t0.859 5.18-0.859 5.18-2.516 4.617l-1.422-1.422q1.375-1.828 2.086-3.961t0.711-4.414-0.711-4.414-2.086-3.961z"></path>
</svg>
