<!-- Generated by IcoMoon.io -->
<svg version="1.1" xmlns="http://www.w3.org/2000/svg" width="32" height="32" viewBox="0 0 32 32">
<title>uniEE29</title>
<path d="M10 12h-6v-6h6v6zM18 12h-6v-6h6v6zM16 8h-2v2h2v-2zM26 12h-6v-6h6v6zM24 8h-2v2h2v-2zM22 20q0-0.422 0.156-0.781t0.43-0.633 0.633-0.43 0.781-0.156 0.781 0.156 0.633 0.43 0.43 0.633 0.156 0.781-0.156 0.781-0.43 0.633-0.633 0.43-0.781 0.156-0.781-0.156-0.633-0.43-0.43-0.633-0.156-0.781zM4 20q0-0.422 0.156-0.781t0.43-0.633 0.633-0.43 0.781-0.156 0.781 0.156 0.633 0.43 0.43 0.633 0.156 0.781-0.156 0.781-0.43 0.633-0.633 0.43-0.781 0.156-0.781-0.156-0.633-0.43-0.43-0.633-0.156-0.781zM10 20q0-0.422 0.156-0.781t0.43-0.633 0.633-0.43 0.781-0.156 0.781 0.156 0.633 0.43 0.43 0.633 0.156 0.781-0.156 0.781-0.43 0.633-0.633 0.43-0.781 0.156-0.781-0.156-0.633-0.43-0.43-0.633-0.156-0.781zM20 20q0 0.422-0.156 0.781t-0.43 0.633-0.633 0.43-0.781 0.156-0.781-0.156-0.633-0.43-0.43-0.633-0.156-0.781 0.156-0.781 0.43-0.633 0.633-0.43 0.781-0.156 0.781 0.156 0.633 0.43 0.43 0.633 0.156 0.781zM2 20q0 0.828 0.313 1.555t0.859 1.273 1.273 0.859 1.555 0.313h10v2h-10q-1.234 0-2.328-0.477t-1.906-1.289-1.289-1.906-0.477-2.328 0.477-2.328 1.289-1.906 1.906-1.289 2.328-0.477h18q1.109 0 2.109 0.391t1.789 1.070 1.313 1.609 0.695 2.023l-2.109 2.109q0.094-0.297 0.148-0.594t0.055-0.609q0-0.828-0.313-1.555t-0.859-1.273-1.273-0.859-1.555-0.313h-18q-0.828 0-1.555 0.313t-1.273 0.859-0.859 1.273-0.313 1.555zM31.703 22.703l-8.703 8.719-4.203-4.219 1.406-1.406 2.797 2.781 7.297-7.281z"></path>
</svg>
