<!-- Generated by IcoMoon.io -->
<svg version="1.1" xmlns="http://www.w3.org/2000/svg" width="32" height="32" viewBox="0 0 32 32">
<title>uniEFE8</title>
<path d="M2 28q0 0.422 0.156 0.781t0.43 0.633 0.633 0.43 0.781 0.156h10l4.016 2h-14.016q-0.828 0-1.555-0.313t-1.273-0.859-0.859-1.273-0.313-1.555v-24q0-0.766 0.336-1.492t0.891-1.281 1.273-0.891 1.5-0.336h22v10.641l-2-1v-7.641h-20q-0.359 0-0.719 0.18t-0.641 0.461-0.461 0.641-0.18 0.719v20.563q0.453-0.266 0.961-0.414t1.039-0.148h8v2h-8q-0.422 0-0.781 0.156t-0.633 0.43-0.43 0.633-0.156 0.781zM32 15.859v11.906l-9 4.484-9-4.484v-11.906l9-4.484zM23 13.609l-5.766 2.875 5.766 2.875 5.766-2.875zM16 26.531l6 2.984v-8.422l-6-3v8.438zM30 26.531v-8.438l-6 3v8.422z"></path>
</svg>
