<!-- Generated by IcoMoon.io -->
<svg version="1.1" xmlns="http://www.w3.org/2000/svg" width="32" height="32" viewBox="0 0 32 32">
<title>uniEE30</title>
<path d="M21 0.031l11 5.5v12.266l-2-1v-9.031l-8 4v4.031l-2 1v-5.031l-8-4v3.547l-2-1v-4.781zM21 10.031l2.766-1.391-7.234-4.141-3.297 1.656zM25.922 7.578l2.844-1.422-7.766-3.891-2.328 1.172zM18 17.797l-2 1v-0.016l-6 3v7.109l6-3.016v2.25l-7 3.5-9-4.516v-10.563l9-4.5 9 4.5v1.25zM8 28.891v-7.109l-6-3v7.094zM9 20.047l5.766-2.875-5.766-2.891-5.766 2.891zM18 20.031l7-3.5 7 3.5v8.234l-7 3.5-7-3.5v-8.234zM24 29.031v-4.766l-4-2v4.766zM30 27.031v-4.766l-4 2v4.766zM25 22.531l3.766-1.891-3.766-1.875-3.766 1.875z"></path>
</svg>
