<!-- Generated by IcoMoon.io -->
<svg version="1.1" xmlns="http://www.w3.org/2000/svg" width="32" height="32" viewBox="0 0 32 32">
<title>uniEE2E</title>
<path d="M14 24.016v-9.391l-10-5v13.75l8.5 4.266-0.484 1.984-10.016-5v-17.25l13-6.484 13 6.484v4.219q-1.094 0.172-2 0.703v-2.672l-10 5v7.391zM11.781 4.719l9.125 5.219 3.859-1.938-9.766-4.891zM15 12.891l3.75-1.875-9.125-5.219-4.391 2.203zM28.875 14q0.656 0 1.227 0.234t0.992 0.648 0.664 0.984 0.242 1.227q0 0.609-0.234 1.188t-0.672 1.016l-11.203 11.203-5.891 1.469 1.469-5.891 11.203-11.188q0.453-0.453 1.016-0.672t1.188-0.219zM29.672 17.891q0.328-0.328 0.328-0.797 0-0.484-0.32-0.789t-0.805-0.305q-0.219 0-0.422 0.070t-0.359 0.227l-10.813 10.813-0.531 2.109 2.109-0.531z"></path>
</svg>
