<!-- Generated by IcoMoon.io -->
<svg version="1.1" xmlns="http://www.w3.org/2000/svg" width="32" height="32" viewBox="0 0 32 32">
<title>uniEF35</title>
<path d="M22.938 17.797q-0.813 0.672-1.391 1.5-1.297-0.656-2.711-0.977t-2.867-0.32q-1.688 0-3.227 0.422t-2.867 1.195-2.414 1.859-1.852 2.422-1.188 2.883-0.422 3.219h-2q0-2.281 0.68-4.391t1.93-3.859 3.023-3.063 3.961-2.016q-0.844-0.563-1.508-1.297t-1.125-1.594-0.711-1.813-0.25-1.969q0-1.656 0.633-3.109t1.719-2.539 2.539-1.719 3.109-0.633 3.109 0.633 2.539 1.719 1.719 2.539 0.633 3.109q0 1.016-0.25 1.977t-0.711 1.82-1.133 1.594-1.516 1.297q0.672 0.219 1.305 0.492t1.242 0.617zM10 10q0 1.25 0.469 2.336t1.289 1.906 1.906 1.289 2.336 0.469q1.234 0 2.328-0.469t1.914-1.289 1.289-1.906 0.469-2.336q0-1.234-0.469-2.328t-1.289-1.914-1.914-1.289-2.328-0.469q-1.25 0-2.336 0.469t-1.906 1.289-1.289 1.914-0.469 2.328zM27.031 17.984q1.031 0 1.953 0.398t1.602 1.078 1.078 1.594 0.398 1.945-0.398 1.945-1.078 1.594-1.602 1.078-1.953 0.398q-1.516 0-2.766-0.844l-4.563 4.563q-0.297 0.297-0.703 0.297t-0.703-0.297-0.297-0.703 0.297-0.703l4.563-4.563q-0.844-1.25-0.844-2.766 0-1.031 0.398-1.945t1.078-1.594 1.594-1.078 1.945-0.398zM27.031 26.016q0.625 0 1.172-0.234t0.961-0.648 0.656-0.961 0.242-1.172-0.242-1.172-0.648-0.961-0.961-0.648-1.18-0.234-1.172 0.242-0.961 0.648-0.648 0.953-0.234 1.172 0.234 1.172 0.648 0.961 0.961 0.648 1.172 0.234z"></path>
</svg>
