<!-- Generated by IcoMoon.io -->
<svg version="1.1" xmlns="http://www.w3.org/2000/svg" width="32" height="32" viewBox="0 0 32 32">
<title>uniEB27</title>
<path d="M24 0q1.656 0 3.117 0.625t2.547 1.711 1.711 2.547 0.625 3.117q0 3.313-0.859 6.375t-2.422 5.734-3.75 4.859-4.859 3.75-5.734 2.422-6.375 0.859q-1.656 0-3.117-0.625t-2.547-1.711-1.711-2.547-0.625-3.117q0-3.313 0.859-6.375t2.422-5.734 3.75-4.859 4.859-3.75 5.734-2.422 6.375-0.859zM8 30q3.031 0 5.836-0.789t5.25-2.219 4.461-3.445 3.445-4.461 2.219-5.25 0.789-5.836q0-1.234-0.469-2.328t-1.289-1.914-1.914-1.289-2.328-0.469q-3.031 0-5.836 0.789t-5.25 2.219-4.461 3.445-3.445 4.461-2.219 5.25-0.789 5.836q0 1.25 0.469 2.336t1.289 1.906 1.906 1.289 2.336 0.469zM19.703 9.297l3 3-1.406 1.406-0.797-0.781-1.578 1.578 0.781 0.797-1.406 1.406-0.797-0.797-1.594 1.594 0.797 0.797-1.406 1.406-0.797-0.781-1.578 1.578 0.781 0.797-1.406 1.406-3-3 1.406-1.406 0.797 0.781 1.578-1.578-0.781-0.797 1.406-1.406 0.797 0.797 1.594-1.594-0.797-0.797 1.406-1.406 0.797 0.781 1.578-1.578-0.781-0.797z"></path>
</svg>
