<!-- Generated by IcoMoon.io -->
<svg version="1.1" xmlns="http://www.w3.org/2000/svg" width="32" height="32" viewBox="0 0 32 32">
<title>uniECDF</title>
<path d="M15 2.047q-2 0.141-3.828 0.828t-3.391 1.813-2.781 2.664-1.969 3.383l-1.891-0.609q0.844-2.156 2.25-3.945t3.211-3.102 3.945-2.102 4.453-0.93v2zM28.969 10.734q-0.75-1.844-1.969-3.383t-2.781-2.664-3.398-1.813-3.82-0.828v-2q2.313 0.141 4.453 0.93t3.945 2.102 3.211 3.102 2.266 3.945zM2 16q0 1.547 0.336 3.039t0.977 2.859 1.563 2.586 2.109 2.219l-1.172 1.625q-1.375-1.141-2.453-2.539t-1.828-2.977-1.141-3.297-0.391-3.516q0-1.016 0.133-2.008t0.383-1.977l1.906 0.625q-0.203 0.828-0.313 1.672t-0.109 1.688zM31.484 12.016q0.25 0.984 0.383 1.977t0.133 2.008q0 1.797-0.391 3.516t-1.141 3.297-1.828 2.977-2.453 2.539l-1.172-1.625q1.188-1 2.109-2.219t1.563-2.586 0.977-2.859 0.336-3.039q0-0.844-0.109-1.688t-0.313-1.672zM16 30q1.984 0 3.852-0.539t3.539-1.586l1.172 1.609q-1.922 1.234-4.102 1.875t-4.461 0.641-4.461-0.641-4.102-1.875l1.172-1.609q1.672 1.047 3.539 1.586t3.852 0.539z"></path>
</svg>
