<!-- Generated by IcoMoon.io -->
<svg version="1.1" xmlns="http://www.w3.org/2000/svg" width="32" height="32" viewBox="0 0 32 32">
<title>uniECDE</title>
<path d="M7 16q0 0.938 0.195 1.844t0.555 1.75l-1.734 1q-0.5-1.078-0.758-2.242t-0.258-2.352q0-1.422 0.352-2.75t0.992-2.5 1.547-2.164 2.016-1.734 2.398-1.211 2.695-0.594v2.016q-1.703 0.188-3.164 0.961t-2.539 1.977-1.688 2.742-0.609 3.258zM17 5.047q1.406 0.125 2.695 0.594t2.398 1.211 2.016 1.734 1.547 2.164 0.992 2.5 0.352 2.75q0 1.203-0.258 2.367t-0.758 2.242l-1.734-1q0.359-0.859 0.555-1.766t0.195-1.844q0-1.719-0.609-3.258t-1.688-2.742-2.539-1.977-3.164-0.961v-2.016zM16 25q1.078 0 2.102-0.25t1.953-0.727 1.734-1.156 1.445-1.539l1.734 1.016q-0.781 1.094-1.773 1.961t-2.141 1.461-2.43 0.914-2.625 0.32-2.625-0.32-2.438-0.922-2.156-1.469-1.766-1.961l1.75-1q0.641 0.859 1.445 1.539t1.734 1.156 1.953 0.727 2.102 0.25z"></path>
</svg>
