<!-- Generated by IcoMoon.io -->
<svg version="1.1" xmlns="http://www.w3.org/2000/svg" width="32" height="32" viewBox="0 0 32 32">
<title>uniEDF6</title>
<path d="M16 0q2.203 0 4.25 0.57t3.828 1.609 3.242 2.5 2.5 3.242 1.609 3.828 0.57 4.25-0.57 4.25-1.609 3.828-2.5 3.242-3.242 2.5-3.828 1.609-4.25 0.57q-3.234 0-6.133-1.203t-5.18-3.484l2.828-2.828q1.703 1.703 3.883 2.609t4.602 0.906q2.484 0 4.664-0.945t3.813-2.578 2.578-3.813 0.945-4.664q0-1.656-0.43-3.188t-1.211-2.867-1.875-2.43-2.43-1.875-2.867-1.211-3.188-0.43v-4z"></path>
</svg>
