<!-- Generated by IcoMoon.io -->
<svg version="1.1" xmlns="http://www.w3.org/2000/svg" width="32" height="32" viewBox="0 0 32 32">
<title>uniEB28</title>
<path d="M20.688 0q1.219 0 2.336 0.359t1.992 1.234l5.391 5.391q0.875 0.875 1.234 1.992t0.359 2.336q0 1.625-0.531 3.375t-1.484 3.508-2.25 3.469-2.828 3.242-3.242 2.828-3.469 2.25-3.508 1.484-3.375 0.531q-1.203 0-2.328-0.359t-2-1.234l-5.391-5.391q-0.875-0.875-1.234-1.992t-0.359-2.336q0-1.625 0.531-3.375t1.477-3.516 2.25-3.469 2.836-3.234 3.234-2.836 3.469-2.25 3.516-1.477 3.375-0.531zM2 20.734q0 1.891 1.023 2.875t2.898 0.984q1.406 0 2.961-0.492t3.133-1.367 3.125-2.063 2.945-2.586 2.586-2.945 2.063-3.125 1.367-3.133 0.492-2.961q0-1.891-1-2.906t-2.891-1.016q-1.422 0-2.977 0.492t-3.141 1.367-3.133 2.070-2.945 2.594-2.586 2.953-2.063 3.133-1.367 3.141-0.492 2.984zM11.266 30q1.422 0 2.984-0.492t3.148-1.367 3.141-2.063 2.953-2.586 2.586-2.953 2.063-3.141 1.367-3.148 0.492-2.984q0-0.797-0.227-1.539t-0.789-1.32l-2.375-2.391q-0.031 1.609-0.57 3.352t-1.484 3.484-2.242 3.43-2.82 3.211-3.211 2.82-3.43 2.242-3.484 1.492-3.352 0.563l2.391 2.375q0.578 0.563 1.32 0.789t1.539 0.227z"></path>
</svg>
