<!-- Generated by IcoMoon.io -->
<svg version="1.1" xmlns="http://www.w3.org/2000/svg" width="32" height="32" viewBox="0 0 32 32">
<title>uniF363</title>
<path d="M30 10q0.422 0 0.781 0.156t0.633 0.43 0.43 0.633 0.156 0.781v18h-28v-8h-4v-20q0-0.422 0.156-0.781t0.43-0.633 0.633-0.43 0.781-0.156h7.5q0.703 0 1.211 0.148t0.898 0.367 0.711 0.484 0.641 0.484 0.688 0.367 0.852 0.148h11.5q0.422 0 0.781 0.156t0.633 0.43 0.43 0.633 0.156 0.781v6h2zM2 2v2h7.5q0.375 0 0.656-0.070t0.516-0.203 0.461-0.313 0.492-0.414q-0.266-0.234-0.492-0.414t-0.461-0.313-0.516-0.203-0.656-0.070h-7.5zM4 20v-10q0-0.422 0.156-0.781t0.43-0.633 0.633-0.43 0.781-0.156h7.5q0.703 0 1.211 0.148t0.906 0.367 0.711 0.484 0.633 0.484 0.688 0.367 0.852 0.148h7.5v-6h-11.5q-0.484 0-0.852 0.148t-0.688 0.367-0.633 0.484-0.711 0.484-0.906 0.367-1.211 0.148h-7.5v14h2zM15.625 11q-0.266-0.234-0.492-0.414t-0.461-0.313-0.516-0.203-0.656-0.070h-7.5v2h7.5q0.375 0 0.656-0.070t0.516-0.203 0.461-0.313 0.492-0.414zM30 12h-11.5q-0.484 0-0.852 0.148t-0.688 0.367-0.633 0.484-0.711 0.484-0.906 0.367-1.211 0.148h-7.5v14h24v-16z"></path>
</svg>
