<!-- Generated by IcoMoon.io -->
<svg version="1.1" xmlns="http://www.w3.org/2000/svg" width="32" height="32" viewBox="0 0 32 32">
<title>uniF480</title>
<path d="M32 24v6q0 0.422-0.156 0.781t-0.43 0.633-0.633 0.43-0.781 0.156h-20q-0.422 0-0.781-0.156t-0.633-0.43-0.43-0.633-0.156-0.781v-4h-6q-0.406 0-0.773-0.156t-0.641-0.43-0.43-0.641-0.156-0.773v-16q0-0.406 0.156-0.773t0.43-0.641 0.641-0.43 0.773-0.156h2v-3.5q0-0.469 0.156-0.914t0.453-0.797 0.703-0.57 0.906-0.219h15.563q0.5 0 0.906 0.219t0.703 0.57 0.453 0.797 0.156 0.914v7.5h1.719q0.469 0 0.883 0.18t0.727 0.492 0.492 0.727 0.18 0.883v9.719h2q0.422 0 0.781 0.156t0.633 0.43 0.43 0.633 0.156 0.781zM25.719 12h-5.719v10h6v-9.719q0-0.125-0.078-0.203t-0.203-0.078zM6 2.5v3.5h12q0.406 0 0.773 0.156t0.641 0.43 0.43 0.641 0.156 0.773v2h2v-7.5q0-0.031-0.016-0.117t-0.039-0.172-0.070-0.148-0.094-0.063h-15.563q-0.047 0-0.094 0.063t-0.070 0.148-0.039 0.172-0.016 0.117zM8.859 18.266h1.672q1.016 0 1.898-0.305t1.539-0.891 1.031-1.422 0.375-1.898q0-1.094-0.352-1.898t-0.969-1.328-1.484-0.773-1.898-0.25h-5.031v13h3.219v-4.234zM30 30v-6h-10q0 0.406-0.156 0.773t-0.43 0.641-0.641 0.43-0.773 0.156h-8v4h20zM12.031 13.844q0 0.891-0.453 1.234t-1.297 0.344h-1.422v-3.063h1.484q0.828 0 1.258 0.32t0.43 1.164z"></path>
</svg>
