<!-- Generated by IcoMoon.io -->
<svg version="1.1" xmlns="http://www.w3.org/2000/svg" width="32" height="32" viewBox="0 0 32 32">
<title>uniF759</title>
<path d="M7.141 13.734q0.781 0 1.289 0.336t0.508 1.195q0 0.875-0.492 1.227t-1.305 0.352h-0.891v-3.109h0.891zM22.797 0l9.203 9.203v22.797h-26v-5.25l-6-0.953v-17.797l6-0.859v-7.141h16.797zM6.25 18.547h1.078q0.766 0 1.492-0.203t1.273-0.617 0.883-1.047 0.336-1.492q0-0.891-0.289-1.5t-0.789-0.984-1.195-0.539-1.508-0.164h-3.531v10h2.25v-3.453zM30 30v-18h-2v16h-12v-2h10v-2h-8v-4h8v-8h-10v-2h4v-8h-12v4.859l6-0.859v22l-6-0.938v2.938h22zM30 10l-8-8v8h8zM24 14v4h-8v-4h8z"></path>
</svg>
