<!-- Generated by IcoMoon.io -->
<svg version="1.1" xmlns="http://www.w3.org/2000/svg" width="32" height="32" viewBox="0 0 32 32">
<title>uniEDD4</title>
<path d="M7.75 12.797q0.766 0 1.219 0.305t0.453 1.117q0 0.359-0.164 0.586t-0.414 0.367-0.563 0.195-0.594 0.055h-1.438v-2.625h1.5zM32 21.328v7.344q0 0.547-0.391 0.938t-0.938 0.391h-18.344q-0.547 0-0.938-0.391t-0.391-0.938v-4.672h-9.672q-0.547 0-0.938-0.391t-0.391-0.938v-13.344q0-0.547 0.391-0.938t0.938-0.391h2.672v-4.672q0-0.547 0.391-0.938t0.938-0.391h14.344q0.547 0 0.938 0.391t0.391 0.938v7.672h3.672q0.547 0 0.938 0.391t0.391 0.938v7.672h4.672q0.547 0 0.938 0.391t0.391 0.938zM24 13h-8v7h8v-7zM11.984 14.141q0-0.906-0.305-1.555t-0.836-1.055-1.25-0.594-1.563-0.188h-4.234v10.484h2.453v-3.656h1.656q0.766 0 1.492-0.227t1.305-0.656 0.93-1.070 0.352-1.484zM6 8h8.672q0.547 0 0.938 0.391t0.391 0.938v1.672h3v-7h-13v4zM30 28v-6h-14v0.672q0 0.547-0.391 0.938t-0.938 0.391h-1.672v4h17z"></path>
</svg>
