<!-- Generated by IcoMoon.io -->
<svg version="1.1" xmlns="http://www.w3.org/2000/svg" width="32" height="32" viewBox="0 0 32 32">
<title>uniF77D</title>
<path d="M2 9.953v15.047q0 0.313 0.203 0.555t0.422 0.43q0.719 0.594 1.781 0.984t2.219 0.617 2.305 0.32 2.070 0.094q1.266 0 2.516-0.125t2.484-0.438v2.031q-1.234 0.281-2.484 0.406t-2.516 0.125q-0.953 0-1.898-0.070t-1.883-0.227q-0.594-0.094-1.359-0.273t-1.57-0.445-1.578-0.625-1.375-0.852-0.969-1.117-0.367-1.391v-18q0-1.078 0.617-1.867t1.602-1.344 2.219-0.906 2.453-0.547 2.313-0.266 1.797-0.070 1.797 0.070 2.313 0.266 2.453 0.547 2.219 0.906 1.602 1.344 0.617 1.867v15h-2v-12.047q-0.906 0.578-2.031 0.969t-2.32 0.633-2.398 0.344-2.25 0.102q-1.063 0-2.258-0.102t-2.391-0.344-2.32-0.633-2.031-0.969zM2 7q0 0.313 0.203 0.555t0.422 0.43q0.719 0.594 1.781 0.984t2.219 0.617 2.305 0.32 2.070 0.094q0.906 0 2.055-0.094t2.313-0.32 2.211-0.617 1.781-0.984q0.219-0.172 0.43-0.422t0.211-0.563-0.211-0.563-0.43-0.422q-0.734-0.594-1.781-0.984t-2.211-0.617-2.313-0.32-2.055-0.094q-0.922 0-2.070 0.094t-2.305 0.32-2.219 0.617-1.781 0.984q-0.219 0.188-0.422 0.43t-0.203 0.555zM30.297 21.297l1.406 1.406-8.703 8.719-4.203-4.219 1.406-1.406 2.797 2.781z"></path>
</svg>
