<!-- Generated by IcoMoon.io -->
<svg version="1.1" xmlns="http://www.w3.org/2000/svg" width="32" height="32" viewBox="0 0 32 32">
<title>uniE556</title>
<path d="M0 0h30v24h-18.578l-7.422 7.422v-7.422h-4v-24zM28 22v-20h-26v20h4v4.578l4.578-4.578h17.422zM10 20h-2v-1q0-0.984 0.258-1.898t0.75-1.719 1.18-1.469 1.563-1.117q-0.844-0.719-1.297-1.711t-0.453-2.086q0-1.031 0.391-1.938t1.070-1.586 1.594-1.078 1.945-0.398 1.938 0.398 1.586 1.078 1.078 1.586 0.398 1.938q0 1.094-0.453 2.086t-1.297 1.711q0.859 0.453 1.555 1.117t1.188 1.469 0.75 1.719 0.258 1.898v1h-2v-1q0-1.031-0.398-1.938t-1.078-1.586-1.586-1.078-1.938-0.398-1.945 0.398-1.594 1.078-1.070 1.586-0.391 1.938v1zM12 9q0 0.625 0.234 1.172t0.641 0.953 0.953 0.641 1.172 0.234 1.172-0.234 0.953-0.641 0.641-0.953 0.234-1.172-0.234-1.172-0.641-0.953-0.953-0.641-1.172-0.234-1.172 0.234-0.953 0.641-0.641 0.953-0.234 1.172z"></path>
</svg>
