<!-- Generated by IcoMoon.io -->
<svg version="1.1" xmlns="http://www.w3.org/2000/svg" width="32" height="32" viewBox="0 0 32 32">
<title>uniF494</title>
<path d="M19 10v3h-6v-3q0-0.625 0.234-1.172t0.641-0.953 0.953-0.641 1.172-0.234 1.172 0.234 0.953 0.641 0.641 0.953 0.234 1.172zM11 21v-7h10v7h-10zM29 5.422v6.922q0 2.063-0.516 3.875t-1.43 3.406-2.156 3-2.688 2.641-3.031 2.32-3.18 2.055q-1.609-0.969-3.188-2.055t-3.023-2.32-2.688-2.641-2.156-3-1.43-3.406-0.516-3.875v-6.922q1.172 0 2.219-0.078t2.031-0.297 1.953-0.617 1.984-1.039q1.141-0.719 2.297-1.055t2.516-0.336q1.375 0 2.531 0.344t2.313 1.063q1 0.641 1.969 1.031t1.953 0.609 2.023 0.297 2.211 0.078zM22 22v-9h-2v-3q0-0.813-0.32-1.547t-0.859-1.273-1.273-0.859-1.547-0.32q-0.828 0-1.555 0.32t-1.266 0.859-0.859 1.273-0.32 1.547v3h-2v9h12z"></path>
</svg>
