<!-- Generated by IcoMoon.io -->
<svg version="1.1" xmlns="http://www.w3.org/2000/svg" width="32" height="32" viewBox="0 0 32 32">
<title>uniE8A6</title>
<path d="M30 20v12h-14v-12h2q0-1.188 0.273-2.273t0.875-1.914 1.547-1.32 2.305-0.492 2.305 0.492 1.547 1.32 0.875 1.914 0.273 2.273h2zM20 20h6v-1q0-0.625-0.234-1.172t-0.641-0.953-0.953-0.641-1.172-0.234-1.172 0.234-0.953 0.641-0.641 0.953-0.234 1.172v1zM28 22h-10v8h10v-8zM6 30h8v2h-10v-27.422l4.578-4.578h19.422v13.438q-0.453-0.406-0.953-0.734t-1.047-0.578v-10.125h-16.578l-3.422 3.422v24.578z"></path>
</svg>
