<!-- Generated by IcoMoon.io -->
<svg version="1.1" xmlns="http://www.w3.org/2000/svg" width="32" height="32" viewBox="0 0 32 32">
<title>uniF22A</title>
<path d="M25 18q1.453 0 2.727 0.547t2.227 1.5 1.5 2.227 0.547 2.727-0.547 2.727-1.5 2.227-2.227 1.5-2.727 0.547-2.727-0.547-2.227-1.5-1.5-2.227-0.547-2.727 0.547-2.727 1.5-2.227 2.227-1.5 2.727-0.547zM25 30q1.031 0 1.938-0.391t1.586-1.070 1.078-1.594 0.398-1.945-0.398-1.938-1.078-1.586-1.586-1.078-1.938-0.398-1.945 0.398-1.594 1.078-1.070 1.586-0.391 1.938 0.391 1.945 1.070 1.594 1.594 1.070 1.945 0.391zM22 24h6v2h-6v-2zM16.5 30q0.391 0.563 0.844 1.070t0.984 0.93h-14.328v-18h4v-5.844q0-1.688 0.609-3.172t1.688-2.594 2.539-1.75 3.164-0.641 3.164 0.641 2.539 1.75 1.688 2.594 0.609 3.172v5.844h4v2h-22v14h10.5zM10 14h12v-5.844q0-1.266-0.453-2.383t-1.258-1.961-1.906-1.328-2.383-0.484-2.383 0.484-1.906 1.328-1.258 1.961-0.453 2.383v5.844z"></path>
</svg>
