<!-- Generated by IcoMoon.io -->
<svg version="1.1" xmlns="http://www.w3.org/2000/svg" width="32" height="32" viewBox="0 0 32 32">
<title>uniF39F</title>
<path d="M32 6v20q0 0.422-0.156 0.781t-0.43 0.633-0.633 0.43-0.781 0.156h-2v2q0 0.422-0.156 0.781t-0.43 0.633-0.633 0.43-0.781 0.156h-18q-0.422 0-0.781-0.156t-0.633-0.43-0.43-0.633-0.156-0.781v-4h-4q-0.406 0-0.773-0.156t-0.641-0.43-0.43-0.641-0.156-0.773v-16q0-0.406 0.156-0.773t0.43-0.641 0.641-0.43 0.773-0.156h4v-4q0-0.422 0.156-0.781t0.43-0.633 0.633-0.43 0.781-0.156h18q0.422 0 0.781 0.156t0.633 0.43 0.43 0.633 0.156 0.781v2h2q0.422 0 0.781 0.156t0.633 0.43 0.43 0.633 0.156 0.781zM5.641 22.5h3.219v-4.234h1.672q1.016 0 1.898-0.305t1.539-0.891 1.031-1.422 0.375-1.898q0-1.094-0.352-1.898t-0.969-1.328-1.484-0.773-1.898-0.25h-5.031v13zM26 30v-6h-6q0 0.406-0.156 0.773t-0.43 0.641-0.641 0.43-0.773 0.156h-10v4h18zM26 22v-6h-6v6h6zM26 14v-12h-18v4h10q0.406 0 0.773 0.156t0.641 0.43 0.43 0.641 0.156 0.773v6h6zM30 26v-20h-2v20h2zM10.281 15.422h-1.422v-3.063h1.484q0.828 0 1.258 0.32t0.43 1.164q0 0.891-0.453 1.234t-1.297 0.344z"></path>
</svg>
