<!-- Generated by IcoMoon.io -->
<svg version="1.1" xmlns="http://www.w3.org/2000/svg" width="32" height="32" viewBox="0 0 32 32">
<title>uniF1ED</title>
<path d="M7.75 12.797q0.766 0 1.219 0.305t0.453 1.117q0 0.359-0.164 0.586t-0.414 0.367-0.563 0.195-0.594 0.055h-1.438v-2.625h1.5zM32 5.266v21.469q0 0.516-0.375 0.891t-0.891 0.375h-2.734v0.641q0 0.563-0.398 0.961t-0.961 0.398h-17.281q-0.563 0-0.961-0.398t-0.398-0.961v-4.641h-6.672q-0.547 0-0.938-0.391t-0.391-0.938v-13.344q0-0.547 0.391-0.938t0.938-0.391h6.672v-4.641q0-0.563 0.398-0.961t0.961-0.398h17.281q0.563 0 0.961 0.398t0.398 0.961v0.641h2.734q0.516 0 0.891 0.375t0.375 0.891zM11.984 14.141q0-0.906-0.305-1.555t-0.836-1.055-1.25-0.594-1.563-0.188h-4.234v10.484h2.453v-3.656h1.656q0.766 0 1.492-0.227t1.305-0.656 0.93-1.070 0.352-1.484zM26 28v-4h-16v4h16zM26 22v-5h-10v5h10zM26 15v-11h-16v4h4.672q0.547 0 0.938 0.391t0.391 0.938v5.672h10zM30 26v-20h-2v20h2z"></path>
</svg>
