<!-- Generated by IcoMoon.io -->
<svg version="1.1" xmlns="http://www.w3.org/2000/svg" width="32" height="32" viewBox="0 0 32 32">
<title>uniF230</title>
<path d="M4 14h10v-2h-10v2zM14 18h-6v2h6v-2zM19.094 16.75q-0.719 0.406-1.289 0.969t-0.969 1.242-0.617 1.453-0.219 1.586h2q0-0.828 0.313-1.555t0.859-1.273 1.273-0.859 1.555-0.313 1.555 0.313 1.273 0.859 0.859 1.273 0.313 1.555h2q0-0.813-0.219-1.586t-0.617-1.453-0.969-1.242-1.289-0.969q0.516-0.547 0.805-1.266t0.289-1.484q0-0.828-0.313-1.555t-0.859-1.273-1.273-0.859-1.555-0.313-1.555 0.313-1.273 0.859-0.859 1.273-0.313 1.555q0 0.766 0.289 1.484t0.805 1.266zM24 14q0 0.422-0.156 0.781t-0.43 0.633-0.633 0.43-0.781 0.156-0.781-0.156-0.633-0.43-0.43-0.633-0.156-0.781 0.156-0.781 0.43-0.633 0.633-0.43 0.781-0.156 0.781 0.156 0.633 0.43 0.43 0.633 0.156 0.781zM4.984 22.047l-4.953 4.953 4.953 4.953 1.422-1.406-2.547-2.547h10.281l-2.547 2.547 1.422 1.406 4.953-4.953-4.953-4.953-1.422 1.406 2.547 2.547h-10.281l2.547-2.547zM0 4v19l2-2v-15h28v20h-10v2h12v-24h-32z"></path>
</svg>
