<!-- Generated by IcoMoon.io -->
<svg version="1.1" xmlns="http://www.w3.org/2000/svg" width="32" height="32" viewBox="0 0 32 32">
<title>uniF699</title>
<path d="M27.5 24.844q1.031 0.516 1.859 1.266t1.414 1.672 0.906 2 0.32 2.219h-2q0-1.234-0.469-2.328t-1.289-1.914-1.914-1.289-2.328-0.469q-1.25 0-2.336 0.469t-1.906 1.289-1.289 1.914-0.469 2.328h-2q0-1.141 0.32-2.219t0.906-2 1.414-1.672 1.859-1.266q-1.172-0.844-1.836-2.109t-0.664-2.734q0-1.234 0.469-2.328t1.289-1.914 1.906-1.289 2.336-0.469q1.234 0 2.328 0.469t1.914 1.289 1.289 1.914 0.469 2.328q0 1.469-0.664 2.734t-1.836 2.109zM24 24q0.828 0 1.555-0.313t1.273-0.859 0.859-1.273 0.313-1.555-0.313-1.555-0.859-1.273-1.273-0.859-1.555-0.313-1.555 0.313-1.273 0.859-0.859 1.273-0.313 1.555 0.313 1.555 0.859 1.273 1.273 0.859 1.555 0.313zM16 25.25q-0.5 0.578-0.906 1.211t-0.719 1.336q-0.828-0.859-2.008-1.328t-2.367-0.469h-6v-20h-2v22h12.297q-0.219 0.484-0.359 0.984t-0.234 1.016h-13.703v-26h4v-2h6q1.375 0 2.648 0.422t2.352 1.266q1.078-0.844 2.352-1.266t2.648-0.422h6v2h4v10q-0.906-0.891-2-1.484v-6.516h-2v5.766q-0.5-0.141-1-0.203t-1-0.063v-7.5h-4q-1.094 0-2.125 0.383t-1.875 1.102v19.766zM14 25.047v-19.563q-0.844-0.719-1.875-1.102t-2.125-0.383h-4v20h4q1.047 0 2.063 0.266t1.938 0.781z"></path>
</svg>
