<!-- Generated by IcoMoon.io -->
<svg version="1.1" xmlns="http://www.w3.org/2000/svg" width="32" height="32" viewBox="0 0 32 32">
<title>uniF2F9</title>
<path d="M30 2v28h-28v-28h28zM28.141 3.859h-24.281v24.281h24.281v-24.281zM9.406 26h-1.406v-12h3.297q0.859 0 1.602 0.211t1.289 0.641 0.852 1.109 0.305 1.617q0 0.953-0.344 1.68t-0.945 1.219-1.391 0.742-1.68 0.25h-1.578v4.531zM9.406 20.188h1.469q0.625 0 1.172-0.133t0.953-0.438 0.633-0.789 0.227-1.188q0-0.656-0.211-1.109t-0.586-0.734-0.891-0.406-1.125-0.125h-1.641v4.922zM20.031 21.594l-3.859-7.594h1.594l2.688 5.422q0.094 0.172 0.164 0.359t0.164 0.375q0.047-0.203 0.133-0.383t0.18-0.352l2.813-5.422h1.484l-3.953 7.563v4.438h-1.406v-4.406z"></path>
</svg>
