<!-- Generated by IcoMoon.io -->
<svg version="1.1" xmlns="http://www.w3.org/2000/svg" width="32" height="32" viewBox="0 0 32 32">
<title>uniF2F8</title>
<path d="M7.5 6q1.453 0 2.68 0.352t2.133 1.078 1.414 1.852 0.508 2.688q0 1.594-0.578 2.797t-1.563 2.023-2.305 1.234-2.805 0.414h-2.641v7.563h-2.344v-20h5.5zM6.797 16.313q1.047 0 1.953-0.227t1.578-0.734 1.063-1.313 0.391-1.961q0-1.109-0.352-1.867t-0.977-1.219-1.484-0.664-1.875-0.203h-2.75v8.188h2.453zM31 6l-6.594 12.609v7.391h-2.359v-7.344l-6.422-12.656h2.672l4.469 9.031q0.141 0.297 0.258 0.609t0.273 0.625q0.094-0.313 0.234-0.625t0.297-0.609l4.688-9.031h2.484z"></path>
</svg>
