<!-- Generated by IcoMoon.io -->
<svg version="1.1" xmlns="http://www.w3.org/2000/svg" width="32" height="32" viewBox="0 0 32 32">
<title>uniF8A3</title>
<path d="M9.172 24h6.828l2 2h-8l-6 6v-6h-4v-20h2v18h4v3.172zM4 0h26v22h-6v6l-6-6h-14v-22zM28 20v-18h-22v18h12.828l3.172 3.172v-3.172h6zM16 18v-2h2v2h-2zM13 8q0-0.828 0.313-1.555t0.859-1.273 1.273-0.859 1.555-0.313 1.555 0.313 1.273 0.859 0.859 1.273 0.313 1.555h-2q0-0.422-0.156-0.781t-0.43-0.633-0.633-0.43-0.781-0.156-0.781 0.156-0.633 0.43-0.43 0.633-0.156 0.781q0 0.453 0.219 0.813t0.555 0.703 0.727 0.695 0.727 0.789 0.555 0.984 0.219 1.266v0.75h-2v-0.75q0-0.453-0.219-0.82t-0.555-0.703-0.727-0.688-0.727-0.789-0.555-0.977-0.219-1.273z"></path>
</svg>
