<!-- Generated by IcoMoon.io -->
<svg version="1.1" xmlns="http://www.w3.org/2000/svg" width="32" height="32" viewBox="0 0 32 32">
<title>uniF8A2</title>
<path d="M28 6h2v20h-4v6l-6-6h-8l2-2h6.828l3.172 3.172v-3.172h4v-18zM12 22l-6 6v-6h-6v-22h26v22h-14zM2 20h6v3.172l3.172-3.172h12.828v-18h-22v18zM12 18v-2h2v2h-2zM13 6q-0.422 0-0.781 0.156t-0.633 0.43-0.43 0.633-0.156 0.781h-2q0-0.828 0.313-1.555t0.859-1.273 1.273-0.859 1.555-0.313 1.555 0.313 1.273 0.859 0.859 1.273 0.313 1.555q0 0.719-0.219 1.266t-0.578 1.016-0.813 0.898-0.922 0.898q-0.313 0.313-0.398 0.656t-0.086 0.734q0 0.125 0.008 0.258t0.008 0.273h-2v-0.75q0-0.719 0.219-1.266t0.555-0.984 0.727-0.789 0.727-0.695 0.555-0.703 0.219-0.813q0-0.422-0.156-0.781t-0.43-0.633-0.633-0.43-0.781-0.156z"></path>
</svg>
