<!-- Generated by IcoMoon.io -->
<svg version="1.1" xmlns="http://www.w3.org/2000/svg" width="32" height="32" viewBox="0 0 32 32">
<title>uniED14</title>
<path d="M6 10v-4h4v4h-4zM2 14v-12h12v12h-12zM4 4v8h8v-8h-8zM6 26v-4h4v4h-4zM2 30v-12h12v12h-12zM4 20v8h8v-8h-8zM26 6v4h-4v-4h4zM18 2h12v12h-12v-12zM28 12v-8h-8v8h8zM18 24h2v2h-2v-2zM22 20h-2v2h-2v-4h4v2zM26 18v2h-2v-2h2zM24 20v4h-4v-2h2v-2h2zM20 26h4v2h-2v2h-4v-2h2v-2zM24 30v-2h4v2h-4zM30 28h-2v-4h2v4zM28 20v-2h2v4h-2v2h-2v-4h2zM24 26v-2h2v2h-2z"></path>
</svg>
