<!-- Generated by IcoMoon.io -->
<svg version="1.1" xmlns="http://www.w3.org/2000/svg" width="32" height="32" viewBox="0 0 32 32">
<title>uniE9F8</title>
<path d="M23 9.375l8.984 4.5v12.219l-8.984 4.5-9-4.469v-5.016l-5 2.484-9-4.469 0.016-12.25 8.984-4.5 8.984 4.5 0.016 5.016zM28.75 14.484l-5.75-2.859-5.75 2.859 5.75 2.875zM14.75 7.484l-5.75-2.859-5.75 2.859 5.75 2.875zM2.016 9.109l-0.016 8.766 6 2.984v-8.766zM10 20.859l4.016-1.984v-5l1.984-0.984-0.016-3.781-5.984 2.984v8.766zM16.016 16.109l-0.016 8.766 6 2.984v-8.766zM24 27.859l5.984-3v-8.75l-5.984 2.984v8.766z"></path>
</svg>
