<!-- Generated by IcoMoon.io -->
<svg version="1.1" xmlns="http://www.w3.org/2000/svg" width="32" height="32" viewBox="0 0 32 32">
<title>uniF067</title>
<path d="M16 10h-6v-2h6v2zM6 16h2v2h-2v-2zM6 8h2v2h-2v-2zM6 12h2v2h-2v-2zM6 20h2v2h-2v-2zM28 15.516q0.938 0.641 1.68 1.461t1.258 1.781 0.789 2.039 0.273 2.203q0 1.859-0.711 3.5t-1.93 2.859-2.859 1.93-3.5 0.711h-21v-32h17.422l8.578 8.578v6.938zM20 8h4.578l-4.578-4.578v4.578zM17.344 30q-0.797-0.641-1.414-1.43t-1.047-1.695-0.656-1.883-0.227-1.992q0-1.859 0.711-3.5t1.93-2.859 2.859-1.93 3.5-0.711q1.563 0 3 0.516v-4.516h-8v-8h-14v28h13.344zM23 30q1.453 0 2.727-0.555t2.219-1.5 1.5-2.219 0.555-2.727-0.555-2.727-1.5-2.219-2.219-1.5-2.727-0.555-2.727 0.555-2.219 1.5-1.5 2.219-0.555 2.727 0.555 2.727 1.5 2.219 2.219 1.5 2.727 0.555zM10 20h1.906q-0.125 0.5-0.219 1t-0.141 1h-1.547v-2zM10 16h3.891q-0.359 0.469-0.664 0.969t-0.57 1.031h-2.656v-2zM19.656 12q-2.078 0.641-3.797 2h-5.859v-2h9.656zM24 22h3v2h-5v-6h2v4z"></path>
</svg>
