<!-- Generated by IcoMoon.io -->
<svg version="1.1" xmlns="http://www.w3.org/2000/svg" width="32" height="32" viewBox="0 0 32 32">
<title>uniF4EB</title>
<path d="M15.984 26h-1.984v-12h3.953q0.766 0 1.477 0.188t1.25 0.578 0.859 1 0.32 1.469q0 1.297-0.719 2.125t-1.938 1.188q0.609 0.344 1.094 0.914t0.844 1.164l2.125 3.375h-2.313l-1.922-3.219q-0.203-0.344-0.422-0.641t-0.477-0.523-0.586-0.359-0.766-0.133h-0.797v4.875zM15.984 19.516h1.656q0.938 0 1.531-0.555t0.594-1.508q0-0.969-0.609-1.406t-1.5-0.438h-1.672v3.906zM30 2v28h-28v-28h28zM28 4h-24v24h24v-24z"></path>
</svg>
