<!-- Generated by IcoMoon.io -->
<svg version="1.1" xmlns="http://www.w3.org/2000/svg" width="32" height="32" viewBox="0 0 32 32">
<title>uniE9C7</title>
<path d="M23.609 23.5q0.406 0 0.695 0.297t0.289 0.703q0 0.563-0.5 0.859l-1.094 0.641 1.094 0.641q0.5 0.297 0.5 0.859 0 0.422-0.297 0.711t-0.703 0.289q-0.203 0-0.414-0.086t-0.422-0.203-0.406-0.25-0.352-0.227q0 0.297 0.016 0.688t-0.055 0.742-0.281 0.594-0.68 0.242-0.688-0.242-0.289-0.594-0.047-0.742 0.023-0.688q-0.172 0.094-0.359 0.227t-0.398 0.25-0.422 0.203-0.414 0.086q-0.406 0-0.703-0.289t-0.297-0.711q0-0.563 0.5-0.859l1.094-0.641-1.094-0.641q-0.5-0.297-0.5-0.859 0-0.406 0.289-0.703t0.695-0.297q0.203 0 0.422 0.086t0.43 0.211 0.406 0.25 0.352 0.219q0-0.297-0.023-0.688t0.047-0.742 0.289-0.594 0.688-0.242 0.68 0.242 0.281 0.594 0.055 0.742-0.016 0.688q0.156-0.094 0.352-0.219t0.406-0.25 0.43-0.211 0.422-0.086zM15.281 28.547q0.219 0.469 0.219 0.953 0 0.516-0.195 0.969t-0.539 0.797-0.797 0.539-0.969 0.195-0.969-0.195-0.797-0.539-0.539-0.797-0.195-0.969q0-0.484 0.219-0.953l2.281-4.547zM27.516 16.188q0.984 0.266 1.805 0.82t1.422 1.32 0.93 1.703 0.328 1.969q0 0.953-0.289 1.836t-0.813 1.617-1.266 1.297-1.633 0.875v-2.172q0.922-0.547 1.461-1.461t0.539-1.992q0-0.859-0.32-1.586t-0.883-1.266-1.305-0.844-1.586-0.305q-0.188-1.281-0.797-2.383t-1.531-1.906-2.094-1.258-2.484-0.453q-1.203 0-2.289 0.391t-1.977 1.078-1.539 1.656-0.945 2.109q-0.688-0.594-1.516-0.914t-1.734-0.32q-1.031 0-1.945 0.391t-1.594 1.070-1.070 1.594-0.391 1.945 0.391 1.945 1.070 1.594 1.594 1.070 1.945 0.391l-0.953 1.906q-1.297-0.172-2.406-0.781t-1.914-1.539-1.266-2.102-0.461-2.484q0-1.453 0.555-2.727t1.5-2.219 2.219-1.5 2.727-0.555q1.156 0 2.297 0.391 0.609-1.016 1.445-1.828t1.828-1.383 2.117-0.875 2.313-0.305q1.453 0 2.789 0.453t2.461 1.273 1.969 1.953 1.297 2.508z"></path>
</svg>
