<!-- Generated by IcoMoon.io -->
<svg version="1.1" xmlns="http://www.w3.org/2000/svg" width="32" height="32" viewBox="0 0 32 32">
<title>uniE9C3</title>
<path d="M16.281 28.547q0.219 0.469 0.219 0.953 0 0.516-0.195 0.969t-0.539 0.797-0.797 0.539-0.969 0.195-0.969-0.195-0.797-0.539-0.539-0.797-0.195-0.969q0-0.484 0.219-0.953l2.281-4.547zM22.281 24.547q0.219 0.469 0.219 0.953 0 0.516-0.195 0.969t-0.539 0.797-0.797 0.539-0.969 0.195-0.969-0.195-0.797-0.539-0.539-0.797-0.195-0.969q0-0.484 0.219-0.953l2.281-4.547zM27.516 16.188q0.984 0.266 1.805 0.82t1.422 1.32 0.93 1.703 0.328 1.969q0 1.25-0.469 2.336t-1.289 1.906-1.914 1.289-2.328 0.469h-1.688q0.266-0.453 0.422-0.961t0.219-1.039h1.047q0.828 0 1.555-0.313t1.273-0.859 0.859-1.273 0.313-1.555q0-0.859-0.32-1.594t-0.883-1.266-1.313-0.836-1.594-0.305q-0.188-1.281-0.797-2.383t-1.523-1.906-2.086-1.258-2.484-0.453q-1.203 0-2.289 0.391t-1.977 1.078-1.539 1.656-0.945 2.109q-0.688-0.594-1.516-0.914t-1.734-0.32q-1.031 0-1.945 0.391t-1.594 1.070-1.070 1.594-0.391 1.945 0.391 1.945 1.070 1.594 1.594 1.070 1.945 0.391h1.5l-1 2h-0.5q-1.453 0-2.727-0.555t-2.219-1.5-1.5-2.219-0.555-2.727q0-1.047 0.297-2.023t0.844-1.813 1.32-1.492 1.727-1.078q-0.188-0.766-0.188-1.594 0-1.453 0.555-2.727t1.5-2.219 2.219-1.5 2.727-0.555q1.016 0 1.961 0.281t1.766 0.805 1.477 1.266 1.094 1.648q1.406 0.047 2.695 0.523t2.375 1.289 1.898 1.93 1.25 2.445zM11.297 14.391q0.953-1.609 2.477-2.703t3.352-1.484q-0.703-1.031-1.789-1.617t-2.336-0.586q-1.031 0-1.945 0.398t-1.594 1.078-1.070 1.586-0.391 1.938q0 0.5 0.125 1.047 0.438-0.047 0.875-0.047 1.156 0 2.297 0.391zM4 14h-4v-2h4v2zM5.922 7.344l-2.828-2.828 1.422-1.422 2.828 2.828zM14 4h-2v-4h2v4zM20.078 7.344l-1.422-1.422 2.828-2.828 1.422 1.422z"></path>
</svg>
