<!-- Generated by IcoMoon.io -->
<svg version="1.1" xmlns="http://www.w3.org/2000/svg" width="32" height="32" viewBox="0 0 32 32">
<title>uniE9C4</title>
<path d="M13.281 28.547q0.219 0.469 0.219 0.953 0 0.516-0.195 0.969t-0.539 0.797-0.797 0.539-0.969 0.195-0.969-0.195-0.797-0.539-0.539-0.797-0.195-0.969q0-0.484 0.219-0.953l2.281-4.547zM25.281 28.547q0.219 0.469 0.219 0.953 0 0.516-0.195 0.969t-0.539 0.797-0.797 0.539-0.969 0.195-0.969-0.195-0.797-0.539-0.539-0.797-0.195-0.969q0-0.484 0.219-0.953l2.281-4.547zM19.281 24.547q0.219 0.469 0.219 0.953 0 0.516-0.195 0.969t-0.539 0.797-0.797 0.539-0.969 0.195-0.969-0.195-0.797-0.539-0.539-0.797-0.195-0.969q0-0.484 0.219-0.953l2.281-4.547zM27.516 16.188q0.984 0.266 1.805 0.82t1.422 1.32 0.93 1.703 0.328 1.969-0.344 1.977-0.953 1.719-1.453 1.32-1.844 0.797l-0.938-1.875q0.75-0.094 1.398-0.43t1.117-0.867 0.742-1.203 0.273-1.438q0-0.859-0.32-1.594t-0.883-1.266-1.313-0.836-1.594-0.305q-0.188-1.281-0.797-2.383t-1.523-1.906-2.086-1.258-2.484-0.453q-1.203 0-2.289 0.391t-1.977 1.078-1.539 1.656-0.945 2.109q-0.688-0.594-1.516-0.914t-1.734-0.32q-1.031 0-1.945 0.391t-1.594 1.070-1.070 1.594-0.391 1.945q0 0.828 0.266 1.594t0.742 1.398 1.141 1.094 1.461 0.695l-0.891 1.781q-1.047-0.359-1.914-1.016t-1.492-1.516-0.969-1.883-0.344-2.148q0-1.453 0.555-2.727t1.5-2.219 2.219-1.5 2.727-0.555q1.156 0 2.297 0.391 0.609-1.016 1.445-1.828t1.828-1.383 2.117-0.875 2.313-0.305q1.453 0 2.789 0.453t2.461 1.273 1.969 1.953 1.297 2.508z"></path>
</svg>
