<!-- Generated by IcoMoon.io -->
<svg version="1.1" xmlns="http://www.w3.org/2000/svg" width="32" height="32" viewBox="0 0 32 32">
<title>uniEB07</title>
<path d="M16 0q2.203 0 4.25 0.57t3.828 1.609 3.242 2.5 2.5 3.242 1.609 3.828 0.57 4.25-0.57 4.25-1.609 3.828-2.5 3.242-3.242 2.5-3.828 1.609-4.25 0.57-4.25-0.57-3.828-1.609-3.242-2.5-2.5-3.242-1.609-3.82-0.57-4.258q0-2.203 0.57-4.25t1.609-3.828 2.5-3.242 3.242-2.5 3.82-1.609 4.258-0.57zM16 30q1.922 0 3.711-0.5t3.344-1.414 2.836-2.195 2.195-2.836 1.414-3.336 0.5-3.719q0-1.922-0.5-3.711t-1.414-3.344-2.195-2.836-2.836-2.195-3.344-1.414-3.711-0.5-3.711 0.5-3.344 1.414-2.836 2.195-2.195 2.836-1.414 3.344-0.5 3.711 0.5 3.711 1.414 3.344 2.195 2.836 2.836 2.195 3.336 1.414 3.719 0.5zM22 16q0.828 0 1.555 0.313t1.273 0.859 0.859 1.273 0.313 1.555-0.313 1.555-0.859 1.273-1.273 0.859-1.555 0.313-1.555-0.313-1.273-0.859-0.859-1.273-0.313-1.555 0.313-1.555 0.859-1.273 1.273-0.859 1.555-0.313zM22 22q0.422 0 0.781-0.156t0.633-0.43 0.43-0.633 0.156-0.781-0.156-0.781-0.43-0.633-0.633-0.43-0.781-0.156-0.781 0.156-0.633 0.43-0.43 0.633-0.156 0.781 0.156 0.781 0.43 0.633 0.633 0.43 0.781 0.156zM14 12q0 0.828-0.313 1.555t-0.859 1.273-1.273 0.859-1.555 0.313-1.555-0.313-1.273-0.859-0.859-1.273-0.313-1.555 0.313-1.555 0.859-1.273 1.273-0.859 1.555-0.313 1.555 0.313 1.273 0.859 0.859 1.273 0.313 1.555zM10 14q0.422 0 0.781-0.156t0.633-0.43 0.43-0.633 0.156-0.781-0.156-0.781-0.43-0.633-0.633-0.43-0.781-0.156-0.781 0.156-0.633 0.43-0.43 0.633-0.156 0.781 0.156 0.781 0.43 0.633 0.633 0.43 0.781 0.156zM21.109 8l-8 16h-2.219l8-16h2.219z"></path>
</svg>
