<!-- Generated by IcoMoon.io -->
<svg version="1.1" xmlns="http://www.w3.org/2000/svg" width="32" height="32" viewBox="0 0 32 32">
<title>uniE736</title>
<path d="M30 4v26h-30v-26h4v-2h6q1.375 0 2.648 0.422t2.352 1.266q1.078-0.844 2.352-1.266t2.648-0.422h6v2h4zM20 4q-1.094 0-2.125 0.367t-1.875 1.070v19.594q0.922-0.516 1.938-0.773t2.063-0.258h4v-20h-4zM6 24h4q1.047 0 2.063 0.258t1.938 0.773v-19.594q-0.844-0.703-1.875-1.070t-2.125-0.367h-4v20zM2 28h12.594q-0.5-0.484-1.016-0.852t-1.070-0.625-1.172-0.391-1.336-0.133h-6v-20h-2v22zM28 6h-2v20h-6q-0.719 0-1.336 0.133t-1.172 0.391-1.070 0.625-1.016 0.852h12.594v-22z"></path>
</svg>
