<!-- Generated by IcoMoon.io -->
<svg version="1.1" xmlns="http://www.w3.org/2000/svg" width="32" height="32" viewBox="0 0 32 32">
<title>uniF112</title>
<path d="M14.5 18l6-6h1.5v20h-1.5l-6-6h-4.5v-8h4.5zM20 28.672v-13.344l-4.672 4.672h-3.328v4h3.328zM25.078 14.922q1.422 1.422 2.172 3.25t0.75 3.828-0.75 3.828-2.172 3.25l-1.422-1.422q1.125-1.125 1.734-2.586t0.609-3.070-0.609-3.070-1.734-2.586zM32 22q0 2.813-1.063 5.359t-3.031 4.547l-1.422-1.422q1.703-1.703 2.609-3.891t0.906-4.594-0.906-4.594-2.609-3.891l1.422-1.422q1.969 2 3.031 4.547t1.063 5.359zM9.594 2h-7.594v24h6v2h-8v-28h9.594q1.688 0 3.086 0.656t2.32 2.109q0.906-1.453 2.313-2.109t3.094-0.656h9.594v10.703q-0.406-0.547-0.961-1.047t-1.039-0.984v-6.672h-7.594q-1.375 0-2.43 0.578t-1.633 1.859q-0.047 0.094-0.102 0.25t-0.109 0.328-0.094 0.336-0.039 0.273v7.344l-2 2v-9.344q0-0.109-0.039-0.273t-0.094-0.336-0.109-0.328-0.102-0.25q-0.578-1.281-1.633-1.859t-2.43-0.578z"></path>
</svg>
