<!-- Generated by IcoMoon.io -->
<svg version="1.1" xmlns="http://www.w3.org/2000/svg" width="32" height="32" viewBox="0 0 32 32">
<title>uniF33D</title>
<path d="M10 26q0.672 0 1.18 0.148t0.938 0.406 0.82 0.633 0.844 0.813h-13.781v-24h2v22h8zM10 2q1.047 0 2.063 0.258t1.938 0.773v22.422q-0.844-0.703-1.875-1.078t-2.125-0.375h-6v-22h6zM30 4v24h-13.781q0.438-0.438 0.836-0.813t0.828-0.633 0.938-0.406 1.18-0.148h8v-22h2zM20 24q-1.094 0-2.125 0.375t-1.875 1.078v-22.422q0.922-0.516 1.938-0.773t2.063-0.258h6v22h-6z"></path>
</svg>
