<!-- Generated by IcoMoon.io -->
<svg version="1.1" xmlns="http://www.w3.org/2000/svg" width="32" height="32" viewBox="0 0 32 32">
<title>uniF41B</title>
<path d="M11 4q1.516 0 2.922 0.391t2.633 1.109 2.227 1.719 1.719 2.227 1.109 2.633 0.391 2.922-0.391 2.922-1.109 2.633-1.719 2.227-2.227 1.719-2.633 1.109-2.922 0.391-2.922-0.391-2.633-1.109-2.227-1.719-1.719-2.227-1.109-2.633-0.391-2.922 0.391-2.922 1.109-2.633 1.719-2.227 2.227-1.719 2.633-1.109 2.922-0.391zM11 24q1.859 0 3.5-0.711t2.859-1.93 1.93-2.859 0.711-3.5-0.711-3.5-1.93-2.859-2.859-1.93-3.5-0.711-3.5 0.711-2.859 1.93-1.93 2.859-0.711 3.5 0.711 3.5 1.93 2.859 2.859 1.93 3.5 0.711zM26 14h6v2h-6v-2zM32 8v2h-8v-2h8zM26 20h6v2h-6v-2zM10 20h2v2h-2v-2zM11 8q0.828 0 1.555 0.313t1.273 0.859 0.859 1.273 0.313 1.555h-2q0-0.422-0.156-0.781t-0.43-0.633-0.633-0.43-0.781-0.156-0.781 0.156-0.633 0.43-0.43 0.633-0.156 0.781q0 0.453 0.219 0.813t0.555 0.703 0.727 0.695 0.727 0.789 0.555 0.984 0.219 1.266v0.75h-2v-0.531q0-0.391-0.078-0.734t-0.391-0.656q-0.469-0.469-0.922-0.898t-0.813-0.898-0.578-1.016-0.219-1.266q0-0.828 0.313-1.555t0.859-1.273 1.273-0.859 1.555-0.313z"></path>
</svg>
