<!-- Generated by IcoMoon.io -->
<svg version="1.1" xmlns="http://www.w3.org/2000/svg" width="32" height="32" viewBox="0 0 32 32">
<title>uniE496</title>
<path d="M22 6v2h-12v-2h12zM18 12v2h-8v-2h8zM18 16v2h-8v-2h8zM18 20v2h-8v-2h8zM20 14v-2h2v2h-2zM20 18v-2h2v2h-2zM20 22v-2h2v2h-2zM26 24h6l-0.047 1.094q-0.031 0.719-0.117 1.406t-0.289 1.391q-0.188 0.625-0.492 1.281t-0.742 1.227-1 0.992-1.234 0.594q-0.016 0-0.031 0.008t-0.047 0.008h-15.922q-0.453 0-0.969-0.156t-1.031-0.391-0.977-0.523-0.805-0.555q-1.125-0.891-1.711-2.008t-0.586-2.57v-17.797h-6l0.016-1.078q0.031-1.531 0.359-2.766t1.039-2.125 1.836-1.406 2.75-0.609v-0.016h14.109q1.109 0 2.164 0.266t1.883 0.844 1.336 1.469 0.508 2.141v19.281zM6 6v-4q-0.375 0-0.789 0.055t-0.813 0.172-0.766 0.305-0.633 0.469q-0.344 0.359-0.547 0.695t-0.305 0.695-0.125 0.75-0.023 0.859h4zM12.359 30.094q1.063 0 1.984-0.414t1.656-1.164q0.906-0.938 1.727-2.109t1.273-2.406h5v-19.188q0-0.578-0.219-1.094t-0.602-0.898-0.898-0.602-1.094-0.219h-13.188v23.781q0 0.938 0.375 1.727t1.109 1.383q0.266 0.219 0.617 0.43t0.734 0.383 0.781 0.281 0.742 0.109zM27.828 30q0.031 0 0.094-0.031t0.125-0.078 0.117-0.094 0.070-0.063q0.375-0.328 0.695-0.766t0.563-0.93 0.375-1.016 0.133-1.023h-10.016q-0.109 0.422-0.438 0.984t-0.75 1.133-0.859 1.078-0.75 0.805h10.641z"></path>
</svg>
