<!-- Generated by IcoMoon.io -->
<svg version="1.1" xmlns="http://www.w3.org/2000/svg" width="32" height="32" viewBox="0 0 32 32">
<title>uniEE12</title>
<path d="M32 20v12h-16v-12h4v-4h8v4h4zM22 20h4v-2h-4v2zM30 26h-2v2h-2v-2h-4v2h-2v-2h-2v4h12v-4zM30 22h-12v2h12v-2zM24.453 14q-0.844-0.953-2.008-1.477t-2.445-0.523q-1.25 0-2.336 0.469t-1.906 1.289-1.289 1.914-0.469 2.328q0 1.438-0.648 2.711t-1.805 2.117q0.703 0.359 1.32 0.836t1.133 1.055v5.281q0-1.234-0.469-2.328t-1.289-1.914-1.914-1.289-2.328-0.469q-1.25 0-2.336 0.469t-1.906 1.289-1.289 1.914-0.469 2.328h-2q0-1.141 0.313-2.211t0.891-2.008 1.406-1.688 1.844-1.266q-1.156-0.844-1.805-2.117t-0.648-2.711q0-1.234 0.469-2.328t1.289-1.914 1.906-1.289 2.336-0.469q1.438 0 2.711 0.648t2.117 1.805q0.594-1.172 1.523-2.102t2.102-1.523q-1.156-0.844-1.805-2.117t-0.648-2.711q0-1.234 0.469-2.328t1.289-1.914 1.906-1.289 2.336-0.469q1.234 0 2.328 0.469t1.914 1.289 1.289 1.914 0.469 2.328q0 1.438-0.648 2.711t-1.805 2.117q1.063 0.531 1.922 1.336t1.453 1.836h-2.469zM8 22q0.828 0 1.555-0.313t1.273-0.859 0.859-1.273 0.313-1.555-0.313-1.555-0.859-1.273-1.273-0.859-1.555-0.313-1.555 0.313-1.273 0.859-0.859 1.273-0.313 1.555 0.313 1.555 0.859 1.273 1.273 0.859 1.555 0.313zM16 6q0 0.828 0.313 1.555t0.859 1.273 1.273 0.859 1.555 0.313 1.555-0.313 1.273-0.859 0.859-1.273 0.313-1.555-0.313-1.555-0.859-1.273-1.273-0.859-1.555-0.313-1.555 0.313-1.273 0.859-0.859 1.273-0.313 1.555z"></path>
</svg>
