<!-- Generated by IcoMoon.io -->
<svg version="1.1" xmlns="http://www.w3.org/2000/svg" width="32" height="32" viewBox="0 0 32 32">
<title>uniEDB2</title>
<path d="M32 18v6h-6v-2h2.969q-0.703-0.938-1.75-1.469t-2.219-0.531q-0.922 0-1.742 0.313t-1.477 0.867-1.094 1.32-0.594 1.672l-1.984-0.344q0.219-1.266 0.844-2.328t1.539-1.844 2.070-1.219 2.438-0.438q1.422 0 2.719 0.555t2.281 1.586v-2.141h2zM25 30q0.906 0 1.734-0.313t1.484-0.867 1.094-1.32 0.594-1.672l1.984 0.344q-0.219 1.266-0.844 2.328t-1.539 1.844-2.070 1.219-2.438 0.438q-1.422 0-2.719-0.555t-2.281-1.586v2.141h-2v-6h6v2h-2.969q0.703 0.938 1.75 1.469t2.219 0.531zM9 16.578l9.797-9.781 1.406 1.406-11.203 11.219-5.203-5.219 1.406-1.406zM2 22h14.25q-0.172 0.484-0.281 0.984t-0.156 1.016h-15.813v-24h24v15.813q-0.516 0.047-1.016 0.156t-0.984 0.281v-14.25h-20v20z"></path>
</svg>
