<!-- Generated by IcoMoon.io -->
<svg version="1.1" xmlns="http://www.w3.org/2000/svg" width="32" height="32" viewBox="0 0 32 32">
<title>uniEF87</title>
<path d="M11.75 22.453h2.859v2.375h-2.391q-0.5 0-0.75-0.453-0.094-0.172-0.328-0.594t-0.492-0.883-0.453-0.859-0.195-0.539q0-0.25 0.117-0.531t0.281-0.563 0.328-0.539l0.273-0.43-1-0.797h3.078l0.734 3.031-1.203-0.953zM13.469 14.484q0.109-0.219 0.305-0.352t0.445-0.133h3.453q0.5 0 0.75 0.469l0.844 1.578 0.906-0.688-0.469 3.234-3.406-0.313 0.969-0.719-1.438-2.797-1.313 2.578-1.984-1zM19.234 20.719l1.906-1.125q0.063 0.141 0.211 0.398t0.289 0.539 0.25 0.547 0.109 0.422q0 0.188-0.094 0.375l-1.328 2.625q-0.109 0.219-0.313 0.336t-0.438 0.117h-2.094v1.047l-1.938-2.594 1.938-2.375v1.609h2.547zM16 0q1.219 0 2.438 0.094t2.438 0.266q0.703 0.109 1.648 0.313t1.961 0.516 2 0.758 1.766 1.039 1.266 1.344 0.484 1.672q0 0.266-0.047 0.477t-0.109 0.461l-4.922 21.984q-2.031 1.516-4.195 2.297t-4.711 0.781q-2.531 0-4.703-0.781t-4.188-2.297l-4.984-22.031-0.094-0.438t-0.047-0.453q0-0.922 0.484-1.672t1.266-1.344 1.766-1.039 2-0.758 1.961-0.516 1.648-0.313q1.219-0.172 2.438-0.266t2.438-0.094zM27.172 9.719q-1.156 0.641-2.555 1.078t-2.875 0.703-2.953 0.383-2.789 0.117-2.781-0.117-2.945-0.383-2.875-0.703-2.555-1.078l4.063 18.031q1.563 1.094 3.391 1.648t3.734 0.555q1.891 0 3.711-0.555t3.383-1.648zM16 10q0.781 0 1.742-0.047t1.992-0.172 2.078-0.32 2.031-0.492 1.836-0.703 1.492-0.938q0.281-0.234 0.555-0.578t0.273-0.75-0.273-0.75-0.555-0.578q-0.641-0.531-1.492-0.938t-1.836-0.703-2.031-0.492-2.078-0.32-1.992-0.172-1.742-0.047q-0.797 0-1.75 0.047t-1.984 0.172-2.078 0.32-2.031 0.492-1.836 0.703-1.492 0.938q-0.281 0.234-0.555 0.578t-0.273 0.75 0.273 0.75 0.555 0.578q0.641 0.531 1.492 0.938t1.836 0.703 2.031 0.492 2.078 0.32 1.984 0.172 1.75 0.047z"></path>
</svg>
