<!-- Generated by IcoMoon.io -->
<svg version="1.1" xmlns="http://www.w3.org/2000/svg" width="32" height="32" viewBox="0 0 32 32">
<title>uniE3AD</title>
<path d="M16 8q2.344 0 4.563 0.609t4.258 1.68 3.844 2.539 3.336 3.172q-1.531 1.719-3.336 3.18t-3.844 2.531-4.258 1.68-4.563 0.609-4.563-0.609-4.258-1.68-3.852-2.531-3.328-3.18q1.516-1.703 3.328-3.172t3.852-2.539 4.258-1.68 4.563-0.609zM16 21.719q1.188 0 2.227-0.453t1.813-1.227 1.227-1.813 0.453-2.227-0.453-2.227-1.227-1.813-1.813-1.227-2.227-0.453-2.227 0.453-1.813 1.227-1.227 1.813-0.453 2.227 0.453 2.227 1.227 1.813 1.813 1.227 2.227 0.453zM10.141 20.875q-0.859-1.031-1.313-2.281t-0.453-2.594 0.453-2.594 1.313-2.281q-2.094 0.828-3.93 2.070t-3.445 2.805q1.609 1.563 3.445 2.805t3.93 2.070zM29.234 16q-1.609-1.563-3.445-2.805t-3.93-2.070q0.859 1.031 1.313 2.281t0.453 2.594-0.453 2.594-1.313 2.281q2.094-0.828 3.93-2.070t3.445-2.805zM16 13.328q0.547 0 1.031 0.211t0.852 0.578 0.578 0.852 0.211 1.031-0.211 1.039-0.578 0.852-0.852 0.57-1.031 0.211-1.039-0.211-0.852-0.57-0.57-0.852-0.211-1.039 0.211-1.031 0.57-0.852 0.852-0.578 1.039-0.211z"></path>
</svg>
