<!-- Generated by IcoMoon.io -->
<svg version="1.1" xmlns="http://www.w3.org/2000/svg" width="32" height="32" viewBox="0 0 32 32">
<title>uniE7B3</title>
<path d="M16 8q2.344 0 4.563 0.609t4.258 1.68 3.844 2.539 3.336 3.172q-1.531 1.719-3.336 3.18t-3.844 2.531-4.258 1.68-4.563 0.609-4.563-0.609-4.258-1.68-3.852-2.531-3.328-3.18q1.516-1.703 3.328-3.172t3.852-2.539 4.258-1.68 4.563-0.609zM22 16q0-1.234-0.477-2.328t-1.289-1.906-1.906-1.289-2.328-0.477-2.328 0.477-1.906 1.289-1.289 1.906-0.477 2.328 0.477 2.328 1.289 1.906 1.906 1.289 2.328 0.477 2.328-0.477 1.906-1.289 1.289-1.906 0.477-2.328zM2.766 16q1.469 1.422 3.125 2.602t3.547 1.977q-0.703-1-1.070-2.18t-0.367-2.398 0.367-2.398 1.070-2.18q-1.891 0.797-3.547 1.977t-3.125 2.602zM22.563 20.578q1.891-0.797 3.547-1.977t3.125-2.602q-1.469-1.422-3.125-2.602t-3.547-1.977q0.703 1 1.070 2.18t0.367 2.398-0.367 2.398-1.070 2.18zM16 18q-0.422 0-0.781-0.156t-0.633-0.43-0.43-0.633-0.156-0.781 0.156-0.781 0.43-0.633 0.633-0.43 0.781-0.156 0.781 0.156 0.633 0.43 0.43 0.633 0.156 0.781-0.156 0.781-0.43 0.633-0.633 0.43-0.781 0.156z"></path>
</svg>
