<!-- Generated by IcoMoon.io -->
<svg version="1.1" xmlns="http://www.w3.org/2000/svg" width="32" height="32" viewBox="0 0 32 32">
<title>uniE7A6</title>
<path d="M18 8h6.578q-1.109-1.125-2.117-2.188t-2.102-1.898-2.383-1.344-2.977-0.508q-1.828 0-3.453 0.711t-2.844 1.93-1.93 2.844-0.711 3.453q0 1.75 0.672 3.367t1.906 2.852l13.063 13.078-1.406 1.406-13.078-13.063q-1.516-1.516-2.336-3.508t-0.82-4.133q0-1.5 0.391-2.891t1.109-2.609 1.719-2.219 2.219-1.719 2.609-1.109 2.891-0.391q1.313 0 2.398 0.242t2.016 0.672 1.75 1.031 1.609 1.328 1.57 1.547 1.656 1.695v-6.578h2v10h-10v-2z"></path>
</svg>
