<!-- Generated by IcoMoon.io -->
<svg version="1.1" xmlns="http://www.w3.org/2000/svg" width="32" height="32" viewBox="0 0 32 32">
<title>uniF6EA</title>
<path d="M32 0v1q0 2.609-0.398 4.852t-1.242 4.258-2.148 3.883-3.133 3.711q-0.594 0.594-1.203 1.172t-1.266 1.125h-3.281q1.172-0.844 2.242-1.75t2.086-1.938q1.547-1.578 2.703-3.172t1.938-3.328 1.195-3.656 0.492-4.141q-2.219 0.078-4.141 0.492t-3.648 1.195-3.32 1.93-3.172 2.695q-1.563 1.516-2.844 3.188t-2.422 3.516l5.563 5.547v3.875q-2.156 1.25-4.359 2.438l-6.531-6.531q1.188-2.203 2.438-4.359h-3.547v-4.719l8.938-2.984v0.016q1.984-2.125 3.945-3.688t4.117-2.594 4.609-1.531 5.391-0.5h1zM15.203 22.609l-5.813-5.813q-0.453 0.797-0.898 1.594t-0.898 1.594v0.016l4.406 4.406h0.016q0.797-0.453 1.594-0.898t1.594-0.898zM8.719 14q0.453-0.719 0.914-1.422t0.961-1.391l-4.594 1.531v1.281h2.719zM24 12q0 0.828-0.313 1.555t-0.859 1.273-1.273 0.859-1.555 0.313-1.555-0.313-1.273-0.859-0.859-1.273-0.313-1.555 0.313-1.555 0.859-1.273 1.273-0.859 1.555-0.313 1.555 0.313 1.273 0.859 0.859 1.273 0.313 1.555zM18 12q0 0.422 0.156 0.781t0.43 0.633 0.633 0.43 0.781 0.156 0.781-0.156 0.633-0.43 0.43-0.633 0.156-0.781-0.156-0.781-0.43-0.633-0.633-0.43-0.781-0.156-0.781 0.156-0.633 0.43-0.43 0.633-0.156 0.781zM4 24q0.828 0 1.555 0.313t1.273 0.859 0.859 1.273 0.313 1.555-0.313 1.555-0.859 1.273-1.273 0.859-1.555 0.313h-4v-4q0-0.828 0.313-1.555t0.859-1.273 1.273-0.859 1.555-0.313zM4 30q0.422 0 0.781-0.156t0.633-0.43 0.43-0.633 0.156-0.781-0.156-0.781-0.43-0.633-0.633-0.43-0.781-0.156-0.781 0.156-0.633 0.43-0.43 0.633-0.156 0.781v2h2zM22 28v-2h10v2h-10zM22 24v-2h10v2h-10zM18 32v-2h2v2h-2zM18 24v-2h2v2h-2zM22 32v-2h10v2h-10zM18 28v-2h2v2h-2z"></path>
</svg>
