<!-- Generated by IcoMoon.io -->
<svg version="1.1" xmlns="http://www.w3.org/2000/svg" width="32" height="32" viewBox="0 0 32 32">
<title>uniF7C0</title>
<path d="M11.703 6.297l8.703 8.703-8.703 8.703-1.406-1.406 6.281-6.297h-16.578v-2h16.578l-6.281-6.297zM24 16v-14h-6v-2h8v16h-2zM32 25q0 1.453-0.547 2.727t-1.5 2.227-2.227 1.5-2.727 0.547-2.727-0.547-2.227-1.5-1.5-2.227-0.547-2.727 0.547-2.727 1.5-2.227 2.227-1.5 2.727-0.547 2.727 0.547 2.227 1.5 1.5 2.227 0.547 2.727zM25 30q1.031 0 1.938-0.391t1.586-1.070 1.078-1.594 0.398-1.945-0.398-1.938-1.078-1.586-1.586-1.078-1.938-0.398-1.945 0.398-1.594 1.078-1.070 1.586-0.391 1.938 0.391 1.945 1.070 1.594 1.594 1.070 1.945 0.391zM26.625 22.125l1.25 1.25-1.641 1.625 1.641 1.625-1.25 1.25-1.625-1.641-1.625 1.641-1.25-1.25 1.641-1.625-1.641-1.625 1.25-1.25 1.625 1.641z"></path>
</svg>
