<!-- Generated by IcoMoon.io -->
<svg version="1.1" xmlns="http://www.w3.org/2000/svg" width="32" height="32" viewBox="0 0 32 32">
<title>uniEBF7</title>
<path d="M31.703 22.703l-8.703 8.719-4.203-4.219 1.406-1.406 2.797 2.781 7.297-7.281zM24.922 23.828q-1.734-1.906-4.047-2.867t-4.875-0.961q-1.688 0-3.227 0.422t-2.875 1.195-2.422 1.859-1.859 2.422-1.195 2.875-0.422 3.227h-2q0-2.234 0.648-4.297t1.852-3.797 2.914-3.047 3.82-2.063q-1.219-0.656-2.188-1.594t-1.648-2.078-1.039-2.438-0.359-2.688q0-2.078 0.781-3.898t2.141-3.18 3.18-2.141 3.898-0.781 3.898 0.781 3.18 2.141 2.141 3.18 0.781 3.898q0 1.391-0.367 2.688t-1.047 2.438-1.648 2.078-2.188 1.594q1.594 0.563 3 1.492t2.547 2.164zM8 10q0 1.656 0.633 3.109t1.719 2.539 2.539 1.719 3.109 0.633 3.109-0.633 2.539-1.719 1.719-2.539 0.633-3.109-0.633-3.109-1.719-2.539-2.539-1.719-3.109-0.633-3.109 0.633-2.539 1.719-1.719 2.539-0.633 3.109z"></path>
</svg>
