<!-- Generated by IcoMoon.io -->
<svg version="1.1" xmlns="http://www.w3.org/2000/svg" width="32" height="32" viewBox="0 0 32 32">
<title>uniEBF8</title>
<path d="M31.703 22.703l-8.703 8.719-4.203-4.219 1.406-1.406 2.797 2.781 7.297-7.281zM11.5 22.844q1.031 0.516 1.859 1.266t1.414 1.672 0.906 2 0.32 2.219h-2q0-1.234-0.469-2.328t-1.289-1.914-1.914-1.289-2.328-0.469q-1.25 0-2.336 0.469t-1.906 1.289-1.289 1.914-0.469 2.328h-2q0-1.141 0.32-2.219t0.906-2 1.414-1.672 1.859-1.266q-1.172-0.844-1.836-2.109t-0.664-2.734q0-1.234 0.469-2.328t1.289-1.914 1.906-1.289 2.336-0.469q1.469 0 2.734 0.664t2.109 1.836q0.594-1.188 1.531-2.125t2.125-1.531q-1.172-0.844-1.836-2.109t-0.664-2.734q0-1.234 0.469-2.328t1.289-1.914 1.906-1.289 2.336-0.469q1.234 0 2.328 0.469t1.914 1.289 1.289 1.914 0.469 2.328q0 1.469-0.664 2.734t-1.836 2.109q1.031 0.516 1.859 1.266t1.414 1.672 0.906 2 0.32 2.219h-2q0-1.234-0.469-2.328t-1.289-1.914-1.914-1.289-2.328-0.469q-1.25 0-2.336 0.469t-1.906 1.289-1.289 1.914-0.469 2.328q0 1.469-0.664 2.734t-1.836 2.109zM16 6q0 0.828 0.313 1.555t0.859 1.273 1.273 0.859 1.555 0.313 1.555-0.313 1.273-0.859 0.859-1.273 0.313-1.555-0.313-1.555-0.859-1.273-1.273-0.859-1.555-0.313-1.555 0.313-1.273 0.859-0.859 1.273-0.313 1.555zM4 18q0 0.828 0.313 1.555t0.859 1.273 1.273 0.859 1.555 0.313 1.555-0.313 1.273-0.859 0.859-1.273 0.313-1.555-0.313-1.555-0.859-1.273-1.273-0.859-1.555-0.313-1.555 0.313-1.273 0.859-0.859 1.273-0.313 1.555z"></path>
</svg>
