<!-- Generated by IcoMoon.io -->
<svg version="1.1" xmlns="http://www.w3.org/2000/svg" width="32" height="32" viewBox="0 0 32 32">
<title>uniEBF9</title>
<path d="M31.703 22.703l-8.703 8.719-4.203-4.219 1.406-1.406 2.797 2.781 7.297-7.281zM16 6v8h6v2h-8v-10h2zM15 28q0.25 0 0.5-0.016l0.5-0.031 1.781 1.781q-0.703 0.125-1.391 0.195t-1.391 0.070q-2.063 0-3.977-0.539t-3.586-1.516-3.039-2.344-2.344-3.039-1.516-3.586-0.539-3.977 0.539-3.977 1.516-3.586 2.344-3.039 3.039-2.344 3.586-1.516 3.977-0.539 3.977 0.539 3.586 1.516 3.039 2.344 2.344 3.039 1.516 3.586 0.539 3.977q0 0.781-0.094 1.578l-2.625 2.641q0.719-2.078 0.719-4.219 0-1.797-0.469-3.453t-1.313-3.102-2.031-2.633-2.633-2.031-3.102-1.313-3.453-0.469-3.453 0.469-3.102 1.313-2.633 2.031-2.031 2.633-1.313 3.102-0.469 3.453 0.469 3.453 1.313 3.102 2.031 2.633 2.633 2.031 3.102 1.313 3.453 0.469z"></path>
</svg>
