<!-- Generated by IcoMoon.io -->
<svg version="1.1" xmlns="http://www.w3.org/2000/svg" width="32" height="32" viewBox="0 0 32 32">
<title>uniF79A</title>
<path d="M19.75 24l2 2h-4.75q-1.453 0-2.727-0.555t-2.219-1.5-1.5-2.219-0.555-2.727q0-1.047 0.305-2.031t0.859-1.828 1.344-1.508 1.758-1.086q0.469-0.203 0.898-0.313t0.852-0.164 0.859-0.063 0.906-0.008h0.219v2h-0.688q-0.594 0-1.102 0.063t-1.148 0.344q-0.703 0.313-1.266 0.773t-0.961 1.055-0.617 1.297-0.219 1.469q0 1.031 0.391 1.945t1.070 1.594 1.594 1.070 1.945 0.391h2.75zM32 19q0 0.719-0.172 1.5l-1.859-1.859q-0.047-0.703-0.297-1.359t-0.648-1.219-0.953-1-1.211-0.703q-0.625-0.25-1.156-0.305t-1.125-0.055h-0.578v-2h1q1.453 0 2.727 0.555t2.219 1.5 1.5 2.219 0.555 2.727zM21.984 13q0 1.063-0.305 2.047t-0.859 1.82-1.344 1.5-1.758 1.086q-0.453 0.203-0.883 0.313t-0.852 0.164-0.859 0.063-0.906 0.008h-0.219v-2h0.672q0.594 0 1.117-0.063t1.148-0.328q0.688-0.297 1.25-0.773t0.969-1.078 0.625-1.305 0.219-1.453q0-1.031-0.398-1.938t-1.078-1.586-1.586-1.078-1.938-0.398h-8q-1.031 0-1.945 0.398t-1.594 1.078-1.070 1.586-0.391 1.938q0 0.766 0.219 1.469t0.617 1.297 0.961 1.070 1.266 0.773q0.609 0.266 1.133 0.328t1.117 0.063h0.688v2h-1q-1.453 0-2.727-0.555t-2.219-1.5-1.5-2.219-0.555-2.727 0.555-2.727 1.5-2.219 2.219-1.5 2.727-0.555h8q1.453 0 2.719 0.555t2.219 1.5 1.5 2.219 0.547 2.727z"></path>
</svg>
