<!-- Generated by IcoMoon.io -->
<svg version="1.1" xmlns="http://www.w3.org/2000/svg" width="32" height="32" viewBox="0 0 32 32">
<title>uniF82B</title>
<path d="M16.969 1.422l-12.578 12.578h15.609v15q0 0.625-0.234 1.172t-0.641 0.953-0.953 0.641-1.172 0.234h-12q-0.625 0-1.172-0.234t-0.953-0.641-0.641-0.953-0.234-1.172v-12.609l-0.578 0.578-1.422-1.406 4.25-4.25-1.422-1.406q-0.281-0.281-0.43-0.648t-0.148-0.773q0-0.797 0.578-1.406l4.234-4.25q0.281-0.281 0.648-0.43t0.773-0.148 0.773 0.148 0.648 0.43l1.406 1.422 4.25-4.25zM18 29v-13h-14v13q0 0.406 0.297 0.703t0.703 0.297h12q0.406 0 0.703-0.297t0.297-0.703zM8.484 4.25l-4.234 4.234 1.406 1.422 4.25-4.25zM30 4h2v8h-8v-2h4.563q-1.203-0.938-2.617-1.422t-2.93-0.484q-1.797 0-3.422 0.672t-2.891 1.938l-1.406-1.406q1.563-1.563 3.531-2.383t4.188-0.82q1.922 0 3.719 0.641t3.266 1.859v-4.594zM16 18v10h-2v-10h2zM12 18v10h-2v-10h2zM8 18v10h-2v-10h2z"></path>
</svg>
