<!-- Generated by IcoMoon.io -->
<svg version="1.1" xmlns="http://www.w3.org/2000/svg" width="32" height="32" viewBox="0 0 32 32">
<title>uniED90</title>
<path d="M15 6q1.453 0 2.719 0.555t2.219 1.5 1.5 2.219 0.547 2.727-0.547 2.727-1.5 2.219-2.219 1.5-2.719 0.555h-1v-2h1q1.031 0 1.938-0.391t1.586-1.070 1.078-1.594 0.398-1.945-0.398-1.938-1.078-1.586-1.586-1.078-1.938-0.398h-8q-1.031 0-1.945 0.398t-1.594 1.078-1.070 1.586-0.391 1.938 0.391 1.945 1.070 1.594 1.594 1.070 1.945 0.391h1v2h-1q-1.453 0-2.727-0.555t-2.219-1.5-1.5-2.219-0.555-2.727 0.555-2.727 1.5-2.219 2.219-1.5 2.727-0.555h8zM29.969 18.641q-0.078-0.984-0.492-1.828t-1.078-1.469-1.539-0.984-1.859-0.359h-1v-2h1q1.453 0 2.727 0.555t2.219 1.5 1.5 2.219 0.555 2.727q0 0.734-0.172 1.5zM12 19q0 1.031 0.391 1.945t1.070 1.594 1.594 1.070 1.945 0.391h2.75l2 2h-4.75q-1.453 0-2.727-0.555t-2.219-1.5-1.5-2.219-0.555-2.727 0.555-2.727 1.5-2.219 2.219-1.5 2.727-0.555h1v2h-1q-1.031 0-1.945 0.398t-1.594 1.078-1.070 1.586-0.391 1.938zM31.953 23.469l-3.531 3.531 3.531 3.547-1.406 1.406-3.547-3.531-3.547 3.547-1.406-1.422 3.547-3.547-3.547-3.547 1.406-1.406 3.547 3.547 3.547-3.547z"></path>
</svg>
