<!-- Generated by IcoMoon.io -->
<svg version="1.1" xmlns="http://www.w3.org/2000/svg" width="32" height="32" viewBox="0 0 32 32">
<title>uniE8AC</title>
<path d="M3.984 17.953v-3.969h12.031v3.969h-12.031zM20.016 22.016h-20.031v-12.031h20.031v2.031h-18v7.969h18v2.031zM32.016 9.984v12.031h-6.031v-2.031h4v-7.969h-4v-2.031h6.031zM24.016 24.484q1.734 1.5 3.984 1.5h0.016v2.031h-0.016q-2.75 0-4.969-1.719-1.094 0.844-2.367 1.281t-2.664 0.438h-0.016v-2.031h0.016q2.266 0 3.984-1.453v-17.125q-0.813-0.688-1.82-1.039t-2.164-0.352h-0.016v-2.031h0.016q1.422 0 2.695 0.422t2.336 1.234q2.156-1.656 4.969-1.656h0.016v2.031h-0.016q-2.313 0-3.984 1.438v17.031z"></path>
</svg>
