<!-- Generated by IcoMoon.io -->
<svg version="1.1" xmlns="http://www.w3.org/2000/svg" width="32" height="32" viewBox="0 0 32 32">
<title>uniE8ED</title>
<path d="M2 16q0 1.078 0.242 2.133t0.688 2.031 1.094 1.836 1.477 1.563l-1.422 1.422q-0.969-0.859-1.719-1.883t-1.281-2.172-0.805-2.391-0.273-2.539q0-1.656 0.43-3.188t1.211-2.867 1.875-2.43 2.43-1.875 2.867-1.211 3.188-0.43h10.094l-2.547-2.547 1.406-1.406 4.953 4.953-4.953 4.953-1.406-1.406 2.547-2.547h-10.094q-1.375 0-2.656 0.359t-2.391 1.008-2.023 1.563-1.563 2.023-1.008 2.391-0.359 2.656zM27.922 7.031q0.969 0.844 1.727 1.867t1.281 2.172 0.797 2.398 0.273 2.531q0 1.656-0.43 3.188t-1.211 2.867-1.875 2.43-2.43 1.875-2.867 1.211-3.188 0.43h-10.094l2.547 2.547-1.406 1.406-4.953-4.953 4.953-4.953 1.406 1.406-2.547 2.547h10.094q1.375 0 2.656-0.359t2.391-1.008 2.023-1.563 1.563-2.023 1.008-2.391 0.359-2.656q0-1.094-0.234-2.148t-0.68-2.023-1.094-1.836-1.477-1.57zM18 22h-2v-9.188q-0.453 0.328-0.953 0.539t-1.047 0.352v-2.047q0.875-0.297 1.664-0.711t1.539-0.945h0.797v12z"></path>
</svg>
