<!-- Generated by IcoMoon.io -->
<svg version="1.1" xmlns="http://www.w3.org/2000/svg" width="32" height="32" viewBox="0 0 32 32">
<title>uniEE0A</title>
<path d="M22 10q2 0 3.828 0.75t3.25 2.172 2.172 3.25 0.75 3.828q0 2.078-0.781 3.898t-2.141 3.18-3.18 2.141-3.898 0.781v-2q1.656 0 3.109-0.633t2.539-1.719 1.719-2.539 0.633-3.109-0.633-3.109-1.719-2.539-2.539-1.719-3.109-0.633h-8.578l6.281 6.297-1.406 1.406-8.703-8.703 8.703-8.703 1.406 1.406-6.281 6.297h8.578zM4.406 11l7.297 7.297-1.406 1.406-8.703-8.703 8.703-8.703 1.406 1.406z"></path>
</svg>
