<!-- Generated by IcoMoon.io -->
<svg version="1.1" xmlns="http://www.w3.org/2000/svg" width="32" height="32" viewBox="0 0 32 32">
<title>uniE730</title>
<path d="M16 24h-2v-2h2v2zM16 6h-2v14h2v-14zM15 31.953q-1.859-1.094-3.695-2.336t-3.5-2.672-3.094-3.055-2.477-3.484-1.641-3.953-0.594-4.453v-8q1.297 0 2.516-0.094t2.375-0.344 2.281-0.703 2.25-1.172q1.328-0.859 2.656-1.273t2.922-0.414q0.797 0 1.516 0.102t1.398 0.313 1.336 0.531 1.328 0.742q1.125 0.719 2.25 1.172t2.281 0.703 2.375 0.344 2.516 0.094v8q0 2.359-0.594 4.453t-1.641 3.953-2.477 3.484-3.094 3.055-3.5 2.672-3.695 2.336zM2 5.969v6.031q0 1.984 0.523 3.813t1.43 3.477 2.156 3.125 2.688 2.781 3.023 2.414 3.18 2.031q1.594-0.922 3.18-2.031t3.023-2.414 2.688-2.781 2.156-3.125 1.43-3.477 0.523-3.813v-6.031q-2.328-0.125-4.461-0.75t-4.102-1.891q-1.063-0.688-2.117-1.008t-2.32-0.32-2.32 0.32-2.117 1.008q-1.969 1.266-4.102 1.891t-4.461 0.75z"></path>
</svg>
