<!-- Generated by IcoMoon.io -->
<svg version="1.1" xmlns="http://www.w3.org/2000/svg" width="32" height="32" viewBox="0 0 32 32">
<title>uniF722</title>
<path d="M16 12v2h-12v-2h12zM12 20h-8v-2h8v2zM20 8h-2v-2h2v2zM16 6v2h-12v-2h12zM2 26h9.906q0.141 0.516 0.336 1.016t0.414 0.984h-12.656v-28h24v12h-2v-10h-20v24zM32 23q0 1.859-0.711 3.5t-1.93 2.859-2.859 1.93-3.5 0.711-3.5-0.711-2.859-1.93-1.93-2.859-0.711-3.5 0.711-3.5 1.93-2.859 2.859-1.93 3.5-0.711 3.5 0.711 2.859 1.93 1.93 2.859 0.711 3.5zM23 30q1.453 0 2.727-0.555t2.219-1.5 1.5-2.219 0.555-2.727-0.555-2.727-1.5-2.219-2.219-1.5-2.727-0.555-2.727 0.555-2.219 1.5-1.5 2.219-0.555 2.727 0.555 2.727 1.5 2.219 2.219 1.5 2.727 0.555zM22 24v-6h2v6h-2zM22 28v-2h2v2h-2z"></path>
</svg>
