<!-- Generated by IcoMoon.io -->
<svg version="1.1" xmlns="http://www.w3.org/2000/svg" width="32" height="32" viewBox="0 0 32 32">
<title>uniF8A1</title>
<path d="M18 10v-2h6.578l-3.359-3.359q-1.266-1.25-2.852-1.914t-3.367-0.664q-1.234 0-2.367 0.328t-2.125 0.914-1.805 1.414-1.398 1.828-0.906 2.141-0.32 2.359q0 1.75 0.664 3.344t1.898 2.828l9.359 9.359v2.844l-10.781-10.781q-1.516-1.516-2.336-3.5t-0.82-4.141q0-1.5 0.398-2.898t1.117-2.609 1.727-2.211 2.227-1.711 2.617-1.102 2.898-0.391q1.953 0 3.43 0.531t2.719 1.43 2.383 2.078 2.422 2.461v-6.578h2v10h-10zM20 18l12 7-12 7v-14zM22 21.484v7.031l6.031-3.516z"></path>
</svg>
