<!-- Generated by IcoMoon.io -->
<svg version="1.1" xmlns="http://www.w3.org/2000/svg" width="32" height="32" viewBox="0 0 32 32">
<title>uniE423</title>
<path d="M30 19q0 1.797-0.469 3.453t-1.313 3.102-2.031 2.633-2.633 2.031-3.102 1.313-3.453 0.469-3.453-0.469-3.102-1.313-2.633-2.031-2.031-2.633-1.313-3.102-0.469-3.453v-1h2v1q0 1.516 0.391 2.922t1.109 2.625 1.727 2.227 2.227 1.727 2.625 1.109 2.922 0.391 2.922-0.391 2.625-1.109 2.227-1.727 1.727-2.227 1.109-2.625 0.391-2.922-0.391-2.922-1.109-2.625-1.727-2.227-2.227-1.727-2.625-1.109-2.922-0.391h-13.094l4.547 4.547-1.406 1.406-6.953-6.953 6.953-6.953 1.406 1.406-4.547 4.547h13.094q1.797 0 3.453 0.469t3.102 1.313 2.633 2.031 2.031 2.633 1.313 3.102 0.469 3.453z"></path>
</svg>
