<!-- Generated by IcoMoon.io -->
<svg version="1.1" xmlns="http://www.w3.org/2000/svg" width="32" height="32" viewBox="0 0 32 32">
<title>uniED24</title>
<path d="M13.828 8q-2.422 0-4.602 0.906t-3.883 2.609-2.609 3.883-0.906 4.602q0 1.656 0.43 3.188t1.211 2.867 1.875 2.43 2.43 1.875 2.867 1.211 3.188 0.43h14v-2h-14q-1.375 0-2.656-0.359t-2.391-1.008-2.023-1.563-1.563-2.023-1.008-2.391-0.359-2.656 0.359-2.656 1.008-2.391 1.563-2.023 2.023-1.563 2.391-1.008 2.656-0.359h12.828l-6.656 6.672 1.156 1.156 8.844-8.828-8.844-8.828-1.156 1.156 6.656 6.672h-12.828z"></path>
</svg>
