<!-- Generated by IcoMoon.io -->
<svg version="1.1" xmlns="http://www.w3.org/2000/svg" width="32" height="32" viewBox="0 0 32 32">
<title>uniF357</title>
<path d="M31.703 30.297q0.297 0.297 0.297 0.703t-0.297 0.703-0.703 0.297-0.703-0.297l-12.266-12.25q-1.484 1.25-3.289 1.898t-3.742 0.648q-1.516 0-2.922-0.391t-2.633-1.109-2.227-1.719-1.719-2.227-1.109-2.633-0.391-2.922 0.391-2.922 1.109-2.633 1.719-2.227 2.227-1.719 2.633-1.109 2.922-0.391 2.922 0.391 2.633 1.109 2.227 1.719 1.719 2.227 1.109 2.633 0.391 2.922q0 1.938-0.648 3.742t-1.898 3.289zM12 16h-2v2h2v-2zM16.125 8q0-1.031-0.453-1.805t-1.188-1.289-1.648-0.773-1.836-0.258q-0.938 0-1.852 0.305t-1.641 0.875-1.18 1.383-0.453 1.828q0 0.828 0.297 1.438t0.742 1.094 0.961 0.867 0.961 0.75 0.742 0.742 0.297 0.844h2.25q0-0.828-0.297-1.438t-0.742-1.094-0.961-0.867-0.961-0.75-0.742-0.742-0.297-0.844q0-0.531 0.281-0.93t0.703-0.664 0.93-0.406 0.961-0.141q0.422 0 0.922 0.094t0.938 0.32 0.727 0.586 0.289 0.875h2.25z"></path>
</svg>
