<!-- Generated by IcoMoon.io -->
<svg version="1.1" xmlns="http://www.w3.org/2000/svg" width="32" height="32" viewBox="0 0 32 32">
<title>uniF358</title>
<path d="M31.703 30.297q0.297 0.297 0.297 0.703t-0.297 0.703-0.703 0.297-0.703-0.297l-12.266-12.25q-1.484 1.25-3.289 1.898t-3.742 0.648q-1.516 0-2.922-0.391t-2.633-1.109-2.227-1.719-1.719-2.227-1.109-2.633-0.391-2.922 0.391-2.922 1.109-2.633 1.719-2.227 2.227-1.719 2.633-1.109 2.922-0.391 2.922 0.391 2.633 1.109 2.227 1.719 1.719 2.227 1.109 2.633 0.391 2.922q0 1.938-0.648 3.742t-1.898 3.289zM17.906 8.203l-2.109-2.109-6.797 6.781-2.438-2.438-2.125 2.125 4.563 4.563z"></path>
</svg>
