<!-- Generated by IcoMoon.io -->
<svg version="1.1" xmlns="http://www.w3.org/2000/svg" width="32" height="32" viewBox="0 0 32 32">
<title>uniED4F</title>
<path d="M32 10l-6 3v-13h6v10zM0 0h6v13l-6-3v-10zM8 0h16v14q-1.281 0.656-2.555 1.281t-2.555 1.281q1.141 0.453 2.086 1.203t1.617 1.727 1.039 2.125 0.367 2.383q0 1.656-0.625 3.117t-1.711 2.547-2.547 1.711-3.117 0.625-3.117-0.625-2.547-1.711-1.711-2.547-0.625-3.117q0-1.234 0.367-2.383t1.039-2.125 1.609-1.727 2.094-1.203l-5.109-2.563v-14z"></path>
</svg>
