<!-- Generated by IcoMoon.io -->
<svg version="1.1" xmlns="http://www.w3.org/2000/svg" width="32" height="32" viewBox="0 0 32 32">
<title>uniEEF2</title>
<path d="M31.5 9.719l-13.344 6.672q1.188 0.391 2.172 1.117t1.688 1.695 1.094 2.133 0.391 2.414q0 1.594-0.609 3.008t-1.664 2.469-2.469 1.664-3.008 0.609-3.008-0.609-2.469-1.664-1.664-2.469-0.609-3.008q0-1.25 0.383-2.414t1.086-2.133 1.688-1.695 2.188-1.117l-13.344-6.672v-9.719h31.5v9.719zM6.5 1.5h-5v7.281l5 2.5v-9.781zM22 23.75q0-1.297-0.492-2.438t-1.336-1.984-1.984-1.336-2.438-0.492-2.438 0.492-1.984 1.336-1.336 1.984-0.492 2.438 0.492 2.438 1.336 1.984 1.984 1.336 2.438 0.492 2.438-0.492 1.984-1.336 1.336-1.984 0.492-2.438zM23.5 1.5h-15.5v10.531l7.75 3.875 7.75-3.875v-10.531zM30 1.5h-5v9.781l5-2.5v-7.281z"></path>
</svg>
