<!-- Generated by IcoMoon.io -->
<svg version="1.1" xmlns="http://www.w3.org/2000/svg" width="32" height="32" viewBox="0 0 32 32">
<title>uniED4E</title>
<path d="M32 10l-13.109 6.563q1.141 0.453 2.086 1.203t1.617 1.727 1.039 2.125 0.367 2.383q0 1.656-0.625 3.117t-1.711 2.547-2.547 1.711-3.117 0.625-3.117-0.625-2.547-1.711-1.711-2.547-0.625-3.117q0-1.234 0.367-2.383t1.039-2.125 1.609-1.727 2.094-1.203l-13.109-6.563v-10h32v10zM6 2h-4v6.766l4 2v-8.766zM22 24q0-1.234-0.469-2.328t-1.289-1.914-1.914-1.289-2.328-0.469q-1.25 0-2.336 0.469t-1.906 1.289-1.289 1.914-0.469 2.328q0 1.25 0.469 2.336t1.289 1.906 1.906 1.289 2.336 0.469q1.234 0 2.328-0.469t1.914-1.289 1.289-1.906 0.469-2.336zM24 2h-16v9.766l8 4 8-4v-9.766zM30 2h-4v8.766l4-2v-6.766z"></path>
</svg>
