<!-- Generated by IcoMoon.io -->
<svg version="1.1" xmlns="http://www.w3.org/2000/svg" width="32" height="32" viewBox="0 0 32 32">
<title>uniE444</title>
<path d="M16 8.016v8.078l-10.063-8.125 10.063-8.047v8l10-8v16.172zM24 4.078l-4.875 3.906 4.875 3.922v-7.828zM14 11.906v-7.828l-4.875 3.906zM32 22l-3.359 5.063 3.297 4.938h-1.859q-0.609-1-1.211-1.992t-1.195-2.008h-0.031q-0.656 0.984-1.25 1.992t-1.219 2.008h-1.844l3.406-4.906-3.266-5.094h1.875q0.594 1.047 1.211 2.078t1.133 2.125h0.047l2.5-4.203h1.766zM10.984 29q0.297 0 0.578 0.117t0.484 0.328 0.328 0.484 0.125 0.57q0 0.641-0.445 1.070t-1.070 0.43-1.055-0.438-0.43-1.063q0-0.297 0.117-0.57t0.32-0.477 0.469-0.328 0.578-0.125zM21.734 27.563q0 1.078-0.383 1.906t-1.039 1.391-1.547 0.852-1.906 0.289q-0.344 0-0.719-0.023t-0.75-0.078-0.734-0.172-0.656-0.305v-1.672q0.656 0.422 1.375 0.664t1.5 0.242q0.688 0 1.281-0.203t1.031-0.586 0.688-0.938 0.25-1.273q0-0.797-0.289-1.344t-0.773-0.883-1.125-0.492-1.344-0.156h-0.422q-0.469 0-0.961 0.023t-0.945 0.102l0.469-6.906h6.359v1.422h-5l-0.266 4.031q0.313 0 0.625-0.023t0.625-0.023q0.984 0 1.836 0.258t1.477 0.773 0.984 1.297 0.359 1.828zM4.563 18q0.922 0 1.602 0.313t1.156 0.844 0.766 1.227 0.453 1.469 0.219 1.57 0.055 1.516q0 0.734-0.078 1.547t-0.266 1.594-0.516 1.492-0.836 1.25-1.203 0.859-1.633 0.32q-0.891 0-1.555-0.305t-1.141-0.82-0.781-1.195-0.484-1.43-0.25-1.516-0.070-1.469q0-0.75 0.070-1.586t0.25-1.641 0.508-1.539 0.836-1.289 1.219-0.883 1.68-0.328zM4.422 30.672q0.656 0 1.117-0.281t0.773-0.75 0.5-1.055 0.281-1.211 0.117-1.219 0.023-1.063q0-0.453-0.023-1.055t-0.109-1.25-0.266-1.266-0.484-1.109-0.758-0.797-1.109-0.305q-0.688 0-1.164 0.305t-0.797 0.797-0.508 1.117-0.281 1.281-0.117 1.273-0.023 1.102q0 0.469 0.023 1.063t0.125 1.203 0.281 1.188 0.5 1.031 0.781 0.727 1.117 0.273z"></path>
</svg>
