<!-- Generated by IcoMoon.io -->
<svg version="1.1" xmlns="http://www.w3.org/2000/svg" width="32" height="32" viewBox="0 0 32 32">
<title>uniE449</title>
<path d="M16 7.922l10-8v16.172l-10-8.078v8.078l-10.063-8.125 10.063-8.047v8zM14 11.906v-7.828l-4.875 3.906zM24 11.906v-7.828l-4.875 3.906zM15.813 28q0 0.953-0.352 1.695t-0.945 1.258-1.391 0.781-1.703 0.266q-0.891 0-1.695-0.266t-1.398-0.781-0.945-1.258-0.352-1.695q0-0.594 0.188-1.148t0.516-1.023 0.789-0.828 1.008-0.578q-0.844-0.469-1.383-1.219t-0.539-1.75q0-0.797 0.313-1.438t0.836-1.086 1.219-0.688 1.445-0.242 1.445 0.242 1.219 0.688 0.836 1.086 0.313 1.438q0 0.984-0.539 1.742t-1.367 1.227q0.531 0.219 0.992 0.586t0.789 0.836 0.516 1.023 0.188 1.133zM11.438 23.844q0.469 0 0.875-0.18t0.711-0.492 0.484-0.719 0.18-0.875-0.172-0.883-0.477-0.719-0.711-0.484-0.891-0.18q-0.5 0-0.906 0.172t-0.711 0.469-0.469 0.719-0.164 0.906q0 0.469 0.172 0.883t0.477 0.719 0.719 0.484 0.883 0.18zM14.156 27.875q0-0.594-0.203-1.102t-0.563-0.875-0.859-0.578-1.094-0.211-1.094 0.211-0.867 0.578-0.57 0.875-0.203 1.102q0 1.266 0.734 2.008t2 0.742q0.609 0 1.109-0.203t0.859-0.563 0.555-0.867 0.195-1.117zM23.938 22h1.766l-3.359 5.063 3.297 4.938h-1.859q-0.594-1-1.203-1.992t-1.203-2.008h-0.031q-0.125 0.188-0.227 0.383t-0.227 0.383l-2.016 3.234h-1.844l3.406-4.906-3.25-5.094h1.859q0.594 1.047 1.195 2.086t1.164 2.117h0.031z"></path>
</svg>
