<!-- Generated by IcoMoon.io -->
<svg version="1.1" xmlns="http://www.w3.org/2000/svg" width="32" height="32" viewBox="0 0 32 32">
<title>uniE446</title>
<path d="M16 8.016v8.078l-10.063-8.125 10.063-8.047v8l10-8v16.172zM24 4.078l-4.875 3.906 4.875 3.922v-7.828zM14 11.906v-7.828l-4.875 3.906zM5.406 18h0.594v14h-1.563v-11.828q-0.297 0.266-0.688 0.516t-0.813 0.461-0.852 0.383-0.82 0.266v-1.594q0.469-0.125 1.047-0.359t1.141-0.531 1.078-0.641 0.875-0.672zM8.984 29q0.297 0 0.578 0.117t0.484 0.328 0.328 0.484 0.125 0.57q0 0.641-0.445 1.070t-1.070 0.43-1.055-0.438-0.43-1.063q0-0.297 0.117-0.57t0.32-0.477 0.469-0.328 0.578-0.125zM20.109 27.563q0 1.078-0.383 1.906t-1.039 1.391-1.547 0.852-1.906 0.289q-0.344 0-0.719-0.023t-0.75-0.078-0.727-0.172-0.648-0.305v-1.672q0.656 0.422 1.367 0.664t1.492 0.242q0.688 0 1.281-0.195t1.031-0.578 0.688-0.945 0.25-1.281q0-0.797-0.289-1.344t-0.773-0.891-1.125-0.492-1.344-0.148q-0.563 0-1.172 0.016t-1.156 0.109l0.469-6.906h6.375v1.422h-5l-0.281 4.031q0.313 0 0.633-0.023t0.633-0.023q0.984 0 1.836 0.258t1.477 0.773 0.977 1.297 0.352 1.828zM30.422 22l-3.359 5.063 3.297 4.938h-1.859q-0.609-1-1.211-1.992t-1.195-2.008h-0.031q-0.656 0.984-1.25 1.992t-1.219 2.008h-1.844l3.406-4.906-3.266-5.094h1.875q0.594 1.047 1.195 2.086t1.164 2.117h0.031l2.5-4.203h1.766z"></path>
</svg>
