<!-- Generated by IcoMoon.io -->
<svg version="1.1" xmlns="http://www.w3.org/2000/svg" width="32" height="32" viewBox="0 0 32 32">
<title>uniE447</title>
<path d="M16 7.922l10-8v16.172l-10-8.078v8.078l-10.063-8.125 10.063-8.047v8zM14 11.906v-7.828l-4.875 3.906zM24 11.906v-7.828l-4.875 3.906zM8.781 30.594h6.859v1.406h-8.5v-0.688q0-0.391 0.039-0.781t0.148-0.766q0.234-0.859 0.789-1.508t1.234-1.195 1.414-1.063 1.344-1.109 1-1.328 0.391-1.719q0-1.172-0.68-1.844t-1.852-0.672q-0.469 0-0.93 0.133t-0.883 0.367-0.805 0.539-0.68 0.648v-1.688q0.734-0.734 1.594-1.031t1.891-0.297q0.844 0 1.57 0.25t1.258 0.719 0.828 1.156 0.297 1.578q0 1.297-0.469 2.203t-1.172 1.594-1.523 1.227-1.523 1.102-1.172 1.211-0.469 1.555zM23.938 22h1.766l-3.359 5.063 3.297 4.938h-1.859q-0.594-1-1.203-1.992t-1.203-2.008h-0.031q-0.125 0.188-0.227 0.383t-0.227 0.383l-2.016 3.234h-1.844l3.406-4.906-3.25-5.094h1.859q0.594 1.047 1.195 2.086t1.164 2.117h0.031z"></path>
</svg>
