<!-- Generated by IcoMoon.io -->
<svg version="1.1" xmlns="http://www.w3.org/2000/svg" width="32" height="32" viewBox="0 0 32 32">
<title>uniF19B</title>
<path d="M16 16q-0.828 0-1.555-0.313t-1.273-0.859-0.859-1.273-0.313-1.555 0.313-1.555 0.859-1.273 1.273-0.859 1.555-0.313 1.555 0.313 1.273 0.859 0.859 1.273 0.313 1.555-0.313 1.555-0.859 1.273-1.273 0.859-1.555 0.313zM16 10q-0.422 0-0.781 0.156t-0.633 0.43-0.43 0.633-0.156 0.781 0.156 0.781 0.43 0.633 0.633 0.43 0.781 0.156 0.781-0.156 0.633-0.43 0.43-0.633 0.156-0.781-0.156-0.781-0.43-0.633-0.633-0.43-0.781-0.156zM23.031 20l2.156 8.656-7.891 2.641-1.297-5.172-1.297 5.172-7.891-2.641 2.156-8.656h-0.969v-4.578l-3.422-3.422 3.422-3.422v-4.578h4.578l3.422-3.422 3.422 3.422h4.578v4.578l3.422 3.422-3.422 3.422v4.578h-0.969zM10 14.578v3.422h3.422l2.578 2.578 2.578-2.578h3.422v-3.422l2.578-2.578-2.578-2.578v-3.422h-3.422l-2.578-2.578-2.578 2.578h-3.422v3.422l-2.578 2.578zM14.891 22.313l-2.313-2.313h-1.547l-1.844 7.344 4.109 1.359zM20.969 20h-1.547l-2.313 2.313 1.594 6.391 4.109-1.359z"></path>
</svg>
