<!-- Generated by IcoMoon.io -->
<svg version="1.1" xmlns="http://www.w3.org/2000/svg" width="32" height="32" viewBox="0 0 32 32">
<title>uniE9D1</title>
<path d="M16 16q-1.25 0-2.336-0.469t-1.906-1.289-1.289-1.906-0.469-2.336q0-1.234 0.469-2.328t1.289-1.914 1.906-1.289 2.336-0.469q1.234 0 2.328 0.469t1.914 1.289 1.289 1.914 0.469 2.328q0 1.25-0.469 2.336t-1.289 1.906-1.914 1.289-2.328 0.469zM16 6q-0.828 0-1.555 0.313t-1.273 0.859-0.859 1.273-0.313 1.555 0.313 1.555 0.859 1.273 1.273 0.859 1.555 0.313 1.555-0.313 1.273-0.859 0.859-1.273 0.313-1.555-0.313-1.555-0.859-1.273-1.273-0.859-1.555-0.313zM26 10q0 1.625-0.508 3.164t-1.492 2.836v16l-8-4-8 4v-16q-0.984-1.297-1.492-2.836t-0.508-3.164q0-2.078 0.781-3.898t2.141-3.18 3.18-2.141 3.898-0.781 3.898 0.781 3.18 2.141 2.141 3.18 0.781 3.898zM16 2q-1.656 0-3.109 0.633t-2.539 1.719-1.719 2.539-0.633 3.109 0.633 3.109 1.719 2.539 2.539 1.719 3.109 0.633 3.109-0.633 2.539-1.719 1.719-2.539 0.633-3.109-0.633-3.109-1.719-2.539-2.539-1.719-3.109-0.633zM22 29v-11q-1.297 0.984-2.836 1.492t-3.164 0.508-3.164-0.508-2.836-1.492v11l6-3z"></path>
</svg>
