<!-- Generated by IcoMoon.io -->
<svg version="1.1" xmlns="http://www.w3.org/2000/svg" width="32" height="32" viewBox="0 0 32 32">
<title>uniF345</title>
<path d="M8 19.094q1.672 1.469 3.719 2.25t4.281 0.781 4.281-0.781 3.719-2.25v12.906l-8-4-8 4v-12.906zM16 20q-1.375 0-2.656-0.359t-2.391-1.008-2.016-1.563-1.555-2.023-1.008-2.391-0.359-2.656 0.359-2.656 1.008-2.391 1.555-2.023 2.016-1.563 2.391-1.008 2.656-0.359 2.656 0.359 2.391 1.008 2.023 1.563 1.563 2.023 1.008 2.391 0.359 2.656-0.359 2.656-1.008 2.391-1.563 2.023-2.023 1.563-2.391 1.008-2.656 0.359zM16 3.875q-1.266 0-2.383 0.484t-1.945 1.313-1.313 1.945-0.484 2.383 0.484 2.383 1.313 1.945 1.945 1.313 2.383 0.484 2.383-0.484 1.945-1.313 1.313-1.945 0.484-2.383-0.484-2.383-1.313-1.945-1.945-1.313-2.383-0.484zM16 14q-0.828 0-1.555-0.313t-1.273-0.859-0.859-1.273-0.313-1.555 0.313-1.555 0.859-1.273 1.273-0.859 1.555-0.313 1.555 0.313 1.273 0.859 0.859 1.273 0.313 1.555-0.313 1.555-0.859 1.273-1.273 0.859-1.555 0.313z"></path>
</svg>
