<!-- Generated by IcoMoon.io -->
<svg version="1.1" xmlns="http://www.w3.org/2000/svg" width="32" height="32" viewBox="0 0 32 32">
<title>uniE498</title>
<path d="M26 12.406v11.594h2v2h-8q0 0.828-0.313 1.555t-0.859 1.273-1.273 0.859-1.555 0.313-1.555-0.313-1.273-0.859-0.859-1.273-0.313-1.555h-8v-2h2v-12q0-1.375 0.359-2.656t1.008-2.391 1.563-2.023 2.023-1.563 2.391-1.008 2.656-0.359q2.031 0 3.875 0.781-0.156 0.5-0.25 1.016t-0.109 1.047q-0.828-0.406-1.711-0.625t-1.805-0.219q-1.656 0-3.109 0.633t-2.539 1.719-1.719 2.539-0.633 3.109v12h16v-12q0-0.031-0.008-0.070t-0.008-0.070q0.484 0.219 0.992 0.344t1.023 0.203zM16 28q0.422 0 0.781-0.156t0.633-0.43 0.43-0.633 0.156-0.781h-4q0 0.422 0.156 0.781t0.43 0.633 0.633 0.43 0.781 0.156zM27 0q1.031 0 1.945 0.391t1.594 1.070 1.070 1.594 0.391 1.945-0.391 1.945-1.070 1.594-1.594 1.070-1.945 0.391-1.945-0.391-1.594-1.070-1.070-1.594-0.391-1.945 0.391-1.945 1.070-1.594 1.594-1.070 1.945-0.391z"></path>
</svg>
