<!-- Generated by IcoMoon.io -->
<svg version="1.1" xmlns="http://www.w3.org/2000/svg" width="32" height="32" viewBox="0 0 32 32">
<title>uniF2C5</title>
<path d="M14 26q0 0.406 0.156 0.773t0.422 0.641 0.633 0.43 0.773 0.156q0.359 1.016 0.891 1.891-0.219 0.047-0.438 0.078t-0.438 0.031q-0.828 0-1.555-0.313t-1.273-0.859-0.859-1.273-0.313-1.555h-8v-2h2v-12q0-1.375 0.359-2.656t1.008-2.391 1.563-2.023 2.023-1.563 2.391-1.008 2.656-0.359 2.656 0.359 2.391 1.008 2.023 1.563 1.563 2.023 1.008 2.391 0.359 2.656v3.563q-0.25-0.031-0.5-0.047t-0.5-0.016-0.5 0.016-0.5 0.047v-3.563q0-1.656-0.633-3.109t-1.719-2.539-2.539-1.719-3.109-0.633-3.109 0.633-2.539 1.719-1.719 2.539-0.633 3.109v12h7.563q-0.031 0.25-0.047 0.5t-0.016 0.5 0.016 0.5 0.047 0.5h-1.563zM25 18q1.453 0 2.727 0.547t2.227 1.5 1.5 2.227 0.547 2.727-0.547 2.727-1.5 2.227-2.227 1.5-2.727 0.547-2.727-0.547-2.227-1.5-1.5-2.227-0.547-2.727 0.547-2.727 1.5-2.227 2.227-1.5 2.727-0.547zM20 25q0 1.031 0.391 1.945t1.070 1.594 1.594 1.070 1.945 0.391q0.734 0 1.438-0.211t1.313-0.617l-6.922-6.922q-0.406 0.609-0.617 1.313t-0.211 1.438zM29.172 27.75q0.406-0.609 0.617-1.313t0.211-1.438q0-1.031-0.398-1.938t-1.078-1.586-1.586-1.078-1.938-0.398q-0.734 0-1.438 0.211t-1.313 0.617z"></path>
</svg>
