<!-- Generated by IcoMoon.io -->
<svg version="1.1" xmlns="http://www.w3.org/2000/svg" width="32" height="32" viewBox="0 0 32 32">
<title>uniF279</title>
<path d="M16 3.984q-1.656 0-3.117 0.633t-2.547 1.719-1.719 2.547-0.633 3.117v12h11.063l2 2h-1.047q0 0.828-0.313 1.555t-0.859 1.273-1.273 0.859-1.555 0.313-1.555-0.313-1.273-0.859-0.859-1.273-0.313-1.555h-8v-2h2.016v-12q0-1.375 0.359-2.656t1.008-2.391 1.555-2.023 2.016-1.563 2.391-1.008 2.656-0.359 2.656 0.359 2.391 1.008 2.023 1.563 1.563 2.023 1.008 2.391 0.359 2.656v9.047l-1.984-1.969v-7.078q0-1.656-0.633-3.117t-1.719-2.547-2.547-1.719-3.117-0.633zM14.125 26q0 0.391 0.148 0.727t0.406 0.594 0.594 0.406 0.727 0.148 0.727-0.148 0.594-0.406 0.406-0.594 0.148-0.727h-3.75zM28.422 27l3.531 3.547-1.406 1.406-3.547-3.531-3.547 3.547-1.406-1.422 3.547-3.547-3.547-3.547 1.406-1.406 3.547 3.547 3.547-3.547 1.406 1.422z"></path>
</svg>
