<!-- Generated by IcoMoon.io -->
<svg version="1.1" xmlns="http://www.w3.org/2000/svg" width="32" height="32" viewBox="0 0 32 32">
<title>uniF3B3</title>
<path d="M32 0v1q0 2.844-0.508 5.313t-1.539 4.672-2.594 4.195-3.656 3.883l-2.984 8.938h-4.719v-3.547q-2.156 1.266-4.359 2.438l-6.531-6.531q1.172-2.203 2.438-4.359h-3.547v-4.719l8.938-2.969q1.891-2.109 3.883-3.672t4.195-2.594 4.672-1.539 5.313-0.508h1zM8.719 14q0.453-0.719 0.914-1.422t0.961-1.391l-4.594 1.531v1.281h2.719zM12.016 24.406q0.797-0.453 1.594-0.898t1.594-0.898l-5.813-5.813q-0.453 0.797-0.898 1.594t-0.898 1.609zM20.813 21.406q-0.688 0.5-1.391 0.961t-1.422 0.914v2.719h1.281zM23.672 16.297q1.547-1.547 2.695-3.148t1.93-3.344 1.195-3.672 0.492-4.117q-2.188 0.078-4.117 0.492t-3.672 1.195-3.352 1.93-3.172 2.68q-1.547 1.516-2.828 3.195t-2.406 3.523l6.531 6.531q1.844-1.125 3.516-2.414t3.188-2.852zM20 16q-0.828 0-1.555-0.313t-1.273-0.859-0.859-1.273-0.313-1.555 0.313-1.555 0.859-1.273 1.273-0.859 1.555-0.313 1.555 0.313 1.273 0.859 0.859 1.273 0.313 1.555-0.313 1.555-0.859 1.273-1.273 0.859-1.555 0.313zM20 10q-0.422 0-0.781 0.156t-0.633 0.43-0.43 0.633-0.156 0.781 0.156 0.781 0.43 0.633 0.633 0.43 0.781 0.156 0.781-0.156 0.633-0.43 0.43-0.633 0.156-0.781-0.156-0.781-0.43-0.633-0.633-0.43-0.781-0.156zM4 24q0.828 0 1.555 0.313t1.273 0.859 0.859 1.273 0.313 1.555-0.313 1.555-0.859 1.273-1.273 0.859-1.555 0.313h-4v-4q0-0.828 0.313-1.555t0.859-1.273 1.273-0.859 1.555-0.313zM4 30q0.422 0 0.781-0.156t0.633-0.43 0.43-0.633 0.156-0.781-0.156-0.781-0.43-0.633-0.633-0.43-0.781-0.156-0.781 0.156-0.633 0.43-0.43 0.633-0.156 0.781v2h2z"></path>
</svg>
