<!-- Generated by IcoMoon.io -->
<svg version="1.1" xmlns="http://www.w3.org/2000/svg" width="32" height="32" viewBox="0 0 32 32">
<title>uniF80D</title>
<path d="M30.297 14.297l1.406 1.406-4.703 4.703-4.703-4.703 1.406-1.406 2.297 2.281v-0.578q0-1.656-0.43-3.188t-1.211-2.867-1.875-2.43-2.43-1.875-2.867-1.211-3.188-0.43-3.188 0.43-2.867 1.211-2.43 1.875-1.875 2.43-1.211 2.867-0.43 3.188 0.43 3.188 1.211 2.867 1.875 2.43 2.43 1.875 2.867 1.211 3.188 0.43v2q-1.938 0-3.727-0.5t-3.344-1.414-2.828-2.188-2.188-2.828-1.414-3.344-0.5-3.727 0.5-3.727 1.414-3.344 2.188-2.828 2.828-2.188 3.344-1.414 3.727-0.5q2.109 0 4.086 0.609t3.656 1.719 3.008 2.695 2.156 3.523q0.625 1.469 0.859 2.953t0.234 3.078zM14 12q0.828 0 1.555 0.313t1.273 0.859 0.859 1.273 0.313 1.555-0.313 1.555-0.859 1.273-1.273 0.859-1.555 0.313-1.555-0.313-1.273-0.859-0.859-1.273-0.313-1.555 0.313-1.555 0.859-1.273 1.273-0.859 1.555-0.313zM14 18q0.422 0 0.781-0.156t0.633-0.43 0.43-0.633 0.156-0.781-0.156-0.781-0.43-0.633-0.633-0.43-0.781-0.156-0.781 0.156-0.633 0.43-0.43 0.633-0.156 0.781 0.156 0.781 0.43 0.633 0.633 0.43 0.781 0.156z"></path>
</svg>
