<!-- Generated by IcoMoon.io -->
<svg version="1.1" xmlns="http://www.w3.org/2000/svg" width="32" height="32" viewBox="0 0 32 32">
<title>uniF80E</title>
<path d="M32 16q0 1.938-0.5 3.727t-1.414 3.344-2.188 2.828-2.828 2.188-3.344 1.414-3.727 0.5v-2q1.656 0 3.188-0.43t2.867-1.211 2.43-1.875 1.875-2.43 1.211-2.867 0.43-3.188-0.43-3.188-1.211-2.867-1.875-2.43-2.43-1.875-2.867-1.211-3.188-0.43-3.188 0.43-2.867 1.211-2.43 1.875-1.875 2.43-1.211 2.867-0.43 3.188v0.578l2.297-2.281 1.406 1.406-4.703 4.703-4.703-4.703 1.406-1.406 2.297 2.281v-0.156q0-1.531 0.25-2.984t0.844-2.891q0.813-1.938 2.141-3.516t3.023-2.695 3.672-1.727 4.070-0.609q1.938 0 3.727 0.5t3.344 1.414 2.828 2.188 2.188 2.828 1.414 3.344 0.5 3.727zM22 16q0 0.828-0.313 1.555t-0.859 1.273-1.273 0.859-1.555 0.313-1.555-0.313-1.273-0.859-0.859-1.273-0.313-1.555 0.313-1.555 0.859-1.273 1.273-0.859 1.555-0.313 1.555 0.313 1.273 0.859 0.859 1.273 0.313 1.555zM16 16q0 0.422 0.156 0.781t0.43 0.633 0.633 0.43 0.781 0.156 0.781-0.156 0.633-0.43 0.43-0.633 0.156-0.781-0.156-0.781-0.43-0.633-0.633-0.43-0.781-0.156-0.781 0.156-0.633 0.43-0.43 0.633-0.156 0.781z"></path>
</svg>
