<!-- Generated by IcoMoon.io -->
<svg version="1.1" xmlns="http://www.w3.org/2000/svg" width="32" height="32" viewBox="0 0 32 32">
<title>uniF29B</title>
<path d="M0 14q0.828 0 1.555-0.313t1.273-0.859 0.859-1.273 0.313-1.555q0-1.25 0.469-2.344t1.281-1.906 1.906-1.281 2.344-0.469v2q-0.828 0-1.555 0.313t-1.273 0.859-0.859 1.273-0.313 1.555q0 1.516-0.703 2.836t-1.969 2.164q1.266 0.844 1.969 2.164t0.703 2.836q0 0.828 0.313 1.555t0.859 1.273 1.273 0.859 1.555 0.313v2q-1.25 0-2.344-0.469t-1.906-1.281-1.281-1.906-0.469-2.344q0-0.828-0.313-1.555t-0.859-1.273-1.273-0.859-1.555-0.313v-2zM32 4v10h-20v-10h20zM30 6h-16v6h16v-6zM12 16h20v10h-20v-10zM14 24h16v-6h-16v6z"></path>
</svg>
