<!-- Generated by IcoMoon.io -->
<svg version="1.1" xmlns="http://www.w3.org/2000/svg" width="32" height="32" viewBox="0 0 32 32">
<title>uniEADA</title>
<path d="M28 12q0.625 0 1.172 0.234t0.953 0.641 0.641 0.953 0.234 1.172-0.234 1.172-0.641 0.953-0.953 0.641-1.172 0.234h-5q-0.406 0-0.703-0.297l-2.297-2.281-1.594 1.578 3.297 3.297q0.297 0.297 0.297 0.703v6q0 0.625-0.234 1.172t-0.641 0.953-0.953 0.641-1.172 0.234-1.172-0.234-0.953-0.641-0.641-0.953-0.234-1.172v-3.578l-2-2-2.297 2.281q-0.297 0.297-0.703 0.297h-7q-0.625 0-1.172-0.234t-0.953-0.641-0.641-0.953-0.234-1.172 0.234-1.172 0.641-0.953 0.953-0.641 1.172-0.234h4.578l1.25-1.234q-0.828-0.359-1.328-1.109t-0.5-1.656v-6q0-0.422 0.156-0.781t0.43-0.633 0.633-0.43 0.781-0.156h8q0-0.828 0.313-1.555t0.859-1.273 1.273-0.859 1.555-0.313 1.555 0.313 1.273 0.859 0.859 1.273 0.313 1.555q0 0.656-0.203 1.258t-0.57 1.102-0.875 0.875-1.133 0.578l2.203 2.188h2.578zM22 4q-0.422 0-0.781 0.156t-0.633 0.43-0.43 0.633-0.156 0.781 0.156 0.781 0.43 0.633 0.633 0.43 0.781 0.156q0.375 0 0.734-0.148t0.641-0.406 0.453-0.594 0.172-0.727q0-0.438-0.141-0.828t-0.398-0.68-0.633-0.453-0.828-0.164zM28 16q0.406 0 0.703-0.297t0.297-0.703q0-0.5-0.281-0.719t-0.719-0.281-0.984-0.023-1.063 0.063-0.961-0.031-0.695-0.305l-5.719-5.703h-8.578v6q0 0.406 0.297 0.703t0.703 0.297q0.578 0 0.789-0.367t0.242-0.93-0.031-1.203-0.031-1.203 0.242-0.93 0.789-0.367h3q0.406 0 0.703 0.297t0.297 0.703-0.297 0.703-0.703 0.297h-2v3q0 0.406-0.297 0.703l-4 4q-0.297 0.297-0.703 0.297h-5q-0.406 0-0.703 0.297t-0.297 0.703 0.297 0.703 0.703 0.297h6.578l2.719-2.703q0.297-0.297 0.703-0.297t0.703 0.297l3 3q0.297 0.297 0.297 0.703v4q0 0.406 0.297 0.703t0.703 0.297 0.703-0.297 0.297-0.703v-5.578l-3.703-3.719q-0.297-0.297-0.297-0.703t0.297-0.703l3-3q0.297-0.297 0.703-0.297t0.703 0.297l2.719 2.703h4.578z"></path>
</svg>
