<!-- Generated by IcoMoon.io -->
<svg version="1.1" xmlns="http://www.w3.org/2000/svg" width="32" height="32" viewBox="0 0 32 32">
<title>uniF33E</title>
<path d="M16 0q2.203 0 4.25 0.57t3.82 1.617 3.234 2.508 2.508 3.234 1.617 3.82 0.57 4.25-0.57 4.25-1.617 3.82-2.508 3.234-3.234 2.508-3.82 1.617-4.25 0.57-4.25-0.57-3.82-1.617-3.234-2.508-2.508-3.234-1.617-3.82-0.57-4.25 0.57-4.25 1.617-3.82 2.508-3.234 3.234-2.508 3.82-1.617 4.25-0.57zM10 9.5q-0.516 0-0.969 0.195t-0.797 0.539-0.539 0.797-0.195 0.969 0.195 0.969 0.539 0.797 0.797 0.539 0.969 0.195 0.969-0.195 0.797-0.539 0.539-0.797 0.195-0.969-0.195-0.969-0.539-0.797-0.797-0.539-0.969-0.195zM24.125 23.188q-0.781-0.859-1.703-1.547t-1.961-1.164-2.164-0.727-2.297-0.25-2.297 0.25-2.164 0.727-1.969 1.164-1.695 1.547l2.25 1.984q1.125-1.266 2.648-1.969t3.227-0.703 3.227 0.703 2.648 1.969zM22 14.5q0.516 0 0.969-0.195t0.797-0.539 0.539-0.797 0.195-0.969-0.195-0.969-0.539-0.797-0.797-0.539-0.969-0.195-0.969 0.195-0.797 0.539-0.539 0.797-0.195 0.969 0.195 0.969 0.539 0.797 0.797 0.539 0.969 0.195z"></path>
</svg>
