<!-- Generated by IcoMoon.io -->
<svg version="1.1" xmlns="http://www.w3.org/2000/svg" width="32" height="32" viewBox="0 0 32 32">
<title>uniE4E2</title>
<path d="M22.406 0q1.328 0 2.555 0.344t2.289 0.969 1.938 1.5 1.5 1.938 0.969 2.289 0.344 2.555v12.813q0 1.328-0.344 2.555t-0.969 2.289-1.5 1.938-1.938 1.5-2.289 0.969-2.555 0.344h-12.813q-1.328 0-2.555-0.344t-2.289-0.969-1.938-1.5-1.5-1.938-0.969-2.289-0.344-2.555v-12.813q0-1.328 0.344-2.555t0.969-2.289 1.5-1.938 1.938-1.5 2.289-0.969 2.555-0.344h12.813zM20.234 16.125q0.516-0.328 1.148-0.523t1.289-0.336 1.313-0.273 1.234-0.359 1.031-0.602 0.719-0.984q0.234-0.531 0.234-1.109 0-0.625-0.258-1.141t-0.688-0.891-0.984-0.586-1.133-0.211q-0.531 0-1.023 0.195t-0.961 0.5-0.93 0.68-0.93 0.742-0.953 0.688-1 0.492q0.094-0.75 0.227-1.492t0.305-1.492q0.078-0.359 0.172-0.703t0.172-0.703q0.016-0.063 0.016-0.125v-0.125q0-0.609-0.234-1.156t-0.633-0.945-0.938-0.633-1.148-0.234q-0.406 0-0.75 0.023t-0.75 0.18q-0.422 0.156-0.758 0.43t-0.57 0.633-0.367 0.773-0.133 0.852v0.164t0.016 0.164q0.078 0.359 0.172 0.695t0.172 0.695q0.328 1.453 0.516 2.953-0.531-0.172-1.016-0.492t-0.953-0.695-0.922-0.766-0.93-0.703-0.984-0.516-1.070-0.203q-0.625 0-1.195 0.227t-1 0.633-0.688 0.953-0.258 1.172q0 1 0.57 1.672t1.492 0.953q0.578 0.188 1.234 0.32t1.305 0.289 1.258 0.367 1.109 0.539q-0.516 0.344-1.141 0.531t-1.297 0.336-1.328 0.289-1.234 0.375-1.039 0.602-0.711 0.961q-0.125 0.266-0.172 0.547t-0.047 0.563q0 0.609 0.25 1.148t0.664 0.938 0.961 0.633 1.156 0.234q0.859 0 1.602-0.43t1.438-1 1.406-1.133 1.539-0.828q0 0.563-0.141 1.102t-0.305 1.070-0.305 1.070-0.141 1.086q0 0.656 0.242 1.211t0.664 0.945 0.992 0.609 1.211 0.219q0.328 0 0.625-0.023t0.609-0.148q0.422-0.156 0.758-0.438t0.578-0.633 0.367-0.773 0.125-0.859q0-0.563-0.133-1.102t-0.289-1.078-0.297-1.078-0.141-1.102q0.766 0.281 1.453 0.836t1.359 1.109 1.383 0.969 1.555 0.414q0.625 0 1.195-0.219t1-0.617 0.68-0.938 0.25-1.18q0-0.984-0.555-1.641t-1.445-0.953q-0.594-0.188-1.242-0.328t-1.289-0.297-1.242-0.383-1.117-0.602zM16 12.797q0.656 0 1.242 0.25t1.023 0.688 0.688 1.023 0.25 1.242-0.25 1.242-0.688 1.023-1.023 0.688-1.242 0.25-1.242-0.25-1.023-0.688-0.688-1.023-0.25-1.242 0.25-1.242 0.688-1.023 1.023-0.688 1.242-0.25z"></path>
</svg>
