<!-- Generated by IcoMoon.io -->
<svg version="1.1" xmlns="http://www.w3.org/2000/svg" width="32" height="32" viewBox="0 0 32 32">
<title>uniF6EC</title>
<path d="M4 8v2h-2v-2h2zM4 12v2h-2v-2h2zM4 16v2h-2v-2h2zM4 20v2h-2v-2h2zM4 24v2h-2v-2h2zM2 28h2v2h-2v-2zM4 32v-2h2v2h-2zM8 32v-2h2v2h-2zM4 2h-2v-2h2v2zM8 0v2h-2v-2h2zM12 0v2h-2v-2h2zM16 0v2h-2v-2h2zM20 0v2h-2v-2h2zM24 0v2h-2v-2h2zM26 4h-2v-2h2v2zM24 8v-2h2v2h-2zM4 4v2h-2v-2h2zM30 12q0.406 0 0.773 0.156t0.641 0.43 0.43 0.641 0.156 0.773v18h-17.422l-2.578-2.578v-15.422q0-0.406 0.156-0.773t0.43-0.641 0.641-0.43 0.773-0.156h16zM18 14v6h8v-6h-8zM26 30v-4h-8v4h2v-2h2v2h4zM30 30v-16h-2v8h-12v-8h-2v14.578l1.422 1.422h0.578v-6h12v6h2z"></path>
</svg>
