<!-- Generated by IcoMoon.io -->
<svg version="1.1" xmlns="http://www.w3.org/2000/svg" width="32" height="32" viewBox="0 0 32 32">
<title>uniF203</title>
<path d="M30 12q0.422 0 0.781 0.156t0.633 0.43 0.43 0.633 0.156 0.781v18h-17.422l-2.578-2.578v-15.422q0-0.422 0.156-0.781t0.43-0.633 0.633-0.43 0.781-0.156h16zM18 14v6h8v-6h-8zM26 30v-4h-8v4h2v-2h2v2h4zM30 14h-2v8h-12v-8h-2v14.578l1.422 1.422h0.578v-6h12v6h2v-16zM4 10v-8h-2v14.578l1.422 1.422h0.578v-6h6v2h-4v4h2v-2h2v4h-7.422l-2.578-2.578v-15.422q0-0.422 0.156-0.781t0.43-0.633 0.633-0.43 0.781-0.156h16q0.422 0 0.781 0.156t0.633 0.43 0.43 0.633 0.156 0.781v8h-2v-8h-2v8h-12zM6 8h8v-6h-8v6z"></path>
</svg>
