<!-- Generated by IcoMoon.io -->
<svg version="1.1" xmlns="http://www.w3.org/2000/svg" width="32" height="32" viewBox="0 0 32 32">
<title>uniE792</title>
<path d="M28.875 14q0.656 0 1.227 0.234t0.992 0.648 0.664 0.984 0.242 1.227q0 0.609-0.234 1.188t-0.672 1.016l-11.203 11.203-5.891 1.469 1.469-5.891 11.203-11.188q0.453-0.453 1.016-0.672t1.188-0.219zM29.672 17.891q0.328-0.328 0.328-0.797 0-0.484-0.32-0.789t-0.805-0.305q-0.219 0-0.422 0.070t-0.359 0.227l-10.813 10.813-0.531 2.109 2.109-0.531zM12 24h2l-2 2h-7.422l-2.578-2.578v-19.422q0-0.422 0.156-0.781t0.43-0.633 0.633-0.43 0.781-0.156h20q0.422 0 0.781 0.156t0.633 0.43 0.43 0.633 0.156 0.781v8l-2 2v-10h-2v10h-16v-10h-2v18.578l1.422 1.422h0.578v-8h14v2l-2 2v-2h-10v6h2v-4h2v4zM8 12h12v-8h-12v8z"></path>
</svg>
