<!-- Generated by IcoMoon.io -->
<svg version="1.1" xmlns="http://www.w3.org/2000/svg" width="32" height="32" viewBox="0 0 32 32">
<title>uniF7E0</title>
<path d="M28 26v2h-4v-2h4zM6 2v10h12v2h-14v-12h-2v21.578l2.406 2.422h1.594v-8h12v2h-10v6h2v-4h2v4h6v2h-14.422l-3.578-3.594v-22.406q0-0.422 0.156-0.781t0.43-0.633 0.633-0.43 0.781-0.156h24q0.422 0 0.781 0.156t0.633 0.43 0.43 0.633 0.156 0.781v8h-2v-8h-2v8h-2v-8h-16zM32 14v16q0 0.422-0.156 0.781t-0.43 0.633-0.633 0.43-0.781 0.156h-8q-0.422 0-0.781-0.156t-0.633-0.43-0.43-0.633-0.156-0.781v-16q0-0.422 0.156-0.781t0.43-0.633 0.633-0.43 0.781-0.156h8q0.422 0 0.781 0.156t0.633 0.43 0.43 0.633 0.156 0.781zM30 30v-16h-8v16h8z"></path>
</svg>
