<!-- Generated by IcoMoon.io -->
<svg version="1.1" xmlns="http://www.w3.org/2000/svg" width="32" height="32" viewBox="0 0 32 32">
<title>uniE546</title>
<path d="M32 26q0 0.422-0.156 0.781t-0.43 0.633-0.633 0.43-0.781 0.156h-28q-0.422 0-0.781-0.156t-0.633-0.43-0.43-0.633-0.156-0.781q0-0.25 0.047-0.555t0.141-0.602 0.234-0.563 0.328-0.453l3.25-3.25v-14.578h4.469l-2 2h-0.469v12h20v-12h-1.047l2-2h1.047v14.578l3.25 3.25q0.188 0.188 0.328 0.453t0.234 0.563 0.141 0.602 0.047 0.555zM2 26h28q0-0.172-0.063-0.445t-0.188-0.398l-3.172-3.156h-21.156l-3.172 3.156q-0.125 0.125-0.188 0.398t-0.063 0.445zM24.703 4.703l-9.703 9.703-5.703-5.703 1.406-1.406 4.297 4.297 8.297-8.297z"></path>
</svg>
