<!-- Generated by IcoMoon.io -->
<svg version="1.1" xmlns="http://www.w3.org/2000/svg" width="32" height="32" viewBox="0 0 32 32">
<title>uniF038</title>
<path d="M18 12q0.422 0 0.781 0.156t0.633 0.43 0.43 0.633 0.156 0.781v18h-17.422l-2.578-2.578v-15.422q0-0.422 0.156-0.781t0.43-0.633 0.633-0.43 0.781-0.156h16zM6 14v6h8v-6h-8zM14 30v-4h-8v4h2v-2h2v2h4zM18 14h-2v8h-12v-8h-2v14.578l1.422 1.422h0.578v-6h12v6h2v-16zM8 10h-2v-10h8v2h-6v8zM30 0v16h-8v-2h6v-12h-2v-2h4zM21.078 4l-2.531-2.547 1.406-1.406 4.969 4.953-4.969 4.953-1.406-1.406 2.531-2.547h-9.078v4h-2v-6h11.078zM22.094 5l-0.094-0.078v0.156z"></path>
</svg>
