<!-- Generated by IcoMoon.io -->
<svg version="1.1" xmlns="http://www.w3.org/2000/svg" width="32" height="32" viewBox="0 0 32 32">
<title>uniEB0B</title>
<path d="M9 12q0.406 0 0.703 0.297t0.297 0.703-0.297 0.703-0.703 0.297-0.703-0.297-0.297-0.703 0.297-0.703 0.703-0.297zM26.219 6.938q1.313 0.609 2.383 1.555t1.828 2.133 1.164 2.555 0.406 2.82q0 1.234-0.281 2.406t-0.797 2.25-1.258 2.031-1.664 1.766v2.547q0 0.625-0.234 1.172t-0.641 0.953-0.953 0.641-1.172 0.234h-2q-0.469 0-0.914-0.141t-0.82-0.406-0.656-0.633-0.438-0.82h-4.344q-0.156 0.453-0.438 0.82t-0.656 0.633-0.82 0.406-0.914 0.141h-2q-0.625 0-1.172-0.234t-0.953-0.641-0.641-0.953-0.234-1.172v-1.25q-1.063-0.281-2.008-0.828t-1.695-1.313-1.289-1.703-0.789-2.016q-0.5-0.125-0.906-0.406t-0.695-0.664-0.453-0.852-0.164-0.969v-2q0-0.531 0.18-1.023t0.508-0.891 0.773-0.672 0.977-0.367q1.156-1.625 2.531-3.031t3.031-2.531v-5.594l6.234 3.109h1.922q0.219-0.875 0.703-1.609t1.156-1.266 1.5-0.828 1.734-0.297q1.078 0 2.039 0.414t1.672 1.125 1.125 1.672 0.414 2.039q0 0.875-0.281 1.688zM21.25 2q-0.672 0-1.266 0.258t-1.031 0.695-0.695 1.031-0.258 1.266q0 0.547 0.156 1.016l5.344 1.328q0.469-0.453 0.734-1.070t0.266-1.273q0-0.672-0.258-1.266t-0.695-1.031-1.031-0.695-1.266-0.258zM26 23.531q0.891-0.719 1.625-1.547t1.266-1.766 0.82-1.984 0.289-2.234-0.344-2.305-0.969-2.070-1.508-1.711-1.961-1.242q-0.266 0.328-0.586 0.602t-0.68 0.492l-7.219-1.797q-0.234-0.484-0.422-0.953t-0.266-1.016h-2.281l-3.766-1.875v3.406q-1.094 0.734-1.969 1.43t-1.625 1.453-1.445 1.625-1.43 1.961q-0.266 0-0.539 0.023t-0.492 0.117-0.359 0.297-0.141 0.563v2q0 0.406 0.297 0.703t0.703 0.297h1q0 1.25 0.469 2.336t1.289 1.906 1.906 1.289 2.336 0.469v3q0 0.406 0.297 0.703t0.703 0.297h2q0.406 0 0.703-0.297t0.297-0.703v-1h8q0 0.281-0.008 0.633t0.070 0.656 0.289 0.508 0.648 0.203h2q0.406 0 0.703-0.297t0.297-0.703v-3.469z"></path>
</svg>
