<!-- Generated by IcoMoon.io -->
<svg version="1.1" xmlns="http://www.w3.org/2000/svg" width="32" height="32" viewBox="0 0 32 32">
<title>uniE34C</title>
<path d="M32 29q0 0.406-0.297 0.703t-0.703 0.297h-7v-7q0-0.406 0.297-0.703t0.703-0.297 0.703 0.297 0.297 0.703v4.766q1.938-1.969 2.969-4.484t1.031-5.281q0-1.922-0.5-3.711t-1.414-3.344-2.195-2.836-2.836-2.195-3.344-1.414-3.711-0.5q-1.938 0-3.719 0.5t-3.336 1.414-2.836 2.195-2.195 2.836-1.414 3.344-0.5 3.711q0 2.625 0.953 5.063t2.734 4.375q1.125-1.656 2.727-2.875t3.492-1.875q-1.375-1.031-2.141-2.492t-0.766-3.195q0-1.453 0.547-2.727t1.5-2.227 2.227-1.5 2.727-0.547 2.727 0.547 2.227 1.5 1.5 2.227 0.547 2.727q0 1.734-0.766 3.195t-2.141 2.492q0.266 0.094 0.594 0.203t0.609 0.273 0.477 0.398 0.195 0.578q0 0.406-0.297 0.695t-0.703 0.289q-0.234 0-0.438-0.094-1.125-0.5-2.203-0.766t-2.328-0.266q-2.328 0-4.406 0.969t-3.594 2.719q-0.375 0.438-0.656 0.891t-0.594 0.938q-0.172 0.266-0.367 0.398t-0.508 0.133q-0.359 0-0.672-0.266-0.594-0.484-1.141-1.109t-1.031-1.305-0.898-1.398-0.727-1.422q-1.406-3.109-1.406-6.547 0-2.203 0.57-4.25t1.609-3.828 2.5-3.242 3.242-2.5 3.828-1.609 4.25-0.57 4.25 0.57 3.828 1.609 3.242 2.5 2.5 3.242 1.609 3.828 0.57 4.25q0 2.781-0.898 5.305t-2.633 4.695h2.531q0.406 0 0.703 0.297t0.297 0.703zM11 17q0 1.031 0.391 1.945t1.070 1.594 1.594 1.070 1.945 0.391 1.938-0.391 1.586-1.070 1.078-1.594 0.398-1.945-0.398-1.938-1.078-1.586-1.586-1.078-1.938-0.398-1.945 0.398-1.594 1.078-1.070 1.586-0.391 1.938z"></path>
</svg>
