<!-- Generated by IcoMoon.io -->
<svg version="1.1" xmlns="http://www.w3.org/2000/svg" width="32" height="32" viewBox="0 0 32 32">
<title>uniF7E2</title>
<path d="M22 28q0-0.422-0.156-0.781t-0.43-0.633-0.633-0.43-0.781-0.156v-2q0.828 0 1.555 0.313t1.273 0.859 0.859 1.273 0.313 1.555h-2zM2 6v14h16v2h-2v2h2v2h-8v-2h4v-2h-14v-18h30v13.531q-0.922-0.875-2-1.594v-9.938h-26zM26 28q0-1.234-0.469-2.328t-1.289-1.914-1.914-1.289-2.328-0.469v-2q1.656 0 3.117 0.625t2.547 1.711 1.711 2.547 0.625 3.117h-2zM30 28q0-2.063-0.789-3.883t-2.148-3.18-3.18-2.148-3.883-0.789v-2q1.656 0 3.188 0.43t2.867 1.211 2.43 1.875 1.875 2.43 1.211 2.867 0.43 3.188h-2z"></path>
</svg>
