<!-- Generated by IcoMoon.io -->
<svg version="1.1" xmlns="http://www.w3.org/2000/svg" width="32" height="32" viewBox="0 0 32 32">
<title>uniF03A</title>
<path d="M28 0q0.828 0 1.555 0.313t1.273 0.859 0.859 1.273 0.313 1.555-0.313 1.555-0.859 1.273-1.273 0.859-1.555 0.313h-2v20q0 0.828-0.313 1.555t-0.859 1.273-1.273 0.859-1.555 0.313h-18q-0.828 0-1.555-0.313t-1.273-0.859-0.859-1.273-0.313-1.555 0.313-1.555 0.859-1.273 1.273-0.859 1.555-0.313v-20q0-0.828 0.313-1.555t0.859-1.273 1.273-0.859 1.555-0.313h20zM18.531 30q-0.531-0.938-0.531-2t0.531-2h-14.531q-0.422 0-0.781 0.156t-0.633 0.43-0.43 0.633-0.156 0.781 0.156 0.781 0.43 0.633 0.633 0.43 0.781 0.156h14.531zM22 30q0.422 0 0.781-0.156t0.633-0.43 0.43-0.633 0.156-0.781v-24q0-1.063 0.531-2h-16.531q-0.422 0-0.781 0.156t-0.633 0.43-0.43 0.633-0.156 0.781v20h16q0.406 0 0.703 0.297t0.297 0.703-0.297 0.703-0.703 0.297q-0.391 0-0.766 0.148t-0.656 0.43-0.43 0.656-0.148 0.766q0 0.422 0.156 0.781t0.43 0.633 0.633 0.43 0.781 0.156zM28 6q0.422 0 0.781-0.156t0.633-0.43 0.43-0.633 0.156-0.781-0.156-0.781-0.43-0.633-0.633-0.43-0.781-0.156-0.781 0.156-0.633 0.43-0.43 0.633-0.156 0.781v2h2zM8 6h14v2h-14v-2zM8 10h14v2h-14v-2zM8 14h14v2h-14v-2zM8 18h14v2h-14v-2z"></path>
</svg>
