<!-- Generated by IcoMoon.io -->
<svg version="1.1" xmlns="http://www.w3.org/2000/svg" width="32" height="32" viewBox="0 0 32 32">
<title>uniF09B</title>
<path d="M26 9q0 1.859-0.711 3.5t-1.93 2.859-2.859 1.93-3.5 0.711q-1.547 0-2.984-0.5t-2.641-1.469l-9.672 9.672q-0.297 0.297-0.703 0.297t-0.703-0.297-0.297-0.703 0.297-0.703l9.672-9.672q-0.969-1.203-1.469-2.641t-0.5-2.984q0-1.859 0.711-3.5t1.93-2.859 2.859-1.93 3.5-0.711 3.5 0.711 2.859 1.93 1.93 2.859 0.711 3.5zM10 9q0 1.453 0.555 2.727t1.5 2.219 2.219 1.5 2.727 0.555 2.727-0.555 2.219-1.5 1.5-2.219 0.555-2.727-0.555-2.727-1.5-2.219-2.219-1.5-2.727-0.555-2.727 0.555-2.219 1.5-1.5 2.219-0.555 2.727zM26 30h2v2h-2v-2zM27 19q0.828 0 1.555 0.313t1.273 0.859 0.859 1.273 0.313 1.555h-2q0-0.422-0.156-0.781t-0.43-0.633-0.633-0.43-0.781-0.156-0.781 0.156-0.633 0.43-0.43 0.633-0.156 0.781q0 0.453 0.219 0.813t0.555 0.703 0.727 0.695 0.727 0.789 0.555 0.984 0.219 1.266v0.75h-2q0-0.266 0.008-0.523t-0.031-0.5-0.141-0.461-0.305-0.438q-0.469-0.469-0.922-0.898t-0.813-0.898-0.578-1.016-0.219-1.266q0-0.828 0.313-1.555t0.859-1.273 1.273-0.859 1.555-0.313z"></path>
</svg>
