<!-- Generated by IcoMoon.io -->
<svg version="1.1" xmlns="http://www.w3.org/2000/svg" width="32" height="32" viewBox="0 0 32 32">
<title>uniF3F1</title>
<path d="M26 14q1.234 0 2.328 0.469t1.914 1.289 1.289 1.914 0.469 2.328q0 1.25-0.469 2.336t-1.289 1.906-1.914 1.289-2.328 0.469q-0.938 0-1.828-0.281t-1.641-0.828l-6.828 6.813q-0.297 0.297-0.703 0.297t-0.703-0.297-0.297-0.703 0.297-0.703l6.813-6.828q-0.547-0.75-0.828-1.641t-0.281-1.828q0-1.234 0.469-2.328t1.289-1.914 1.906-1.289 2.336-0.469zM26 24q0.828 0 1.555-0.313t1.273-0.859 0.859-1.273 0.313-1.555-0.313-1.555-0.859-1.273-1.273-0.859-1.555-0.313-1.555 0.313-1.273 0.859-0.859 1.273-0.313 1.555 0.313 1.555 0.859 1.273 1.273 0.859 1.555 0.313zM6 25q0 0.234 0.133 0.43t0.289 0.352q0.453 0.453 1.148 0.797t1.477 0.586 1.563 0.406 1.391 0.242v2h-0.125q-0.094 0-0.125-0.016-0.609-0.078-1.414-0.242t-1.664-0.422-1.688-0.625-1.484-0.875-1.063-1.156-0.406-1.477v-18q0-0.75 0.344-1.352t0.914-1.086 1.297-0.852 1.492-0.641 1.492-0.445 1.305-0.281q1.031-0.172 2.063-0.258t2.063-0.086q1.047 0 2.078 0.086t2.063 0.273q0.563 0.094 1.297 0.273t1.492 0.445 1.492 0.633 1.305 0.852 0.922 1.086 0.352 1.352v5h-2v-2.047q-0.906 0.578-2.031 0.969t-2.32 0.633-2.391 0.344-2.258 0.102-2.258-0.102-2.391-0.344-2.32-0.633-2.031-0.969v15.047zM15 4q-0.891 0-2.039 0.094t-2.313 0.32-2.234 0.617-1.789 0.984q-0.219 0.172-0.422 0.43t-0.203 0.555 0.203 0.555 0.422 0.43q0.719 0.594 1.789 0.984t2.234 0.617 2.313 0.32 2.039 0.094 2.039-0.094 2.313-0.32 2.227-0.617 1.781-0.984q0.219-0.172 0.43-0.43t0.211-0.555-0.211-0.555-0.43-0.43q-0.719-0.594-1.781-0.984t-2.227-0.617-2.313-0.32-2.039-0.094z"></path>
</svg>
