<!-- Generated by IcoMoon.io -->
<svg version="1.1" xmlns="http://www.w3.org/2000/svg" width="32" height="32" viewBox="0 0 32 32">
<title>uniEEF5</title>
<path d="M21 0q1.516 0 2.922 0.391t2.633 1.109 2.227 1.719 1.719 2.227 1.109 2.633 0.391 2.922-0.391 2.922-1.109 2.633-1.719 2.227-2.227 1.719-2.633 1.109-2.922 0.391q-1.953 0-3.742-0.648t-3.289-1.898l-1.531 1.516q0.25 0.219 0.398 0.469t0.148 0.594q0 0.531-0.359 0.891l-8.375 8.359q-0.359 0.359-0.813 0.547t-0.953 0.188-0.945-0.188-0.781-0.516-0.539-0.766-0.203-0.938q0-0.547 0.188-1.039t0.578-0.883l8.297-8.313q0.359-0.359 0.891-0.359 0.359 0 0.602 0.148t0.461 0.398l1.516-1.531q-1.25-1.5-1.898-3.289t-0.648-3.742q0-1.516 0.391-2.922t1.109-2.633 1.719-2.227 2.227-1.719 2.633-1.109 2.922-0.391zM2.484 30.516q0.406 0 0.703-0.297l8.188-8.188-1.406-1.406-8.125 8.109q-0.328 0.328-0.328 0.797 0 0.406 0.273 0.695t0.695 0.289zM21 20.5q1.969 0 3.695-0.75t3.016-2.039 2.039-3.016 0.75-3.695-0.75-3.695-2.039-3.016-3.016-2.039-3.695-0.75-3.695 0.75-3.016 2.039-2.039 3.016-0.75 3.695 0.75 3.695 2.039 3.016 3.016 2.039 3.695 0.75zM21 3q0.313 0 0.531 0.219t0.219 0.531-0.219 0.531-0.531 0.219q-1.344 0-2.523 0.516t-2.063 1.398-1.398 2.063-0.516 2.523q0 0.313-0.219 0.531t-0.531 0.219-0.531-0.219-0.219-0.531q0-1.656 0.625-3.117t1.711-2.547 2.547-1.711 3.117-0.625z"></path>
</svg>
