<!-- Generated by IcoMoon.io -->
<svg version="1.1" xmlns="http://www.w3.org/2000/svg" width="32" height="32" viewBox="0 0 32 32">
<title>uniF5B8</title>
<path d="M14 26.953l-10 5.047v-32h20v11.766q-1.047 0.25-2 0.781v-10.547h-16v26.75q2.016-1.016 4-2.031t4-2.016q0.406 0.188 0.789 0.383t0.773 0.414zM26 14q1.234 0 2.328 0.469t1.906 1.289 1.281 1.914 0.469 2.328q0 1.25-0.469 2.336t-1.281 1.906-1.906 1.289-2.328 0.469q-0.938 0-1.828-0.281t-1.641-0.828l-6.828 6.813q-0.297 0.297-0.703 0.297t-0.703-0.297-0.297-0.703 0.297-0.703l6.813-6.828q-0.547-0.75-0.828-1.641t-0.281-1.828q0-1.234 0.469-2.328t1.289-1.914 1.906-1.289 2.336-0.469zM26 24q0.828 0 1.555-0.313t1.273-0.859 0.859-1.273 0.313-1.555-0.313-1.555-0.859-1.273-1.273-0.859-1.555-0.313-1.555 0.313-1.273 0.859-0.859 1.273-0.313 1.555 0.313 1.555 0.859 1.273 1.273 0.859 1.555 0.313z"></path>
</svg>
