<!-- Generated by IcoMoon.io -->
<svg version="1.1" xmlns="http://www.w3.org/2000/svg" width="32" height="32" viewBox="0 0 32 32">
<title>uniE820</title>
<path d="M20 22.359q0.594 0.078 1.414 0.242t1.711 0.422 1.766 0.617 1.563 0.852 1.117 1.109 0.43 1.398-0.43 1.391-1.063 1.070-1.367 0.789-1.344 0.531q-1 0.344-2.102 0.578t-2.242 0.375-2.273 0.203-2.18 0.063q-1.063 0-2.188-0.063t-2.266-0.203-2.242-0.375-2.102-0.578q-0.609-0.203-1.344-0.531t-1.367-0.789-1.063-1.070-0.43-1.391 0.43-1.398 1.117-1.109 1.563-0.852 1.766-0.617 1.711-0.414 1.414-0.25v-2.531q-0.453-0.156-0.82-0.438t-0.633-0.656-0.406-0.82-0.141-0.914v-8q0-0.625 0.234-1.172t0.641-0.953 0.953-0.641 1.172-0.234h0.531q-0.531-0.938-0.531-2 0-0.828 0.313-1.555t0.859-1.273 1.273-0.859 1.555-0.313 1.555 0.313 1.273 0.859 0.859 1.273 0.313 1.555q0 1.063-0.531 2h0.531q0.625 0 1.172 0.234t0.953 0.641 0.641 0.953 0.234 1.172v8q0 0.469-0.141 0.914t-0.406 0.82-0.633 0.656-0.82 0.438v2.531zM13 4q0 0.422 0.156 0.781t0.43 0.633 0.633 0.43 0.781 0.156 0.781-0.156 0.633-0.43 0.43-0.633 0.156-0.781-0.156-0.781-0.43-0.633-0.633-0.43-0.781-0.156-0.781 0.156-0.633 0.43-0.43 0.633-0.156 0.781zM15 30q0.672 0 1.563-0.039t1.867-0.141 1.992-0.266 1.953-0.414 1.727-0.586 1.336-0.789q0.156-0.125 0.359-0.336t0.203-0.43-0.203-0.438-0.477-0.414-0.555-0.344-0.438-0.227q-1-0.469-2.117-0.75t-2.211-0.453v2.625q0 0.188-0.266 0.328t-0.609 0.234-0.672 0.156-0.453 0.078v-9.797q0.281 0 0.633 0.008t0.656-0.070 0.508-0.289 0.203-0.648v-8q0-0.406-0.297-0.703t-0.703-0.297h-8q-0.406 0-0.703 0.297t-0.297 0.703v8q0 0.438 0.203 0.648t0.508 0.289 0.656 0.070 0.633-0.008v9.797q-0.125-0.016-0.453-0.078t-0.672-0.156-0.609-0.234-0.266-0.328v-2.625q-1.094 0.172-2.211 0.453t-2.117 0.75q-0.156 0.078-0.438 0.227t-0.555 0.344-0.477 0.414-0.203 0.438 0.203 0.43 0.359 0.336q0.531 0.453 1.328 0.789t1.734 0.586 1.953 0.414 1.992 0.266 1.867 0.141 1.563 0.039zM14 18h2v9.984q-0.25 0.016-0.5 0.016h-1t-0.5-0.016v-9.984z"></path>
</svg>
