<!-- Generated by IcoMoon.io -->
<svg version="1.1" xmlns="http://www.w3.org/2000/svg" width="32" height="32" viewBox="0 0 32 32">
<title>uniF4AF</title>
<path d="M32 2v12q-0.906-0.891-2-1.484v-2.516h-28v18h11.047q-0.266 0.266-0.469 0.477t-0.367 0.43-0.305 0.477-0.25 0.617h-11.656v-28h6v-2h2v2h16v-2h2v2h6zM30 8v-4h-4v2h-2v-2h-16v2h-2v-2h-4v4h28zM26 14q1.234 0 2.328 0.469t1.906 1.289 1.281 1.914 0.469 2.328q0 1.25-0.469 2.336t-1.281 1.906-1.906 1.289-2.328 0.469q-0.938 0-1.82-0.289t-1.648-0.836l-6.828 6.828q-0.297 0.297-0.703 0.297t-0.703-0.297-0.297-0.703 0.297-0.703l6.828-6.828q-0.547-0.766-0.836-1.648t-0.289-1.82q0-1.234 0.469-2.328t1.289-1.914 1.906-1.289 2.336-0.469zM26 24q0.828 0 1.555-0.313t1.273-0.859 0.859-1.273 0.313-1.555-0.313-1.555-0.859-1.273-1.273-0.859-1.555-0.313-1.555 0.313-1.273 0.859-0.859 1.273-0.313 1.555 0.313 1.555 0.859 1.273 1.273 0.859 1.555 0.313z"></path>
</svg>
