<!-- Generated by IcoMoon.io -->
<svg version="1.1" xmlns="http://www.w3.org/2000/svg" width="32" height="32" viewBox="0 0 32 32">
<title>uniEF76</title>
<path d="M27 14q0.375 0 0.734 0.125t0.656 0.336 0.523 0.516 0.367 0.648q0.078 0.219 0.32 0.82t0.539 1.375 0.625 1.633 0.602 1.609 0.453 1.281 0.18 0.656q0 0.422-0.297 0.711t-0.703 0.289h-18q-0.406 0-0.703-0.289t-0.297-0.711q0-0.188 0.133-0.594t0.313-0.875 0.359-0.891 0.258-0.641h-6.063q-0.406 0-0.703-0.289t-0.297-0.711q0-0.188 0.133-0.594t0.313-0.875 0.359-0.891 0.258-0.641h-6.063q-0.406 0-0.703-0.289t-0.297-0.711q0-0.125 0.18-0.664t0.453-1.281 0.602-1.609 0.625-1.648 0.531-1.383 0.328-0.82q0.266-0.703 0.898-1.148t1.383-0.445h10q0.375 0 0.734 0.125t0.656 0.336 0.523 0.516 0.367 0.648l0.906 2.375h2.813q0.375 0 0.734 0.125t0.656 0.336 0.523 0.516 0.367 0.648l0.906 2.375h2.813zM7.813 14l0.906-2.406q0.266-0.703 0.898-1.148t1.383-0.445h5.047l-0.641-1.703q-0.031-0.094-0.164-0.195t-0.242-0.102h-10q-0.109 0-0.234 0.094t-0.156 0.188l-2.172 5.719h5.375zM13.813 18l0.906-2.406q0.266-0.703 0.898-1.148t1.383-0.445h5.047l-0.641-1.703q-0.031-0.094-0.164-0.195t-0.242-0.102h-10q-0.109 0-0.234 0.094t-0.156 0.188q-0.547 1.438-1.086 2.859t-1.086 2.859h5.375zM29.563 22l-2.156-5.703q-0.031-0.094-0.164-0.195t-0.242-0.102h-10q-0.109 0-0.234 0.094t-0.156 0.188l-0.656 1.719-0.75 2t-0.766 2h15.125z"></path>
</svg>
