<!-- Generated by IcoMoon.io -->
<svg version="1.1" xmlns="http://www.w3.org/2000/svg" width="32" height="32" viewBox="0 0 32 32">
<title>uniE48F</title>
<path d="M2 5.969v6.031q0 1.781 0.422 3.43t1.18 3.156 1.789 2.883 2.25 2.602 2.578 2.297 2.75 1.992q-0.328 0.797-0.328 1.641 0 0.297 0.047 0.594-1.625-1.016-3.203-2.219t-2.984-2.586-2.602-2.945-2.063-3.289-1.352-3.617-0.484-3.938v-8q1.297 0 2.516-0.094t2.391-0.344 2.297-0.703 2.234-1.188q1.297-0.844 2.648-1.227t2.898-0.383q1.563 0 2.922 0.391t2.672 1.234q1.109 0.719 2.234 1.172t2.289 0.703 2.383 0.344 2.516 0.094v8h-2v-6.031q-1.609-0.078-2.906-0.398t-2.406-0.758-2.063-0.93-1.867-0.898-1.828-0.68-1.93-0.273q-1.031 0-1.945 0.273t-1.828 0.68-1.867 0.898-2.055 0.93-2.406 0.758-2.898 0.398zM30.891 30q0 0.406-0.164 0.766t-0.438 0.633-0.633 0.438-0.766 0.164h-11.781q-0.406 0-0.766-0.164t-0.633-0.438-0.438-0.633-0.164-0.766q0-0.359 0.305-1.148t0.773-1.789 1.047-2.109 1.125-2.117 0.984-1.828 0.656-1.242v-3.766h-2v-2h10v2h-2v3.766q0.203 0.422 0.648 1.242t0.992 1.828 1.125 2.117 1.047 2.109 0.773 1.789 0.305 1.148zM24 16h-2v4.234l-2.891 5.766h7.781l-2.891-5.766v-4.234z"></path>
</svg>
