<!-- Generated by IcoMoon.io -->
<svg version="1.1" xmlns="http://www.w3.org/2000/svg" width="32" height="32" viewBox="0 0 32 32">
<title>uniED85</title>
<path d="M13.547 22.828q1.016 0.516 1.844 1.266t1.406 1.688 0.891 2.008 0.313 2.211h-2q0-1.234-0.469-2.328t-1.289-1.914-1.914-1.289-2.328-0.469q-1.25 0-2.336 0.469t-1.906 1.289-1.289 1.914-0.469 2.328h-2q0-1.141 0.313-2.211t0.891-2.008 1.406-1.688 1.844-1.266q-1.156-0.844-1.805-2.117t-0.648-2.711q0-1.234 0.469-2.328t1.289-1.914 1.906-1.289 2.336-0.469q1.438 0 2.711 0.648t2.117 1.805q0.594-1.172 1.523-2.102t2.102-1.508q-1.156-0.859-1.805-2.133t-0.648-2.711q0-1.234 0.469-2.328t1.289-1.914 1.906-1.289 2.336-0.469q1.234 0 2.328 0.469t1.914 1.289 1.289 1.914 0.469 2.328q0 1.469-0.672 2.766t-1.875 2.141q0.734 0.391 1.406 0.93t1.227 1.195 0.977 1.414 0.672 1.555h-2.094q-0.344-0.813-0.922-1.539t-1.328-1.273-1.617-0.859-1.773-0.313q-1.25 0-2.336 0.469t-1.906 1.281-1.289 1.906-0.469 2.328q0 1.438-0.648 2.711t-1.805 2.117zM22 2q-0.828 0-1.555 0.313t-1.273 0.859-0.859 1.273-0.313 1.555 0.313 1.555 0.859 1.273 1.273 0.859 1.555 0.313 1.555-0.313 1.273-0.859 0.859-1.273 0.313-1.555-0.313-1.555-0.859-1.273-1.273-0.859-1.555-0.313zM6 18q0 0.828 0.313 1.555t0.859 1.273 1.273 0.859 1.555 0.313 1.555-0.313 1.273-0.859 0.859-1.273 0.313-1.555-0.313-1.555-0.859-1.273-1.273-0.859-1.555-0.313-1.555 0.313-1.273 0.859-0.859 1.273-0.313 1.555zM32 24v8h-10v-8h1v-2q0-0.828 0.313-1.555t0.859-1.273 1.273-0.859 1.555-0.313 1.555 0.313 1.273 0.859 0.859 1.273 0.313 1.555v2h1zM25 24h4v-2q0-0.422-0.156-0.781t-0.43-0.633-0.633-0.43-0.781-0.156-0.781 0.156-0.633 0.43-0.43 0.633-0.156 0.781v2zM30 26h-6v4h6v-4z"></path>
</svg>
