<!-- Generated by IcoMoon.io -->
<svg version="1.1" xmlns="http://www.w3.org/2000/svg" width="32" height="32" viewBox="0 0 32 32">
<title>uniE808</title>
<path d="M22 0q0.625 0 1.219 0.195t1.094 0.555 0.883 0.852 0.586 1.086l5.672 17q0.547 1.609 0.547 3.313 0 1.453-0.555 2.727t-1.5 2.219-2.219 1.5-2.727 0.555q-1.391 0-2.68-0.531t-2.273-1.516-1.516-2.273-0.531-2.68v-7h-4v7q0 1.391-0.531 2.68t-1.516 2.273-2.273 1.516-2.68 0.531q-1.453 0-2.727-0.555t-2.219-1.5-1.5-2.219-0.555-2.727q0-1.703 0.547-3.313 0.078-0.219 0.359-1.070t0.695-2.094 0.922-2.75 1.023-3.047 1-3 0.859-2.586 0.602-1.813l0.227-0.688q0.234-0.578 0.609-1.070t0.867-0.836 1.070-0.539 1.219-0.195q1.156 0 1.898 0.375t1.188 1.008 0.648 1.453 0.258 1.711 0.031 1.789-0.023 1.664h4q0-0.766-0.023-1.664t0.031-1.789 0.258-1.711 0.648-1.453 1.188-1.008 1.898-0.375zM7 28q1.031 0 1.938-0.398t1.586-1.078 1.078-1.586 0.398-1.938-0.398-1.938-1.078-1.586-1.586-1.078-1.938-0.398-1.938 0.398-1.586 1.078-1.078 1.586-0.398 1.938 0.398 1.938 1.078 1.586 1.586 1.078 1.938 0.398zM12 4q0-0.422-0.156-0.781t-0.43-0.633-0.633-0.43-0.781-0.156q-0.609 0-1.148 0.375t-0.742 0.969l-4.516 13.531q0.797-0.422 1.656-0.648t1.75-0.227q0.516 0 1.258 0.148t1.484 0.422 1.359 0.664 0.898 0.875v-14.109zM18 14v-4h-4v4h4zM20 18.109q0.281-0.484 0.898-0.875t1.359-0.664 1.484-0.422 1.258-0.148q0.891 0 1.75 0.227t1.656 0.648l-4.516-13.531q-0.203-0.594-0.742-0.969t-1.148-0.375q-0.422 0-0.781 0.156t-0.633 0.43-0.43 0.633-0.156 0.781v14.109zM25 28q1.031 0 1.938-0.398t1.586-1.078 1.078-1.586 0.398-1.938-0.398-1.938-1.078-1.586-1.586-1.078-1.938-0.398-1.938 0.398-1.586 1.078-1.078 1.586-0.398 1.938 0.398 1.938 1.078 1.586 1.586 1.078 1.938 0.398z"></path>
</svg>
