<!-- Generated by IcoMoon.io -->
<svg version="1.1" xmlns="http://www.w3.org/2000/svg" width="32" height="32" viewBox="0 0 32 32">
<title>uniE8B3</title>
<path d="M0 2v-2h2v2h-2zM0 6v-2h2v2h-2zM0 10v-2h2v2h-2zM0 14v-2h2v2h-2zM0 18v-2h2v2h-2zM0 22v-2h2v2h-2zM0 26v-2h2v2h-2zM0 30v-2h2v2h-2zM28 6v-2h2v2h-2zM28 10v-2h2v2h-2zM28 14v-2h2v2h-2zM28 18v-2h2v2h-2zM28 22v-2h2v2h-2zM28 26v-2h2v2h-2zM28 30v-2h2v2h-2zM6 0v2h-2v-2h2zM10 0v2h-2v-2h2zM14 0v2h-2v-2h2zM18 0v2h-2v-2h2zM22 0v2h-2v-2h2zM24 2v-2h2v2h-2zM4 30v-2h2v2h-2zM8 30v-2h2v2h-2zM12 30v-2h2v2h-2zM16 30v-2h2v2h-2zM20 30v-2h2v2h-2zM24 30v-2h2v2h-2zM28 0h2v2h-2v-2zM24 6v18h-18v-18h18zM22 14v-6h-6v6h6zM14 8h-6v6h6v-6zM8 16v6h6v-6h-6zM16 22h6v-6h-6v6z"></path>
</svg>
