<!-- Generated by IcoMoon.io -->
<svg version="1.1" xmlns="http://www.w3.org/2000/svg" width="32" height="32" viewBox="0 0 32 32">
<title>uniF4F0</title>
<path d="M25.609 20.531q0 1.281-0.375 2.328t-1.023 1.875-1.531 1.445-1.914 1.023-2.164 0.602-2.258 0.195h-8.344v-26h8.25q0.922 0 1.883 0.133t1.875 0.43 1.711 0.758 1.398 1.117 0.953 1.531 0.352 1.969q0 1.141-0.328 2.125t-0.945 1.773-1.484 1.367-1.945 0.906v0.078q1.328 0.156 2.414 0.656t1.859 1.313 1.195 1.914 0.422 2.461zM12.297 5.469v7.391h2.797q0.984 0 1.859-0.227t1.531-0.719 1.031-1.258 0.375-1.859q0-1-0.375-1.648t-1-1.023-1.422-0.516-1.656-0.141h-3.141zM21.016 20.359q0-1.234-0.484-2.023t-1.273-1.234-1.797-0.609-2.039-0.164h-3.125v8.234h3.688q1.016 0 1.93-0.234t1.602-0.734 1.094-1.305 0.406-1.93z"></path>
</svg>
