<!-- Generated by IcoMoon.io -->
<svg version="1.1" xmlns="http://www.w3.org/2000/svg" width="32" height="32" viewBox="0 0 32 32">
<title>uniE393</title>
<path d="M21 10q1.516 0 2.922 0.391t2.633 1.109 2.227 1.719 1.719 2.227 1.109 2.633 0.391 2.922-0.391 2.922-1.109 2.633-1.719 2.227-2.227 1.719-2.633 1.109-2.922 0.391-2.922-0.391-2.633-1.109-2.227-1.719-1.719-2.227-1.109-2.633-0.391-2.922q0-0.5 0.047-1-2.078 0-3.906-0.781t-3.195-2.133-2.156-3.172-0.789-3.914q0-1.375 0.359-2.656t1.008-2.391 1.563-2.023 2.023-1.563 2.391-1.008 2.656-0.359q1.391 0 2.672 0.359t2.391 1.016 2.023 1.57 1.563 2.031 1 2.398 0.352 2.672q0.484-0.047 1-0.047zM10 18q0.109 0 0.219-0.016l0.219-0.031q0.281-0.984 0.742-1.883t1.070-1.711q-0.547-0.172-1.109-0.266t-1.141-0.094q-0.953 0-1.867 0.234t-1.758 0.672l-0.906-1.781q1.063-0.531 2.203-0.828t2.328-0.297q0.969 0 1.898 0.203t1.82 0.563q0.922-0.813 1.992-1.406t2.242-0.922l0.031-0.219t0.016-0.219q0-1.656-0.633-3.109t-1.719-2.539-2.539-1.719-3.109-0.633-3.109 0.633-2.539 1.719-1.719 2.539-0.633 3.109 0.633 3.109 1.719 2.539 2.539 1.719 3.109 0.633zM21 30q1.859 0 3.5-0.711t2.859-1.93 1.93-2.859 0.711-3.5-0.711-3.5-1.93-2.859-2.859-1.93-3.5-0.711-3.5 0.711-2.859 1.93-1.93 2.859-0.711 3.5 0.711 3.5 1.93 2.859 2.859 1.93 3.5 0.711zM25 20.5q-0.625 0-1.063-0.438t-0.438-1.063 0.438-1.063 1.063-0.438 1.063 0.438 0.438 1.063-0.438 1.063-1.063 0.438zM17 20.5q-0.625 0-1.063-0.438t-0.438-1.063 0.438-1.063 1.063-0.438 1.063 0.438 0.438 1.063-0.438 1.063-1.063 0.438zM21 26q0.672 0 1.313-0.18t1.203-0.516 1.031-0.805 0.797-1.063l1.734 0.984q-0.469 0.828-1.125 1.492t-1.438 1.125-1.672 0.711-1.844 0.25-1.844-0.25-1.68-0.711-1.438-1.125-1.117-1.492l1.734-0.984q0.328 0.594 0.797 1.063t1.031 0.805 1.195 0.516 1.32 0.18zM7 8.25q-0.516 0-0.883-0.367t-0.367-0.883 0.367-0.883 0.883-0.367 0.883 0.367 0.367 0.883-0.367 0.883-0.883 0.367zM13 8.25q-0.516 0-0.883-0.367t-0.367-0.883 0.367-0.883 0.883-0.367 0.883 0.367 0.367 0.883-0.367 0.883-0.883 0.367z"></path>
</svg>
