<!-- Generated by IcoMoon.io -->
<svg version="1.1" xmlns="http://www.w3.org/2000/svg" width="32" height="32" viewBox="0 0 32 32">
<title>uniF1FE</title>
<path d="M31.844 23.25l-1.938 0.797q0.188 0.969 0 1.906l1.938 0.797-0.766 1.859-1.938-0.813q-0.266 0.391-0.602 0.734t-0.742 0.609l0.813 1.938-1.859 0.766-0.797-1.938q-0.469 0.094-0.953 0.094t-0.953-0.094l-0.797 1.938-1.859-0.766 0.813-1.938q-0.797-0.547-1.344-1.344l-1.938 0.813-0.766-1.859 1.938-0.797q-0.188-0.953 0-1.906l-1.938-0.797 0.766-1.859 1.938 0.813q0.547-0.797 1.344-1.344l-0.813-1.938 1.859-0.766 0.797 1.938q0.969-0.188 1.906 0l0.797-1.938 1.859 0.766-0.813 1.938q0.391 0.266 0.734 0.602t0.609 0.742l1.938-0.813zM26.141 27.766q0.578-0.234 0.992-0.664t0.633-0.961 0.227-1.125-0.227-1.156q-0.219-0.563-0.641-0.984t-0.984-0.641q-0.547-0.234-1.141-0.234-0.609 0-1.141 0.234-0.563 0.219-0.984 0.641t-0.641 0.984q-0.484 1.141 0 2.281 0.219 0.563 0.641 0.984t0.984 0.641q1.141 0.484 2.281 0zM32 2v14h-2v-6h-28v16h14v2h-16v-26h32zM30 8v-4h-28v4h28zM14 22v-2.188q-0.484-0.172-0.938-0.531l-1.891 1.078-1-1.719 1.875-1.094q-0.047-0.25-0.047-0.547 0-0.281 0.047-0.547l-1.875-1.094 1-1.719 1.891 1.078q0.453-0.359 0.938-0.531v-2.188h2v2.188q0.266 0.094 0.492 0.227t0.445 0.305l1.891-1.078 1 1.719-1.875 1.094q0.047 0.266 0.047 0.547 0 0.297-0.047 0.547l1.875 1.094-1 1.719-1.891-1.078q-0.219 0.172-0.445 0.305t-0.492 0.227v2.188h-2zM13.5 17q0 0.625 0.438 1.063t1.063 0.438 1.063-0.438 0.438-1.063-0.438-1.063-1.063-0.438-1.063 0.438-0.438 1.063z"></path>
</svg>
