<!-- Generated by IcoMoon.io -->
<svg version="1.1" xmlns="http://www.w3.org/2000/svg" width="32" height="32" viewBox="0 0 32 32">
<title>uniEFF1</title>
<path d="M12.094 30q0.125 0.547 0.344 1.047t0.563 0.953h-9v-28h8q0-0.828 0.313-1.555t0.859-1.273 1.273-0.859 1.555-0.313 1.555 0.313 1.273 0.859 0.859 1.273 0.313 1.555h8v8.078q-0.25-0.031-0.5-0.055t-0.5-0.023-0.5 0.023-0.5 0.055v-6.078h-2v4h-16v-4h-2v24h6.094zM10 8h12v-2h-4v-2q0-0.422-0.156-0.781t-0.43-0.633-0.633-0.43-0.781-0.156-0.781 0.156-0.633 0.43-0.43 0.633-0.156 0.781v2h-4v2zM27 14q1.031 0 1.938 0.398t1.586 1.078 1.078 1.586 0.398 1.938-0.398 1.945-1.078 1.594-1.586 1.070-1.938 0.391q-0.359 0-0.703-0.047l-7.172 7.172q-0.422 0.422-0.977 0.648t-1.148 0.227q-0.625 0-1.172-0.234t-0.953-0.641-0.641-0.953-0.234-1.172q0-0.594 0.227-1.148t0.648-0.977l3.125-3.109q-0.047-0.797-0.383-1.484t-0.875-1.195-1.242-0.797-1.5-0.289q-0.828 0-1.555 0.313t-1.273 0.859-0.859 1.273-0.313 1.555h-2q0-0.813 0.219-1.586t0.617-1.461 0.969-1.25 1.289-0.953q-0.516-0.547-0.805-1.266t-0.289-1.484q0-0.828 0.313-1.555t0.859-1.273 1.273-0.859 1.555-0.313 1.555 0.313 1.273 0.859 0.859 1.273 0.313 1.555q0 0.766-0.289 1.484t-0.805 1.266q0.984 0.547 1.703 1.406t1.078 1.922l2.359-2.375q-0.047-0.344-0.047-0.703 0-1.031 0.391-1.938t1.070-1.586 1.594-1.078 1.945-0.398zM12 16q0 0.422 0.156 0.781t0.43 0.633 0.633 0.43 0.781 0.156 0.781-0.156 0.633-0.43 0.43-0.633 0.156-0.781-0.156-0.781-0.43-0.633-0.633-0.43-0.781-0.156-0.781 0.156-0.633 0.43-0.43 0.633-0.156 0.781zM27 22q0.625 0 1.172-0.234t0.953-0.641 0.641-0.953 0.234-1.172q0-0.641-0.297-1.281l-2.281 2.281h-1.422v-1.422l2.281-2.281q-0.641-0.297-1.281-0.297-0.625 0-1.172 0.234t-0.953 0.641-0.641 0.953-0.234 1.172q0 0.641 0.297 1.281l-8 8.016q-0.297 0.297-0.297 0.703t0.297 0.703 0.703 0.297 0.703-0.297l8.016-8q0.641 0.297 1.281 0.297z"></path>
</svg>
