<!-- Generated by IcoMoon.io -->
<svg version="1.1" xmlns="http://www.w3.org/2000/svg" width="32" height="32" viewBox="0 0 32 32">
<title>uniE3FD</title>
<path d="M16.313 11.094l-13.359 13.375q-0.453 0.453-0.703 1.047t-0.25 1.25 0.258 1.25 0.695 1.031 1.031 0.695 1.25 0.258q0.641 0 1.242-0.25t1.055-0.703l8.469-8.453v2.828l-7.047 7.047q-0.75 0.75-1.711 1.141t-2.008 0.391q-1.078 0-2.023-0.414t-1.664-1.133-1.133-1.664-0.414-2.023 0.391-2.023 1.141-1.695l12.594-12.594q-0.063-0.359-0.094-0.727t-0.031-0.727q0-1.234 0.32-2.383t0.906-2.148 1.414-1.828 1.828-1.414 2.148-0.906 2.383-0.32q0.844 0 1.555 0.133t1.367 0.375 1.297 0.586 1.344 0.75l-6.156 6.156 1.594 1.594 6.156-6.156q0.375 0.656 0.711 1.32t0.594 1.352 0.414 1.414 0.156 1.492q0 1.031-0.258 2.047t-0.727 1.945-1.133 1.734-1.477 1.43q-0.719-0.281-1.469-0.438t-1.531-0.188q1.016-0.375 1.859-1.031t1.445-1.508 0.93-1.859 0.328-2.102q0-1.172-0.375-2.25l-5.625 5.609-4.406-4.406 5.609-5.625q-1.063-0.375-2.203-0.375-1.453 0-2.727 0.555t-2.219 1.5-1.5 2.219-0.555 2.727q0 0.531 0.094 1.055t0.219 1.039zM25 18q1.453 0 2.727 0.547t2.227 1.5 1.5 2.227 0.547 2.727-0.547 2.727-1.5 2.227-2.227 1.5-2.727 0.547-2.727-0.547-2.227-1.5-1.5-2.227-0.547-2.727 0.547-2.727 1.5-2.227 2.227-1.5 2.727-0.547zM20 25q0 1.031 0.391 1.945t1.070 1.594 1.594 1.070 1.945 0.391q0.734 0 1.438-0.211t1.313-0.617l-6.922-6.922q-0.406 0.609-0.617 1.313t-0.211 1.438zM29.172 27.75q0.406-0.609 0.617-1.313t0.211-1.438q0-1.031-0.398-1.938t-1.078-1.586-1.586-1.078-1.938-0.398q-0.734 0-1.438 0.211t-1.313 0.617z"></path>
</svg>
