<!-- Generated by IcoMoon.io -->
<svg version="1.1" xmlns="http://www.w3.org/2000/svg" width="32" height="32" viewBox="0 0 32 32">
<title>uniE359</title>
<path d="M11.875 16q0 0.859 0.32 1.609t0.883 1.313 1.313 0.883 1.609 0.32q0.453 0 0.953-0.125-0.563 0.922-0.875 1.875h-0.078q-1.219 0-2.289-0.461t-1.867-1.258-1.258-1.867-0.461-2.289 0.461-2.289 1.258-1.867 1.867-1.258 2.289-0.461q1.234 0 2.305 0.469t1.867 1.281 1.25 1.891 0.453 2.313q-0.953 0.313-1.875 0.875 0.125-0.5 0.125-0.953 0-0.859-0.32-1.609t-0.883-1.313-1.313-0.883-1.609-0.32-1.609 0.32-1.313 0.883-0.883 1.313-0.32 1.609zM15.609 26.078q0.109 0.922 0.375 1.781-0.094 0-0.188 0.008t-0.172 0.008q-0.047 0-0.094-0.008t-0.094-0.008l-2.516 4.047-5.984-2.484 1.063-4.641q-0.406-0.375-0.781-0.781l-4.641 1.063-2.484-5.984 4.047-2.516q0-0.141-0.008-0.281t-0.008-0.281 0.008-0.281 0.008-0.281l-4.047-2.516 2.484-5.984 4.641 1.063q0.375-0.406 0.781-0.781l-1.063-4.641 5.984-2.484 2.516 4.047q0.141 0 0.281-0.008t0.281-0.008 0.281 0.008 0.281 0.008l2.516-4.047 5.984 2.484-1.063 4.641q0.406 0.375 0.781 0.781l4.641-1.063 2.484 5.984-4.047 2.516v0.547q-0.875-0.25-1.781-0.375v-0.375q0-0.172-0.016-0.359t-0.031-0.359l3.688-2.297-1.344-3.25-4.234 0.984q-0.484-0.594-0.992-1.094t-1.102-1l0.984-4.234-3.25-1.344-2.313 3.688q-0.359-0.031-0.734-0.063t-0.734-0.031q-0.375 0-0.742 0.031t-0.742 0.063l-2.297-3.688-3.25 1.344 0.984 4.234q-0.594 0.484-1.094 0.992t-1 1.102l-4.234-0.984-1.344 3.25 3.688 2.313q-0.031 0.375-0.063 0.742t-0.031 0.742q0 0.359 0.031 0.734t0.063 0.734l-3.688 2.297 1.344 3.25 4.234-0.984q0.484 0.594 0.992 1.094t1.102 1l-0.984 4.234 3.25 1.344 2.313-3.688q0.281 0.031 0.539 0.039t0.539 0.008zM30 18h2v6h-6v-2h2.969q-0.703-0.938-1.75-1.469t-2.219-0.531q-0.922 0-1.742 0.313t-1.477 0.867-1.094 1.32-0.594 1.672l-1.984-0.344q0.219-1.266 0.844-2.328t1.539-1.844 2.070-1.219 2.438-0.438q1.422 0 2.719 0.555t2.281 1.586v-2.141zM25 30q0.906 0 1.734-0.313t1.484-0.867 1.094-1.32 0.594-1.672l1.984 0.344q-0.219 1.266-0.844 2.328t-1.539 1.844-2.070 1.219-2.438 0.438q-1.422 0-2.719-0.555t-2.281-1.586v2.141h-2v-6h6v2h-2.969q0.703 0.938 1.75 1.469t2.219 0.531z"></path>
</svg>
