<!-- Generated by IcoMoon.io -->
<svg version="1.1" xmlns="http://www.w3.org/2000/svg" width="32" height="32" viewBox="0 0 32 32">
<title>uniE4D2</title>
<path d="M16 11.875q-0.859 0-1.609 0.32t-1.313 0.883-0.883 1.313-0.32 1.609q0 0.969 0.43 1.82t1.195 1.43v2.047q-0.766-0.359-1.391-0.914t-1.063-1.25-0.68-1.492-0.242-1.641q0-1.219 0.461-2.289t1.258-1.867 1.867-1.258 2.289-0.461q0.781 0 1.523 0.203t1.398 0.586 1.203 0.93 0.938 1.219q-0.406 0.141-0.813 0.328t-0.766 0.422q-0.563-0.891-1.484-1.414t-2-0.523zM12.219 29.719l2.281-3.656q0.203 0.469 0.445 0.914t0.523 0.883h-0.031l-2.516 4.047-5.984-2.484 1.063-4.641q-0.406-0.375-0.781-0.781l-4.641 1.063-2.484-5.984 4.047-2.516q0-0.141-0.008-0.281t-0.008-0.281 0.008-0.281 0.008-0.281l-4.047-2.516 2.484-5.984 4.641 1.063q0.375-0.406 0.781-0.781l-1.063-4.641 5.984-2.484 2.516 4.047q0.141 0 0.281-0.008t0.281-0.008 0.281 0.008 0.281 0.008l2.516-4.047 5.984 2.484-1.063 4.641q0.406 0.375 0.781 0.781l4.641-1.063 2.484 5.984-1.797 1.125h-0.109q-0.344 0-0.672-0.047t-0.656-0.078q-0.219-0.141-0.438-0.258t-0.438-0.242l1.922-1.203-1.344-3.25-4.234 0.984q-0.484-0.594-0.992-1.094t-1.102-1l0.984-4.234-3.25-1.344-2.313 3.688q-0.359-0.031-0.734-0.063t-0.734-0.031q-0.375 0-0.742 0.031t-0.742 0.063l-2.297-3.688-3.25 1.344 0.984 4.234q-0.594 0.484-1.094 0.992t-1 1.102l-4.234-0.984-1.344 3.25 3.688 2.313q-0.031 0.375-0.063 0.742t-0.031 0.742q0 0.359 0.031 0.734t0.063 0.734l-3.688 2.297 1.344 3.25 4.234-0.984q0.484 0.594 0.992 1.094t1.102 1l-0.984 4.234zM32 16.547v5.078q0 1.641-0.594 3.102t-1.586 2.703-2.266 2.242-2.633 1.719l-0.922 0.484-0.938-0.484q-1.359-0.703-2.633-1.711t-2.258-2.258-1.578-2.711-0.594-3.086v-5.078q0.375 0 0.781 0.016t0.828 0.016q0.844 0 1.68-0.109t1.492-0.516q0.781-0.453 1.547-0.664t1.672-0.211q0.922 0 1.688 0.219t1.563 0.672q0.656 0.391 1.5 0.492t1.688 0.102q0.406 0 0.805-0.008t0.758-0.008zM30 21.625v-3.078q-1.031 0-1.984-0.188t-1.844-0.703q-0.531-0.313-1.039-0.445t-1.133-0.133q-0.594 0-1.109 0.133t-1.031 0.43q-0.906 0.516-1.867 0.711t-1.992 0.195v3.078q0 1.344 0.523 2.539t1.375 2.219 1.922 1.844 2.18 1.398q1.094-0.578 2.172-1.398t1.93-1.844 1.375-2.219 0.523-2.539z"></path>
</svg>
