<!-- Generated by IcoMoon.io -->
<svg version="1.1" xmlns="http://www.w3.org/2000/svg" width="32" height="32" viewBox="0 0 32 32">
<title>uniE35A</title>
<path d="M17.484 26.031l2.297 3.688v1.891l-0.703 0.297-2.516-4.047q-0.141 0-0.281 0.008t-0.281 0.008-0.281-0.008-0.281-0.008l-2.516 4.047-5.984-2.484 1.063-4.641q-0.406-0.375-0.781-0.781l-4.641 1.063-2.484-5.984 4.047-2.516q0-0.141-0.008-0.281t-0.008-0.281 0.008-0.281 0.008-0.281l-4.047-2.516 2.484-5.984 4.641 1.063q0.375-0.406 0.781-0.781l-1.063-4.641 5.984-2.484 2.516 4.047q0.141 0 0.281-0.008t0.281-0.008 0.281 0.008 0.281 0.008l2.516-4.047 5.984 2.484-1.063 4.641q0.406 0.375 0.781 0.781l4.641-1.063 2.484 5.984-4.047 2.516q0 0.141 0.008 0.281t0.008 0.281-0.008 0.281-0.008 0.281l4.047 2.516-0.281 0.688h-1.922l-3.672-2.297q0.031-0.375 0.063-0.742t0.031-0.742q0-0.359-0.031-0.734t-0.063-0.734l3.688-2.297-1.344-3.25-4.234 0.984q-0.484-0.594-0.992-1.094t-1.102-1l0.984-4.234-3.25-1.344-2.313 3.688q-0.359-0.031-0.734-0.063t-0.734-0.031q-0.375 0-0.742 0.031t-0.742 0.063l-2.297-3.688-3.25 1.344 0.984 4.234q-0.594 0.484-1.094 0.992t-1 1.102l-4.234-0.984-1.344 3.25 3.688 2.313q-0.031 0.375-0.063 0.742t-0.031 0.742q0 0.359 0.031 0.734t0.063 0.734l-3.688 2.297 1.344 3.25 4.234-0.984q0.484 0.594 0.992 1.094t1.102 1l-0.984 4.234 3.25 1.344 2.313-3.688q0.359 0.031 0.734 0.063t0.734 0.031q0.375 0 0.742-0.031t0.742-0.063zM16 10.125q1.219 0 2.289 0.461t1.867 1.258 1.258 1.867 0.461 2.289-0.461 2.289-1.258 1.867-1.867 1.258-2.289 0.461-2.289-0.461-1.867-1.258-1.258-1.867-0.461-2.289 0.461-2.289 1.258-1.867 1.867-1.258 2.289-0.461zM16 20.125q0.859 0 1.609-0.32t1.313-0.883 0.883-1.313 0.32-1.609-0.32-1.609-0.883-1.313-1.313-0.883-1.609-0.32-1.609 0.32-1.313 0.883-0.883 1.313-0.32 1.609 0.32 1.609 0.883 1.313 1.313 0.883 1.609 0.32zM32 26v2h-4v4h-2v-4h-4v-2h4v-4h2v4h4z"></path>
</svg>
