<!-- Generated by IcoMoon.io -->
<svg version="1.1" xmlns="http://www.w3.org/2000/svg" width="32" height="32" viewBox="0 0 32 32">
<title>uniF80A</title>
<path d="M29.641 23.859q0 0.531-0.289 0.992t-0.758 0.695l-12.563 6.25q-0.203 0.094-0.406 0.148t-0.422 0.055q-0.547 0-0.992-0.273t-0.695-0.773l-10.953-21.984q-0.203-0.438-0.203-0.828 0-0.531 0.289-0.992t0.758-0.695l12.563-6.25q0.438-0.203 0.828-0.203 0.547 0 1 0.281t0.688 0.766l10.953 21.984q0.203 0.438 0.203 0.828zM15.25 29.953l12.344-6.141-10.844-21.766-12.344 6.141zM21.922 23.969l-3.141 1.563-0.891-1.797 3.141-1.563zM26 5.422l-1.297 1.281-1.406-1.406 3.703-3.703 3.703 3.703-1.406 1.406-1.297-1.281v4.578h-2v-4.578zM6 26.578l1.297-1.281 1.406 1.406-3.703 3.703-3.703-3.703 1.406-1.406 1.297 1.281v-4.578h2v4.578z"></path>
</svg>
