<!-- Generated by IcoMoon.io -->
<svg version="1.1" xmlns="http://www.w3.org/2000/svg" width="32" height="32" viewBox="0 0 32 32">
<title>uniE422</title>
<path d="M14 2h18v18h-3.656l-8.078-14-1.609 2.766q-0.859-1.328-2.047-2.375t-2.609-1.75v-2.641zM17.203 11.297l-7.313 12.656q-0.453 0.047-0.891 0.047-1.859 0-3.5-0.711t-2.859-1.93-1.93-2.859-0.711-3.5 0.711-3.5 1.93-2.859 2.859-1.93 3.5-0.711q1.328 0 2.57 0.375t2.313 1.063 1.922 1.664 1.398 2.195zM9.297 30l10.969-19 10.969 19h-21.938z"></path>
</svg>
