<!-- Generated by IcoMoon.io -->
<svg version="1.1" xmlns="http://www.w3.org/2000/svg" width="32" height="32" viewBox="0 0 32 32">
<title>uniEC7C</title>
<path d="M32 20h-6.547l5.781 10h-21.938l4.172-7.234q-1.031 0.594-2.156 0.914t-2.313 0.32q-1.859 0-3.5-0.711t-2.859-1.93-1.93-2.859-0.711-3.5 0.711-3.5 1.93-2.859 2.859-1.93 3.5-0.711q1.328 0 2.602 0.383t2.398 1.133v-5.516h18v18zM9 22q1.453 0 2.727-0.555t2.219-1.508 1.5-2.227 0.555-2.711-0.555-2.711-1.5-2.227-2.219-1.508-2.727-0.555-2.727 0.555-2.219 1.5-1.5 2.219-0.555 2.727 0.555 2.727 1.5 2.219 2.219 1.5 2.727 0.555zM27.766 28q-1.891-3.266-3.75-6.5t-3.75-6.5q-1.891 3.266-3.75 6.5t-3.75 6.5h15zM30 4h-14v5.422q0.953 1.172 1.469 2.586t0.531 2.93l2.266-3.938 4.031 7h5.703v-14z"></path>
</svg>
