<!-- Generated by IcoMoon.io -->
<svg version="1.1" xmlns="http://www.w3.org/2000/svg" width="32" height="32" viewBox="0 0 32 32">
<title>uniED18</title>
<path d="M32 18q0 1.656-0.633 3.109t-1.719 2.539-2.539 1.719-3.109 0.633q-1.016 0-2.031-0.266-0.141 1.328-0.742 2.477t-1.539 1.992-2.141 1.32-2.547 0.477q-1.453 0-2.727-0.555t-2.219-1.5-1.5-2.219-0.555-2.727q0-0.25 0.023-0.5t0.055-0.5h-6.75q-0.547 0-0.938-0.391t-0.391-0.938v-13.344q0-0.547 0.391-0.938t0.938-0.391h4.719q0.188-1.703 0.969-3.164t1.984-2.539 2.742-1.688 3.258-0.609q1.859 0 3.5 0.711t2.859 1.93 1.93 2.859 0.711 3.5q0 0.25-0.016 0.5t-0.047 0.5q1.656 0 3.125 0.625t2.57 1.703 1.734 2.539 0.633 3.133zM15 2q-1.297 0-2.477 0.453t-2.102 1.258-1.539 1.906-0.805 2.383h6.594q0.547 0 0.938 0.391t0.391 0.938v6.594l0.281-0.047q0.281-1 0.813-1.898t1.258-1.625 1.617-1.258 1.906-0.813q0.125-0.672 0.125-1.281 0-1.453-0.555-2.727t-1.5-2.219-2.219-1.5-2.727-0.555zM8.156 21.203q0.719 0 1.414-0.148t1.242-0.492 0.883-0.906 0.336-1.406-0.352-1.406-0.883-0.938-1.141-0.617-1.141-0.453-0.883-0.445-0.352-0.594q0-0.266 0.188-0.43t0.445-0.258 0.539-0.125 0.469-0.031q0.797 0 1.406 0.203t1.266 0.609v-2.375q-0.375-0.109-0.695-0.188t-0.633-0.133-0.648-0.078-0.742-0.023q-0.688 0-1.406 0.156t-1.305 0.5-0.953 0.906-0.367 1.375q0 0.797 0.352 1.328t0.883 0.906 1.141 0.633 1.141 0.484 0.883 0.477 0.352 0.609q0 0.297-0.164 0.469t-0.414 0.266-0.523 0.117-0.492 0.023q-0.938 0-1.664-0.313t-1.477-0.828v2.5q1.594 0.625 3.297 0.625zM15 30q1.031 0 1.938-0.391t1.586-1.070 1.078-1.594 0.398-1.945q0-0.891-0.297-1.703t-0.828-1.461-1.266-1.102-1.609-0.641v2.578q0 0.547-0.391 0.938t-0.938 0.391h-4.578q-0.094 0.5-0.094 1 0 1.031 0.391 1.945t1.070 1.594 1.594 1.070 1.945 0.391zM24 24q1.234 0 2.328-0.469t1.914-1.289 1.289-1.906 0.469-2.336q0-1.234-0.469-2.328t-1.289-1.914-1.914-1.289-2.328-0.469-2.32 0.477-1.906 1.297-1.297 1.906-0.477 2.32q0 0.172 0.008 0.344t0.023 0.344q0.734 0.359 1.359 0.867t1.117 1.141 0.836 1.367 0.516 1.531q1.047 0.406 2.141 0.406z"></path>
</svg>
