<!-- Generated by IcoMoon.io -->
<svg version="1.1" xmlns="http://www.w3.org/2000/svg" width="32" height="32" viewBox="0 0 32 32">
<title>uniE3D9</title>
<path d="M15 12q-1.063 0-2.258-0.102t-2.391-0.344-2.32-0.633-2.031-0.969v15.047q0 0.313 0.203 0.555t0.422 0.43q0.469 0.406 1.109 0.703t1.383 0.523 1.539 0.375 1.578 0.242 1.508 0.133 1.336 0.039q0.938 0 1.813-0.086t1.813-0.242q-0.094 0.156-0.25 0.445t-0.297 0.609-0.25 0.625-0.109 0.477q-0.656 0.125-1.383 0.148t-1.398 0.023q-0.516 0-1.266-0.039t-1.625-0.148-1.82-0.289-1.844-0.453-1.711-0.648-1.422-0.867-0.969-1.133-0.359-1.422v-18q0-1.063 0.602-1.844t1.57-1.336 2.18-0.914 2.438-0.555 2.336-0.273 1.875-0.078 1.875 0.070 2.328 0.273 2.438 0.555 2.188 0.906 1.57 1.344 0.602 1.852v10.5q-0.516 0-1.016 0.094t-0.984 0.25v-7.891q-0.906 0.578-2.031 0.969t-2.32 0.633-2.391 0.344-2.258 0.102zM6 7q0 0.172 0.055 0.305t0.148 0.258q0.375 0.5 1.016 0.867t1.422 0.641 1.656 0.453 1.727 0.281 1.617 0.148 1.359 0.047 1.359-0.047 1.617-0.156 1.719-0.289 1.641-0.445 1.414-0.641 1.031-0.859q0.219-0.266 0.219-0.563 0-0.172-0.063-0.305t-0.156-0.258q-0.391-0.484-1.023-0.859t-1.414-0.641-1.648-0.445-1.711-0.289-1.617-0.156-1.367-0.047q-0.578 0-1.352 0.047t-1.625 0.156-1.727 0.289-1.656 0.445-1.422 0.641-1.016 0.859q-0.094 0.125-0.148 0.258t-0.055 0.305zM28.875 26.766q0.719 0.391 1.297 0.953t0.984 1.242 0.625 1.453 0.219 1.586h-2q0-0.828-0.313-1.563t-0.852-1.273-1.273-0.852-1.563-0.313-1.555 0.313-1.273 0.859-0.859 1.273-0.313 1.555h-2q0-0.813 0.219-1.586t0.625-1.453 0.984-1.242 1.297-0.953q-0.547-0.547-0.836-1.266t-0.289-1.5q0-0.828 0.313-1.555t0.859-1.273 1.273-0.859 1.555-0.313 1.555 0.313 1.273 0.859 0.859 1.273 0.313 1.555q0 0.781-0.289 1.5t-0.836 1.266zM26 26q0.406 0 0.773-0.156t0.641-0.43 0.43-0.641 0.156-0.773-0.156-0.773-0.43-0.641-0.641-0.43-0.773-0.156q-0.422 0-0.781 0.156t-0.633 0.43-0.43 0.633-0.156 0.781 0.156 0.781 0.43 0.633 0.633 0.43 0.781 0.156z"></path>
</svg>
