<!-- Generated by IcoMoon.io -->
<svg version="1.1" xmlns="http://www.w3.org/2000/svg" width="32" height="32" viewBox="0 0 32 32">
<title>uniE365</title>
<path d="M32 18q0 1.672-0.633 3.133t-1.734 2.539-2.57 1.703-3.141 0.625q-0.188 1.297-0.805 2.391t-1.539 1.898-2.102 1.258-2.477 0.453-2.477-0.453-2.102-1.258-1.539-1.898-0.805-2.391h-8.078q-0.406 0-0.773-0.156t-0.641-0.43-0.43-0.641-0.156-0.773v-16q0-0.406 0.156-0.773t0.43-0.641 0.641-0.43 0.773-0.156h4.516q0.469-1.344 1.32-2.445t1.969-1.891 2.445-1.227 2.75-0.438q1.859 0 3.5 0.711t2.859 1.93 1.93 2.859 0.711 3.5q0 0.25-0.016 0.5t-0.047 0.5q1.656 0 3.125 0.625t2.57 1.703 1.734 2.539 0.633 3.133zM15 2q-1.016 0-1.961 0.281t-1.773 0.805-1.492 1.266-1.102 1.648h9.328q0.406 0 0.773 0.156t0.641 0.43 0.43 0.641 0.156 0.773v3.078q0.453-0.25 0.914-0.453t0.961-0.344q0.125-0.672 0.125-1.281 0-1.453-0.555-2.727t-1.5-2.219-2.219-1.5-2.727-0.555zM9.75 22.5q0.938 0 1.805-0.195t1.547-0.648 1.086-1.188 0.406-1.797q0-0.859-0.258-1.477t-0.711-1.070-1.063-0.789-1.328-0.633q-0.172-0.125-0.547-0.266t-0.773-0.313-0.695-0.398-0.297-0.539q0-0.281 0.195-0.445t0.477-0.258 0.578-0.125 0.5-0.031q0.563 0 0.992 0.070t0.813 0.219 0.758 0.367 0.844 0.516v-3.406q-0.859-0.359-1.695-0.477t-1.773-0.117q-0.891 0-1.789 0.203t-1.609 0.664-1.164 1.188-0.453 1.758q0 1 0.422 1.688t1.055 1.164 1.367 0.797 1.367 0.602 1.055 0.563 0.422 0.672q0 0.297-0.188 0.469t-0.453 0.266-0.555 0.117-0.508 0.023q-0.375 0-0.805-0.070t-0.852-0.203-0.813-0.313-0.688-0.414l-0.797-0.625v3.609q0.969 0.5 2.008 0.672t2.117 0.172zM17 30q1.031 0 1.938-0.391t1.586-1.070 1.078-1.594 0.398-1.945q0-1.188-0.523-2.234t-1.477-1.766v3q0 0.406-0.156 0.773t-0.43 0.641-0.641 0.43-0.773 0.156h-5.906q0.188 0.875 0.641 1.609t1.102 1.266 1.461 0.828 1.703 0.297zM24 24q1.234 0 2.328-0.469t1.914-1.289 1.289-1.906 0.469-2.336q0-1.234-0.469-2.328t-1.289-1.914-1.914-1.289-2.328-0.469q-1.109 0-2.141 0.398t-1.859 1.148v5.125q0.797 0.375 1.461 0.93t1.172 1.242 0.836 1.492 0.453 1.664h0.078z"></path>
</svg>
