<!-- Generated by IcoMoon.io -->
<svg version="1.1" xmlns="http://www.w3.org/2000/svg" width="32" height="32" viewBox="0 0 32 32">
<title>uniF481</title>
<path d="M32 32h-2q0-0.828-0.313-1.555t-0.859-1.273-1.273-0.859-1.555-0.313-1.555 0.313-1.273 0.859-0.859 1.273-0.313 1.555h-2q0-0.813 0.219-1.586t0.633-1.453 0.992-1.242 1.281-0.953q-0.547-0.547-0.836-1.273t-0.289-1.492q0-0.828 0.313-1.555t0.859-1.273 1.273-0.859 1.555-0.313 1.555 0.313 1.273 0.859 0.859 1.273 0.313 1.555q0 0.766-0.289 1.492t-0.836 1.273q0.703 0.391 1.281 0.953t0.992 1.242 0.633 1.453 0.219 1.586zM28 24q0-0.406-0.164-0.766t-0.438-0.633-0.633-0.438-0.766-0.164-0.773 0.156-0.641 0.43-0.43 0.641-0.156 0.773q0 0.422 0.156 0.781t0.43 0.633 0.633 0.43 0.781 0.156q0.406 0 0.773-0.156t0.641-0.43 0.43-0.641 0.156-0.773zM10 24v-2h9.813q-0.313 0.984-0.313 2h-9.5zM22 10v2h-12v-2h12zM10 18v-2h12v2h-12zM6 4v26h12.5l-0.5 2h-14v-30h2v-2h2v2h4v-2h2v2h4v-2h2v2h4v-2h2v2h2v16.344l-2-0.344v-14h-20z"></path>
</svg>
