<!-- Generated by IcoMoon.io -->
<svg version="1.1" xmlns="http://www.w3.org/2000/svg" width="32" height="32" viewBox="0 0 32 32">
<title>uniED00</title>
<path d="M32 6l-2 8h-4v16h-20v-16h-4l-2-8 12-4q0 0.828 0.313 1.555t0.859 1.273 1.273 0.859 1.555 0.313 1.555-0.313 1.273-0.859 0.859-1.273 0.313-1.555zM29.609 7.313l-8.188-2.734q-0.375 0.781-0.945 1.414t-1.273 1.078-1.523 0.688-1.68 0.242q-0.875 0-1.688-0.242t-1.516-0.688-1.273-1.078-0.945-1.414l-8.188 2.734 1.172 4.688h4.438v16h16v-16h4.438z"></path>
</svg>
