<!-- Generated by IcoMoon.io -->
<svg version="1.1" xmlns="http://www.w3.org/2000/svg" width="32" height="32" viewBox="0 0 32 32">
<title>uniE719</title>
<path d="M28 8v20q0 0.828-0.32 1.555t-0.859 1.266-1.273 0.859-1.547 0.32h-18q-0.828 0-1.555-0.32t-1.266-0.859-0.859-1.266-0.32-1.555v-20h4v-2q0-1.234 0.477-2.328t1.289-1.906 1.906-1.289 2.328-0.477q1.625 0 3.016 0.813 1.391-0.813 2.984-0.813 1.234 0 2.328 0.477t1.906 1.289 1.289 1.906 0.477 2.328v2h4zM22 6q0-0.813-0.32-1.547t-0.859-1.273-1.273-0.859-1.547-0.32q-0.703 0-1.328 0.234 0.453 0.563 0.719 1.109t0.398 1.094 0.172 1.117 0.039 1.195v1.25h4v-2zM8 8h8v-2q0-0.813-0.32-1.547t-0.859-1.273-1.273-0.859-1.547-0.32q-0.828 0-1.555 0.32t-1.266 0.859-0.859 1.273-0.32 1.547v2zM20.531 30q-0.531-0.938-0.531-2v-18h-16v18q0 0.422 0.156 0.781t0.43 0.633 0.633 0.43 0.781 0.156h14.531zM26 10h-4v18q0 0.422 0.156 0.781t0.43 0.633 0.633 0.43 0.781 0.156 0.781-0.156 0.633-0.43 0.43-0.633 0.156-0.781v-18z"></path>
</svg>
