<!-- Generated by IcoMoon.io -->
<svg version="1.1" xmlns="http://www.w3.org/2000/svg" width="32" height="32" viewBox="0 0 32 32">
<title>uniF4DE</title>
<path d="M6 19.672q-0.828 1.094-1.391 2.328h-4.609v-18h6v15.672zM4 6h-2v14h2v-14zM10 16.031q-0.531 0.328-1.031 0.695t-0.969 0.773v-9.5h6v6.234q-0.516 0.156-1.008 0.336t-0.992 0.398v-4.969h-2v6.031zM18 13.547q-0.5 0.031-1 0.078t-1 0.141v-13.766h6v13.766q-0.5-0.094-1-0.141t-1-0.078v-11.547h-2v11.547zM19 22q1.031 0 1.938 0.398t1.586 1.078 1.078 1.586 0.398 1.938-0.398 1.945-1.078 1.594-1.586 1.070-1.938 0.391-1.945-0.391-1.594-1.070-1.070-1.594-0.391-1.945 0.391-1.938 1.070-1.586 1.594-1.078 1.945-0.398zM19 30q0.625 0 1.172-0.234t0.953-0.641 0.641-0.953 0.234-1.172-0.234-1.172-0.641-0.953-0.953-0.641-1.172-0.234-1.172 0.234-0.953 0.641-0.641 0.953-0.234 1.172 0.234 1.172 0.641 0.953 0.953 0.641 1.172 0.234zM19 16q1.563 0 3.133 0.344t3.008 1 2.695 1.602 2.18 2.172 1.453 2.703 0.531 3.18h-2q0-1.422-0.461-2.648t-1.258-2.227-1.867-1.766-2.289-1.289-2.531-0.797-2.594-0.273-2.594 0.273-2.531 0.797-2.289 1.289-1.867 1.766-1.258 2.227-0.461 2.648h-2q0-1.703 0.531-3.18t1.453-2.703 2.18-2.172 2.695-1.602 3.008-1 3.133-0.344z"></path>
</svg>
