<!-- Generated by IcoMoon.io -->
<svg version="1.1" xmlns="http://www.w3.org/2000/svg" width="32" height="32" viewBox="0 0 32 32">
<title>uniF7DE</title>
<path d="M26 16v-2h2v2h-2zM26 0v2h-2v-2h2zM30 18h-2v-2h2v2zM22 0v2h-2v-2h2zM18 16v-2h2v2h-2zM14 0v2h-2v-2h2zM22 16v-2h2v2h-2zM30 12v2h-2v-2h2zM16 14v2h-2v-2h2zM16 10v2h-2v-2h2zM16 6v2h-2v-2h2zM18 0v2h-2v-2h2zM30 8v2h-2v-2h2zM14 19.609v-1.609h2v0.406q-1.047 0.516-2 1.203zM30 4v2h-2v-2h2zM30 0v2h-2v-2h2zM0 22v-2h2v2h-2zM0 26v-2h2v2h-2zM0 18v-2h2v2h-2zM4 14v2h-2v-2h2zM0 12h2v2h-2v-2zM4 30v-2h2v2h-2zM8 30v-2h2v2h-2zM8 14v2h-2v-2h2zM10 0v2h-2v-2h2zM6 0v2h-2v-2h2zM16 4h-2v-2h2v2zM12 14v2h-2v-2h2zM2 0v2h-2v-2h2zM0 30v-2h2v2h-2zM2 8v2h-2v-2h2zM2 4v2h-2v-2h2zM32 28h-2q0-1.031-0.336-1.914t-0.922-1.602-1.359-1.281-1.664-0.938-1.844-0.57-1.875-0.195-1.875 0.195-1.844 0.57-1.664 0.93-1.359 1.281-0.922 1.609-0.336 1.914h-2q0-1.313 0.406-2.453t1.117-2.086 1.672-1.68 2.070-1.242 2.32-0.773 2.414-0.266 2.414 0.266 2.32 0.773 2.070 1.242 1.672 1.68 1.117 2.086 0.406 2.453zM22 24q0.828 0 1.563 0.313t1.273 0.852 0.852 1.273 0.313 1.563-0.313 1.563-0.852 1.273-1.273 0.852-1.563 0.313-1.563-0.313-1.273-0.852-0.852-1.273-0.313-1.563 0.313-1.563 0.852-1.273 1.273-0.852 1.563-0.313zM22 30q0.406 0 0.773-0.156t0.641-0.43 0.43-0.641 0.156-0.773-0.156-0.773-0.43-0.641-0.641-0.43-0.773-0.156-0.773 0.156-0.641 0.43-0.43 0.641-0.156 0.773 0.156 0.773 0.43 0.641 0.641 0.43 0.773 0.156z"></path>
</svg>
