<!-- Generated by IcoMoon.io -->
<svg version="1.1" xmlns="http://www.w3.org/2000/svg" width="32" height="32" viewBox="0 0 32 32">
<title>uniE46C</title>
<path d="M14 24l2.281 4.547q0.219 0.469 0.219 0.953 0 0.516-0.195 0.969t-0.539 0.797-0.797 0.539-0.969 0.195-0.969-0.195-0.797-0.539-0.539-0.797-0.195-0.969q0-0.484 0.219-0.953zM20 20l2.281 4.547q0.219 0.469 0.219 0.953 0 0.516-0.195 0.969t-0.539 0.797-0.797 0.539-0.969 0.195-0.969-0.195-0.797-0.539-0.539-0.797-0.195-0.969q0-0.484 0.219-0.953zM27.516 16.188q0.984 0.266 1.805 0.82t1.422 1.32 0.93 1.703 0.328 1.969q0 1.25-0.469 2.336t-1.289 1.906-1.914 1.289-2.328 0.469h-1.688q0.266-0.453 0.422-0.961t0.219-1.039h1.047q0.828 0 1.555-0.313t1.273-0.859 0.859-1.273 0.313-1.555q0-0.859-0.32-1.594t-0.883-1.266-1.313-0.836-1.594-0.305q-0.188-1.281-0.797-2.383t-1.523-1.906-2.086-1.258-2.484-0.453q-1.203 0-2.289 0.391t-1.977 1.078-1.539 1.656-0.945 2.109q-0.688-0.594-1.516-0.914t-1.734-0.32q-1.031 0-1.945 0.391t-1.594 1.070-1.070 1.594-0.391 1.945 0.391 1.945 1.070 1.594 1.594 1.070 1.945 0.391h1.5l-1 2h-0.5q-1.453 0-2.727-0.555t-2.219-1.5-1.5-2.219-0.555-2.727 0.555-2.727 1.5-2.219 2.219-1.5 2.727-0.555q1.156 0 2.297 0.391 0.609-1.016 1.445-1.828t1.828-1.383 2.117-0.875 2.313-0.305q1.453 0 2.789 0.453t2.461 1.273 1.969 1.953 1.297 2.508z"></path>
</svg>
