<!-- Generated by IcoMoon.io -->
<svg version="1.1" xmlns="http://www.w3.org/2000/svg" width="32" height="32" viewBox="0 0 32 32">
<title>uniF286</title>
<path d="M27 18q0.406 0 0.703 0.297t0.297 0.703-0.297 0.703-0.703 0.297-0.703-0.297-0.297-0.703 0.297-0.703 0.703-0.297zM17.578 17.703q-1.234-0.844-2.656-1.273t-2.922-0.43q-1.375 0-2.656 0.359t-2.391 1.008-2.023 1.563-1.563 2.023-1.008 2.391-0.359 2.656h-2q0-1.828 0.555-3.578t1.578-3.242 2.453-2.641 3.164-1.758q-0.875-0.563-1.57-1.297t-1.18-1.609-0.742-1.852-0.258-2.023q0-1.656 0.625-3.117t1.711-2.547 2.547-1.711 3.117-0.625 3.117 0.625 2.547 1.711 1.711 2.547 0.625 3.117q0 1.047-0.258 2.023t-0.742 1.852-1.18 1.609-1.57 1.297q1.266 0.453 2.438 1.25zM6 8q0 1.25 0.469 2.336t1.289 1.906 1.906 1.289 2.336 0.469q1.234 0 2.328-0.469t1.914-1.289 1.289-1.906 0.469-2.336q0-1.234-0.469-2.328t-1.289-1.914-1.914-1.289-2.328-0.469q-1.25 0-2.336 0.469t-1.906 1.289-1.289 1.914-0.469 2.328zM26 14q1.234 0 2.328 0.469t1.914 1.289 1.289 1.914 0.469 2.328q0 1.25-0.469 2.336t-1.289 1.906-1.914 1.289-2.328 0.469q-1.016 0-2-0.359v2.359h-2v2h-2v2h-6v-4.406l6.172-6.188q-0.172-0.719-0.172-1.406 0-1.234 0.469-2.328t1.289-1.914 1.906-1.289 2.336-0.469zM26 24q0.828 0 1.555-0.313t1.273-0.859 0.859-1.273 0.313-1.555-0.313-1.555-0.859-1.273-1.273-0.859-1.555-0.313-1.555 0.313-1.273 0.859-0.859 1.273-0.313 1.555q0 0.547 0.141 1t0.328 0.953l-6.469 6.453v1.594h2v-2h2v-2h2v-1.422l1.453-1.438q0.625 0.359 1.203 0.609t1.344 0.25z"></path>
</svg>
