<!-- Generated by IcoMoon.io -->
<svg version="1.1" xmlns="http://www.w3.org/2000/svg" width="32" height="32" viewBox="0 0 32 32">
<title>uniF321</title>
<path d="M2 26h10.922l-0.5 2h-12.422v-24h30v7.656q-0.281-0.047-0.563-0.078t-0.563-0.031q-0.219 0-0.438 0.023t-0.438 0.055v-5.625h-26v20zM28.875 14q0.656 0 1.227 0.234t0.992 0.656 0.664 0.984 0.242 1.219q0 0.609-0.234 1.188t-0.672 1.016l-11.203 11.234-5.891 1.469 1.469-5.891 11.203-11.219q0.438-0.438 1.016-0.664t1.188-0.227zM29.672 17.891q0.328-0.328 0.328-0.797 0-0.484-0.32-0.789t-0.805-0.305q-0.219 0-0.422 0.070t-0.359 0.227l-10.813 10.844-0.531 2.109 2.109-0.531z"></path>
</svg>
