<!-- Generated by IcoMoon.io -->
<svg version="1.1" xmlns="http://www.w3.org/2000/svg" width="32" height="32" viewBox="0 0 32 32">
<title>uniEBEC</title>
<path d="M32 2v16.109q-0.438-0.438-0.945-0.789t-1.055-0.617v-6.703h-28v16h17l-2 2h-17v-26h32zM30 8v-4h-28v4h28zM22.047 22.906q0-1.031 0.391-1.922t1.063-1.555 1.57-1.039 1.93-0.375q1.047 0 1.953 0.391t1.578 1.070 1.063 1.586 0.391 1.953q0 1.016-0.383 1.914t-1.039 1.57-1.547 1.063-1.922 0.391q-0.75 0-1.469-0.211t-1.359-0.602l-3.141 3.141q-0.359 0.359-0.703 0.727t-0.719 0.695q-0.156 0.141-0.305 0.219t-0.367 0.078q-0.406 0-0.719-0.313t-0.313-0.719q0-0.219 0.078-0.367t0.219-0.305q0.328-0.375 0.695-0.719t0.727-0.703q0.797-0.797 1.57-1.578t1.57-1.578q-0.391-0.641-0.602-1.352t-0.211-1.461zM24.047 23.094q0 0.594 0.227 1.109t0.609 0.906 0.906 0.609 1.117 0.219q0.609 0 1.164-0.242t0.992-0.664 0.695-0.969 0.258-1.156q0-0.563-0.242-1.086t-0.648-0.938-0.938-0.656-1.094-0.242q-0.609 0-1.164 0.258t-0.969 0.695-0.664 0.992-0.25 1.164z"></path>
</svg>
