<!-- Generated by IcoMoon.io -->
<svg version="1.1" xmlns="http://www.w3.org/2000/svg" width="32" height="32" viewBox="0 0 32 32">
<title>uniF40F</title>
<path d="M13.063 12.422q0 0.547 0.398 0.883t1.063 0.547 1.5 0.367 1.719 0.359 1.719 0.508 1.5 0.82 1.063 1.297 0.398 1.922q0 1.344-0.563 2.273t-1.469 1.508-2.047 0.836-2.297 0.258q-0.781 0-1.633-0.117t-1.648-0.391-1.492-0.727-1.164-1.141q-0.234-0.344-0.383-0.734t-0.148-0.797q0-0.656 0.445-1.039t1.070-0.383q0.469 0 0.773 0.211t0.563 0.523 0.523 0.68 0.656 0.68 0.969 0.523 1.469 0.211q0.453 0 0.961-0.125t0.93-0.391 0.703-0.656 0.281-0.938q0-0.344-0.125-0.609t-0.344-0.453-0.5-0.313-0.578-0.203q-0.984-0.266-1.977-0.5t-1.977-0.5q-0.859-0.219-1.547-0.555t-1.172-0.836-0.75-1.188-0.266-1.609q0-1.281 0.539-2.164t1.398-1.43 1.945-0.789 2.195-0.242q0.469 0 1.102 0.094t1.297 0.281 1.305 0.477 1.148 0.68 0.82 0.891 0.313 1.109q0 0.328-0.133 0.586t-0.352 0.422-0.508 0.25-0.586 0.086q-0.391 0-0.664-0.164t-0.523-0.422-0.516-0.547-0.641-0.547-0.922-0.422-1.359-0.164q-0.438 0-0.875 0.094t-0.797 0.305-0.586 0.555-0.227 0.859zM29.922 17.297q1 1.219 1.539 2.68t0.539 3.023q0 1.859-0.711 3.5t-1.93 2.859-2.859 1.93-3.5 0.711q-1.563 0-3.023-0.539t-2.68-1.539q-0.328 0.047-0.648 0.063t-0.648 0.016q-1.938 0-3.727-0.5t-3.344-1.414-2.828-2.188-2.188-2.828-1.414-3.344-0.5-3.727q0-0.328 0.016-0.648t0.063-0.648q-1-1.219-1.539-2.68t-0.539-3.023q0-1.859 0.711-3.5t1.93-2.859 2.859-1.93 3.5-0.711q1.563 0 3.023 0.539t2.68 1.539q0.328-0.047 0.648-0.063t0.648-0.016q1.938 0 3.727 0.5t3.344 1.414 2.828 2.188 2.188 2.828 1.414 3.344 0.5 3.727q0 0.328-0.016 0.648t-0.063 0.648zM23 30q1.453 0 2.727-0.555t2.219-1.5 1.5-2.219 0.555-2.727q0-1.516-0.57-2.742t-1.586-2.305q0.047-0.5 0.102-0.977t0.055-0.977q0-1.656-0.43-3.188t-1.211-2.867-1.875-2.43-2.43-1.875-2.867-1.211-3.188-0.43q-0.5 0-0.977 0.055t-0.977 0.102q-1.078-1.016-2.305-1.586t-2.742-0.57q-1.453 0-2.727 0.555t-2.219 1.5-1.5 2.219-0.555 2.727q0 1.516 0.57 2.742t1.586 2.305q-0.047 0.5-0.102 0.977t-0.055 0.977q0 1.656 0.43 3.188t1.211 2.867 1.875 2.43 2.43 1.875 2.867 1.211 3.188 0.43q0.5 0 0.977-0.055t0.977-0.102q1.078 1.016 2.305 1.586t2.742 0.57z"></path>
</svg>
