<!-- Generated by IcoMoon.io -->
<svg version="1.1" xmlns="http://www.w3.org/2000/svg" width="32" height="32" viewBox="0 0 32 32">
<title>uniF27D</title>
<path d="M29.766 18.797q0.609 0.953 0.922 2.039t0.313 2.211q0 1.641-0.625 3.094t-1.703 2.531-2.531 1.703-3.094 0.625q-1.219 0-2.211-0.313t-2.039-0.906q-1.422 0.266-2.797 0.266-1.938 0-3.734-0.5t-3.352-1.414-2.844-2.203-2.203-2.844-1.414-3.352-0.5-3.734q0-1.375 0.266-2.797-0.594-1.047-0.906-2.039t-0.313-2.211q0-1.641 0.625-3.094t1.703-2.531 2.531-1.703 3.094-0.625q1.219 0 2.211 0.313t2.039 0.906q1.422-0.266 2.797-0.266 1.938 0 3.734 0.5t3.352 1.414 2.844 2.203 2.203 2.844 1.414 3.352 0.5 3.734q0 0.703-0.055 1.414t-0.227 1.383z"></path>
</svg>
