<!-- Generated by IcoMoon.io -->
<svg version="1.1" xmlns="http://www.w3.org/2000/svg" width="32" height="32" viewBox="0 0 32 32">
<title>uniF747</title>
<path d="M16 0q2.203 0 4.242 0.57t3.82 1.617 3.242 2.508 2.508 3.242 1.617 3.82 0.57 4.242-0.57 4.242-1.617 3.82-2.508 3.242-3.242 2.508-3.82 1.617-4.242 0.57-4.242-0.57-3.82-1.617-3.242-2.508-2.508-3.242-1.617-3.82-0.57-4.242 0.57-4.242 1.617-3.82 2.508-3.242 3.242-2.508 3.82-1.617 4.242-0.57zM24.641 16q0-0.344-0.133-0.648t-0.367-0.539-0.547-0.367-0.656-0.133h-10.063q0.297-0.297 0.789-0.703t0.961-0.875 0.805-0.992 0.336-1.055q0-0.344-0.133-0.656t-0.367-0.531-0.547-0.352-0.656-0.133q-0.328 0-0.641 0.125t-0.547 0.359l-5.281 5.297h-0.016q-0.219 0.219-0.359 0.516t-0.141 0.609q0 0.359 0.117 0.688t0.383 0.594h0.016l5.281 5.297q0.484 0.484 1.203 0.484 0.734 0 1.211-0.492t0.477-1.227q0-0.484-0.352-1t-0.82-1-0.953-0.891-0.766-0.688h10.063q0.344 0 0.656-0.133t0.547-0.367 0.367-0.539 0.133-0.648z"></path>
</svg>
