<!-- Generated by IcoMoon.io -->
<svg version="1.1" xmlns="http://www.w3.org/2000/svg" width="32" height="32" viewBox="0 0 32 32">
<title>uniF0FC</title>
<path d="M30.828 18.609q0.578 1.016 0.875 2.141t0.297 2.297q0 1.234-0.32 2.375t-0.906 2.141-1.398 1.813-1.813 1.398-2.141 0.906-2.375 0.32q-1.172 0-2.297-0.297t-2.141-0.875q-0.656 0.109-1.305 0.164t-1.305 0.055q-2.078 0-4-0.539t-3.594-1.516-3.047-2.352-2.352-3.047-1.516-3.594-0.539-4q0-0.656 0.055-1.305t0.164-1.305q-0.578-1.016-0.875-2.141t-0.297-2.297q0-1.234 0.32-2.375t0.906-2.141 1.398-1.813 1.813-1.398 2.141-0.906 2.375-0.32q1.172 0 2.297 0.297t2.141 0.875q0.656-0.109 1.305-0.164t1.305-0.055q2.078 0 4 0.539t3.594 1.516 3.047 2.352 2.352 3.047 1.516 3.594 0.539 4q0 0.656-0.055 1.305t-0.164 1.305zM23.047 29.719q1.375 0 2.594-0.523t2.125-1.43 1.43-2.125 0.523-2.594q0-0.609-0.094-1.117t-0.258-0.984-0.398-0.938-0.531-0.977q0.141-0.766 0.234-1.508t0.094-1.523q0-1.766-0.453-3.391t-1.289-3.047-2-2.586-2.586-2-3.047-1.289-3.391-0.453q-0.781 0-1.523 0.094t-1.508 0.234q-0.516-0.297-0.977-0.531t-0.938-0.398-0.984-0.258-1.117-0.094q-1.375 0-2.594 0.523t-2.125 1.43-1.43 2.125-0.523 2.594q0 0.609 0.094 1.117t0.258 0.984 0.398 0.938 0.531 0.977q-0.141 0.766-0.234 1.508t-0.094 1.523q0 1.766 0.453 3.391t1.289 3.047 2 2.586 2.586 2 3.047 1.289 3.391 0.453q0.781 0 1.523-0.094t1.508-0.234q0.516 0.297 0.977 0.531t0.938 0.398 0.984 0.258 1.117 0.094zM12.609 11.875q0 0.484 0.289 0.82t0.711 0.555 0.891 0.352 0.844 0.211l3.391 0.75q1.016 0.234 1.875 0.633t1.484 1.016 0.977 1.461 0.352 1.938q0 1.031-0.297 1.844t-0.82 1.445-1.227 1.078-1.523 0.727-1.711 0.414-1.781 0.133q-0.906 0-1.891-0.133t-1.906-0.453-1.727-0.844-1.352-1.32q-0.266-0.391-0.438-0.836t-0.172-0.93q0-0.375 0.141-0.68t0.383-0.523 0.563-0.336 0.68-0.117q0.547 0 0.898 0.242t0.648 0.609 0.602 0.789 0.758 0.789 1.125 0.609 1.688 0.242q0.531 0 1.109-0.148t1.070-0.445 0.813-0.758 0.32-1.086q0-0.391-0.148-0.695t-0.398-0.531-0.57-0.367-0.664-0.234l-4.563-1.156q-0.984-0.25-1.781-0.641t-1.367-0.969-0.875-1.375-0.305-1.859q0-1.469 0.625-2.492t1.625-1.648 2.258-0.906 2.523-0.281q0.547 0 1.273 0.109t1.5 0.32 1.516 0.547 1.328 0.789 0.945 1.031 0.359 1.281q0 0.391-0.156 0.68t-0.414 0.484-0.594 0.289-0.68 0.094q-0.453 0-0.773-0.195t-0.602-0.484-0.586-0.633-0.742-0.633-1.070-0.484-1.555-0.195q-0.5 0-1.016 0.109t-0.93 0.352-0.672 0.648-0.258 1z"></path>
</svg>
