<!-- Generated by IcoMoon.io -->
<svg version="1.1" xmlns="http://www.w3.org/2000/svg" width="32" height="32" viewBox="0 0 32 32">
<title>uniF410</title>
<path d="M28.891 17.609q1 1.203 1.555 2.5t0.555 2.891q0 1.656-0.633 3.109t-1.719 2.539-2.539 1.719-3.109 0.633q-1.594 0-2.891-0.555t-2.5-1.555q-0.406 0.063-0.805 0.086t-0.805 0.023q-1.797 0-3.453-0.469t-3.102-1.313-2.633-2.031-2.031-2.633-1.313-3.102-0.469-3.453q0-0.406 0.023-0.805t0.086-0.805q-1-1.203-1.555-2.5t-0.555-2.891q0-1.656 0.633-3.109t1.719-2.539 2.539-1.719 3.109-0.633q1.594 0 2.891 0.555t2.5 1.555q0.406-0.063 0.805-0.086t0.805-0.023q1.797 0 3.453 0.469t3.102 1.313 2.633 2.031 2.031 2.633 1.313 3.102 0.469 3.453q0 0.406-0.023 0.805t-0.086 0.805z"></path>
</svg>
