<!-- Generated by IcoMoon.io -->
<svg version="1.1" xmlns="http://www.w3.org/2000/svg" width="32" height="32" viewBox="0 0 32 32">
<title>uniF825</title>
<path d="M16 0q2.203 0 4.25 0.57t3.82 1.617 3.234 2.508 2.508 3.234 1.617 3.82 0.57 4.25-0.57 4.25-1.617 3.82-2.508 3.234-3.234 2.508-3.82 1.617-4.25 0.57-4.25-0.57-3.82-1.617-3.234-2.508-2.508-3.234-1.617-3.82-0.57-4.25 0.57-4.25 1.617-3.82 2.508-3.234 3.234-2.508 3.82-1.617 4.25-0.57zM22.75 21.078q0-0.719-0.484-1.203l-10.141-10.141q-0.484-0.484-1.203-0.484-0.344 0-0.648 0.133t-0.539 0.359-0.367 0.539-0.133 0.656q0 0.688 0.5 1.188l10.141 10.141q0.5 0.5 1.188 0.5 0.344 0 0.656-0.133t0.539-0.367 0.359-0.539 0.133-0.648z"></path>
</svg>
