<!-- Generated by IcoMoon.io -->
<svg version="1.1" xmlns="http://www.w3.org/2000/svg" width="32" height="32" viewBox="0 0 32 32">
<title>uniEF83</title>
<path d="M16 1.359q1.984 0 3.945 0.133t3.914 0.539 3.539 1.383 2.68 2.648q1.031 1.594 1.477 3.492t0.445 3.773q0 1.531-0.242 2.898t-0.781 2.586-1.398 2.297-2.094 2.016q-2.406 1.844-4.781 3.648t-4.781 3.633q-0.313 0.234-0.734 0.234-0.266 0-0.477-0.109t-0.375-0.289-0.25-0.406-0.086-0.477v-4.406h-3.969q-0.953 0-1.945-0.078t-1.961-0.281-1.891-0.563-1.719-0.906q-1.219-0.844-2.078-1.945t-1.398-2.367-0.789-2.656-0.25-2.828q0-1.938 0.445-3.781t1.523-3.484q1.125-1.703 2.656-2.664t3.516-1.367q1.953-0.406 3.914-0.539t3.945-0.133zM17 16q0.406 0 0.703-0.297t0.297-0.703-0.297-0.703-0.703-0.297h-8q-0.406 0-0.703 0.297t-0.297 0.703 0.297 0.703 0.703 0.297h8zM22.938 12q0.453 0 0.758-0.273t0.305-0.727-0.305-0.727-0.758-0.273h-13.875q-0.438 0-0.75 0.273t-0.313 0.727 0.313 0.727 0.75 0.273h13.875z"></path>
</svg>
