<!-- Generated by IcoMoon.io -->
<svg version="1.1" xmlns="http://www.w3.org/2000/svg" width="32" height="32" viewBox="0 0 32 32">
<title>uniF40E</title>
<path d="M28.953 17.844q0.516 0.922 0.789 1.93t0.273 2.070q0 1.688-0.641 3.18t-1.758 2.594-2.609 1.742-3.18 0.641q-1.094 0-2.148-0.289t-1.992-0.836q-0.391 0.031-0.773 0.063t-0.773 0.031q-1.781 0-3.43-0.461t-3.094-1.297-2.625-2.016-2.031-2.617-1.313-3.086-0.461-3.43q0-0.469 0.039-0.945t0.117-0.945q-0.531-0.922-0.805-1.945t-0.273-2.086q0-1.688 0.641-3.172t1.758-2.586 2.602-1.742 3.172-0.641q1.141 0 2.234 0.313t2.078 0.922q0.359-0.031 0.695-0.055t0.695-0.023q1.781 0 3.43 0.461t3.094 1.297 2.625 2.016 2.031 2.617 1.313 3.086 0.461 3.43q0 0.453-0.039 0.891t-0.102 0.891zM21.656 19.344q0-0.953-0.313-1.672t-0.836-1.266-1.18-0.953-1.352-0.719-1.352-0.57-1.18-0.516-0.836-0.539-0.313-0.656 0.195-0.609 0.484-0.359 0.633-0.172 0.641-0.047q0.516 0 0.969 0.125t0.852 0.281 0.758 0.281 0.688 0.125q0.734 0 1.164-0.5t0.43-1.203q0-0.531-0.25-0.922t-0.648-0.656-0.914-0.43-1.047-0.25-1.039-0.117-0.898-0.031q-1.031 0-2.109 0.258t-1.945 0.813-1.422 1.414-0.555 2.078q0 1.266 0.547 2.133t1.359 1.461 1.773 1 1.773 0.758 1.359 0.727 0.547 0.906q0 0.391-0.164 0.633t-0.43 0.367-0.586 0.172-0.633 0.047q-0.656 0-1.148-0.164t-0.914-0.367-0.828-0.367-0.891-0.164q-0.75 0-1.242 0.453t-0.492 1.219q0 0.578 0.289 1.008t0.75 0.727 1.047 0.484 1.188 0.289 1.172 0.141 0.992 0.039q1.141 0 2.203-0.242t1.883-0.797 1.32-1.453 0.5-2.195z"></path>
</svg>
