<!-- Generated by IcoMoon.io -->
<svg version="1.1" xmlns="http://www.w3.org/2000/svg" width="32" height="32" viewBox="0 0 32 32">
<title>uniEF7E</title>
<path d="M16 0q2.203 0 4.25 0.57t3.82 1.617 3.234 2.508 2.508 3.234 1.617 3.82 0.57 4.25-0.57 4.25-1.617 3.82-2.508 3.234-3.234 2.508-3.82 1.617-4.25 0.57-4.25-0.57-3.82-1.617-3.234-2.508-2.508-3.234-1.617-3.82-0.57-4.25 0.57-4.25 1.617-3.82 2.508-3.234 3.234-2.508 3.82-1.617 4.25-0.57zM21.016 22.703q0.344 0 0.648-0.133t0.539-0.367 0.367-0.539 0.133-0.648q0-0.703-0.5-1.203l-4.516-4.516v-8.188q0-0.344-0.133-0.656t-0.359-0.539-0.539-0.359-0.656-0.133q-0.359 0-0.664 0.133t-0.531 0.359-0.359 0.539-0.133 0.656v8.891q0 0.328 0.125 0.648t0.359 0.555l5.016 5q0.5 0.5 1.203 0.5z"></path>
</svg>
