<!-- Generated by IcoMoon.io -->
<svg version="1.1" xmlns="http://www.w3.org/2000/svg" width="32" height="32" viewBox="0 0 32 32">
<title>uniEB6F</title>
<path d="M29.594 17.984q0.547 0.984 0.836 2.070t0.289 2.211q0 1.813-0.688 3.406t-1.875 2.773-2.781 1.867-3.406 0.688q-1.172 0-2.305-0.313t-2.148-0.906q-0.406 0.047-0.828 0.078t-0.828 0.031q-1.906 0-3.68-0.492t-3.313-1.391-2.813-2.156-2.172-2.797-1.398-3.313-0.5-3.68q0-0.5 0.047-1.008t0.125-1.008q-0.563-0.984-0.859-2.086t-0.297-2.227q0-1.813 0.688-3.406t1.883-2.773 2.789-1.867 3.406-0.688q1.219 0 2.398 0.336t2.211 0.977q0.375-0.031 0.742-0.055t0.742-0.023q1.906 0 3.68 0.492t3.313 1.391 2.813 2.156 2.172 2.797 1.398 3.313 0.5 3.68q0 0.484-0.039 0.961t-0.102 0.961zM21.484 19.453q0-1-0.336-1.75t-0.891-1.313-1.266-0.977-1.453-0.734-1.453-0.602-1.266-0.57-0.891-0.633-0.336-0.813q0-0.453 0.219-0.75t0.563-0.477 0.742-0.258 0.773-0.078q0.422 0 0.773 0.047t0.688 0.141 0.672 0.227 0.711 0.289q0.391 0.156 0.734 0.156 0.672 0 1.055-0.438t0.383-1.094q0-0.516-0.258-0.883t-0.672-0.625-0.945-0.414-1.070-0.234-1.047-0.109-0.867-0.031q-1.063 0-2.156 0.258t-1.984 0.82-1.461 1.438-0.57 2.109q0 0.984 0.336 1.727t0.891 1.297 1.266 0.969 1.453 0.742 1.453 0.617 1.266 0.594 0.891 0.672 0.336 0.852-0.203 0.797-0.516 0.484-0.719 0.242-0.797 0.070q-0.734 0-1.281-0.18t-1-0.391-0.875-0.391-0.891-0.18q-0.688 0-1.133 0.398t-0.445 1.102q0 0.563 0.297 0.977t0.773 0.703 1.086 0.469 1.219 0.281 1.18 0.141 0.977 0.039q1.141 0 2.234-0.242t1.938-0.797 1.359-1.461 0.516-2.234z"></path>
</svg>
