<!-- Generated by IcoMoon.io -->
<svg version="1.1" xmlns="http://www.w3.org/2000/svg" width="32" height="32" viewBox="0 0 32 32">
<title>uniEF80</title>
<path d="M24.531 6.828q0.656 0 1.227 0.242t0.992 0.664 0.664 0.992 0.242 1.227q0 0.625-0.234 1.203t-0.672 1.016l-12.406 12.422q-0.438 0.438-1.016 0.68t-1.203 0.242-1.203-0.242-1.016-0.68l-5.656-5.656q-0.438-0.438-0.68-1.016t-0.242-1.203q0-0.656 0.25-1.227t0.672-0.992 0.992-0.664 1.227-0.242q0.625 0 1.203 0.234t1.016 0.672l3.438 3.438 10.188-10.203q0.438-0.438 1.016-0.672t1.203-0.234z"></path>
</svg>
