<!-- Generated by IcoMoon.io -->
<svg version="1.1" xmlns="http://www.w3.org/2000/svg" width="32" height="32" viewBox="0 0 32 32">
<title>uniEF7D</title>
<path d="M16 0q2.203 0 4.25 0.57t3.82 1.617 3.234 2.508 2.508 3.234 1.617 3.82 0.57 4.25-0.57 4.25-1.617 3.82-2.508 3.234-3.234 2.508-3.82 1.617-4.25 0.57-4.25-0.57-3.82-1.617-3.234-2.508-2.508-3.234-1.617-3.82-0.57-4.25 0.57-4.25 1.617-3.82 2.508-3.234 3.234-2.508 3.82-1.617 4.25-0.57zM14.172 21.047q0.344 0 0.656-0.133t0.547-0.367l6.703-6.703q0.234-0.234 0.359-0.547t0.125-0.641q0-0.344-0.133-0.656t-0.359-0.539-0.539-0.359-0.656-0.133q-0.328 0-0.648 0.125t-0.555 0.359l-5.5 5.5-1.844-1.844q-0.5-0.5-1.203-0.5-0.344 0-0.656 0.133t-0.547 0.367-0.367 0.539-0.133 0.648q0 0.328 0.133 0.648t0.367 0.555l3.047 3.047q0.234 0.234 0.555 0.367t0.648 0.133z"></path>
</svg>
