<!-- Generated by IcoMoon.io -->
<svg version="1.1" xmlns="http://www.w3.org/2000/svg" width="32" height="32" viewBox="0 0 32 32">
<title>uniF748</title>
<path d="M30.938 15.063q0 0.641-0.242 1.203t-0.664 0.984-0.984 0.664-1.203 0.242h-16.297l4.391 4.375q0.438 0.422 0.672 1t0.234 1.188q0 0.641-0.242 1.203t-0.664 0.984-0.984 0.664-1.203 0.242q-0.609 0-1.18-0.234t-1.008-0.672l-9.609-9.625q-0.516-0.516-0.734-1.063t-0.219-1.281q0-0.609 0.273-1.148t0.68-0.945l9.609-9.625q0.438-0.438 1.016-0.672t1.188-0.234q0.641 0 1.203 0.25t0.977 0.672 0.656 0.992 0.242 1.195q0 0.609-0.234 1.172t-0.672 1l-4.391 4.375h16.297q0.641 0 1.203 0.242t0.984 0.664 0.664 0.984 0.242 1.203z"></path>
</svg>
