<!-- Generated by IcoMoon.io -->
<svg version="1.1" xmlns="http://www.w3.org/2000/svg" width="32" height="32" viewBox="0 0 32 32">
<title>uniEF7F</title>
<path d="M16 0q2.203 0 4.25 0.57t3.82 1.617 3.234 2.508 2.508 3.234 1.617 3.82 0.57 4.25-0.57 4.25-1.617 3.82-2.508 3.234-3.234 2.508-3.82 1.617-4.25 0.57-4.25-0.57-3.82-1.617-3.234-2.508-2.508-3.234-1.617-3.82-0.57-4.25 0.57-4.25 1.617-3.82 2.508-3.234 3.234-2.508 3.82-1.617 4.25-0.57zM21.047 17.688q0.344 0 0.656-0.133t0.539-0.359 0.359-0.531 0.133-0.664q0-0.344-0.133-0.656t-0.359-0.539-0.539-0.359-0.656-0.133h-10.094q-0.359 0-0.664 0.133t-0.531 0.359-0.359 0.539-0.133 0.656q0 0.359 0.133 0.664t0.359 0.531 0.531 0.359 0.664 0.133h10.094z"></path>
</svg>
