<!-- Generated by IcoMoon.io -->
<svg version="1.1" xmlns="http://www.w3.org/2000/svg" width="32" height="32" viewBox="0 0 32 32">
<title>uniF528</title>
<path d="M29.984 19.516q0.953 0.859 1.484 2.023t0.531 2.461q0 1.25-0.469 2.336t-1.289 1.906-1.914 1.289-2.328 0.469q-1.375 0-2.609-0.594-1.641 0.594-3.391 0.594-0.703 0-1.398-0.102t-1.383-0.289q-0.797 0.203-1.602 0.297t-1.617 0.094q-1.938 0-3.727-0.5t-3.344-1.414-2.828-2.188-2.188-2.828-1.414-3.344-0.5-3.727 0.5-3.727 1.414-3.344 2.188-2.828 2.828-2.188 3.344-1.414 3.727-0.5q1.719 0 3.328 0.398t3.055 1.148 2.68 1.797 2.195 2.359 1.617 2.836 0.938 3.211q0.984 1.234 1.539 2.711t0.633 3.055zM2 16q0 1.656 0.43 3.188t1.211 2.867 1.875 2.43 2.43 1.875 2.867 1.211 3.188 0.43q-0.953-0.719-1.695-1.609t-1.258-1.914-0.781-2.156-0.266-2.32q0-2.078 0.781-3.898t2.141-3.18 3.18-2.141 3.898-0.781q1.344 0 2.625 0.344t2.438 1.031q-0.703-1.656-1.844-3.023t-2.586-2.328-3.133-1.492-3.5-0.531q-1.656 0-3.188 0.43t-2.867 1.211-2.43 1.875-1.875 2.43-1.211 2.867-0.43 3.188zM12 20q0 1.656 0.633 3.109t1.719 2.539 2.539 1.719 3.109 0.633q0.359 0 0.711-0.031t0.711-0.094q-0.703-0.813-1.063-1.813t-0.359-2.063q0-1.234 0.469-2.328t1.289-1.914 1.906-1.289 2.336-0.469q0.938 0 1.813 0.281-0.297-1.375-1.031-2.531t-1.773-1.984-2.32-1.297-2.688-0.469q-1.656 0-3.109 0.633t-2.539 1.719-1.719 2.539-0.633 3.109zM26 28q0.828 0 1.555-0.313t1.273-0.859 0.859-1.273 0.313-1.555-0.313-1.555-0.859-1.273-1.273-0.859-1.555-0.313-1.555 0.313-1.273 0.859-0.859 1.273-0.313 1.555 0.313 1.555 0.859 1.273 1.273 0.859 1.555 0.313z"></path>
</svg>
