<!-- Generated by IcoMoon.io -->
<svg version="1.1" xmlns="http://www.w3.org/2000/svg" width="32" height="32" viewBox="0 0 32 32">
<title>uniF527</title>
<path d="M32 16h-18.094q-0.188 0.875-0.641 1.609t-1.102 1.266-1.461 0.828-1.703 0.297-1.703-0.297-1.461-0.828-1.102-1.266-0.641-1.609h-4.094v-2h4.094q0.188-0.875 0.641-1.609t1.102-1.266 1.461-0.828 1.703-0.297 1.703 0.297 1.461 0.828 1.102 1.266 0.641 1.609h18.094v2zM9 18q0.625 0 1.172-0.234t0.953-0.641 0.641-0.953 0.234-1.172-0.234-1.172-0.641-0.953-0.953-0.641-1.172-0.234-1.172 0.234-0.953 0.641-0.641 0.953-0.234 1.172 0.234 1.172 0.641 0.953 0.953 0.641 1.172 0.234z"></path>
</svg>
