<!-- Generated by IcoMoon.io -->
<svg version="1.1" xmlns="http://www.w3.org/2000/svg" width="32" height="32" viewBox="0 0 32 32">
<title>uniF80B</title>
<path d="M12 18v2h-2v-2h2zM18 24v-2h2v2h-2zM14 20v-2h2v2h-2zM18 20v-2h2v2h-2zM12 22v2h-2v-2h2zM14 24v-2h2v2h-2zM12 26v2h-2v-2h2zM18 28v-2h2v2h-2zM14 28v-2h2v2h-2zM15 14q-1.031 0-1.945-0.391t-1.594-1.070-1.070-1.594-0.391-1.945 0.391-1.938 1.070-1.586 1.594-1.078 1.945-0.398 1.938 0.398 1.586 1.078 1.078 1.586 0.398 1.938-0.398 1.945-1.078 1.594-1.586 1.070-1.938 0.391zM15 6q-0.625 0-1.172 0.234t-0.953 0.641-0.641 0.953-0.234 1.172 0.234 1.172 0.641 0.953 0.953 0.641 1.172 0.234 1.172-0.234 0.953-0.641 0.641-0.953 0.234-1.172-0.234-1.172-0.641-0.953-0.953-0.641-1.172-0.234zM6 0h18v32h-18v-32zM22 30v-28h-14v28h14z"></path>
</svg>
