<!-- Generated by IcoMoon.io -->
<svg version="1.1" xmlns="http://www.w3.org/2000/svg" width="32" height="32" viewBox="0 0 32 32">
<title>uniF7E4</title>
<path d="M6 0v2h-2v-2h2zM2 4v2h-2v-2h2zM2 0v2h-2v-2h2zM2 8v2h-2v-2h2zM14 12v-2h2v2h-2zM14 0v2h-2v-2h2zM16 6v2h-2v-2h2zM22 0v2h-2v-2h2zM26 0v2h-2v-2h2zM0 30v-2h2v2h-2zM16 4h-2v-2h2v2zM18 0v2h-2v-2h2zM10 0v2h-2v-2h2zM28 10v-2h2v2h-2zM8 30v-2h2v2h-2zM12 14v2h-2v-2h2zM28 14v-2h2v18h-18v-2h2v-14h14zM28 28v-12h-12v12h12zM28 0h2v2h-2v-2zM28 6v-2h2v2h-2zM0 26v-2h2v2h-2zM8 14v2h-2v-2h2zM0 18v-2h2v2h-2zM0 22v-2h2v2h-2zM0 12h2v2h-2v-2zM4 14v2h-2v-2h2zM4 30v-2h2v2h-2z"></path>
</svg>
