<!-- Generated by IcoMoon.io -->
<svg version="1.1" xmlns="http://www.w3.org/2000/svg" width="32" height="32" viewBox="0 0 32 32">
<title>uniF4BD</title>
<path d="M10 20h4v2h-6v-8h2v6zM10 10q1.375 0 2.656 0.359t2.391 1.008 2.023 1.563 1.563 2.023 1.008 2.391 0.359 2.656-0.359 2.656-1.008 2.391-1.563 2.023-2.023 1.563-2.391 1.008-2.656 0.359-2.656-0.359-2.391-1.008-2.023-1.563-1.563-2.023-1.008-2.391-0.359-2.656 0.359-2.656 1.008-2.391 1.563-2.023 2.023-1.563 2.391-1.008 2.656-0.359zM10 28q1.656 0 3.109-0.633t2.539-1.719 1.719-2.539 0.633-3.109-0.633-3.109-1.719-2.539-2.539-1.719-3.109-0.633-3.109 0.633-2.539 1.719-1.719 2.539-0.633 3.109 0.633 3.109 1.719 2.539 2.539 1.719 3.109 0.633zM21.266 10.172h3.734v1.828h-7v-1.031l3.906-5.141h-3.516v-1.828h6.578v1.219zM32 6.641v1.359h-5v-0.766l2.797-3.875h-2.516v-1.359h4.703v0.922l-2.656 3.719h2.672z"></path>
</svg>
