<!-- Generated by IcoMoon.io -->
<svg version="1.1" xmlns="http://www.w3.org/2000/svg" width="32" height="32" viewBox="0 0 32 32">
<title>uniE9FD</title>
<path d="M27.516 16.188q0.984 0.266 1.805 0.82t1.422 1.32 0.93 1.703 0.328 1.969q0 1.094-0.375 2.086t-1.047 1.781-1.586 1.328-1.992 0.727v-2.047q0.656-0.172 1.211-0.539t0.953-0.883 0.617-1.141 0.219-1.313q0-0.859-0.32-1.586t-0.883-1.266-1.305-0.844-1.586-0.305q-0.188-1.281-0.797-2.383t-1.531-1.906-2.094-1.258-2.484-0.453q-1.203 0-2.289 0.391t-1.977 1.078-1.539 1.656-0.945 2.109q-0.688-0.594-1.516-0.914t-1.734-0.32q-1.031 0-1.945 0.391t-1.594 1.070-1.070 1.594-0.391 1.945q0 0.75 0.211 1.445t0.609 1.289 0.945 1.070 1.234 0.773v2.125q-1.109-0.328-2.031-0.984t-1.578-1.539-1.023-1.953-0.367-2.227q0-1.047 0.297-2.023t0.844-1.813 1.32-1.492 1.727-1.078q-0.188-0.766-0.188-1.594 0-1.453 0.547-2.727t1.5-2.227 2.227-1.5 2.727-0.547q1 0 1.953 0.281t1.773 0.805 1.484 1.266 1.086 1.648q1.406 0.047 2.695 0.523t2.375 1.289 1.898 1.93 1.25 2.445zM11.297 14.391q0.953-1.609 2.469-2.703t3.344-1.484q-0.688-1.031-1.781-1.617t-2.328-0.586q-1.031 0-1.945 0.398t-1.594 1.078-1.070 1.586-0.391 1.938q0 0.266 0.023 0.523t0.102 0.523q0.438-0.047 0.875-0.047 1.156 0 2.297 0.391zM4 14h-4v-2h4v2zM5.922 7.344l-2.828-2.828 1.422-1.422 2.828 2.828zM14 4h-2v-4h2v4zM20.078 7.344l-1.422-1.422 2.828-2.828 1.422 1.422zM16.094 28.641q0.5 0.297 0.5 0.859 0 0.422-0.297 0.711t-0.703 0.289q-0.188 0-0.406-0.086t-0.43-0.211-0.406-0.25-0.352-0.219q0 0.297 0.016 0.688t-0.055 0.742-0.281 0.594-0.68 0.242-0.688-0.242-0.289-0.594-0.047-0.742 0.023-0.688q-0.156 0.094-0.352 0.219t-0.406 0.25-0.43 0.211-0.406 0.086q-0.406 0-0.703-0.289t-0.297-0.711q0-0.563 0.5-0.859l1.094-0.641-1.094-0.641q-0.5-0.297-0.5-0.859 0-0.406 0.289-0.703t0.695-0.297q0.203 0 0.422 0.086t0.43 0.211 0.406 0.25 0.352 0.219q0-0.297-0.023-0.688t0.047-0.742 0.289-0.594 0.688-0.242 0.68 0.242 0.281 0.594 0.055 0.742-0.016 0.688q0.156-0.094 0.352-0.219t0.406-0.25 0.43-0.211 0.422-0.086q0.406 0 0.695 0.297t0.289 0.703q0 0.563-0.5 0.859l-1.094 0.641zM23.609 23.5q0.406 0 0.695 0.297t0.289 0.703q0 0.563-0.5 0.859l-1.094 0.641 1.094 0.641q0.5 0.297 0.5 0.859 0 0.422-0.297 0.711t-0.703 0.289q-0.188 0-0.406-0.086t-0.43-0.211-0.406-0.25-0.352-0.219q0 0.297 0.016 0.688t-0.055 0.742-0.281 0.594-0.68 0.242-0.688-0.242-0.289-0.594-0.047-0.742 0.023-0.688q-0.156 0.094-0.352 0.219t-0.406 0.25-0.43 0.211-0.406 0.086q-0.406 0-0.703-0.289t-0.297-0.711q0-0.563 0.5-0.859l1.094-0.641-1.094-0.641q-0.5-0.297-0.5-0.859 0-0.406 0.289-0.703t0.695-0.297q0.203 0 0.422 0.086t0.43 0.211 0.406 0.25 0.352 0.219q0-0.297-0.023-0.688t0.047-0.742 0.289-0.594 0.688-0.242 0.68 0.242 0.281 0.594 0.055 0.742-0.016 0.688q0.156-0.094 0.352-0.219t0.406-0.25 0.43-0.211 0.422-0.086z"></path>
</svg>
