<!-- Generated by IcoMoon.io -->
<svg version="1.1" xmlns="http://www.w3.org/2000/svg" width="32" height="32" viewBox="0 0 32 32">
<title>uniEB46</title>
<path d="M29.234 19.938l0.516 1.938-3.125 0.828 0.828 3.141-1.938 0.516-0.984-3.703-8.531-4.922v9.859l2.703 2.703-1.406 1.406-2.297-2.281-2.297 2.281-1.406-1.406 2.703-2.703v-9.859l-8.531 4.922-0.984 3.703-1.938-0.516 0.828-3.141-3.125-0.828 0.516-1.938 3.703 0.984 8.531-4.922-8.531-4.922-3.703 0.984-0.516-1.938 3.125-0.828-0.828-3.141 1.938-0.516 0.984 3.703 8.531 4.922v-9.859l-2.703-2.703 1.406-1.406 2.297 2.281 2.297-2.281 1.406 1.406-2.703 2.703v9.859l8.531-4.922 0.984-3.703 1.938 0.516-0.828 3.141 3.125 0.828-0.516 1.938-3.703-0.984-8.531 4.922 8.531 4.922 3.703-0.984z"></path>
</svg>
