<!-- Generated by IcoMoon.io -->
<svg version="1.1" xmlns="http://www.w3.org/2000/svg" width="32" height="32" viewBox="0 0 32 32">
<title>uniEA11</title>
<path d="M27.516 16.188q0.984 0.266 1.805 0.82t1.422 1.32 0.93 1.703 0.328 1.969q0 1.094-0.375 2.086t-1.047 1.781-1.586 1.328-1.992 0.727v-2.047q0.656-0.172 1.211-0.539t0.953-0.883 0.617-1.141 0.219-1.313q0-0.859-0.32-1.594t-0.883-1.266-1.313-0.836-1.594-0.305q-0.188-1.281-0.797-2.383t-1.531-1.906-2.094-1.258-2.469-0.453q-1.203 0-2.289 0.391t-1.977 1.078-1.539 1.656-0.945 2.109q-0.688-0.594-1.516-0.914t-1.734-0.32q-1.031 0-1.945 0.391t-1.594 1.070-1.070 1.594-0.391 1.945q0 0.75 0.211 1.445t0.609 1.289 0.945 1.070 1.234 0.773v2.125q-1.109-0.328-2.031-0.984t-1.578-1.539-1.023-1.953-0.367-2.227q0-1.203 0.398-2.32t1.148-2.055q-1.266-0.859-2.133-2.102t-1.195-2.742q0.906 0.219 1.781 0.219 1.656 0 3.117-0.625t2.547-1.711 1.711-2.547 0.625-3.117q0-0.875-0.219-1.781 1.359 0.313 2.5 1.047t1.969 1.766 1.289 2.305 0.461 2.664q0 0.125-0.008 0.266t-0.023 0.266q0.734-0.266 1.492-0.398t1.539-0.133q1.453 0 2.789 0.453t2.461 1.273 1.969 1.953 1.297 2.508zM11.297 14.391q0.938-1.578 2.438-2.672 0.266-0.875 0.266-1.719 0-1.328-0.547-2.516t-1.563-2.047q-0.234 1.641-0.969 3.078t-1.852 2.555-2.555 1.852-3.078 0.969q0.656 0.797 1.625 1.328 0.875-0.594 1.875-0.906t2.063-0.313q1.156 0 2.297 0.391zM16.094 28.641q0.5 0.297 0.5 0.859 0 0.422-0.297 0.711t-0.703 0.289q-0.188 0-0.406-0.086t-0.43-0.211-0.406-0.25-0.352-0.219q0 0.297 0.016 0.688t-0.055 0.742-0.281 0.594-0.68 0.242-0.688-0.242-0.289-0.594-0.047-0.742 0.023-0.688q-0.156 0.094-0.352 0.219t-0.406 0.25-0.43 0.211-0.406 0.086q-0.406 0-0.711-0.297t-0.305-0.703q0-0.281 0.141-0.5t0.375-0.359l1.094-0.641-1.094-0.641q-0.234-0.141-0.375-0.359t-0.141-0.5q0-0.406 0.297-0.703t0.703-0.297q0.203 0 0.422 0.086t0.43 0.211 0.406 0.25 0.352 0.219q0-0.297-0.023-0.688t0.047-0.742 0.289-0.594 0.688-0.242 0.68 0.242 0.281 0.594 0.055 0.742-0.016 0.688q0.156-0.094 0.352-0.219t0.406-0.25 0.43-0.211 0.422-0.086q0.406 0 0.695 0.297t0.289 0.703q0 0.563-0.5 0.859l-1.094 0.641zM23.609 23.5q0.406 0 0.695 0.297t0.289 0.703q0 0.563-0.5 0.859l-1.094 0.641 1.094 0.641q0.5 0.297 0.5 0.859 0 0.422-0.297 0.711t-0.703 0.289q-0.188 0-0.406-0.086t-0.43-0.211-0.406-0.25-0.352-0.219q0 0.297 0.016 0.688t-0.055 0.742-0.281 0.594-0.68 0.242-0.688-0.242-0.289-0.594-0.047-0.742 0.023-0.688q-0.156 0.094-0.352 0.219t-0.406 0.25-0.43 0.211-0.406 0.086q-0.406 0-0.711-0.297t-0.305-0.703q0-0.281 0.141-0.5t0.375-0.359l1.094-0.641-1.094-0.641q-0.234-0.141-0.375-0.359t-0.141-0.5q0-0.406 0.297-0.703t0.703-0.297q0.203 0 0.422 0.086t0.43 0.211 0.406 0.25 0.352 0.219q0-0.297-0.023-0.688t0.047-0.742 0.289-0.594 0.688-0.242 0.68 0.242 0.281 0.594 0.055 0.742-0.016 0.688q0.156-0.094 0.352-0.219t0.406-0.25 0.43-0.211 0.422-0.086z"></path>
</svg>
