<!-- Generated by IcoMoon.io -->
<svg version="1.1" xmlns="http://www.w3.org/2000/svg" width="32" height="32" viewBox="0 0 32 32">
<title>uniEB21</title>
<path d="M19.703 21h-7.406l-2.297-7.047 6-4.359 6 4.359zM19.641 14.703l-3.641-2.641-3.641 2.641 1.391 4.297h4.5zM16 0q2.203 0 4.25 0.57t3.828 1.609 3.242 2.5 2.5 3.242 1.609 3.828 0.57 4.25-0.57 4.25-1.609 3.828-2.5 3.242-3.242 2.5-3.828 1.609-4.25 0.57-4.25-0.57-3.828-1.609-3.242-2.5-2.5-3.242-1.609-3.82-0.57-4.258q0-2.203 0.57-4.25t1.609-3.828 2.5-3.242 3.242-2.5 3.82-1.609 4.258-0.57zM29.859 13.984q-0.344-2.359-1.469-4.5l-2.109-0.313-0.547 3.672 2.609 2.641zM18.359 2.203q-0.594-0.109-1.18-0.156t-1.18-0.047-1.18 0.047-1.18 0.156l-0.953 1.906 3.313 1.656 3.313-1.656zM3.609 9.484q-1.125 2.141-1.469 4.5l1.516 1.5 2.609-2.641-0.547-3.672zM5.984 25.766q1.672 1.719 3.828 2.781l1.875-0.969-1.703-3.297-3.656-0.609zM12.313 29.5q1.828 0.5 3.688 0.5t3.688-0.5l-2.078-1.078 3.094-5.953 6.609-1.094 0.391 2.297q1.031-1.578 1.609-3.352t0.672-3.664l-1.672 1.656-4.703-4.781 1-6.641 2.313 0.344q-1.172-1.469-2.695-2.57t-3.273-1.758l1.047 2.094-6 3-6-3 1.047-2.094q-1.75 0.656-3.273 1.758t-2.695 2.57l2.313-0.344 1 6.641-4.703 4.781-1.672-1.656q0.094 1.891 0.672 3.664t1.609 3.352l0.391-2.297 6.609 1.094 3.094 5.953zM22.188 28.547q2.156-1.063 3.828-2.781l-0.344-2.094-3.656 0.609-1.703 3.297z"></path>
</svg>
