<!-- Generated by IcoMoon.io -->
<svg version="1.1" xmlns="http://www.w3.org/2000/svg" width="32" height="32" viewBox="0 0 32 32">
<title>uniED7C</title>
<path d="M27.672 2q0.453 0 0.852 0.172t0.695 0.469 0.469 0.695 0.172 0.852v4.141h-3.891q-0.266-0.641-0.82-1.016t-1.242-0.375q-0.453 0-0.859 0.172t-0.711 0.477-0.477 0.711-0.172 0.859q0 0.297 0.086 0.57t0.227 0.523l-4.141 4.781q-0.516-0.328-1.156-0.328-0.594 0-1.094 0.297t-0.813 0.797l-5.375-2.766q0.078-0.281 0.078-0.547 0-0.453-0.172-0.859t-0.477-0.711-0.711-0.477-0.859-0.172q-0.703 0-1.266 0.398t-0.813 1.055l-3.063-0.016v-7.516q0-0.453 0.172-0.852t0.469-0.695 0.695-0.469 0.852-0.172h23.344zM23.906 11.375q0.422 0 0.797-0.148t0.664-0.406 0.484-0.609 0.242-0.773h3.766v10.375q0 0.453-0.172 0.852t-0.469 0.695-0.695 0.469-0.852 0.172h-10.359l-8.328 8 0.563-8h-5.219q-0.453 0-0.852-0.172t-0.695-0.469-0.469-0.695-0.172-0.852v-7l2.953 0.016q0.063 0.406 0.258 0.75t0.492 0.594 0.664 0.391 0.773 0.141q0.453 0 0.875-0.188t0.734-0.516l5.609 2.875q0 0.016-0.008 0.023t-0.008 0.023q-0.016 0.453 0.164 0.852t0.492 0.703 0.719 0.477 0.844 0.172q0.453 0 0.859-0.172t0.711-0.469 0.477-0.703 0.172-0.859q0-0.594-0.297-1.078l4.141-4.797q0.266 0.156 0.547 0.242t0.594 0.086z"></path>
</svg>
