<!-- Generated by IcoMoon.io -->
<svg version="1.1" xmlns="http://www.w3.org/2000/svg" width="32" height="32" viewBox="0 0 32 32">
<title>uniEB1B</title>
<path d="M17.984 10.016v1.984h-13.984v-1.984h13.984zM17.984 18.016v1.984h-13.984v-1.984h13.984zM21.984 6.016h10.016v21.984h-22.016v-4h-9.984v-21.984h21.984v4zM1.984 4v2.016h18.016v-2.016h-18.016zM1.984 22.016h18.016v-14.016h-18.016v14.016zM29.984 26.016v-14.016h-8v2.016h6.016v1.984h-6.016v2.016h6.016v1.984h-6.016v2.016h6.016v1.984h-16v2.016h17.984zM29.984 10.016v-2.016h-8v2.016h8zM17.984 14.016v1.984h-13.984v-1.984h13.984z"></path>
</svg>
