<!-- Generated by IcoMoon.io -->
<svg version="1.1" xmlns="http://www.w3.org/2000/svg" width="32" height="32" viewBox="0 0 32 32">
<title>uniF8BA</title>
<path d="M17.578 11.813q-0.453-1.156-1.344-2.047t-2.047-1.344l-2.406-2.406q0.063 0 0.109-0.008t0.109-0.008q1.656 0 3.109 0.633t2.539 1.719 1.719 2.539 0.633 3.109q0 0.063-0.008 0.109t-0.008 0.109zM27.031 21.266q1.453-1.75 2.211-3.867t0.758-4.398q0-1.297-0.25-2.555t-0.734-2.422-1.195-2.227-1.633-1.984l1.422-1.422q2.141 2.141 3.266 4.867t1.125 5.742q0 2.688-0.906 5.164t-2.656 4.523zM22.75 16.984q0.609-0.891 0.93-1.906t0.32-2.078q0-1.406-0.531-2.688t-1.516-2.266l1.406-1.406q1.266 1.266 1.945 2.891t0.68 3.422q0 1.469-0.469 2.867t-1.359 2.57zM1.906 2.094l1.422-1.422 28 28-1.422 1.422-11.438-11.453q-0.453 0.656-1.031 1.188t-1.25 0.938q1.75 0.656 3.195 1.789t2.469 2.609 1.586 3.219 0.563 3.617h-2q0-1.375-0.359-2.656t-1.008-2.391-1.563-2.023-2.023-1.563-2.391-1.008-2.656-0.359-2.656 0.359-2.391 1.008-2.023 1.563-1.563 2.023-1.008 2.391-0.359 2.656h-2q0-1.875 0.563-3.617t1.586-3.211 2.461-2.602 3.188-1.789q-0.875-0.547-1.578-1.289t-1.195-1.617-0.758-1.859-0.266-2.016q0-0.969 0.227-1.891t0.664-1.75 1.063-1.547 1.406-1.281zM8.781 8.953q-1.313 0.828-2.047 2.164t-0.734 2.883q0 1.25 0.469 2.336t1.289 1.906 1.906 1.289 2.336 0.469q1.547 0 2.883-0.734t2.164-2.047z"></path>
</svg>
