<!-- Generated by IcoMoon.io -->
<svg version="1.1" xmlns="http://www.w3.org/2000/svg" width="32" height="32" viewBox="0 0 32 32">
<title>uniF87B</title>
<path d="M8.547 12.313q-0.453 0.797-1.117 1.242t-1.602 0.445q-0.625 0-1.148-0.18t-0.898-0.523-0.578-0.852-0.203-1.148q0-0.703 0.211-1.227t0.594-0.891 0.922-0.594 1.195-0.32l2.656-0.391q0-0.469-0.086-0.898t-0.289-0.75-0.563-0.516-0.891-0.195q-0.828 0-1.555 0.297t-1.336 0.844v-1.531q0.25-0.188 0.633-0.344t0.813-0.273 0.844-0.188 0.727-0.070q0.844 0 1.438 0.242t0.969 0.695 0.547 1.094 0.172 1.438v6.047h-1.422v-1.453h-0.031zM6.156 12.734q0.578 0 1.023-0.227t0.758-0.609 0.477-0.875 0.164-1.023v-0.938l-2.141 0.328q-0.438 0.078-0.805 0.172t-0.625 0.289-0.406 0.508-0.148 0.828q0 0.75 0.5 1.148t1.203 0.398zM13.422 12.438v1.328h-1.422v-13.766h1.422v6.109h0.031q0.516-0.922 1.367-1.391t1.883-0.469q0.984 0 1.672 0.398t1.125 1.047 0.641 1.469 0.203 1.68q0 0.953-0.227 1.875t-0.711 1.648-1.258 1.18-1.852 0.453q-0.891 0-1.641-0.391t-1.203-1.172h-0.031zM13.422 8.672v1.297q0 0.609 0.195 1.117t0.555 0.875 0.859 0.57 1.109 0.203q0.797 0 1.328-0.367t0.844-0.93 0.445-1.258 0.133-1.352q0-0.609-0.133-1.203t-0.438-1.063-0.789-0.758-1.188-0.289-1.25 0.242-0.922 0.664-0.563 1-0.188 1.25zM26.547 5.516q-0.781 0-1.367 0.313t-0.969 0.828-0.57 1.188-0.188 1.375 0.18 1.344 0.547 1.125 0.938 0.766 1.352 0.281q0.594 0 1.148-0.227t1.023-0.586v1.422q-0.547 0.359-1.156 0.508t-1.266 0.148q-1.016 0-1.797-0.367t-1.32-1-0.82-1.484-0.281-1.805q0-1.078 0.297-2.008t0.875-1.617 1.445-1.078 1.992-0.391q0.531 0 1.055 0.109t0.992 0.359v1.516q-0.469-0.344-1-0.531t-1.109-0.188zM13.984 28.578l11.313-11.281 1.406 1.406-12.719 12.719-6.688-6.719 1.406-1.406z"></path>
</svg>
