<!-- Generated by IcoMoon.io -->
<svg version="1.1" xmlns="http://www.w3.org/2000/svg" width="32" height="32" viewBox="0 0 32 32">
<title>uniF547</title>
<path d="M25 22q1.031 0 1.938 0.398t1.586 1.078 1.078 1.586 0.398 1.938-0.398 1.945-1.078 1.594-1.586 1.070-1.938 0.391-1.945-0.391-1.594-1.070-1.070-1.594-0.391-1.945q0-1.156 0.508-2.188t1.414-1.75l-4.719-9.422q-1.078 0.359-2.203 0.359t-2.203-0.359l-4.719 9.422q0.906 0.719 1.414 1.75t0.508 2.188q0 1.031-0.398 1.945t-1.078 1.594-1.586 1.070-1.938 0.391-1.945-0.391-1.594-1.070-1.070-1.594-0.391-1.945 0.391-1.938 1.070-1.586 1.594-1.078 1.945-0.398q0.641 0 1.297 0.172l4.719-9.422q-0.703-0.484-1.266-1.117t-0.953-1.383-0.594-1.57-0.203-1.68q0-1.453 0.547-2.727t1.5-2.227 2.227-1.5 2.727-0.547 2.727 0.547 2.227 1.5 1.5 2.227 0.547 2.727q0 0.859-0.203 1.68t-0.594 1.57-0.953 1.383-1.266 1.117l4.719 9.422q0.656-0.172 1.297-0.172zM5 30q0.625 0 1.172-0.234t0.953-0.641 0.641-0.953 0.234-1.172-0.234-1.172-0.641-0.953-0.953-0.641-1.172-0.234-1.172 0.234-0.953 0.641-0.641 0.953-0.234 1.172 0.234 1.172 0.641 0.953 0.953 0.641 1.172 0.234zM10 7q0 1.031 0.391 1.945t1.070 1.594 1.594 1.070 1.945 0.391 1.938-0.391 1.586-1.070 1.078-1.594 0.398-1.945-0.398-1.938-1.078-1.586-1.586-1.078-1.938-0.398-1.945 0.398-1.594 1.078-1.070 1.586-0.391 1.938zM25 30q0.625 0 1.172-0.234t0.953-0.641 0.641-0.953 0.234-1.172-0.234-1.172-0.641-0.953-0.953-0.641-1.172-0.234-1.172 0.234-0.953 0.641-0.641 0.953-0.234 1.172 0.234 1.172 0.641 0.953 0.953 0.641 1.172 0.234z"></path>
</svg>
