<!-- Generated by IcoMoon.io -->
<svg version="1.1" xmlns="http://www.w3.org/2000/svg" width="32" height="32" viewBox="0 0 32 32">
<title>uniF3B0</title>
<path d="M31.906 27l-4.703 4.703-1.406-1.406 2.297-2.297h-5.984q1.297-0.875 2.375-2h3.609l-2.297-2.297 1.406-1.406zM26 16q0 1.656-0.43 3.188t-1.211 2.867-1.875 2.43-2.43 1.875-2.867 1.211-3.188 0.43h-14v-2h14q1.375 0 2.656-0.359t2.391-1.008 2.023-1.563 1.563-2.023 1.008-2.391 0.359-2.656-0.359-2.656-1.008-2.391-1.563-2.023-2.023-1.563-2.391-1.008-2.656-0.359q-0.109 0-0.219 0.008t-0.234 0.023h-0.094l2.25 2.266-1.406 1.406-4.703-4.703 4.703-4.703 1.406 1.406-2.313 2.313q0.156-0.016 0.305-0.016h0.305q1.656 0 3.188 0.43t2.867 1.211 2.43 1.875 1.875 2.43 1.211 2.867 0.43 3.188zM5.078 24q-1.484-1.656-2.281-3.711t-0.797-4.289q0-1.469 0.352-2.883t1.023-2.688 1.633-2.359 2.18-1.93l1.453 1.453q-1.078 0.688-1.938 1.609t-1.461 2.008-0.922 2.297-0.32 2.492q0 1.188 0.281 2.32t0.805 2.156 1.273 1.922 1.703 1.602h-2.984z"></path>
</svg>
