<!-- Generated by IcoMoon.io -->
<svg version="1.1" xmlns="http://www.w3.org/2000/svg" width="32" height="32" viewBox="0 0 32 32">
<title>uniE434</title>
<path d="M22 12.094q0.25-0.016 0.492-0.016h0.492q0.578 0 1.469 0.055t1.891 0.219 2.016 0.438 1.82 0.711 1.313 1.055 0.508 1.445v12q0 0.844-0.508 1.461t-1.313 1.063-1.813 0.734-2.008 0.453-1.891 0.227-1.469 0.063-1.469-0.063-1.891-0.227-2.008-0.453-1.813-0.734-1.313-1.070-0.508-1.453v-12q0-0.641 0.313-1.141t0.82-0.898 1.156-0.688 1.313-0.492 1.289-0.328 1.109-0.188v-4.266h-16v12h-2v-12h-2v-2l12-6 12 6v2h-2v4.094zM4.469 6h15.063l-7.531-3.766zM30 28v-9.422q-1.719 0.797-3.422 1.109t-3.578 0.313-3.578-0.313-3.422-1.109v9.422q0 0.172 0.164 0.328t0.289 0.234q0.594 0.422 1.43 0.703t1.734 0.445 1.789 0.227 1.594 0.063 1.586-0.063 1.789-0.227 1.742-0.445 1.43-0.703q0.125-0.078 0.289-0.234t0.164-0.328zM23 18q0.703 0 1.586-0.063t1.789-0.227 1.742-0.445 1.43-0.703q0.109-0.078 0.281-0.234t0.172-0.328-0.172-0.328-0.281-0.234q-0.594-0.422-1.43-0.695t-1.742-0.438-1.789-0.234-1.586-0.070-1.594 0.070-1.789 0.234-1.734 0.438-1.43 0.695q-0.109 0.078-0.281 0.234t-0.172 0.328 0.172 0.328 0.281 0.234q0.594 0.422 1.43 0.703t1.734 0.445 1.789 0.227 1.594 0.063zM6 20v-2h2v2h-2zM10 20v-2h2v2h-2zM6 16v-2h2v2h-2zM6 12v-2h2v2h-2zM10 16v-2h2v2h-2z"></path>
</svg>
