<!-- Generated by IcoMoon.io -->
<svg version="1.1" xmlns="http://www.w3.org/2000/svg" width="32" height="32" viewBox="0 0 32 32">
<title>uniE61A</title>
<path d="M30.109 2q0.344 0 0.688 0.148t0.609 0.391 0.43 0.57 0.164 0.688v19.469q0 0.359-0.164 0.68t-0.438 0.57-0.609 0.391-0.68 0.141h-9.141q-0.141 0.516-0.273 1.055t-0.133 1.086q0 0.656 0.32 1.031t0.797 0.563 1.047 0.25 1.070 0.094q0.703 0.047 1.391 0.055t1.391 0.008v1.906h-21.156v-1.906q0.719 0 1.422-0.016t1.422-0.047q0.578-0.047 1.258-0.117t1.25-0.297 0.953-0.664 0.383-1.219q0-0.453-0.086-0.898t-0.211-0.883h-10.109q-0.359 0-0.672-0.148t-0.539-0.398-0.359-0.57-0.133-0.664v-19.469q0-0.344 0.133-0.672t0.359-0.578 0.539-0.398 0.672-0.148h28.406zM29.547 22.609v-18.188h-27.172v18.188h27.172zM24.891 15.547v1.406h-4.188v-7.844h1.578v6.438h2.609zM16.063 17.094q-0.844 0-1.484-0.313t-1.063-0.852-0.641-1.242-0.219-1.484q0-0.813 0.219-1.555t0.656-1.305 1.094-0.898 1.547-0.336q0.844 0 1.477 0.32t1.055 0.867 0.625 1.258 0.203 1.492q0 0.406-0.063 0.828t-0.188 0.828-0.336 0.773-0.508 0.648l1.781 1.875h-2.219l-0.922-1.047q-0.5 0.141-1.016 0.141zM14.313 13.109q0 0.422 0.086 0.859t0.297 0.805 0.555 0.594 0.844 0.227q0.516 0 0.859-0.227t0.539-0.578 0.281-0.789 0.086-0.859-0.078-0.867-0.273-0.82-0.531-0.609-0.852-0.234-0.859 0.227-0.555 0.594-0.305 0.813-0.094 0.867zM7.109 11.406q0-0.609 0.227-1.047t0.609-0.711 0.883-0.406 1.047-0.133q0.453 0 0.898 0.063t0.852 0.234v1.609q-0.359-0.266-0.789-0.398t-0.883-0.133q-0.188 0-0.391 0.031t-0.383 0.125-0.289 0.242-0.109 0.383q0 0.328 0.234 0.531t0.586 0.391 0.758 0.375 0.758 0.477 0.586 0.711 0.234 1.047q0 0.641-0.227 1.078t-0.609 0.711-0.891 0.391-1.070 0.117q-0.484 0-1.031-0.094t-0.969-0.328v-1.734q0.391 0.359 0.891 0.578t1.047 0.219q0.188 0 0.391-0.039t0.383-0.125 0.297-0.234 0.117-0.383q0-0.344-0.234-0.563t-0.586-0.406-0.758-0.375-0.758-0.469-0.586-0.688-0.234-1.047z"></path>
</svg>
