<!-- Generated by IcoMoon.io -->
<svg version="1.1" xmlns="http://www.w3.org/2000/svg" width="32" height="32" viewBox="0 0 32 32">
<title>uniF490</title>
<path d="M1 27.984v-23.875l18-3.234v30.25zM5.016 10.313v11.031l1.797 0.094v-8.094l4.797 8.344 2.406 0.141v-11.969l-2.266 0.125v4.016t0.016 4.016l-4.469-7.781zM30.594 13q0.203 0 0.305 0.195t0.102 0.367v3.875q0 0.172-0.102 0.367t-0.305 0.195h-0.594v-5h0.594zM30.594 19q0.203 0 0.305 0.195t0.102 0.367v3.875q0 0.172-0.102 0.367t-0.305 0.195h-0.594v-5h0.594zM31 11.672q0 0.203-0.047 0.266t-0.266 0.063h-1.688v14.203q0 0.109-0.039 0.25t-0.109 0.258-0.172 0.203-0.227 0.086h-8.453v-3h6v-1h-6v-2h6v-1h-6v-7.203l3 1.203 3-1.203v2.703q0 0.219 0.141 0.359t0.359 0.141 0.359-0.141 0.141-0.359v-3.094l1-0.406-5-2-3 1.203v-6.203h8.453q0.313 0 0.43 0.266t0.117 0.531v1.203h1.688q0.219 0 0.266 0.055t0.047 0.273v4.344zM25 16v-1.453l-2 0.797-2-0.797v1.453q0 0.297 0.234 0.484t0.563 0.305 0.664 0.164 0.539 0.047 0.539-0.047 0.664-0.164 0.563-0.305 0.234-0.484z"></path>
</svg>
