<!-- Generated by IcoMoon.io -->
<svg version="1.1" xmlns="http://www.w3.org/2000/svg" width="32" height="32" viewBox="0 0 32 32">
<title>uniF48C</title>
<path d="M31 6v6q0 0.25-0.125 0.5 0.125 0.25 0.125 0.5v6q0 0.25-0.125 0.5 0.125 0.25 0.125 0.5v6q0 0.344-0.133 0.539t-0.344 0.297-0.469 0.133-0.523 0.031h-0.531q0 0.406-0.297 0.703t-0.703 0.297h-9v3.125l-18-3.141v-23.875l18-3.234v3.125h9q0.406 0 0.703 0.297t0.297 0.703h0.531q0.266 0 0.523 0.031t0.469 0.133 0.344 0.297 0.133 0.539zM14.016 21.828v-11.969l-2.266 0.125v4.016t0.016 4.016l-4.469-7.781-2.281 0.078v11.031l1.797 0.094v-8.094l4.797 8.344zM30 26v-6h-1v6h1zM30 19v-6h-1v6h1zM30 12v-6h-2v-1h-9v6.203l3-1.203 5 2-1 0.406v3.094q0 0.219-0.141 0.359t-0.359 0.141-0.359-0.141-0.141-0.359v-2.703l-3 1.203-3-1.203v7.203h6v1h-6v2h6v1h-6v3h9v-15h2zM20 14.547l2 0.797 2-0.797v1.453q0 0.297-0.234 0.484t-0.563 0.305-0.664 0.164-0.539 0.047-0.539-0.047-0.664-0.164-0.563-0.305-0.234-0.484v-1.453z"></path>
</svg>
