<!-- Generated by IcoMoon.io -->
<svg version="1.1" xmlns="http://www.w3.org/2000/svg" width="32" height="32" viewBox="0 0 32 32">
<title>uniEF78</title>
<path d="M26 20l1.5 7.5-7.5-1.5-4 6-4-6-7.5 1.5 1.5-7.5-6-4 6-4-1.5-7.5 7.5 1.5 4-6 4 6 7.5-1.5-1.5 7.5 6 4zM19.078 23.781q1.484 0.266 2.945 0.563t2.93 0.609q-0.313-1.469-0.609-2.93t-0.563-2.945q1.172-0.766 2.313-1.531t2.297-1.547q-1.156-0.781-2.297-1.547t-2.313-1.531q0.281-1.484 0.578-2.945t0.594-2.93q-1.469 0.313-2.93 0.609t-2.945 0.563q-0.766-1.172-1.531-2.313t-1.547-2.297q-0.781 1.156-1.547 2.297t-1.531 2.313q-1.484-0.266-2.945-0.563t-2.93-0.609q0.313 1.469 0.609 2.93t0.563 2.945q-1.172 0.766-2.313 1.531t-2.297 1.547q1.156 0.781 2.297 1.547t2.313 1.531q-0.281 1.484-0.578 2.945t-0.594 2.93q1.469-0.313 2.93-0.609t2.945-0.563q0.766 1.172 1.531 2.313t1.547 2.297q0.781-1.156 1.547-2.297t1.531-2.313z"></path>
</svg>
