<!-- Generated by IcoMoon.io -->
<svg version="1.1" xmlns="http://www.w3.org/2000/svg" width="32" height="32" viewBox="0 0 32 32">
<title>uniE668</title>
<path d="M21.984 24q0.422 0 0.789 0.156t0.641 0.422 0.43 0.633 0.156 0.789-0.156 0.789-0.422 0.633-0.633 0.422-0.789 0.156-0.781-0.156-0.633-0.422-0.43-0.625-0.156-0.781 0.148-0.789 0.422-0.641 0.633-0.43 0.781-0.156zM18.797 23.609q-0.797 1.063-0.797 2.391 0 0.656 0.203 1.273t0.594 1.133l-1.594 1.188q-0.578-0.781-0.891-1.695t-0.313-1.883q0-0.984 0.305-1.906t0.898-1.703zM30 20q0.969 1.313 1.484 2.844t0.516 3.156q0 1.609-0.508 3.148t-1.492 2.836l-1.609-1.188q0.797-1.031 1.219-2.258t0.422-2.539-0.422-2.539-1.219-2.258zM26.797 22.391q0.578 0.797 0.891 1.711t0.313 1.898-0.305 1.898-0.898 1.695l-1.594-1.203q0.797-1.063 0.797-2.391 0-0.656-0.203-1.273t-0.594-1.133zM6 22h4v10h-10v-10h4v-12h-4v-10h10v10h-4v6h16v-6h-4v-10h10v10h-4v8h-18v4zM26 8v-6h-6v6h6zM8 8v-6h-6v6h6zM2 24v6h6v-6h-6zM15.609 21.203q-0.797 1.031-1.219 2.258t-0.422 2.539 0.422 2.539 1.219 2.258l-1.609 1.203q-0.984-1.297-1.492-2.828t-0.508-3.156 0.508-3.164 1.492-2.836z"></path>
</svg>
