<!-- Generated by IcoMoon.io -->
<svg version="1.1" xmlns="http://www.w3.org/2000/svg" width="32" height="32" viewBox="0 0 32 32">
<title>uniE913</title>
<path d="M13.453 15.953l-1.406-1.406 9.953-9.969 9.953 9.969-1.406 1.406-0.547-0.531v8.578h-6v-6h-4v6h-6v-8.578zM16 22h2v-6h8v6h2v-8.578l-6-6-6 6v8.578zM32 26v2h-32v-2h32zM4 17.906q-0.875-0.172-1.602-0.633t-1.266-1.117-0.836-1.461-0.297-1.695q0-1.141 0.219-2.063t0.578-1.789 0.836-1.734 0.992-1.898q0.156-0.313 0.414-0.594t0.57-0.484 0.672-0.32 0.719-0.117q0.75 0 1.266 0.352t0.898 0.883 0.664 1.156 0.563 1.156l0.234 0.469q0.328 0.656 0.586 1.203t0.438 1.102 0.266 1.195 0.086 1.484q0 0.891-0.297 1.695t-0.836 1.461-1.273 1.117-1.594 0.633v6.094h-2v-6.094zM5 6q-0.141 0-0.367 0.281t-0.5 0.719-0.547 0.969-0.516 1.016-0.422 0.875-0.242 0.547q-0.234 0.594-0.32 1.281t-0.086 1.313 0.234 1.172 0.641 0.953 0.953 0.641 1.172 0.234 1.172-0.234 0.953-0.641 0.641-0.953 0.234-1.172-0.086-1.313-0.32-1.281q-0.063-0.156-0.242-0.547t-0.422-0.875-0.523-1.016-0.547-0.969-0.492-0.719-0.367-0.281z"></path>
</svg>
