<!-- Generated by IcoMoon.io -->
<svg version="1.1" xmlns="http://www.w3.org/2000/svg" width="32" height="32" viewBox="0 0 32 32">
<title>uniE669</title>
<path d="M30.406 16q0 0.5-0.242 0.93t-0.664 0.695l-20.156 12.484q-0.469 0.297-1.016 0.297-0.406 0-0.75-0.148t-0.609-0.414-0.414-0.609-0.148-0.75v-24.969q0-0.391 0.148-0.742t0.414-0.617 0.609-0.414 0.75-0.148q0.547 0 1.016 0.297l20.156 12.484q0.422 0.266 0.664 0.695t0.242 0.93zM8.406 28.344l18.281-11.328h-18.281v11.328zM8.406 15.016h18.313l-18.313-11.359v11.359z"></path>
</svg>
