<!-- Generated by IcoMoon.io -->
<svg version="1.1" xmlns="http://www.w3.org/2000/svg" width="32" height="32" viewBox="0 0 32 32">
<title>uniF329</title>
<path d="M29.984 16h0.016q-0.016 0.328-0.18 0.625t-0.445 0.469l-19.859 12.641q-0.406 0.266-0.875 0.266-0.328 0-0.633-0.125t-0.523-0.344-0.352-0.508-0.133-0.633v-7.063l-3.672 2.531q-0.094 0.078-0.219 0.109t-0.25 0.031q-0.375 0-0.617-0.281t-0.242-0.641v-14.156q0-0.359 0.242-0.641t0.617-0.281q0.125 0 0.25 0.031t0.219 0.109l3.672 2.531v-7.078q0-0.344 0.133-0.633t0.352-0.5 0.523-0.336 0.633-0.125q0.469 0 0.875 0.266l19.875 12.594q0.297 0.188 0.445 0.484t0.148 0.656zM9 4.297v7.766l4.266 2.938h12.609zM4 11.047v9.906l7.203-4.953zM9 27.703l16.813-10.703h-12.547l-4.266 2.938v7.766z"></path>
</svg>
