<!-- Generated by IcoMoon.io -->
<svg version="1.1" xmlns="http://www.w3.org/2000/svg" width="32" height="32" viewBox="0 0 32 32">
<title>uniF2BB</title>
<path d="M19.828 16q0 0.797-0.305 1.492t-0.82 1.211-1.211 0.82-1.492 0.305-1.492-0.305-1.211-0.82-0.82-1.211-0.305-1.492 0.305-1.492 0.82-1.211 1.211-0.82 1.492-0.305 1.492 0.305 1.211 0.82 0.82 1.211 0.305 1.492zM16 18.172q0.453 0 0.852-0.172t0.688-0.461 0.461-0.688 0.172-0.852-0.172-0.852-0.461-0.688-0.688-0.461-0.852-0.172-0.852 0.172-0.688 0.461-0.461 0.688-0.172 0.852 0.172 0.852 0.461 0.688 0.688 0.461 0.852 0.172zM5.984 5.984q-1 1-1.773 2.156t-1.305 2.43-0.805 2.641-0.273 2.789 0.273 2.789 0.805 2.641 1.305 2.43 1.773 2.156l-1.172 1.172q-2.25-2.25-3.445-5.125t-1.195-6.063 1.195-6.063 3.445-5.125zM10.219 10.219q-1.172 1.172-1.781 2.656t-0.609 3.125 0.609 3.125 1.781 2.656l-1.172 1.172q-1.391-1.406-2.133-3.195t-0.742-3.758 0.742-3.758 2.133-3.195zM25 15.5q-0.422 0-0.844 0.047-0.078-1.516-0.695-2.883t-1.68-2.445l1.172-1.172q1.313 1.313 2.039 2.984t0.805 3.516q-0.406-0.047-0.797-0.047zM30.125 17.031q0.031-0.266 0.031-0.516v-0.5q0-1.406-0.273-2.781t-0.797-2.648-1.297-2.438-1.773-2.164l1.172-1.172q1.109 1.109 1.969 2.406t1.445 2.727 0.891 2.953 0.305 3.102q0 0.563-0.039 1.125t-0.117 1.125q-0.344-0.344-0.727-0.648t-0.789-0.57zM25 18q1.453 0 2.727 0.547t2.227 1.5 1.5 2.227 0.547 2.727-0.547 2.727-1.5 2.227-2.227 1.5-2.727 0.547-2.727-0.547-2.227-1.5-1.5-2.227-0.547-2.727 0.547-2.727 1.5-2.227 2.227-1.5 2.727-0.547zM20 25q0 1.031 0.391 1.945t1.070 1.594 1.594 1.070 1.945 0.391q0.734 0 1.438-0.211t1.313-0.617l-6.922-6.922q-0.406 0.609-0.617 1.313t-0.211 1.438zM29.172 27.75q0.406-0.609 0.617-1.313t0.211-1.438q0-1.031-0.398-1.938t-1.078-1.586-1.586-1.078-1.938-0.398q-0.734 0-1.438 0.211t-1.313 0.617z"></path>
</svg>
