<!-- Generated by IcoMoon.io -->
<svg version="1.1" xmlns="http://www.w3.org/2000/svg" width="32" height="32" viewBox="0 0 32 32">
<title>uniE5D4</title>
<path d="M32 14v2h-2v8h-2v-8h-8v2.25q0.734 0 1.445 0.008t1.445 0.008q0.938 0 1.883-0.078t1.867-0.297l0.266 1.719q-0.531 0.125-1.234 0.203t-1.492 0.125-1.625 0.063-1.633 0.016q-0.844 0-1.594-0.008t-1.328-0.008v-4h-4v8h-2v-8h-5.188q-0.984 1.578-2.336 2.82t-2.93 2.227l-1.547-1.453q1.266-0.703 2.391-1.586t2.016-2.008h-4.406v-2h5.656q0.531-1.094 0.781-2.266h-5.516v-1.734h7.859q-0.094 1.031-0.328 2.031t-0.625 1.969h4.172v-6h2v6h4v-4h2v4h8v-6h2v6h2z"></path>
</svg>
