<!-- Generated by IcoMoon.io -->
<svg version="1.1" xmlns="http://www.w3.org/2000/svg" width="32" height="32" viewBox="0 0 32 32">
<title>uniEDE0</title>
<path d="M32 18v2h-1.172q-0.156 1.563-0.703 2.961t-1.484 2.461-2.25 1.688-3 0.625q-3.5 0-5.25-3.078h-0.063v2.688h-2.078v-7.344h-2v7.344h-2.078v-2.953h-0.063q-0.813 1.578-2.203 2.461t-3.188 0.883q-1.094 0-2.047-0.305t-1.656-0.906-1.109-1.492-0.406-2.047q0-0.797 0.195-1.563t0.664-1.422h-2.109v-2h5.188q0.031 0 0.258-0.047t0.516-0.109 0.555-0.125 0.359-0.078l5.047-0.734q0-0.953-0.172-1.82t-0.594-1.531-1.141-1.055-1.813-0.391q-1.547 0-2.891 0.57t-2.516 1.555v-2.266q0.563-0.391 1.25-0.703t1.422-0.523 1.477-0.32 1.43-0.109q1.5 0 2.57 0.438t1.75 1.25 0.992 1.953 0.313 2.563v1.484h2v-15.297h2.078v11.188h0.063q0.938-1.734 2.469-2.656t3.516-0.922q1.703 0 2.953 0.617t2.078 1.672 1.258 2.453 0.477 2.945h1.109zM11.922 20h-7.016q-0.891 0.453-1.203 1.188t-0.313 1.672q0 0.766 0.273 1.344t0.742 0.961 1.102 0.578 1.336 0.195q0.844 0 1.57-0.242t1.32-0.68 1.055-1.063 0.742-1.391q0.25-0.656 0.32-1.258t0.070-1.305zM18.078 18h10.672q-0.047-1.141-0.359-2.203t-0.93-1.883-1.547-1.313-2.211-0.492-2.305 0.461-1.742 1.258-1.125 1.875-0.453 2.297zM28.672 20h-10.594v0.422q0 1.125 0.383 2.133t1.070 1.758 1.648 1.188 2.133 0.438q1.281 0 2.227-0.5t1.602-1.328 1.031-1.898 0.5-2.211z"></path>
</svg>
