<!-- Generated by IcoMoon.io -->
<svg version="1.1" xmlns="http://www.w3.org/2000/svg" width="32" height="32" viewBox="0 0 32 32">
<title>uniEDA1</title>
<path d="M30 19.938q0.016 0.031 0.023 0.453t0.008 1.086v1.508t-0.008 1.742-0.008 1.773-0.008 1.602-0.008 1.234v0.664h-30v-0.664t-0.008-1.234-0.008-1.602-0.008-1.773-0.008-1.742v-1.508t0.008-1.086 0.023-0.453l5.984-17.938h6.016v2h-4.578l-5.328 16h6.531l2 4h8.75l2-4h6.531l-5.328-16h-4.578v-2h6.016zM28 22h-5.375l-2 4h-11.25l-2-4h-5.375v6h26v-6zM14 14.578v-14.578h2v14.578l4.594-4.578 1.406 1.406-7 7-7-7 1.406-1.406z"></path>
</svg>
