<!-- Generated by IcoMoon.io -->
<svg version="1.1" xmlns="http://www.w3.org/2000/svg" width="32" height="32" viewBox="0 0 32 32">
<title>uniEDD3</title>
<path d="M29 6q0.625 0 1.172 0.234t0.953 0.641 0.641 0.953 0.234 1.172v18q0 0.625-0.234 1.172t-0.641 0.953-0.953 0.641-1.172 0.234h-26q-0.625 0-1.172-0.234t-0.953-0.641-0.641-0.953-0.234-1.172v-18q0-0.625 0.234-1.172t0.641-0.953 0.953-0.641 1.172-0.234h7v-2q0-0.422 0.156-0.781t0.43-0.633 0.633-0.43 0.781-0.156h8q0.422 0 0.781 0.156t0.633 0.43 0.43 0.633 0.156 0.781v2h7zM12 6h8v-2h-8v2zM8 8v20h16v-20h-16zM2 27q0 0.406 0.297 0.703t0.703 0.297h3v-20h-3q-0.406 0-0.703 0.297t-0.297 0.703v18zM30 9q0-0.406-0.297-0.703t-0.703-0.297h-3v20h3q0.406 0 0.703-0.297t0.297-0.703v-18z"></path>
</svg>
