<!-- Generated by IcoMoon.io -->
<svg version="1.1" xmlns="http://www.w3.org/2000/svg" width="32" height="32" viewBox="0 0 32 32">
<title>uniE9FE</title>
<path d="M30 14v2h-14v14h-2v-14h-14v-2h14v-14h2v14h14zM4 12h-2v-8h2v8zM8 12h-2v-6h2v6zM12 12h-2v-10h2v10zM26 4h-8v-2h8v2zM24 8h-6v-2h6v2zM28 12h-10v-2h10v2zM6 24h4q0 0.828-0.313 1.555t-0.859 1.273-1.273 0.859-1.555 0.313-1.555-0.313-1.273-0.859-0.859-1.273-0.313-1.555 0.313-1.555 0.859-1.273 1.273-0.859 1.555-0.313v4zM8 18q0.828 0 1.555 0.313t1.273 0.859 0.859 1.273 0.313 1.555h-4v-4zM23 23.844l5-5.016v2.828l-5 5.016-3-3.016-2 2v-2.828l2-2z"></path>
</svg>
