<!-- Generated by IcoMoon.io -->
<svg version="1.1" xmlns="http://www.w3.org/2000/svg" width="32" height="32" viewBox="0 0 32 32">
<title>uniEF6A</title>
<path d="M15 8q1.453 0 2.727 0.547t2.227 1.5 1.5 2.227 0.547 2.727-0.547 2.727-1.5 2.227-2.227 1.5-2.727 0.547-2.727-0.547-2.227-1.5-1.5-2.227-0.547-2.727 0.547-2.727 1.5-2.227 2.227-1.5 2.727-0.547zM15 20q1.031 0 1.938-0.391t1.586-1.070 1.078-1.594 0.398-1.945-0.398-1.938-1.078-1.586-1.586-1.078-1.938-0.398-1.945 0.398-1.594 1.078-1.070 1.586-0.391 1.938 0.391 1.945 1.070 1.594 1.594 1.070 1.945 0.391zM16 6h-2v-6h2v6zM14 24h2v6h-2v-6zM6 16h-6v-2h6v2zM7.922 9.344l-4.234-4.25 1.406-1.406 4.25 4.234zM26.313 5.094l-4.234 4.25-1.422-1.422 4.25-4.234zM7.922 20.656l1.422 1.422-4.25 4.234-1.406-1.406zM26 30h2v2h-2v-2zM27 18q0.828 0 1.555 0.313t1.273 0.859 0.859 1.273 0.313 1.555q0 0.719-0.219 1.266t-0.555 0.984-0.727 0.789-0.727 0.695-0.555 0.703-0.219 0.813v0.75h-2v-0.75q0-0.734 0.219-1.273t0.555-0.977 0.727-0.789 0.727-0.695 0.555-0.703 0.219-0.813q0-0.422-0.156-0.781t-0.43-0.633-0.633-0.43-0.781-0.156-0.781 0.156-0.633 0.43-0.43 0.633-0.156 0.781h-2q0-0.828 0.313-1.555t0.859-1.273 1.273-0.859 1.555-0.313z"></path>
</svg>
