<!-- Generated by IcoMoon.io -->
<svg version="1.1" xmlns="http://www.w3.org/2000/svg" width="32" height="32" viewBox="0 0 32 32">
<title>uniF01B</title>
<path d="M14 25.984h2v2h-2v-2zM15 10.984q1.031 0 1.938 0.398t1.586 1.078 1.078 1.586 0.398 1.938q0 0.938-0.297 1.641t-0.742 1.258-0.961 1.016-0.961 0.93-0.742 0.984-0.297 1.172v1h-2v-1q0-0.938 0.297-1.633t0.742-1.25 0.961-1.023 0.961-0.93 0.742-0.977 0.297-1.188q0-0.609-0.234-1.156t-0.648-0.961-0.961-0.648-1.156-0.234-1.156 0.234-0.961 0.648-0.648 0.961-0.234 1.156h-2q0-1.031 0.391-1.938t1.070-1.586 1.594-1.078 1.945-0.398zM28 8.578v23.422h-26v-32h17.5zM20.078 8h4.531l-4.531-4.563v4.563zM26 30v-20h-7.922v-8h-14.078v28h22z"></path>
</svg>
