<!-- Generated by IcoMoon.io -->
<svg version="1.1" xmlns="http://www.w3.org/2000/svg" width="32" height="32" viewBox="0 0 32 32">
<title>uniE4F2</title>
<path d="M4 30h17.047l2 2h-21.047v-32h17.422l8.578 8.578v11.391l-2-2v-7.969h-8v-8h-14v28zM20 3.422v4.578h4.578zM32 28q0 0.828-0.313 1.555t-0.859 1.273-1.273 0.859-1.555 0.313v-2q0.422 0 0.781-0.156t0.633-0.43 0.43-0.633 0.156-0.781-0.156-0.781-0.43-0.633-0.633-0.43-0.781-0.156h-4.578l2.531 2.547-1.406 1.406-4.953-4.953 4.953-4.953 1.406 1.406-2.531 2.547h4.578q0.797 0 1.531 0.305t1.297 0.867 0.867 1.297 0.305 1.531zM16 23.984h-2v-1q0-0.922 0.297-1.617t0.742-1.258 0.961-1.031 0.961-0.938 0.742-0.984 0.297-1.172q0-0.609-0.234-1.156t-0.648-0.961-0.961-0.648-1.156-0.234-1.156 0.234-0.961 0.648-0.648 0.961-0.234 1.156h-2q0-1.031 0.391-1.945t1.070-1.594 1.594-1.070 1.945-0.391 1.938 0.398 1.586 1.078 1.078 1.586 0.398 1.938q0 0.781-0.188 1.359t-0.492 1.047-0.695 0.859-0.805 0.781-0.813 0.813-0.711 0.969q-0.203 0.344-0.258 0.711t-0.055 0.742q0 0.172 0.008 0.359t0.008 0.359zM14 27.984v-2h2v2h-2z"></path>
</svg>
