<!-- Generated by IcoMoon.io -->
<svg version="1.1" xmlns="http://www.w3.org/2000/svg" width="32" height="32" viewBox="0 0 32 32">
<title>uniED29</title>
<path d="M2 5.5l16-3.5v28l-16-3.5v-21zM6.422 22.109q0.078 0.047 0.258 0.133t0.391 0.18 0.406 0.172 0.289 0.109q0.453 0.156 0.945 0.227t0.977 0.070q0.734 0 1.391-0.188t1.164-0.578 0.844-0.969 0.43-1.359v0.078l0.016-0.156-0.016 0.078q0.063-0.359 0.063-0.781 0-0.797-0.25-1.438t-0.672-1.188-0.969-1.008-1.141-0.883q-0.422-0.313-0.633-0.633t-0.211-0.867q0-0.688 0.453-1.055t1.109-0.367q0.234 0 0.508 0.055t0.555 0.148 0.539 0.227 0.43 0.273v-2.906q-0.531-0.219-1.063-0.352t-1.109-0.133q-0.406 0-0.805 0.023t-0.805 0.117q-0.734 0.172-1.297 0.547t-0.938 0.906-0.563 1.18-0.188 1.383q0 0.922 0.266 1.555t0.672 1.086 0.867 0.789 0.867 0.656 0.672 0.688 0.266 0.867q0 0.703-0.461 1.016t-1.102 0.313q-0.719 0-1.188-0.242t-0.969-0.695v2.922zM28 4q0.406 0 0.773 0.156t0.641 0.43 0.43 0.641 0.156 0.773v10l-5.766-5.781q-0.094-0.094-0.336-0.156t-0.367-0.063q-0.313 0-0.609 0.219-0.266 0.203-0.508 0.438t-0.477 0.469l-0.969 0.938t-0.969 0.953v-9.016h8zM28 6h-2v2h2v-2zM20 16h10v10q0 0.406-0.156 0.773t-0.43 0.641-0.641 0.43-0.773 0.156h-8v-4h2v-2h-2v-2h2v-2h-2v-2zM24 20h4v-2h-4v2zM24 24h4v-2h-4v2z"></path>
</svg>
