<!-- Generated by IcoMoon.io -->
<svg version="1.1" xmlns="http://www.w3.org/2000/svg" width="32" height="32" viewBox="0 0 32 32">
<title>uniF482</title>
<path d="M31 5v22q0 0.406-0.297 0.703t-0.703 0.297h-11v3.203l-18-4.156v-22.094l18-4.156v3.203h11q0.406 0 0.703 0.297t0.297 0.703zM13.156 18.656q0-0.922-0.289-1.547t-0.727-1.063-0.953-0.742-0.953-0.594-0.727-0.617-0.289-0.813q0-0.5 0.25-0.703t0.656-0.359q0.078 0 0.141-0.016t0.125-0.016q0.734 0 1.258 0.211t1.070 0.68v-2.828q-0.453-0.203-0.93-0.289t-0.977-0.086q-0.328 0-0.656 0.031t-0.641 0.094q-0.641 0.125-1.141 0.461t-0.836 0.82-0.508 1.070-0.172 1.211q0 0.875 0.281 1.477t0.695 1.031 0.898 0.742 0.898 0.602 0.695 0.617 0.281 0.781q0 0.578-0.359 0.797t-0.859 0.219q-0.766 0-1.398-0.445t-1.086-1.008v2.906q0.359 0.234 0.68 0.391t0.648 0.258 0.688 0.148 0.797 0.047q1.609 0 2.523-0.93t0.914-2.539zM30 27v-8h-11v2h3v1h-3v2h3v1h-3v2h11zM30 16.5v-11.5h-11v8.828q0.094-0.078 0.43-0.375t0.711-0.617 0.695-0.578 0.398-0.258q0.172 0 0.234 0.117t0.156 0.211l5.375 5.672h2l-4.656-4.5q0.094-0.109 0.25-0.313t0.336-0.406 0.359-0.359 0.305-0.156q0.109 0 0.211 0.047t0.18 0.125zM29 21v1h-6v-1h6zM27.375 9.469q-0.469 0-0.797-0.328t-0.328-0.797q0-0.453 0.344-0.781t0.781-0.328q0.453 0 0.781 0.328t0.328 0.781-0.328 0.789-0.781 0.336zM29 24v1h-6v-1h6z"></path>
</svg>
