<!-- Generated by IcoMoon.io -->
<svg version="1.1" xmlns="http://www.w3.org/2000/svg" width="32" height="32" viewBox="0 0 32 32">
<title>uniF485</title>
<path d="M17 3h14v26h-14v-26zM15.25 19.625q0 1.344-0.422 2.422t-1.195 1.844-1.859 1.172-2.414 0.406q-0.781 0-1.414-0.094t-1.203-0.289-1.125-0.5-1.18-0.742q-0.031-0.141-0.063-0.289t-0.031-0.289v-6.797q0.484 0.547 1 1.188t1.102 1.195 1.266 0.93 1.508 0.375l0.219-0.063 0.109-0.234q-0.016-0.328-0.406-0.641t-0.977-0.688-1.258-0.859-1.258-1.172-0.969-1.625-0.383-2.219q0-1.469 0.484-2.609t1.352-1.922 2.063-1.188 2.617-0.406q1.031 0 1.883 0.211t1.805 0.586q0.031 0.172 0.086 0.367t0.055 0.367v6.141q-0.422-0.344-0.891-0.75t-0.984-0.758-1.078-0.594-1.156-0.242q-0.156 0-0.328 0.023t-0.313 0.102l-0.125 0.156q-0.016 0.078-0.016 0.148v0.18q0 0.266 0.406 0.539t1.016 0.633 1.328 0.852 1.328 1.203 1.016 1.672 0.406 2.258z"></path>
</svg>
