<!-- Generated by IcoMoon.io -->
<svg version="1.1" xmlns="http://www.w3.org/2000/svg" width="32" height="32" viewBox="0 0 32 32">
<title>uniF484</title>
<path d="M32 4v24q0 0.422-0.156 0.781t-0.43 0.633-0.633 0.43-0.781 0.156h-10v2l-20-3.5v-25l20-3.5v2h10q0.422 0 0.781 0.156t0.633 0.43 0.43 0.633 0.156 0.781zM14.25 19.625q0-1.234-0.406-2.086t-1.016-1.461-1.328-1.047-1.328-0.844-1.016-0.844-0.406-1.063q0-0.391 0.148-0.664t0.398-0.438 0.57-0.234 0.664-0.070q0.5 0 0.906 0.086t0.766 0.25 0.703 0.398 0.734 0.531v-4.078q-0.703-0.281-1.391-0.398t-1.453-0.117q-1.203 0-2.211 0.328t-1.742 0.969-1.141 1.594-0.406 2.219q0 1.219 0.391 2.047t0.969 1.43 1.266 1.031 1.266 0.82 0.969 0.828 0.391 1.047q0 0.688-0.445 0.992t-1.070 0.305-1.133-0.164-0.945-0.445-0.828-0.664-0.781-0.82v4.203q0.375 0.328 0.867 0.555t1.031 0.375 1.086 0.211 1.031 0.063q1.125 0 2.031-0.328t1.539-0.953 0.977-1.523 0.344-2.039zM30 4h-10v8.859l1.766-2.266q0.219-0.281 0.547-0.445t0.688-0.164 0.688 0.164 0.547 0.445l5.766 7.406h-10v2h8v2h-8v2h8v2h-8v2h10v-24zM28 6v2h-2v-2h2z"></path>
</svg>
