<!-- Generated by IcoMoon.io -->
<svg version="1.1" xmlns="http://www.w3.org/2000/svg" width="32" height="32" viewBox="0 0 32 32">
<title>uniF483</title>
<path d="M30 4.5q0.219 0 0.359 0.141t0.141 0.359v22q0 0.219-0.141 0.359t-0.359 0.141h-14q-0.219 0-0.359-0.141t-0.141-0.359v-22q0-0.219 0.141-0.359t0.359-0.141h14zM13.656 18.656q0 0.906-0.273 1.641t-0.789 1.25-1.242 0.797-1.633 0.281q-0.891 0-1.734-0.242t-1.531-0.82q-0.016-0.063-0.031-0.141t-0.016-0.141v-4.234q0.297 0.359 0.625 0.758t0.695 0.734 0.797 0.563 0.961 0.227q0.266 0 0.445-0.109t0.18-0.406q0-0.063-0.016-0.156t-0.047-0.125q-0.063-0.25-0.367-0.469t-0.711-0.484-0.867-0.594-0.844-0.797-0.641-1.109-0.258-1.516q0-1 0.32-1.781t0.906-1.32 1.398-0.813 1.781-0.273q0.703 0 1.219 0.117t1.156 0.383q0.016 0.031 0.047 0.188t0.031 0.188v3.875q-0.359-0.297-0.664-0.563t-0.617-0.461-0.672-0.305-0.844-0.109q-0.266 0-0.484 0.156t-0.219 0.438q0 0.25 0.109 0.43t0.281 0.32 0.367 0.25 0.367 0.203q0.625 0.375 1.148 0.781t0.891 0.898 0.57 1.102 0.203 1.391z"></path>
</svg>
