<!-- Generated by IcoMoon.io -->
<svg version="1.1" xmlns="http://www.w3.org/2000/svg" width="32" height="32" viewBox="0 0 32 32">
<title>uniE748</title>
<path d="M20.922 18h-2.922q-1.297-0.984-2.836-1.492t-3.164-0.508q-1.375 0-2.656 0.359t-2.391 1.008-2.023 1.563-1.563 2.023-1.008 2.391-0.359 2.656h-2q0-1.875 0.555-3.609t1.57-3.203 2.445-2.609 3.18-1.797q-0.875-0.547-1.57-1.289t-1.18-1.617-0.742-1.859-0.258-2.016q0-1.656 0.633-3.109t1.719-2.539 2.539-1.719 3.109-0.633 3.109 0.633 2.539 1.719 1.719 2.539 0.633 3.109q0 1.031-0.258 2.016t-0.742 1.859-1.18 1.617-1.57 1.289q1.344 0.5 2.531 1.32t2.141 1.898zM6 8q0 1.25 0.469 2.336t1.289 1.906 1.906 1.289 2.336 0.469q1.234 0 2.328-0.469t1.914-1.289 1.289-1.906 0.469-2.336q0-1.234-0.469-2.328t-1.289-1.914-1.914-1.289-2.328-0.469q-1.25 0-2.336 0.469t-1.906 1.289-1.289 1.914-0.469 2.328zM18 20h8.656l-1.328-1.328 1.344-1.344 3.688 3.672-3.688 3.672-1.344-1.344 1.328-1.328h-8.656v-2zM22.672 24.672l-1.328 1.328h8.656v2h-8.656l1.328 1.328-1.344 1.344-3.688-3.672 3.688-3.672z"></path>
</svg>
