<!-- Generated by IcoMoon.io -->
<svg version="1.1" xmlns="http://www.w3.org/2000/svg" width="32" height="32" viewBox="0 0 32 32">
<title>uniE895</title>
<path d="M16 30q2.406 0 4.617-0.742t4.031-2.094 3.172-3.25 2.055-4.211l1.906 0.594q-0.781 2.609-2.328 4.758t-3.633 3.695-4.594 2.398-5.227 0.852q-2.141 0-4.172-0.531t-3.836-1.539-3.336-2.453-2.656-3.273v3.797h-2v-8h8v2h-4.938q0.922 1.828 2.289 3.305t3.055 2.516 3.617 1.609 3.977 0.57zM32 4v8h-8v-2h4.938q-0.922-1.828-2.289-3.305t-3.055-2.516-3.617-1.609-3.977-0.57q-2.406 0-4.617 0.742t-4.031 2.094-3.172 3.25-2.055 4.211l-1.906-0.594q0.781-2.594 2.328-4.75t3.633-3.703 4.594-2.398 5.227-0.852q2.141 0 4.172 0.531t3.836 1.539 3.336 2.453 2.656 3.273v-3.797h2z"></path>
</svg>
