<!-- Generated by IcoMoon.io -->
<svg version="1.1" xmlns="http://www.w3.org/2000/svg" width="32" height="32" viewBox="0 0 32 32">
<title>uniE8F7</title>
<path d="M26 0q0.422 0 0.781 0.156t0.633 0.43 0.43 0.633 0.156 0.781v15.5q0 0.484 0.148 0.852t0.367 0.688 0.484 0.633 0.484 0.711 0.367 0.906 0.148 1.211v7.5q0 0.422-0.156 0.781t-0.43 0.633-0.633 0.43-0.781 0.156h-14.625q0.969-0.891 1.672-2h8.953v-7.5q0-0.703 0.148-1.211t0.367-0.906 0.484-0.711 0.484-0.633 0.367-0.688 0.148-0.852v-15.5h-20v13.594q-0.5 0.063-1.008 0.164t-0.992 0.273v-16.031h22zM28 22.5q0-0.375-0.070-0.656t-0.203-0.516-0.313-0.461-0.414-0.492q-0.234 0.266-0.414 0.492t-0.313 0.461-0.203 0.516-0.070 0.656v7.5h2v-7.5zM7 20q-0.922 0-1.742 0.313t-1.477 0.867-1.094 1.32-0.594 1.672l-1.984-0.344q0.219-1.266 0.844-2.328t1.539-1.844 2.070-1.219 2.438-0.438q1.422 0 2.719 0.555t2.281 1.586v-2.141h2v6h-6v-2h2.969q-0.703-0.938-1.75-1.469t-2.219-0.531zM13.891 26.172q-0.219 1.266-0.844 2.328t-1.539 1.844-2.070 1.219-2.438 0.438q-1.422 0-2.719-0.555t-2.281-1.586v2.141h-2v-6h6v2h-2.969q0.703 0.938 1.75 1.469t2.219 0.531q0.906 0 1.734-0.313t1.484-0.867 1.094-1.32 0.594-1.672z"></path>
</svg>
