<!-- Generated by IcoMoon.io -->
<svg version="1.1" xmlns="http://www.w3.org/2000/svg" width="32" height="32" viewBox="0 0 32 32">
<title>uniF7E7</title>
<path d="M16 4q-2.156 0-4.109 0.727t-3.523 2.016-2.656 3.070-1.492 3.891l-1.969-0.391q0.484-2.453 1.75-4.531t3.102-3.586 4.117-2.352 4.781-0.844q1.828 0 3.578 0.477t3.305 1.352 2.859 2.133 2.258 2.82v-4.781h2v8h-8v-2h4.391q-0.797-1.375-1.922-2.492t-2.477-1.891-2.875-1.195-3.117-0.422zM21.625 26.563l0.422 0.438-2.469 2.484q-0.891 0.219-1.781 0.367t-1.797 0.148q-1.844 0-3.594-0.469t-3.305-1.344-2.852-2.133-2.25-2.836v4.781h-2v-8h8v2h-4.391q0.797 1.391 1.922 2.508t2.469 1.891 2.867 1.188 3.133 0.414q1.484 0 2.898-0.367t2.727-1.070zM31.953 23.469l-3.531 3.531 3.531 3.547-1.406 1.406-3.547-3.531-3.547 3.547-1.406-1.422 3.547-3.547-3.547-3.547 1.406-1.406 3.547 3.547 3.547-3.547z"></path>
</svg>
