<!-- Generated by IcoMoon.io -->
<svg version="1.1" xmlns="http://www.w3.org/2000/svg" width="32" height="32" viewBox="0 0 32 32">
<title>uniF751</title>
<path d="M32 16q0 2.219-0.57 4.258t-1.609 3.82-2.5 3.242-3.242 2.5-3.828 1.609-4.25 0.57q-2.219 0-4.258-0.57t-3.82-1.609-3.242-2.5-2.5-3.242-1.609-3.828-0.57-4.25 0.57-4.25 1.609-3.828 2.5-3.242 3.242-2.5 3.828-1.609 4.25-0.57 4.25 0.57 3.828 1.609 3.242 2.5 2.5 3.242 1.609 3.828 0.57 4.25zM16 30q1.922 0 3.711-0.5t3.344-1.414 2.836-2.195 2.195-2.836 1.414-3.344 0.5-3.711-0.5-3.711-1.414-3.344-2.195-2.836-2.836-2.195-3.344-1.414-3.711-0.5q-1.938 0-3.719 0.5t-3.336 1.414-2.836 2.195-2.195 2.836-1.414 3.344-0.5 3.711q0 1.938 0.5 3.719t1.414 3.336 2.195 2.836 2.836 2.195 3.344 1.414 3.711 0.5zM16 22q0.859 0 1.68-0.242t1.523-0.695 1.273-1.086 0.945-1.414l1.813 0.875q-0.5 1.047-1.258 1.891t-1.703 1.438-2.031 0.914-2.242 0.32q-1.719 0-3.289-0.703t-2.711-2v2.703h-2v-6h6v2h-2.469q0.844 0.938 2.023 1.469t2.445 0.531zM22 10.703v-2.703h2v6h-6v-2h2.469q-0.844-0.938-2.023-1.469t-2.445-0.531q-0.859 0-1.68 0.242t-1.523 0.695-1.273 1.086-0.945 1.414l-1.813-0.875q0.5-1.047 1.258-1.891t1.703-1.438 2.031-0.914 2.242-0.32q1.719 0 3.289 0.703t2.711 2z"></path>
</svg>
