<!-- Generated by IcoMoon.io -->
<svg version="1.1" xmlns="http://www.w3.org/2000/svg" width="32" height="32" viewBox="0 0 32 32">
<title>uniF4A3</title>
<path d="M28 4h2v8h-8v-2h4.391q-0.797-1.375-1.914-2.484t-2.469-1.891-2.875-1.203-3.133-0.422q-2.156 0-4.109 0.727t-3.523 2.016-2.656 3.070-1.492 3.891l-1.969-0.391q0.313-1.641 0.992-3.109t1.656-2.727 2.203-2.273 2.648-1.727 3-1.094 3.25-0.383q1.844 0 3.594 0.477t3.305 1.359 2.859 2.133 2.242 2.813v-4.781zM16 28q2.156 0 4.109-0.727t3.523-2.016 2.656-3.063 1.492-3.883l1.953 0.375q-0.469 2.469-1.734 4.539t-3.094 3.578-4.117 2.352-4.789 0.844q-1.859 0-3.617-0.477t-3.305-1.352-2.844-2.133-2.234-2.82v4.781h-2v-8h8v2h-4.391q0.797 1.391 1.914 2.5t2.461 1.883 2.867 1.195 3.148 0.422z"></path>
</svg>
