<!-- Generated by IcoMoon.io -->
<svg version="1.1" xmlns="http://www.w3.org/2000/svg" width="32" height="32" viewBox="0 0 32 32">
<title>uniEE6E</title>
<path d="M32 4v8h-8v-2h4.938q-0.922-1.828-2.289-3.305t-3.055-2.516-3.617-1.609-3.977-0.57q-2.406 0-4.617 0.742t-4.031 2.094-3.172 3.25-2.055 4.211l-1.906-0.594q0.781-2.594 2.328-4.75t3.633-3.703 4.594-2.398 5.227-0.852q2.141 0 4.172 0.531t3.836 1.539 3.336 2.453 2.656 3.273v-3.797h2zM3.063 22q0.922 1.828 2.289 3.305t3.055 2.516 3.617 1.609 3.977 0.57h2v1.844q-0.5 0.063-1 0.109t-1 0.047q-2.125 0-4.156-0.539t-3.844-1.555-3.344-2.453-2.656-3.25v3.797h-2v-8h7.984v2h-4.922zM18 18h14v10h-6v2h1.984v2h-5.984v-2h2v-2h-6v-10zM20 26h10v-6h-10v6z"></path>
</svg>
