<!-- Generated by IcoMoon.io -->
<svg version="1.1" xmlns="http://www.w3.org/2000/svg" width="32" height="32" viewBox="0 0 32 32">
<title>uniF752</title>
<path d="M16 0q2.203 0 4.25 0.57t3.82 1.617 3.234 2.508 2.508 3.234 1.617 3.82 0.57 4.25-0.57 4.25-1.617 3.82-2.508 3.234-3.234 2.508-3.82 1.617-4.25 0.57-4.25-0.57-3.82-1.617-3.234-2.508-2.508-3.234-1.617-3.82-0.57-4.25 0.57-4.25 1.617-3.82 2.508-3.234 3.234-2.508 3.82-1.617 4.25-0.57zM16 24.344q1.203 0 2.336-0.336t2.117-0.961 1.781-1.508 1.313-1.961l-2.438-1.156q-0.359 0.734-0.891 1.328t-1.203 1.016-1.438 0.656-1.578 0.234q-1.125 0-2.148-0.438t-1.82-1.219h1.969v-2h-6v6h2v-2.219q1.172 1.219 2.734 1.891t3.266 0.672zM24 14v-6h-2v2.219q-1.172-1.219-2.734-1.891t-3.266-0.672q-1.203 0-2.336 0.336t-2.117 0.961-1.781 1.508-1.313 1.961l2.438 1.156q0.344-0.734 0.883-1.328t1.211-1.016 1.438-0.656 1.578-0.234q1.125 0 2.148 0.438t1.82 1.219h-1.969v2h6z"></path>
</svg>
