<!-- Generated by IcoMoon.io -->
<svg version="1.1" xmlns="http://www.w3.org/2000/svg" width="32" height="32" viewBox="0 0 32 32">
<title>uniE619</title>
<path d="M10 24h4.047q-0.5 0.5-0.992 1t-0.992 1h-12.063v-24h26v9.5q-0.5 0-1 0.070t-1 0.18v-3.75h-6v4h5.234q-1.844 0.594-3.25 1.984v0.016h-1.984v3.234q0 0.047-0.031 0.172t-0.078 0.258l-0.094 0.266t-0.063 0.211q-0.234 0.922-0.234 1.859v0.266t0.016 0.266l-1.469 1.469h-0.047v-2h-6v4zM16 18v-4h-6v4h6zM16 12v-4h-6v4h6zM2 4v2h22v-2h-22zM8 24v-4h-6v4h6zM8 18v-4h-6v4h6zM8 12v-4h-6v4h6zM32 20q0 1.25-0.469 2.344t-1.281 1.906-1.906 1.281-2.344 0.469q-1.016 0-2-0.359v2.359h-2v2h-2v2h-6v-4.406l6.172-6.188q-0.094-0.344-0.133-0.695t-0.039-0.711q0-1.25 0.469-2.344t1.281-1.906 1.906-1.281 2.344-0.469q1.234 0 2.328 0.469t1.914 1.289 1.289 1.914 0.469 2.328zM30 20q0-0.828-0.313-1.555t-0.859-1.273-1.273-0.859-1.555-0.313-1.555 0.313-1.273 0.859-0.859 1.273-0.313 1.555q0 0.516 0.141 0.992t0.328 0.961l-6.469 6.453v1.594h2v-2h2v-2h2v-1.422l1.453-1.438q0.328 0.188 0.625 0.344t0.594 0.273 0.617 0.18 0.711 0.063q0.828 0 1.555-0.313t1.273-0.859 0.859-1.273 0.313-1.555zM27 18q0.406 0 0.703 0.297t0.297 0.703-0.297 0.703-0.703 0.297-0.703-0.297-0.297-0.703 0.297-0.703 0.703-0.297z"></path>
</svg>
