<!-- Generated by IcoMoon.io -->
<svg version="1.1" xmlns="http://www.w3.org/2000/svg" width="32" height="32" viewBox="0 0 32 32">
<title>uniE70A</title>
<path d="M29.5 4q0.516 0 0.969 0.195t0.797 0.539 0.539 0.797 0.195 0.969v19q0 0.516-0.195 0.969t-0.539 0.797-0.797 0.539-0.969 0.195h-27q-0.516 0-0.969-0.195t-0.797-0.539-0.539-0.797-0.195-0.969v-19q0-0.516 0.195-0.969t0.539-0.797 0.797-0.539 0.969-0.195h27zM30 25.5v-19q0-0.219-0.141-0.359t-0.359-0.141h-27q-0.219 0-0.359 0.141t-0.141 0.359v19q0 0.219 0.141 0.359t0.359 0.141h27q0.219 0 0.359-0.141t0.141-0.359zM14 24v-2h4v2h-4z"></path>
</svg>
