<!-- Generated by IcoMoon.io -->
<svg version="1.1" xmlns="http://www.w3.org/2000/svg" width="32" height="32" viewBox="0 0 32 32">
<title>uniE3F6</title>
<path d="M25 13q-0.422 0-0.781-0.156t-0.633-0.43-0.43-0.633-0.156-0.781 0.156-0.781 0.43-0.633 0.633-0.43 0.781-0.156 0.781 0.156 0.633 0.43 0.43 0.633 0.156 0.781-0.156 0.781-0.43 0.633-0.633 0.43-0.781 0.156zM28 4h4v13.422l-14 14q-4.344-4.359-8.695-8.719t-8.727-8.703l14-14h13.422v4zM15.422 2l-12 12 2.578 2.578 12.578-12.578h7.422v-2h-10.578zM30 16.578v-10.578h-10.578l-12 12 10.578 10.578z"></path>
</svg>
