<!-- Generated by IcoMoon.io -->
<svg version="1.1" xmlns="http://www.w3.org/2000/svg" width="32" height="32" viewBox="0 0 32 32">
<title>uniF6E2</title>
<path d="M21.328 6.672q0-0.563 0.391-0.953t0.953-0.391q0.281 0 0.523 0.109t0.422 0.289 0.281 0.422 0.102 0.523q0 0.547-0.391 0.938t-0.938 0.391q-0.281 0-0.523-0.102t-0.422-0.281-0.289-0.422-0.109-0.523zM13.328 25.469l3.875-3.875q0.438 1.156 1.094 2.109l-4.969 4.969-12.656-12.672 16-16h12.656v10.672h-2.656v-8h-9.469l-13.328 13.328zM24 32v-2.672h2.672v2.672h-2.672zM25.328 13.328q1.109 0 2.078 0.422t1.695 1.148 1.148 1.695 0.422 2.078h-2.672q0-0.547-0.211-1.031t-0.578-0.852-0.852-0.578-1.031-0.211-1.031 0.211-0.844 0.578-0.57 0.852-0.211 1.031q0 0.609 0.297 1.094t0.742 0.938 0.961 0.922 0.961 1.039 0.742 1.305 0.297 1.703v1h-2.672v-1q0-0.609-0.297-1.094t-0.742-0.938-0.961-0.922-0.961-1.047-0.742-1.305-0.297-1.695q0-1.094 0.414-2.070t1.141-1.703 1.695-1.148 2.078-0.422z"></path>
</svg>
