<!-- Generated by IcoMoon.io -->
<svg version="1.1" xmlns="http://www.w3.org/2000/svg" width="32" height="32" viewBox="0 0 32 32">
<title>uniF6E0</title>
<path d="M25 7q0 0.422-0.156 0.781t-0.43 0.633-0.633 0.43-0.781 0.156-0.781-0.156-0.633-0.43-0.43-0.633-0.156-0.781 0.156-0.781 0.43-0.633 0.633-0.43 0.781-0.156 0.781 0.156 0.633 0.43 0.43 0.633 0.156 0.781zM2.828 16l11.172 11.172 6-6v2.828l-6 6-14-14 16-16h14v14l-1.641 1.641q-0.688-0.141-1.359-0.141-0.391 0-0.773 0.055t-0.758 0.148l2.531-2.531v-11.172h-11.172zM26 32v-2h2v2h-2zM27 18q0.828 0 1.555 0.313t1.273 0.859 0.859 1.273 0.313 1.555h-2q0-0.422-0.156-0.781t-0.43-0.633-0.633-0.43-0.781-0.156-0.781 0.156-0.633 0.43-0.43 0.633-0.156 0.781q0 0.453 0.219 0.813t0.555 0.703 0.727 0.695 0.727 0.789 0.555 0.984 0.219 1.266v0.75h-2v-0.75q0-0.453-0.219-0.813t-0.555-0.703-0.727-0.695-0.727-0.789-0.555-0.977-0.219-1.273q0-0.828 0.313-1.555t0.859-1.273 1.273-0.859 1.555-0.313z"></path>
</svg>
