<!-- Generated by IcoMoon.io -->
<svg version="1.1" xmlns="http://www.w3.org/2000/svg" width="32" height="32" viewBox="0 0 32 32">
<title>uniF6DF</title>
<path d="M25 7q0 0.422-0.156 0.781t-0.43 0.633-0.633 0.43-0.781 0.156-0.781-0.156-0.633-0.43-0.43-0.633-0.156-0.781 0.156-0.781 0.43-0.633 0.633-0.43 0.781-0.156 0.781 0.156 0.633 0.43 0.43 0.633 0.156 0.781zM2.828 16l11.172 11.172 6-6v2.828l-6 6-14-14 16-16h14v14l-1.641 1.641q-0.688-0.141-1.359-0.141-0.391 0-0.773 0.055t-0.758 0.148l2.531-2.531v-11.172h-11.172zM26 32v-2h2v2h-2zM27 18q0.828 0 1.555 0.313t1.273 0.859 0.859 1.273 0.313 1.555q0 0.719-0.219 1.266t-0.578 1.016-0.813 0.898-0.922 0.898q-0.313 0.313-0.398 0.664t-0.086 0.742q0 0.125 0.008 0.258t0.008 0.258h-2v-0.75q0-0.719 0.219-1.266t0.555-0.984 0.727-0.789 0.727-0.695 0.555-0.703 0.219-0.813q0-0.422-0.156-0.781t-0.43-0.633-0.633-0.43-0.781-0.156-0.781 0.156-0.633 0.43-0.43 0.633-0.156 0.781h-2q0-0.828 0.313-1.555t0.859-1.273 1.273-0.859 1.555-0.313z"></path>
</svg>
