<!-- Generated by IcoMoon.io -->
<svg version="1.1" xmlns="http://www.w3.org/2000/svg" width="32" height="32" viewBox="0 0 32 32">
<title>uniE3B6</title>
<path d="M12 4h20v2h-20v-2zM12 16v-2h20v2h-20zM12 26v-2h20v2h-20zM4 12q0.828 0 1.555 0.313t1.273 0.859 0.859 1.273 0.313 1.555-0.313 1.555-0.859 1.273-1.273 0.859-1.555 0.313-1.555-0.313-1.273-0.859-0.859-1.273-0.313-1.555 0.313-1.555 0.859-1.273 1.273-0.859 1.555-0.313zM4 18.25q0.469 0 0.875-0.18t0.711-0.484 0.484-0.711 0.18-0.875-0.18-0.875-0.484-0.711-0.711-0.484-0.875-0.18-0.875 0.18-0.711 0.484-0.484 0.711-0.18 0.875 0.18 0.875 0.484 0.711 0.711 0.484 0.875 0.18zM4 22q0.828 0 1.555 0.313t1.273 0.859 0.859 1.273 0.313 1.555-0.313 1.555-0.859 1.273-1.273 0.859-1.555 0.313-1.555-0.313-1.273-0.859-0.859-1.273-0.313-1.555 0.313-1.555 0.859-1.273 1.273-0.859 1.555-0.313zM4 28.25q0.469 0 0.875-0.18t0.711-0.484 0.484-0.711 0.18-0.875-0.18-0.875-0.484-0.711-0.711-0.484-0.875-0.18-0.875 0.18-0.711 0.484-0.484 0.711-0.18 0.875 0.18 0.875 0.484 0.711 0.711 0.484 0.875 0.18zM3 5.594l4.297-4.297 1.406 1.406-5.703 5.703-2.703-2.703 1.406-1.406z"></path>
</svg>
