<!-- Generated by IcoMoon.io -->
<svg version="1.1" xmlns="http://www.w3.org/2000/svg" width="32" height="32" viewBox="0 0 32 32">
<title>uniE4FD</title>
<path d="M6 6v24h18v2h-20v-28h8q0-0.828 0.313-1.555t0.859-1.273 1.273-0.859 1.555-0.313 1.555 0.313 1.273 0.859 0.859 1.273 0.313 1.555h8v16h-2v-14h-2v4h-16v-4h-2zM10 6v2h12v-2h-4v-2q0-0.625-0.328-1.102t-0.891-0.742q-0.359-0.156-0.781-0.156t-0.781 0.156q-0.563 0.266-0.891 0.742t-0.328 1.102v2h-4zM28 26h4v2h-4v4h-2v-4h-4v-2h4v-4h2v4zM11.203 19.797l2.797 2.781 7.297-7.281 1.406 1.406-8.703 8.719-4.203-4.219z"></path>
</svg>
