<!-- Generated by IcoMoon.io -->
<svg version="1.1" xmlns="http://www.w3.org/2000/svg" width="32" height="32" viewBox="0 0 32 32">
<title>uniF493</title>
<path d="M29.594 6.047q0 0.188-0.125 0.344l-13.938 17.938-9.719-10.484q-0.141-0.141-0.141-0.375 0-0.25 0.172-0.422l2.297-2.125q0.156-0.156 0.391-0.156t0.406 0.172l6.313 6.797 10.859-13.953q0.172-0.219 0.438-0.219 0.188 0 0.359 0.125l2.469 1.922q0.219 0.188 0.219 0.438zM26 28v-12.781l2-2.563v17.344h-26v-26h20.766l-1.563 2h-17.203v22h22z"></path>
</svg>
