<!-- Generated by IcoMoon.io -->
<svg version="1.1" xmlns="http://www.w3.org/2000/svg" width="32" height="32" viewBox="0 0 32 32">
<title>uniF4A1</title>
<path d="M6 18q0.422 0 0.781 0.156t0.633 0.43 0.43 0.633 0.156 0.781-0.156 0.781-0.43 0.633-0.633 0.43-0.781 0.156-0.781-0.156-0.633-0.43-0.43-0.633-0.156-0.781 0.156-0.781 0.43-0.633 0.633-0.43 0.781-0.156zM26 18q0.422 0 0.781 0.156t0.633 0.43 0.43 0.633 0.156 0.781-0.156 0.781-0.43 0.633-0.633 0.43-0.781 0.156-0.781-0.156-0.633-0.43-0.43-0.633-0.156-0.781 0.156-0.781 0.43-0.633 0.633-0.43 0.781-0.156zM32 14h-0.578l-1.031 1.016q0.031 0.078 0.156 0.469t0.305 0.922 0.383 1.141 0.375 1.117 0.281 0.844l0.109 0.336v10.156q0 0.422-0.156 0.781t-0.43 0.633-0.633 0.43-0.781 0.156h-2q-0.422 0-0.781-0.156t-0.633-0.43-0.43-0.633-0.156-0.781h-20q0 0.422-0.156 0.781t-0.43 0.633-0.633 0.43-0.781 0.156h-2q-0.422 0-0.781-0.156t-0.633-0.43-0.43-0.633-0.156-0.781v-10.156l0.109-0.336t0.281-0.844 0.375-1.117 0.383-1.141 0.305-0.922 0.156-0.469l-1.031-1.016h-0.578v-2h1.422l0.891 0.906 1.156-3.484q0.266-0.813 0.75-1.445t1.133-1.070 1.414-0.672 1.609-0.234l1.734-3.453q0.125-0.25 0.375-0.398t0.516-0.148h10q0.266 0 0.516 0.148t0.375 0.398l1.734 3.453q0.844 0 1.609 0.234t1.414 0.672 1.133 1.070 0.75 1.445l1.156 3.484 0.891-0.906h1.422v2zM11.625 4l-1 2h10.75l-1-2h-8.75zM4.047 14h23.906l-1.328-3.953q-0.313-0.922-1.086-1.484t-1.758-0.563h-15.563q-0.984 0-1.758 0.563t-1.086 1.484zM22 28v-0.766l-1.625-3.234h-8.75l-1.625 3.234v0.766h12zM24 28h6v-7.844l-0.094-0.289t-0.242-0.727-0.32-0.961-0.328-0.984-0.266-0.789-0.141-0.406h-25.219q-0.031 0.078-0.141 0.406t-0.266 0.789-0.328 0.984-0.32 0.961-0.242 0.727l-0.094 0.289v7.844h6v-1.234l2.375-4.766h11.25l2.375 4.766v1.234z"></path>
</svg>
