<!-- Generated by IcoMoon.io -->
<svg version="1.1" xmlns="http://www.w3.org/2000/svg" width="32" height="32" viewBox="0 0 32 32">
<title>uniF27A</title>
<path d="M27.5 11q-0.734 0-1.367-0.273t-1.109-0.75-0.75-1.109-0.273-1.367q0-0.719 0.273-1.359t0.75-1.117 1.109-0.75 1.367-0.273q0.719 0 1.359 0.273t1.117 0.75 0.75 1.117 0.273 1.359q0 0.734-0.273 1.367t-0.75 1.109-1.117 0.75-1.359 0.273zM27.5 6q-0.625 0-1.063 0.438t-0.438 1.063 0.438 1.063 1.063 0.438 1.063-0.438 0.438-1.063-0.438-1.063-1.063-0.438zM32 13.5v7.438q0 1.031-0.391 1.945t-1.070 1.594-1.594 1.070-1.945 0.391q-0.594 0-1.211-0.141t-1.133-0.438q-0.391 1.266-1.141 2.305t-1.758 1.781-2.227 1.148-2.531 0.406q-1.531 0-2.883-0.531t-2.406-1.469-1.75-2.219-0.898-2.781h-7.734q-0.547 0-0.938-0.391t-0.391-0.938v-13.344q0-0.547 0.391-0.938t0.938-0.391h11.453q-0.453-0.953-0.453-2 0-0.969 0.367-1.82t1-1.484 1.484-1 1.82-0.367 1.82 0.367 1.484 1 1 1.484 0.367 1.82-0.367 1.82-1 1.484-1.484 1-1.82 0.367q-0.25 0-0.5-0.031t-0.5-0.078v1.438h14.5q0.625 0 1.063 0.438t0.438 1.063zM17 3.328q-0.547 0-1.039 0.211t-0.852 0.578-0.57 0.852-0.211 1.031 0.211 1.039 0.57 0.852 0.852 0.57 1.039 0.211 1.031-0.211 0.852-0.57 0.578-0.852 0.211-1.039-0.211-1.031-0.578-0.852-0.852-0.578-1.031-0.211zM9.25 13.25h3v-2.5h-8.5v2.5h3v8h2.5v-8zM23 23v-9h-7v8.672q0 0.547-0.391 0.938t-0.938 0.391h-3.594q0.203 1.078 0.742 2t1.313 1.586 1.758 1.039 2.109 0.375q1.234 0 2.328-0.469t1.914-1.289 1.289-1.906 0.469-2.336zM30 20.938v-6.938h-5v9.141q0.406 0.406 0.922 0.602t1.078 0.195q0.625 0 1.172-0.234t0.953-0.641 0.641-0.953 0.234-1.172z"></path>
</svg>
