<!-- Generated by IcoMoon.io -->
<svg version="1.1" xmlns="http://www.w3.org/2000/svg" width="32" height="32" viewBox="0 0 32 32">
<title>uniF40A</title>
<path d="M32 13.641q0 2.047-0.008 4.070t-0.008 4.070q0 1.125-0.43 2.125t-1.164 1.734-1.734 1.164-2.125 0.43q-0.781 0-1.484-0.203-0.578 1.141-1.43 2.063t-1.891 1.563-2.242 0.992-2.484 0.352q-1.438 0-2.758-0.43t-2.438-1.219-1.969-1.898-1.32-2.453h-6.516q-0.406 0-0.773-0.156t-0.641-0.43-0.43-0.641-0.156-0.773v-16q0-0.406 0.156-0.773t0.43-0.641 0.641-0.43 0.773-0.156h10q0-1.234 0.469-2.328t1.289-1.914 1.906-1.289 2.336-0.469q1.234 0 2.328 0.469t1.914 1.289 1.289 1.914 0.469 2.328q0 0.953-0.289 1.836t-0.813 1.625-1.266 1.313-1.633 0.883v0.344h10.359q0.344 0 0.641 0.133t0.516 0.352 0.352 0.516 0.133 0.641zM18 2q-0.828 0-1.555 0.313t-1.273 0.859-0.859 1.273-0.313 1.555h4q0.406 0 0.773 0.156t0.641 0.43 0.43 0.641 0.156 0.773v1.469q0.938-0.547 1.469-1.469t0.531-2q0-0.828-0.313-1.555t-0.859-1.273-1.273-0.859-1.555-0.313zM9.5 22.5h3v-10h4v-3h-11v3h4v10zM24 23v-9h-4v10q0 0.406-0.156 0.773t-0.43 0.641-0.641 0.43-0.773 0.156h-7.328q0.438 0.922 1.102 1.656t1.492 1.258 1.773 0.805 1.961 0.281q1.453 0 2.727-0.555t2.219-1.5 1.5-2.219 0.555-2.727zM30 21.781v-7.781h-4v9q0 1.063-0.266 2.156 0.438 0.078 0.797 0.078 0.719 0 1.352-0.273t1.102-0.742 0.742-1.094 0.273-1.344zM28 10q-0.828 0-1.555-0.313t-1.273-0.859-0.859-1.273-0.313-1.555 0.313-1.555 0.859-1.273 1.273-0.859 1.555-0.313 1.555 0.313 1.273 0.859 0.859 1.273 0.313 1.555-0.313 1.555-0.859 1.273-1.273 0.859-1.555 0.313zM28 4q-0.422 0-0.781 0.156t-0.633 0.43-0.43 0.633-0.156 0.781 0.156 0.781 0.43 0.633 0.633 0.43 0.781 0.156 0.781-0.156 0.633-0.43 0.43-0.633 0.156-0.781-0.156-0.781-0.43-0.633-0.633-0.43-0.781-0.156z"></path>
</svg>
