<!-- Generated by IcoMoon.io -->
<svg version="1.1" xmlns="http://www.w3.org/2000/svg" width="32" height="32" viewBox="0 0 32 32">
<title>uniEA12</title>
<path d="M26 17q1.031 0 1.945 0.391t1.594 1.070 1.070 1.594 0.391 1.945q0 0.813-0.258 1.578t-0.742 1.422v6.625l-4-2-4 2v-6.625q-0.484-0.656-0.742-1.422t-0.258-1.578q0-1.031 0.391-1.945t1.070-1.594 1.594-1.070 1.945-0.391zM26 19q-0.625 0-1.172 0.234t-0.953 0.641-0.641 0.953-0.234 1.172 0.234 1.172 0.641 0.953 0.953 0.641 1.172 0.234 1.172-0.234 0.953-0.641 0.641-0.953 0.234-1.172-0.234-1.172-0.641-0.953-0.953-0.641-1.172-0.234zM28 28.375v-1.797q-0.938 0.422-2 0.422t-2-0.422v1.797l2-1zM26 8q-0.828 0-1.555 0.313t-1.273 0.859-0.859 1.273-0.313 1.555q0 1.438-0.648 2.711t-1.805 2.133q0.297 0.141 0.57 0.313t0.539 0.359l-1.172 1.625q-0.766-0.547-1.656-0.844t-1.828-0.297q-1.25 0-2.336 0.469t-1.906 1.289-1.289 1.914-0.469 2.328h-2q0-1.141 0.313-2.211t0.891-2 1.398-1.688 1.836-1.273q-1.156-0.859-1.797-2.125t-0.641-2.703q0-0.828-0.313-1.555t-0.859-1.273-1.273-0.859-1.555-0.313-1.555 0.313-1.273 0.859-0.859 1.273-0.313 1.555h-2q0-0.813 0.219-1.586t0.617-1.453 0.969-1.242 1.289-0.969q-0.516-0.547-0.805-1.266t-0.289-1.484q0-0.828 0.313-1.555t0.859-1.273 1.273-0.859 1.555-0.313 1.555 0.313 1.273 0.859 0.859 1.273 0.313 1.555q0 0.766-0.289 1.484t-0.805 1.266q1.281 0.703 2.094 1.938 0.422-0.625 0.969-1.125t1.188-0.844 1.367-0.531 1.477-0.188 1.469 0.188 1.367 0.531 1.195 0.844 0.969 1.125q0.813-1.234 2.094-1.938-0.516-0.547-0.805-1.266t-0.289-1.484q0-0.828 0.313-1.555t0.859-1.273 1.273-0.859 1.555-0.313 1.555 0.313 1.273 0.859 0.859 1.273 0.313 1.555q0 0.766-0.289 1.484t-0.805 1.266q0.719 0.406 1.289 0.969t0.969 1.242 0.617 1.453 0.219 1.586h-2q0-0.828-0.313-1.555t-0.859-1.273-1.273-0.859-1.555-0.313zM24 4q0 0.422 0.156 0.781t0.43 0.633 0.633 0.43 0.781 0.156 0.781-0.156 0.633-0.43 0.43-0.633 0.156-0.781-0.156-0.781-0.43-0.633-0.633-0.43-0.781-0.156-0.781 0.156-0.633 0.43-0.43 0.633-0.156 0.781zM4 4q0 0.422 0.156 0.781t0.43 0.633 0.633 0.43 0.781 0.156 0.781-0.156 0.633-0.43 0.43-0.633 0.156-0.781-0.156-0.781-0.43-0.633-0.633-0.43-0.781-0.156-0.781 0.156-0.633 0.43-0.43 0.633-0.156 0.781zM12 12q0 0.828 0.313 1.555t0.859 1.273 1.273 0.859 1.555 0.313 1.555-0.313 1.273-0.859 0.859-1.273 0.313-1.555-0.313-1.555-0.859-1.273-1.273-0.859-1.555-0.313-1.555 0.313-1.273 0.859-0.859 1.273-0.313 1.555z"></path>
</svg>
