<!-- Generated by IcoMoon.io -->
<svg version="1.1" xmlns="http://www.w3.org/2000/svg" width="32" height="32" viewBox="0 0 32 32">
<title>uniF4A0</title>
<path d="M16 8q1.094 0 2.070-0.313t1.93-0.688 1.922-0.688 2.078-0.313v2q-0.688 0-1.313 0.148t-1.227 0.367-1.211 0.484-1.266 0.484-1.391 0.367-1.594 0.148-1.594-0.148-1.391-0.367-1.258-0.484-1.211-0.484-1.234-0.367-1.313-0.148v-2q1.078 0 2.063 0.313t1.938 0.688 1.938 0.688 2.063 0.313zM32 9.047q0 2.766-0.406 5.633t-1.195 5.672-1.961 5.453-2.703 4.977q-0.375 0.563-0.953 0.891t-1.266 0.328q-0.859 0-1.547-0.492t-0.953-1.305l-2.781-8.313q-0.547 0.063-1.109 0.086t-1.125 0.023-1.125-0.023-1.109-0.086l-2.781 8.313q-0.266 0.813-0.953 1.305t-1.547 0.492q-0.688 0-1.266-0.328t-0.953-0.891q-1.531-2.328-2.703-4.977t-1.961-5.453-1.195-5.672-0.406-5.633q0-1.75 0.531-3.383t1.547-2.891 2.5-2.016 3.391-0.758q1.109 0 2.086 0.313t1.93 0.688 1.93 0.688 2.086 0.313 2.086-0.313 1.93-0.688 1.93-0.688 2.086-0.313q1.906 0 3.391 0.758t2.5 2.016 1.547 2.891 0.531 3.383zM30 9.078q0-1.453-0.391-2.742t-1.18-2.25-1.961-1.523-2.734-0.563q-0.906 0-1.742 0.313t-1.742 0.688-1.938 0.688-2.313 0.313q-1.297 0-2.32-0.313t-1.93-0.688-1.789-0.688-1.898-0.313q-1.516 0-2.656 0.594t-1.898 1.578-1.133 2.258-0.375 2.648q0 1.531 0.18 3.305t0.531 3.648 0.859 3.773 1.172 3.68 1.477 3.375 1.75 2.844q0.234 0.297 0.594 0.297 0.188 0 0.484-0.57t0.633-1.461 0.695-1.969 0.68-2.086 0.57-1.836 0.375-1.203q0.125-0.406 0.477-0.711t0.805-0.305q0.688 0 1.359 0.070t1.359 0.070 1.359-0.070 1.359-0.070q0.453 0 0.805 0.305t0.477 0.711q0.125 0.375 0.375 1.203t0.57 1.836 0.68 2.086 0.695 1.969 0.633 1.461 0.484 0.57q0.359 0 0.594-0.297 0.938-1.25 1.75-2.844t1.477-3.375 1.172-3.68 0.859-3.766 0.531-3.648 0.18-3.313z"></path>
</svg>
