<!-- Generated by IcoMoon.io -->
<svg version="1.1" xmlns="http://www.w3.org/2000/svg" width="32" height="32" viewBox="0 0 32 32">
<title>uniE7B9</title>
<path d="M30 32h-2q0-1.656-0.43-3.188t-1.211-2.867-1.875-2.43-2.43-1.875-2.867-1.211-3.188-0.43-3.188 0.43-2.867 1.211-2.43 1.875-1.875 2.43-1.211 2.867-0.43 3.188h-2q0-2.266 0.664-4.313t1.883-3.758 2.93-3.016 3.805-2.102q-1.938-1.047-3.281-2.813h-1q-0.625 0-1.172-0.234t-0.953-0.641-0.641-0.953-0.234-1.172v-4q0-0.594 0.219-1.125t0.602-0.938 0.898-0.656 1.109-0.281q0.609-1.375 1.555-2.484t2.141-1.891 2.586-1.203 2.891-0.422 2.891 0.422 2.586 1.203 2.141 1.891 1.555 2.484q0.594 0.031 1.109 0.281t0.898 0.656 0.602 0.938 0.219 1.125v4q0 0.625-0.234 1.172t-0.641 0.953-0.953 0.641-1.172 0.234q-0.469 0-0.891-0.141-0.672 0.922-1.523 1.672t-1.867 1.281q2.094 0.797 3.805 2.102t2.93 3.016 1.883 3.758 0.664 4.313zM26 9q0-0.406-0.297-0.703t-0.703-0.297-0.703 0.297-0.297 0.703v4q0 0.406 0.297 0.703t0.703 0.297 0.703-0.297 0.297-0.703v-4zM6 13q0 0.406 0.297 0.703t0.703 0.297h1v-5q0-0.406-0.297-0.703t-0.703-0.297-0.703 0.297-0.297 0.703v4zM10.703 16q1.094 0.969 2.461 1.484t2.836 0.516q0.969 0 1.891-0.227t1.758-0.656 1.563-1.047 1.289-1.414q-0.25-0.359-0.375-0.789t-0.125-0.867v-4q0-0.719 0.32-1.359t0.914-1.063q-0.5-1.047-1.258-1.891t-1.695-1.445-2.031-0.922-2.25-0.32-2.25 0.32-2.031 0.922-1.695 1.445-1.258 1.891q0.594 0.422 0.914 1.063t0.32 1.359v5h2q0-0.422 0.156-0.781t0.43-0.633 0.633-0.43 0.781-0.156 0.781 0.156 0.633 0.43 0.43 0.633 0.156 0.781-0.156 0.781-0.43 0.633-0.633 0.43-0.781 0.156h-3.297z"></path>
</svg>
