<!-- Generated by IcoMoon.io -->
<svg version="1.1" xmlns="http://www.w3.org/2000/svg" width="32" height="32" viewBox="0 0 32 32">
<title>uniE4AD</title>
<path d="M18.5 11q0 0.516-0.195 0.969t-0.539 0.797-0.797 0.539-0.969 0.195-0.969-0.195-0.797-0.539-0.539-0.797-0.195-0.969 0.195-0.969 0.539-0.797 0.797-0.539 0.969-0.195 0.969 0.195 0.797 0.539 0.539 0.797 0.195 0.969zM26.5 11q0 0.516-0.195 0.969t-0.539 0.797-0.797 0.539-0.969 0.195-0.969-0.195-0.797-0.539-0.539-0.797-0.195-0.969 0.195-0.969 0.539-0.797 0.797-0.539 0.969-0.195 0.969 0.195 0.797 0.539 0.539 0.797 0.195 0.969zM0 0h32v17.281q-0.453-0.531-0.945-1t-1.055-0.875v-13.406h-28v18h12.297q-0.203 0.484-0.344 0.984t-0.25 1.016h-13.703v-22zM5.5 11q0-0.516 0.195-0.969t0.539-0.797 0.797-0.539 0.969-0.195 0.969 0.195 0.797 0.539 0.539 0.797 0.195 0.969-0.195 0.969-0.539 0.797-0.797 0.539-0.969 0.195-0.969-0.195-0.797-0.539-0.539-0.797-0.195-0.969zM24 16q1.656 0 3.117 0.625t2.547 1.711 1.711 2.547 0.625 3.117-0.625 3.117-1.711 2.547-2.547 1.711-3.117 0.625-3.117-0.625-2.547-1.711-1.711-2.547-0.625-3.117 0.625-3.117 1.711-2.547 2.547-1.711 3.117-0.625zM24 30q1.234 0 2.328-0.469t1.914-1.289 1.289-1.906 0.469-2.336q0-1.234-0.469-2.328t-1.289-1.914-1.914-1.289-2.328-0.469q-1.25 0-2.336 0.469t-1.906 1.289-1.289 1.914-0.469 2.328q0 1.25 0.469 2.336t1.289 1.906 1.906 1.289 2.336 0.469zM24 20v4h3v2h-5v-6h2z"></path>
</svg>
