<!-- Generated by IcoMoon.io -->
<svg version="1.1" xmlns="http://www.w3.org/2000/svg" width="32" height="32" viewBox="0 0 32 32">
<title>uniEE58</title>
<path d="M24 16q1.656 0 3.117 0.625t2.547 1.711 1.711 2.547 0.625 3.117-0.625 3.117-1.711 2.547-2.547 1.711-3.117 0.625-3.117-0.625-2.547-1.711-1.711-2.547-0.625-3.117 0.625-3.117 1.711-2.547 2.547-1.711 3.117-0.625zM24 30q1.234 0 2.328-0.469t1.914-1.289 1.289-1.906 0.469-2.336q0-1.234-0.469-2.328t-1.289-1.914-1.914-1.289-2.328-0.469q-1.25 0-2.336 0.469t-1.906 1.289-1.289 1.914-0.469 2.328q0 1.25 0.469 2.336t1.289 1.906 1.906 1.289 2.336 0.469zM24 24h3v2h-5v-6h2v4zM18.281 15.813q-0.438 0.313-0.828 0.656t-0.75 0.734q-1.078-0.578-2.273-0.891t-2.43-0.313q-1.375 0-2.656 0.359t-2.391 1.008-2.023 1.563-1.563 2.023-1.008 2.391-0.359 2.656h-2q0-1.875 0.555-3.609t1.57-3.203 2.445-2.609 3.18-1.797q-1.766-1.156-2.758-2.906t-0.992-3.875q0-1.656 0.625-3.117t1.711-2.547 2.547-1.711 3.117-0.625 3.117 0.625 2.547 1.711 1.711 2.547 0.625 3.117q0 1.031-0.258 2.016t-0.742 1.867-1.188 1.625-1.578 1.273q1.094 0.438 2.047 1.031zM6 8q0 1.25 0.469 2.336t1.289 1.906 1.906 1.289 2.336 0.469q1.234 0 2.328-0.469t1.914-1.289 1.289-1.906 0.469-2.336q0-1.234-0.469-2.328t-1.289-1.914-1.914-1.289-2.328-0.469q-1.25 0-2.336 0.469t-1.906 1.289-1.289 1.914-0.469 2.328z"></path>
</svg>
