<!-- Generated by IcoMoon.io -->
<svg version="1.1" xmlns="http://www.w3.org/2000/svg" width="32" height="32" viewBox="0 0 32 32">
<title>uniEB33</title>
<path d="M16 0q2.203 0 4.25 0.57t3.828 1.609 3.242 2.5 2.5 3.242 1.609 3.828 0.57 4.25-0.57 4.25-1.609 3.828-2.5 3.242-3.242 2.5-3.828 1.609-4.25 0.57-4.25-0.57-3.828-1.609-3.242-2.5-2.5-3.242-1.609-3.82-0.57-4.258q0-2.203 0.57-4.25t1.609-3.828 2.5-3.242 3.242-2.5 3.82-1.609 4.258-0.57zM16 2q-1.922 0-3.711 0.5t-3.344 1.414-2.836 2.195-2.195 2.836-1.414 3.344-0.5 3.711q0 1.016 0.141 2 1.906-0.031 3.43-0.766t2.711-1.922 2.055-2.719 1.477-3.172q0.375-1.031 0.852-2.039t1.055-1.953 1.273-1.813 1.523-1.602q-0.125-0.016-0.258-0.016h-0.258zM2.578 19.984q0.5 1.688 1.406 3.188t2.125 2.719 2.719 2.125 3.188 1.406q0.125-2.188 0.977-3.938t2.203-3.109 3.086-2.359 3.641-1.703q1.031-0.375 2.156-0.938t2.172-1.289 1.922-1.602 1.406-1.891q-0.469-1.875-1.414-3.516t-2.273-2.969-2.969-2.273-3.516-1.414q-1.016 0.531-1.891 1.406t-1.602 1.922-1.289 2.172-0.938 2.156q-0.703 1.906-1.703 3.641t-2.359 3.086-3.109 2.203-3.938 0.977zM16 30q1.922 0 3.711-0.5t3.344-1.414 2.836-2.195 2.195-2.836 1.414-3.336 0.5-3.719v-0.258t-0.016-0.258q-0.734 0.828-1.602 1.523t-1.813 1.273-1.953 1.055-2.039 0.852q-1.641 0.609-3.172 1.477t-2.719 2.055-1.922 2.711-0.766 3.43q0.984 0.141 2 0.141z"></path>
</svg>
