<!-- Generated by IcoMoon.io -->
<svg version="1.1" xmlns="http://www.w3.org/2000/svg" width="32" height="32" viewBox="0 0 32 32">
<title>uniF3AA</title>
<path d="M12.469 28.906q0 0.609 0.25 1.172t0.672 0.992 0.984 0.68 1.172 0.25h-10.016q-0.625 0-1.172-0.234t-0.961-0.641-0.648-0.953-0.234-1.172q0-0.422 0.109-0.805t0.328-0.742l8.891-15.469q0.156-0.281 0.156-0.547v-9.438h-2v-2h12v2h-2v6.016h-0.172q-0.516 0-0.945 0.102t-0.883 0.414v-6.531h-4v9.438q0 0.813-0.438 1.563l-5.156 9h7.594l-3.109 5.438q-0.203 0.359-0.313 0.711t-0.109 0.758zM29.047 27.484q0.219 0.359 0.328 0.727t0.109 0.789q0 0.625-0.234 1.172t-0.648 0.953-0.961 0.641-1.156 0.234h-10.938q0.766 0 1.477-0.391t1.102-1.063l4.531-7.828q0.094 0.531 0.391 0.969t0.719 0.758 0.93 0.492 1.023 0.172q0.906 0 1.688-0.5zM28.953 15.313q0.438 0 0.742 0.336t0.305 0.758q0 0.219-0.125 0.438l-3.313 5.781q-0.281 0.484-0.844 0.484-0.453 0-0.797-0.305t-0.344-0.758q0-0.281 0.117-0.469t0.273-0.406l-2.797-1.609-5.781 9.984q-0.125 0.219-0.367 0.336t-0.492 0.117q-0.219 0-0.406-0.094t-0.336-0.25-0.234-0.359-0.086-0.406q0-0.219 0.125-0.422l5.719-9.969-2.734-1.594q-0.125 0.188-0.219 0.344t-0.195 0.273-0.258 0.188-0.391 0.070q-0.453 0-0.813-0.289t-0.359-0.758q0-0.109 0.023-0.25t0.086-0.234l3.391-5.781q0.125-0.219 0.359-0.344t0.5-0.125q0.438 0 0.781 0.328t0.344 0.766q0 0.266-0.125 0.445t-0.266 0.383l7.391 4.25q0.234-0.344 0.445-0.602t0.68-0.258z"></path>
</svg>
