<!-- Generated by IcoMoon.io -->
<svg version="1.1" xmlns="http://www.w3.org/2000/svg" width="32" height="32" viewBox="0 0 32 32">
<title>uniF3AD</title>
<path d="M1.953 11.188q0 1.656 0.523 2.984t1.469 2.258 2.289 1.43 2.984 0.5q1.156 0 2.297-0.195t2.188-0.695v1.688q-1.125 0.469-2.344 0.633t-2.422 0.164q-1.969 0-3.609-0.609t-2.828-1.734-1.844-2.734-0.656-3.609q0-2.016 0.688-3.719t1.914-2.93 2.922-1.922 3.711-0.695q1.797 0 3.391 0.539t2.789 1.555 1.891 2.5 0.695 3.375q0 0.516-0.063 1.023t-0.188 1.008h-1.75v2.906q-1.156 0.984-2.641 0.984-1.188 0-1.859-0.555t-0.719-1.789q-0.375 1.125-1.125 1.734t-1.953 0.609q-0.859 0-1.477-0.344t-1.016-0.914-0.586-1.297-0.188-1.492q0-1.016 0.266-2.031t0.813-1.836 1.391-1.336 2-0.516q0.328 0 0.672 0.094t0.641 0.281 0.523 0.453 0.336 0.609l0.172-1.266h1.813l-0.359 4.047q-0.031 0.453-0.094 0.914t-0.063 0.914q0 0.281 0.031 0.656t0.141 0.711 0.336 0.57 0.617 0.234q0.719 0 1.18-0.477t0.727-1.156 0.367-1.422 0.102-1.289q0-1.547-0.516-2.75t-1.438-2.016-2.18-1.234-2.758-0.422q-1.625 0-2.953 0.602t-2.273 1.633-1.461 2.414-0.516 2.961zM8.25 14.344q0.531 0 0.93-0.227t0.688-0.594 0.477-0.836 0.297-0.969 0.156-0.992 0.047-0.898q0-0.453-0.086-0.844t-0.289-0.68-0.539-0.453-0.836-0.164q-0.766 0-1.273 0.414t-0.82 1.031-0.445 1.336-0.133 1.328q0 0.438 0.094 0.891t0.305 0.82 0.563 0.602 0.867 0.234zM30.672 29.109q0.219 0.438 0.219 0.891 0 0.406-0.156 0.773t-0.43 0.641-0.641 0.43-0.773 0.156h-11.781q-0.406 0-0.773-0.156t-0.641-0.43-0.43-0.641-0.156-0.773q0-0.453 0.219-0.891l4.672-9.344v-3.766h-2v-2h10v2h-2v3.766zM26.891 26l-2.891-5.766v-4.234h-2v4.234l-2.891 5.766h7.781z"></path>
</svg>
