<!-- Generated by IcoMoon.io -->
<svg version="1.1" xmlns="http://www.w3.org/2000/svg" width="32" height="32" viewBox="0 0 32 32">
<title>uniE4DC</title>
<path d="M28 26h4v2h-4v4h-2v-4h-4v-2h4v-4h2v4zM20 24v6h4v2h-20.469q-0.625 0-1.172-0.234t-0.953-0.641-0.641-0.953-0.234-1.172q0-0.422 0.102-0.797t0.32-0.734l8.891-15.5q0.078-0.141 0.117-0.25t0.039-0.281v-9.438h-2v-2h12v2h-2v9.438q0 0.172 0.039 0.289t0.117 0.258l5.844 10.172v1.844h-4zM6.406 22h15.188l-5.172-9.016q-0.203-0.359-0.313-0.75t-0.109-0.797v-9.438h-4v9.438q0 0.406-0.109 0.797t-0.313 0.75z"></path>
</svg>
