<!-- Generated by IcoMoon.io -->
<svg version="1.1" xmlns="http://www.w3.org/2000/svg" width="32" height="32" viewBox="0 0 32 32">
<title>uniF3A5</title>
<path d="M29.047 27.469q0.219 0.359 0.328 0.734t0.109 0.797q0 0.625-0.234 1.172t-0.641 0.953-0.953 0.641-1.172 0.234h-20.953q-0.625 0-1.172-0.234t-0.953-0.641-0.641-0.953-0.234-1.172q0-0.422 0.102-0.797t0.32-0.734l8.891-15.5q0.156-0.219 0.156-0.531v-9.438h-2v-2h12v2h-2v9.438q0 0.297 0.156 0.547zM14 11.438q0 0.828-0.422 1.547l-5.172 9.016h15.188l-5.172-9.016q-0.422-0.719-0.422-1.547v-9.438h-4v9.438zM26.484 30q0.406 0 0.695-0.297t0.289-0.703q0-0.156-0.039-0.273t-0.117-0.242l-2.563-4.484h-17.5l-2.578 4.484q-0.141 0.234-0.141 0.516 0 0.406 0.289 0.703t0.711 0.297h20.953z"></path>
</svg>
