<!-- Generated by IcoMoon.io -->
<svg version="1.1" xmlns="http://www.w3.org/2000/svg" width="32" height="32" viewBox="0 0 32 32">
<title>uniF3AC</title>
<path d="M15.641 24l-1 2h-12.641v-10h8v-6h8v-6h12v8h-2v-6h-8v6h-8v6h-8v6h11.641zM30.672 29.109q0.219 0.438 0.219 0.891 0 0.406-0.156 0.773t-0.43 0.641-0.641 0.43-0.773 0.156h-11.781q-0.406 0-0.773-0.156t-0.641-0.43-0.43-0.641-0.156-0.773q0-0.453 0.219-0.891l4.672-9.344v-3.766h-2v-2h10v2h-2v3.766zM26.891 26l-2.891-5.766v-4.234h-2v4.234l-2.891 5.766h7.781z"></path>
</svg>
