<!-- Generated by IcoMoon.io -->
<svg version="1.1" xmlns="http://www.w3.org/2000/svg" width="32" height="32" viewBox="0 0 32 32">
<title>uniF3A7</title>
<path d="M23 14q1.859 0 3.5 0.711t2.859 1.93 1.93 2.859 0.711 3.5-0.711 3.5-1.93 2.859-2.859 1.93-3.5 0.711-3.5-0.711-2.859-1.93-1.93-2.859-0.711-3.5 0.711-3.5 1.93-2.859 2.859-1.93 3.5-0.711zM24 30.438q1.266-0.188 2.359-0.742t1.938-1.398 1.398-1.938 0.742-2.359h-2.438v-2h2.438q-0.188-1.266-0.742-2.359t-1.398-1.938-1.938-1.398-2.359-0.742v2.438h-2v-2.438q-1.266 0.188-2.359 0.742t-1.938 1.398-1.398 1.938-0.742 2.359h2.438v2h-2.438q0.188 1.266 0.742 2.359t1.398 1.938 1.938 1.398 2.359 0.742v-2.438h2v2.438zM21 23q0-0.594 0.32-1.094t0.852-0.734l4.828-2.172-2.172 4.828q-0.234 0.531-0.734 0.852t-1.094 0.32q-0.422 0-0.781-0.156t-0.633-0.43-0.43-0.633-0.156-0.781zM12 23.25q0 1.281 0.281 2.508t0.813 2.344 1.313 2.109 1.766 1.789h-10.641q-0.625 0-1.172-0.234t-0.961-0.641-0.648-0.953-0.234-1.172q0-0.422 0.109-0.805t0.328-0.742l8.891-15.469q0.156-0.281 0.156-0.547v-9.438h-2v-2h12v2h-2v9.438q0 0.266 0.125 0.492t0.266 0.445q-0.5 0.141-0.977 0.313t-0.93 0.391q-0.234-0.313-0.359-0.781t-0.125-0.859v-9.438h-4v9.438q0 0.813-0.438 1.563l-5.156 9h3.672q-0.031 0.313-0.055 0.625t-0.023 0.625z"></path>
</svg>
