<!-- Generated by IcoMoon.io -->
<svg version="1.1" xmlns="http://www.w3.org/2000/svg" width="32" height="32" viewBox="0 0 32 32">
<title>uniF3A9</title>
<path d="M28.875 26.766q0.719 0.391 1.297 0.953t0.984 1.242 0.625 1.453 0.219 1.586h-2q0-0.828-0.313-1.555t-0.859-1.273-1.273-0.859-1.555-0.313-1.555 0.313-1.273 0.859-0.859 1.273-0.313 1.555h-2q0-0.813 0.219-1.586t0.625-1.453 0.984-1.242 1.297-0.953q-0.531-0.547-0.828-1.266t-0.297-1.5q0-0.828 0.313-1.555t0.859-1.273 1.273-0.859 1.555-0.313 1.555 0.313 1.273 0.859 0.859 1.273 0.313 1.555q0 0.781-0.297 1.5t-0.828 1.266zM26 26q0.422 0 0.781-0.156t0.633-0.43 0.43-0.633 0.156-0.781-0.156-0.781-0.43-0.633-0.633-0.43-0.781-0.156-0.781 0.156-0.633 0.43-0.43 0.633-0.156 0.781 0.156 0.781 0.43 0.633 0.633 0.43 0.781 0.156zM20.438 26.25q-1.172 1.125-1.805 2.625t-0.633 3.125h-12.469q-0.625 0-1.172-0.234t-0.961-0.641-0.648-0.953-0.234-1.172q0-0.422 0.109-0.805t0.328-0.742l8.891-15.469q0.156-0.25 0.156-0.547v-9.438h-2v-2h12v2h-2v9.438q0 0.297 0.141 0.531l3.703 6.438q-0.469 0.188-0.898 0.438t-0.82 0.578l-3.703-6.438q-0.203-0.359-0.313-0.75t-0.109-0.797v-9.438h-4v9.438q0 0.813-0.438 1.563l-5.156 9h11.938q-0.344 1-0.344 2 0 1.188 0.438 2.25z"></path>
</svg>
