<!-- Generated by IcoMoon.io -->
<svg version="1.1" xmlns="http://www.w3.org/2000/svg" width="32" height="32" viewBox="0 0 32 32">
<title>uniF3A8</title>
<path d="M29.906 24.047q0.094 0.469 0.094 0.953t-0.094 0.953l1.938 0.797-0.766 1.859-1.938-0.813q-0.547 0.797-1.344 1.344l0.813 1.938-1.859 0.766-0.797-1.938q-0.469 0.094-0.953 0.094t-0.953-0.094l-0.797 1.938-1.859-0.766 0.813-1.938q-0.797-0.547-1.344-1.344l-1.938 0.813-0.766-1.859 1.938-0.797q-0.094-0.469-0.094-0.953t0.094-0.953l-1.938-0.797 0.766-1.859 1.938 0.813q0.547-0.797 1.344-1.344l-0.813-1.938 1.859-0.766 0.797 1.938q0.469-0.094 0.953-0.094t0.953 0.094l0.797-1.938 1.859 0.766-0.813 1.938q0.797 0.547 1.344 1.344l1.938-0.813 0.766 1.859zM25 28q0.625 0 1.172-0.234t0.953-0.641 0.641-0.953 0.234-1.172-0.234-1.172-0.641-0.953-0.953-0.641-1.172-0.234-1.172 0.234-0.953 0.641-0.641 0.953-0.234 1.172 0.234 1.172 0.641 0.953 0.953 0.641 1.172 0.234zM16 25q0 1.016 0.227 2t0.656 1.875 1.047 1.688 1.414 1.438h-13.813q-0.625 0-1.172-0.234t-0.961-0.641-0.648-0.953-0.234-1.172q0-0.422 0.109-0.805t0.328-0.742l8.891-15.469q0.156-0.281 0.156-0.547v-9.438h-2v-2h12v2h-2v9.438q0 0.297 0.141 0.531l2.5 4.344q-0.984 0.281-1.875 0.75l-2.344-4.078q-0.203-0.359-0.313-0.75t-0.109-0.797v-9.438h-4v9.438q0 0.813-0.438 1.563l-5.156 9h8.109q-0.516 1.453-0.516 3z"></path>
</svg>
