<!-- Generated by IcoMoon.io -->
<svg version="1.1" xmlns="http://www.w3.org/2000/svg" width="32" height="32" viewBox="0 0 32 32">
<title>uniE4AA</title>
<path d="M17.234 30q0.359 0.578 0.813 1.070t0.969 0.93h-17.016v-32h17.422l8.578 8.578v7.719q-0.984-0.344-2-0.453v-5.844h-8v-8h-14v28h13.234zM20 3.422v4.578h4.578zM18 19.016q-0.203 0.234-0.398 0.477t-0.367 0.508h-9.234v-2h10v1.016zM8 24v-2h8v0.938q0 0.219-0.063 0.523t-0.094 0.539h-7.844zM22 14v2h-14v-2h14zM30 25q0 0.484-0.094 0.953l1.938 0.797-0.766 1.859-1.938-0.813q-0.547 0.797-1.344 1.344l0.813 1.938-1.859 0.766-0.797-1.938q-0.469 0.094-0.953 0.094t-0.953-0.094l-0.797 1.938-1.859-0.766 0.813-1.938q-0.797-0.547-1.344-1.344l-1.938 0.813-0.766-1.859 1.938-0.797q-0.094-0.469-0.094-0.953t0.094-0.953l-1.938-0.797 0.766-1.859 1.938 0.813q0.281-0.391 0.609-0.734t0.734-0.609l-0.813-1.938 1.859-0.766 0.797 1.938q0.469-0.094 0.953-0.094t0.953 0.094l0.797-1.938 1.859 0.766-0.813 1.938q0.797 0.547 1.344 1.344l1.938-0.813 0.766 1.859-1.938 0.797q0.094 0.469 0.094 0.953zM28 25q0-0.625-0.234-1.172t-0.641-0.953-0.953-0.641-1.172-0.234-1.172 0.234-0.953 0.641-0.641 0.953-0.234 1.172 0.234 1.172 0.641 0.953 0.953 0.641 1.172 0.234 1.172-0.234 0.953-0.641 0.641-0.953 0.234-1.172z"></path>
</svg>
