<!-- Generated by IcoMoon.io -->
<svg version="1.1" xmlns="http://www.w3.org/2000/svg" width="32" height="32" viewBox="0 0 32 32">
<title>uniEDC3</title>
<path d="M32 4v22h-32v-22h32zM30 6h-28v18h28v-18zM6.203 19.969h-1.781l3.672-9.813h1.828l3.656 9.813h-1.797l-0.875-2.5h-3.859zM8.953 11.609q-0.031 0.156-0.055 0.313t-0.070 0.313l-1.359 3.906h3.016l-1.375-3.906q-0.047-0.141-0.070-0.305t-0.055-0.32h-0.031zM16.141 19.969h-1.594v-10.375h1.594v4.594h0.016q0.406-0.672 0.992-1.031t1.383-0.359q0.75 0 1.289 0.289t0.883 0.773 0.5 1.109 0.156 1.297q0 0.75-0.18 1.445t-0.555 1.234-0.969 0.859-1.438 0.32q-1.344 0-2.063-1.172h-0.016v1.016zM16.125 17.031q0 0.375 0.125 0.711t0.344 0.586 0.539 0.398 0.711 0.148q0.547 0 0.906-0.234t0.578-0.609 0.313-0.844 0.094-0.922q0-0.406-0.094-0.805t-0.297-0.711-0.539-0.5-0.805-0.188q-0.453 0-0.805 0.172t-0.586 0.461-0.359 0.672-0.125 0.805v0.859zM26 20.125q-0.781 0-1.422-0.258t-1.094-0.719-0.703-1.102-0.25-1.422q0-0.859 0.266-1.563t0.758-1.211 1.188-0.781 1.57-0.273q0.438 0 0.859 0.078t0.828 0.25v1.484q-0.344-0.25-0.742-0.398t-0.82-0.148q-0.547 0-0.969 0.195t-0.711 0.523-0.445 0.781-0.156 0.969q0 1.031 0.578 1.688t1.641 0.656q0.453 0 0.859-0.164t0.766-0.445v1.375q-0.453 0.266-0.969 0.375t-1.031 0.109z"></path>
</svg>
