<!-- Generated by IcoMoon.io -->
<svg version="1.1" xmlns="http://www.w3.org/2000/svg" width="32" height="32" viewBox="0 0 32 32">
<title>uniF02B</title>
<path d="M22 16h-14v-2h14v2zM8 18h14v0.875q-0.641 0.5-1.125 1.125h-12.875v-2zM8 22h11.813q-0.313 0.984-0.313 2h-11.5v-2zM4 30h13.75q-0.25 0.953-0.25 2h-15.5v-32h17.422l8.578 8.578v9.234q-0.984-0.313-2-0.313v-7.5h-8v-8h-14v28zM20 8h4.578l-4.578-4.578v4.578zM28.875 26.766q0.719 0.391 1.297 0.953t0.984 1.242 0.625 1.453 0.219 1.586h-2q0-0.828-0.313-1.555t-0.859-1.273-1.273-0.859-1.555-0.313-1.555 0.313-1.273 0.859-0.859 1.273-0.313 1.555h-2q0-0.813 0.219-1.586t0.625-1.453 0.984-1.242 1.297-0.953q-0.531-0.547-0.828-1.266t-0.297-1.5q0-0.828 0.313-1.555t0.859-1.273 1.273-0.859 1.555-0.313 1.555 0.313 1.273 0.859 0.859 1.273 0.313 1.555q0 0.781-0.297 1.5t-0.828 1.266zM26 26q0.422 0 0.781-0.156t0.633-0.43 0.43-0.633 0.156-0.781-0.156-0.781-0.43-0.633-0.633-0.43-0.781-0.156-0.781 0.156-0.633 0.43-0.43 0.633-0.156 0.781 0.156 0.781 0.43 0.633 0.633 0.43 0.781 0.156z"></path>
</svg>
