<!-- Generated by IcoMoon.io -->
<svg version="1.1" xmlns="http://www.w3.org/2000/svg" width="32" height="32" viewBox="0 0 32 32">
<title>uniEDC2</title>
<path d="M32 0v32h-32v-32h32zM30 2h-28v28h28v-28zM6.203 13.969h-1.781l3.672-9.813h1.828l3.656 9.813h-1.797l-0.875-2.5h-3.859zM8.953 5.609q-0.031 0.156-0.055 0.313t-0.070 0.313l-1.359 3.906h3.016l-1.375-3.906q-0.047-0.141-0.070-0.305t-0.055-0.32h-0.031zM16.141 13.969h-1.594v-10.375h1.594v4.594h0.016q0.406-0.672 0.992-1.031t1.383-0.359q0.75 0 1.289 0.289t0.883 0.773 0.5 1.109 0.156 1.297q0 0.75-0.18 1.445t-0.555 1.234-0.969 0.859-1.438 0.32q-1.344 0-2.063-1.172h-0.016v1.016zM16.125 11.031q0 0.375 0.125 0.711t0.344 0.586 0.539 0.398 0.711 0.148q0.547 0 0.906-0.234t0.578-0.609 0.313-0.844 0.094-0.922q0-0.406-0.094-0.805t-0.297-0.711-0.539-0.5-0.805-0.188q-0.453 0-0.805 0.172t-0.586 0.461-0.359 0.672-0.125 0.805v0.859zM26 14.125q-0.781 0-1.422-0.258t-1.094-0.719-0.703-1.102-0.25-1.422q0-0.859 0.266-1.563t0.758-1.211 1.188-0.781 1.57-0.273q0.438 0 0.859 0.078t0.828 0.25v1.484q-0.344-0.25-0.742-0.398t-0.82-0.148q-0.547 0-0.969 0.195t-0.711 0.523-0.445 0.781-0.156 0.969q0 1.031 0.578 1.688t1.641 0.656q0.453 0 0.859-0.164t0.766-0.445v1.375q-0.453 0.266-0.969 0.375t-1.031 0.109zM6.844 28q-0.75 0-1.289-0.297t-0.883-0.789-0.508-1.117-0.164-1.297q0-0.734 0.18-1.422t0.57-1.227 0.977-0.859 1.414-0.32q0.672 0 1.203 0.273t0.859 0.867h0.031v-4.344h1.578v10.375h-1.578v-1.203h-0.031q-0.781 1.359-2.359 1.359zM7.531 21.938q-0.547 0-0.914 0.219t-0.586 0.57-0.313 0.797-0.094 0.914q0 0.422 0.094 0.836t0.313 0.742 0.555 0.531 0.836 0.203q0.438 0 0.781-0.172t0.578-0.469 0.352-0.68 0.117-0.789v-0.922q0-0.75-0.477-1.266t-1.242-0.516zM15.813 20.672q0.797 0 1.359 0.273t0.93 0.742 0.539 1.109 0.172 1.359v0.609h-4.766q0.031 0.984 0.609 1.508t1.547 0.523q0.563 0 1.086-0.18t0.977-0.492v1.266q-0.563 0.359-1.219 0.484t-1.313 0.125q-0.844 0-1.461-0.273t-1.023-0.758-0.609-1.148-0.203-1.461q0-0.75 0.234-1.414t0.672-1.172 1.063-0.805 1.406-0.297zM17.281 23.641q0-0.359-0.086-0.688t-0.266-0.57-0.469-0.391-0.68-0.148q-0.375 0-0.68 0.148t-0.523 0.398-0.352 0.578-0.18 0.672h3.234zM20.813 19.703q0-0.563 0.195-1t0.539-0.75 0.805-0.477 1.008-0.164q0.234 0 0.469 0.031t0.453 0.109v1.313q-0.328-0.188-0.734-0.188-0.641 0-0.898 0.359t-0.258 0.953v0.938h1.625v1.25h-1.609v5.766h-1.594v-5.766h-1.188v-1.25h1.188v-1.125z"></path>
</svg>
