<!-- Generated by IcoMoon.io -->
<svg version="1.1" xmlns="http://www.w3.org/2000/svg" width="32" height="32" viewBox="0 0 32 32">
<title>uniE394</title>
<path d="M2 18v6h6v2h-8v-8h2zM8.094 10.156h1.828l3.656 9.813h-1.797l-0.875-2.5h-3.859l-0.844 2.5h-1.781zM7.469 16.141h3.016l-1.375-3.906q-0.047-0.141-0.070-0.305t-0.055-0.32h-0.031q-0.031 0.156-0.055 0.313t-0.070 0.313zM2 6v6h-2v-8h8v2h-6zM21.359 16.266q0 0.75-0.18 1.445t-0.555 1.234-0.969 0.859-1.438 0.32q-1.344 0-2.063-1.172h-0.016v1.016h-1.594v-10.375h1.594v4.594h0.016q0.391-0.672 0.992-1.031t1.383-0.359q0.75 0 1.289 0.289t0.883 0.773 0.5 1.109 0.156 1.297zM19.734 16.266q0-0.422-0.094-0.813t-0.297-0.703-0.539-0.5-0.805-0.188q-0.453 0-0.805 0.172t-0.586 0.461-0.359 0.672-0.125 0.805v0.859q0 0.375 0.125 0.711t0.344 0.586 0.539 0.398 0.711 0.148q0.547 0 0.906-0.234t0.578-0.609 0.313-0.844 0.094-0.922zM24 4h8v8h-2v-6h-6v-2zM30 24v-6h2v8h-8v-2h6zM26 20.125q-0.781 0-1.422-0.258t-1.094-0.719-0.703-1.102-0.25-1.422q0-0.859 0.266-1.563t0.758-1.211 1.188-0.781 1.57-0.273q0.859 0 1.688 0.328v1.484q-0.328-0.234-0.742-0.391t-0.82-0.156q-0.547 0-0.969 0.195t-0.711 0.523-0.445 0.781-0.156 0.969q0 1.047 0.57 1.695t1.648 0.648q0.5 0 0.867-0.164t0.758-0.445v1.375q-0.453 0.266-0.961 0.375t-1.039 0.109z"></path>
</svg>
