<!-- Generated by IcoMoon.io -->
<svg version="1.1" xmlns="http://www.w3.org/2000/svg" width="32" height="32" viewBox="0 0 32 32">
<title>uniF51F</title>
<path d="M7.922 10.156l3.656 9.813h-1.797l-0.875-2.5h-3.859l-0.844 2.5h-1.781l3.672-9.813h1.828zM8.484 16.141l-1.375-3.906q-0.047-0.141-0.078-0.313t-0.063-0.313q-0.031 0.141-0.055 0.305t-0.086 0.32l-1.359 3.906h3.016zM16.266 12.797q0.75 0 1.289 0.289t0.883 0.773 0.5 1.109 0.156 1.297q0 0.75-0.18 1.445t-0.555 1.234-0.969 0.859-1.438 0.32q-1.328 0-2.094-1.172v1.016h-1.594v-10.375h1.625v4.594q0.797-1.391 2.375-1.391zM15.578 18.875q0.531 0 0.898-0.242t0.586-0.617 0.313-0.836 0.094-0.914q0-0.406-0.102-0.805t-0.313-0.711-0.539-0.5-0.797-0.188q-0.453 0-0.805 0.172t-0.586 0.461-0.359 0.672-0.125 0.805v0.859q0 0.375 0.125 0.711t0.352 0.586 0.547 0.398 0.711 0.148zM31 18q0.406 0 0.703 0.297t0.297 0.703-0.297 0.703-0.703 0.297-0.703-0.297-0.297-0.703 0.297-0.703 0.703-0.297zM27 18q0.406 0 0.703 0.297t0.297 0.703-0.297 0.703-0.703 0.297-0.703-0.297-0.297-0.703 0.297-0.703 0.703-0.297zM23 18q0.406 0 0.703 0.297t0.297 0.703-0.297 0.703-0.703 0.297-0.703-0.297-0.297-0.703 0.297-0.703 0.703-0.297z"></path>
</svg>
