<!-- Generated by IcoMoon.io -->
<svg version="1.1" xmlns="http://www.w3.org/2000/svg" width="32" height="32" viewBox="0 0 32 32">
<title>uniE43B</title>
<path d="M28.875 14q0.656 0 1.227 0.234t0.992 0.648 0.664 0.984 0.242 1.227q0 0.609-0.234 1.188t-0.672 1.016l-11.203 11.203-5.891 1.469 1.469-5.891 11.203-11.188q0.453-0.453 1.016-0.672t1.188-0.219zM30 17.094q0-0.5-0.32-0.797t-0.805-0.297q-0.219 0-0.422 0.070t-0.359 0.227l-10.813 10.813-0.531 2.109 2.109-0.531 10.813-10.797q0.328-0.328 0.328-0.797zM4 2v28h7.906l-0.484 2h-9.422v-32h17.422l8.578 8.578v3q-0.578 0.078-1.039 0.242t-0.961 0.477v-2.297h-8v-8h-14zM20 3.422v4.578h4.578zM22 14v2h-14v-2h14zM8 24v-2h8.016l-2 2h-6.016zM20.016 18l-2 2h-10.016v-2h12.016z"></path>
</svg>
