<!-- Generated by IcoMoon.io -->
<svg version="1.1" xmlns="http://www.w3.org/2000/svg" width="32" height="32" viewBox="0 0 32 32">
<title>uniF44D</title>
<path d="M27.5 9q-0.656 0-1.281-0.188t-1.156-0.531-0.961-0.836-0.711-1.086l-5.453 1.563q0.031 0.266 0.047 0.539t0.016 0.539q0 1.547-0.508 2.984t-1.461 2.641l7.078 7.063q0.531-0.344 1.141-0.516t1.25-0.172q0.938 0 1.758 0.352t1.43 0.961 0.961 1.43 0.352 1.758-0.352 1.758-0.961 1.43-1.43 0.961-1.758 0.352-1.758-0.352-1.43-0.961-0.961-1.43-0.352-1.758q0-0.641 0.172-1.25t0.516-1.141l-7.063-7.078q-1.203 0.953-2.641 1.461t-2.984 0.508q-0.484 0-0.953-0.047l-1.406 5.594q0.547 0.297 0.984 0.719t0.742 0.938 0.469 1.102 0.164 1.195q0 0.938-0.352 1.758t-0.961 1.43-1.43 0.961-1.758 0.352-1.758-0.352-1.43-0.961-0.961-1.43-0.352-1.758q0-1 0.375-1.828t1.016-1.422 1.5-0.922 1.828-0.328l1.375-5.484q-1.359-0.469-2.484-1.313t-1.93-1.969-1.242-2.461-0.438-2.773q0-1.859 0.711-3.5t1.93-2.859 2.859-1.93 3.5-0.711q1.422 0 2.742 0.43t2.438 1.211 1.969 1.883 1.32 2.445l5.531-1.578q0.016-0.906 0.383-1.711t0.977-1.398 1.414-0.938 1.727-0.344q0.938 0 1.758 0.352t1.43 0.961 0.961 1.43 0.352 1.758-0.352 1.758-0.961 1.43-1.43 0.961-1.758 0.352zM9 14q1.031 0 1.938-0.391t1.586-1.070 1.078-1.594 0.398-1.945-0.398-1.938-1.078-1.586-1.586-1.078-1.938-0.398-1.945 0.398-1.594 1.078-1.070 1.586-0.391 1.938 0.391 1.945 1.070 1.594 1.594 1.070 1.945 0.391z"></path>
</svg>
