<!-- Generated by IcoMoon.io -->
<svg version="1.1" xmlns="http://www.w3.org/2000/svg" width="32" height="32" viewBox="0 0 32 32">
<title>uniEB54</title>
<path d="M32 14q-0.422 0-0.781 0.156t-0.633 0.43-0.43 0.633-0.156 0.781 0.156 0.781 0.43 0.633 0.633 0.43 0.781 0.156v8h-32v-8q0.422 0 0.781-0.156t0.633-0.43 0.43-0.633 0.156-0.781-0.156-0.781-0.43-0.633-0.633-0.43-0.781-0.156v-8h32v8zM30 8h-28v4.531q0.938 0.547 1.469 1.469t0.531 2-0.531 2-1.469 1.469v4.531h28v-4.531q-0.938-0.547-1.469-1.469t-0.531-2 0.531-2 1.469-1.469v-4.531z"></path>
</svg>
