<!-- Generated by IcoMoon.io -->
<svg version="1.1" xmlns="http://www.w3.org/2000/svg" width="32" height="32" viewBox="0 0 32 32">
<title>uniEF95</title>
<path d="M24 22h3v2h-5v-6h2v4zM20 8h-16v-2h16v2zM23 14q1.859 0 3.5 0.711t2.859 1.93 1.93 2.859 0.711 3.5-0.711 3.5-1.93 2.859-2.859 1.93-3.5 0.711-3.5-0.711-2.859-1.93-1.93-2.859-0.711-3.5 0.711-3.5 1.93-2.859 2.859-1.93 3.5-0.711zM23 30q1.453 0 2.727-0.555t2.219-1.5 1.5-2.219 0.555-2.727-0.555-2.727-1.5-2.219-2.219-1.5-2.727-0.555-2.727 0.555-2.219 1.5-1.5 2.219-0.555 2.727 0.555 2.727 1.5 2.219 2.219 1.5 2.727 0.555zM18.219 12q-1.703 0.75-3.125 2h-11.094v-2h14.219zM12.109 18q-0.219 0.484-0.398 0.984t-0.32 1.016h-7.391v-2h8.109zM4 24h7.047q0.047 0.5 0.133 1t0.211 1h-7.391v-2zM13.281 30q0.781 1.109 1.813 2h-15.094v-32h24v11.047l-0.5-0.031t-0.5-0.016-0.5 0.016l-0.5 0.031v-9.047h-20v28h11.281z"></path>
</svg>
