<!-- Generated by IcoMoon.io -->
<svg version="1.1" xmlns="http://www.w3.org/2000/svg" width="32" height="32" viewBox="0 0 32 32">
<title>uniE367</title>
<path d="M3 12q0.625 0 1.172 0.234t0.953 0.641 0.641 0.953 0.234 1.172v2q0 0.625-0.234 1.172t-0.641 0.953-0.953 0.641-1.172 0.234-1.172-0.234-0.953-0.641-0.641-0.953-0.234-1.172v-2q0-0.625 0.234-1.172t0.641-0.953 0.953-0.641 1.172-0.234zM4 17.25v-2.5q0-0.406-0.297-0.703t-0.703-0.297-0.703 0.297-0.297 0.703v2.5q0 0.406 0.297 0.703t0.703 0.297 0.703-0.297 0.297-0.703zM11 12q0.625 0 1.172 0.234t0.953 0.641 0.641 0.953 0.234 1.172v2q0 0.625-0.234 1.172t-0.641 0.953-0.953 0.641-1.172 0.234-1.172-0.234-0.953-0.641-0.641-0.953-0.234-1.172v-2q0-0.625 0.234-1.172t0.641-0.953 0.953-0.641 1.172-0.234zM12 17.25v-2.5q0-0.406-0.297-0.703t-0.703-0.297-0.703 0.297-0.297 0.703v2.5q0 0.406 0.297 0.703t0.703 0.297 0.703-0.297 0.297-0.703zM21 12q0.625 0 1.172 0.234t0.953 0.641 0.641 0.953 0.234 1.172v2q0 0.625-0.234 1.172t-0.641 0.953-0.953 0.641-1.172 0.234-1.172-0.234-0.953-0.641-0.641-0.953-0.234-1.172v-2q0-0.625 0.234-1.172t0.641-0.953 0.953-0.641 1.172-0.234zM22 17.25v-2.5q0-0.406-0.297-0.703t-0.703-0.297-0.703 0.297-0.297 0.703v2.5q0 0.406 0.297 0.703t0.703 0.297 0.703-0.297 0.297-0.703zM29 12q0.625 0 1.172 0.234t0.953 0.641 0.641 0.953 0.234 1.172v2q0 0.625-0.234 1.172t-0.641 0.953-0.953 0.641-1.172 0.234-1.172-0.234-0.953-0.641-0.641-0.953-0.234-1.172v-2q0-0.625 0.234-1.172t0.641-0.953 0.953-0.641 1.172-0.234zM30 17.25v-2.5q0-0.406-0.297-0.703t-0.703-0.297-0.703 0.297-0.297 0.703v2.5q0 0.406 0.297 0.703t0.703 0.297 0.703-0.297 0.297-0.703zM16 16q-0.406 0-0.703-0.297t-0.297-0.703 0.297-0.703 0.703-0.297 0.703 0.297 0.297 0.703-0.297 0.703-0.703 0.297zM16 20q-0.406 0-0.703-0.297t-0.297-0.703 0.297-0.703 0.703-0.297 0.703 0.297 0.297 0.703-0.297 0.703-0.703 0.297zM22.297 9.703l-6.297-6.281-6.297 6.281-1.406-1.406 7.703-7.719 7.703 7.719zM16 31.422l-7.703-7.719 1.406-1.406 6.297 6.281 6.297-6.281 1.406 1.406z"></path>
</svg>
