<!-- Generated by IcoMoon.io -->
<svg version="1.1" xmlns="http://www.w3.org/2000/svg" width="32" height="32" viewBox="0 0 32 32">
<title>uniE91E</title>
<path d="M25.609 7.813q2.109 2.125 3.25 4.648t1.141 5.539q0 1.938-0.5 3.727t-1.414 3.344-2.188 2.828-2.828 2.188-3.344 1.414-3.727 0.5-3.727-0.5-3.344-1.414-2.828-2.188-2.188-2.828-1.414-3.344-0.5-3.727q0-1.734 0.414-3.375t1.172-3.094 1.836-2.695 2.406-2.203 2.891-1.602 3.281-0.891v-2.141h-4v-2h10v2h-4v2q2.172 0 4.227 0.641t3.82 1.906l3.25-3.25 1.406 1.406zM16 30q2.484 0 4.664-0.945t3.813-2.578 2.578-3.813 0.945-4.664-0.945-4.664-2.578-3.813-3.813-2.578-4.664-0.945-4.664 0.945-3.813 2.578-2.578 3.813-0.945 4.664 0.945 4.664 2.578 3.813 3.813 2.578 4.664 0.945zM26 16v2q0 2.078-0.781 3.898t-2.141 3.18-3.18 2.141-3.898 0.781-3.898-0.781-3.18-2.133-2.141-3.172-0.781-3.898q0-1.375 0.359-2.656t1.008-2.391 1.563-2.023 2.023-1.57 2.383-1.016 2.664-0.359h2v8h8zM16 26q1.656 0 3.117-0.625t2.547-1.711 1.711-2.547 0.625-3.117h-8v-8q-1.672 0-3.125 0.633t-2.539 1.719-1.711 2.555-0.625 3.125 0.633 3.109 1.719 2.531 2.539 1.703 3.109 0.625z"></path>
</svg>
