<!-- Generated by IcoMoon.io -->
<svg version="1.1" xmlns="http://www.w3.org/2000/svg" width="32" height="32" viewBox="0 0 32 32">
<title>uniED9C</title>
<path d="M30 17.344q0.984 1.203 1.492 2.648t0.508 3.008q0 1.859-0.711 3.5t-1.93 2.859-2.859 1.93-3.5 0.711-3.5-0.711-2.859-1.93-1.93-2.859-0.711-3.5q0-1.563 0.516-3h-14.516v-16h4v2h-2v4h12v-4h-2v-2h6v2h-2v4h12v-4h-2v-2h4v13.344zM15.516 18q0.625-0.938 1.453-1.68t1.789-1.258 2.039-0.789 2.203-0.273q1.344 0 2.609 0.383t2.391 1.133v-3.516h-26v6h13.516zM23 30q1.453 0 2.727-0.555t2.219-1.5 1.5-2.219 0.555-2.727-0.555-2.727-1.5-2.219-2.219-1.5-2.727-0.555-2.727 0.555-2.219 1.5-1.5 2.219-0.555 2.727 0.555 2.727 1.5 2.219 2.219 1.5 2.727 0.555zM24 22h3v2h-5v-6h2v4z"></path>
</svg>
