<!-- Generated by IcoMoon.io -->
<svg version="1.1" xmlns="http://www.w3.org/2000/svg" width="32" height="32" viewBox="0 0 32 32">
<title>uniF75B</title>
<path d="M31.609 8.438q0.391 0.422 0.391 0.938 0 0.547-0.391 0.938l-17.984 17.984q-0.188 0.203-0.43 0.297t-0.508 0.094q-0.547 0-0.938-0.391l-9.938-9.938q-0.203-0.188-0.297-0.43t-0.094-0.508q0-0.547 0.391-0.938l4.734-4.75q0.422-0.391 0.938-0.391 0.547 0 0.938 0.391l4.266 4.266 12.297-12.297q0.203-0.203 0.445-0.297t0.492-0.094q0.266 0 0.508 0.094t0.445 0.297zM3.703 17.422l3.781 3.781 3.797-3.781-3.797-3.797zM12.688 26.406l17.031-17.031-3.797-3.781-17.016 17.031 0.109 0.109z"></path>
</svg>
