<!-- Generated by IcoMoon.io -->
<svg version="1.1" xmlns="http://www.w3.org/2000/svg" width="32" height="32" viewBox="0 0 32 32">
<title>uniF19F</title>
<path d="M29.656 10.344q1.141 1.141 1.742 2.594t0.602 3.063-0.602 3.063-1.742 2.594-2.594 1.742-3.063 0.602h-16q-1.609 0-3.063-0.602t-2.594-1.742-1.742-2.594-0.602-3.063 0.602-3.063 1.742-2.594 2.594-1.742 3.063-0.602h16q1.609 0 3.063 0.602t2.594 1.742zM24 22q1.234 0 2.328-0.469t1.914-1.289 1.289-1.906 0.469-2.336q0-1.234-0.469-2.328t-1.289-1.914-1.914-1.289-2.328-0.469h-16q-1.25 0-2.336 0.469t-1.906 1.289-1.289 1.914-0.469 2.328q0 1.25 0.469 2.336t1.289 1.906 1.906 1.289 2.336 0.469h16zM24 12q0.828 0 1.555 0.313t1.273 0.859 0.859 1.273 0.313 1.555-0.313 1.555-0.859 1.273-1.273 0.859-1.555 0.313-1.555-0.313-1.273-0.859-0.859-1.273-0.313-1.555 0.313-1.555 0.859-1.273 1.273-0.859 1.555-0.313z"></path>
</svg>
