<!-- Generated by IcoMoon.io -->
<svg version="1.1" xmlns="http://www.w3.org/2000/svg" width="32" height="32" viewBox="0 0 32 32">
<title>uniE7C9</title>
<path d="M29 12q0.625 0 1.172 0.234t0.953 0.641 0.641 0.953 0.234 1.172v6q0 1.859-0.711 3.5t-1.93 2.859-2.859 1.93-3.5 0.711q-2.203 0-4.164-0.867t-3.555-2.445l-4.984-4.969-4.25 2.125-2.156-4.328-3.891 3.906v-20.844l14 14v-11.578q0-0.625 0.234-1.172t0.641-0.953 0.953-0.641 1.172-0.234 1.172 0.234 0.953 0.641 0.641 0.953 0.234 1.172v5.172q0.422-0.156 0.922-0.156 0.766 0 1.484 0.367t1.125 1.008q0.688-0.391 1.469-0.391 0.797 0 1.461 0.375t1.070 1.016q0.688-0.391 1.469-0.391zM6.625 15h2.969l-7.594-7.578v11.156l2.438-2.438 2.516 5.016 2.203-1.109zM30 15q0-0.406-0.297-0.703t-0.703-0.297-0.703 0.297-0.297 0.703v2q0 0.406-0.297 0.703t-0.703 0.297-0.703-0.297-0.297-0.703v-3q0-0.406-0.297-0.703t-0.703-0.297-0.703 0.297-0.297 0.703v2q0 0.406-0.297 0.703t-0.703 0.297-0.703-0.297-0.297-0.703v-3q0-0.406-0.297-0.703t-0.703-0.297-0.703 0.297-0.297 0.703v2q0 0.406-0.297 0.703t-0.703 0.297-0.703-0.297-0.297-0.703v-10q0-0.406-0.297-0.703t-0.703-0.297-0.703 0.297-0.297 0.703v12.297q0 0.516-0.281 0.945t-0.766 0.633q-0.297 0.125-0.656 0.125-0.688 0-1.219-0.5l-1.172-1.172q-0.328-0.328-0.781-0.328-0.469 0-0.797 0.328-0.172 0.172-0.25 0.375t-0.078 0.422q0 0.469 0.328 0.797l6.375 6.375q1.266 1.328 2.883 2.016t3.414 0.688q1.453 0 2.727-0.555t2.219-1.5 1.5-2.219 0.555-2.727v-6z"></path>
</svg>
