<!-- Generated by IcoMoon.io -->
<svg version="1.1" xmlns="http://www.w3.org/2000/svg" width="32" height="32" viewBox="0 0 32 32">
<title>uniEBF1</title>
<path d="M15 24q0.406 0 0.703 0.297t0.297 0.703-0.297 0.703-0.703 0.297-0.703-0.297-0.297-0.703 0.297-0.703 0.703-0.297zM27 24q0.406 0 0.703 0.297t0.297 0.703-0.297 0.703-0.703 0.297-0.703-0.297-0.297-0.703 0.297-0.703 0.703-0.297zM25.844 14q0.641 0 1.242 0.195t1.094 0.555 0.867 0.867 0.578 1.117q0.031 0.125 0.227 0.711t0.461 1.391 0.563 1.711 0.547 1.672 0.414 1.273l0.164 0.508v6q0 0.422-0.156 0.781t-0.43 0.633-0.633 0.43-0.781 0.156h-2q-0.422 0-0.781-0.156t-0.633-0.43-0.43-0.633-0.156-0.781h-10q0 0.422-0.156 0.781t-0.43 0.633-0.633 0.43-0.781 0.156h-2q-0.422 0-0.781-0.156t-0.633-0.43-0.43-0.633-0.156-0.781v-1h0.016l0.031-5h-2.047q0 0.422-0.156 0.781t-0.43 0.633-0.633 0.43-0.781 0.156h-2q-0.422 0-0.781-0.156t-0.633-0.43-0.43-0.633-0.156-0.781v-12h-2v-4h2v-5q0-0.625 0.234-1.172t0.641-0.953 0.953-0.641 1.172-0.234h16q0.625 0 1.172 0.234t0.953 0.641 0.641 0.953 0.234 1.172v5h2v4h-2v2h1.844zM27.734 17.375q-0.219-0.625-0.727-1t-1.164-0.375h-9.688q-0.656 0-1.164 0.375t-0.727 1l-0.875 2.625h15.219zM11.953 18h-7.953v4h2q0-0.281-0.008-0.633t0.070-0.656 0.289-0.508 0.648-0.203 0.648 0.203 0.289 0.508 0.070 0.656-0.008 0.633h2.609zM12 8h-8v8h8v-8zM14 14.672q0.484-0.313 1.031-0.492t1.125-0.18h5.844v-6h-8v6.672zM5 2q-0.406 0-0.703 0.297t-0.297 0.703v3h18v-3q0-0.406-0.297-0.703t-0.703-0.297h-16zM30 28v-3.844l-0.047-0.156t-0.125-0.375-0.172-0.492-0.172-0.508-0.133-0.406-0.070-0.219h-16.563q-0.016 0.047-0.070 0.219t-0.133 0.406-0.172 0.5-0.172 0.492-0.125 0.383l-0.047 0.156v3.844h5l1-2h6l1 2h5z"></path>
</svg>
