<!-- Generated by IcoMoon.io -->
<svg version="1.1" xmlns="http://www.w3.org/2000/svg" width="32" height="32" viewBox="0 0 32 32">
<title>uniED95</title>
<path d="M21.906 20.422q0.609 0 1.188 0.234t1.016 0.672l2.984 2.984q0.438 0.438 0.672 1.016t0.234 1.188-0.234 1.188-0.672 1.016l-1.5 1.5q-0.984 0.969-2.234 1.375t-2.594 0.406q-1.672 0-3.461-0.523t-3.563-1.461-3.484-2.219-3.234-2.805-2.813-3.234-2.227-3.484-1.461-3.555-0.523-3.469q0-1.203 0.211-2.047t0.625-1.531 1.023-1.328 1.422-1.438q0.438-0.438 1.016-0.672t1.188-0.234 1.188 0.234 1.016 0.672l2.984 2.984q0.438 0.438 0.672 1.016t0.234 1.188-0.203 1.086-0.508 0.875-0.656 0.719-0.656 0.617-0.508 0.586-0.203 0.602q0 0.453 0.328 0.781l7.469 7.469q0.328 0.328 0.781 0.328 0.328 0 0.617-0.203t0.578-0.508 0.609-0.656 0.711-0.656 0.867-0.508 1.102-0.203zM20.797 30q0.938 0 1.578-0.18t1.164-0.523 1.008-0.844 1.125-1.141q0.328-0.328 0.328-0.781 0-0.469-0.328-0.797l-2.984-2.984q-0.328-0.328-0.797-0.328-0.328 0-0.609 0.203t-0.578 0.508-0.617 0.656-0.703 0.656-0.867 0.508-1.094 0.203q-0.625 0-1.195-0.242t-1.008-0.68l-7.453-7.453q-0.438-0.438-0.68-1.008t-0.242-1.195q0-0.609 0.203-1.086t0.508-0.867 0.656-0.711 0.656-0.617 0.508-0.586 0.203-0.617q0-0.453-0.328-0.781l-2.984-2.984q-0.328-0.328-0.781-0.328-0.469 0-0.797 0.328-0.641 0.641-1.141 1.125t-0.844 1.008-0.523 1.164-0.18 1.578q0 1.484 0.484 3.078t1.344 3.195 2.039 3.148 2.57 2.938 2.938 2.57 3.148 2.039 3.195 1.344 3.078 0.484zM32 10v8h-2v-4.578l-5.297 5.281-1.406-1.406 5.281-5.297h-4.578v-2h8zM22 10h-8v-8h2v4.578l5.297-5.281 1.406 1.406-5.281 5.297h4.578v2z"></path>
</svg>
