<!-- Generated by IcoMoon.io -->
<svg version="1.1" xmlns="http://www.w3.org/2000/svg" width="32" height="32" viewBox="0 0 32 32">
<title>uniE7B2</title>
<path d="M10.172 14l5.328 16h-2.172l-1.328-4h-6l-1.328 4h-2.172l5.328-16h2.344zM11.328 24l-2.328-7-2.328 7h4.656zM12.594 8.5q0.016-0.625 0.016-1.234v-2.141t-0.016-0.906q0-0.078 0.031-0.172 0.125-0.031 0.203-0.031 0.656 0.016 1.305 0.031t1.305 0.016h4.297v-0.172q0-0.469-0.016-0.953t-0.125-0.938q1.078 0 2.141 0.094 0.094 0.016 0.195 0.047t0.102 0.156q0 0.094-0.047 0.188t-0.078 0.188q-0.031 0.078-0.055 0.242t-0.031 0.344-0.008 0.344v0.461h4.625q0.656 0 1.305-0.016t1.305-0.031q0.109 0 0.203 0.047 0.047 0.078 0.047 0.156-0.016 0.266-0.031 0.555t-0.016 0.555v0.906q0 0.563 0.016 1.133t0.031 1.133q0 0.047-0.008 0.109t-0.039 0.094q-0.125 0.031-0.203 0.031t-0.391 0.008-0.641 0.008q-0.297 0-0.531-0.016t-0.266-0.047q-0.031-0.125-0.039-0.375t-0.008-0.563q0-0.516 0.016-1.063t0.016-0.813h-12.531v0.227t0.008 0.391 0.008 0.484v0.523q0 0.453-0.016 0.82t-0.047 0.398q-0.125 0.031-0.203 0.031h-1.594q-0.172 0-0.203-0.047t-0.031-0.203zM19.188 18.016q0.375 0 0.57-0.117t0.195-0.523v-2.969h-4.984q-0.625 0-1.25 0.016l-1.25 0.031q-0.125 0-0.188-0.047-0.031-0.094-0.031-0.172v-1.5q0-0.047 0.008-0.117t0.039-0.102q0.094-0.031 0.172-0.031l1.25 0.031t1.25 0.016h4.984q-0.031-0.406-0.039-0.82t-0.086-0.82q0.313 0.031 0.617 0.055t0.617 0.055q0.031 0 0.055 0.008t0.055 0.008q0.547-0.391 1.047-0.828t1-0.891h-4.813q-0.656 0-1.305 0.016t-1.305 0.031q-0.125 0-0.188-0.047-0.031-0.094-0.031-0.172v-1.484q0-0.063 0.031-0.188 0.125-0.031 0.188-0.031 0.656 0.016 1.305 0.031t1.305 0.016h5.828q0.25 0 0.469-0.070t0.391-0.070q0.125 0 0.359 0.188t0.469 0.438 0.414 0.508 0.18 0.383q0 0.156-0.102 0.242t-0.227 0.148q-0.219 0.109-0.422 0.281t-0.391 0.328q-0.813 0.672-1.633 1.305t-1.711 1.211v0.172h5.016q0.625 0 1.234-0.016t1.234-0.031q0.109 0 0.203 0.047 0.031 0.125 0.031 0.203v1.5q0 0.063-0.031 0.188-0.125 0.031-0.203 0.031-0.625-0.016-1.234-0.031t-1.234-0.016h-5.016v0.516q0 0.813 0.016 1.625t0.047 1.625v0.063q0 0.375-0.141 0.75t-0.453 0.594q-0.219 0.156-0.617 0.242t-0.852 0.125-0.883 0.047-0.68 0.008q-0.094 0-0.297-0.008t-0.281-0.086q-0.047-0.047-0.109-0.25t-0.094-0.281q-0.109-0.406-0.258-0.758t-0.367-0.711q0.531 0.063 1.063 0.086t1.063 0.023zM29.297 22.703l-1.297-1.281v2.578q0 0.828-0.313 1.555t-0.859 1.273-1.273 0.859-1.555 0.313h-2.578l1.281 1.297-1.406 1.406-3.703-3.703 3.703-3.703 1.406 1.406-1.281 1.297h2.578q0.422 0 0.781-0.156t0.633-0.43 0.43-0.633 0.156-0.781v-2.578l-1.297 1.281-1.406-1.406 3.703-3.703 3.703 3.703z"></path>
</svg>
