<!-- Generated by IcoMoon.io -->
<svg version="1.1" xmlns="http://www.w3.org/2000/svg" width="32" height="32" viewBox="0 0 32 32">
<title>uniF3BC</title>
<path d="M12 23q0-1.031-0.398-1.938t-1.078-1.586-1.586-1.078-1.938-0.398-1.945 0.398-1.594 1.078-1.070 1.586-0.391 1.938v1h-2v-1q0-0.984 0.258-1.898t0.75-1.719 1.18-1.469 1.563-1.117q-0.844-0.719-1.297-1.711t-0.453-2.086q0-1.031 0.391-1.938t1.070-1.586 1.594-1.078 1.945-0.398 1.938 0.398 1.586 1.078 1.078 1.586 0.398 1.938q0 1.094-0.453 2.086t-1.297 1.711q0.859 0.453 1.555 1.117t1.188 1.469 0.75 1.719 0.258 1.898v1h-2v-1zM4 13q0 0.625 0.234 1.172t0.641 0.953 0.953 0.641 1.172 0.234 1.172-0.234 0.953-0.641 0.641-0.953 0.234-1.172-0.234-1.172-0.641-0.953-0.953-0.641-1.172-0.234-1.172 0.234-0.953 0.641-0.641 0.953-0.234 1.172zM28.25 16.797q0.859 0.453 1.555 1.117t1.188 1.469 0.75 1.719 0.258 1.898v1h-2v-1q0-1.031-0.398-1.938t-1.078-1.586-1.586-1.078-1.938-0.398-1.945 0.398-1.594 1.078-1.070 1.586-0.391 1.938v1h-2v-1q0-0.984 0.258-1.898t0.75-1.719 1.18-1.469 1.563-1.117q-0.844-0.719-1.297-1.711t-0.453-2.086q0-1.031 0.391-1.938t1.070-1.586 1.594-1.078 1.945-0.398 1.938 0.398 1.586 1.078 1.078 1.586 0.398 1.938q0 1.094-0.453 2.086t-1.297 1.711zM22 13q0 0.625 0.234 1.172t0.641 0.953 0.953 0.641 1.172 0.234 1.172-0.234 0.953-0.641 0.641-0.953 0.234-1.172-0.234-1.172-0.641-0.953-0.953-0.641-1.172-0.234-1.172 0.234-0.953 0.641-0.641 0.953-0.234 1.172zM18 2q-1.266 0-2.492 0.266t-2.359 0.766-2.156 1.227-1.867 1.664l-1.484-1.344q1-1.094 2.188-1.945t2.508-1.438 2.75-0.891 2.914-0.305q2.141 0 4.195 0.633t3.805 1.883v-2.516h2v6h-6v-2h2.641q-1.484-0.984-3.18-1.492t-3.461-0.508zM14 30q1.266 0 2.484-0.266t2.359-0.766 2.164-1.227 1.867-1.664l1.484 1.344q-1 1.094-2.188 1.945t-2.516 1.438-2.758 0.891-2.898 0.305q-2.141 0-4.195-0.633t-3.805-1.883v2.516h-2v-6h6v2h-2.641q1.484 0.984 3.18 1.492t3.461 0.508z"></path>
</svg>
