<!-- Generated by IcoMoon.io -->
<svg version="1.1" xmlns="http://www.w3.org/2000/svg" width="32" height="32" viewBox="0 0 32 32">
<title>uniF24A</title>
<path d="M16.531 22.047q-0.234 0.719-0.383 1.461t-0.148 1.492q0 0.094 0.008 0.195t0.008 0.195l-6.594 6.609h-4.531l6-12h-7.016l10-20h11.234l-6 12h10.313l-4.031 4.016h-0.156q-0.844 0-1.609 0.125t-1.578 0.391l2.531-2.531h-8.703l6-12h-6.766l-8 16h7.016l-6 12h0.453zM29.906 24.047q0.094 0.469 0.094 0.953t-0.094 0.953l1.938 0.797-0.766 1.859-1.938-0.813q-0.547 0.797-1.344 1.344l0.813 1.938-1.859 0.766-0.797-1.938q-0.469 0.094-0.953 0.094t-0.953-0.094l-0.797 1.938-1.859-0.766 0.813-1.938q-0.797-0.547-1.344-1.344l-1.938 0.813-0.766-1.859 1.938-0.797q-0.094-0.469-0.094-0.953t0.094-0.953l-1.938-0.797 0.766-1.859 1.938 0.813q0.547-0.797 1.344-1.344l-0.813-1.938 1.859-0.766 0.797 1.938q0.469-0.094 0.953-0.094t0.953 0.094l0.797-1.938 1.859 0.766-0.813 1.938q0.797 0.547 1.344 1.344l1.938-0.813 0.766 1.859zM25 28q0.625 0 1.172-0.234t0.953-0.641 0.641-0.953 0.234-1.172-0.234-1.172-0.641-0.953-0.953-0.641-1.172-0.234-1.172 0.234-0.953 0.641-0.641 0.953-0.234 1.172 0.234 1.172 0.641 0.953 0.953 0.641 1.172 0.234z"></path>
</svg>
