<!-- Generated by IcoMoon.io -->
<svg version="1.1" xmlns="http://www.w3.org/2000/svg" width="32" height="32" viewBox="0 0 32 32">
<title>uniF24B</title>
<path d="M29.422 12l-20 20h-4.531l6-12h-7.016l10-20h11.234l-6 12h10.313zM24.578 14h-8.703l6-12h-6.766l-8 16h7.016l-6 12h0.453zM28.875 26.766q0.719 0.391 1.297 0.953t0.984 1.242 0.625 1.453 0.219 1.586h-2q0-0.828-0.313-1.555t-0.859-1.273-1.273-0.859-1.555-0.313-1.555 0.313-1.273 0.859-0.859 1.273-0.313 1.555h-2q0-0.813 0.219-1.586t0.625-1.453 0.984-1.242 1.297-0.953q-0.531-0.547-0.828-1.266t-0.297-1.5q0-0.828 0.313-1.555t0.859-1.273 1.273-0.859 1.555-0.313 1.555 0.313 1.273 0.859 0.859 1.273 0.313 1.555q0 0.781-0.297 1.5t-0.828 1.266zM26 26q0.422 0 0.781-0.156t0.633-0.43 0.43-0.633 0.156-0.781-0.156-0.781-0.43-0.633-0.633-0.43-0.781-0.156-0.781 0.156-0.633 0.43-0.43 0.633-0.156 0.781 0.156 0.781 0.43 0.633 0.633 0.43 0.781 0.156z"></path>
</svg>
