<!-- Generated by IcoMoon.io -->
<svg version="1.1" xmlns="http://www.w3.org/2000/svg" width="32" height="32" viewBox="0 0 32 32">
<title>uniF2F7</title>
<path d="M2.406 6h13.875v2.125h-5.766v17.875h-2.344v-17.875h-5.766v-2.125zM20.281 10.969q0 0.719 0.273 1.266t0.82 1q0.688 0.563 1.5 0.977t1.609 0.805q0.891 0.453 1.805 0.984t1.656 1.219 1.203 1.563 0.461 2.016q0 1.5-0.602 2.5t-1.57 1.602-2.211 0.852-2.508 0.25q-0.484 0-1.148-0.078t-1.352-0.219-1.313-0.344-1.031-0.469v-2.672q0.453 0.406 1.094 0.727t1.359 0.547 1.438 0.352 1.313 0.125q0.766 0 1.508-0.125t1.328-0.469 0.953-0.922 0.367-1.5q0-0.813-0.398-1.43t-1.055-1.117-1.5-0.93-1.711-0.867-1.711-0.938-1.5-1.133-1.055-1.453-0.398-1.914q0-1.375 0.602-2.352t1.563-1.602 2.164-0.922 2.391-0.297q0.469 0 1.023 0.023t1.109 0.094 1.078 0.211 0.961 0.359v2.547q-0.969-0.656-2.102-0.922t-2.289-0.266q-0.688 0-1.414 0.148t-1.328 0.484-0.992 0.898-0.391 1.391z"></path>
</svg>
