<!-- Generated by IcoMoon.io -->
<svg version="1.1" xmlns="http://www.w3.org/2000/svg" width="32" height="32" viewBox="0 0 32 32">
<title>uniEC04</title>
<path d="M15 2q2.859 0 5.492 1.039t4.727 2.992q2.141 2 3.297 4.461t1.422 5.367q0 0.031 0.008 0.055t0.008 0.055q0 0.188-0.070 0.367t-0.203 0.32-0.305 0.227-0.359 0.086q-0.094 0-0.227-0.023t-0.227-0.055q-0.125-0.063-0.219-0.133t-0.188-0.18q-0.641-0.75-1.391-1.164t-1.766-0.414q-0.953 0-1.797 0.43t-1.406 1.195q-0.141 0.188-0.242 0.383t-0.211 0.398q-0.141 0.266-0.375 0.43t-0.547 0.164h-0.844q-0.313 0-0.547-0.164t-0.375-0.43q-0.234-0.438-0.492-0.797t-0.57-0.648-0.703-0.492-0.891-0.344v10.875q0 0.813-0.32 1.539t-0.867 1.273-1.273 0.867-1.539 0.32-1.539-0.32-1.273-0.867-0.867-1.273-0.32-1.539q0-0.281-0.008-0.633t0.070-0.656 0.289-0.508 0.648-0.203 0.648 0.203 0.289 0.508 0.070 0.656-0.008 0.633q0 0.406 0.164 0.766t0.438 0.633 0.633 0.438 0.766 0.164q0.391 0 0.758-0.164t0.641-0.438 0.438-0.633 0.164-0.766v-10.875q-0.5 0.141-0.891 0.344t-0.703 0.492-0.57 0.648-0.492 0.797q-0.141 0.266-0.375 0.43t-0.547 0.164h-0.844q-0.313 0-0.547-0.164t-0.375-0.43q-0.109-0.203-0.211-0.398t-0.242-0.383q-0.563-0.766-1.406-1.195t-1.797-0.43q-1.031 0-1.766 0.414t-1.391 1.164q-0.172 0.188-0.352 0.289t-0.445 0.102q-0.406 0-0.703-0.305t-0.297-0.711v-0.063q0.172-1.953 0.789-3.75t1.625-3.336 2.344-2.797 2.945-2.148 3.438-1.375 3.813-0.484zM25 13q0.656 0 1.289 0.141t1.227 0.422q-0.578-2.109-1.789-3.867t-2.867-3.023-3.664-1.969-4.195-0.703-4.203 0.703-3.672 1.969-2.859 3.023-1.781 3.867q0.594-0.281 1.227-0.422t1.289-0.141q1.516 0 2.836 0.711t2.164 1.977q0.844-1.266 2.164-1.977t2.836-0.711 2.836 0.711 2.164 1.977q0.844-1.266 2.164-1.977t2.836-0.711z"></path>
</svg>
