<!-- Generated by IcoMoon.io -->
<svg version="1.1" xmlns="http://www.w3.org/2000/svg" width="32" height="32" viewBox="0 0 32 32">
<title>uniE5B4</title>
<path d="M7.656 26.563v-3.469q0.594 0.531 1.43 0.945t1.758 0.703 1.852 0.445 1.711 0.156q0.984 0 1.953-0.164t1.734-0.594 1.242-1.188 0.477-1.961q0-1.063-0.523-1.859t-1.375-1.453-1.938-1.203-2.227-1.117-2.227-1.219-1.938-1.477-1.375-1.898-0.523-2.492q0-1.781 0.781-3.055t2.039-2.086 2.813-1.195 3.102-0.383q0.609 0 1.328 0.031t1.445 0.125 1.414 0.266 1.234 0.469v3.328q-1.266-0.875-2.734-1.211t-2.984-0.336q-0.891 0-1.844 0.188t-1.727 0.625-1.273 1.164-0.5 1.805q0 0.438 0.078 0.859t0.281 0.813q0.344 0.688 1.031 1.25t1.578 1.070 1.914 1.008 2.039 1.055 1.961 1.195 1.664 1.445 1.148 1.813 0.43 2.273q0 1.297-0.359 2.297t-0.984 1.75-1.477 1.266-1.852 0.844-2.094 0.469-2.188 0.141q-0.625 0-1.492-0.094t-1.758-0.281-1.711-0.453-1.336-0.609zM6 30h20v2h-20v-2z"></path>
</svg>
