<!-- Generated by IcoMoon.io -->
<svg version="1.1" xmlns="http://www.w3.org/2000/svg" width="32" height="32" viewBox="0 0 32 32">
<title>uniE5CD</title>
<path d="M11.109 18.172v9.828h-3.109v-26h7.281q1.891 0 3.516 0.445t2.828 1.383 1.891 2.406 0.688 3.531q0 2.094-0.773 3.672t-2.094 2.633-3.063 1.578-3.68 0.523h-3.484zM11.109 4.75v10.672h3.25q1.359 0 2.555-0.297t2.094-0.953 1.422-1.703 0.523-2.563q0-1.469-0.477-2.453t-1.305-1.586-1.961-0.859-2.461-0.258h-3.641zM8 32v-2h16v2h-16z"></path>
</svg>
