<!-- Generated by IcoMoon.io -->
<svg version="1.1" xmlns="http://www.w3.org/2000/svg" width="32" height="32" viewBox="0 0 32 32">
<title>uniE7A7</title>
<path d="M17 0.063q1.5 0 2.891 0.391t2.609 1.109 2.219 1.719 1.719 2.219 1.109 2.609 0.391 2.891q0 2.141-0.82 4.133t-2.336 3.508l-13.078 13.063-1.406-1.406 13.063-13.078q1.234-1.234 1.906-2.852t0.672-3.367q0-1.828-0.711-3.453t-1.93-2.844-2.844-1.93-3.453-0.711q-1.688 0-2.977 0.508t-2.383 1.344-2.102 1.898-2.117 2.188h6.578v2h-10v-10h2v6.578q0.859-0.875 1.648-1.695t1.578-1.547 1.609-1.328 1.75-1.031 2.016-0.672 2.398-0.242z"></path>
</svg>
