<!-- Generated by IcoMoon.io -->
<svg version="1.1" xmlns="http://www.w3.org/2000/svg" width="32" height="32" viewBox="0 0 32 32">
<title>uniF4B7</title>
<path d="M29.813 8.781l-6.625-6.609q0.484-0.484 0.93-0.891t0.93-0.688 1.055-0.438 1.305-0.156q0.953 0 1.789 0.336t1.461 0.938 0.984 1.422 0.359 1.773q0 0.734-0.156 1.32t-0.438 1.086-0.688 0.961-0.906 0.945zM27.438 11.125l-4.406 4.406-6.563-6.563 4.375-4.438zM0.391 2.281l1.891-1.891 29.328 29.328-1.891 1.891-11.391-11.391-6.563 6.547-11.766 5.203 5.438-11.859 6.359-6.422z"></path>
</svg>
