<!-- Generated by IcoMoon.io -->
<svg version="1.1" xmlns="http://www.w3.org/2000/svg" width="32" height="32" viewBox="0 0 32 32">
<title>uniF877</title>
<path d="M32 32l-9.891-2.469-9.109-9.109-11.297 11.281-1.406-1.406 30-30 1.406 1.406-11.281 11.297 9.109 9.109zM24.109 27.969l5.141 1.281-1.281-5.141q-0.734 0.156-1.367 0.508t-1.141 0.852-0.852 1.141-0.5 1.359zM19 14.422l-4.578 4.578 7.891 7.906q0.25-0.813 0.695-1.539t1.039-1.32 1.313-1.031 1.547-0.703zM0 5.25q0-1.094 0.414-2.047t1.125-1.664 1.664-1.125 2.031-0.414q1.047 0 2.008 0.391t1.711 1.141l8.281 8.297-1.406 1.406-5.828-5.813-4.578 4.578 5.813 5.828-1.406 1.406-8.297-8.281q-0.75-0.75-1.141-1.711t-0.391-1.992zM2 5.25q0 0.594 0.164 1.039t0.445 0.828 0.641 0.727 0.75 0.734l4.578-4.578q-0.391-0.391-0.734-0.75t-0.727-0.641-0.836-0.445-1.047-0.164q-0.672 0-1.258 0.258t-1.023 0.695-0.695 1.031-0.258 1.266z"></path>
</svg>
