<!-- Generated by IcoMoon.io -->
<svg version="1.1" xmlns="http://www.w3.org/2000/svg" width="32" height="32" viewBox="0 0 32 32">
<title>uniF4B9</title>
<path d="M9 18q1.453 0 2.727 0.547t2.227 1.5 1.5 2.227 0.547 2.727-0.547 2.727-1.5 2.227-2.227 1.5-2.727 0.547-2.727-0.547-2.227-1.5-1.5-2.227-0.547-2.727 0.547-2.727 1.5-2.227 2.227-1.5 2.727-0.547zM4 25q0 1.031 0.391 1.945t1.070 1.594 1.594 1.070 1.945 0.391q0.734 0 1.438-0.211t1.313-0.617l-6.922-6.922q-0.406 0.609-0.617 1.313t-0.211 1.438zM13.172 27.75q0.406-0.609 0.617-1.313t0.211-1.438q0-1.031-0.398-1.938t-1.078-1.586-1.586-1.078-1.938-0.398q-0.734 0-1.438 0.211t-1.313 0.617zM32 32l-9.891-2.469-4.109-4.109v-2.844l4.313 4.328q0.25-0.813 0.695-1.539t1.039-1.32 1.313-1.031 1.547-0.703l-16.906-16.891-4.578 4.578 6 6h-2.844l-7.047-7.047q-0.75-0.75-1.141-1.711t-0.391-1.992q0-1.094 0.414-2.047t1.125-1.664 1.664-1.125 2.031-0.414q1.047 0 2.008 0.391t1.711 1.141l20.578 20.578zM8.578 4q-0.391-0.391-0.734-0.75t-0.727-0.641-0.836-0.445-1.047-0.164q-0.672 0-1.258 0.258t-1.023 0.695-0.695 1.031-0.258 1.266q0 0.594 0.164 1.039t0.445 0.828 0.641 0.727 0.75 0.734zM29.25 29.25l-1.281-5.141q-0.734 0.156-1.367 0.508t-1.141 0.852-0.852 1.141-0.5 1.359z"></path>
</svg>
