<!-- Generated by IcoMoon.io -->
<svg version="1.1" xmlns="http://www.w3.org/2000/svg" width="32" height="32" viewBox="0 0 32 32">
<title>uniED1D</title>
<path d="M23 18q1.453 0 2.727 0.547t2.227 1.5 1.5 2.227 0.547 2.727-0.547 2.727-1.5 2.227-2.227 1.5-2.727 0.547-2.727-0.547-2.227-1.5-1.5-2.227-0.547-2.727 0.547-2.727 1.5-2.227 2.227-1.5 2.727-0.547zM18 25q0 1.031 0.391 1.945t1.070 1.594 1.594 1.070 1.945 0.391q0.734 0 1.438-0.211t1.313-0.617l-6.922-6.922q-0.406 0.609-0.617 1.313t-0.211 1.438zM27.172 27.75q0.406-0.609 0.617-1.313t0.211-1.438q0-1.031-0.398-1.938t-1.078-1.586-1.586-1.078-1.938-0.398q-0.734 0-1.438 0.211t-1.313 0.617zM26.75 0q1.094 0 2.047 0.414t1.664 1.125 1.125 1.664 0.414 2.047q0 1.031-0.391 1.992t-1.141 1.711l-7.047 7.047h-2.844l6-6-4.578-4.578-16.906 16.891q0.813 0.266 1.539 0.703t1.32 1.031 1.031 1.32 0.703 1.539l4.313-4.328v2.844l-4.109 4.109-9.891 2.469 2.469-9.891q0.047-0.047 0.102-0.094t0.102-0.094l20.375-20.391q0.75-0.75 1.711-1.141t1.992-0.391zM7.891 27.969q-0.156-0.719-0.508-1.359t-0.852-1.141-1.141-0.852-1.359-0.508l-1.281 5.141zM28 8.578q0.391-0.391 0.75-0.734t0.641-0.727 0.445-0.828 0.164-1.039q0-0.672-0.258-1.266t-0.695-1.031-1.031-0.695-1.266-0.258q-0.594 0-1.039 0.164t-0.828 0.445-0.727 0.641-0.734 0.75z"></path>
</svg>
