<!-- Generated by IcoMoon.io -->
<svg version="1.1" xmlns="http://www.w3.org/2000/svg" width="32" height="32" viewBox="0 0 32 32">
<title>uniF876</title>
<path d="M9.891 29.531l-9.891 2.469 2.469-9.891 9.125-9.109-11.297-11.297 1.406-1.406 30 30-1.406 1.406-11.297-11.281zM2.75 29.25l5.141-1.281q-0.156-0.719-0.508-1.359t-0.852-1.141-1.141-0.852-1.359-0.508zM17.594 19l-4.594-4.578-7.906 7.891q0.813 0.266 1.539 0.703t1.32 1.031 1.031 1.32 0.703 1.539zM22.188 17.234l-1.422-1.406 5.828-5.828-4.594-4.578-5.813 5.813-1.422-1.406 8.281-8.297h0.016q0.734-0.75 1.695-1.141t2.008-0.391q1.078 0 2.031 0.414t1.664 1.125 1.125 1.664 0.414 2.047q0 1.031-0.391 1.992t-1.141 1.711zM29.047 7.531q0.453-0.453 0.703-1.047t0.25-1.234q0-0.672-0.258-1.266t-0.695-1.031-1.031-0.695-1.266-0.258q-0.594 0-1.039 0.164t-0.828 0.445-0.727 0.641-0.734 0.75l4.578 4.578 1.047-1.047z"></path>
</svg>
