<!-- Generated by IcoMoon.io -->
<svg version="1.1" xmlns="http://www.w3.org/2000/svg" width="32" height="32" viewBox="0 0 32 32">
<title>uniF4B8</title>
<path d="M8.969 15.531l-4.406-4.406 6.594-6.594 4.375 4.438zM32 31.969l-11.766-5.203-6.563-6.547-11.391 11.391-1.891-1.891 29.328-29.328 1.891 1.891-11.406 11.406 6.359 6.422zM2.188 8.781q-0.5-0.484-0.906-0.945t-0.688-0.969-0.438-1.086-0.156-1.313q0-0.953 0.359-1.773t0.984-1.422 1.461-0.938 1.789-0.336q0.734 0 1.305 0.156t1.055 0.438 0.922 0.688 0.938 0.891z"></path>
</svg>
