<!-- Generated by IcoMoon.io -->
<svg version="1.1" xmlns="http://www.w3.org/2000/svg" width="32" height="32" viewBox="0 0 32 32">
<title>uniE8D9</title>
<path d="M25.141 15.5q-1.953 0-3.664 0.688t-3 1.914-2.070 2.906-0.875 3.664l-9.531 7.328 3.875-12.406-9.875-7.594h12.25l3.75-12 3.75 12h12.25l-4.891 3.75q-0.484-0.109-0.977-0.18t-0.992-0.070zM25 18q1.453 0 2.727 0.555t2.219 1.5 1.5 2.219 0.555 2.727-0.555 2.727-1.5 2.219-2.219 1.5-2.727 0.555-2.727-0.555-2.219-1.5-1.5-2.219-0.555-2.727 0.555-2.727 1.5-2.219 2.219-1.5 2.727-0.555zM20 25q0 1.031 0.398 1.938t1.078 1.586 1.586 1.078 1.938 0.398q0.734 0 1.438-0.211t1.313-0.617l-6.922-6.922q-0.406 0.609-0.617 1.313t-0.211 1.438zM29.172 27.75q0.406-0.609 0.617-1.313t0.211-1.438q0-1.031-0.398-1.938t-1.078-1.586-1.586-1.078-1.938-0.398q-0.734 0-1.438 0.211t-1.313 0.617z"></path>
</svg>
