<!-- Generated by IcoMoon.io -->
<svg version="1.1" xmlns="http://www.w3.org/2000/svg" width="32" height="32" viewBox="0 0 32 32">
<title>uniF8FB</title>
<path d="M24 8h8v24h-24v-8h-8v-24h24v8zM10 23.234v3.531l3.234 3.234h3.531zM2 12.766l17.234 17.234h3.531l-20.766-20.766v3.531zM2 6.766l23.234 23.234h3.531l-26.766-26.766v3.531zM30 28.766v-3.531l-23.234-23.234h-3.531zM9.234 2l20.766 20.766v-3.531l-17.234-17.234h-3.531zM22 8.766v-3.531l-3.234-3.234h-3.531zM30 10.766v-0.766h-0.766zM26.766 10h-3.531l6.766 6.766v-3.531zM22 2.766v-0.766h-0.766zM2 21.234v0.766h0.766zM5.234 22h3.531l-6.766-6.766v3.531zM10 29.234v0.766h0.766z"></path>
</svg>
