<!-- Generated by IcoMoon.io -->
<svg version="1.1" xmlns="http://www.w3.org/2000/svg" width="32" height="32" viewBox="0 0 32 32">
<title>uniF2E2</title>
<path d="M15 0q-2.063 0-3.984 0.539t-3.586 1.516-3.031 2.344-2.344 3.031-1.516 3.586-0.539 3.984 0.539 3.984 1.516 3.586 2.344 3.031 3.031 2.344 3.586 1.516 3.984 0.539 3.984-0.539 3.586-1.516 3.031-2.344 2.344-3.031 1.516-3.578 0.539-3.992q0-2.063-0.539-3.984t-1.516-3.586-2.344-3.031-3.031-2.344-3.578-1.516-3.992-0.539zM14 22h2v2h-2v-2zM13.875 19.359q0-0.578-0.109-1.094t-0.563-0.969q-0.609-0.609-1.203-1.164t-1.070-1.164-0.766-1.328-0.289-1.641q0-1.063 0.406-1.992t1.102-1.625 1.625-1.102 1.992-0.406 1.992 0.406 1.625 1.102 1.102 1.625 0.406 1.992h-2.25q0-0.594-0.227-1.117t-0.617-0.914-0.914-0.617-1.117-0.227-1.117 0.227-0.914 0.617-0.617 0.914-0.227 1.117q0 0.641 0.297 1.141t0.742 0.961 0.961 0.93 0.961 1.031 0.742 1.273 0.297 1.664v1h-2.25v-0.641z"></path>
</svg>
