<!-- Generated by IcoMoon.io -->
<svg version="1.1" xmlns="http://www.w3.org/2000/svg" width="32" height="32" viewBox="0 0 32 32">
<title>uniF22E</title>
<path d="M15 0.063q2.063 0 3.969 0.531t3.57 1.508 3.023 2.336 2.336 3.023 1.508 3.57 0.531 3.969-0.531 3.969-1.508 3.57-2.336 3.023-3.023 2.336-3.57 1.508-3.969 0.531-3.969-0.531-3.57-1.508-3.023-2.336-2.336-3.023-1.508-3.57-0.531-3.969 0.531-3.969 1.508-3.57 2.336-3.023 3.023-2.336 3.57-1.508 3.969-0.531zM15 28.063q1.797 0 3.469-0.469t3.125-1.32 2.641-2.039 2.039-2.641 1.32-3.125 0.469-3.469-0.469-3.469-1.32-3.125-2.039-2.641-2.641-2.039-3.125-1.32-3.469-0.469-3.469 0.469-3.125 1.32-2.641 2.039-2.039 2.641-1.32 3.125-0.469 3.469 0.469 3.469 1.32 3.125 2.039 2.641 2.641 2.039 3.125 1.32 3.469 0.469zM14 22h2v2h-2v-2zM15 7q1.031 0 1.938 0.398t1.586 1.078 1.078 1.586 0.398 1.938h-2q0-0.625-0.234-1.172t-0.641-0.953-0.953-0.641-1.172-0.234-1.172 0.234-0.953 0.641-0.641 0.953-0.234 1.172q0 0.656 0.297 1.18t0.742 0.984 0.961 0.922 0.961 1.023 0.742 1.258 0.297 1.633v1h-2v-1q0-0.656-0.297-1.18t-0.742-0.984-0.961-0.922-0.961-1.023-0.742-1.258-0.297-1.633q0-1.031 0.391-1.938t1.070-1.586 1.594-1.078 1.945-0.398z"></path>
</svg>
