<!-- Generated by IcoMoon.io -->
<svg version="1.1" xmlns="http://www.w3.org/2000/svg" width="32" height="32" viewBox="0 0 32 32">
<title>uniE77A</title>
<path d="M23 18q1.453 0 2.727 0.547t2.227 1.5 1.5 2.227 0.547 2.727-0.547 2.727-1.5 2.227-2.227 1.5-2.727 0.547-2.727-0.547-2.227-1.5-1.5-2.227-0.547-2.727 0.547-2.727 1.5-2.227 2.227-1.5 2.727-0.547zM18 25q0 1.031 0.391 1.945t1.070 1.594 1.594 1.070 1.945 0.391q0.734 0 1.438-0.211t1.313-0.617l-6.922-6.922q-0.406 0.609-0.617 1.313t-0.211 1.438zM27.172 27.75q0.406-0.609 0.617-1.313t0.211-1.438q0-1.031-0.398-1.938t-1.078-1.586-1.586-1.078-1.938-0.398q-0.734 0-1.438 0.211t-1.313 0.617zM31.094 11.688q-0.516 0.516-1.008 0.945t-1.016 0.727-1.141 0.461-1.398 0.164q-0.531 0-1.016-0.094l-2.094 2.109h-2.844l4.344-4.344 0.156 0.047q0.359 0.109 0.719 0.195t0.734 0.086q0.859 0 1.625-0.406l-7.734-7.734q-0.406 0.766-0.406 1.625 0 0.375 0.086 0.734t0.195 0.719l0.047 0.156-7.688 7.672q-0.375-0.156-0.719-0.297t-0.688-0.234-0.711-0.148-0.789-0.055q-0.891 0-1.734 0.258t-1.563 0.758l7.547 7.547v2.844l-3-3.016-8.875 8.891-2.125 0.703 0.703-2.125 8.891-8.875-6.031-6.031 0.703-0.703q1.094-1.094 2.531-1.672t2.984-0.578q0.609 0 1.211 0.102t1.195 0.289l5.922-5.922q-0.094-0.484-0.094-1.016 0-0.766 0.164-1.383t0.461-1.148 0.727-1.023 0.945-1.008z"></path>
</svg>
