<!-- Generated by IcoMoon.io -->
<svg version="1.1" xmlns="http://www.w3.org/2000/svg" width="32" height="32" viewBox="0 0 32 32">
<title>uniE31F</title>
<path d="M12 5.422l-6.297 6.281-1.406-1.406 8.703-8.703 8.703 8.703-1.406 1.406-6.297-6.281v20.578h-2v-20.578zM32 25q0 1.453-0.547 2.727t-1.5 2.227-2.227 1.5-2.727 0.547-2.727-0.547-2.227-1.5-1.5-2.227-0.547-2.727 0.547-2.727 1.5-2.227 2.227-1.5 2.727-0.547 2.727 0.547 2.227 1.5 1.5 2.227 0.547 2.727zM27.75 29.172l-6.922-6.922q-0.406 0.609-0.617 1.313t-0.211 1.438q0 1.047 0.391 1.953t1.070 1.586 1.586 1.070 1.953 0.391q0.734 0 1.438-0.211t1.313-0.617zM30 25q0-1.031-0.398-1.938t-1.078-1.586-1.586-1.078-1.938-0.398q-0.734 0-1.438 0.211t-1.313 0.617l6.922 6.922q0.406-0.609 0.617-1.313t0.211-1.438zM16.953 30q0.344 0.578 0.75 1.078t0.922 0.922h-18.625v-6h2v4h14.953z"></path>
</svg>
