<!-- Generated by IcoMoon.io -->
<svg version="1.1" xmlns="http://www.w3.org/2000/svg" width="32" height="32" viewBox="0 0 32 32">
<title>uniE7FE</title>
<path d="M32 10v18h-24v-4h-4v-4h-4v-18h20.516q-1.078 0.313-2.086 0.813t-1.914 1.188h-14.516v14h20v-8h1l1 1v9h-18v2h20v-10l2-2v14h-18v2h20v-16h2zM14 14q0-1.375 0.359-2.656t1.008-2.391 1.563-2.023 2.023-1.563 2.391-1.008 2.656-0.359h2.578l-2.281-2.297 1.406-1.406 4.703 4.703-4.703 4.703-1.406-1.406 2.281-2.297h-2.578q-1.656 0-3.109 0.633t-2.539 1.719-1.719 2.539-0.633 3.109h-2z"></path>
</svg>
