<!-- Generated by IcoMoon.io -->
<svg version="1.1" xmlns="http://www.w3.org/2000/svg" width="32" height="32" viewBox="0 0 32 32">
<title>uniEDA0</title>
<path d="M30 19.938q0.016 0.031 0.023 0.445t0.008 1.078v1.516t-0.008 1.75-0.008 1.773-0.008 1.602-0.008 1.234v0.664h-30v-10.063l5.828-17.469 1.594 1.547-5.328 15.984h6.531l2 4h8.75l2-4h6.531l-5.328-16 1.578-1.609zM28 22h-5.375l-2 4h-11.25l-2-4h-5.375v6h26v-6zM8.297 12.297l5.281-5.297-5.281-5.297 1.406-1.406 5.297 5.297 5.297-5.297 1.406 1.406-5.297 5.297 5.297 5.297-1.406 1.406-5.297-5.297-5.297 5.297z"></path>
</svg>
