<!-- Generated by IcoMoon.io -->
<svg version="1.1" xmlns="http://www.w3.org/2000/svg" width="32" height="32" viewBox="0 0 32 32">
<title>uniF4A4</title>
<path d="M30.203 28.797l-1.406 1.406-3.672-3.656q-1.859 1.609-4.18 2.531t-4.945 0.922q-1.859 0-3.617-0.477t-3.305-1.352-2.844-2.133-2.234-2.82v4.781h-2v-8h8v2h-4.391q0.797 1.391 1.914 2.5t2.461 1.883 2.867 1.195 3.148 0.422q2.203 0 4.164-0.758t3.555-2.117l-16.859-16.844q-0.984 1.141-1.656 2.5t-0.984 2.922l-1.969-0.391q0.359-1.859 1.188-3.477t2.016-2.961l-3.656-3.672 1.406-1.406zM16 4q-1.516 0-2.922 0.375t-2.672 1.047l-1.469-1.484q1.578-0.938 3.352-1.438t3.711-0.5q1.844 0 3.594 0.477t3.305 1.359 2.859 2.133 2.242 2.813v-4.781h2v8h-8v-2h4.391q-0.797-1.375-1.914-2.484t-2.469-1.891-2.875-1.203-3.133-0.422zM28.078 23.078l-1.5-1.5q0.406-0.766 0.719-1.57t0.484-1.695l1.953 0.375q-0.219 1.203-0.648 2.289t-1.008 2.102z"></path>
</svg>
