<!-- Generated by IcoMoon.io -->
<svg version="1.1" xmlns="http://www.w3.org/2000/svg" width="32" height="32" viewBox="0 0 32 32">
<title>uniE8F6</title>
<path d="M26 0q0.422 0 0.781 0.156t0.633 0.43 0.43 0.633 0.156 0.781v15.5q0 0.484 0.148 0.852t0.367 0.688 0.484 0.633 0.484 0.711 0.367 0.906 0.148 1.211v7.5q0 0.422-0.156 0.781t-0.43 0.633-0.633 0.43-0.781 0.156h-13l2-2h7v-7.5q0-0.703 0.148-1.211t0.367-0.906 0.484-0.711 0.484-0.633 0.367-0.688 0.148-0.852v-15.5h-20v13.594q-0.5 0.063-1.008 0.164t-0.992 0.273v-16.031h22zM28 22.5q0-0.375-0.070-0.656t-0.203-0.516-0.313-0.461-0.414-0.492q-0.234 0.266-0.414 0.492t-0.313 0.461-0.203 0.516-0.070 0.656v7.5h2v-7.5zM12 18h2v6h-6v-2h2.969q-0.703-0.938-1.75-1.469t-2.219-0.531q-0.734 0-1.438 0.211t-1.313 0.617l6.922 6.922q0.563-0.875 0.734-1.922l1.984 0.344q-0.141 0.828-0.469 1.586t-0.828 1.43l1.359 1.359-1.406 1.406-1.359-1.344q-0.906 0.672-1.984 1.031t-2.203 0.359q-1.422 0-2.719-0.555t-2.281-1.586v2.141h-2v-6h6v2h-2.969q0.703 0.938 1.75 1.469t2.219 0.531q0.734 0 1.438-0.211t1.313-0.617l-6.922-6.922q-0.563 0.875-0.734 1.922l-1.984-0.344q0.141-0.828 0.469-1.586t0.828-1.43l-1.359-1.359 1.406-1.406 1.359 1.344q0.906-0.672 1.984-1.031t2.203-0.359q1.422 0 2.719 0.555t2.281 1.586v-2.141z"></path>
</svg>
