<!-- Generated by IcoMoon.io -->
<svg version="1.1" xmlns="http://www.w3.org/2000/svg" width="32" height="32" viewBox="0 0 32 32">
<title>uniF60B</title>
<path d="M25 7q0 0.422-0.156 0.781t-0.43 0.633-0.633 0.43-0.781 0.156-0.781-0.156-0.633-0.43-0.43-0.633-0.156-0.781 0.156-0.781 0.43-0.633 0.633-0.43 0.781-0.156 0.781 0.156 0.633 0.43 0.43 0.633 0.156 0.781zM14 27.172l4.109-4.109 1.422 1.406-5.531 5.531-14-14 16-16h14v14l-5.516 5.516-1.422-1.406 4.938-4.938v-11.172h-11.172l-14 14zM31.953 23.453l-3.531 3.547 3.531 3.547-1.406 1.406-3.547-3.547-3.547 3.547-1.406-1.406 3.547-3.547-3.547-3.547 1.406-1.406 3.547 3.547 3.547-3.547z"></path>
</svg>
