<!-- Generated by IcoMoon.io -->
<svg version="1.1" xmlns="http://www.w3.org/2000/svg" width="32" height="32" viewBox="0 0 32 32">
<title>uniE3FE</title>
<path d="M21.109 16.359q-1.172 0.531-2.172 1.359t-1.75 1.891q-0.813 0.281-1.578 0.336t-1.609 0.055v-2h1q1.031 0 1.938-0.391t1.586-1.070 1.078-1.594 0.398-1.945-0.398-1.938-1.078-1.586-1.586-1.078-1.938-0.398h-8q-1.031 0-1.945 0.398t-1.594 1.078-1.070 1.586-0.391 1.938 0.391 1.945 1.070 1.594 1.594 1.070 1.945 0.391h1v2h-1q-1.453 0-2.727-0.555t-2.219-1.5-1.5-2.219-0.555-2.727 0.555-2.727 1.5-2.219 2.219-1.5 2.727-0.555h8q1.453 0 2.727 0.555t2.219 1.5 1.5 2.219 0.555 2.727q0 0.891-0.234 1.734t-0.656 1.625zM29.359 16.609q-0.328-0.594-0.797-1.078t-1.031-0.82-1.203-0.523-1.328-0.188h-1v-2h1q1.375 0 2.609 0.508t2.172 1.398 1.516 2.094 0.656 2.578q-1.109-1.203-2.594-1.969zM12 19q0 0.828 0.266 1.594t0.75 1.398 1.148 1.094 1.461 0.695q-0.047 0.313-0.086 0.609t-0.039 0.609q0 0.219 0.031 0.43t0.063 0.43q-1.219-0.25-2.242-0.891t-1.773-1.555-1.164-2.039-0.414-2.375q0-1.453 0.555-2.727t1.5-2.219 2.219-1.5 2.727-0.555h1v2h-1q-1.031 0-1.945 0.398t-1.594 1.078-1.070 1.586-0.391 1.938zM32 25q0 1.453-0.547 2.727t-1.5 2.227-2.227 1.5-2.727 0.547-2.727-0.547-2.227-1.5-1.5-2.227-0.547-2.727 0.547-2.727 1.5-2.227 2.227-1.5 2.727-0.547 2.727 0.547 2.227 1.5 1.5 2.227 0.547 2.727zM25 30q1.031 0 1.938-0.391t1.586-1.070 1.078-1.594 0.398-1.945-0.398-1.938-1.078-1.586-1.586-1.078-1.938-0.398-1.945 0.398-1.594 1.078-1.070 1.586-0.391 1.938 0.391 1.945 1.070 1.594 1.594 1.070 1.945 0.391zM22 26v-2h6v2h-6z"></path>
</svg>
