<!-- Generated by IcoMoon.io -->
<svg version="1.1" xmlns="http://www.w3.org/2000/svg" width="32" height="32" viewBox="0 0 32 32">
<title>uniF6ED</title>
<path d="M12 16q-1.375 0-2.656 0.359t-2.391 1.008-2.023 1.563-1.563 2.023-1.008 2.391-0.359 2.656h-2q0-1.859 0.555-3.602t1.57-3.219 2.445-2.609 3.18-1.789q-1.797-1.172-2.773-2.906t-0.977-3.875q0-1.656 0.625-3.117t1.711-2.547 2.547-1.711 3.117-0.625 3.117 0.625 2.547 1.711 1.711 2.547 0.625 3.117q0 1.031-0.258 2.016t-0.742 1.859-1.18 1.617-1.57 1.289q0.859 0.328 1.648 0.797t1.508 1.047q-1.078 0.375-2.078 0.969-0.469-0.375-1.133-0.672t-1.406-0.5-1.477-0.313-1.313-0.109zM12 14q1.25 0 2.344-0.469t1.906-1.281 1.281-1.906 0.469-2.344q0-1.234-0.469-2.328t-1.289-1.914-1.914-1.289-2.328-0.469q-1.25 0-2.344 0.469t-1.906 1.281-1.281 1.906-0.469 2.344 0.469 2.344 1.281 1.906 1.906 1.281 2.344 0.469zM30.172 21.25l-4.469 4.469q0.297 0.641 0.297 1.281 0 0.625-0.234 1.172t-0.641 0.953-0.953 0.641-1.172 0.234-1.172-0.234-0.953-0.641-0.641-0.953-0.234-1.172 0.234-1.172 0.641-0.953 0.953-0.641 1.172-0.234q0.641 0 1.281 0.297l4.469-4.469zM23 28q0.406 0 0.703-0.297t0.297-0.703-0.297-0.703-0.703-0.297-0.703 0.297-0.297 0.703 0.297 0.703 0.703 0.297zM23 20q-1.453 0-2.727 0.555t-2.219 1.5-1.5 2.219-0.555 2.727q0 1 0.289 1.961t0.82 1.805l-1.594 1.234q-0.75-1.125-1.133-2.398t-0.383-2.602q0-1.859 0.711-3.5t1.93-2.859 2.859-1.93 3.5-0.711q1.016 0 1.984 0.234t1.875 0.672l-1.531 1.516q-0.563-0.188-1.148-0.305t-1.18-0.117zM31.094 23.141q0.438 0.906 0.672 1.875t0.234 1.984q0 1.328-0.383 2.602t-1.133 2.398l-1.594-1.234q0.531-0.844 0.82-1.805t0.289-1.961q0-0.594-0.117-1.18t-0.305-1.148z"></path>
</svg>
