<!-- Generated by IcoMoon.io -->
<svg version="1.1" xmlns="http://www.w3.org/2000/svg" width="32" height="32" viewBox="0 0 32 32">
<title>uniE666</title>
<path d="M30.813 15.406l0.688 2.609-15.5 3.984-0.688-2.609zM16 22h16v8q0 0.422-0.156 0.781t-0.43 0.633-0.633 0.43-0.781 0.156h-12q-0.406 0-0.773-0.156t-0.641-0.43-0.43-0.641-0.156-0.773v-8zM30 30v-6h-12v6h12zM20 8q0 1.656-0.633 3.109t-1.719 2.539-2.539 1.719-3.109 0.633q-1.375 0-2.656 0.359t-2.391 1.008-2.023 1.563-1.563 2.023-1.008 2.391-0.359 2.656h-2q0-1.875 0.563-3.617t1.586-3.211 2.461-2.602 3.188-1.789q-0.875-0.547-1.578-1.289t-1.195-1.617-0.758-1.859-0.266-2.016q0-1.656 0.633-3.109t1.719-2.539 2.539-1.719 3.109-0.633 3.109 0.633 2.539 1.719 1.719 2.539 0.633 3.109zM12 14q1.234 0 2.328-0.469t1.914-1.289 1.289-1.906 0.469-2.336q0-1.234-0.469-2.328t-1.289-1.914-1.914-1.289-2.328-0.469q-1.25 0-2.336 0.469t-1.906 1.289-1.289 1.914-0.469 2.328q0 1.25 0.469 2.336t1.289 1.906 1.906 1.289 2.336 0.469z"></path>
</svg>
