<!-- Generated by IcoMoon.io -->
<svg version="1.1" xmlns="http://www.w3.org/2000/svg" width="32" height="32" viewBox="0 0 32 32">
<title>uniE4ED</title>
<path d="M27.547 24.828q1.016 0.516 1.844 1.266t1.406 1.688 0.891 2.008 0.313 2.211h-2q0-1.234-0.469-2.328t-1.289-1.914-1.914-1.289-2.328-0.469q-1.25 0-2.336 0.469t-1.906 1.289-1.289 1.914-0.469 2.328h-2q0-1.141 0.313-2.211t0.891-2.008 1.406-1.688 1.844-1.266q-1.156-0.844-1.805-2.117t-0.648-2.711q0-1.234 0.469-2.328t1.289-1.914 1.906-1.289 2.336-0.469q1.234 0 2.328 0.469t1.906 1.289 1.281 1.914 0.469 2.328q0 1.438-0.641 2.711t-1.797 2.117zM20 20q0 0.828 0.313 1.555t0.859 1.273 1.273 0.859 1.555 0.313 1.555-0.313 1.273-0.859 0.859-1.273 0.313-1.555-0.313-1.555-0.859-1.273-1.273-0.859-1.555-0.313-1.555 0.313-1.273 0.859-0.859 1.273-0.313 1.555zM0 2h32v15.297q-0.313-0.938-0.813-1.766t-1.188-1.531v-4h-28v16h13.406q-0.328 0.469-0.602 0.969t-0.492 1.031h-14.313v-26zM2 8h28v-4h-28v4z"></path>
</svg>
