<!-- Generated by IcoMoon.io -->
<svg version="1.1" xmlns="http://www.w3.org/2000/svg" width="32" height="32" viewBox="0 0 32 32">
<title>uniF25C</title>
<path d="M21.828 24.219q-0.328-1.781-1.227-3.281t-2.203-2.602-2.945-1.719-3.453-0.617q-1.375 0-2.656 0.359t-2.391 1.008-2.023 1.563-1.563 2.023-1.008 2.391-0.359 2.656h-2q0-1.828 0.555-3.578t1.578-3.242 2.453-2.641 3.164-1.758q-0.875-0.563-1.57-1.297t-1.18-1.609-0.742-1.859-0.258-2.016q0-1.656 0.625-3.117t1.711-2.547 2.547-1.711 3.117-0.625 3.117 0.625 2.547 1.711 1.711 2.547 0.625 3.117q0 1.031-0.258 2.016t-0.742 1.859-1.18 1.617-1.57 1.289q1.547 0.594 2.859 1.563t2.305 2.234 1.633 2.773 0.844 3.148l-0.891 0.906zM6 8q0 1.25 0.469 2.336t1.289 1.906 1.906 1.289 2.336 0.469q1.234 0 2.328-0.469t1.914-1.289 1.289-1.906 0.469-2.336q0-1.234-0.469-2.328t-1.289-1.914-1.914-1.289-2.328-0.469q-1.25 0-2.336 0.469t-1.906 1.289-1.289 1.914-0.469 2.328zM31.703 22.703l-8.703 8.719-4.203-4.219 1.406-1.406 2.797 2.781 7.297-7.281z"></path>
</svg>
