<!-- Generated by IcoMoon.io -->
<svg version="1.1" xmlns="http://www.w3.org/2000/svg" width="32" height="32" viewBox="0 0 32 32">
<title>uniF49F</title>
<path d="M27 26q0.406 0 0.703 0.297t0.297 0.703-0.297 0.703-0.703 0.297h-12q-0.406 0-0.703-0.297t-0.297-0.703 0.297-0.703 0.703-0.297h12zM25 30q0.406 0 0.703 0.297t0.297 0.703-0.297 0.703-0.703 0.297h-8q-0.406 0-0.703-0.297t-0.297-0.703 0.297-0.703 0.703-0.297h8zM28.719 22h3.281v2h-23.609q-0.156 1-0.227 2t-0.109 1.992-0.039 1.992-0.016 2.016h-6v-3.016q0-1.266 0.094-2.5t0.266-2.484h-2.359v-2h2.688q0.781-3.828 2.359-7.359t3.906-6.672q-2.281-0.078-4.188-0.961t-3.484-2.492l-0.703-0.719 0.734-0.688q1.625-1.516 3.563-2.305t4.172-0.789q2.438 0 4.469 0.914t3.734 2.617q1.203 0.031 2.328 0.375t2.094 0.938 1.766 1.406 1.367 1.797 0.883 2.109 0.313 2.344v1h-1q-2.063 0-3.867-0.883t-3.102-2.477q-1.188 2.156-2.984 3.547t-4.203 1.953q-0.672 1.547-1.195 3.125t-0.883 3.219h4.516q0.344-1.313 1.078-2.414t1.758-1.898 2.273-1.242 2.609-0.445 2.609 0.445 2.273 1.242 1.758 1.898 1.078 2.414zM19.344 5.938q-0.094 1.016-0.406 2.063 0.797 1.375 2.102 2.281t2.883 1.156q-0.156-0.953-0.547-1.805t-0.992-1.57-1.367-1.258-1.672-0.867zM17.375 6.047q-1.594 0.125-3.008 0.789t-2.516 1.719-1.828 2.445-0.945 2.953q1.328-0.109 2.516-0.57t2.172-1.211 1.75-1.758 1.266-2.242q0.219-0.516 0.367-1.047t0.227-1.078zM3.5 3.859q1.25 1.031 2.766 1.578t3.141 0.547q1.516 0 2.93-0.469t2.617-1.375q-1.25-1.031-2.766-1.578t-3.141-0.547q-1.516 0-2.93 0.469t-2.617 1.375zM8.469 15.969q-0.125 0.031-0.25 0.031h-0.25q-0.25 0-0.5-0.008t-0.5-0.023v-0.734q-0.828 1.844-1.398 3.625t-0.922 3.594-0.5 3.68-0.148 3.867h2q0-1.891 0.133-3.656t0.422-3.484 0.758-3.422 1.156-3.469zM15.375 22h11.25q-0.313-0.891-0.875-1.633t-1.305-1.266-1.617-0.813-1.828-0.289-1.828 0.289-1.617 0.813-1.305 1.266-0.875 1.633z"></path>
</svg>
