<!-- Generated by IcoMoon.io -->
<svg version="1.1" xmlns="http://www.w3.org/2000/svg" width="32" height="32" viewBox="0 0 32 32">
<title>uniEAE0</title>
<path d="M30.547 9.953l-1.547-1.547-2.594 2.594 1.547 1.547-1.406 1.406-1.547-1.547-13.578 13.594h-4.016l-3.156 3.172-4.25 1.406 6-6v-4l13.594-13.578-1.547-1.547 1.406-1.406 1.547 1.547 2.594-2.594-1.547-1.547 1.406-1.406 8.5 8.5zM10.578 24l13-13-2.578-2.578-3.578 3.578 1.281 1.297-1.406 1.406-1.297-1.281-1.594 1.578 1.297 1.297-1.406 1.406-1.297-1.297-1.578 1.594 1.281 1.297-1.406 1.406-1.297-1.281-2 2v2.578h2.578zM25 9.578l2.578-2.578-2.578-2.578-2.578 2.578z"></path>
</svg>
