<!-- Generated by IcoMoon.io -->
<svg version="1.1" xmlns="http://www.w3.org/2000/svg" width="32" height="32" viewBox="0 0 32 32">
<title>uniE550</title>
<path d="M24 16q1.656 0 3.117 0.625t2.547 1.711 1.711 2.547 0.625 3.117q0 1.672-0.625 3.125t-1.711 2.539-2.547 1.711-3.117 0.625q-1.672 0-3.125-0.625t-2.539-1.711-1.711-2.539-0.625-3.125q0-1.656 0.625-3.117t1.711-2.547 2.539-1.711 3.125-0.625zM24 30q1.234 0 2.328-0.469t1.914-1.289 1.289-1.906 0.469-2.336q0-1.234-0.469-2.328t-1.289-1.914-1.914-1.289-2.328-0.469q-1.25 0-2.336 0.469t-1.906 1.289-1.289 1.914-0.469 2.328q0 1.25 0.469 2.336t1.289 1.906 1.906 1.289 2.336 0.469zM24 20v4h3v2h-5v-6h2zM16 13.422l-1.594 1.578 1.297 1.297-1.406 1.406-1.297-1.297-1.578 1.594 1.281 1.297-1.406 1.406-1.297-1.281-2 2v2.578h2.578l3.594-3.594q-0.313 0.844-0.484 1.719t-0.172 1.781l-2.094 2.094h-4.016l-3.156 3.172-4.25 1.406 6-6v-4l13.594-13.578-1.547-1.547 1.406-1.406 1.547 1.547 2.594-2.594-1.547-1.547 1.406-1.406 8.5 8.5-1.406 1.406-1.547-1.547-2.594 2.594 1.547 1.547-1.406 1.406-1.547-1.547-1.109 1.109q-0.891 0-1.766 0.172t-1.719 0.484l3.172-3.172-2.578-2.578-3.578 3.578 1.281 1.297-1.406 1.406zM25 4.422l-2.578 2.578 2.578 2.578 2.578-2.578z"></path>
</svg>
