<!-- Generated by IcoMoon.io -->
<svg version="1.1" xmlns="http://www.w3.org/2000/svg" width="32" height="32" viewBox="0 0 32 32">
<title>uniF31B</title>
<path d="M10.781 21.047q0-0.359 0.234-0.594t0.594-0.234q0.188 0 0.359 0.094t0.313 0.203 0.258 0.203 0.227 0.094q0.156 0 0.414-0.242t0.547-0.617 0.602-0.836 0.578-0.891 0.453-0.781 0.266-0.523q-0.125-0.531-0.266-1.047t-0.266-1.047q-0.125-0.484-0.273-0.852t-0.375-0.617-0.531-0.383-0.742-0.133q-0.156 0-0.32 0.016t-0.336 0.047v-0.391l2.875-0.516q0.328 0.359 0.555 0.727t0.375 0.75 0.258 0.797 0.234 0.883q0.234-0.344 0.586-0.883t0.797-1.039 0.953-0.867 1.039-0.367q0.391 0 0.703 0.211t0.313 0.633q0 0.844-0.844 0.844-0.313 0-0.578-0.141t-0.578-0.141q-0.297 0-0.625 0.297t-0.633 0.703-0.555 0.82-0.406 0.648l0.891 3.703q0.016 0.109 0.063 0.305t0.125 0.391 0.188 0.344 0.25 0.148q0.188 0 0.43-0.18t0.461-0.43 0.398-0.508 0.242-0.43l0.375 0.188q-0.125 0.297-0.438 0.734t-0.711 0.852-0.813 0.711-0.758 0.297-0.57-0.203-0.398-0.469q-0.141-0.25-0.266-0.727t-0.234-1.016-0.211-1.055-0.211-0.828q-0.172 0.313-0.414 0.75t-0.555 0.914-0.672 0.953-0.75 0.844-0.789 0.602-0.789 0.234q-0.406 0-0.727-0.266t-0.32-0.688zM23.688 22q0.844-1.078 1.297-2.336t0.453-2.633q0-1.406-0.453-2.656t-1.297-2.375h1.469q1.844 2.172 1.844 5.031 0 1.422-0.445 2.656t-1.398 2.313h-1.469zM0 2h32v26h-32v-26zM30 26v-16h-28v16h28zM30 8v-4h-28v4h28zM6.844 22q-0.969-1.063-1.406-2.305t-0.438-2.664q0-2.859 1.844-5.031h1.453q-0.844 1.094-1.289 2.367t-0.445 2.664q0 1.359 0.445 2.625t1.289 2.344h-1.453z"></path>
</svg>
