<!-- Generated by IcoMoon.io -->
<svg version="1.1" xmlns="http://www.w3.org/2000/svg" width="32" height="32" viewBox="0 0 32 32">
<title>uniF86D</title>
<path d="M2.172 15q0 3.484 0.922 6.719t2.578 6.281h-1.516q-0.969-1.422-1.734-2.992t-1.305-3.219-0.828-3.367-0.289-3.438q0-3.594 1.109-6.797t3.047-6.188h1.516q-0.859 1.688-1.508 3.203t-1.094 3.055-0.672 3.18-0.227 3.563zM25.375 7.531q0 0.75-0.398 1.125t-1.133 0.375q-0.266 0-0.531-0.078t-0.523-0.172-0.516-0.172-0.523-0.078q-0.328 0-0.703 0.25t-0.773 0.656-0.781 0.906-0.719 1-0.594 0.938-0.398 0.703l1.578 6.656q0.047 0.203 0.133 0.555t0.219 0.703 0.328 0.609 0.461 0.258q0.359 0 0.789-0.313t0.82-0.758 0.703-0.906 0.453-0.773l0.672 0.328q-0.188 0.359-0.508 0.844t-0.711 1-0.852 1.016-0.945 0.898-0.961 0.648-0.914 0.25q-0.609 0-1.031-0.359t-0.703-0.859q-0.125-0.219-0.281-0.703t-0.32-1.109-0.336-1.328-0.313-1.352-0.258-1.188-0.164-0.836q-0.406 0.75-0.977 1.695t-1.219 1.898-1.336 1.797-1.328 1.375q-0.5 0.406-1.063 0.688t-1.219 0.281q-0.375 0-0.711-0.117t-0.594-0.344-0.414-0.539-0.156-0.703q0-0.656 0.406-1.078t1.063-0.422q0.344 0 0.641 0.172t0.555 0.367 0.484 0.367 0.414 0.172q0.281 0 0.742-0.438t0.984-1.125 1.078-1.516 1.023-1.609 0.82-1.406 0.492-0.922q-0.156-0.594-0.313-1.172t-0.297-1.172q-0.125-0.5-0.266-1.133t-0.352-1.266-0.508-1.172-0.734-0.852q-0.484-0.344-1.008-0.438t-1.102-0.094q-0.516 0-1.031 0.047v-0.688l5.188-0.922q0.625 0.672 1.016 1.328t0.656 1.336 0.461 1.422 0.43 1.586q0.5-0.75 1.008-1.531t1.078-1.492 1.25-1.313 1.523-1.023q0.281-0.141 0.594-0.227t0.625-0.086q0.344 0 0.68 0.094t0.586 0.281 0.406 0.477 0.156 0.68zM32 14.984q0 1.719-0.289 3.438t-0.828 3.367-1.305 3.219-1.734 2.992h-1.516q1.656-3.047 2.578-6.281t0.922-6.719q0-2.281-0.398-4.539t-1.211-4.398q-0.406-1.047-0.898-2.055t-0.992-2.008h1.516q1.938 2.984 3.047 6.188t1.109 6.797z"></path>
</svg>
