<!-- Generated by IcoMoon.io -->
<svg version="1.1" xmlns="http://www.w3.org/2000/svg" width="32" height="32" viewBox="0 0 32 32">
<title>uniE4D1</title>
<path d="M6.578 4v1.75q-0.734 0.016-1.188 0.281t-0.703 0.711-0.328 1.047-0.078 1.273q0 0.656 0.039 1.344t0.039 1.375q0 0.703-0.078 1.359t-0.313 1.211-0.656 0.969-1.125 0.633v0.063q0.609 0.172 1.023 0.523t0.664 0.813 0.352 1.016 0.102 1.133v3.953q0 0.625 0.086 1.141t0.328 0.883 0.688 0.578 1.148 0.227v1.719q-1.453-0.016-2.328-0.438t-1.328-1.117-0.594-1.586-0.141-1.859q0-0.703 0.031-1.383t0.031-1.336q0-0.703-0.078-1.313t-0.32-1.078-0.688-0.758-1.164-0.336v-1.594q0.719-0.047 1.164-0.336t0.68-0.766 0.313-1.102 0.078-1.328q0-0.625-0.023-1.289t-0.023-1.32q0-0.969 0.133-1.875t0.594-1.609 1.328-1.133 2.336-0.445zM19.719 9.594h2.578l-4.891 7.063 4.813 6.906h-2.719q-0.891-1.406-1.773-2.789t-1.727-2.805h-0.063q-0.859 1.422-1.766 2.805t-1.813 2.789h-2.688l4.969-6.859-4.75-7.109h2.719q0.875 1.469 1.742 2.914t1.68 2.945h0.063zM32 15.203v1.594q-0.734 0.047-1.172 0.336t-0.68 0.75-0.32 1.078-0.078 1.32q0 0.656 0.031 1.344t0.031 1.391q0 0.969-0.141 1.859t-0.594 1.586-1.32 1.109-2.32 0.43v-1.719q0.688-0.016 1.133-0.227t0.695-0.586 0.344-0.891 0.094-1.125v-3.953q0-0.578 0.102-1.133t0.344-1.016 0.656-0.813 1.023-0.523v-0.063q-0.703-0.203-1.125-0.617t-0.648-0.969-0.305-1.203-0.078-1.352 0.031-1.406 0.031-1.359q0-0.672-0.078-1.273t-0.328-1.047-0.695-0.703-1.195-0.273v-1.75q1.453 0.016 2.32 0.438t1.32 1.125 0.594 1.609 0.141 1.875q0 0.672-0.031 1.336t-0.031 1.305q0 0.703 0.078 1.32t0.32 1.094 0.68 0.766 1.172 0.336z"></path>
</svg>
