<!-- Generated by IcoMoon.io -->
<svg version="1.1" xmlns="http://www.w3.org/2000/svg" width="32" height="32" viewBox="0 0 32 32">
<title>uniF305</title>
<path d="M16.75 11.438h-3.5l-2.484 11.609q-0.266 1.219-0.906 2.477t-1.57 2.281-2.125 1.672-2.555 0.648q-0.406 0-0.828-0.078t-0.766-0.266-0.57-0.508-0.227-0.805q0-0.625 0.383-1.070t1.039-0.445q0.391 0 0.703 0.172t0.563 0.438 0.453 0.594 0.391 0.625l0.109 0.188q0.5-0.031 0.906-0.344t0.727-0.781 0.57-1.055 0.438-1.172 0.32-1.125 0.211-0.914l2.609-12.141h-2.75l0.313-1.266h2.703l0.188-0.969q0.25-1.25 0.852-2.516t1.508-2.281 2.086-1.648 2.586-0.633q0.406 0 0.828 0.078t0.773 0.266 0.57 0.508 0.219 0.805q0 0.656-0.352 1.102t-1.055 0.445q-0.5 0-0.828-0.195t-0.563-0.492-0.43-0.656-0.398-0.703q-0.578 0.031-1.031 0.438t-0.805 1.039-0.602 1.398-0.43 1.523-0.305 1.422-0.203 1.070h3.531zM27.125 12.438q-0.391 0.313-0.828 0.828t-0.852 1.086-0.781 1.148-0.617 1.016q0.156 0.641 0.297 1.266t0.313 1.266q0.156 0.578 0.352 1.203t0.523 1.148 0.813 0.859 1.219 0.336q0.188 0 0.438-0.023t0.508-0.063 0.5-0.094 0.414-0.133l-0.25 0.922q-0.469 0.203-0.883 0.375t-0.82 0.297-0.852 0.195-0.961 0.070q-0.688 0-1.133-0.195t-0.734-0.547-0.477-0.852-0.375-1.094q-0.219-0.688-0.391-1.359t-0.344-1.375q-0.594 0.938-1.188 1.805t-1.297 1.711q-0.313 0.375-0.625 0.719t-0.68 0.609-0.789 0.422-0.938 0.156q-0.656 0-1.086-0.375t-0.43-1.063q0-0.406 0.156-0.711t0.422-0.508 0.609-0.305 0.719-0.102q0.469 0 0.898 0.172t0.883 0.297q0.891-0.891 1.664-1.891t1.367-2.094l-0.031-0.156q-0.063-0.297-0.188-0.797t-0.273-1.086-0.336-1.195-0.383-1.125-0.406-0.898-0.414-0.508q-0.531-0.313-1.203-0.313-0.422 0-0.875 0.086t-0.844 0.258l0.25-0.938q0.219-0.094 0.656-0.266t0.906-0.344 0.906-0.297 0.656-0.125q0.688 0 1.148 0.219t0.773 0.609 0.516 0.906 0.375 1.109q0.172 0.609 0.32 1.242t0.273 1.258l0.031 0.125q0 0.031 0.008 0.047t0.008 0.047q0.297-0.469 0.641-1.063t0.75-1.219 0.867-1.227 0.977-1.070 1.094-0.758 1.219-0.289q0.609 0 1.039 0.406t0.43 1.031q0 0.391-0.156 0.688t-0.414 0.5-0.594 0.305-0.695 0.102q-0.406 0-0.906-0.133t-0.891-0.258z"></path>
</svg>
