<!-- Generated by IcoMoon.io -->
<svg version="1.1" xmlns="http://www.w3.org/2000/svg" width="32" height="32" viewBox="0 0 32 32">
<title>uniF2F2</title>
<path d="M30 2v28h-28v-28h28zM28.141 3.859h-24.281v24.281h24.281v-24.281zM9.984 26l-4.234-12h2.188l2.953 9.109q0.078 0.25 0.133 0.5t0.117 0.516q0.031-0.266 0.102-0.516t0.148-0.516l3.031-9.094h2.109l-4.313 12h-2.234zM26 22.547q0 0.875-0.367 1.523t-0.961 1.078-1.352 0.641-1.539 0.211h-3.781v-12h3.75q0.641 0 1.305 0.141t1.203 0.469 0.875 0.852 0.336 1.289q0 1.047-0.578 1.781t-1.563 1.094q1.219 0.141 1.945 0.914t0.727 2.008zM19.953 19.016h1.266q0.453 0 0.852-0.109t0.695-0.336 0.469-0.578 0.172-0.852q0-0.453-0.172-0.75t-0.453-0.477-0.648-0.25-0.758-0.070h-1.422v3.422zM21.625 24.406q0.469 0 0.883-0.109t0.727-0.336 0.492-0.594 0.18-0.883q0-0.563-0.219-0.93t-0.57-0.578-0.805-0.289-0.938-0.078h-1.422v3.797h1.672z"></path>
</svg>
