<!-- Generated by IcoMoon.io -->
<svg version="1.1" xmlns="http://www.w3.org/2000/svg" width="32" height="32" viewBox="0 0 32 32">
<title>uniF273</title>
<path d="M23.484 8.516q1.891 0.594 3.461 1.711t2.695 2.625 1.742 3.336 0.617 3.813q0 1.656-0.43 3.188t-1.211 2.867-1.875 2.43-2.43 1.875-2.867 1.211-3.188 0.43q-2 0-3.82-0.617t-3.328-1.742-2.633-2.688-1.703-3.469q-1.906-0.578-3.469-1.703t-2.688-2.633-1.742-3.328-0.617-3.82q0-1.656 0.43-3.188t1.211-2.867 1.875-2.43 2.43-1.875 2.867-1.211 3.188-0.43q1.984 0 3.813 0.617t3.336 1.742 2.625 2.695 1.711 3.461zM2 12q0 1.5 0.43 2.898t1.227 2.602 1.914 2.148 2.492 1.539q-0.031-0.297-0.047-0.594t-0.016-0.594q0-1.656 0.43-3.188t1.211-2.867 1.875-2.43 2.43-1.875 2.867-1.211 3.188-0.43q0.297 0 0.594 0.016t0.594 0.047q-0.594-1.375-1.539-2.492t-2.148-1.914-2.602-1.227-2.898-0.43q-1.375 0-2.656 0.359t-2.391 1.008-2.023 1.563-1.563 2.023-1.008 2.391-0.359 2.656zM10 20q0 0.875 0.172 1.828 0.953 0.172 1.828 0.172 0.625 0 1.242-0.078t1.211-0.219l-4.156-4.156q-0.141 0.594-0.219 1.211t-0.078 1.242zM16.281 21.047q1.141-0.563 2.141-1.391l-6.078-6.078q-0.828 1-1.391 2.141zM19.656 18.422q0.828-1 1.391-2.141l-5.328-5.328q-1.141 0.563-2.141 1.391zM22 12q0-0.875-0.172-1.828-0.953-0.172-1.828-0.172-0.625 0-1.242 0.078t-1.211 0.219l4.156 4.156q0.141-0.594 0.219-1.211t0.078-1.242zM20 30q1.375 0 2.656-0.359t2.391-1.008 2.023-1.563 1.563-2.023 1.008-2.391 0.359-2.656q0-1.5-0.43-2.898t-1.227-2.602-1.914-2.148-2.492-1.539q0.031 0.297 0.047 0.594t0.016 0.594q0 1.656-0.43 3.188t-1.211 2.867-1.875 2.43-2.43 1.875-2.867 1.211-3.188 0.43q-0.297 0-0.594-0.016t-0.594-0.047q0.594 1.375 1.539 2.492t2.148 1.914 2.602 1.227 2.898 0.43z"></path>
</svg>
