<!-- Generated by IcoMoon.io -->
<svg version="1.1" xmlns="http://www.w3.org/2000/svg" width="32" height="32" viewBox="0 0 32 32">
<title>uniF6AD</title>
<path d="M28.828 16l1.938 2.422q0.281 0.359 0.438 0.789t0.156 0.883q0 0.469-0.148 0.891t-0.406 0.766-0.633 0.594-0.813 0.375l-2.984 0.828q0.031 0.797 0.086 1.609t0.055 1.625q0 0.563-0.211 1.047t-0.578 0.852-0.859 0.578-1.055 0.211q-0.484 0-0.953-0.172l-2.891-1.094-1.703 2.578q-0.375 0.578-0.977 0.898t-1.289 0.32-1.289-0.32-0.977-0.898l-1.703-2.578-2.891 1.094q-0.469 0.172-0.953 0.172-0.563 0-1.055-0.211t-0.859-0.578-0.578-0.852-0.211-1.047q0-0.813 0.055-1.625t0.086-1.609l-2.984-0.828q-0.453-0.125-0.82-0.375t-0.625-0.594-0.406-0.766-0.148-0.891q0-0.453 0.156-0.883t0.438-0.789l1.938-2.422-1.938-2.422q-0.594-0.734-0.594-1.672 0-0.469 0.148-0.891t0.406-0.766 0.625-0.594 0.82-0.375l2.984-0.828q-0.031-0.797-0.086-1.609t-0.055-1.625q0-0.563 0.211-1.047t0.578-0.852 0.859-0.578 1.055-0.211q0.484 0 0.953 0.172l2.891 1.094 1.703-2.578q0.375-0.578 0.977-0.898t1.289-0.32 1.289 0.32 0.977 0.898l1.703 2.578 2.891-1.094q0.469-0.172 0.953-0.172 0.563 0 1.055 0.211t0.859 0.578 0.578 0.852 0.211 1.047q0 0.813-0.055 1.625t-0.086 1.609l2.984 0.828q0.438 0.125 0.813 0.375t0.633 0.594 0.406 0.766 0.148 0.891q0 0.938-0.594 1.672zM14 21.766l8.891-8.875-1.781-1.781-7.109 7.125-3.109-3.125-1.781 1.781z"></path>
</svg>
