<!-- Generated by IcoMoon.io -->
<svg version="1.1" xmlns="http://www.w3.org/2000/svg" width="32" height="32" viewBox="0 0 32 32">
<title>uniF7BD</title>
<path d="M28.828 16l1.938 2.422q0.281 0.359 0.438 0.789t0.156 0.883q0 0.469-0.148 0.891t-0.406 0.766-0.633 0.594-0.813 0.375l-2.984 0.828q0.031 0.797 0.086 1.609t0.055 1.625q0 0.563-0.211 1.047t-0.578 0.852-0.859 0.578-1.055 0.211q-0.484 0-0.953-0.172l-2.891-1.094-1.703 2.578q-0.375 0.563-0.977 0.891t-1.289 0.328-1.289-0.328-0.977-0.891l-1.703-2.578-2.891 1.094q-0.469 0.172-0.953 0.172-0.563 0-1.055-0.211t-0.859-0.578-0.578-0.852-0.211-1.047q0-0.813 0.055-1.625t0.086-1.609l-2.984-0.828q-0.453-0.125-0.82-0.375t-0.625-0.594-0.406-0.766-0.148-0.891q0-0.453 0.156-0.883t0.438-0.789l1.938-2.422-1.938-2.422q-0.594-0.734-0.594-1.672 0-0.469 0.148-0.891t0.406-0.766 0.625-0.594 0.82-0.375l2.984-0.828q-0.031-0.797-0.086-1.609t-0.055-1.625q0-0.563 0.211-1.047t0.578-0.852 0.859-0.578 1.055-0.211q0.484 0 0.953 0.172l2.891 1.094 1.703-2.578q0.375-0.563 0.977-0.891t1.289-0.328 1.289 0.328 0.977 0.891l1.703 2.578 2.891-1.094q0.469-0.172 0.953-0.172 0.563 0 1.055 0.211t0.859 0.578 0.578 0.852 0.211 1.047q0 0.813-0.055 1.625t-0.086 1.609l2.984 0.828q0.438 0.125 0.813 0.375t0.633 0.594 0.406 0.766 0.148 0.891q0 0.938-0.594 1.672zM29.359 20.094q0-0.219-0.156-0.422l-2.938-3.672 2.938-3.672q0.156-0.203 0.156-0.422 0-0.531-0.531-0.688l-4.516-1.25q0.047-1.188 0.125-2.375t0.078-2.375q0-0.266-0.219-0.477t-0.484-0.211q-0.094 0-0.422 0.102t-0.773 0.266-0.961 0.367-1 0.391-0.883 0.344-0.602 0.234l-0.875-1.328-1.703-2.594q-0.203-0.313-0.594-0.313t-0.594 0.313l-1.703 2.594-0.875 1.328q-0.203-0.078-0.602-0.234t-0.883-0.344-1-0.391-0.961-0.367-0.773-0.266-0.422-0.102q-0.266 0-0.484 0.211t-0.219 0.477q0 1.188 0.078 2.375t0.125 2.375l-1.531 0.422-2.984 0.828q-0.531 0.156-0.531 0.688 0 0.219 0.156 0.422l2.938 3.672-2.938 3.672q-0.156 0.203-0.156 0.422 0 0.531 0.531 0.688l4.516 1.25q-0.047 1.188-0.125 2.375t-0.078 2.375q0 0.266 0.219 0.477t0.484 0.211q0.094 0 0.422-0.102t0.773-0.266 0.961-0.367 1-0.391 0.883-0.344 0.602-0.234l0.875 1.328 1.703 2.594q0.203 0.313 0.594 0.313t0.594-0.313l1.703-2.594 0.875-1.328q0.203 0.078 0.602 0.234t0.883 0.344 1 0.391 0.961 0.367 0.773 0.266 0.422 0.102q0.266 0 0.484-0.211t0.219-0.477q0-1.188-0.078-2.375t-0.125-2.375l1.531-0.422 2.984-0.828q0.531-0.156 0.531-0.688zM14 18.578l7.297-7.281 1.406 1.406-8.703 8.719-4.703-4.719 1.406-1.406z"></path>
</svg>
