<!-- Generated by IcoMoon.io -->
<svg version="1.1" xmlns="http://www.w3.org/2000/svg" width="32" height="32" viewBox="0 0 32 32">
<title>uniF664</title>
<path d="M26 0v2h-22v-2h22zM16 9.422v8.656q1.297 0.172 2.398 0.789t1.898 1.547 1.25 2.109 0.453 2.477q0 1.453-0.547 2.727t-1.5 2.227-2.227 1.5-2.727 0.547-2.727-0.547-2.227-1.5-1.5-2.227-0.547-2.727q0-1.297 0.453-2.477t1.25-2.109 1.898-1.547 2.398-0.789v-8.656l-5.297 5.281-1.406-1.406 7.703-7.703 7.703 7.703-1.406 1.406zM20 25q0-1.031-0.398-1.938t-1.078-1.586-1.586-1.078-1.938-0.398-1.945 0.398-1.594 1.078-1.070 1.586-0.391 1.938 0.391 1.945 1.070 1.594 1.594 1.070 1.945 0.391 1.938-0.391 1.586-1.070 1.078-1.594 0.398-1.945z"></path>
</svg>
