<!-- Generated by IcoMoon.io -->
<svg version="1.1" xmlns="http://www.w3.org/2000/svg" width="32" height="32" viewBox="0 0 32 32">
<title>uniF609</title>
<path d="M16 0q2.406 0 4.656 0.695t4.18 1.969 3.453 3.078 2.461 4.023q0.531 1.266 0.883 2.719t0.352 2.828q0 0.938-0.055 1.813t-0.195 1.719-0.375 1.68-0.609 1.711q-0.938 2.219-2.453 4.023t-3.445 3.078-4.188 1.969-4.664 0.695-4.664-0.695-4.188-1.969-3.445-3.078-2.453-4.023q-0.375-0.875-0.609-1.711t-0.375-1.68-0.195-1.719-0.055-1.813q0-1.375 0.352-2.828t0.883-2.719q0.938-2.219 2.461-4.023t3.453-3.078 4.18-1.969 4.656-0.695zM23.469 10.813q0.219 1.281 0.313 2.578t0.094 2.609q0 1.563-0.141 3.109 1.172-0.281 2.32-0.719t2.18-1.094q0.219-0.141 0.516-0.375t0.57-0.516 0.469-0.586 0.195-0.586q0-0.172-0.016-0.359t-0.047-0.344q-0.094-0.469-0.539-0.914t-1.016-0.82-1.156-0.664-0.977-0.445q-0.672-0.266-1.367-0.484t-1.398-0.391zM29.016 10.813q-0.578-1.438-1.453-2.703t-1.984-2.305-2.43-1.836-2.789-1.281q0.969 1.313 1.625 2.859t1.031 3.125q1.578 0.328 3.078 0.836t2.922 1.305zM15.672 2h-0.25t-0.25 0.031q-0.094 0.016-0.313 0.125t-0.297 0.172q-0.453 0.266-0.844 0.656t-0.727 0.836-0.617 0.93-0.5 0.953q-0.313 0.641-0.547 1.297t-0.438 1.344q1.266-0.172 2.547-0.258t2.563-0.086 2.563 0.086 2.547 0.258q-0.203-0.688-0.438-1.344t-0.547-1.297q-0.219-0.469-0.5-0.953t-0.617-0.93-0.727-0.836-0.844-0.656q-0.078-0.063-0.297-0.172t-0.313-0.125q-0.125-0.031-0.25-0.031h-0.906zM11.641 2.688q-1.469 0.484-2.789 1.281t-2.43 1.836-1.984 2.305-1.453 2.703q1.422-0.797 2.922-1.305t3.078-0.836q0.375-1.578 1.031-3.125t1.625-2.859zM2.266 18.703q0.359 1.859 1.203 3.523t2.063 3.047 2.773 2.414 3.352 1.625q-0.906-1.188-1.508-2.586t-1.008-2.82q0.469 0.094 0.945 0.164t0.961 0.133q0.219 0.688 0.531 1.445t0.727 1.484 0.922 1.359 1.117 1.055q0.063 0.047 0.172 0.109t0.234 0.133 0.234 0.125 0.188 0.070q0.094 0.016 0.195 0.016h1.211t0.25-0.031 0.352-0.148 0.336-0.18q0.641-0.406 1.172-1.039t0.953-1.367 0.75-1.508 0.547-1.461q0.641-1.969 0.914-4.086t0.273-4.18q0-1.406-0.117-2.797t-0.383-2.766q-1.406-0.219-2.805-0.328t-2.82-0.109-2.82 0.109-2.805 0.328q-0.266 1.375-0.383 2.766t-0.117 2.797v0.461t0.031 0.461q-0.453-0.078-0.891-0.188t-0.875-0.25q-0.016-0.125-0.016-0.242v-0.242q0-1.313 0.094-2.609t0.313-2.578q-0.703 0.172-1.398 0.391t-1.367 0.484q-0.406 0.172-0.992 0.453t-1.148 0.656-1 0.82-0.547 0.914q-0.031 0.156-0.047 0.352t-0.016 0.352q0 0.078 0.070 0.25t0.102 0.25q0.234 0.453 0.656 0.844t0.922 0.719 1.023 0.578 0.977 0.438q1.156 0.469 2.438 0.789t2.602 0.523 2.641 0.289 2.555 0.086h0.578l-2.281-2.297 1.406-1.406 4.703 4.703-4.703 4.703-1.406-1.406 2.297-2.297q-1.141 0-2.375-0.055t-2.508-0.195-2.555-0.383-2.492-0.609-2.328-0.875-2.070-1.18zM20.359 29.313q1.797-0.594 3.352-1.633t2.773-2.414 2.055-3.047 1.195-3.531q-0.672 0.5-1.438 0.891t-1.57 0.703-1.641 0.547-1.633 0.406q-0.172 1.031-0.438 2.109t-0.641 2.117-0.875 2.023-1.141 1.828z"></path>
</svg>
