<!-- Generated by IcoMoon.io -->
<svg version="1.1" xmlns="http://www.w3.org/2000/svg" width="32" height="32" viewBox="0 0 32 32">
<title>uniE43C</title>
<path d="M24 11.875l8-4v16.25l-3.906-1.953q-0.281-0.141-0.523-0.242t-0.477-0.203-0.461-0.227-0.492-0.313q-0.234-0.156-0.406-0.32t-0.32-0.328-0.297-0.344-0.352-0.383l-2.766-2.766v-7.047h-7.047l-2-2h11.047v3.875zM30 20.891v-9.781l-6 3.016v3.75zM0.297 1.703l1.406-1.406 30 30-1.406 1.406-7.719-7.703h-22.578v-16h6.578zM2 22h18.578l-12-12h-6.578v12z"></path>
</svg>
