<!-- Generated by IcoMoon.io -->
<svg version="1.1" xmlns="http://www.w3.org/2000/svg" width="32" height="32" viewBox="0 0 32 32">
<title>uniF4EA</title>
<path d="M32 4v9.984q-0.438-0.438-0.945-0.789t-1.055-0.648v-6.547h-2v2h-2v-2h-20v2h-2v-2h-2v18h2v-2h2v2h11.047l-2 2h-15.047v-22h32zM28 10v1.766q-0.5-0.125-1-0.195t-1-0.070v-1.5h2zM6 16h-2v-2h2v2zM6 12h-2v-2h2v2zM4 18h2v2h-2v-2zM26 14q1.234 0 2.328 0.469t1.914 1.289 1.289 1.914 0.469 2.328q0 1.25-0.469 2.336t-1.289 1.906-1.914 1.289-2.328 0.469q-0.938 0-1.82-0.289t-1.648-0.836l-6.828 6.828q-0.297 0.297-0.703 0.297t-0.703-0.297-0.297-0.703 0.297-0.703l6.828-6.828q-0.547-0.766-0.836-1.648t-0.289-1.82q0-1.234 0.469-2.328t1.289-1.914 1.906-1.289 2.336-0.469zM26 24q0.828 0 1.555-0.313t1.273-0.859 0.859-1.273 0.313-1.555-0.313-1.555-0.859-1.273-1.273-0.859-1.555-0.313-1.555 0.313-1.273 0.859-0.859 1.273-0.313 1.555 0.313 1.555 0.859 1.273 1.273 0.859 1.555 0.313z"></path>
</svg>
