<!-- Generated by IcoMoon.io -->
<svg version="1.1" xmlns="http://www.w3.org/2000/svg" width="32" height="32" viewBox="0 0 32 32">
<title>uniEA74</title>
<path d="M16 15q0-0.406 0.297-0.703t0.703-0.297 0.703 0.297 0.297 0.703-0.297 0.703-0.703 0.297-0.703-0.297-0.297-0.703zM25 18q1.453 0 2.727 0.555t2.219 1.5 1.5 2.219 0.555 2.727-0.555 2.727-1.5 2.219-2.219 1.5-2.727 0.555-2.727-0.555-2.219-1.5-1.5-2.219-0.555-2.727 0.555-2.727 1.5-2.219 2.219-1.5 2.727-0.555zM20 25q0 1.031 0.391 1.945t1.070 1.594 1.594 1.070 1.945 0.391q0.734 0 1.438-0.211t1.313-0.617l-6.922-6.922q-0.406 0.609-0.617 1.313t-0.211 1.438zM29.172 27.75q0.406-0.609 0.617-1.313t0.211-1.438q0-1.031-0.398-1.938t-1.078-1.586-1.586-1.078-1.938-0.398q-0.734 0-1.438 0.211t-1.313 0.617zM32 6v12.625q-0.891-0.969-2-1.672v-8.953h-2v8.031q-0.484-0.172-0.992-0.273t-1.008-0.164v-7.594h-0.578l-3.422 3.422v4.609q-0.531 0.172-1.031 0.398t-0.969 0.523v-4.953h-18v6h16.625q-0.969 0.891-1.672 2h-16.953v-10h20.578l4-4h7.422z"></path>
</svg>
