<!-- Generated by IcoMoon.io -->
<svg version="1.1" xmlns="http://www.w3.org/2000/svg" width="32" height="32" viewBox="0 0 32 32">
<title>uniE41F</title>
<path d="M4 9.109v3.891h-2v-6.109l5.469-2.75 0.891 1.797-3.125 1.563 3.141 1.563-0.906 1.797zM14 3.109l-3.469 1.75-0.891-1.797 5.359-2.688 5.359 2.688-0.891 1.797-3.469-1.75v4.891h-2v-4.891zM16 26.891l3.469-1.75 0.906 1.797-5.375 2.688-5.359-2.688 0.891-1.797 3.469 1.75v-4.891h2v4.891zM7.969 18.891l0.922 1.781-3.656 1.828 3.125 1.563-0.891 1.797-5.469-2.75v-6.109h2v3.891zM15 12.375l4.469-2.234 0.906 1.797-4.375 2.188v4.875h-2v-4.875l-4.359-2.188 0.891-1.797zM22.531 4.141l5.469 2.75v6.109h-2v-3.891l-3.469 1.75-0.891-1.797 3.125-1.563-3.125-1.563zM26 20.891v-3.891h2v6.109l-5.469 2.75-0.891-1.797 3.125-1.563-3.656-1.828 0.922-1.781z"></path>
</svg>
