<!-- Generated by IcoMoon.io -->
<svg version="1.1" xmlns="http://www.w3.org/2000/svg" width="32" height="32" viewBox="0 0 32 32">
<title>uniE890</title>
<path d="M16 12q1.234 0 2.328 0.469t1.914 1.289 1.289 1.914 0.469 2.328q0 1.25-0.469 2.336t-1.289 1.906-1.914 1.289-2.328 0.469q-1.25 0-2.336-0.469t-1.906-1.289-1.289-1.906-0.469-2.336q0-1.234 0.469-2.328t1.289-1.914 1.906-1.289 2.336-0.469zM16 22q0.828 0 1.555-0.313t1.273-0.859 0.859-1.273 0.313-1.555-0.313-1.555-0.859-1.273-1.273-0.859-1.555-0.313-1.555 0.313-1.273 0.859-0.859 1.273-0.313 1.555 0.313 1.555 0.859 1.273 1.273 0.859 1.555 0.313zM16 4q2.234 0 4.438 0.555t4.156 1.633 3.539 2.664 2.586 3.648q0.625 1.297 0.953 2.68t0.328 2.82h-2q0-1.844-0.563-3.453t-1.555-2.938-2.336-2.375-2.898-1.766-3.258-1.094-3.391-0.375-3.391 0.375-3.258 1.094-2.898 1.766-2.336 2.375-1.555 2.938-0.563 3.453h-2q0-1.438 0.328-2.82t0.953-2.68q1-2.063 2.586-3.648t3.539-2.664 4.156-1.633 4.438-0.555z"></path>
</svg>
