<!-- Generated by IcoMoon.io -->
<svg version="1.1" xmlns="http://www.w3.org/2000/svg" width="32" height="32" viewBox="0 0 32 32">
<title>uniF3A3</title>
<path d="M32 10v12q0 0.422-0.156 0.781t-0.43 0.633-0.633 0.43-0.781 0.156h-4q0 1.656-0.625 3.117t-1.711 2.547-2.547 1.711-3.117 0.625q-1.359 0-2.609-0.445t-2.273-1.242-1.758-1.898-1.078-2.414h-8.281q-0.406 0-0.773-0.156t-0.641-0.43-0.43-0.641-0.156-0.773v-16q0-0.406 0.156-0.773t0.43-0.641 0.641-0.43 0.773-0.156h9.172l5.422-5.422q0.578-0.578 1.406-0.578t1.406 0.578l6.016 6.016q0.578 0.578 0.578 1.406h4q0.422 0 0.781 0.156t0.633 0.43 0.43 0.633 0.156 0.781zM18 2l-4 4h4q0.406 0 0.773 0.156t0.641 0.43 0.43 0.641 0.156 0.773v4l4-4zM11.641 22.5l4.922-13h-3.547l-3 8.734-2.953-8.734h-3.625l4.859 13h3.344zM18 30q1.234 0 2.328-0.469t1.914-1.289 1.289-1.906 0.469-2.336q0-0.953-0.289-1.836t-0.813-1.617-1.266-1.297-1.633-0.875v5.625q0 0.406-0.156 0.773t-0.43 0.641-0.641 0.43-0.773 0.156h-5.625q0.313 0.891 0.875 1.633t1.297 1.266 1.617 0.813 1.836 0.289zM30 22v-12h-5.172l-4.828 4.828v1.453q1.047 0.281 1.969 0.813t1.664 1.273 1.273 1.664 0.813 1.969h4.281z"></path>
</svg>
