<!-- Generated by IcoMoon.io -->
<svg version="1.1" xmlns="http://www.w3.org/2000/svg" width="32" height="32" viewBox="0 0 32 32">
<title>uniF762</title>
<path d="M18 12h14v4h-2v-2h-10v2h-4.703l-5.297 3.531v2.469h6v8h-14v-8h6v-2.469l-6.797-4.531 6.797-4.531v-2.469h-4.625q-0.281 0-0.531-0.109t-0.438-0.297-0.297-0.438-0.109-0.531v-5.25q0-0.281 0.109-0.531t0.297-0.438 0.438-0.297 0.531-0.109h11.25q0.281 0 0.531 0.109t0.438 0.297 0.297 0.438 0.109 0.531v5.25q0 0.281-0.109 0.531t-0.297 0.438-0.438 0.297-0.531 0.109h-4.625v2.469l5.297 3.531h2.703v-2zM4 2v4h10v-4h-10zM14 28v-4h-10v4h10zM9 17.797l4.203-2.797-4.203-2.797-4.203 2.797zM30 20.141v-2.141h2v6h-6v-2h2.969q-0.703-0.938-1.75-1.469t-2.219-0.531q-0.922 0-1.742 0.313t-1.477 0.867-1.094 1.32-0.594 1.672l-1.984-0.344q0.219-1.266 0.844-2.328t1.539-1.844 2.070-1.219 2.438-0.438q1.422 0 2.719 0.555t2.281 1.586zM25 30q0.906 0 1.734-0.313t1.484-0.867 1.094-1.32 0.594-1.672l1.984 0.344q-0.219 1.266-0.844 2.328t-1.539 1.844-2.070 1.219-2.438 0.438q-1.422 0-2.719-0.555t-2.281-1.586v2.141h-2v-6h6v2h-2.969q0.703 0.938 1.75 1.469t2.219 0.531z"></path>
</svg>
