<!-- Generated by IcoMoon.io -->
<svg version="1.1" xmlns="http://www.w3.org/2000/svg" width="32" height="32" viewBox="0 0 32 32">
<title>uniF2A0</title>
<path d="M32 12v8h-14v-4h-2.703l-5.297 3.531v2.469h6v8h-14v-8h6v-2.469l-6.797-4.531 6.797-4.531v-2.469h-2q-0.828 0-1.555-0.313t-1.273-0.859-0.859-1.273-0.313-1.555 0.313-1.555 0.859-1.273 1.273-0.859 1.555-0.313h6q0.828 0 1.555 0.313t1.273 0.859 0.859 1.273 0.313 1.555-0.313 1.555-0.859 1.273-1.273 0.859-1.555 0.313h-2v2.469l5.297 3.531h2.703v-2h14zM12 6q0.422 0 0.781-0.156t0.633-0.43 0.43-0.633 0.156-0.781-0.156-0.781-0.43-0.633-0.633-0.43-0.781-0.156h-6q-0.422 0-0.781 0.156t-0.633 0.43-0.43 0.633-0.156 0.781 0.156 0.781 0.43 0.633 0.633 0.43 0.781 0.156h6zM4 24v4h10v-4h-10zM13.203 15l-4.203-2.797-4.203 2.797 4.203 2.797zM30 14h-10v4h10v-4z"></path>
</svg>
