<!-- Generated by IcoMoon.io -->
<svg version="1.1" xmlns="http://www.w3.org/2000/svg" width="32" height="32" viewBox="0 0 32 32">
<title>uniF2A7</title>
<path d="M31 9.328v12.344q0 0.547-0.391 0.938t-0.938 0.391h-6.703q-0.094 1.484-0.719 2.758t-1.633 2.219-2.328 1.484-2.789 0.539q-1.313 0-2.531-0.453t-2.203-1.25-1.672-1.898-0.922-2.398h-6.844q-0.547 0-0.938-0.391t-0.391-0.938v-13.344q0-0.547 0.391-0.938t0.938-0.391h6.766q-0.094-0.234-0.094-0.5 0-0.547 0.391-0.938l6.172-6.172q0.391-0.391 0.938-0.391t0.938 0.391l6.172 6.172q0.391 0.391 0.391 0.938 0 0.266-0.094 0.5h6.766q0.547 0 0.938 0.391t0.391 0.938zM15.5 2.281l-5.219 5.219 0.5 0.5h3.891q0.547 0 0.938 0.391t0.391 0.938v2.891l4.719-4.719zM9.25 21.25l3.984-10.5h-2.594q-0.656 1.922-1.328 3.813t-1.297 3.828q-0.641-1.922-1.281-3.82t-1.297-3.82h-2.656l3.922 10.5h2.547zM15.5 28q1.141 0 2.141-0.43t1.75-1.18 1.18-1.75 0.43-2.141q0-1.047-0.391-2t-1.063-1.703-1.586-1.219-1.961-0.547v5.641q0 0.547-0.391 0.938t-0.938 0.391h-4.438q0.266 0.875 0.766 1.609t1.188 1.266 1.531 0.828 1.781 0.297zM29 21v-11h-7.953q-0.172 0.172-0.57 0.586t-0.922 0.938-1.094 1.102-1.070 1.063-0.883 0.828-0.508 0.391v0.125q1.25 0.047 2.383 0.531t2.039 1.289 1.531 1.867 0.875 2.281h6.172z"></path>
</svg>
