<!-- Generated by IcoMoon.io -->
<svg version="1.1" xmlns="http://www.w3.org/2000/svg" width="32" height="32" viewBox="0 0 32 32">
<title>uniF2A9</title>
<path d="M32 7.422v22.578q0 0.422-0.156 0.781t-0.43 0.633-0.633 0.43-0.781 0.156h-20q-0.422 0-0.781-0.156t-0.633-0.43-0.43-0.633-0.156-0.781v-4h-6.203q-0.375 0-0.695-0.141t-0.57-0.391-0.391-0.57-0.141-0.695v-14.406q0-0.375 0.141-0.695t0.391-0.57 0.57-0.391 0.695-0.141h6.203v-6q0-0.422 0.156-0.781t0.43-0.633 0.633-0.43 0.781-0.156h14.578q0.406 0 0.773 0.148t0.648 0.43l5.422 5.422q0.281 0.281 0.43 0.648t0.148 0.773zM26 3.422v2.578h2.578zM7.703 22.25h2.547l3.984-10.5h-2.594l-2.297 6.672q-0.078 0.25-0.164 0.484t-0.164 0.484q-0.641-1.922-1.289-3.82t-1.305-3.82h-2.656l3.875 10.344zM10 30h20v-22h-4q-0.422 0-0.781-0.156t-0.633-0.43-0.43-0.633-0.156-0.781v-4h-14v6h6.203q0.375 0 0.695 0.141t0.57 0.391 0.391 0.57 0.141 0.695v14.406q0 0.375-0.141 0.695t-0.391 0.57-0.57 0.391-0.695 0.141h-6.203v4zM25 10l3 3-2 2v7h-4v2h-2v-6h2v2h2v-5l-2-2z"></path>
</svg>
