<!-- Generated by IcoMoon.io -->
<svg version="1.1" xmlns="http://www.w3.org/2000/svg" width="32" height="32" viewBox="0 0 32 32">
<title>uniF2F1</title>
<path d="M8.484 23.625q0.141-0.906 0.453-1.797l5.578-15.828h2.484l-7.297 20h-2.547l-7.156-20h2.578l5.453 15.859q0.156 0.438 0.258 0.875t0.195 0.891zM27.547 15.375q1 0.125 1.828 0.508t1.406 1.016 0.898 1.477 0.32 1.875q0 1.391-0.531 2.461t-1.422 1.797-2.063 1.109-2.469 0.383h-5.828v-20h5.688q1.078 0 2.086 0.266t1.797 0.82 1.266 1.422 0.477 2.070q0 1.719-0.906 2.969t-2.547 1.766v0.063zM22.031 14.578h2.391q0.859 0 1.609-0.203t1.313-0.633 0.883-1.102 0.32-1.609q0-0.859-0.32-1.422t-0.844-0.891-1.219-0.461-1.445-0.133h-2.688v6.453zM25.203 23.875q0.875 0 1.664-0.203t1.383-0.641 0.945-1.125 0.352-1.672q0-1.078-0.414-1.766t-1.086-1.086-1.547-0.547-1.781-0.148h-2.688v7.188h3.172z"></path>
</svg>
