<!-- Generated by IcoMoon.io -->
<svg version="1.1" xmlns="http://www.w3.org/2000/svg" width="32" height="32" viewBox="0 0 32 32">
<title>uniF866</title>
<path d="M2.75 13.344q0.422-0.375 0.875-0.719t0.906-0.672l12.016 12.016q-0.141 0-0.273 0.016t-0.273 0.016q-0.719 0-1.43-0.070t-1.414-0.195zM32 16q-2 2.25-4.453 4.023t-5.297 2.805l5.453 5.469-1.406 1.406-6.219-6.219-0.984 0.203-12.844-12.844 0.75-0.438-6.703-6.703 1.406-1.406 7.203 7.203q1.688-0.719 3.469-1.109t3.625-0.391q2.344 0 4.563 0.609t4.258 1.68 3.844 2.539 3.336 3.172zM16 10q-1.203 0-2.305 0.453t-1.945 1.297l2.828 2.828q0.281-0.281 0.648-0.43t0.773-0.148q0.422 0 0.789 0.156t0.633 0.422 0.422 0.633 0.156 0.789q0 0.406-0.148 0.773t-0.43 0.648l2.828 2.828q0.844-0.844 1.297-1.945t0.453-2.305q0-1.25-0.469-2.344t-1.281-1.906-1.906-1.281-2.344-0.469zM22.547 20.563q1.875-0.828 3.547-1.984t3.141-2.578q-1.469-1.422-3.141-2.578t-3.547-1.984q0.703 1 1.063 2.172t0.359 2.391-0.359 2.391-1.063 2.172zM0 16q0.609-0.672 1.266-1.313l7.984 7.984q-2.688-1.078-5.008-2.797t-4.242-3.875z"></path>
</svg>
