<!-- Generated by IcoMoon.io -->
<svg version="1.1" xmlns="http://www.w3.org/2000/svg" width="32" height="32" viewBox="0 0 32 32">
<title>uniEC22</title>
<path d="M32 5.234v21.531q0 0.578-0.297 1.047t-0.813 0.734l-5.594 2.813q-0.406 0.203-0.906 0.203-0.391 0-0.758-0.148t-0.648-0.43l-11.344-11.344-7.203 5.516q-0.297 0.219-0.609 0.219-0.188 0-0.625-0.148t-0.93-0.336-0.945-0.375-0.672-0.266q-0.281-0.109-0.469-0.367t-0.188-0.57v-14.625q0-0.313 0.188-0.57t0.469-0.367q0.219-0.078 0.672-0.266t0.945-0.375 0.93-0.336 0.625-0.148q0.313 0 0.609 0.219l7.203 5.516 11.344-11.344q0.281-0.281 0.648-0.43t0.758-0.148q0.5 0 0.906 0.203l5.594 2.813q0.516 0.266 0.813 0.734t0.297 1.047zM4 20l4-4-4-4v8zM24 21.859v-11.719l-7.625 5.859z"></path>
</svg>
