<!-- Generated by IcoMoon.io -->
<svg version="1.1" xmlns="http://www.w3.org/2000/svg" width="32" height="32" viewBox="0 0 32 32">
<title>uniF521</title>
<path d="M18 0q1.234 0 2.328 0.469t1.914 1.289 1.289 1.914 0.469 2.328v2h4v10h-2v-8h-4v12h-2v-12h-16v18q0 0.422 0.156 0.781t0.43 0.633 0.633 0.43 0.781 0.156h10v2h-10q-0.828 0-1.555-0.313t-1.273-0.859-0.859-1.273-0.313-1.555v-20h4v-2q0-1.234 0.469-2.328t1.289-1.914 1.906-1.289 2.336-0.469q1.625 0 3.016 0.813 1.391-0.813 2.984-0.813zM22 6q0-0.828-0.313-1.555t-0.859-1.273-1.273-0.859-1.555-0.313q-0.703 0-1.328 0.234 0.453 0.563 0.719 1.109t0.398 1.094 0.172 1.117 0.039 1.195v1.25h4v-2zM8 8h8v-2q0-0.828-0.313-1.555t-0.859-1.273-1.273-0.859-1.555-0.313-1.555 0.313-1.273 0.859-0.859 1.273-0.313 1.555v2zM32 22v10h-2v-10h2zM26 20h2v12h-2v-12zM22 24h2v8h-2v-8zM18 28h2v4h-2v-4z"></path>
</svg>
