<!-- Generated by IcoMoon.io -->
<svg version="1.1" xmlns="http://www.w3.org/2000/svg" width="32" height="32" viewBox="0 0 32 32">
<title>uniF520</title>
<path d="M2.625 26h13.375v2h-16v-22q0-0.422 0.156-0.781t0.43-0.633 0.633-0.43 0.781-0.156h5.5q0.703 0 1.211 0.148t0.906 0.367 0.711 0.484 0.633 0.484 0.688 0.367 0.852 0.148h11.5q0.406 0 0.773 0.156t0.641 0.43 0.43 0.641 0.156 0.773v4h4q0.406 0 0.773 0.156t0.641 0.43 0.43 0.633 0.156 0.766q0 0.469-0.219 0.906l-1.547 3.109h-2.234l2-4h-21.375zM2 22.766l4.828-9.656q0.266-0.516 0.742-0.813t1.055-0.297h15.375v-4h-11.5q-0.703 0-1.211-0.148t-0.906-0.367-0.711-0.484-0.633-0.484-0.688-0.367-0.852-0.148h-5.5v16.766zM30 22h2v10h-2v-10zM26 20h2v12h-2v-12zM22 24h2v8h-2v-8zM18 28h2v4h-2v-4z"></path>
</svg>
