<!-- Generated by IcoMoon.io -->
<svg version="1.1" xmlns="http://www.w3.org/2000/svg" width="32" height="32" viewBox="0 0 32 32">
<title>uniF421</title>
<path d="M18.625 18q-0.969 0.891-1.672 2h-10.953q-1.25 0-2.336-0.469t-1.906-1.289-1.289-1.906-0.469-2.336q0-1.234 0.469-2.328t1.289-1.914 1.906-1.289 2.336-0.469q1.234 0 2.328 0.469t1.914 1.289 1.289 1.914 0.469 2.328q0 1.125-0.406 2.148t-1.156 1.852h8.188zM6 18q0.828 0 1.555-0.313t1.273-0.859 0.859-1.273 0.313-1.555-0.313-1.555-0.859-1.273-1.273-0.859-1.555-0.313-1.555 0.313-1.273 0.859-0.859 1.273-0.313 1.555 0.313 1.555 0.859 1.273 1.273 0.859 1.555 0.313zM22.484 15.875q-0.484 0.141-0.945 0.32t-0.898 0.414q-0.313-0.609-0.477-1.266t-0.164-1.344q0-1.234 0.469-2.328t1.289-1.914 1.906-1.289 2.336-0.469q1.234 0 2.328 0.469t1.914 1.289 1.289 1.914 0.469 2.328q0 0.969-0.313 1.867t-0.875 1.68q-0.781-0.625-1.719-1.078 0.422-0.531 0.664-1.156t0.242-1.313q0-0.828-0.313-1.555t-0.859-1.273-1.273-0.859-1.555-0.313-1.555 0.313-1.273 0.859-0.859 1.273-0.313 1.555q0 0.984 0.484 1.875zM25 18q1.453 0 2.727 0.547t2.227 1.5 1.5 2.227 0.547 2.727-0.547 2.727-1.5 2.227-2.227 1.5-2.727 0.547-2.727-0.547-2.227-1.5-1.5-2.227-0.547-2.727 0.547-2.727 1.5-2.227 2.227-1.5 2.727-0.547zM25 30q1.031 0 1.938-0.391t1.586-1.070 1.078-1.594 0.398-1.945-0.398-1.938-1.078-1.586-1.586-1.078-1.938-0.398-1.945 0.398-1.594 1.078-1.070 1.586-0.391 1.938 0.391 1.945 1.070 1.594 1.594 1.070 1.945 0.391zM22 24h6v2h-6v-2z"></path>
</svg>
