<!-- Generated by IcoMoon.io -->
<svg version="1.1" xmlns="http://www.w3.org/2000/svg" width="32" height="32" viewBox="0 0 32 32">
<title>uniED87</title>
<path d="M26.953 20.047l4.953 4.953-4.953 4.953-1.406-1.406 2.547-2.547h-8.094v-2h8.094l-2.547-2.547zM24.172 20h-18.172q-1.25 0-2.336-0.469t-1.906-1.289-1.289-1.906-0.469-2.336q0-1.234 0.469-2.328t1.289-1.914 1.906-1.289 2.336-0.469q1.234 0 2.328 0.469t1.914 1.289 1.289 1.914 0.469 2.328q0 1.125-0.406 2.148t-1.156 1.852h11.125q-0.75-0.828-1.156-1.852t-0.406-2.148q0-1.234 0.469-2.328t1.289-1.914 1.906-1.289 2.336-0.469q1.234 0 2.328 0.469t1.914 1.289 1.289 1.914 0.469 2.328q0 0.813-0.219 1.578t-0.617 1.438-0.961 1.234-1.266 0.953l-1.484-1.484q0.563-0.234 1.031-0.609t0.805-0.859 0.523-1.063 0.188-1.188q0-0.828-0.313-1.555t-0.859-1.273-1.273-0.859-1.555-0.313-1.555 0.313-1.273 0.859-0.859 1.273-0.313 1.555 0.313 1.555 0.859 1.273 1.273 0.859 1.555 0.313q0.047 0 0.094-0.008t0.094-0.008zM6 18q0.828 0 1.555-0.313t1.273-0.859 0.859-1.273 0.313-1.555-0.313-1.555-0.859-1.273-1.273-0.859-1.555-0.313-1.555 0.313-1.273 0.859-0.859 1.273-0.313 1.555 0.313 1.555 0.859 1.273 1.273 0.859 1.555 0.313z"></path>
</svg>
