<!-- Generated by IcoMoon.io -->
<svg version="1.1" xmlns="http://www.w3.org/2000/svg" width="32" height="32" viewBox="0 0 32 32">
<title>uniEA85</title>
<path d="M23 14q1.859 0 3.5 0.711t2.859 1.93 1.93 2.859 0.711 3.5-0.711 3.5-1.93 2.859-2.859 1.93-3.5 0.711-3.5-0.711-2.859-1.93-1.93-2.859-0.711-3.5 0.711-3.5 1.93-2.859 2.859-1.93 3.5-0.711zM23 30q1.453 0 2.727-0.555t2.219-1.5 1.5-2.219 0.555-2.727-0.555-2.727-1.5-2.219-2.219-1.5-2.727-0.555-2.727 0.555-2.219 1.5-1.5 2.219-0.555 2.727 0.555 2.727 1.5 2.219 2.219 1.5 2.727 0.555zM10 12v8h1.906q-0.125 0.5-0.219 1t-0.141 1h-3.547v-12h4.578l6-6h1.422v7.906q-1.047 0.281-2 0.75v-5.234l-4.594 4.578h-3.406zM26.703 20.703l-2.297 2.297 2.297 2.297-1.406 1.406-2.297-2.281-2.297 2.281-1.406-1.406 2.281-2.297-2.281-2.297 1.406-1.406 2.297 2.297 2.297-2.297z"></path>
</svg>
