<!-- Generated by IcoMoon.io -->
<svg version="1.1" xmlns="http://www.w3.org/2000/svg" width="32" height="32" viewBox="0 0 32 32">
<title>uniF383</title>
<path d="M16 18.672v-10l4-0.734v11.094l-4.406 3.625-6.922-2.266v2.281l-4.672-5.906zM32 3.328v25.344l-8 3.328-24-8.078 24 3.563v-27.484zM29.828 2.969l-4.297 3.844 5.688-3.266zM24.5 7.844v1.453l5.813-4.797zM27.75 2.109l-2.969 3.109 4.375-2.531zM24.5 0.75v2.578l2.609-1.484zM24.5 4.969l2.531-2.656-2.531 1.453v1.203zM24.5 7.25l4.484-4.031-4.484 2.594v1.438zM24.5 11.484l5.922-4.922-5.922 3.406v1.516zM24.5 24.844v1.453l5.813-4.781zM24.5 13.609l6.234-5.078-6.234 3.578v1.5zM24.5 14.234v1.563l6.266-5.156zM24.5 16.359v1.516l5.594-4.734zM24.5 18.484v1.438l6.313-5.063zM24.5 20.609v1.391l5.969-4.813zM24.5 22.719v1.422l6.453-5.109zM24.5 26.969v0.813l6-4.234zM20.203 27.422l-2.234 1.406 4.109-1.125zM17.578 27.031l-1.813 1.156 3.422-0.906zM15.125 26.672l-1.516 0.891 3.047-0.656zM12.313 26.25l-0.891 0.594 2.453-0.359zM9.484 26.156l1.313-0.125-0.844-0.125zM9.328 25.813l-3.844-0.578 3.047 1.031zM10.578 26.953l0.938-0.625-2.141 0.219zM12.688 27.656l1.422-0.828-2.719 0.406zM14.781 28.375l1.609-1.031-2.828 0.609zM16.875 29.078l2.203-1.391-3.516 0.938zM18.969 29.781l2.672-1.563-4.047 1.094zM20.813 30.391l3.359-2.375-1.156-0.172-3.578 2.094zM23.234 31.219l6.422-5.078-8.016 4.531zM31.5 28.344v-1.125l-7.516 4.25zM31.5 25.156l-7.141 5.656 7.141-4.031v-1.625zM31.5 23.297l-9.688 6.844 9.688-5.484v-1.359zM31.5 21.031l-6.016 4.953 6.016-3.453v-1.5zM31.5 19.078l-6.063 4.797 6.063-3.469v-1.328zM31.5 16.828l-6.219 5.016 6.219-3.563v-1.453zM31.5 14.797l-6 4.797 6-3.438v-1.359zM31.5 12.453l-5.828 4.922 5.828-3.344v-1.578zM31.5 10.516l-5.547 4.578 5.547-3.188v-1.391zM31.5 8.391l-5.781 4.703 5.781-3.313v-1.391zM31.5 6.156l-5.844 4.859 5.844-3.359v-1.5zM31.5 4l-6.031 4.984 6.031-3.484v-1.5zM4 16.766l-2-0.344v-5.094l1.922-2.594 6.094-1.766v-2.313l5.984 4.016-12 2.313v5.781z"></path>
</svg>
