<!-- Generated by IcoMoon.io -->
<svg version="1.1" xmlns="http://www.w3.org/2000/svg" width="32" height="32" viewBox="0 0 32 32">
<title>uniF550</title>
<path d="M24 10h-8v-2h8v2zM16 16h8v2h-8v-2zM18.047 30l2 2h-16.047v-32h24v20.047l-2 2v-20.047h-20v28h12.047zM14.703 6.703l-3.703 3.703-2.703-2.703 1.406-1.406 1.297 1.297 2.297-2.297zM14.703 14.703l-3.703 3.703-2.703-2.703 1.406-1.406 1.297 1.297 2.297-2.297zM11 23.594l2.297-2.297 1.406 1.406-3.703 3.703-2.703-2.703 1.406-1.406zM31.703 22.703l-8.703 8.719-4.203-4.219 1.406-1.406 2.797 2.781 7.297-7.281z"></path>
</svg>
