<!-- Generated by IcoMoon.io -->
<svg version="1.1" xmlns="http://www.w3.org/2000/svg" width="32" height="32" viewBox="0 0 32 32">
<title>uniF807</title>
<path d="M30 21.891q0 1.297-0.305 2.555t-0.883 2.375-1.398 2.063-1.852 1.633-2.25 1.070-2.578 0.383q-0.922 0-1.844-0.18t-1.789-0.516-1.648-0.844-1.438-1.164l-9.703-9.703q-0.422-0.422-0.648-0.977t-0.227-1.148q0-0.891 0.484-1.633t1.313-1.102q-0.391-0.703-0.391-1.484 0-0.891 0.492-1.648t1.32-1.102q-0.406-0.688-0.406-1.484 0-0.625 0.234-1.172t0.641-0.953 0.953-0.641 1.172-0.234q0.781 0 1.484 0.391 0.375-0.828 1.109-1.313t1.641-0.484q0.594 0 1.141 0.227t0.969 0.648l8.406 8.406v-2.828q0-0.594 0.227-1.148t0.648-0.977q0.422-0.406 0.977-0.641t1.148-0.234q0.625 0 1.172 0.234t0.953 0.641 0.641 0.953 0.234 1.172v10.859zM28 21.844v-10.813q0-0.406-0.297-0.703t-0.703-0.297q-0.422 0-0.711 0.289t-0.289 0.711v3.547q0 0.516-0.281 0.938t-0.766 0.625q-0.156 0.078-0.32 0.102t-0.336 0.023q-0.719 0-1.203-0.484l-8.906-8.906q-0.297-0.297-0.703-0.297t-0.703 0.297-0.297 0.703 0.297 0.703l5.641 5.641q0.297 0.297 0.297 0.703t-0.297 0.703-0.703 0.297-0.703-0.297l-7.063-7.047q-0.297-0.297-0.703-0.297t-0.703 0.297-0.297 0.703 0.297 0.703l7.047 7.047q0.297 0.297 0.297 0.719 0 0.406-0.297 0.703t-0.703 0.297-0.703-0.297l-5.641-5.641q-0.297-0.297-0.703-0.297t-0.703 0.297-0.297 0.703 0.297 0.703l6.344 6.344q0.297 0.297 0.297 0.703t-0.297 0.703-0.703 0.297-0.703-0.297l-4.953-4.922q-0.297-0.297-0.688-0.297-0.406 0-0.703 0.289t-0.297 0.711q0 0.391 0.297 0.688l9.688 9.703q1.031 1.031 2.438 1.57t2.859 0.539q1.641 0 2.984-0.68t2.297-1.805 1.477-2.586 0.523-3.039zM18 1q0-0.406 0.297-0.703t0.703-0.297q1.453 0 2.727 0.547t2.227 1.5 1.5 2.227 0.547 2.727q0 0.406-0.297 0.703t-0.703 0.297-0.703-0.297-0.297-0.703q0-1.031-0.398-1.938t-1.078-1.586-1.586-1.078-1.938-0.398q-0.406 0-0.703-0.297t-0.297-0.703zM18 4.5q0-0.406 0.297-0.703t0.703-0.297q0.719 0 1.359 0.273t1.117 0.75 0.75 1.117 0.273 1.359q0 0.406-0.297 0.703t-0.703 0.297-0.703-0.297-0.297-0.703q0-0.625-0.438-1.063t-1.063-0.438q-0.406 0-0.703-0.297t-0.297-0.703zM8 29q0 0.406-0.297 0.703t-0.703 0.297q-1.453 0-2.727-0.547t-2.227-1.5-1.5-2.227-0.547-2.727q0-0.406 0.297-0.703t0.703-0.297 0.703 0.297 0.297 0.703q0 1.031 0.391 1.945t1.070 1.594 1.594 1.070 1.945 0.391q0.406 0 0.703 0.297t0.297 0.703zM8 25.5q0 0.406-0.297 0.703t-0.703 0.297q-0.734 0-1.367-0.273t-1.109-0.75-0.75-1.109-0.273-1.367q0-0.406 0.297-0.703t0.703-0.297 0.703 0.297 0.297 0.703q0 0.625 0.438 1.063t1.063 0.438q0.406 0 0.703 0.297t0.297 0.703z"></path>
</svg>
