<!-- Generated by IcoMoon.io -->
<svg version="1.1" xmlns="http://www.w3.org/2000/svg" width="32" height="32" viewBox="0 0 32 32">
<title>uniE4DF</title>
<path d="M30 22h2v10h-12v-10h2v-2q0-0.828 0.313-1.555t0.859-1.273 1.273-0.859 1.555-0.313 1.555 0.313 1.273 0.859 0.859 1.273 0.313 1.555v2zM24 20v2h4v-2q0-0.422-0.156-0.781t-0.43-0.633-0.633-0.43-0.781-0.156-0.781 0.156-0.633 0.43-0.43 0.633-0.156 0.781zM30 30v-6h-8v6h8zM2.297 16l6.859 12h8.844v2h-10l-8-14 8-14h16l8 14-0.422 0.719q-0.578-0.969-1.273-1.602t-1.727-1.086l-5.734-10.031h-13.688z"></path>
</svg>
