<!-- Generated by IcoMoon.io -->
<svg version="1.1" xmlns="http://www.w3.org/2000/svg" width="32" height="32" viewBox="0 0 32 32">
<title>uniE4DE</title>
<path d="M30.891 30q0 0.422-0.156 0.781t-0.43 0.633-0.633 0.43-0.781 0.156h-11.781q-0.406 0-0.773-0.156t-0.641-0.43-0.43-0.641-0.156-0.773q0-0.484 0.219-0.891l4.672-9.344v-3.766h-2v-2h10v2h-2v3.766l4.672 9.344q0.219 0.406 0.219 0.891zM19.109 26h7.781l-2.891-5.766v-4.234h-2v4.234zM12 14h-8l-4-7 4-7h8l4 7zM5.156 2l-2.859 5 2.859 5h5.688l2.859-5-2.859-5h-5.688zM16 18.5l-2-3.5 4-7h8l2.281 4h-2.297l-1.141-2h-5.688l-1.141 2h-2.016v6.5zM12 16l3.781 6.625-2.688 5.375q-0.031 0.063-0.047 0.133t-0.047 0.133l-1 1.734h-8l-4-7 4-7h8zM10.844 28l2.859-5-2.859-5h-5.688l-2.859 5 2.859 5h5.688z"></path>
</svg>
