<!-- Generated by IcoMoon.io -->
<svg version="1.1" xmlns="http://www.w3.org/2000/svg" width="32" height="32" viewBox="0 0 32 32">
<title>uniE4E0</title>
<path d="M26 19.766l4.672 9.344q0.219 0.406 0.219 0.891 0 0.422-0.156 0.781t-0.43 0.633-0.633 0.43-0.781 0.156h-11.781q-0.406 0-0.773-0.156t-0.641-0.43-0.43-0.641-0.156-0.773q0-0.484 0.219-0.891l4.672-9.344v-3.766h-2v-2h10v2h-2v3.766zM19.109 26h7.781l-2.891-5.766v-4.234h-2v4.234zM2.297 16l6.859 12h3.938q-0.484 0.969-0.484 2h-4.609l-8-14 8-14h16l5.719 10h-2.297l-4.578-8h-13.688z"></path>
</svg>
