<!-- Generated by IcoMoon.io -->
<svg version="1.1" xmlns="http://www.w3.org/2000/svg" width="32" height="32" viewBox="0 0 32 32">
<title>uniE4DD</title>
<path d="M30 22h2v10h-12v-10h2v-2q0-0.828 0.313-1.555t0.859-1.273 1.273-0.859 1.555-0.313 1.555 0.313 1.273 0.859 0.859 1.273 0.313 1.555v2zM24 20v2h4v-2q0-0.422-0.156-0.781t-0.43-0.633-0.633-0.43-0.781-0.156-0.781 0.156-0.633 0.43-0.43 0.633-0.156 0.781zM30 30v-6h-8v6h8zM24.844 10h-5.688l-2.859 5 2.859 5h-1.156v2l-4-7 4-7h8l3.906 6.828q-0.375-0.281-0.719-0.484t-0.695-0.352-0.742-0.242-0.859-0.156zM4 16h8l4 7-4 7h-8l-4-7zM10.844 28l2.859-5-2.859-5h-5.688l-2.859 5 2.859 5h5.688zM12 14h-8l-4-7 4-7h8l4 7zM5.156 2l-2.859 5 2.859 5h5.688l2.859-5-2.859-5h-5.688z"></path>
</svg>
