<!-- Generated by IcoMoon.io -->
<svg version="1.1" xmlns="http://www.w3.org/2000/svg" width="32" height="32" viewBox="0 0 32 32">
<title>uniE315</title>
<path d="M0 26v-4h2v4h-2zM4 0v2h-4v-2h4zM0 32v-4h2v4h-2zM28 0v2h-4v-2h4zM0 20v-4h2v4h-2zM10 6h12l6 10-6 10h-12l-6-10 6-10zM20.875 24l4.797-8-4.797-8h-9.75l-4.797 8 4.797 8h9.75zM10 0v2h-4v-2h4zM0 14v-4h2v4h-2zM16 0v2h-4v-2h4zM22 0v2h-4v-2h4zM30 28v-4h2v4h-2zM30 16v-4h2v4h-2zM30 22v-4h2v4h-2zM30 10v-4h2v4h-2zM30 0h2v4h-2v-4zM0 8v-4h2v4h-2zM10 32v-2h4v2h-4zM4 32v-2h4v2h-4zM22 32v-2h4v2h-4zM16 32v-2h4v2h-4zM28 32v-2h4v2h-4z"></path>
</svg>
