<!-- Generated by IcoMoon.io -->
<svg version="1.1" xmlns="http://www.w3.org/2000/svg" width="32" height="32" viewBox="0 0 32 32">
<title>uniE36D</title>
<path d="M16 2q-1.859 0-3.609 0.555t-3.266 1.617l-1.422-1.422q1.813-1.344 3.922-2.047t4.375-0.703q1.922 0 3.711 0.5t3.344 1.414 2.836 2.195 2.195 2.836 1.414 3.344 0.5 3.711q0 2.25-0.703 4.375t-2.047 3.922l-1.469-1.453q0.766-1.094 1.289-2.305t0.758-2.539h-5.156q-0.094 0.313-0.219 0.617t-0.281 0.602l-1.5-1.5q0.328-0.813 0.328-1.719 0-1.031-0.391-1.945t-1.070-1.594-1.594-1.070-1.945-0.391q-0.906 0-1.719 0.328l-1.5-1.5q0.75-0.406 1.563-0.617t1.656-0.211q1.453 0 2.727 0.555t2.219 1.5 1.5 2.219 0.555 2.727h5q0-1.656-0.43-3.188t-1.211-2.867-1.875-2.43-2.43-1.875-2.867-1.211-3.188-0.43zM24.016 25.438q-1.859 1.313-4.016 1.969v2.594h6v2h-20v-2h6v-2.594q-2.219-0.656-4.063-1.969t-3.164-3.078-2.047-3.898-0.727-4.461q0-2.172 0.656-4.219t1.906-3.813l-4.266-4.266 1.406-1.406 30 30-1.406 1.406zM11.203 12.625q-0.094 0.344-0.148 0.68t-0.055 0.695q0 1.031 0.391 1.945t1.070 1.594 1.594 1.070 1.945 0.391q0.359 0 0.695-0.055t0.68-0.148zM5.984 7.406q-0.984 1.469-1.484 3.148t-0.5 3.445h5q0-1.531 0.672-2.922zM18 30v-2.156q-0.5 0.078-1 0.117t-1 0.039-1-0.039-1-0.117v2.156h4zM16 26q1.766 0 3.43-0.516t3.133-1.5l-3.625-3.641q-1.391 0.656-2.938 0.656-1.156 0-2.219-0.367t-1.945-1.031-1.531-1.578-0.977-2.023h-5.156q0.375 2.156 1.445 3.992t2.648 3.172 3.563 2.086 4.172 0.75z"></path>
</svg>
