<!-- Generated by IcoMoon.io -->
<svg version="1.1" xmlns="http://www.w3.org/2000/svg" width="32" height="32" viewBox="0 0 32 32">
<title>uniE3DB</title>
<path d="M30 20l2 10h-32l2-10h3.625q-0.797-1.375-1.211-2.891t-0.414-3.109q0-1.656 0.43-3.188t1.211-2.867 1.875-2.43 2.43-1.875 2.867-1.211 3.188-0.43 3.188 0.43 2.867 1.211 2.43 1.875 1.875 2.43 1.211 2.867 0.43 3.188q0 1.594-0.414 3.109t-1.211 2.891h3.625zM26 14q0-0.5-0.055-1t-0.148-1h-3.891q0.094 1.016 0.094 2 0 1-0.094 2h3.891q0.094-0.5 0.148-1t0.055-1zM12.094 16h7.813q0.094-1 0.094-2 0-0.984-0.094-2h-7.813q-0.094 1.016-0.094 2 0 1 0.094 2zM19.625 18h-7.25q0.063 0.359 0.219 0.945t0.398 1.258 0.547 1.344 0.688 1.219 0.828 0.891 0.945 0.344 0.945-0.344 0.828-0.891 0.688-1.219 0.547-1.344 0.391-1.258 0.227-0.945zM12.172 23.234q-0.719-1.188-1.156-2.531t-0.672-2.703h-3.5q0.375 0.828 0.938 1.617t1.258 1.477 1.492 1.242 1.641 0.898zM21.656 18q-0.25 1.344-0.68 2.695t-1.133 2.539q0.844-0.375 1.633-0.922t1.484-1.227 1.258-1.461 0.938-1.625h-3.5zM25.156 10q-0.797-1.766-2.164-3.125t-3.164-2.109q0.719 1.188 1.148 2.531t0.68 2.703h3.5zM16 4q-0.5 0-0.945 0.344t-0.828 0.891-0.688 1.219-0.547 1.344-0.398 1.258-0.219 0.945h7.25q-0.078-0.359-0.227-0.945t-0.391-1.258-0.547-1.344-0.688-1.219-0.828-0.891-0.945-0.344zM12.172 4.766q-1.797 0.75-3.164 2.109t-2.164 3.125h3.5q0.25-1.359 0.68-2.703t1.148-2.531zM6.203 12q-0.094 0.5-0.148 1t-0.055 1 0.055 1 0.148 1h3.891q-0.094-1-0.094-2 0-0.984 0.094-2h-3.891zM2.438 28h27.125l-1.203-6h-3.438q-0.844 0.953-1.867 1.695t-2.164 1.258-2.375 0.781-2.516 0.266-2.516-0.266-2.375-0.781-2.164-1.258-1.867-1.695h-3.438z"></path>
</svg>
