<!-- Generated by IcoMoon.io -->
<svg version="1.1" xmlns="http://www.w3.org/2000/svg" width="32" height="32" viewBox="0 0 32 32">
<title>uniF6FA</title>
<path d="M18 22h-7.391q0.313 1.5 0.859 3t1.406 2.766q-0.328 0.281-0.633 0.633t-0.539 0.734-0.375 0.813-0.141 0.867q0 0.234 0.047 0.469-2.5-0.781-4.563-2.289t-3.547-3.523-2.305-4.43-0.82-5.039q0-2.203 0.57-4.25t1.617-3.82 2.508-3.234 3.234-2.508 3.82-1.617 4.25-0.57q2.734 0 5.234 0.883t4.547 2.477 3.523 3.797 2.164 4.844h-21.203q-0.141 1-0.203 1.992t-0.063 2.008 0.063 2.008 0.203 1.992h7.734v2zM8.25 20q-0.125-1-0.188-1.992t-0.063-2.008 0.063-2.008 0.188-1.992h-5.672q-0.578 1.922-0.578 4t0.578 4h5.672zM28.625 10q-0.609-1.266-1.445-2.375t-1.867-2.039-2.227-1.641-2.523-1.164q0.563 0.766 1.016 1.641t0.805 1.805 0.609 1.891 0.445 1.883h5.188zM16 2q-0.766 0-1.43 0.43t-1.219 1.133-1.008 1.578-0.797 1.766-0.578 1.703-0.359 1.391h10.766q-0.125-0.563-0.359-1.383t-0.578-1.711-0.797-1.766-1.008-1.57-1.211-1.133-1.422-0.438zM11.438 2.781q-1.328 0.453-2.531 1.164t-2.234 1.633-1.867 2.039-1.445 2.383h5.203q0.188-0.922 0.445-1.883t0.609-1.891 0.805-1.805 1.016-1.641zM11.438 29.219q-0.563-0.766-1.016-1.641t-0.805-1.805-0.609-1.891-0.445-1.883h-5.203q0.609 1.266 1.445 2.383t1.867 2.039 2.234 1.633 2.531 1.164zM26 14q1.234 0 2.328 0.469t1.914 1.289 1.289 1.914 0.469 2.328q0 1.25-0.469 2.336t-1.289 1.906-1.914 1.289-2.328 0.469q-0.938 0-1.828-0.281t-1.641-0.828l-6.828 6.813q-0.297 0.297-0.703 0.297t-0.703-0.297-0.297-0.703 0.297-0.703l6.813-6.828q-0.547-0.75-0.828-1.641t-0.281-1.828q0-1.234 0.469-2.328t1.289-1.914 1.906-1.289 2.336-0.469zM26 24q0.828 0 1.555-0.313t1.273-0.859 0.859-1.273 0.313-1.555-0.313-1.555-0.859-1.273-1.273-0.859-1.555-0.313-1.555 0.313-1.273 0.859-0.859 1.273-0.313 1.555 0.313 1.555 0.859 1.273 1.273 0.859 1.555 0.313z"></path>
</svg>
