<!-- Generated by IcoMoon.io -->
<svg version="1.1" xmlns="http://www.w3.org/2000/svg" width="32" height="32" viewBox="0 0 32 32">
<title>uniEADB</title>
<path d="M29.422 10l2 2-4.422 4.406-5-4.984-10.578 10.578 4.984 5-4.406 4.422-2-2-2.5 2.484-3-2.984q-0.156 0.141-0.32 0.328t-0.344 0.352-0.391 0.281-0.445 0.117q-0.406 0-0.703-0.297t-0.297-0.703q0-0.234 0.117-0.445t0.281-0.391 0.352-0.344 0.328-0.32l-2.984-3 2.484-2.5-2-2 4.422-4.406 5 4.984 10.578-10.578-4.984-5 4.406-4.422 2 2 2.5-2.484 3 2.984q0.156-0.141 0.32-0.328t0.344-0.352 0.391-0.281 0.445-0.117q0.406 0 0.703 0.297t0.297 0.703q0 0.234-0.117 0.445t-0.281 0.391-0.352 0.344-0.328 0.32l2.984 3zM8.578 28l-4.578-4.578-1.078 1.078 4.578 4.578zM13.594 27l-8.594-8.594-1.578 1.594 8.578 8.578zM23.422 4l4.578 4.578 1.078-1.078-4.578-4.578zM28.578 12l-8.578-8.578-1.594 1.578 8.594 8.594z"></path>
</svg>
