<!-- Generated by IcoMoon.io -->
<svg version="1.1" xmlns="http://www.w3.org/2000/svg" width="32" height="32" viewBox="0 0 32 32">
<title>uniF31F</title>
<path d="M27 14q0.625 0 1.172 0.234t0.953 0.641 0.641 0.945 0.234 1.164q0 0.344-0.063 0.609l-2 10q-0.109 0.516-0.383 0.961t-0.664 0.766-0.875 0.5-1.016 0.18q-0.609 0-1.156-0.234t-0.961-0.648-0.648-0.961-0.234-1.156q0-0.156 0.016-0.305t0.047-0.289l1.281-6.406h-1.547q0.203 0.953 0.203 2 0 2.078-0.781 3.898t-2.141 3.18-3.18 2.141-3.898 0.781-3.898-0.781-3.18-2.141-2.141-3.18-0.781-3.898q0-1.797 0.609-3.438t1.688-2.945 2.57-2.203 3.258-1.242l3.844-4.922-0.594-0.391-2.25 2.266q-0.422 0.422-0.977 0.648t-1.148 0.227q-0.625 0-1.172-0.234t-0.953-0.641-0.641-0.953-0.234-1.172q0-0.594 0.227-1.148t0.648-0.977l4-4q0.422-0.422 0.977-0.648t1.148-0.227q0.906 0 1.672 0.5 1.359 0.875 2.672 1.781t2.656 1.797q0-0.844 0.305-1.586t0.844-1.297 1.273-0.875 1.578-0.32q0.828 0 1.555 0.313t1.273 0.859 0.859 1.273 0.313 1.555-0.313 1.555-0.859 1.273-1.273 0.859-1.555 0.313h-0.211t-0.211-0.016q0.172 0.656 0.172 1.281 0 0.766-0.203 1.391t-0.531 1.172-0.75 1.070-0.875 1.102h5.609zM24 2q-0.422 0-0.781 0.156t-0.633 0.43-0.43 0.633-0.156 0.781 0.156 0.781 0.43 0.633 0.633 0.43 0.781 0.156 0.781-0.156 0.633-0.43 0.43-0.633 0.156-0.781-0.156-0.781-0.43-0.633-0.633-0.43-0.781-0.156zM16.875 6.781l-4.094 5.25q1.594 0.125 3.063 0.734t2.672 1.656l2.594-3.328q0.313-0.406 0.477-0.875t0.164-0.969q0-0.703-0.305-1.305t-0.852-1.055q-0.266-0.219-0.578-0.414t-0.594-0.383l-4.703-3.141q-0.281-0.203-0.57-0.406t-0.586-0.375q-0.156-0.078-0.273-0.125t-0.289-0.047q-0.406 0-0.703 0.297l-4 4q-0.297 0.297-0.297 0.703t0.297 0.703 0.703 0.297 0.703-0.297l3.422-3.422zM12 30q1.656 0 3.109-0.633t2.539-1.719 1.719-2.539 0.633-3.109-0.633-3.109-1.719-2.539-2.539-1.719-3.109-0.633-3.109 0.633-2.539 1.719-1.719 2.539-0.633 3.109 0.633 3.109 1.719 2.539 2.539 1.719 3.109 0.633zM25 28q0.359 0 0.633-0.227t0.352-0.57l2-10q0.016-0.063 0.016-0.188 0-0.422-0.289-0.719t-0.711-0.297h-7q0.688 0.922 1.172 2h4.609l-1.766 8.797q-0.016 0.063-0.016 0.203 0 0.406 0.289 0.703t0.711 0.297zM12 16q1.234 0 2.328 0.469t1.914 1.289 1.289 1.914 0.469 2.328q0 1.25-0.469 2.336t-1.289 1.906-1.914 1.289-2.328 0.469q-1.25 0-2.336-0.469t-1.906-1.289-1.289-1.906-0.469-2.336q0-1.234 0.469-2.328t1.289-1.914 1.906-1.289 2.336-0.469zM12 26q0.828 0 1.555-0.313t1.273-0.859 0.859-1.273 0.313-1.555-0.313-1.555-0.859-1.273-1.273-0.859-1.555-0.313-1.555 0.313-1.273 0.859-0.859 1.273-0.313 1.555 0.313 1.555 0.859 1.273 1.273 0.859 1.555 0.313z"></path>
</svg>
