<!-- Generated by IcoMoon.io -->
<svg version="1.1" xmlns="http://www.w3.org/2000/svg" width="32" height="32" viewBox="0 0 32 32">
<title>uniF674</title>
<path d="M19.594 10.531l8.422-8.391 1.859 1.859-5.609 5.609q-0.406 0.406-0.734 0.758t-0.641 0.68-0.648 0.656-0.773 0.703l-3.375 1.578zM30 6.688v19.313h-28v-21h20.313l-2.016 2h-16.297v4.984q0.422-0.219 0.938-0.469t1.070-0.461 1.109-0.352 1.039-0.141q0.688 0 1.148 0.391t0.461 1.109q0 0.422-0.133 0.805t-0.336 0.75-0.445 0.734-0.445 0.75-0.336 0.805-0.133 0.906q0 0.5 0.172 0.906t0.469 0.695 0.711 0.445 0.898 0.156q0.844 0 1.648-0.406t1.516-1.023 1.289-1.352 0.984-1.391l1.703 1.063q-0.563 0.922-1.32 1.828t-1.664 1.641-1.953 1.188-2.203 0.453q-0.906 0-1.688-0.313t-1.352-0.875-0.891-1.328-0.32-1.688q0-0.703 0.141-1.227t0.367-0.992 0.516-0.93 0.586-1.023q-0.938 0.266-1.82 0.711t-1.727 0.914v9.734h24v-15.313z"></path>
</svg>
