<!-- Generated by IcoMoon.io -->
<svg version="1.1" xmlns="http://www.w3.org/2000/svg" width="32" height="32" viewBox="0 0 32 32">
<title>uniF673</title>
<path d="M19.719 9.953l9.734-9.469 2.094 2.156-6.484 6.328q-0.469 0.469-0.844 0.859t-0.734 0.758-0.75 0.742-0.906 0.797l-3.906 1.766zM32 4.984v21.016h-32v-22h22.969l-2.047 2h-18.922v4.359q0.531-0.328 1.367-0.797t1.766-0.898 1.836-0.734 1.563-0.305q0.766 0 1.305 0.43t0.539 1.242q0 0.672-0.32 1.328t-0.664 1.203q-0.625 1.031-0.984 2.148t-0.359 2.336q0 0.516 0.117 1.203t0.391 1.297 0.727 1.039 1.125 0.43q0.766 0 1.531-0.5t1.438-1.211 1.219-1.492 0.875-1.344l1.719 1.031q-0.344 0.563-0.766 1.195t-0.93 1.242-1.078 1.172-1.211 0.984-1.336 0.672-1.43 0.25q-1.172 0-2-0.563t-1.359-1.445-0.781-1.938-0.25-2.039q0-1.5 0.43-2.875t1.211-2.656l0.031-0.063q0.156-0.266 0.305-0.523t0.258-0.555q-0.313 0.047-0.844 0.234t-1.156 0.461-1.289 0.609-1.25 0.68-1.055 0.656-0.688 0.547v11.188h28v-17.063z"></path>
</svg>
