<!-- Generated by IcoMoon.io -->
<svg version="1.1" xmlns="http://www.w3.org/2000/svg" width="32" height="32" viewBox="0 0 32 32">
<title>uniEABF</title>
<path d="M24 11q0 1.719-0.609 3.258t-1.688 2.734-2.539 1.977-3.164 0.984v10.047h3q0.406 0 0.703 0.297t0.297 0.703-0.297 0.703-0.703 0.297h-8q-0.406 0-0.703-0.297t-0.297-0.703 0.297-0.703 0.703-0.297h3v-10.047q-1.703-0.203-3.164-0.984t-2.539-1.977-1.688-2.734-0.609-3.258q0-1.375 0.227-2.695t0.664-2.633l1.891-5.672h12.438l1.891 5.672q0.438 1.313 0.664 2.633t0.227 2.695zM8 11q0 1.453 0.555 2.727t1.5 2.219 2.219 1.5 2.727 0.555 2.727-0.555 2.219-1.5 1.5-2.219 0.555-2.727q0-1.188-0.211-2.328t-0.531-2.25-0.711-2.211-0.766-2.211h-9.563l-1.438 4.328q-0.375 1.141-0.578 2.297t-0.203 2.375z"></path>
</svg>
