<!-- Generated by IcoMoon.io -->
<svg version="1.1" xmlns="http://www.w3.org/2000/svg" width="32" height="32" viewBox="0 0 32 32">
<title>uniED8D</title>
<path d="M8.344 26q-0.313 0.813-0.313 1.672 0 0.078 0.008 0.164t0.008 0.164h-2.047v-2h2.344zM23.422 30h4.578v2h-14.922l-2.297-2.313q-0.375-0.391-0.578-0.891t-0.203-1.047 0.203-1.055 0.594-0.898l12.703-12.719 8.406 8.422zM23.5 15.906l-6.078 6.094 5.578 5.594 6.078-6.094zM20.578 30l1.016-1-5.594-5.578-3.781 3.781q-0.219 0.219-0.219 0.547t0.219 0.547l1.688 1.703h6.672zM8.594 30q0.328 0.641 0.742 1.070t0.93 0.93h-8.266q-0.422 0-0.781-0.156t-0.633-0.43-0.43-0.633-0.156-0.781v-28q0-0.422 0.156-0.781t0.43-0.633 0.633-0.43 0.781-0.156h16q0.422 0 0.781 0.156t0.633 0.43 0.43 0.633 0.156 0.781v11.75l-2 2v-13.75h-16v28h6.594z"></path>
</svg>
