<!-- Generated by IcoMoon.io -->
<svg version="1.1" xmlns="http://www.w3.org/2000/svg" width="32" height="32" viewBox="0 0 32 32">
<title>uniEF71</title>
<path d="M32 7.422v22.578q0 0.422-0.156 0.781t-0.43 0.633-0.633 0.43-0.781 0.156h-20q-0.422 0-0.781-0.156t-0.633-0.43-0.43-0.633-0.156-0.781v-4h-6.203q-0.375 0-0.695-0.141t-0.57-0.391-0.391-0.57-0.141-0.695v-14.406q0-0.375 0.141-0.695t0.391-0.57 0.57-0.391 0.695-0.141h6.203v-6q0-0.422 0.156-0.781t0.43-0.633 0.633-0.43 0.781-0.156h14.578q0.406 0 0.773 0.148t0.648 0.43l5.422 5.422q0.281 0.281 0.43 0.648t0.148 0.773zM26 3.422v2.578h2.578zM5 22.25h2.516q0.031-0.125 0.148-0.672t0.273-1.305 0.336-1.609 0.336-1.57 0.258-1.188 0.117-0.484l0.109 0.477t0.273 1.195 0.352 1.57 0.359 1.609 0.297 1.313 0.156 0.664h2.5l2.313-10.5h-2.313l-1.25 6.844-1.563-6.844h-2.375l-1.5 6.875-1.344-6.875h-2.344zM10 30h20v-22h-4q-0.422 0-0.781-0.156t-0.633-0.43-0.43-0.633-0.156-0.781v-4h-14v6h6.203q0.375 0 0.695 0.141t0.57 0.391 0.391 0.57 0.141 0.695v14.406q0 0.375-0.141 0.695t-0.391 0.57-0.57 0.391-0.695 0.141h-6.203v4zM20 14v-2h8v2h-8zM20 18v-2h8v2h-8zM20 22v-2h8v2h-8z"></path>
</svg>
