<!-- Generated by IcoMoon.io -->
<svg version="1.1" xmlns="http://www.w3.org/2000/svg" width="32" height="32" viewBox="0 0 32 32">
<title>uniF1E3</title>
<path d="M30.672 2q0.547 0 0.938 0.391t0.391 0.938v25.344q0 0.547-0.391 0.938t-0.938 0.391h-21.344q-0.547 0-0.938-0.391t-0.391-0.938v-4.672h-6.672q-0.547 0-0.938-0.391t-0.391-0.938v-13.344q0-0.547 0.391-0.938t0.938-0.391h6.672v-4.672q0-0.547 0.391-0.938t0.938-0.391h21.344zM8.047 14.938l1.922 6.313h2.188l2.094-10.5h-2.203l-1.25 6.203-1.766-6h-1.859l-1.875 6.031-1.25-6.234h-2.297l2.094 10.5h2.188zM30 28v-4h-20v4h20zM30 22v-5h-14v5h14zM30 15v-5h-14v5h14zM30 8v-4h-20v4h20z"></path>
</svg>
