<!-- Generated by IcoMoon.io -->
<svg version="1.1" xmlns="http://www.w3.org/2000/svg" width="32" height="32" viewBox="0 0 32 32">
<title>uniEE0F</title>
<path d="M28 20h4v12h-16v-12h4v-4h8v4zM22 20h4v-2h-4v2zM30 26h-2v2h-2v-2h-4v2h-2v-2h-2v4h12v-4zM18 22v2h12v-2h-12zM14 14q0 1.453-0.648 2.727t-1.82 2.117q0.703 0.359 1.328 0.828t1.141 1.047v5.281q0-1.234-0.469-2.328t-1.289-1.914-1.914-1.289-2.328-0.469q-1.25 0-2.336 0.469t-1.906 1.289-1.289 1.914-0.469 2.328h-2q0-1.141 0.313-2.211t0.898-2.008 1.414-1.688 1.844-1.266q-1.172-0.844-1.82-2.117t-0.648-2.711q0-1.234 0.469-2.328t1.289-1.914 1.906-1.289 2.336-0.469q1.125 0 2.148 0.398t1.852 1.148q0.5-0.453 1.109-0.797-0.531-0.547-0.82-1.266t-0.289-1.484q0-0.828 0.313-1.555t0.859-1.273 1.273-0.859 1.555-0.313 1.555 0.313 1.273 0.859 0.859 1.273 0.313 1.555q0 0.766-0.289 1.484t-0.82 1.266q1.297 0.719 2.109 1.938 0.813-1.219 2.109-1.938-0.531-0.547-0.82-1.266t-0.289-1.484q0-0.828 0.313-1.555t0.859-1.273 1.273-0.859 1.555-0.313 1.555 0.313 1.273 0.859 0.859 1.273 0.313 1.555q0 0.766-0.289 1.484t-0.82 1.266q0.719 0.391 1.297 0.953t0.977 1.242 0.617 1.461 0.219 1.594h-2q0-0.828-0.313-1.555t-0.859-1.273-1.273-0.859-1.555-0.313-1.555 0.313-1.273 0.859-0.859 1.273-0.313 1.555h-2q0-0.828-0.313-1.555t-0.859-1.273-1.273-0.859-1.555-0.313q-0.766 0-1.484 0.289t-1.266 0.82q0.375 0.656 0.563 1.391t0.188 1.5zM26 4q-0.422 0-0.781 0.156t-0.633 0.43-0.43 0.633-0.156 0.781 0.156 0.781 0.43 0.633 0.633 0.43 0.781 0.156 0.781-0.156 0.633-0.43 0.43-0.633 0.156-0.781-0.156-0.781-0.43-0.633-0.633-0.43-0.781-0.156zM16 4q-0.422 0-0.781 0.156t-0.633 0.43-0.43 0.633-0.156 0.781 0.156 0.781 0.43 0.633 0.633 0.43 0.781 0.156 0.781-0.156 0.633-0.43 0.43-0.633 0.156-0.781-0.156-0.781-0.43-0.633-0.633-0.43-0.781-0.156zM8 18q0.828 0 1.555-0.313t1.273-0.859 0.859-1.273 0.313-1.555-0.313-1.555-0.859-1.273-1.273-0.859-1.555-0.313-1.555 0.313-1.273 0.859-0.859 1.273-0.313 1.555 0.313 1.555 0.859 1.273 1.273 0.859 1.555 0.313z"></path>
</svg>
