<!-- Generated by IcoMoon.io -->
<svg version="1.1" xmlns="http://www.w3.org/2000/svg" width="32" height="32" viewBox="0 0 32 32">
<title>uniF78F</title>
<path d="M6 6v24h14v2h-16v-28h8q0-0.828 0.313-1.555t0.859-1.273 1.273-0.859 1.555-0.313 1.555 0.313 1.273 0.859 0.859 1.273 0.313 1.555h8v12h-2v-10h-2v4h-16v-4h-2zM10 6v2h12v-2h-4v-2q0-0.422-0.156-0.781t-0.43-0.633-0.633-0.43-0.781-0.156-0.781 0.156-0.633 0.43-0.43 0.633-0.156 0.781v2h-4zM30 26h2v2h-4v1q0 0.625-0.234 1.172t-0.641 0.953-0.953 0.641-1.172 0.234-1.172-0.234-0.953-0.641-0.641-0.953-0.234-1.172v-1h-4v-2h2v-3q0-1.031 0.391-1.938t1.070-1.586 1.594-1.078 1.945-0.398 1.938 0.398 1.586 1.078 1.078 1.586 0.398 1.938v3zM26 29v-1h-2v1q0 0.406 0.297 0.703t0.703 0.297 0.703-0.297 0.297-0.703zM22 26h6v-3q0-0.625-0.234-1.172t-0.641-0.953-0.953-0.641-1.172-0.234-1.172 0.234-0.953 0.641-0.641 0.953-0.234 1.172v3z"></path>
</svg>
