<!-- Generated by IcoMoon.io -->
<svg version="1.1" xmlns="http://www.w3.org/2000/svg" width="32" height="32" viewBox="0 0 32 32">
<title>uniEA01</title>
<path d="M10 8v-4.641q-2.063 0.984-3.688 2.563t-2.688 3.594l-1.859-0.766q1.094-2.141 2.758-3.859t3.758-2.891h-4.281v-2h8v8h-2zM28.375 9.516q-0.984-1.891-2.492-3.398t-3.398-2.492l0.766-1.844q2.25 1.156 4.039 2.938t2.945 4.031zM2 16q0 1.063 0.156 2.109t0.484 2.063l-1.844 0.766q-0.797-2.391-0.797-4.938t0.797-4.938l1.859 0.766q-0.313 1.016-0.484 2.063t-0.172 2.109zM3.609 22.484q0.984 1.891 2.5 3.406t3.406 2.5l-0.766 1.859q-2.25-1.172-4.039-2.961t-2.961-4.039zM30.297 21.297l1.406 1.406-8.703 8.719-4.203-4.219 1.406-1.406 2.797 2.781zM30 16q0-1.063-0.172-2.109t-0.484-2.063l1.859-0.766q0.797 2.391 0.797 4.938h-2zM11.828 29.359q1.016 0.328 2.063 0.484t2.109 0.156v2q-2.563 0-4.953-0.797z"></path>
</svg>
