<!-- Generated by IcoMoon.io -->
<svg version="1.1" xmlns="http://www.w3.org/2000/svg" width="32" height="32" viewBox="0 0 32 32">
<title>uniF314</title>
<path d="M18.047 30l2 2h-16.047v-28h8q0-0.828 0.313-1.555t0.859-1.273 1.273-0.859 1.555-0.313 1.555 0.313 1.273 0.859 0.859 1.273 0.313 1.555h8v16.047l-2 2v-16.047h-2v4h-16v-4h-2v24h12.047zM10 6v2h12v-2h-4v-2q0-0.422-0.156-0.781t-0.43-0.633-0.633-0.43-0.781-0.156-0.781 0.156-0.633 0.43-0.43 0.633-0.156 0.781v2h-4zM31.703 22.703l-8.703 8.719-4.203-4.219 1.406-1.406 2.797 2.781 7.297-7.281z"></path>
</svg>
