<!-- Generated by IcoMoon.io -->
<svg version="1.1" xmlns="http://www.w3.org/2000/svg" width="32" height="32" viewBox="0 0 32 32">
<title>uniE918</title>
<path d="M14 12h-6v-8h2v6h4v2zM32 22q0 1.359-0.352 2.625t-1 2.383-1.555 2.031-2.008 1.578-2.367 1.023-2.625 0.359q-2.094 0-3.93-0.773t-3.203-2.125-2.164-3.18-0.797-3.922q0-2.063 0.789-3.883t2.148-3.18 3.18-2.148 3.883-0.789 3.883 0.789 3.18 2.148 2.148 3.18 0.789 3.883zM22 30q0.328 0 0.586-0.242t0.445-0.617 0.328-0.836 0.234-0.906 0.141-0.82 0.078-0.578h-3.594q0.016 0.203 0.078 0.578t0.156 0.813 0.234 0.906 0.328 0.844 0.43 0.617 0.555 0.242zM23.953 24q0.047-1 0.047-2 0-0.984-0.047-2h-3.906q-0.047 1.016-0.047 2 0 1 0.047 2h3.906zM14 22q0 0.5 0.063 1t0.188 1h3.797q-0.094-2 0-4h-3.797q-0.125 0.5-0.188 1t-0.063 1zM22 14q-0.297 0-0.531 0.242t-0.422 0.625-0.328 0.844-0.242 0.906-0.164 0.82-0.078 0.563h3.516q-0.016-0.172-0.086-0.539t-0.172-0.813-0.242-0.914-0.328-0.852-0.422-0.633-0.5-0.25zM25.953 20q0.047 1 0.047 2t-0.031 2h3.781q0.125-0.5 0.188-1t0.063-1-0.063-1-0.188-1h-3.797zM28.922 18q-0.672-1.172-1.688-2.055t-2.266-1.383q0.313 0.828 0.508 1.688t0.305 1.75h3.141zM18.969 14.594q-1.219 0.5-2.227 1.383t-1.664 2.023h3.125q0.109-0.875 0.281-1.727t0.484-1.68zM15.078 26q0.656 1.141 1.648 2.016t2.211 1.375q-0.313-0.813-0.477-1.672t-0.258-1.719h-3.125zM25.125 29.359q1.203-0.5 2.172-1.367t1.625-1.992h-3.094q-0.078 0.859-0.242 1.703t-0.461 1.656zM10 0q1.375 0 2.656 0.359t2.391 1.008 2.023 1.563 1.563 2.023 1.008 2.391 0.359 2.656h-2q0-1.656-0.633-3.109t-1.719-2.539-2.539-1.719-3.109-0.633-3.109 0.633-2.539 1.719-1.719 2.539-0.633 3.109 0.633 3.109 1.719 2.539 2.539 1.719 3.109 0.633v2q-1.375 0-2.656-0.359t-2.391-1.008-2.023-1.563-1.563-2.023-1.008-2.391-0.359-2.656q0-2.063 0.789-3.883t2.148-3.18 3.18-2.148 3.883-0.789z"></path>
</svg>
