<!-- Generated by IcoMoon.io -->
<svg version="1.1" xmlns="http://www.w3.org/2000/svg" width="32" height="32" viewBox="0 0 32 32">
<title>uniE909</title>
<path d="M7.75 13.797q0.203 0 0.453 0.070t0.508 0.164 0.5 0.203 0.445 0.188q-0.125 0.016-0.258 0.031t-0.258 0.016q-0.266 0-0.484-0.086t-0.414-0.195-0.375-0.195-0.336-0.086-0.281 0.063-0.25 0.141q0-0.063-0.109-0.063 0.109-0.109 0.406-0.18t0.453-0.070zM9.859 14.5q0.641 0 1.172 0.219-0.219 0.078-0.438 0.133t-0.453 0.055q-0.313 0-0.563-0.063 0.078-0.125 0.156-0.164t0.125-0.18zM16 0q2.203 0 4.242 0.578t3.813 1.617 3.242 2.508 2.508 3.242 1.617 3.813 0.578 4.242-0.578 4.242-1.617 3.813-2.508 3.242-3.242 2.508-3.813 1.617-4.242 0.578-4.242-0.578-3.813-1.617-3.242-2.508-2.508-3.242-1.617-3.813-0.578-4.242 0.578-4.242 1.617-3.813 2.508-3.242 3.242-2.508 3.813-1.617 4.242-0.578zM27.906 8.672q-0.219-0.344-0.438-0.664t-0.453-0.633q-0.031 0.141-0.086 0.203t-0.055 0.281q0 0.141 0.117 0.273t0.281 0.242 0.336 0.188 0.297 0.109zM26.828 7.141q0 0.125-0.047 0.172h0.094q0.063 0 0.094 0.016zM16 30q1.781 0 3.484-0.453t3.227-1.289 2.813-2.031 2.258-2.68q-0.203-0.469-0.391-0.953t-0.188-1q0-0.563 0.055-0.914t0.102-0.602 0.070-0.461-0.055-0.477-0.273-0.641-0.57-0.969q0.016-0.109 0.055-0.297t0.055-0.391 0.008-0.383-0.070-0.289q-0.406-0.047-0.852-0.172t-0.773-0.375l0.094-0.078q-0.203 0.047-0.406 0.133t-0.398 0.164-0.398 0.133-0.422 0.055l-0.25-0.031 0.047-0.109q-0.219 0.063-0.477 0.156t-0.477 0.094q-0.156 0-0.453-0.109t-0.602-0.266-0.531-0.344-0.227-0.359l0.031-0.047q-0.078-0.094-0.203-0.172t-0.242-0.156-0.195-0.172-0.078-0.219l0.172-0.141-0.359-0.047-0.125-0.469q0.031 0.078 0.148 0.063t0.164-0.063l-0.563-0.297 0.391-1q-0.219-0.813-0.102-1.25t0.414-0.727 0.695-0.563 0.758-0.758l-0.047-0.188 1.031-1.25 0.234-0.031q0.438 0 0.984-0.039t1.109-0.109 1.109-0.156 1-0.195q-0.5-0.594-1.055-1.125t-1.164-1.016q-0.172 0.063-0.43 0.18t-0.492 0.281-0.398 0.367-0.164 0.422l0.094 0.297q-0.281 0.453-0.625 0.57t-0.711 0.125-0.75-0.008-0.742 0.141l-0.25-0.531 0.234-0.906-0.266-0.391 2.703-0.844q-0.172-0.438-0.57-0.656t-0.852-0.219v-0.156l0.875-0.141q-1.453-0.719-3.023-1.094t-3.195-0.375q-1.359 0-2.688 0.266t-2.57 0.773-2.383 1.242-2.109 1.688q0.406 0 0.633 0.211t0.406 0.453 0.383 0.453 0.547 0.211l0.25-0.188-0.031-0.344 0.516-0.734-0.406-1.156q0.078-0.047 0.242-0.156t0.258-0.109q0.469 0 0.727 0.047t0.43 0.18 0.328 0.359 0.438 0.586l0.563-0.438q0.156 0.063 0.508 0.211t0.695 0.344 0.609 0.414 0.266 0.406q0 0.234-0.18 0.375t-0.445 0.234-0.586 0.148-0.586 0.117-0.453 0.164-0.188 0.258l0.906 0.297q-0.313 0.266-0.68 0.492t-0.742 0.398l0.063 0.266-1.438 0.563v0.438l-0.109 0.047 0.078-0.547-0.063-0.016q-0.109 0-0.133 0.047t-0.008 0.109 0.039 0.125 0.008 0.094l-0.203-0.109 0.031 0.063q0 0.047 0.055 0.141t0.125 0.18 0.125 0.156l0.055 0.070q0 0.047-0.070 0.094t-0.148 0.070-0.125 0.039 0 0.016q0.219 0 0.086 0.031t-0.383 0.156-0.492 0.367-0.242 0.68q0 0.266 0.023 0.516t-0.023 0.516q-0.219-0.594-0.656-0.906t-1.063-0.313l-0.672 0.063 0.328 0.219q-0.266-0.031-0.555-0.063t-0.57-0.008-0.539 0.125-0.461 0.32l-0.094 0.703q0 0.5 0.227 0.82t0.758 0.32q0.469 0 0.922-0.148t0.891-0.32q-0.141 0.344-0.313 0.664t-0.25 0.68l0.203 0.094q0.375-0.25 0.688-0.078t0.609 0.5 0.609 0.68 0.672 0.492l-0.531 0.281-1.25-0.703q0.016 0.031 0.039 0.141t-0.023 0.047l-0.563-0.953q-0.5-0.016-1.070-0.164t-1.133-0.375-1.086-0.516-0.914-0.586l-0.109 1.672q0 1.906 0.516 3.719t1.461 3.406 2.289 2.914 3.016 2.227q-0.078-0.328-0.016-0.656t0.164-0.656 0.203-0.664 0.102-0.664q0-0.5-0.156-1.055t-0.383-1.109-0.477-1.102-0.43-1.039-0.242-0.906 0.094-0.727l-0.234-0.109q0.094-0.219 0.258-0.422t0.32-0.414 0.266-0.43 0.109-0.469q0-0.156-0.070-0.336t-0.102-0.32l0.328 0.078q0.266-0.609 0.727-0.836t1.133-0.227q0.078 0 0.328 0.070t0.531 0.164l0.539 0.18t0.367 0.117q0 0.109 0.133 0.148t0.133 0.102l-0.031 0.125q0.047 0.016 0.227 0.117t0.375 0.227 0.359 0.25 0.211 0.172q0.281 0 0.773 0.188t1.055 0.477 1.148 0.672 1.055 0.781 0.773 0.781 0.305 0.68l-0.531 0.563q0.063 0.797-0.117 1.227t-0.531 0.695-0.828 0.469-1.008 0.531q0 0.313-0.156 0.68t-0.398 0.688-0.563 0.539-0.648 0.219l-0.656-0.5q0.031 0.031-0.008 0.117t-0.070 0.023q0.156 0.297 0.078 0.688t-0.266 0.797-0.422 0.773-0.422 0.602q0.844 0.219 1.688 0.328t1.703 0.109z"></path>
</svg>
