<!-- Generated by IcoMoon.io -->
<svg version="1.1" xmlns="http://www.w3.org/2000/svg" width="32" height="32" viewBox="0 0 32 32">
<title>uniF7CA</title>
<path d="M16.672 13.359q0 0.641-0.352 0.984t-1.008 0.344q-0.25 0-0.477-0.070t-0.453-0.148-0.461-0.148-0.469-0.070q-0.313 0-0.656 0.227t-0.688 0.594-0.68 0.813-0.625 0.883-0.523 0.82-0.359 0.617l1.406 5.922q0.031 0.156 0.109 0.469t0.195 0.633 0.289 0.555 0.406 0.234q0.344 0 0.719-0.281t0.711-0.672 0.617-0.805 0.422-0.695l0.594 0.297q-0.172 0.313-0.453 0.742t-0.633 0.891-0.758 0.914-0.836 0.805-0.852 0.57-0.813 0.219q-0.547 0-0.914-0.313t-0.633-0.766q-0.109-0.188-0.242-0.625t-0.281-1.008-0.297-1.195-0.281-1.211-0.234-1.055-0.148-0.703q-0.359 0.641-0.867 1.484t-1.086 1.695-1.188 1.609-1.172 1.227q-0.438 0.359-0.945 0.609t-1.086 0.25q-0.328 0-0.633-0.109t-0.531-0.305-0.367-0.477-0.141-0.625q0-0.578 0.367-0.953t0.945-0.375q0.313 0 0.578 0.148t0.492 0.328 0.422 0.328 0.367 0.148q0.25 0 0.656-0.391t0.875-1 0.961-1.344 0.914-1.43 0.734-1.25 0.422-0.82q-0.328-1.297-0.531-2.086t-0.32-1.258-0.18-0.695-0.125-0.398q-0.172-0.453-0.406-0.875t-0.625-0.703q-0.406-0.297-0.898-0.383t-0.977-0.086q-0.453 0-0.922 0.047v-0.625l4.609-0.813q0.547 0.578 0.898 1.156t0.594 1.195 0.414 1.281 0.375 1.414l1.516-2.266q0.281-0.406 0.727-0.891t0.977-0.906 1.102-0.703 1.086-0.281q0.313 0 0.602 0.086t0.516 0.25 0.367 0.422 0.141 0.602zM32 2.75q0 0.594-0.203 1.18t-0.484 1.117q-0.266 0.484-0.742 1.227t-1.117 1.633-1.383 1.883-1.531 1.977-1.578 1.914-1.508 1.703-1.328 1.344-1.031 0.82q-0.359 0.219-0.766 0.391t-0.828 0.172q-0.391 0-0.688-0.297t-0.297-0.688q0-0.25 0.109-0.484t0.297-0.422 0.422-0.297 0.484-0.109q0.297 0 0.438 0.148t0.211 0.32 0.133 0.32 0.234 0.148q0.156 0 0.461-0.219t0.68-0.555 0.773-0.758 0.758-0.813 0.633-0.711 0.383-0.477l-0.703-8.047q-0.016-0.188-0.055-0.531t-0.102-0.719-0.156-0.703-0.219-0.469q-0.219-0.266-0.547-0.352t-0.656-0.086q-0.234 0-0.477 0.023t-0.477 0.055l-0.109-0.469 3.719-0.906q0.281 0.453 0.445 0.922t0.25 0.953 0.133 0.992 0.094 1.023l0.563 6.25q0.219-0.266 0.656-0.836t0.969-1.289 1.094-1.523 1.016-1.539 0.75-1.313 0.297-0.859q0-0.203-0.219-0.297t-0.492-0.227-0.492-0.367-0.219-0.734 0.273-0.828 0.789-0.328q0.359 0 0.609 0.156t0.414 0.398 0.242 0.555 0.078 0.625z"></path>
</svg>
