<!-- Generated by IcoMoon.io -->
<svg version="1.1" xmlns="http://www.w3.org/2000/svg" width="32" height="32" viewBox="0 0 32 32">
<title>uniE551</title>
<path d="M0 0h30v32h-30v-32zM28 30v-28h-26v28h26zM14 16v-2h-7q-0.406 0-0.703-0.297t-0.297-0.703 0.297-0.703 0.703-0.297h7v-2h-5q-0.406 0-0.703-0.297t-0.297-0.703 0.297-0.703 0.703-0.297h5q0-0.125-0.008-0.258t-0.008-0.273q0-0.266 0.031-0.523t0.133-0.469 0.305-0.344 0.547-0.133 0.539 0.133 0.297 0.344 0.133 0.469 0.031 0.523v0.531h5q0.406 0 0.703 0.297t0.297 0.703-0.297 0.703-0.703 0.297h-5v2h7q0.406 0 0.703 0.297t0.297 0.703-0.297 0.703-0.703 0.297h-7v2h7q0.406 0 0.703 0.297t0.297 0.703-0.297 0.703-0.703 0.297h-7v2h3q0.625 0 1.172 0.234t0.953 0.641 0.641 0.953 0.234 1.172-0.234 1.172-0.641 0.953-0.953 0.641-1.172 0.234-1.172-0.234-0.953-0.641-0.641-0.953-0.234-1.172q0-0.266 0.055-0.508t0.133-0.492h-2.375q0.078 0.25 0.133 0.492t0.055 0.508q0 0.625-0.234 1.172t-0.641 0.953-0.953 0.641-1.172 0.234-1.172-0.234-0.953-0.641-0.641-0.953-0.234-1.172 0.234-1.172 0.641-0.953 0.953-0.641 1.172-0.234h3v-2h-7q-0.406 0-0.703-0.297t-0.297-0.703 0.297-0.703 0.703-0.297h7zM11 24q0.406 0 0.703-0.297t0.297-0.703-0.297-0.703-0.703-0.297-0.703 0.297-0.297 0.703 0.297 0.703 0.703 0.297zM19 22q-0.406 0-0.703 0.297t-0.297 0.703 0.297 0.703 0.703 0.297 0.703-0.297 0.297-0.703-0.297-0.703-0.703-0.297z"></path>
</svg>
