<!-- Generated by IcoMoon.io -->
<svg version="1.1" xmlns="http://www.w3.org/2000/svg" width="32" height="32" viewBox="0 0 32 32">
<title>uniED19</title>
<path d="M31.313 16.016q0 0.656-0.039 1.453t-0.125 1.617-0.211 1.602-0.313 1.406q-0.078 0.281-0.289 0.461t-0.523 0.18q-0.141 0-0.594-0.109t-0.984-0.258-1.008-0.289-0.68-0.188q-0.328 1.219-0.852 2.523t-1.195 2.547-1.484 2.383-1.703 2.031q-0.141 0.125-0.289 0.195t-0.336 0.070q-0.344 0-0.578-0.234l-7.422-7.406h-11.359q-0.547 0-0.938-0.391t-0.391-0.938v-13.344q0-0.547 0.391-0.938t0.938-0.391h11.359l7.406-7.406q0.234-0.234 0.578-0.234 0.203 0 0.336 0.063t0.273 0.203q0.406 0.406 0.758 0.836t0.68 0.883q2.688 3.563 3.828 7.828 0.281-0.078 0.758-0.219t0.969-0.281 0.922-0.242 0.617-0.102q0.313 0 0.523 0.18t0.289 0.461q0.188 0.641 0.32 1.414t0.219 1.578 0.117 1.594 0.031 1.461zM12.25 11.875q0-0.484-0.328-0.813t-0.813-0.328q-0.313 0-0.586 0.164t-0.43 0.445l-2.031 3.828-1.969-3.828q-0.188-0.359-0.508-0.484t-0.695-0.125q-0.484 0-0.813 0.328t-0.328 0.813q0 0.313 0.141 0.563l2.766 4.922q0.031 0.063 0.055 0.156t0.023 0.172v2.438q0 0.594 0.398 0.867t0.93 0.273q0.375 0 0.602-0.141t0.352-0.375 0.172-0.539 0.047-0.648q0-0.406-0.031-0.813t-0.031-0.75q0-0.219 0.016-0.383t0.094-0.289l2.813-4.891q0.156-0.281 0.156-0.563zM20.625 2.891l-5.281 5.297q0.297 0.172 0.477 0.477t0.18 0.664v3.656l8.609-2.297q-0.594-2.219-1.578-4.109t-2.406-3.688zM24.625 21.359l-8.625-2.313v3.625q0 0.359-0.18 0.664t-0.477 0.477l5.297 5.297q1.391-1.703 2.406-3.656t1.578-4.078v-0.016zM28.922 20.453q0.203-1.109 0.297-2.211t0.094-2.227-0.094-2.227-0.297-2.195q-3.25 0.875-6.461 1.727t-6.461 1.727q-0.016 0.25-0.016 0.484v0.977t0.016 0.477q3.25 0.875 6.461 1.719t6.461 1.75z"></path>
</svg>
