<!-- Generated by IcoMoon.io -->
<svg version="1.1" xmlns="http://www.w3.org/2000/svg" width="32" height="32" viewBox="0 0 32 32">
<title>uniE665</title>
<path d="M16.125 14q1.109 0 1.852 0.414t1.195 1.102 0.641 1.586 0.188 1.852q0 1-0.219 1.914t-0.711 1.609-1.273 1.109-1.906 0.414q-1.109 0-1.852-0.414t-1.195-1.102-0.648-1.578-0.195-1.859q0-1 0.219-1.914t0.711-1.609 1.281-1.109 1.914-0.414zM13.922 19.266q0 0.078 0.008 0.133t0.023 0.133l3.828-2.625q-0.219-0.609-0.656-1.023t-1.125-0.414-1.102 0.406-0.633 0.992-0.281 1.242-0.063 1.156zM18.078 19.016q0-0.125-0.016-0.25t-0.016-0.25l-3.813 2.594q0.219 0.609 0.641 1.016t1.125 0.406q0.641 0 1.047-0.367t0.633-0.898 0.313-1.141 0.086-1.109zM26 2h6v16h-2v-8h-28v18h14v2h-16v-28h6v-2h2v2h16v-2h2v2zM2 8h28v-4h-4v2h-2v-2h-16v2h-2v-2h-4v4zM23 28.578l7.297-7.281 1.406 1.406-8.703 8.719-4.203-4.219 1.406-1.406z"></path>
</svg>
