<!-- Generated by IcoMoon.io -->
<svg version="1.1" xmlns="http://www.w3.org/2000/svg" width="32" height="32" viewBox="0 0 32 32">
<title>uniF012</title>
<path d="M28 0q0.422 0 0.781 0.156t0.633 0.43 0.43 0.633 0.156 0.781v7.5q0 0.703-0.148 1.211t-0.367 0.906-0.484 0.711-0.484 0.633-0.367 0.688-0.148 0.852v15.5q0 0.422-0.156 0.781t-0.43 0.633-0.633 0.43-0.781 0.156h-22v-32h24zM10 2v6h4v-6h-4zM26 14.5q0-0.484-0.148-0.852t-0.367-0.688-0.484-0.633-0.484-0.711-0.367-0.906-0.148-1.211v-7.5h-8v8h-4v2h-2v-2h-2v-8h-2v28h6v-2h2v2h12v-15.5zM28 2h-2v7.5q0 0.375 0.070 0.656t0.203 0.516 0.313 0.461 0.414 0.492q0.234-0.266 0.414-0.492t0.313-0.461 0.203-0.516 0.070-0.656v-7.5zM10 14h2v2h-2v-2zM10 18h2v2h-2v-2zM10 22h2v2h-2v-2zM12 26v2h-2v-2h2zM12 14v-2h2v2h-2zM12 18v-2h2v2h-2zM12 22v-2h2v2h-2zM12 26v-2h2v2h-2z"></path>
</svg>
