<!-- Generated by IcoMoon.io -->
<svg version="1.1" xmlns="http://www.w3.org/2000/svg" width="32" height="32" viewBox="0 0 32 32">
<title>uniF649</title>
<path d="M11.703 7.125l-1.406-1.422 5.703-5.703 5.703 5.703-1.406 1.422-4.297-4.297zM20.297 24.875l1.406 1.422-5.703 5.703-5.703-5.703 1.406-1.422 4.297 4.297zM7.125 11.703l-4.297 4.297 4.297 4.297-1.422 1.406-5.703-5.703 5.703-5.703zM32 16l-5.703 5.703-1.422-1.406 4.297-4.297-4.297-4.297 1.422-1.406zM10 10h12v12h-12v-12zM12 20h8v-8h-8v8z"></path>
</svg>
