<!-- Generated by IcoMoon.io -->
<svg version="1.1" xmlns="http://www.w3.org/2000/svg" width="32" height="32" viewBox="0 0 32 32">
<title>uniE8A3</title>
<path d="M31.703 30.297q0.297 0.297 0.297 0.703t-0.297 0.703-0.703 0.297-0.703-0.297l-12.266-12.25q-1.5 1.234-3.289 1.891t-3.742 0.656q-1.516 0-2.922-0.391t-2.625-1.109-2.227-1.727-1.727-2.227-1.109-2.625-0.391-2.922 0.391-2.922 1.109-2.625 1.727-2.227 2.227-1.727 2.625-1.109 2.922-0.391 2.922 0.391 2.625 1.109 2.227 1.727 1.727 2.227 1.109 2.625 0.391 2.922q0 1.953-0.656 3.742t-1.891 3.289zM11 20q1.859 0 3.5-0.711t2.859-1.93 1.93-2.859 0.711-3.5-0.711-3.5-1.93-2.859-2.859-1.93-3.5-0.711-3.5 0.711-2.859 1.93-1.93 2.859-0.711 3.5 0.711 3.5 1.93 2.859 2.859 1.93 3.5 0.711zM12 10h4v2h-4v4h-2v-4h-4v-2h4v-4h2v4z"></path>
</svg>
